<svg xmlns="http://www.w3.org/2000/svg" xmlns:xlink="http://www.w3.org/1999/xlink" width="1024" zoomAndPan="magnify" viewBox="0 0 768 767.999994" height="1024" preserveAspectRatio="xMidYMid meet" version="1.0"><defs><clipPath id="5e257929f7"><path d="M 184 473 L 649 473 L 649 730.558594 L 184 730.558594 Z M 184 473 " clip-rule="nonzero"/></clipPath><clipPath id="843e842db5"><path d="M 220 56.308594 L 613 56.308594 L 613 450 L 220 450 Z M 220 56.308594 " clip-rule="nonzero"/></clipPath><clipPath id="587505fdb0"><path d="M 51 443 L 278 443 L 278 730.558594 L 51 730.558594 Z M 51 443 " clip-rule="nonzero"/></clipPath><clipPath id="2a246044c3"><path d="M 22.652344 268 L 98 268 L 98 275 L 22.652344 275 Z M 22.652344 268 " clip-rule="nonzero"/></clipPath><clipPath id="7c6d3624f9"><path d="M 681 393 L 745.652344 393 L 745.652344 401 L 681 401 Z M 681 393 " clip-rule="nonzero"/></clipPath></defs><path fill="#ffffff" d="M 188.941406 726.480469 L 644.226562 726.480469 L 644.226562 477.132812 L 188.941406 477.132812 Z M 188.941406 726.480469 " fill-opacity="1" fill-rule="nonzero"/><g clip-path="url(#5e257929f7)"><path fill="#4dc4ce" d="M 644.226562 726.480469 L 644.226562 722.472656 L 192.957031 722.472656 L 192.957031 481.148438 L 640.210938 481.148438 L 640.210938 726.480469 L 644.226562 726.480469 L 644.226562 722.472656 L 644.226562 726.480469 L 648.234375 726.480469 L 648.234375 477.132812 C 648.234375 476.082031 647.8125 475.046875 647.066406 474.300781 C 646.3125 473.554688 645.277344 473.125 644.226562 473.125 L 188.941406 473.125 C 187.890625 473.125 186.855469 473.554688 186.109375 474.300781 C 185.363281 475.046875 184.933594 476.082031 184.933594 477.132812 L 184.933594 726.480469 C 184.933594 727.539062 185.363281 728.574219 186.109375 729.320312 C 186.855469 730.066406 187.890625 730.496094 188.941406 730.496094 L 644.226562 730.496094 C 645.277344 730.496094 646.3125 730.066406 647.066406 729.320312 C 647.8125 728.574219 648.234375 727.539062 648.234375 726.480469 L 644.226562 726.480469 " fill-opacity="1" fill-rule="nonzero"/></g><path fill="#ffffff" d="M 644.035156 476.75 L 644.035156 222.226562 C 644.035156 202.171875 627.785156 185.917969 607.738281 185.917969 L 225.4375 185.917969 C 205.382812 185.917969 189.140625 202.171875 189.140625 222.226562 L 189.140625 476.75 L 644.035156 476.75 " fill-opacity="1" fill-rule="nonzero"/><path fill="#4dc4ce" d="M 644.035156 476.75 L 648.050781 476.75 L 648.050781 222.226562 C 648.042969 199.960938 630.003906 181.910156 607.738281 181.910156 L 225.4375 181.910156 C 203.164062 181.910156 185.125 199.960938 185.125 222.226562 L 185.125 476.75 C 185.125 477.8125 185.554688 478.847656 186.300781 479.59375 C 187.046875 480.335938 188.078125 480.769531 189.140625 480.769531 L 644.035156 480.769531 C 645.089844 480.769531 646.125 480.335938 646.867188 479.59375 C 647.621094 478.839844 648.050781 477.8125 648.050781 476.75 L 644.035156 476.75 L 644.035156 472.742188 L 193.148438 472.742188 L 193.148438 222.226562 C 193.148438 213.292969 196.757812 205.246094 202.601562 199.390625 C 208.457031 193.535156 216.511719 189.933594 225.4375 189.933594 L 607.738281 189.933594 C 616.664062 189.933594 624.710938 193.535156 630.566406 199.390625 C 636.417969 205.246094 640.019531 213.292969 640.03125 222.226562 L 640.03125 476.75 L 644.035156 476.75 L 644.035156 472.742188 L 644.035156 476.75 " fill-opacity="1" fill-rule="nonzero"/><path fill="#ffffff" d="M 222.707031 476.75 L 610.460938 476.75 L 610.460938 215.710938 L 222.707031 215.710938 Z M 222.707031 476.75 " fill-opacity="1" fill-rule="nonzero"/><path fill="#4dc4ce" d="M 610.460938 215.710938 L 610.460938 211.703125 L 222.707031 211.703125 C 221.644531 211.703125 220.609375 212.132812 219.867188 212.878906 C 219.121094 213.625 218.691406 214.660156 218.691406 215.710938 L 218.691406 476.75 C 218.691406 477.8125 219.121094 478.847656 219.867188 479.59375 C 220.609375 480.335938 221.644531 480.769531 222.707031 480.769531 L 610.460938 480.769531 C 611.523438 480.769531 612.558594 480.335938 613.300781 479.59375 C 614.046875 478.839844 614.476562 477.8125 614.476562 476.75 L 614.476562 215.710938 C 614.476562 214.660156 614.046875 213.625 613.300781 212.878906 C 612.558594 212.132812 611.523438 211.703125 610.460938 211.703125 L 610.460938 215.710938 L 606.457031 215.710938 L 606.457031 472.742188 L 226.714844 472.742188 L 226.714844 219.726562 L 610.460938 219.726562 L 610.460938 215.710938 L 606.457031 215.710938 L 610.460938 215.710938 " fill-opacity="1" fill-rule="nonzero"/><path fill="#ffffff" d="M 228.179688 519.761719 L 208.9375 519.761719 L 208.9375 500.523438 L 228.179688 500.523438 L 228.179688 519.761719 " fill-opacity="1" fill-rule="nonzero"/><path fill="#4dc4ce" d="M 228.179688 519.761719 L 228.179688 515.746094 L 212.953125 515.746094 L 212.953125 504.53125 L 224.164062 504.53125 L 224.164062 519.761719 L 228.179688 519.761719 L 228.179688 515.746094 L 228.179688 519.761719 L 232.1875 519.761719 L 232.1875 500.523438 C 232.1875 499.464844 231.753906 498.429688 231.011719 497.683594 C 230.265625 496.9375 229.230469 496.507812 228.179688 496.507812 L 208.9375 496.507812 C 207.886719 496.507812 206.851562 496.9375 206.105469 497.683594 C 205.351562 498.429688 204.929688 499.464844 204.929688 500.523438 L 204.929688 519.761719 C 204.929688 520.8125 205.351562 521.847656 206.105469 522.59375 C 206.851562 523.335938 207.886719 523.769531 208.9375 523.769531 L 228.179688 523.769531 C 229.230469 523.769531 230.265625 523.335938 231.011719 522.59375 C 231.753906 521.847656 232.1875 520.8125 232.1875 519.761719 L 228.179688 519.761719 " fill-opacity="1" fill-rule="nonzero"/><path fill="#ffffff" d="M 248.546875 519.761719 L 267.78125 519.761719 L 267.78125 500.523438 L 248.546875 500.523438 Z M 248.546875 519.761719 " fill-opacity="1" fill-rule="nonzero"/><path fill="#4dc4ce" d="M 267.78125 519.761719 L 267.78125 515.746094 L 252.554688 515.746094 L 252.554688 504.53125 L 263.765625 504.53125 L 263.765625 519.761719 L 267.78125 519.761719 L 267.78125 515.746094 L 267.78125 519.761719 L 271.789062 519.761719 L 271.789062 500.523438 C 271.789062 499.464844 271.367188 498.429688 270.613281 497.683594 C 269.867188 496.9375 268.832031 496.507812 267.78125 496.507812 L 248.546875 496.507812 C 247.488281 496.507812 246.453125 496.9375 245.707031 497.683594 C 244.960938 498.429688 244.53125 499.464844 244.53125 500.523438 L 244.53125 519.761719 C 244.53125 520.8125 244.960938 521.847656 245.707031 522.59375 C 246.453125 523.335938 247.488281 523.769531 248.546875 523.769531 L 267.78125 523.769531 C 268.832031 523.769531 269.867188 523.335938 270.613281 522.59375 C 271.367188 521.847656 271.789062 520.8125 271.789062 519.761719 L 267.78125 519.761719 " fill-opacity="1" fill-rule="nonzero"/><path fill="#ffffff" d="M 307.382812 519.761719 L 288.148438 519.761719 L 288.148438 500.523438 L 307.382812 500.523438 L 307.382812 519.761719 " fill-opacity="1" fill-rule="nonzero"/><path fill="#4dc4ce" d="M 307.382812 519.761719 L 307.382812 515.746094 L 292.164062 515.746094 L 292.164062 504.53125 L 303.375 504.53125 L 303.375 519.761719 L 307.382812 519.761719 L 307.382812 515.746094 L 307.382812 519.761719 L 311.398438 519.761719 L 311.398438 500.523438 C 311.398438 499.464844 310.96875 498.429688 310.222656 497.683594 C 309.476562 496.9375 308.441406 496.507812 307.382812 496.507812 L 288.148438 496.507812 C 287.097656 496.507812 286.0625 496.9375 285.316406 497.683594 C 284.570312 498.429688 284.140625 499.464844 284.140625 500.523438 L 284.140625 519.761719 C 284.140625 520.8125 284.570312 521.847656 285.316406 522.59375 C 286.0625 523.335938 287.097656 523.769531 288.148438 523.769531 L 307.382812 523.769531 C 308.441406 523.769531 309.476562 523.335938 310.222656 522.59375 C 310.96875 521.847656 311.398438 520.8125 311.398438 519.761719 L 307.382812 519.761719 " fill-opacity="1" fill-rule="nonzero"/><path fill="#ffffff" d="M 346.992188 519.761719 L 327.75 519.761719 L 327.75 500.523438 L 346.992188 500.523438 L 346.992188 519.761719 " fill-opacity="1" fill-rule="nonzero"/><path fill="#4dc4ce" d="M 346.992188 519.761719 L 346.992188 515.746094 L 331.765625 515.746094 L 331.765625 504.53125 L 342.984375 504.53125 L 342.984375 519.761719 L 346.992188 519.761719 L 346.992188 515.746094 L 346.992188 519.761719 L 351 519.761719 L 351 500.523438 C 351 499.464844 350.578125 498.429688 349.832031 497.683594 C 349.078125 496.9375 348.054688 496.507812 346.992188 496.507812 L 327.75 496.507812 C 326.699219 496.507812 325.664062 496.9375 324.917969 497.683594 C 324.175781 498.429688 323.742188 499.464844 323.742188 500.523438 L 323.742188 519.761719 C 323.742188 520.8125 324.175781 521.847656 324.917969 522.59375 C 325.664062 523.335938 326.699219 523.769531 327.75 523.769531 L 346.992188 523.769531 C 348.054688 523.769531 349.078125 523.335938 349.832031 522.59375 C 350.578125 521.847656 351 520.8125 351 519.761719 L 346.992188 519.761719 " fill-opacity="1" fill-rule="nonzero"/><path fill="#ffffff" d="M 386.59375 519.761719 L 367.359375 519.761719 L 367.359375 500.523438 L 386.59375 500.523438 L 386.59375 519.761719 " fill-opacity="1" fill-rule="nonzero"/><path fill="#4dc4ce" d="M 386.59375 519.761719 L 386.59375 515.746094 L 371.367188 515.746094 L 371.367188 504.53125 L 382.585938 504.53125 L 382.585938 519.761719 L 386.59375 519.761719 L 386.59375 515.746094 L 386.59375 519.761719 L 390.609375 519.761719 L 390.609375 500.523438 C 390.609375 499.464844 390.179688 498.429688 389.433594 497.683594 C 388.691406 496.9375 387.65625 496.507812 386.59375 496.507812 L 367.359375 496.507812 C 366.300781 496.507812 365.273438 496.9375 364.519531 497.683594 C 363.777344 498.429688 363.34375 499.464844 363.34375 500.523438 L 363.34375 519.761719 C 363.34375 520.8125 363.777344 521.847656 364.519531 522.59375 C 365.273438 523.335938 366.308594 523.769531 367.359375 523.769531 L 386.59375 523.769531 C 387.65625 523.769531 388.691406 523.335938 389.433594 522.59375 C 390.179688 521.847656 390.609375 520.8125 390.609375 519.761719 L 386.59375 519.761719 " fill-opacity="1" fill-rule="nonzero"/><path fill="#ffffff" d="M 426.207031 519.761719 L 406.972656 519.761719 L 406.972656 500.523438 L 426.207031 500.523438 L 426.207031 519.761719 " fill-opacity="1" fill-rule="nonzero"/><path fill="#4dc4ce" d="M 426.207031 519.761719 L 426.207031 515.746094 L 410.980469 515.746094 L 410.980469 504.53125 L 422.191406 504.53125 L 422.191406 519.761719 L 426.207031 519.761719 L 426.207031 515.746094 L 426.207031 519.761719 L 430.210938 519.761719 L 430.210938 500.523438 C 430.210938 499.464844 429.789062 498.429688 429.046875 497.683594 C 428.292969 496.9375 427.265625 496.507812 426.207031 496.507812 L 406.972656 496.507812 C 405.910156 496.507812 404.875 496.9375 404.132812 497.683594 C 403.386719 498.429688 402.957031 499.464844 402.957031 500.523438 L 402.957031 519.761719 C 402.957031 520.8125 403.386719 521.847656 404.132812 522.59375 C 404.875 523.335938 405.910156 523.769531 406.972656 523.769531 L 426.207031 523.769531 C 427.265625 523.769531 428.292969 523.335938 429.046875 522.59375 C 429.789062 521.847656 430.210938 520.8125 430.210938 519.761719 L 426.207031 519.761719 " fill-opacity="1" fill-rule="nonzero"/><path fill="#ffffff" d="M 465.808594 519.761719 L 446.574219 519.761719 L 446.574219 500.523438 L 465.808594 500.523438 L 465.808594 519.761719 " fill-opacity="1" fill-rule="nonzero"/><path fill="#4dc4ce" d="M 465.808594 519.761719 L 465.808594 515.746094 L 450.589844 515.746094 L 450.589844 504.53125 L 461.800781 504.53125 L 461.800781 519.761719 L 465.808594 519.761719 L 465.808594 515.746094 L 465.808594 519.761719 L 469.824219 519.761719 L 469.824219 500.523438 C 469.824219 499.464844 469.390625 498.429688 468.648438 497.683594 C 467.902344 496.9375 466.867188 496.507812 465.808594 496.507812 L 446.574219 496.507812 C 445.523438 496.507812 444.488281 496.9375 443.742188 497.683594 C 442.988281 498.429688 442.566406 499.464844 442.566406 500.523438 L 442.566406 519.761719 C 442.566406 520.8125 442.988281 521.847656 443.742188 522.59375 C 444.488281 523.335938 445.523438 523.769531 446.574219 523.769531 L 465.808594 523.769531 C 466.867188 523.769531 467.902344 523.335938 468.648438 522.59375 C 469.390625 521.847656 469.824219 520.8125 469.824219 519.761719 L 465.808594 519.761719 " fill-opacity="1" fill-rule="nonzero"/><path fill="#ffffff" d="M 505.417969 519.761719 L 486.175781 519.761719 L 486.175781 500.523438 L 505.417969 500.523438 L 505.417969 519.761719 " fill-opacity="1" fill-rule="nonzero"/><path fill="#4dc4ce" d="M 505.417969 519.761719 L 505.417969 515.746094 L 490.191406 515.746094 L 490.191406 504.53125 L 501.410156 504.53125 L 501.410156 519.761719 L 505.417969 519.761719 L 505.417969 515.746094 L 505.417969 519.761719 L 509.433594 519.761719 L 509.433594 500.523438 C 509.433594 499.464844 509.003906 498.429688 508.257812 497.683594 C 507.503906 496.9375 506.476562 496.507812 505.417969 496.507812 L 486.175781 496.507812 C 485.125 496.507812 484.089844 496.9375 483.34375 497.683594 C 482.589844 498.429688 482.167969 499.464844 482.167969 500.523438 L 482.167969 519.761719 C 482.167969 520.8125 482.589844 521.847656 483.34375 522.59375 C 484.089844 523.335938 485.125 523.769531 486.175781 523.769531 L 505.417969 523.769531 C 506.476562 523.769531 507.503906 523.335938 508.257812 522.59375 C 509.003906 521.847656 509.433594 520.8125 509.433594 519.761719 L 505.417969 519.761719 " fill-opacity="1" fill-rule="nonzero"/><path fill="#ffffff" d="M 545.019531 519.761719 L 525.785156 519.761719 L 525.785156 500.523438 L 545.019531 500.523438 L 545.019531 519.761719 " fill-opacity="1" fill-rule="nonzero"/><path fill="#4dc4ce" d="M 545.019531 519.761719 L 545.019531 515.746094 L 529.792969 515.746094 L 529.792969 504.53125 L 541.011719 504.53125 L 541.011719 519.761719 L 545.019531 519.761719 L 545.019531 515.746094 L 545.019531 519.761719 L 549.035156 519.761719 L 549.035156 500.523438 C 549.035156 499.464844 548.605469 498.429688 547.859375 497.683594 C 547.113281 496.9375 546.078125 496.507812 545.019531 496.507812 L 525.785156 496.507812 C 524.726562 496.507812 523.699219 496.9375 522.945312 497.683594 C 522.199219 498.429688 521.769531 499.464844 521.769531 500.523438 L 521.769531 519.761719 C 521.769531 520.8125 522.199219 521.847656 522.945312 522.59375 C 523.699219 523.335938 524.726562 523.769531 525.785156 523.769531 L 545.019531 523.769531 C 546.078125 523.769531 547.113281 523.335938 547.859375 522.59375 C 548.605469 521.847656 549.035156 520.8125 549.035156 519.761719 L 545.019531 519.761719 " fill-opacity="1" fill-rule="nonzero"/><path fill="#ffffff" d="M 584.628906 519.761719 L 565.394531 519.761719 L 565.394531 500.523438 L 584.628906 500.523438 L 584.628906 519.761719 " fill-opacity="1" fill-rule="nonzero"/><path fill="#4dc4ce" d="M 584.628906 519.761719 L 584.628906 515.746094 L 569.402344 515.746094 L 569.402344 504.53125 L 580.613281 504.53125 L 580.613281 519.761719 L 584.628906 519.761719 L 584.628906 515.746094 L 584.628906 519.761719 L 588.636719 519.761719 L 588.636719 500.523438 C 588.636719 499.464844 588.214844 498.429688 587.46875 497.683594 C 586.714844 496.9375 585.691406 496.507812 584.628906 496.507812 L 565.394531 496.507812 C 564.335938 496.507812 563.300781 496.9375 562.554688 497.683594 C 561.8125 498.429688 561.378906 499.464844 561.378906 500.523438 L 561.378906 519.761719 C 561.378906 520.8125 561.8125 521.847656 562.554688 522.59375 C 563.300781 523.335938 564.335938 523.769531 565.394531 523.769531 L 584.628906 523.769531 C 585.691406 523.769531 586.714844 523.335938 587.460938 522.59375 C 588.214844 521.847656 588.636719 520.8125 588.636719 519.761719 L 584.628906 519.761719 " fill-opacity="1" fill-rule="nonzero"/><path fill="#ffffff" d="M 624.230469 519.761719 L 604.996094 519.761719 L 604.996094 500.523438 L 624.230469 500.523438 L 624.230469 519.761719 " fill-opacity="1" fill-rule="nonzero"/><path fill="#4dc4ce" d="M 624.230469 519.761719 L 624.230469 515.746094 L 609.003906 515.746094 L 609.003906 504.53125 L 620.222656 504.53125 L 620.222656 519.761719 L 624.230469 519.761719 L 624.230469 515.746094 L 624.230469 519.761719 L 628.246094 519.761719 L 628.246094 500.523438 C 628.246094 499.464844 627.816406 498.429688 627.070312 497.683594 C 626.328125 496.9375 625.292969 496.507812 624.230469 496.507812 L 604.996094 496.507812 C 603.9375 496.507812 602.910156 496.9375 602.15625 497.683594 C 601.414062 498.429688 600.980469 499.464844 600.980469 500.523438 L 600.980469 519.761719 C 600.980469 520.8125 601.414062 521.847656 602.15625 522.59375 C 602.910156 523.335938 603.9375 523.769531 604.996094 523.769531 L 624.230469 523.769531 C 625.292969 523.769531 626.328125 523.335938 627.070312 522.59375 C 627.816406 521.847656 628.246094 520.8125 628.246094 519.761719 L 624.230469 519.761719 " fill-opacity="1" fill-rule="nonzero"/><path fill="#ffffff" d="M 228.179688 558.800781 L 208.9375 558.800781 L 208.9375 539.566406 L 228.179688 539.566406 L 228.179688 558.800781 " fill-opacity="1" fill-rule="nonzero"/><path fill="#4dc4ce" d="M 228.179688 558.800781 L 228.179688 554.792969 L 212.953125 554.792969 L 212.953125 543.574219 L 224.164062 543.574219 L 224.164062 558.800781 L 228.179688 558.800781 L 228.179688 554.792969 L 228.179688 558.800781 L 232.1875 558.800781 L 232.1875 539.566406 C 232.1875 538.507812 231.753906 537.480469 231.011719 536.726562 C 230.265625 535.980469 229.230469 535.558594 228.179688 535.558594 L 208.9375 535.558594 C 207.886719 535.558594 206.851562 535.980469 206.105469 536.726562 C 205.351562 537.480469 204.929688 538.507812 204.929688 539.566406 L 204.929688 558.800781 C 204.929688 559.863281 205.351562 560.898438 206.105469 561.640625 C 206.851562 562.386719 207.886719 562.820312 208.9375 562.820312 L 228.179688 562.820312 C 229.230469 562.820312 230.265625 562.386719 231.011719 561.640625 C 231.753906 560.898438 232.1875 559.863281 232.1875 558.800781 L 228.179688 558.800781 " fill-opacity="1" fill-rule="nonzero"/><path fill="#ffffff" d="M 248.546875 558.800781 L 267.78125 558.800781 L 267.78125 539.566406 L 248.546875 539.566406 Z M 248.546875 558.800781 " fill-opacity="1" fill-rule="nonzero"/><path fill="#4dc4ce" d="M 267.78125 558.800781 L 267.78125 554.792969 L 252.554688 554.792969 L 252.554688 543.574219 L 263.765625 543.574219 L 263.765625 558.800781 L 267.78125 558.800781 L 267.78125 554.792969 L 267.78125 558.800781 L 271.789062 558.800781 L 271.789062 539.566406 C 271.789062 538.507812 271.367188 537.480469 270.613281 536.726562 C 269.867188 535.980469 268.832031 535.558594 267.78125 535.558594 L 248.546875 535.558594 C 247.488281 535.558594 246.453125 535.980469 245.707031 536.726562 C 244.960938 537.480469 244.53125 538.507812 244.53125 539.566406 L 244.53125 558.800781 C 244.53125 559.863281 244.960938 560.898438 245.707031 561.640625 C 246.453125 562.386719 247.488281 562.820312 248.546875 562.820312 L 267.78125 562.820312 C 268.832031 562.820312 269.867188 562.386719 270.613281 561.640625 C 271.367188 560.898438 271.789062 559.863281 271.789062 558.800781 L 267.78125 558.800781 " fill-opacity="1" fill-rule="nonzero"/><path fill="#ffffff" d="M 307.382812 558.800781 L 288.148438 558.800781 L 288.148438 539.566406 L 307.382812 539.566406 L 307.382812 558.800781 " fill-opacity="1" fill-rule="nonzero"/><path fill="#4dc4ce" d="M 307.382812 558.800781 L 307.382812 554.792969 L 292.164062 554.792969 L 292.164062 543.574219 L 303.375 543.574219 L 303.375 558.800781 L 307.382812 558.800781 L 307.382812 554.792969 L 307.382812 558.800781 L 311.398438 558.800781 L 311.398438 539.566406 C 311.398438 538.507812 310.96875 537.480469 310.222656 536.726562 C 309.476562 535.980469 308.441406 535.558594 307.382812 535.558594 L 288.148438 535.558594 C 287.097656 535.558594 286.0625 535.980469 285.316406 536.726562 C 284.570312 537.480469 284.140625 538.507812 284.140625 539.566406 L 284.140625 558.800781 C 284.140625 559.863281 284.570312 560.898438 285.316406 561.640625 C 286.0625 562.386719 287.097656 562.820312 288.148438 562.820312 L 307.382812 562.820312 C 308.441406 562.820312 309.476562 562.386719 310.222656 561.640625 C 310.96875 560.898438 311.398438 559.863281 311.398438 558.800781 L 307.382812 558.800781 " fill-opacity="1" fill-rule="nonzero"/><path fill="#ffffff" d="M 346.992188 558.800781 L 327.75 558.800781 L 327.75 539.566406 L 346.992188 539.566406 L 346.992188 558.800781 " fill-opacity="1" fill-rule="nonzero"/><path fill="#4dc4ce" d="M 346.992188 558.800781 L 346.992188 554.792969 L 331.765625 554.792969 L 331.765625 543.574219 L 342.984375 543.574219 L 342.984375 558.800781 L 346.992188 558.800781 L 346.992188 554.792969 L 346.992188 558.800781 L 351 558.800781 L 351 539.566406 C 351 538.507812 350.578125 537.480469 349.832031 536.726562 C 349.078125 535.980469 348.054688 535.558594 346.992188 535.558594 L 327.75 535.558594 C 326.699219 535.558594 325.664062 535.980469 324.917969 536.726562 C 324.175781 537.480469 323.742188 538.507812 323.742188 539.566406 L 323.742188 558.800781 C 323.742188 559.863281 324.175781 560.898438 324.917969 561.640625 C 325.664062 562.386719 326.699219 562.820312 327.75 562.820312 L 346.992188 562.820312 C 348.054688 562.820312 349.078125 562.386719 349.832031 561.640625 C 350.578125 560.898438 351 559.863281 351 558.800781 L 346.992188 558.800781 " fill-opacity="1" fill-rule="nonzero"/><path fill="#ffffff" d="M 386.59375 558.800781 L 367.359375 558.800781 L 367.359375 539.566406 L 386.59375 539.566406 L 386.59375 558.800781 " fill-opacity="1" fill-rule="nonzero"/><path fill="#4dc4ce" d="M 386.59375 558.800781 L 386.59375 554.792969 L 371.367188 554.792969 L 371.367188 543.574219 L 382.585938 543.574219 L 382.585938 558.800781 L 386.59375 558.800781 L 386.59375 554.792969 L 386.59375 558.800781 L 390.609375 558.800781 L 390.609375 539.566406 C 390.609375 538.507812 390.179688 537.480469 389.433594 536.726562 C 388.691406 535.980469 387.65625 535.558594 386.59375 535.558594 L 367.359375 535.558594 C 366.300781 535.558594 365.273438 535.980469 364.519531 536.726562 C 363.777344 537.480469 363.34375 538.507812 363.34375 539.566406 L 363.34375 558.800781 C 363.34375 559.863281 363.777344 560.898438 364.519531 561.640625 C 365.273438 562.386719 366.308594 562.820312 367.359375 562.820312 L 386.59375 562.820312 C 387.65625 562.820312 388.691406 562.386719 389.433594 561.640625 C 390.179688 560.898438 390.609375 559.863281 390.609375 558.800781 L 386.59375 558.800781 " fill-opacity="1" fill-rule="nonzero"/><path fill="#ffffff" d="M 426.207031 558.800781 L 406.972656 558.800781 L 406.972656 539.566406 L 426.207031 539.566406 L 426.207031 558.800781 " fill-opacity="1" fill-rule="nonzero"/><path fill="#4dc4ce" d="M 426.207031 558.800781 L 426.207031 554.792969 L 410.980469 554.792969 L 410.980469 543.574219 L 422.191406 543.574219 L 422.191406 558.800781 L 426.207031 558.800781 L 426.207031 554.792969 L 426.207031 558.800781 L 430.210938 558.800781 L 430.210938 539.566406 C 430.210938 538.507812 429.789062 537.480469 429.046875 536.726562 C 428.292969 535.980469 427.265625 535.558594 426.207031 535.558594 L 406.972656 535.558594 C 405.910156 535.558594 404.875 535.980469 404.132812 536.726562 C 403.386719 537.480469 402.957031 538.507812 402.957031 539.566406 L 402.957031 558.800781 C 402.957031 559.863281 403.386719 560.898438 404.132812 561.640625 C 404.875 562.386719 405.910156 562.820312 406.972656 562.820312 L 426.207031 562.820312 C 427.265625 562.820312 428.292969 562.386719 429.046875 561.640625 C 429.789062 560.898438 430.210938 559.863281 430.210938 558.800781 L 426.207031 558.800781 " fill-opacity="1" fill-rule="nonzero"/><path fill="#ffffff" d="M 465.808594 558.800781 L 446.574219 558.800781 L 446.574219 539.566406 L 465.808594 539.566406 L 465.808594 558.800781 " fill-opacity="1" fill-rule="nonzero"/><path fill="#4dc4ce" d="M 465.808594 558.800781 L 465.808594 554.792969 L 450.589844 554.792969 L 450.589844 543.574219 L 461.800781 543.574219 L 461.800781 558.800781 L 465.808594 558.800781 L 465.808594 554.792969 L 465.808594 558.800781 L 469.824219 558.800781 L 469.824219 539.566406 C 469.824219 538.507812 469.390625 537.480469 468.648438 536.726562 C 467.902344 535.980469 466.867188 535.558594 465.808594 535.558594 L 446.574219 535.558594 C 445.523438 535.558594 444.488281 535.980469 443.742188 536.726562 C 442.988281 537.480469 442.566406 538.507812 442.566406 539.566406 L 442.566406 558.800781 C 442.566406 559.863281 442.988281 560.898438 443.742188 561.640625 C 444.488281 562.386719 445.523438 562.820312 446.574219 562.820312 L 465.808594 562.820312 C 466.867188 562.820312 467.902344 562.386719 468.648438 561.640625 C 469.390625 560.898438 469.824219 559.863281 469.824219 558.800781 L 465.808594 558.800781 " fill-opacity="1" fill-rule="nonzero"/><path fill="#ffffff" d="M 505.417969 558.800781 L 486.175781 558.800781 L 486.175781 539.566406 L 505.417969 539.566406 L 505.417969 558.800781 " fill-opacity="1" fill-rule="nonzero"/><path fill="#4dc4ce" d="M 505.417969 558.800781 L 505.417969 554.792969 L 490.191406 554.792969 L 490.191406 543.574219 L 501.410156 543.574219 L 501.410156 558.800781 L 505.417969 558.800781 L 505.417969 554.792969 L 505.417969 558.800781 L 509.433594 558.800781 L 509.433594 539.566406 C 509.433594 538.507812 509.003906 537.480469 508.257812 536.726562 C 507.503906 535.980469 506.476562 535.558594 505.417969 535.558594 L 486.175781 535.558594 C 485.125 535.558594 484.089844 535.980469 483.34375 536.726562 C 482.589844 537.480469 482.167969 538.507812 482.167969 539.566406 L 482.167969 558.800781 C 482.167969 559.863281 482.589844 560.898438 483.34375 561.640625 C 484.089844 562.386719 485.125 562.820312 486.175781 562.820312 L 505.417969 562.820312 C 506.476562 562.820312 507.503906 562.386719 508.257812 561.640625 C 509.003906 560.898438 509.433594 559.863281 509.433594 558.800781 L 505.417969 558.800781 " fill-opacity="1" fill-rule="nonzero"/><path fill="#ffffff" d="M 545.019531 558.800781 L 525.785156 558.800781 L 525.785156 539.566406 L 545.019531 539.566406 L 545.019531 558.800781 " fill-opacity="1" fill-rule="nonzero"/><path fill="#4dc4ce" d="M 545.019531 558.800781 L 545.019531 554.792969 L 529.792969 554.792969 L 529.792969 543.574219 L 541.011719 543.574219 L 541.011719 558.800781 L 545.019531 558.800781 L 545.019531 554.792969 L 545.019531 558.800781 L 549.035156 558.800781 L 549.035156 539.566406 C 549.035156 538.507812 548.605469 537.480469 547.859375 536.726562 C 547.113281 535.980469 546.078125 535.558594 545.019531 535.558594 L 525.785156 535.558594 C 524.726562 535.558594 523.699219 535.980469 522.945312 536.726562 C 522.199219 537.480469 521.769531 538.507812 521.769531 539.566406 L 521.769531 558.800781 C 521.769531 559.863281 522.199219 560.898438 522.945312 561.640625 C 523.699219 562.386719 524.726562 562.820312 525.785156 562.820312 L 545.019531 562.820312 C 546.078125 562.820312 547.113281 562.386719 547.859375 561.640625 C 548.605469 560.898438 549.035156 559.863281 549.035156 558.800781 L 545.019531 558.800781 " fill-opacity="1" fill-rule="nonzero"/><path fill="#ffffff" d="M 584.628906 558.800781 L 565.394531 558.800781 L 565.394531 539.566406 L 584.628906 539.566406 L 584.628906 558.800781 " fill-opacity="1" fill-rule="nonzero"/><path fill="#4dc4ce" d="M 584.628906 558.800781 L 584.628906 554.792969 L 569.402344 554.792969 L 569.402344 543.574219 L 580.613281 543.574219 L 580.613281 558.800781 L 584.628906 558.800781 L 584.628906 554.792969 L 584.628906 558.800781 L 588.636719 558.800781 L 588.636719 539.566406 C 588.636719 538.507812 588.214844 537.480469 587.46875 536.726562 C 586.714844 535.980469 585.691406 535.558594 584.628906 535.558594 L 565.394531 535.558594 C 564.335938 535.558594 563.300781 535.980469 562.554688 536.726562 C 561.8125 537.480469 561.378906 538.507812 561.378906 539.566406 L 561.378906 558.800781 C 561.378906 559.863281 561.8125 560.898438 562.554688 561.640625 C 563.300781 562.386719 564.335938 562.820312 565.394531 562.820312 L 584.628906 562.820312 C 585.691406 562.820312 586.714844 562.386719 587.460938 561.640625 C 588.214844 560.890625 588.636719 559.863281 588.636719 558.800781 L 584.628906 558.800781 " fill-opacity="1" fill-rule="nonzero"/><path fill="#ffffff" d="M 208.9375 597.84375 L 228.171875 597.84375 L 228.171875 578.609375 L 208.9375 578.609375 Z M 208.9375 597.84375 " fill-opacity="1" fill-rule="nonzero"/><path fill="#4dc4ce" d="M 228.179688 597.84375 L 228.179688 593.835938 L 212.953125 593.835938 L 212.953125 582.625 L 224.164062 582.625 L 224.164062 597.84375 L 228.179688 597.84375 L 228.179688 593.835938 L 228.179688 597.84375 L 232.1875 597.84375 L 232.1875 578.609375 C 232.1875 577.558594 231.753906 576.523438 231.011719 575.777344 C 230.265625 575.023438 229.230469 574.601562 228.179688 574.601562 L 208.9375 574.601562 C 207.886719 574.601562 206.851562 575.023438 206.105469 575.777344 C 205.351562 576.523438 204.929688 577.558594 204.929688 578.609375 L 204.929688 597.84375 C 204.929688 598.90625 205.351562 599.941406 206.105469 600.683594 C 206.851562 601.429688 207.886719 601.859375 208.9375 601.859375 L 228.179688 601.859375 C 229.230469 601.859375 230.265625 601.429688 231.011719 600.683594 C 231.753906 599.941406 232.1875 598.90625 232.1875 597.84375 L 228.179688 597.84375 " fill-opacity="1" fill-rule="nonzero"/><path fill="#ffffff" d="M 248.546875 597.84375 L 267.78125 597.84375 L 267.78125 578.609375 L 248.546875 578.609375 Z M 248.546875 597.84375 " fill-opacity="1" fill-rule="nonzero"/><path fill="#4dc4ce" d="M 267.78125 597.84375 L 267.78125 593.835938 L 252.554688 593.835938 L 252.554688 582.625 L 263.765625 582.625 L 263.765625 597.84375 L 267.78125 597.84375 L 267.78125 593.835938 L 267.78125 597.84375 L 271.789062 597.84375 L 271.789062 578.609375 C 271.789062 577.558594 271.367188 576.523438 270.613281 575.777344 C 269.867188 575.023438 268.832031 574.601562 267.78125 574.601562 L 248.546875 574.601562 C 247.488281 574.601562 246.453125 575.023438 245.707031 575.777344 C 244.960938 576.523438 244.53125 577.558594 244.53125 578.609375 L 244.53125 597.84375 C 244.53125 598.90625 244.960938 599.941406 245.707031 600.683594 C 246.453125 601.429688 247.488281 601.859375 248.546875 601.859375 L 267.78125 601.859375 C 268.832031 601.859375 269.867188 601.429688 270.613281 600.683594 C 271.367188 599.941406 271.789062 598.90625 271.789062 597.84375 L 267.78125 597.84375 " fill-opacity="1" fill-rule="nonzero"/><path fill="#ffffff" d="M 307.382812 597.84375 L 288.148438 597.84375 L 288.148438 578.609375 L 307.382812 578.609375 L 307.382812 597.84375 " fill-opacity="1" fill-rule="nonzero"/><path fill="#4dc4ce" d="M 307.382812 597.84375 L 307.382812 593.835938 L 292.164062 593.835938 L 292.164062 582.625 L 303.375 582.625 L 303.375 597.84375 L 307.382812 597.84375 L 307.382812 593.835938 L 307.382812 597.84375 L 311.398438 597.84375 L 311.398438 578.609375 C 311.398438 577.558594 310.96875 576.523438 310.222656 575.777344 C 309.476562 575.023438 308.441406 574.601562 307.382812 574.601562 L 288.148438 574.601562 C 287.097656 574.601562 286.0625 575.023438 285.316406 575.777344 C 284.570312 576.523438 284.140625 577.558594 284.140625 578.609375 L 284.140625 597.84375 C 284.140625 598.90625 284.570312 599.941406 285.316406 600.683594 C 286.0625 601.429688 287.097656 601.859375 288.148438 601.859375 L 307.382812 601.859375 C 308.441406 601.859375 309.476562 601.429688 310.222656 600.683594 C 310.96875 599.941406 311.398438 598.90625 311.398438 597.84375 L 307.382812 597.84375 " fill-opacity="1" fill-rule="nonzero"/><path fill="#ffffff" d="M 346.992188 597.84375 L 327.75 597.84375 L 327.75 578.609375 L 346.992188 578.609375 L 346.992188 597.84375 " fill-opacity="1" fill-rule="nonzero"/><path fill="#4dc4ce" d="M 346.992188 597.84375 L 346.992188 593.835938 L 331.765625 593.835938 L 331.765625 582.625 L 342.984375 582.625 L 342.984375 597.84375 L 346.992188 597.84375 L 346.992188 593.835938 L 346.992188 597.84375 L 351 597.84375 L 351 578.609375 C 351 577.558594 350.578125 576.523438 349.832031 575.777344 C 349.078125 575.023438 348.054688 574.601562 346.992188 574.601562 L 327.75 574.601562 C 326.699219 574.601562 325.664062 575.023438 324.917969 575.777344 C 324.175781 576.523438 323.742188 577.558594 323.742188 578.609375 L 323.742188 597.84375 C 323.742188 598.90625 324.175781 599.941406 324.917969 600.683594 C 325.664062 601.429688 326.699219 601.859375 327.75 601.859375 L 346.992188 601.859375 C 348.054688 601.859375 349.078125 601.429688 349.832031 600.683594 C 350.578125 599.941406 351 598.90625 351 597.84375 L 346.992188 597.84375 " fill-opacity="1" fill-rule="nonzero"/><path fill="#ffffff" d="M 386.59375 597.84375 L 367.359375 597.84375 L 367.359375 578.609375 L 386.59375 578.609375 L 386.59375 597.84375 " fill-opacity="1" fill-rule="nonzero"/><path fill="#4dc4ce" d="M 386.59375 597.84375 L 386.59375 593.835938 L 371.367188 593.835938 L 371.367188 582.625 L 382.585938 582.625 L 382.585938 597.84375 L 386.59375 597.84375 L 386.59375 593.835938 L 386.59375 597.84375 L 390.609375 597.84375 L 390.609375 578.609375 C 390.609375 577.558594 390.179688 576.523438 389.433594 575.777344 C 388.691406 575.023438 387.65625 574.601562 386.59375 574.601562 L 367.359375 574.601562 C 366.300781 574.601562 365.273438 575.023438 364.519531 575.777344 C 363.777344 576.523438 363.34375 577.558594 363.34375 578.609375 L 363.34375 597.84375 C 363.34375 598.90625 363.777344 599.941406 364.519531 600.683594 C 365.273438 601.429688 366.308594 601.859375 367.359375 601.859375 L 386.59375 601.859375 C 387.65625 601.859375 388.691406 601.429688 389.433594 600.683594 C 390.179688 599.941406 390.609375 598.90625 390.609375 597.84375 L 386.59375 597.84375 " fill-opacity="1" fill-rule="nonzero"/><path fill="#ffffff" d="M 426.207031 597.84375 L 406.972656 597.84375 L 406.972656 578.609375 L 426.207031 578.609375 L 426.207031 597.84375 " fill-opacity="1" fill-rule="nonzero"/><path fill="#4dc4ce" d="M 426.207031 597.84375 L 426.207031 593.835938 L 410.980469 593.835938 L 410.980469 582.625 L 422.191406 582.625 L 422.191406 597.84375 L 426.207031 597.84375 L 426.207031 593.835938 L 426.207031 597.84375 L 430.210938 597.84375 L 430.210938 578.609375 C 430.210938 577.558594 429.789062 576.523438 429.046875 575.777344 C 428.292969 575.023438 427.265625 574.601562 426.207031 574.601562 L 406.972656 574.601562 C 405.910156 574.601562 404.875 575.023438 404.132812 575.777344 C 403.386719 576.523438 402.957031 577.558594 402.957031 578.609375 L 402.957031 597.84375 C 402.957031 598.90625 403.386719 599.941406 404.132812 600.683594 C 404.875 601.429688 405.910156 601.859375 406.972656 601.859375 L 426.207031 601.859375 C 427.265625 601.859375 428.292969 601.429688 429.046875 600.683594 C 429.789062 599.941406 430.210938 598.90625 430.210938 597.84375 L 426.207031 597.84375 " fill-opacity="1" fill-rule="nonzero"/><path fill="#ffffff" d="M 465.808594 597.84375 L 446.574219 597.84375 L 446.574219 578.609375 L 465.808594 578.609375 L 465.808594 597.84375 " fill-opacity="1" fill-rule="nonzero"/><path fill="#4dc4ce" d="M 465.808594 597.84375 L 465.808594 593.835938 L 450.589844 593.835938 L 450.589844 582.625 L 461.800781 582.625 L 461.800781 597.84375 L 465.808594 597.84375 L 465.808594 593.835938 L 465.808594 597.84375 L 469.824219 597.84375 L 469.824219 578.609375 C 469.824219 577.558594 469.390625 576.523438 468.648438 575.777344 C 467.902344 575.023438 466.867188 574.601562 465.808594 574.601562 L 446.574219 574.601562 C 445.523438 574.601562 444.488281 575.023438 443.742188 575.777344 C 442.988281 576.523438 442.566406 577.558594 442.566406 578.609375 L 442.566406 597.84375 C 442.566406 598.90625 442.988281 599.941406 443.742188 600.683594 C 444.488281 601.429688 445.523438 601.859375 446.574219 601.859375 L 465.808594 601.859375 C 466.867188 601.859375 467.902344 601.429688 468.648438 600.683594 C 469.390625 599.941406 469.824219 598.90625 469.824219 597.84375 L 465.808594 597.84375 " fill-opacity="1" fill-rule="nonzero"/><path fill="#ffffff" d="M 505.417969 597.84375 L 486.175781 597.84375 L 486.175781 578.609375 L 505.417969 578.609375 L 505.417969 597.84375 " fill-opacity="1" fill-rule="nonzero"/><path fill="#4dc4ce" d="M 505.417969 597.84375 L 505.417969 593.835938 L 490.191406 593.835938 L 490.191406 582.625 L 501.410156 582.625 L 501.410156 597.84375 L 505.417969 597.84375 L 505.417969 593.835938 L 505.417969 597.84375 L 509.433594 597.84375 L 509.433594 578.609375 C 509.433594 577.558594 509.003906 576.523438 508.257812 575.777344 C 507.503906 575.023438 506.476562 574.601562 505.417969 574.601562 L 486.175781 574.601562 C 485.125 574.601562 484.089844 575.023438 483.34375 575.777344 C 482.589844 576.523438 482.167969 577.558594 482.167969 578.609375 L 482.167969 597.84375 C 482.167969 598.90625 482.589844 599.941406 483.34375 600.683594 C 484.089844 601.429688 485.125 601.859375 486.175781 601.859375 L 505.417969 601.859375 C 506.476562 601.859375 507.503906 601.429688 508.257812 600.683594 C 509.003906 599.941406 509.433594 598.90625 509.433594 597.84375 L 505.417969 597.84375 " fill-opacity="1" fill-rule="nonzero"/><path fill="#ffffff" d="M 545.019531 597.84375 L 525.785156 597.84375 L 525.785156 578.609375 L 545.019531 578.609375 L 545.019531 597.84375 " fill-opacity="1" fill-rule="nonzero"/><path fill="#4dc4ce" d="M 545.019531 597.84375 L 545.019531 593.835938 L 529.792969 593.835938 L 529.792969 582.625 L 541.011719 582.625 L 541.011719 597.84375 L 545.019531 597.84375 L 545.019531 593.835938 L 545.019531 597.84375 L 549.035156 597.84375 L 549.035156 578.609375 C 549.035156 577.558594 548.605469 576.523438 547.859375 575.777344 C 547.113281 575.023438 546.078125 574.601562 545.019531 574.601562 L 525.785156 574.601562 C 524.726562 574.601562 523.699219 575.023438 522.945312 575.777344 C 522.199219 576.523438 521.769531 577.558594 521.769531 578.609375 L 521.769531 597.84375 C 521.769531 598.90625 522.199219 599.941406 522.945312 600.683594 C 523.699219 601.429688 524.726562 601.859375 525.785156 601.859375 L 545.019531 601.859375 C 546.078125 601.859375 547.113281 601.429688 547.859375 600.683594 C 548.605469 599.941406 549.035156 598.90625 549.035156 597.84375 L 545.019531 597.84375 " fill-opacity="1" fill-rule="nonzero"/><path fill="#ffffff" d="M 604.996094 539.566406 L 604.996094 578.609375 L 565.960938 578.609375 L 565.960938 597.84375 L 624.230469 597.703125 L 624.230469 539.566406 L 604.996094 539.566406 " fill-opacity="1" fill-rule="nonzero"/><path fill="#4dc4ce" d="M 604.996094 539.566406 L 600.980469 539.566406 L 600.980469 574.601562 L 565.960938 574.601562 C 564.898438 574.601562 563.871094 575.023438 563.117188 575.777344 C 562.375 576.523438 561.941406 577.558594 561.941406 578.609375 L 561.941406 597.84375 C 561.941406 598.921875 562.367188 599.929688 563.128906 600.683594 C 563.878906 601.445312 564.898438 601.859375 565.96875 601.859375 L 624.238281 601.71875 C 626.460938 601.710938 628.246094 599.921875 628.246094 597.703125 L 628.246094 539.566406 C 628.246094 538.507812 627.816406 537.480469 627.070312 536.726562 C 626.328125 535.980469 625.292969 535.558594 624.230469 535.558594 L 604.996094 535.558594 C 603.9375 535.558594 602.910156 535.980469 602.15625 536.726562 C 601.414062 537.480469 600.980469 538.507812 600.980469 539.566406 L 604.996094 539.566406 L 604.996094 543.574219 L 620.222656 543.574219 L 620.222656 593.703125 L 569.964844 593.828125 L 569.964844 582.625 L 604.996094 582.625 C 606.050781 582.625 607.085938 582.195312 607.828125 581.449219 C 608.582031 580.703125 609.003906 579.667969 609.003906 578.609375 L 609.003906 539.566406 L 604.996094 539.566406 L 604.996094 543.574219 L 604.996094 539.566406 " fill-opacity="1" fill-rule="nonzero"/><path fill="#ffffff" d="M 208.9375 636.894531 L 228.171875 636.894531 L 228.171875 617.652344 L 208.9375 617.652344 Z M 208.9375 636.894531 " fill-opacity="1" fill-rule="nonzero"/><path fill="#4dc4ce" d="M 228.179688 636.894531 L 228.179688 632.878906 L 212.953125 632.878906 L 212.953125 621.667969 L 224.164062 621.667969 L 224.164062 636.894531 L 228.179688 636.894531 L 228.179688 632.878906 L 228.179688 636.894531 L 232.1875 636.894531 L 232.1875 617.652344 C 232.1875 616.601562 231.753906 615.566406 231.011719 614.820312 C 230.265625 614.074219 229.230469 613.644531 228.179688 613.644531 L 208.9375 613.644531 C 207.886719 613.644531 206.851562 614.074219 206.105469 614.820312 C 205.351562 615.566406 204.929688 616.601562 204.929688 617.652344 L 204.929688 636.894531 C 204.929688 637.945312 205.351562 638.980469 206.105469 639.726562 C 206.851562 640.472656 207.886719 640.902344 208.9375 640.902344 L 228.179688 640.902344 C 229.230469 640.902344 230.265625 640.472656 231.011719 639.726562 C 231.753906 638.980469 232.1875 637.945312 232.1875 636.894531 L 228.179688 636.894531 " fill-opacity="1" fill-rule="nonzero"/><path fill="#ffffff" d="M 248.546875 636.894531 L 267.78125 636.894531 L 267.78125 617.652344 L 248.546875 617.652344 Z M 248.546875 636.894531 " fill-opacity="1" fill-rule="nonzero"/><path fill="#4dc4ce" d="M 267.78125 636.894531 L 267.78125 632.878906 L 252.554688 632.878906 L 252.554688 621.667969 L 263.765625 621.667969 L 263.765625 636.894531 L 267.78125 636.894531 L 267.78125 632.878906 L 267.78125 636.894531 L 271.789062 636.894531 L 271.789062 617.652344 C 271.789062 616.601562 271.367188 615.566406 270.613281 614.820312 C 269.867188 614.074219 268.832031 613.644531 267.78125 613.644531 L 248.546875 613.644531 C 247.488281 613.644531 246.453125 614.074219 245.707031 614.820312 C 244.960938 615.566406 244.53125 616.601562 244.53125 617.652344 L 244.53125 636.894531 C 244.53125 637.945312 244.960938 638.980469 245.707031 639.726562 C 246.453125 640.472656 247.488281 640.902344 248.546875 640.902344 L 267.78125 640.902344 C 268.832031 640.902344 269.867188 640.472656 270.613281 639.726562 C 271.367188 638.980469 271.789062 637.945312 271.789062 636.894531 L 267.78125 636.894531 " fill-opacity="1" fill-rule="nonzero"/><path fill="#ffffff" d="M 504.285156 636.894531 L 288.148438 636.894531 L 288.148438 617.652344 L 504.285156 617.652344 L 504.285156 636.894531 " fill-opacity="1" fill-rule="nonzero"/><path fill="#4dc4ce" d="M 504.285156 636.894531 L 504.285156 632.878906 L 292.164062 632.878906 L 292.164062 621.667969 L 500.277344 621.667969 L 500.277344 636.894531 L 504.285156 636.894531 L 504.285156 632.878906 L 504.285156 636.894531 L 508.300781 636.894531 L 508.300781 617.652344 C 508.300781 616.601562 507.867188 615.566406 507.125 614.820312 C 506.378906 614.074219 505.34375 613.644531 504.285156 613.644531 L 288.148438 613.644531 C 287.097656 613.644531 286.0625 614.074219 285.316406 614.820312 C 284.570312 615.566406 284.140625 616.601562 284.140625 617.652344 L 284.140625 636.894531 C 284.140625 637.945312 284.570312 638.980469 285.316406 639.726562 C 286.0625 640.472656 287.097656 640.902344 288.148438 640.902344 L 504.285156 640.902344 C 505.34375 640.902344 506.378906 640.472656 507.125 639.726562 C 507.867188 638.980469 508.300781 637.945312 508.300781 636.894531 L 504.285156 636.894531 " fill-opacity="1" fill-rule="nonzero"/><path fill="#ffffff" d="M 545.019531 636.894531 L 525.785156 636.894531 L 525.785156 617.652344 L 545.019531 617.652344 L 545.019531 636.894531 " fill-opacity="1" fill-rule="nonzero"/><path fill="#4dc4ce" d="M 545.019531 636.894531 L 545.019531 632.878906 L 529.792969 632.878906 L 529.792969 621.667969 L 541.011719 621.667969 L 541.011719 636.894531 L 545.019531 636.894531 L 545.019531 632.878906 L 545.019531 636.894531 L 549.035156 636.894531 L 549.035156 617.652344 C 549.035156 616.601562 548.605469 615.566406 547.859375 614.820312 C 547.113281 614.074219 546.078125 613.644531 545.019531 613.644531 L 525.785156 613.644531 C 524.726562 613.644531 523.699219 614.074219 522.945312 614.820312 C 522.199219 615.566406 521.769531 616.601562 521.769531 617.652344 L 521.769531 636.894531 C 521.769531 637.945312 522.199219 638.980469 522.945312 639.726562 C 523.699219 640.472656 524.726562 640.902344 525.785156 640.902344 L 545.019531 640.902344 C 546.078125 640.902344 547.113281 640.472656 547.859375 639.726562 C 548.605469 638.980469 549.035156 637.945312 549.035156 636.894531 L 545.019531 636.894531 " fill-opacity="1" fill-rule="nonzero"/><path fill="#ffffff" d="M 584.628906 636.894531 L 565.394531 636.894531 L 565.394531 617.652344 L 584.628906 617.652344 L 584.628906 636.894531 " fill-opacity="1" fill-rule="nonzero"/><path fill="#4dc4ce" d="M 584.628906 636.894531 L 584.628906 632.878906 L 569.402344 632.878906 L 569.402344 621.667969 L 580.613281 621.667969 L 580.613281 636.894531 L 584.628906 636.894531 L 584.628906 632.878906 L 584.628906 636.894531 L 588.636719 636.894531 L 588.636719 617.652344 C 588.636719 616.601562 588.214844 615.566406 587.46875 614.820312 C 586.714844 614.074219 585.691406 613.644531 584.628906 613.644531 L 565.394531 613.644531 C 564.335938 613.644531 563.300781 614.074219 562.554688 614.820312 C 561.8125 615.566406 561.378906 616.601562 561.378906 617.652344 L 561.378906 636.894531 C 561.378906 637.945312 561.8125 638.980469 562.554688 639.726562 C 563.300781 640.472656 564.335938 640.902344 565.394531 640.902344 L 584.628906 640.902344 C 585.691406 640.902344 586.714844 640.472656 587.460938 639.726562 C 588.214844 638.980469 588.636719 637.945312 588.636719 636.894531 L 584.628906 636.894531 " fill-opacity="1" fill-rule="nonzero"/><path fill="#ffffff" d="M 624.230469 636.894531 L 604.996094 636.894531 L 604.996094 617.652344 L 624.230469 617.652344 L 624.230469 636.894531 " fill-opacity="1" fill-rule="nonzero"/><path fill="#4dc4ce" d="M 624.230469 636.894531 L 624.230469 632.878906 L 609.003906 632.878906 L 609.003906 621.667969 L 620.222656 621.667969 L 620.222656 636.894531 L 624.230469 636.894531 L 624.230469 632.878906 L 624.230469 636.894531 L 628.246094 636.894531 L 628.246094 617.652344 C 628.246094 616.601562 627.816406 615.566406 627.070312 614.820312 C 626.328125 614.074219 625.292969 613.644531 624.230469 613.644531 L 604.996094 613.644531 C 603.9375 613.644531 602.910156 614.074219 602.15625 614.820312 C 601.414062 615.566406 600.980469 616.601562 600.980469 617.652344 L 600.980469 636.894531 C 600.980469 637.945312 601.414062 638.980469 602.15625 639.726562 C 602.910156 640.472656 603.9375 640.902344 604.996094 640.902344 L 624.230469 640.902344 C 625.292969 640.902344 626.328125 640.472656 627.070312 639.726562 C 627.816406 638.980469 628.246094 637.945312 628.246094 636.894531 L 624.230469 636.894531 " fill-opacity="1" fill-rule="nonzero"/><path fill="#ffffff" d="M 490.886719 709.878906 L 342.273438 709.878906 L 342.273438 656.320312 L 490.886719 656.320312 L 490.886719 709.878906 " fill-opacity="1" fill-rule="nonzero"/><path fill="#4dc4ce" d="M 490.886719 709.878906 L 490.886719 705.871094 L 346.289062 705.871094 L 346.289062 660.328125 L 486.878906 660.328125 L 486.878906 709.878906 L 490.886719 709.878906 L 490.886719 705.871094 L 490.886719 709.878906 L 494.902344 709.878906 L 494.902344 656.320312 C 494.902344 655.261719 494.472656 654.234375 493.726562 653.480469 C 492.980469 652.734375 491.945312 652.304688 490.886719 652.304688 L 342.273438 652.304688 C 341.222656 652.304688 340.1875 652.734375 339.441406 653.480469 C 338.6875 654.234375 338.265625 655.261719 338.265625 656.320312 L 338.265625 709.878906 C 338.265625 710.9375 338.6875 711.972656 339.441406 712.71875 C 340.1875 713.464844 341.222656 713.894531 342.273438 713.894531 L 490.886719 713.894531 C 491.945312 713.894531 492.980469 713.464844 493.726562 712.71875 C 494.472656 711.972656 494.902344 710.9375 494.902344 709.878906 L 490.886719 709.878906 " fill-opacity="1" fill-rule="nonzero"/><path fill="#ffffff" d="M 420.359375 201.425781 C 420.359375 203.507812 418.671875 205.195312 416.585938 205.195312 C 414.507812 205.195312 412.808594 203.507812 412.808594 201.425781 C 412.808594 199.339844 414.507812 197.652344 416.585938 197.652344 C 418.671875 197.652344 420.359375 199.339844 420.359375 201.425781 " fill-opacity="1" fill-rule="nonzero"/><path fill="#4dc4ce" d="M 420.359375 201.425781 L 416.34375 201.425781 L 416.585938 201.425781 L 416.585938 201.1875 L 416.34375 201.425781 L 416.585938 201.425781 L 416.585938 201.1875 L 416.585938 201.425781 L 416.824219 201.425781 L 416.585938 201.1875 L 416.585938 201.425781 L 416.824219 201.425781 L 416.585938 201.425781 L 416.585938 201.660156 L 416.824219 201.425781 L 416.585938 201.425781 L 416.585938 201.660156 L 416.585938 201.425781 L 416.34375 201.425781 L 416.585938 201.660156 L 416.585938 201.425781 L 416.34375 201.425781 L 424.367188 201.425781 C 424.367188 199.28125 423.488281 197.3125 422.089844 195.921875 C 420.691406 194.511719 418.71875 193.636719 416.585938 193.636719 C 412.296875 193.636719 408.800781 197.113281 408.800781 201.425781 C 408.808594 205.726562 412.277344 209.203125 416.585938 209.210938 C 420.898438 209.203125 424.367188 205.71875 424.367188 201.425781 L 420.359375 201.425781 " fill-opacity="1" fill-rule="nonzero"/><path fill="#bfeaeb" d="M 640.03125 472.742188 L 614.476562 472.742188 L 614.476562 215.710938 C 614.476562 214.660156 614.046875 213.625 613.300781 212.878906 C 612.558594 212.132812 611.523438 211.703125 610.460938 211.703125 L 610.460938 215.710938 L 610.460938 211.703125 L 597.679688 211.703125 C 599.46875 204.523438 601 197.277344 602.273438 189.933594 L 607.738281 189.933594 C 616.664062 189.933594 624.710938 193.535156 630.566406 199.390625 C 636.417969 205.246094 640.019531 213.292969 640.03125 222.226562 L 640.03125 472.742188 " fill-opacity="1" fill-rule="nonzero"/><path fill="#3abdc5" d="M 644.035156 476.75 L 614.476562 476.75 L 614.476562 472.742188 L 640.03125 472.742188 L 640.03125 222.226562 C 640.019531 213.292969 636.417969 205.246094 630.566406 199.390625 C 624.710938 193.535156 616.664062 189.933594 607.738281 189.933594 L 602.273438 189.933594 C 602.503906 188.601562 602.730469 187.261719 602.945312 185.917969 L 607.738281 185.917969 C 627.785156 185.917969 644.035156 202.171875 644.035156 222.226562 L 644.035156 476.75 M 644.035156 476.75 L 644.035156 472.742188 L 644.035156 476.75 " fill-opacity="1" fill-rule="nonzero"/><path fill="#bfeaeb" d="M 606.457031 472.742188 L 264.371094 472.742188 L 242.726562 447.414062 C 259.085938 450.128906 275.835938 451.554688 292.875 451.554688 C 324.738281 451.554688 355.628906 446.59375 384.78125 437.4375 C 393.9375 445.160156 405.265625 449.046875 416.566406 449.046875 C 416.574219 449.046875 416.574219 449.046875 416.585938 449.046875 C 416.59375 449.046875 416.59375 449.046875 416.601562 449.046875 C 429.210938 449.046875 441.855469 444.210938 451.476562 434.585938 L 598.234375 287.816406 C 601.535156 284.511719 604.277344 280.851562 606.457031 276.960938 L 606.457031 472.742188 M 606.457031 228.894531 C 604.640625 225.65625 602.441406 222.574219 599.847656 219.726562 L 606.457031 219.726562 L 606.457031 228.894531 " fill-opacity="1" fill-rule="nonzero"/><path fill="#3abdc5" d="M 614.476562 476.75 L 267.804688 476.75 L 264.371094 472.742188 L 606.457031 472.742188 L 606.457031 276.960938 C 610.613281 269.507812 612.691406 261.210938 612.691406 252.921875 C 612.691406 244.644531 610.613281 236.347656 606.457031 228.894531 L 606.457031 219.726562 L 599.847656 219.726562 C 599.328125 219.148438 598.789062 218.585938 598.234375 218.03125 L 596.496094 216.292969 C 596.898438 214.777344 597.296875 213.234375 597.679688 211.703125 L 610.460938 211.703125 L 610.460938 215.710938 L 610.460938 211.703125 C 611.523438 211.703125 612.558594 212.132812 613.300781 212.878906 C 614.046875 213.625 614.476562 214.660156 614.476562 215.710938 L 614.476562 476.75 " fill-opacity="1" fill-rule="nonzero"/><path fill="#bfeaeb" d="M 218.691406 443.5625 L 193.148438 443.5625 L 193.148438 434.84375 C 201.519531 437.71875 210.039062 440.25 218.691406 442.414062 L 218.691406 443.5625 " fill-opacity="1" fill-rule="nonzero"/><path fill="#3abdc5" d="M 193.148438 443.5625 L 189.140625 443.5625 L 189.140625 433.429688 C 190.472656 433.910156 191.804688 434.378906 193.148438 434.84375 L 193.148438 443.5625 " fill-opacity="1" fill-rule="nonzero"/><path fill="#3abdc5" d="M 223.441406 443.5625 L 218.691406 443.5625 L 218.691406 442.414062 C 220.273438 442.800781 221.851562 443.191406 223.441406 443.5625 " fill-opacity="1" fill-rule="nonzero"/><path fill="#ffffff" d="M 448.636719 431.757812 C 430.933594 449.460938 402.226562 449.460938 384.523438 431.757812 L 237.765625 284.984375 C 220.066406 267.28125 220.066406 238.574219 237.765625 220.871094 L 384.523438 74.101562 C 402.226562 56.386719 430.933594 56.386719 448.636719 74.101562 L 595.394531 220.871094 C 613.105469 238.574219 613.105469 267.28125 595.394531 284.984375 L 448.636719 431.757812 " fill-opacity="1" fill-rule="nonzero"/><g clip-path="url(#843e842db5)"><path fill="#4dc4ce" d="M 448.636719 431.757812 L 445.804688 428.914062 C 437.722656 436.996094 427.175781 441.011719 416.585938 441.023438 C 405.996094 441.011719 395.445312 436.996094 387.363281 428.914062 L 240.605469 282.144531 C 232.535156 274.0625 228.511719 263.515625 228.5 252.921875 C 228.511719 242.332031 232.535156 231.785156 240.605469 223.703125 L 387.363281 76.929688 C 395.445312 68.859375 405.996094 64.824219 416.585938 64.824219 C 427.175781 64.824219 437.722656 68.859375 445.804688 76.929688 L 592.5625 223.703125 C 600.644531 231.785156 604.667969 242.332031 604.667969 252.921875 C 604.667969 263.515625 600.632812 274.0625 592.5625 282.144531 L 445.804688 428.914062 L 448.636719 431.757812 L 451.476562 434.585938 L 598.234375 287.816406 C 607.863281 278.195312 612.691406 265.542969 612.691406 252.921875 C 612.691406 240.3125 607.863281 227.660156 598.234375 218.03125 L 451.476562 71.257812 C 441.855469 61.628906 429.203125 56.792969 416.585938 56.800781 C 403.964844 56.792969 391.316406 61.628906 381.695312 71.257812 L 234.933594 218.03125 C 225.304688 227.660156 220.480469 240.3125 220.480469 252.921875 C 220.480469 265.542969 225.304688 278.195312 234.933594 287.816406 L 381.695312 434.585938 C 391.316406 444.21875 403.964844 449.046875 416.585938 449.046875 C 429.195312 449.046875 441.855469 444.21875 451.476562 434.585938 L 448.636719 431.757812 " fill-opacity="1" fill-rule="nonzero"/></g><path fill="#ffffff" d="M 444.015625 405.945312 C 428.863281 421.097656 404.304688 421.097656 389.152344 405.945312 L 263.574219 280.347656 C 248.421875 265.203125 248.421875 240.644531 263.574219 225.492188 L 389.152344 99.902344 C 404.304688 84.75 428.863281 84.75 444.015625 99.902344 L 569.59375 225.492188 C 584.746094 240.644531 584.746094 265.203125 569.59375 280.347656 L 444.015625 405.945312 " fill-opacity="1" fill-rule="nonzero"/><path fill="#4dc4ce" d="M 444.015625 405.945312 L 441.183594 403.105469 C 434.378906 409.914062 425.5 413.289062 416.585938 413.296875 C 407.675781 413.289062 398.800781 409.902344 391.992188 403.105469 L 266.414062 277.515625 C 259.609375 270.710938 256.230469 261.839844 256.222656 252.921875 C 256.230469 244.015625 259.609375 235.128906 266.414062 228.332031 L 391.992188 102.734375 C 398.800781 95.933594 407.675781 92.558594 416.585938 92.546875 C 425.5 92.558594 434.378906 95.933594 441.183594 102.734375 L 566.753906 228.332031 C 573.558594 235.128906 576.945312 244.015625 576.945312 252.921875 C 576.945312 261.839844 573.558594 270.71875 566.761719 277.515625 L 441.183594 403.105469 L 444.015625 405.945312 L 446.855469 408.777344 L 572.433594 283.1875 C 580.78125 274.84375 584.976562 263.871094 584.96875 252.921875 C 584.976562 241.984375 580.78125 231.003906 572.433594 222.660156 L 446.855469 97.0625 C 438.5 88.707031 427.53125 84.515625 416.585938 84.523438 C 405.648438 84.515625 394.667969 88.707031 386.320312 97.0625 L 260.742188 222.660156 C 252.390625 231.003906 248.191406 241.984375 248.199219 252.921875 C 248.191406 263.863281 252.390625 274.84375 260.742188 283.1875 L 386.320312 408.777344 C 394.667969 417.132812 405.648438 421.324219 416.585938 421.324219 C 427.53125 421.324219 438.5 417.132812 446.855469 408.777344 L 444.015625 405.945312 " fill-opacity="1" fill-rule="nonzero"/><path fill="#4dc4ce" d="M 356.871094 245.800781 L 356.871094 204.226562 L 339.367188 245.800781 Z M 323.15625 245.800781 L 355.265625 169.863281 L 374.523438 169.863281 L 374.523438 245.800781 L 382.871094 245.800781 L 382.871094 261.859375 L 374.523438 261.859375 L 374.523438 282.253906 L 356.871094 282.253906 L 356.871094 261.859375 L 323.15625 261.859375 L 323.15625 245.800781 " fill-opacity="1" fill-rule="nonzero"/><path fill="#4dc4ce" d="M 407.113281 256.402344 C 407.113281 264.425781 410.648438 267.480469 416.261719 267.480469 C 421.882812 267.480469 425.410156 264.425781 425.410156 256.402344 L 425.410156 195.714844 C 425.410156 187.691406 421.882812 184.636719 416.261719 184.636719 C 410.648438 184.636719 407.113281 187.691406 407.113281 195.714844 Z M 389.453125 196.839844 C 389.453125 178.855469 398.933594 168.578125 416.261719 168.578125 C 433.597656 168.578125 443.078125 178.855469 443.078125 196.839844 L 443.078125 255.273438 C 443.078125 273.261719 433.597656 283.535156 416.261719 283.535156 C 398.933594 283.535156 389.453125 273.261719 389.453125 255.273438 L 389.453125 196.839844 " fill-opacity="1" fill-rule="nonzero"/><path fill="#4dc4ce" d="M 484.015625 245.800781 L 484.015625 204.226562 L 466.511719 245.800781 L 484.015625 245.800781 M 450.300781 245.800781 L 482.40625 169.863281 L 501.667969 169.863281 L 501.667969 245.800781 L 510.011719 245.800781 L 510.011719 261.859375 L 501.667969 261.859375 L 501.667969 282.253906 L 484.015625 282.253906 L 484.015625 261.859375 L 450.300781 261.859375 L 450.300781 245.800781 " fill-opacity="1" fill-rule="nonzero"/><path fill="#4dc4ce" d="M 359.5625 309.414062 L 369.746094 309.414062 L 369.746094 316.152344 L 359.5625 316.152344 L 359.5625 329.980469 L 372.378906 329.980469 L 372.378906 336.730469 L 352.132812 336.730469 L 352.132812 289.507812 L 372.378906 289.507812 L 372.378906 296.246094 L 359.5625 296.246094 L 359.5625 309.414062 " fill-opacity="1" fill-rule="nonzero"/><path fill="#4dc4ce" d="M 384.394531 296.246094 L 384.394531 310.746094 L 387.296875 310.746094 C 390.0625 310.746094 391.746094 309.535156 391.746094 305.761719 L 391.746094 301.097656 C 391.746094 297.738281 390.601562 296.246094 387.96875 296.246094 Z M 392.488281 336.730469 C 392.085938 335.511719 391.8125 334.765625 391.8125 330.925781 L 391.8125 323.507812 C 391.8125 319.117188 390.328125 317.503906 386.960938 317.503906 L 384.394531 317.503906 L 384.394531 336.730469 L 376.972656 336.730469 L 376.972656 289.507812 L 388.167969 289.507812 C 395.867188 289.507812 399.171875 293.082031 399.171875 300.363281 L 399.171875 304.070312 C 399.171875 308.933594 397.625 312.105469 394.3125 313.652344 C 398.019531 315.207031 399.230469 318.785156 399.230469 323.703125 L 399.230469 330.992188 C 399.230469 333.285156 399.304688 334.972656 400.050781 336.730469 L 392.488281 336.730469 " fill-opacity="1" fill-rule="nonzero"/><path fill="#4dc4ce" d="M 411.523438 296.246094 L 411.523438 310.746094 L 414.421875 310.746094 C 417.195312 310.746094 418.878906 309.535156 418.878906 305.761719 L 418.878906 301.097656 C 418.878906 297.738281 417.734375 296.246094 415.101562 296.246094 Z M 419.621094 336.730469 C 419.21875 335.511719 418.953125 334.765625 418.953125 330.925781 L 418.953125 323.507812 C 418.953125 319.117188 417.460938 317.503906 414.09375 317.503906 L 411.523438 317.503906 L 411.523438 336.730469 L 404.105469 336.730469 L 404.105469 289.507812 L 415.300781 289.507812 C 422.992188 289.507812 426.296875 293.082031 426.296875 300.363281 L 426.296875 304.070312 C 426.296875 308.933594 424.75 312.105469 421.445312 313.652344 C 425.152344 315.207031 426.371094 318.785156 426.371094 323.703125 L 426.371094 330.992188 C 426.371094 333.285156 426.4375 334.972656 427.175781 336.730469 L 419.621094 336.730469 " fill-opacity="1" fill-rule="nonzero"/><path fill="#4dc4ce" d="M 438.0625 325.859375 C 438.0625 329.246094 439.535156 330.519531 441.894531 330.519531 C 444.261719 330.519531 445.746094 329.246094 445.746094 325.859375 L 445.746094 300.363281 C 445.746094 296.992188 444.261719 295.707031 441.894531 295.707031 C 439.535156 295.707031 438.0625 296.992188 438.0625 300.363281 Z M 430.625 300.84375 C 430.625 293.28125 434.617188 288.960938 441.894531 288.960938 C 449.179688 288.960938 453.164062 293.28125 453.164062 300.84375 L 453.164062 325.394531 C 453.164062 332.953125 449.179688 337.269531 441.894531 337.269531 C 434.617188 337.269531 430.625 332.953125 430.625 325.394531 L 430.625 300.84375 " fill-opacity="1" fill-rule="nonzero"/><path fill="#4dc4ce" d="M 465.386719 296.246094 L 465.386719 310.746094 L 468.292969 310.746094 C 471.054688 310.746094 472.746094 309.535156 472.746094 305.761719 L 472.746094 301.097656 C 472.746094 297.738281 471.59375 296.246094 468.96875 296.246094 L 465.386719 296.246094 M 473.484375 336.730469 C 473.085938 335.511719 472.8125 334.765625 472.8125 330.925781 L 472.8125 323.507812 C 472.8125 319.117188 471.320312 317.503906 467.953125 317.503906 L 465.386719 317.503906 L 465.386719 336.730469 L 457.964844 336.730469 L 457.964844 289.507812 L 469.160156 289.507812 C 476.851562 289.507812 480.164062 293.082031 480.164062 300.363281 L 480.164062 304.070312 C 480.164062 308.933594 478.609375 312.105469 475.304688 313.652344 C 479.011719 315.207031 480.230469 318.785156 480.230469 323.703125 L 480.230469 330.992188 C 480.230469 333.285156 480.296875 334.972656 481.035156 336.730469 L 473.484375 336.730469 " fill-opacity="1" fill-rule="nonzero"/><path fill="#4dc4ce" d="M 424.367188 121.214844 C 424.367188 125.511719 420.882812 129 416.585938 129 C 412.285156 129 408.808594 125.511719 408.808594 121.214844 C 408.808594 116.925781 412.285156 113.441406 416.585938 113.441406 C 420.882812 113.441406 424.367188 116.925781 424.367188 121.214844 " fill-opacity="1" fill-rule="nonzero"/><path fill="#4dc4ce" d="M 424.367188 384.632812 C 424.367188 388.929688 420.882812 392.40625 416.585938 392.40625 C 412.285156 392.40625 408.808594 388.929688 408.808594 384.632812 C 408.808594 380.335938 412.285156 376.855469 416.585938 376.855469 C 420.882812 376.855469 424.367188 380.335938 424.367188 384.632812 " fill-opacity="1" fill-rule="nonzero"/><path fill="#91dbe9" d="M 416.585938 441.023438 C 405.996094 441.011719 395.445312 436.996094 387.363281 428.914062 L 350.875 392.433594 C 356.746094 392.167969 362.550781 391.597656 368.253906 390.71875 L 386.320312 408.777344 C 394.660156 417.125 405.628906 421.324219 416.566406 421.324219 C 416.574219 421.324219 416.574219 421.324219 416.585938 421.324219 C 416.59375 421.324219 416.601562 421.324219 416.601562 421.324219 C 427.539062 421.324219 438.507812 417.125 446.855469 408.777344 L 444.015625 405.945312 L 446.855469 408.777344 L 572.433594 283.1875 C 580.78125 274.84375 584.976562 263.871094 584.96875 252.921875 C 584.976562 241.984375 580.78125 231.003906 572.433594 222.660156 L 475.617188 125.835938 C 455.90625 100.140625 428.953125 80.167969 398.039062 69.207031 C 403.851562 66.292969 410.207031 64.824219 416.585938 64.824219 C 427.175781 64.824219 437.722656 68.859375 445.804688 76.929688 L 592.5625 223.703125 C 600.644531 231.785156 604.667969 242.332031 604.667969 252.921875 C 604.667969 263.515625 600.632812 274.0625 592.5625 282.144531 L 445.804688 428.914062 C 437.722656 436.996094 427.175781 441.011719 416.585938 441.023438 " fill-opacity="1" fill-rule="nonzero"/><path fill="#4dc4ce" d="M 416.585938 445.039062 C 404.984375 445.039062 393.375 440.609375 384.523438 431.757812 L 345.355469 392.582031 C 347.199219 392.566406 349.039062 392.507812 350.875 392.433594 L 387.363281 428.914062 C 395.445312 436.996094 405.996094 441.011719 416.585938 441.023438 C 427.175781 441.011719 437.722656 436.996094 445.804688 428.914062 L 592.5625 282.144531 C 600.632812 274.0625 604.667969 263.515625 604.667969 252.921875 C 604.667969 242.332031 600.644531 231.785156 592.5625 223.703125 L 445.804688 76.929688 C 437.722656 68.859375 427.175781 64.824219 416.585938 64.824219 C 410.207031 64.824219 403.851562 66.292969 398.039062 69.207031 C 396.355469 68.609375 394.660156 68.039062 392.960938 67.5 C 400.207031 63.0625 408.429688 60.84375 416.640625 60.84375 C 428.226562 60.84375 439.800781 65.257812 448.636719 74.101562 L 595.394531 220.871094 C 613.105469 238.574219 613.105469 267.28125 595.394531 284.984375 L 448.636719 431.757812 C 439.785156 440.609375 428.183594 445.039062 416.585938 445.039062 " fill-opacity="1" fill-rule="nonzero"/><path fill="#91dbe9" d="M 416.585938 413.296875 C 407.675781 413.289062 398.800781 409.902344 391.992188 403.105469 L 377.84375 388.953125 C 415.65625 380.804688 449.039062 359.492188 472.8125 330.179688 L 472.8125 330.925781 C 472.8125 334.765625 473.085938 335.511719 473.484375 336.730469 L 481.035156 336.730469 C 480.296875 334.972656 480.230469 333.285156 480.230469 330.992188 L 480.230469 323.703125 C 480.230469 322.601562 480.164062 321.558594 480.03125 320.597656 C 488.296875 308.800781 495.074219 295.925781 500.085938 282.253906 L 501.667969 282.253906 L 501.667969 277.738281 C 503.40625 272.546875 504.878906 267.25 506.097656 261.859375 L 510.011719 261.859375 L 510.011719 245.800781 L 508.871094 245.800781 C 509.648438 239.375 510.054688 232.84375 510.054688 226.226562 C 510.054688 208.316406 507.097656 190.984375 501.667969 174.714844 L 501.667969 169.863281 L 499.960938 169.863281 C 498.140625 164.925781 496.085938 160.09375 493.808594 155.371094 L 566.753906 228.332031 C 573.558594 235.128906 576.945312 244.015625 576.945312 252.921875 C 576.945312 261.839844 573.558594 270.71875 566.761719 277.515625 L 441.183594 403.105469 C 434.378906 409.914062 425.5 413.289062 416.585938 413.296875 M 416.585938 376.855469 C 412.285156 376.855469 408.808594 380.335938 408.808594 384.632812 C 408.808594 388.929688 412.285156 392.40625 416.585938 392.40625 C 420.882812 392.40625 424.367188 388.929688 424.367188 384.632812 C 424.367188 380.335938 420.882812 376.855469 416.585938 376.855469 " fill-opacity="1" fill-rule="nonzero"/><path fill="#4dc4ce" d="M 416.601562 421.324219 C 416.601562 421.324219 416.59375 421.324219 416.585938 421.324219 C 416.574219 421.324219 416.574219 421.324219 416.566406 421.324219 C 405.628906 421.324219 394.660156 417.125 386.320312 408.777344 L 368.253906 390.71875 C 371.476562 390.222656 374.679688 389.632812 377.84375 388.953125 L 391.992188 403.105469 C 398.800781 409.902344 407.675781 413.289062 416.585938 413.296875 C 425.5 413.289062 434.378906 409.914062 441.183594 403.105469 L 566.761719 277.515625 C 573.558594 270.71875 576.945312 261.839844 576.945312 252.921875 C 576.945312 244.015625 573.558594 235.128906 566.753906 228.332031 L 493.808594 155.371094 C 488.765625 144.898438 482.65625 135.003906 475.617188 125.835938 L 572.433594 222.660156 C 580.78125 231.003906 584.976562 241.984375 584.96875 252.921875 C 584.976562 263.871094 580.78125 274.84375 572.433594 283.1875 L 446.855469 408.777344 L 444.015625 405.945312 L 446.855469 408.777344 C 438.507812 417.125 427.539062 421.324219 416.601562 421.324219 " fill-opacity="1" fill-rule="nonzero"/><path fill="#4dc4ce" d="M 501.667969 282.253906 L 500.085938 282.253906 C 500.632812 280.761719 501.160156 279.246094 501.667969 277.738281 L 501.667969 282.253906 M 510.011719 261.859375 L 506.097656 261.859375 C 507.28125 256.59375 508.207031 251.234375 508.871094 245.800781 L 510.011719 245.800781 L 510.011719 261.859375 M 501.667969 174.714844 C 501.121094 173.09375 500.558594 171.46875 499.960938 169.863281 L 501.667969 169.863281 L 501.667969 174.714844 " fill-opacity="1" fill-rule="nonzero"/><path fill="#4dc4ce" d="M 481.035156 336.730469 L 473.484375 336.730469 C 473.085938 335.511719 472.8125 334.765625 472.8125 330.925781 L 472.8125 330.179688 C 475.328125 327.074219 477.730469 323.878906 480.03125 320.597656 C 480.164062 321.558594 480.230469 322.601562 480.230469 323.703125 L 480.230469 330.992188 C 480.230469 333.285156 480.296875 334.972656 481.035156 336.730469 " fill-opacity="1" fill-rule="nonzero"/><path fill="#4dc4ce" d="M 416.585938 392.40625 C 412.285156 392.40625 408.808594 388.929688 408.808594 384.632812 C 408.808594 380.335938 412.285156 376.855469 416.585938 376.855469 C 420.882812 376.855469 424.367188 380.335938 424.367188 384.632812 C 424.367188 388.929688 420.882812 392.40625 416.585938 392.40625 " fill-opacity="1" fill-rule="nonzero"/><path fill="#ffffff" d="M 273.34375 704.222656 C 273.34375 716.519531 263.375 726.480469 251.089844 726.480469 L 77.800781 726.480469 C 65.507812 726.480469 55.539062 716.519531 55.539062 704.222656 L 55.539062 469.828125 C 55.539062 457.53125 65.507812 447.570312 77.800781 447.570312 L 237.585938 447.570312 L 273.34375 489.402344 L 273.34375 704.222656 " fill-opacity="1" fill-rule="nonzero"/><g clip-path="url(#587505fdb0)"><path fill="#4dc4ce" d="M 273.34375 704.222656 L 269.328125 704.222656 C 269.328125 709.273438 267.292969 713.8125 263.988281 717.132812 C 260.675781 720.4375 256.140625 722.472656 251.089844 722.472656 L 77.800781 722.472656 C 72.742188 722.472656 68.214844 720.4375 64.894531 717.132812 C 61.589844 713.8125 59.554688 709.273438 59.554688 704.222656 L 59.554688 469.828125 C 59.554688 464.777344 61.589844 460.242188 64.894531 456.929688 C 68.207031 453.617188 72.742188 451.585938 77.800781 451.585938 L 235.738281 451.585938 L 269.328125 490.886719 L 269.328125 704.222656 L 277.351562 704.222656 L 277.351562 489.402344 C 277.351562 488.445312 277.011719 487.53125 276.390625 486.804688 L 240.632812 444.964844 C 239.871094 444.070312 238.761719 443.5625 237.585938 443.5625 L 77.800781 443.5625 C 63.289062 443.5625 51.53125 455.3125 51.53125 469.828125 L 51.53125 704.222656 C 51.53125 718.738281 63.289062 730.496094 77.800781 730.496094 L 251.089844 730.496094 C 265.59375 730.496094 277.351562 718.738281 277.351562 704.222656 L 273.34375 704.222656 " fill-opacity="1" fill-rule="nonzero"/></g><path fill="#bfeaeb" d="M 251.089844 722.472656 L 77.800781 722.472656 C 72.742188 722.472656 68.214844 720.4375 64.894531 717.132812 C 61.589844 713.8125 59.554688 709.273438 59.554688 704.222656 L 59.554688 689.441406 C 68.222656 691.007812 77.125 691.828125 86.179688 691.828125 C 169.914062 691.828125 239.777344 621.957031 239.777344 538.226562 C 239.777344 506.289062 229.621094 476.378906 212.398438 451.585938 L 235.738281 451.585938 L 269.328125 490.886719 L 269.328125 704.222656 C 269.328125 709.273438 267.292969 713.8125 263.988281 717.132812 C 260.675781 720.4375 256.140625 722.472656 251.089844 722.472656 " fill-opacity="1" fill-rule="nonzero"/><path fill="#3abdc5" d="M 251.089844 726.480469 L 77.800781 726.480469 C 65.507812 726.480469 55.539062 716.519531 55.539062 704.222656 L 55.539062 688.664062 C 56.871094 688.945312 58.210938 689.203125 59.554688 689.441406 L 59.554688 704.222656 C 59.554688 709.273438 61.589844 713.8125 64.894531 717.132812 C 68.214844 720.4375 72.742188 722.472656 77.800781 722.472656 L 251.089844 722.472656 C 256.140625 722.472656 260.675781 720.4375 263.988281 717.132812 C 267.292969 713.8125 269.328125 709.273438 269.328125 704.222656 L 269.328125 490.886719 L 235.738281 451.585938 L 212.398438 451.585938 C 211.460938 450.230469 210.5 448.894531 209.523438 447.570312 L 237.585938 447.570312 L 273.34375 489.402344 L 273.34375 704.222656 C 273.34375 716.519531 263.375 726.480469 251.089844 726.480469 " fill-opacity="1" fill-rule="nonzero"/><path fill="#ffffff" d="M 237.832031 447.664062 L 237.832031 489.488281 L 273.527344 489.488281 Z M 237.832031 447.664062 " fill-opacity="1" fill-rule="nonzero"/><path fill="#4dc4ce" d="M 237.832031 447.664062 L 233.816406 447.664062 L 233.816406 489.488281 C 233.816406 490.546875 234.246094 491.574219 234.992188 492.328125 C 235.738281 493.074219 236.773438 493.496094 237.832031 493.496094 L 273.527344 493.496094 C 275.082031 493.496094 276.515625 492.582031 277.171875 491.167969 C 277.824219 489.753906 277.59375 488.070312 276.582031 486.886719 L 240.878906 445.054688 C 239.785156 443.777344 238.023438 443.316406 236.441406 443.894531 C 234.859375 444.484375 233.816406 445.980469 233.816406 447.664062 L 237.832031 447.664062 L 234.777344 450.269531 L 264.832031 485.480469 L 241.839844 485.480469 L 241.839844 447.664062 L 237.832031 447.664062 L 234.777344 450.269531 L 237.832031 447.664062 " fill-opacity="1" fill-rule="nonzero"/><path fill="#4dc4ce" d="M 100.480469 556.003906 L 133.078125 588.605469 C 134.644531 590.167969 137.183594 590.167969 138.75 588.605469 C 140.324219 587.039062 140.324219 584.496094 138.75 582.929688 L 106.152344 550.324219 C 104.585938 548.757812 102.046875 548.757812 100.480469 550.324219 C 98.90625 551.898438 98.90625 554.429688 100.480469 556.003906 " fill-opacity="1" fill-rule="nonzero"/><path fill="#4dc4ce" d="M 133.078125 550.324219 L 100.480469 582.929688 C 98.90625 584.496094 98.90625 587.039062 100.480469 588.605469 C 102.046875 590.167969 104.585938 590.167969 106.152344 588.605469 L 138.75 556.003906 C 140.324219 554.429688 140.324219 551.898438 138.75 550.324219 C 137.183594 548.757812 134.644531 548.757812 133.078125 550.324219 " fill-opacity="1" fill-rule="nonzero"/><path fill="#4dc4ce" d="M 190.125 556.003906 L 222.730469 588.605469 C 224.296875 590.167969 226.835938 590.167969 228.402344 588.605469 C 229.96875 587.039062 229.96875 584.496094 228.402344 582.929688 L 195.804688 550.324219 C 194.230469 548.757812 191.699219 548.757812 190.125 550.324219 C 188.558594 551.898438 188.558594 554.429688 190.125 556.003906 " fill-opacity="1" fill-rule="nonzero"/><path fill="#4dc4ce" d="M 222.730469 550.324219 L 190.125 582.929688 C 188.558594 584.496094 188.558594 587.039062 190.125 588.605469 C 191.699219 590.167969 194.230469 590.167969 195.804688 588.605469 L 228.402344 556.003906 C 229.96875 554.429688 229.96875 551.898438 228.402344 550.324219 C 226.835938 548.757812 224.296875 548.757812 222.730469 550.324219 " fill-opacity="1" fill-rule="nonzero"/><path fill="#4dc4ce" d="M 106.035156 637.234375 L 222.847656 637.234375 C 225.066406 637.234375 226.863281 635.429688 226.863281 633.21875 C 226.863281 631 225.066406 629.210938 222.847656 629.210938 L 106.035156 629.210938 C 103.816406 629.210938 102.019531 631 102.019531 633.21875 C 102.019531 635.429688 103.816406 637.234375 106.035156 637.234375 " fill-opacity="1" fill-rule="nonzero"/><path fill="#ffffff" d="M 166.453125 633.21875 L 166.453125 654.441406 C 166.453125 667.332031 176.902344 677.777344 189.792969 677.777344 C 202.683594 677.777344 213.144531 667.332031 213.144531 654.441406 L 213.144531 633.21875 L 166.453125 633.21875 " fill-opacity="1" fill-rule="nonzero"/><path fill="#4dc4ce" d="M 166.453125 633.21875 L 162.445312 633.21875 L 162.445312 654.441406 C 162.445312 669.542969 174.691406 681.785156 189.792969 681.792969 C 204.90625 681.785156 217.148438 669.542969 217.148438 654.441406 L 217.148438 633.21875 C 217.148438 632.160156 216.71875 631.132812 215.972656 630.378906 C 215.230469 629.632812 214.195312 629.210938 213.144531 629.210938 L 166.453125 629.210938 C 165.402344 629.210938 164.367188 629.632812 163.621094 630.378906 C 162.867188 631.132812 162.445312 632.160156 162.445312 633.21875 L 166.453125 633.21875 L 166.453125 637.234375 L 209.128906 637.234375 L 209.128906 654.441406 C 209.128906 659.789062 206.972656 664.59375 203.464844 668.105469 C 199.953125 671.605469 195.152344 673.757812 189.792969 673.769531 C 184.445312 673.757812 179.632812 671.605469 176.125 668.105469 C 172.621094 664.59375 170.46875 659.789062 170.46875 654.441406 L 170.46875 633.21875 L 166.453125 633.21875 L 166.453125 637.234375 L 166.453125 633.21875 " fill-opacity="1" fill-rule="nonzero"/><path fill="#4dc4ce" d="M 185.785156 634.417969 L 185.785156 661.222656 C 185.785156 663.433594 187.582031 665.230469 189.792969 665.230469 C 192.011719 665.230469 193.808594 663.433594 193.808594 661.222656 L 193.808594 634.417969 C 193.808594 632.199219 192.011719 630.402344 189.792969 630.402344 C 187.582031 630.402344 185.785156 632.199219 185.785156 634.417969 " fill-opacity="1" fill-rule="nonzero"/><path fill="#4dc4ce" d="M 156.039062 92.390625 C 157.925781 92.390625 159.457031 90.859375 159.457031 88.972656 C 159.457031 87.082031 157.925781 85.550781 156.039062 85.550781 C 154.140625 85.550781 152.609375 87.082031 152.609375 88.972656 C 152.609375 90.859375 154.140625 92.390625 156.039062 92.390625 Z M 167.4375 92.390625 C 169.328125 92.390625 170.859375 90.859375 170.859375 88.972656 C 170.859375 87.082031 169.328125 85.550781 167.4375 85.550781 C 165.542969 85.550781 164.011719 87.082031 164.011719 88.972656 C 164.011719 90.859375 165.542969 92.390625 167.4375 92.390625 Z M 178.839844 92.390625 C 180.726562 92.390625 182.257812 90.859375 182.257812 88.972656 C 182.257812 87.082031 180.726562 85.550781 178.839844 85.550781 C 176.953125 85.550781 175.421875 87.082031 175.421875 88.972656 C 175.421875 90.859375 176.953125 92.390625 178.839844 92.390625 Z M 190.242188 92.390625 C 192.128906 92.390625 193.660156 90.859375 193.660156 88.972656 C 193.660156 87.082031 192.128906 85.550781 190.242188 85.550781 C 188.351562 85.550781 186.820312 87.082031 186.820312 88.972656 C 186.820312 90.859375 188.351562 92.390625 190.242188 92.390625 Z M 201.640625 92.390625 C 203.539062 92.390625 205.070312 90.859375 205.070312 88.972656 C 205.070312 87.082031 203.539062 85.550781 201.640625 85.550781 C 199.753906 85.550781 198.222656 87.082031 198.222656 88.972656 C 198.222656 90.859375 199.753906 92.390625 201.640625 92.390625 Z M 213.042969 92.390625 C 214.941406 92.390625 216.472656 90.859375 216.472656 88.972656 C 216.472656 87.082031 214.941406 85.550781 213.042969 85.550781 C 211.15625 85.550781 209.625 87.082031 209.625 88.972656 C 209.625 90.859375 211.15625 92.390625 213.042969 92.390625 Z M 224.453125 92.390625 C 226.339844 92.390625 227.871094 90.859375 227.871094 88.972656 C 227.871094 87.082031 226.339844 85.550781 224.453125 85.550781 C 222.566406 85.550781 221.035156 87.082031 221.035156 88.972656 C 221.035156 90.859375 222.566406 92.390625 224.453125 92.390625 Z M 235.855469 92.390625 C 237.742188 92.390625 239.273438 90.859375 239.273438 88.972656 C 239.273438 87.082031 237.742188 85.550781 235.855469 85.550781 C 233.964844 85.550781 232.433594 87.082031 232.433594 88.972656 C 232.433594 90.859375 233.964844 92.390625 235.855469 92.390625 " fill-opacity="1" fill-rule="nonzero"/><path fill="#4dc4ce" d="M 83.050781 117.480469 C 84.949219 117.480469 86.472656 115.949219 86.472656 114.0625 C 86.472656 112.171875 84.949219 110.640625 83.050781 110.640625 C 81.164062 110.640625 79.632812 112.171875 79.632812 114.0625 C 79.632812 115.949219 81.164062 117.480469 83.050781 117.480469 Z M 94.460938 117.480469 C 96.347656 117.480469 97.878906 115.949219 97.878906 114.0625 C 97.878906 112.171875 96.347656 110.640625 94.460938 110.640625 C 92.566406 110.640625 91.035156 112.171875 91.035156 114.0625 C 91.035156 115.949219 92.566406 117.480469 94.460938 117.480469 Z M 105.863281 117.480469 C 107.75 117.480469 109.28125 115.949219 109.28125 114.0625 C 109.28125 112.171875 107.75 110.640625 105.863281 110.640625 C 103.972656 110.640625 102.441406 112.171875 102.441406 114.0625 C 102.441406 115.949219 103.972656 117.480469 105.863281 117.480469 Z M 117.261719 117.480469 C 119.152344 117.480469 120.683594 115.949219 120.683594 114.0625 C 120.683594 112.171875 119.152344 110.640625 117.261719 110.640625 C 115.375 110.640625 113.84375 112.171875 113.84375 114.0625 C 113.84375 115.949219 115.375 117.480469 117.261719 117.480469 Z M 128.664062 117.480469 C 130.550781 117.480469 132.085938 115.949219 132.085938 114.0625 C 132.085938 112.171875 130.550781 110.640625 128.664062 110.640625 C 126.777344 110.640625 125.246094 112.171875 125.246094 114.0625 C 125.246094 115.949219 126.777344 117.480469 128.664062 117.480469 Z M 140.066406 117.480469 C 141.960938 117.480469 143.492188 115.949219 143.492188 114.0625 C 143.492188 112.171875 141.960938 110.640625 140.066406 110.640625 C 138.179688 110.640625 136.644531 112.171875 136.644531 114.0625 C 136.644531 115.949219 138.179688 117.480469 140.066406 117.480469 Z M 151.476562 117.480469 C 153.363281 117.480469 154.894531 115.949219 154.894531 114.0625 C 154.894531 112.171875 153.363281 110.640625 151.476562 110.640625 C 149.585938 110.640625 148.046875 112.171875 148.046875 114.0625 C 148.046875 115.949219 149.585938 117.480469 151.476562 117.480469 Z M 162.875 117.480469 C 164.765625 117.480469 166.296875 115.949219 166.296875 114.0625 C 166.296875 112.171875 164.765625 110.640625 162.875 110.640625 C 160.988281 110.640625 159.457031 112.171875 159.457031 114.0625 C 159.457031 115.949219 160.988281 117.480469 162.875 117.480469 Z M 174.277344 117.480469 C 176.164062 117.480469 177.695312 115.949219 177.695312 114.0625 C 177.695312 112.171875 176.164062 110.640625 174.277344 110.640625 C 172.390625 110.640625 170.859375 112.171875 170.859375 114.0625 C 170.859375 115.949219 172.390625 117.480469 174.277344 117.480469 Z M 185.679688 117.480469 C 187.574219 117.480469 189.097656 115.949219 189.097656 114.0625 C 189.097656 112.171875 187.574219 110.640625 185.679688 110.640625 C 183.792969 110.640625 182.257812 112.171875 182.257812 114.0625 C 182.257812 115.949219 183.792969 117.480469 185.679688 117.480469 " fill-opacity="1" fill-rule="nonzero"/><g clip-path="url(#2a246044c3)"><path fill="#4dc4ce" d="M 26.039062 274.859375 C 27.925781 274.859375 29.457031 273.328125 29.457031 271.429688 C 29.457031 269.542969 27.925781 268.011719 26.039062 268.011719 C 24.148438 268.011719 22.617188 269.542969 22.617188 271.429688 C 22.617188 273.328125 24.148438 274.859375 26.039062 274.859375 Z M 37.4375 274.859375 C 39.335938 274.859375 40.867188 273.328125 40.867188 271.429688 C 40.867188 269.542969 39.335938 268.011719 37.4375 268.011719 C 35.550781 268.011719 34.019531 269.542969 34.019531 271.429688 C 34.019531 273.328125 35.550781 274.859375 37.4375 274.859375 Z M 48.847656 274.859375 C 50.734375 274.859375 52.265625 273.328125 52.265625 271.429688 C 52.265625 269.542969 50.734375 268.011719 48.847656 268.011719 C 46.960938 268.011719 45.421875 269.542969 45.421875 271.429688 C 45.421875 273.328125 46.960938 274.859375 48.847656 274.859375 Z M 60.25 274.859375 C 62.136719 274.859375 63.667969 273.328125 63.667969 271.429688 C 63.667969 269.542969 62.136719 268.011719 60.25 268.011719 C 58.363281 268.011719 56.828125 269.542969 56.828125 271.429688 C 56.828125 273.328125 58.363281 274.859375 60.25 274.859375 Z M 71.648438 274.859375 C 73.539062 274.859375 75.070312 273.328125 75.070312 271.429688 C 75.070312 269.542969 73.539062 268.011719 71.648438 268.011719 C 69.761719 268.011719 68.230469 269.542969 68.230469 271.429688 C 68.230469 273.328125 69.761719 274.859375 71.648438 274.859375 Z M 83.050781 274.859375 C 84.949219 274.859375 86.472656 273.328125 86.472656 271.429688 C 86.472656 269.542969 84.949219 268.011719 83.050781 268.011719 C 81.164062 268.011719 79.632812 269.542969 79.632812 271.429688 C 79.632812 273.328125 81.164062 274.859375 83.050781 274.859375 Z M 94.460938 274.859375 C 96.347656 274.859375 97.878906 273.328125 97.878906 271.429688 C 97.878906 269.542969 96.347656 268.011719 94.460938 268.011719 C 92.566406 268.011719 91.035156 269.542969 91.035156 271.429688 C 91.035156 273.328125 92.566406 274.859375 94.460938 274.859375 " fill-opacity="1" fill-rule="nonzero"/></g><path fill="#4dc4ce" d="M 62.527344 343.28125 C 64.421875 343.28125 65.945312 341.746094 65.945312 339.859375 C 65.945312 337.972656 64.421875 336.441406 62.527344 336.441406 C 60.636719 336.441406 59.105469 337.972656 59.105469 339.859375 C 59.105469 341.746094 60.636719 343.28125 62.527344 343.28125 Z M 73.9375 343.28125 C 75.824219 343.28125 77.355469 341.746094 77.355469 339.859375 C 77.355469 337.972656 75.824219 336.441406 73.9375 336.441406 C 72.039062 336.441406 70.507812 337.972656 70.507812 339.859375 C 70.507812 341.746094 72.039062 343.28125 73.9375 343.28125 Z M 85.335938 343.28125 C 87.222656 343.28125 88.757812 341.746094 88.757812 339.859375 C 88.757812 337.972656 87.222656 336.441406 85.335938 336.441406 C 83.449219 336.441406 81.917969 337.972656 81.917969 339.859375 C 81.917969 341.746094 83.449219 343.28125 85.335938 343.28125 Z M 96.738281 343.28125 C 98.625 343.28125 100.15625 341.746094 100.15625 339.859375 C 100.15625 337.972656 98.625 336.441406 96.738281 336.441406 C 94.851562 336.441406 93.320312 337.972656 93.320312 339.859375 C 93.320312 341.746094 94.851562 343.28125 96.738281 343.28125 Z M 108.140625 343.28125 C 110.027344 343.28125 111.558594 341.746094 111.558594 339.859375 C 111.558594 337.972656 110.027344 336.441406 108.140625 336.441406 C 106.25 336.441406 104.71875 337.972656 104.71875 339.859375 C 104.71875 341.746094 106.25 343.28125 108.140625 343.28125 Z M 119.539062 343.28125 C 121.4375 343.28125 122.96875 341.746094 122.96875 339.859375 C 122.96875 337.972656 121.4375 336.441406 119.539062 336.441406 C 117.652344 336.441406 116.121094 337.972656 116.121094 339.859375 C 116.121094 341.746094 117.652344 343.28125 119.539062 343.28125 " fill-opacity="1" fill-rule="nonzero"/><path fill="#4dc4ce" d="M 511.808594 80.988281 C 513.699219 80.988281 515.230469 79.457031 515.230469 77.570312 C 515.230469 75.679688 513.699219 74.148438 511.808594 74.148438 C 509.921875 74.148438 508.382812 75.679688 508.382812 77.570312 C 508.382812 79.457031 509.921875 80.988281 511.808594 80.988281 Z M 523.210938 80.988281 C 525.097656 80.988281 526.628906 79.457031 526.628906 77.570312 C 526.628906 75.679688 525.097656 74.148438 523.210938 74.148438 C 521.324219 74.148438 519.792969 75.679688 519.792969 77.570312 C 519.792969 79.457031 521.324219 80.988281 523.210938 80.988281 Z M 534.613281 80.988281 C 536.5 80.988281 538.03125 79.457031 538.03125 77.570312 C 538.03125 75.679688 536.5 74.148438 534.613281 74.148438 C 532.722656 74.148438 531.191406 75.679688 531.191406 77.570312 C 531.191406 79.457031 532.722656 80.988281 534.613281 80.988281 Z M 546.011719 80.988281 C 547.902344 80.988281 549.433594 79.457031 549.433594 77.570312 C 549.433594 75.679688 547.902344 74.148438 546.011719 74.148438 C 544.125 74.148438 542.59375 75.679688 542.59375 77.570312 C 542.59375 79.457031 544.125 80.988281 546.011719 80.988281 Z M 557.421875 80.988281 C 559.308594 80.988281 560.84375 79.457031 560.84375 77.570312 C 560.84375 75.679688 559.308594 74.148438 557.421875 74.148438 C 555.527344 74.148438 553.996094 75.679688 553.996094 77.570312 C 553.996094 79.457031 555.527344 80.988281 557.421875 80.988281 Z M 568.824219 80.988281 C 570.710938 80.988281 572.242188 79.457031 572.242188 77.570312 C 572.242188 75.679688 570.710938 74.148438 568.824219 74.148438 C 566.925781 74.148438 565.402344 75.679688 565.402344 77.570312 C 565.402344 79.457031 566.925781 80.988281 568.824219 80.988281 Z M 580.226562 80.988281 C 582.113281 80.988281 583.644531 79.457031 583.644531 77.570312 C 583.644531 75.679688 582.113281 74.148438 580.226562 74.148438 C 578.335938 74.148438 576.804688 75.679688 576.804688 77.570312 C 576.804688 79.457031 578.335938 80.988281 580.226562 80.988281 Z M 591.625 80.988281 C 593.515625 80.988281 595.046875 79.457031 595.046875 77.570312 C 595.046875 75.679688 593.515625 74.148438 591.625 74.148438 C 589.738281 74.148438 588.207031 75.679688 588.207031 77.570312 C 588.207031 79.457031 589.738281 80.988281 591.625 80.988281 Z M 603.027344 80.988281 C 604.914062 80.988281 606.457031 79.457031 606.457031 77.570312 C 606.457031 75.679688 604.914062 74.148438 603.027344 74.148438 C 601.140625 74.148438 599.609375 75.679688 599.609375 77.570312 C 599.609375 79.457031 601.140625 80.988281 603.027344 80.988281 " fill-opacity="1" fill-rule="nonzero"/><path fill="#4dc4ce" d="M 566.539062 103.792969 C 568.425781 103.792969 569.964844 102.261719 569.964844 100.375 C 569.964844 98.484375 568.425781 96.953125 566.539062 96.953125 C 564.652344 96.953125 563.117188 98.484375 563.117188 100.375 C 563.117188 102.261719 564.652344 103.792969 566.539062 103.792969 Z M 577.941406 103.792969 C 579.835938 103.792969 581.367188 102.261719 581.367188 100.375 C 581.367188 98.484375 579.835938 96.953125 577.941406 96.953125 C 576.050781 96.953125 574.519531 98.484375 574.519531 100.375 C 574.519531 102.261719 576.050781 103.792969 577.941406 103.792969 Z M 589.347656 103.792969 C 591.238281 103.792969 592.769531 102.261719 592.769531 100.375 C 592.769531 98.484375 591.238281 96.953125 589.347656 96.953125 C 587.460938 96.953125 585.921875 98.484375 585.921875 100.375 C 585.921875 102.261719 587.460938 103.792969 589.347656 103.792969 Z M 600.75 103.792969 C 602.636719 103.792969 604.171875 102.261719 604.171875 100.375 C 604.171875 98.484375 602.636719 96.953125 600.75 96.953125 C 598.863281 96.953125 597.332031 98.484375 597.332031 100.375 C 597.332031 102.261719 598.863281 103.792969 600.75 103.792969 Z M 612.152344 103.792969 C 614.039062 103.792969 615.570312 102.261719 615.570312 100.375 C 615.570312 98.484375 614.039062 96.953125 612.152344 96.953125 C 610.265625 96.953125 608.730469 98.484375 608.730469 100.375 C 608.730469 102.261719 610.265625 103.792969 612.152344 103.792969 Z M 623.554688 103.792969 C 625.449219 103.792969 626.972656 102.261719 626.972656 100.375 C 626.972656 98.484375 625.449219 96.953125 623.554688 96.953125 C 621.664062 96.953125 620.132812 98.484375 620.132812 100.375 C 620.132812 102.261719 621.664062 103.792969 623.554688 103.792969 Z M 634.960938 103.792969 C 636.851562 103.792969 638.382812 102.261719 638.382812 100.375 C 638.382812 98.484375 636.851562 96.953125 634.960938 96.953125 C 633.066406 96.953125 631.535156 98.484375 631.535156 100.375 C 631.535156 102.261719 633.066406 103.792969 634.960938 103.792969 Z M 646.363281 103.792969 C 648.25 103.792969 649.78125 102.261719 649.78125 100.375 C 649.78125 98.484375 648.25 96.953125 646.363281 96.953125 C 644.46875 96.953125 642.945312 98.484375 642.945312 100.375 C 642.945312 102.261719 644.46875 103.792969 646.363281 103.792969 " fill-opacity="1" fill-rule="nonzero"/><g clip-path="url(#7c6d3624f9)"><path fill="#4dc4ce" d="M 685.128906 400.296875 C 687.015625 400.296875 688.546875 398.765625 688.546875 396.878906 C 688.546875 394.992188 687.015625 393.457031 685.128906 393.457031 C 683.242188 393.457031 681.710938 394.992188 681.710938 396.878906 C 681.710938 398.765625 683.242188 400.296875 685.128906 400.296875 Z M 696.53125 400.296875 C 698.425781 400.296875 699.949219 398.765625 699.949219 396.878906 C 699.949219 394.992188 698.425781 393.457031 696.53125 393.457031 C 694.644531 393.457031 693.109375 394.992188 693.109375 396.878906 C 693.109375 398.765625 694.644531 400.296875 696.53125 400.296875 Z M 707.941406 400.296875 C 709.828125 400.296875 711.359375 398.765625 711.359375 396.878906 C 711.359375 394.992188 709.828125 393.457031 707.941406 393.457031 C 706.042969 393.457031 704.511719 394.992188 704.511719 396.878906 C 704.511719 398.765625 706.042969 400.296875 707.941406 400.296875 Z M 719.339844 400.296875 C 721.230469 400.296875 722.761719 398.765625 722.761719 396.878906 C 722.761719 394.992188 721.230469 393.457031 719.339844 393.457031 C 717.453125 393.457031 715.921875 394.992188 715.921875 396.878906 C 715.921875 398.765625 717.453125 400.296875 719.339844 400.296875 Z M 730.742188 400.296875 C 732.628906 400.296875 734.160156 398.765625 734.160156 396.878906 C 734.160156 394.992188 732.628906 393.457031 730.742188 393.457031 C 728.855469 393.457031 727.324219 394.992188 727.324219 396.878906 C 727.324219 398.765625 728.855469 400.296875 730.742188 400.296875 Z M 742.144531 400.296875 C 744.039062 400.296875 745.5625 398.765625 745.5625 396.878906 C 745.5625 394.992188 744.039062 393.457031 742.144531 393.457031 C 740.253906 393.457031 738.722656 394.992188 738.722656 396.878906 C 738.722656 398.765625 740.253906 400.296875 742.144531 400.296875 " fill-opacity="1" fill-rule="nonzero"/></g><path fill="#4dc4ce" d="M 694.253906 427.664062 C 696.140625 427.664062 697.671875 426.132812 697.671875 424.246094 C 697.671875 422.359375 696.140625 420.824219 694.253906 420.824219 C 692.367188 420.824219 690.832031 422.359375 690.832031 424.246094 C 690.832031 426.132812 692.367188 427.664062 694.253906 427.664062 Z M 705.65625 427.664062 C 707.542969 427.664062 709.074219 426.132812 709.074219 424.246094 C 709.074219 422.359375 707.542969 420.824219 705.65625 420.824219 C 703.765625 420.824219 702.234375 422.359375 702.234375 424.246094 C 702.234375 426.132812 703.765625 427.664062 705.65625 427.664062 Z M 717.054688 427.664062 C 718.953125 427.664062 720.484375 426.132812 720.484375 424.246094 C 720.484375 422.359375 718.953125 420.824219 717.054688 420.824219 C 715.167969 420.824219 713.636719 422.359375 713.636719 424.246094 C 713.636719 426.132812 715.167969 427.664062 717.054688 427.664062 Z M 728.464844 427.664062 C 730.351562 427.664062 731.886719 426.132812 731.886719 424.246094 C 731.886719 422.359375 730.351562 420.824219 728.464844 420.824219 C 726.570312 420.824219 725.046875 422.359375 725.046875 424.246094 C 725.046875 426.132812 726.570312 427.664062 728.464844 427.664062 Z M 739.867188 427.664062 C 741.753906 427.664062 743.285156 426.132812 743.285156 424.246094 C 743.285156 422.359375 741.753906 420.824219 739.867188 420.824219 C 737.980469 420.824219 736.445312 422.359375 736.445312 424.246094 C 736.445312 426.132812 737.980469 427.664062 739.867188 427.664062 " fill-opacity="1" fill-rule="nonzero"/></svg>