<svg xmlns="http://www.w3.org/2000/svg" xmlns:xlink="http://www.w3.org/1999/xlink" width="1024" zoomAndPan="magnify" viewBox="0 0 768 767.999994" height="1024" preserveAspectRatio="xMidYMid meet" version="1.0"><defs><clipPath id="b89071e76f"><path d="M 32.042969 32.042969 L 752.042969 32.042969 L 752.042969 752.042969 L 32.042969 752.042969 Z M 32.042969 32.042969 " clip-rule="nonzero"/></clipPath></defs><g clip-path="url(#b89071e76f)"><path fill="#f5f5f5" d="M 375.996094 371.011719 L 407.894531 371.011719 C 509.144531 371.011719 591.921875 453.789062 591.921875 555.039062 C 591.921875 583.800781 568.398438 607.324219 539.632812 607.324219 L 244.640625 607.324219 C 215.75 607.324219 192.160156 583.738281 192.160156 554.847656 C 192.160156 453.722656 274.875 371.011719 375.996094 371.011719 Z M 392.042969 64.640625 C 211.210938 64.640625 64.578125 211.210938 64.578125 392.042969 C 64.578125 572.871094 211.210938 719.503906 392.042969 719.503906 C 572.871094 719.503906 719.503906 572.871094 719.503906 392.042969 C 719.503906 211.210938 572.871094 64.640625 392.042969 64.640625 Z M 392.042969 32.042969 C 590.898438 32.042969 752.042969 193.25 752.042969 392.042969 C 752.042969 590.832031 590.898438 752.042969 392.042969 752.042969 C 193.25 752.042969 32.042969 590.832031 32.042969 392.042969 C 32.042969 193.25 193.25 32.042969 392.042969 32.042969 Z M 392.042969 138.40625 C 452.574219 138.40625 501.664062 187.496094 501.664062 248.027344 C 501.664062 308.5625 452.574219 357.652344 392.042969 357.652344 C 331.507812 357.652344 282.417969 308.5625 282.417969 248.027344 C 282.417969 187.496094 331.507812 138.40625 392.042969 138.40625 " fill-opacity="1" fill-rule="nonzero"/></g></svg>