<svg xmlns="http://www.w3.org/2000/svg" xmlns:xlink="http://www.w3.org/1999/xlink" width="1024" zoomAndPan="magnify" viewBox="0 0 768 767.999994" height="1024" preserveAspectRatio="xMidYMid meet" version="1.0"><defs><clipPath id="308e0533f4"><path d="M 129.023438 11 L 630 11 L 630 758 L 129.023438 758 Z M 129.023438 11 " clip-rule="nonzero"/></clipPath></defs><g clip-path="url(#308e0533f4)"><path fill="#f5f5f5" d="M 601.40625 729.148438 C 600.289062 730.261719 599.144531 731.347656 597.972656 732.40625 C 596.800781 733.464844 595.605469 734.492188 594.382812 735.492188 C 593.164062 736.492188 591.917969 737.460938 590.648438 738.398438 C 589.378906 739.335938 588.089844 740.246094 586.773438 741.121094 C 585.460938 741.996094 584.128906 742.835938 582.773438 743.644531 C 581.417969 744.457031 580.046875 745.230469 578.652344 745.972656 C 577.261719 746.71875 575.851562 747.425781 574.421875 748.097656 C 572.996094 748.773438 571.554688 749.410156 570.09375 750.011719 C 568.636719 750.613281 567.164062 751.179688 565.675781 751.710938 C 564.191406 752.242188 562.691406 752.734375 561.183594 753.191406 C 559.671875 753.648438 558.152344 754.070312 556.621094 754.453125 C 555.089844 754.835938 553.550781 755.179688 552.003906 755.488281 C 550.457031 755.792969 548.902344 756.0625 547.339844 756.292969 C 545.777344 756.527344 544.214844 756.71875 542.644531 756.871094 C 541.074219 757.027344 539.5 757.144531 537.921875 757.21875 C 536.347656 757.296875 534.769531 757.335938 533.191406 757.335938 C 531.613281 757.335938 530.035156 757.296875 528.460938 757.21875 C 526.886719 757.144531 525.3125 757.027344 523.742188 756.871094 C 522.171875 756.71875 520.605469 756.527344 519.042969 756.292969 C 517.484375 756.0625 515.929688 755.792969 514.382812 755.488281 C 512.832031 755.179688 511.292969 754.835938 509.761719 754.453125 C 508.230469 754.070312 506.710938 753.648438 505.203125 753.191406 C 503.691406 752.734375 502.191406 752.242188 500.707031 751.710938 C 499.21875 751.179688 497.746094 750.613281 496.289062 750.011719 C 494.832031 749.410156 493.386719 748.773438 491.960938 748.097656 C 490.535156 747.425781 489.125 746.71875 487.730469 745.976562 C 486.339844 745.230469 484.964844 744.457031 483.609375 743.648438 C 482.257812 742.835938 480.921875 741.996094 479.609375 741.121094 C 478.296875 740.246094 477.003906 739.335938 475.734375 738.398438 C 474.464844 737.460938 473.222656 736.492188 472 735.492188 C 470.777344 734.492188 469.582031 733.464844 468.410156 732.40625 C 467.238281 731.347656 466.09375 730.261719 464.976562 729.148438 L 133.570312 397.628906 C 133.140625 397.199219 132.730469 396.753906 132.34375 396.285156 C 131.957031 395.820312 131.597656 395.332031 131.257812 394.832031 C 130.917969 394.328125 130.605469 393.808594 130.320312 393.273438 C 130.03125 392.742188 129.773438 392.195312 129.539062 391.632812 C 129.304688 391.074219 129.101562 390.503906 128.925781 389.925781 C 128.746094 389.34375 128.597656 388.757812 128.480469 388.164062 C 128.363281 387.566406 128.273438 386.96875 128.210938 386.367188 C 128.152344 385.761719 128.125 385.15625 128.125 384.550781 C 128.125 383.945312 128.152344 383.339844 128.210938 382.734375 C 128.273438 382.132812 128.363281 381.535156 128.480469 380.9375 C 128.597656 380.34375 128.746094 379.757812 128.925781 379.175781 C 129.101562 378.597656 129.304688 378.027344 129.539062 377.46875 C 129.773438 376.90625 130.03125 376.359375 130.320312 375.828125 C 130.605469 375.292969 130.917969 374.773438 131.257812 374.269531 C 131.597656 373.769531 131.957031 373.28125 132.34375 372.816406 C 132.730469 372.347656 133.140625 371.902344 133.570312 371.472656 L 464.976562 39.953125 C 466.09375 38.835938 467.238281 37.746094 468.410156 36.6875 C 469.582031 35.625 470.777344 34.59375 472 33.59375 C 473.222656 32.589844 474.46875 31.621094 475.738281 30.679688 C 477.007812 29.738281 478.300781 28.828125 479.613281 27.953125 C 480.929688 27.074219 482.261719 26.230469 483.617188 25.417969 C 484.972656 24.609375 486.347656 23.828125 487.742188 23.085938 C 489.136719 22.34375 490.546875 21.632812 491.976562 20.957031 C 493.40625 20.28125 494.851562 19.644531 496.308594 19.039062 C 497.769531 18.4375 499.242188 17.867188 500.730469 17.335938 C 502.21875 16.804688 503.71875 16.3125 505.230469 15.851562 C 506.742188 15.394531 508.265625 14.976562 509.800781 14.59375 C 511.332031 14.210938 512.871094 13.863281 514.421875 13.558594 C 515.972656 13.25 517.527344 12.980469 519.089844 12.75 C 520.65625 12.519531 522.222656 12.328125 523.792969 12.171875 C 525.367188 12.019531 526.941406 11.902344 528.519531 11.828125 C 530.097656 11.75 531.675781 11.710938 533.257812 11.714844 C 534.835938 11.714844 536.414062 11.753906 537.992188 11.832031 C 539.570312 11.910156 541.148438 12.027344 542.71875 12.183594 C 544.292969 12.339844 545.859375 12.535156 547.421875 12.769531 C 548.984375 13 550.539062 13.273438 552.089844 13.582031 C 553.636719 13.890625 555.179688 14.238281 556.710938 14.625 C 558.242188 15.007812 559.765625 15.429688 561.277344 15.890625 C 562.789062 16.351562 564.289062 16.847656 565.773438 17.378906 C 567.261719 17.914062 568.734375 18.484375 570.195312 19.089844 C 571.652344 19.695312 573.097656 20.335938 574.523438 21.011719 C 575.953125 21.691406 577.363281 22.402344 578.753906 23.148438 C 580.148438 23.894531 581.523438 24.671875 582.875 25.484375 C 584.230469 26.300781 585.566406 27.144531 586.878906 28.023438 C 588.191406 28.902344 589.480469 29.8125 590.75 30.757812 C 592.019531 31.699219 593.261719 32.671875 594.484375 33.675781 C 595.703125 34.679688 596.898438 35.710938 598.070312 36.773438 C 599.238281 37.835938 600.382812 38.925781 601.5 40.042969 C 602.613281 41.164062 603.703125 42.308594 604.765625 43.480469 C 605.824219 44.652344 606.855469 45.847656 607.855469 47.070312 C 608.859375 48.292969 609.828125 49.539062 610.769531 50.808594 C 611.710938 52.078125 612.617188 53.371094 613.496094 54.6875 C 614.371094 56 615.214844 57.335938 616.027344 58.691406 C 616.839844 60.046875 617.617188 61.421875 618.359375 62.816406 C 619.101562 64.210938 619.8125 65.625 620.488281 67.054688 C 621.160156 68.480469 621.800781 69.925781 622.402344 71.386719 C 623.007812 72.847656 623.574219 74.324219 624.105469 75.8125 C 624.636719 77.300781 625.132812 78.800781 625.589844 80.3125 C 626.046875 81.824219 626.46875 83.347656 626.851562 84.882812 C 627.234375 86.414062 627.578125 87.957031 627.886719 89.507812 C 628.191406 91.058594 628.460938 92.613281 628.691406 94.175781 C 628.921875 95.742188 629.113281 97.308594 629.269531 98.882812 C 629.421875 100.453125 629.539062 102.03125 629.613281 103.609375 C 629.691406 105.1875 629.726562 106.765625 629.726562 108.347656 C 629.726562 109.929688 629.6875 111.507812 629.609375 113.085938 C 629.53125 114.664062 629.410156 116.238281 629.257812 117.8125 C 629.101562 119.386719 628.90625 120.953125 628.671875 122.515625 C 628.441406 124.078125 628.167969 125.636719 627.859375 127.1875 C 627.550781 128.734375 627.203125 130.277344 626.820312 131.808594 C 626.433594 133.34375 626.011719 134.863281 625.550781 136.378906 C 625.09375 137.890625 624.59375 139.390625 624.0625 140.875 C 623.527344 142.363281 622.960938 143.839844 622.355469 145.296875 C 621.75 146.757812 621.109375 148.203125 620.429688 149.628906 C 619.753906 151.058594 619.042969 152.46875 618.296875 153.863281 C 617.550781 155.253906 616.773438 156.628906 615.960938 157.984375 C 615.148438 159.339844 614.300781 160.671875 613.421875 161.988281 C 612.542969 163.300781 611.632812 164.59375 610.691406 165.859375 C 609.75 167.128906 608.777344 168.375 607.773438 169.59375 C 606.769531 170.816406 605.738281 172.011719 604.675781 173.183594 C 603.613281 174.351562 602.523438 175.496094 601.40625 176.613281 L 393.539062 384.550781 L 601.40625 592.488281 C 602.527344 593.605469 603.617188 594.75 604.679688 595.921875 C 605.746094 597.09375 606.777344 598.289062 607.785156 599.511719 C 608.789062 600.730469 609.761719 601.976562 610.707031 603.246094 C 611.648438 604.515625 612.5625 605.808594 613.441406 607.125 C 614.320312 608.4375 615.167969 609.773438 615.980469 611.128906 C 616.796875 612.488281 617.578125 613.863281 618.324219 615.257812 C 619.070312 616.652344 619.78125 618.0625 620.460938 619.492188 C 621.136719 620.921875 621.777344 622.367188 622.382812 623.828125 C 622.992188 625.289062 623.558594 626.765625 624.09375 628.253906 C 624.628906 629.746094 625.125 631.246094 625.585938 632.757812 C 626.042969 634.273438 626.464844 635.796875 626.851562 637.332031 C 627.234375 638.867188 627.582031 640.410156 627.890625 641.960938 C 628.199219 643.511719 628.472656 645.070312 628.703125 646.636719 C 628.9375 648.199219 629.128906 649.769531 629.285156 651.34375 C 629.441406 652.917969 629.558594 654.496094 629.636719 656.074219 C 629.714844 657.65625 629.75 659.238281 629.75 660.820312 C 629.75 662.402344 629.714844 663.980469 629.636719 665.5625 C 629.558594 667.144531 629.441406 668.71875 629.285156 670.292969 C 629.128906 671.867188 628.9375 673.4375 628.703125 675.003906 C 628.472656 676.566406 628.199219 678.125 627.890625 679.675781 C 627.582031 681.230469 627.234375 682.773438 626.851562 684.308594 C 626.464844 685.839844 626.042969 687.367188 625.585938 688.878906 C 625.125 690.394531 624.628906 691.894531 624.09375 693.382812 C 623.558594 694.871094 622.992188 696.347656 622.382812 697.808594 C 621.777344 699.269531 621.136719 700.714844 620.460938 702.144531 C 619.78125 703.574219 619.070312 704.988281 618.324219 706.382812 C 617.578125 707.777344 616.796875 709.152344 615.980469 710.507812 C 615.167969 711.863281 614.320312 713.199219 613.441406 714.515625 C 612.5625 715.828125 611.648438 717.121094 610.707031 718.390625 C 609.761719 719.660156 608.789062 720.90625 607.785156 722.128906 C 606.777344 723.351562 605.746094 724.546875 604.679688 725.71875 C 603.617188 726.886719 602.527344 728.03125 601.40625 729.148438 Z M 601.40625 729.148438 " fill-opacity="1" fill-rule="nonzero"/></g></svg>