<svg xmlns="http://www.w3.org/2000/svg" xmlns:xlink="http://www.w3.org/1999/xlink" width="1024" zoomAndPan="magnify" viewBox="0 0 768 767.999994" height="1024" preserveAspectRatio="xMidYMid meet" version="1.0"><path fill="#f5f5f5" d="M 494.566406 664.730469 C 490.085938 669.714844 483.695312 672.554688 476.980469 672.554688 L 191.21875 672.554688 C 171.398438 673.148438 159.816406 647.457031 173.632812 633.097656 C 173.632812 633.097656 403.222656 378.226562 403.222656 378.226562 L 173.632812 123.351562 C 167.382812 116.414062 165.800781 106.453125 169.601562 97.921875 C 173.402344 89.390625 181.871094 83.898438 191.21875 83.898438 L 476.980469 83.898438 C 483.695312 83.898438 490.082031 86.738281 494.566406 91.722656 L 738.402344 362.410156 C 746.503906 371.402344 746.503906 385.050781 738.402344 394.042969 Z M 466.445312 131.179688 L 244.351562 131.179688 L 452.640625 362.410156 C 460.738281 371.402344 460.738281 385.046875 452.640625 394.042969 L 244.351562 625.273438 L 466.445312 625.273438 L 688.988281 378.226562 Z M 466.445312 131.179688 " fill-opacity="1" fill-rule="nonzero"/><path fill="#f5f5f5" d="M 319.714844 394.042969 L 75.878906 664.730469 C 55.121094 687.503906 20.0625 656.265625 40.710938 633.097656 C 40.707031 633.097656 270.300781 378.226562 270.300781 378.226562 L 40.710938 123.351562 C 31.964844 113.644531 32.75 98.695312 42.464844 89.96875 C 52.191406 81.195312 67.144531 82.039062 75.878906 91.722656 L 319.714844 362.410156 C 327.816406 371.402344 327.816406 385.046875 319.714844 394.042969 Z M 319.714844 394.042969 " fill-opacity="1" fill-rule="nonzero"/></svg>