<svg xmlns="http://www.w3.org/2000/svg" xmlns:xlink="http://www.w3.org/1999/xlink" width="1024" zoomAndPan="magnify" viewBox="0 0 768 767.999994" height="1024" preserveAspectRatio="xMidYMid meet" version="1.0"><defs><clipPath id="eff017cc8b"><path d="M 138 11 L 639.023438 11 L 639.023438 758 L 138 758 Z M 138 11 " clip-rule="nonzero"/></clipPath></defs><g clip-path="url(#eff017cc8b)"><path fill="#f5f5f5" d="M 166.585938 729.148438 C 167.703125 730.261719 168.847656 731.347656 170.019531 732.40625 C 171.1875 733.464844 172.386719 734.492188 173.605469 735.492188 C 174.828125 736.492188 176.074219 737.460938 177.34375 738.398438 C 178.613281 739.335938 179.902344 740.246094 181.214844 741.121094 C 182.53125 741.996094 183.863281 742.835938 185.21875 743.644531 C 186.574219 744.457031 187.945312 745.230469 189.339844 745.972656 C 190.730469 746.71875 192.140625 747.425781 193.566406 748.097656 C 194.996094 748.773438 196.4375 749.410156 197.898438 750.011719 C 199.355469 750.613281 200.828125 751.179688 202.3125 751.710938 C 203.800781 752.242188 205.296875 752.734375 206.808594 753.191406 C 208.320312 753.648438 209.839844 754.070312 211.371094 754.453125 C 212.902344 754.835938 214.441406 755.179688 215.988281 755.488281 C 217.535156 755.792969 219.089844 756.0625 220.652344 756.292969 C 222.210938 756.527344 223.777344 756.71875 225.347656 756.871094 C 226.917969 757.027344 228.492188 757.144531 230.066406 757.21875 C 231.644531 757.296875 233.222656 757.335938 234.800781 757.335938 C 236.378906 757.335938 237.953125 757.296875 239.53125 757.21875 C 241.105469 757.144531 242.679688 757.027344 244.25 756.871094 C 245.820312 756.71875 247.386719 756.527344 248.945312 756.292969 C 250.507812 756.0625 252.0625 755.792969 253.609375 755.488281 C 255.15625 755.179688 256.699219 754.835938 258.226562 754.453125 C 259.757812 754.070312 261.28125 753.648438 262.789062 753.191406 C 264.300781 752.734375 265.796875 752.242188 267.285156 751.710938 C 268.769531 751.179688 270.242188 750.613281 271.703125 750.011719 C 273.160156 749.410156 274.601562 748.773438 276.03125 748.097656 C 277.457031 747.425781 278.867188 746.71875 280.261719 745.976562 C 281.652344 745.230469 283.027344 744.457031 284.378906 743.648438 C 285.734375 742.835938 287.070312 741.996094 288.382812 741.121094 C 289.695312 740.246094 290.988281 739.335938 292.257812 738.398438 C 293.523438 737.460938 294.769531 736.492188 295.992188 735.492188 C 297.214844 734.492188 298.410156 733.464844 299.582031 732.40625 C 300.75 731.347656 301.894531 730.261719 303.015625 729.148438 L 634.421875 397.628906 C 634.851562 397.199219 635.261719 396.753906 635.648438 396.285156 C 636.035156 395.820312 636.394531 395.332031 636.734375 394.832031 C 637.070312 394.328125 637.386719 393.808594 637.671875 393.273438 C 637.960938 392.742188 638.21875 392.195312 638.453125 391.632812 C 638.683594 391.074219 638.890625 390.503906 639.066406 389.925781 C 639.242188 389.34375 639.390625 388.757812 639.511719 388.164062 C 639.628906 387.566406 639.71875 386.96875 639.777344 386.367188 C 639.839844 385.761719 639.867188 385.15625 639.867188 384.550781 C 639.867188 383.945312 639.839844 383.339844 639.777344 382.734375 C 639.71875 382.132812 639.628906 381.535156 639.511719 380.9375 C 639.390625 380.34375 639.242188 379.757812 639.066406 379.175781 C 638.890625 378.597656 638.683594 378.027344 638.453125 377.46875 C 638.21875 376.90625 637.960938 376.359375 637.671875 375.828125 C 637.386719 375.292969 637.070312 374.773438 636.734375 374.269531 C 636.394531 373.769531 636.035156 373.28125 635.648438 372.816406 C 635.261719 372.347656 634.851562 371.902344 634.421875 371.472656 L 303.015625 39.953125 C 301.894531 38.835938 300.75 37.746094 299.582031 36.6875 C 298.410156 35.625 297.210938 34.59375 295.992188 33.59375 C 294.769531 32.589844 293.523438 31.621094 292.253906 30.679688 C 290.984375 29.738281 289.691406 28.828125 288.378906 27.953125 C 287.0625 27.074219 285.726562 26.230469 284.371094 25.417969 C 283.015625 24.609375 281.640625 23.828125 280.25 23.085938 C 278.855469 22.339844 277.441406 21.632812 276.015625 20.957031 C 274.585938 20.28125 273.140625 19.644531 271.683594 19.039062 C 270.222656 18.4375 268.746094 17.867188 267.261719 17.335938 C 265.773438 16.804688 264.273438 16.3125 262.761719 15.851562 C 261.246094 15.394531 259.726562 14.976562 258.191406 14.59375 C 256.660156 14.210938 255.117188 13.863281 253.570312 13.558594 C 252.019531 13.25 250.460938 12.980469 248.898438 12.75 C 247.335938 12.519531 245.769531 12.328125 244.195312 12.171875 C 242.625 12.019531 241.050781 11.902344 239.472656 11.828125 C 237.894531 11.75 236.3125 11.710938 234.734375 11.714844 C 233.15625 11.714844 231.574219 11.753906 229.996094 11.832031 C 228.417969 11.910156 226.84375 12.027344 225.273438 12.183594 C 223.699219 12.339844 222.132812 12.535156 220.570312 12.769531 C 219.007812 13 217.453125 13.273438 215.902344 13.582031 C 214.351562 13.890625 212.8125 14.238281 211.28125 14.625 C 209.746094 15.007812 208.226562 15.429688 206.714844 15.890625 C 205.203125 16.351562 203.703125 16.847656 202.214844 17.378906 C 200.730469 17.914062 199.257812 18.484375 197.796875 19.089844 C 196.335938 19.695312 194.894531 20.335938 193.464844 21.011719 C 192.039062 21.691406 190.628906 22.402344 189.234375 23.148438 C 187.84375 23.894531 186.46875 24.671875 185.113281 25.484375 C 183.761719 26.300781 182.425781 27.144531 181.113281 28.023438 C 179.800781 28.902344 178.507812 29.8125 177.242188 30.757812 C 175.972656 31.699219 174.726562 32.671875 173.507812 33.675781 C 172.289062 34.679688 171.09375 35.710938 169.921875 36.773438 C 168.753906 37.835938 167.609375 38.925781 166.492188 40.042969 C 165.375 41.164062 164.289062 42.308594 163.226562 43.480469 C 162.167969 44.652344 161.136719 45.847656 160.136719 47.070312 C 159.132812 48.292969 158.164062 49.539062 157.222656 50.808594 C 156.28125 52.078125 155.375 53.371094 154.496094 54.6875 C 153.621094 56 152.777344 57.335938 151.964844 58.691406 C 151.152344 60.046875 150.375 61.421875 149.632812 62.816406 C 148.886719 64.210938 148.179688 65.625 147.503906 67.054688 C 146.832031 68.480469 146.191406 69.925781 145.585938 71.386719 C 144.984375 72.847656 144.417969 74.324219 143.886719 75.8125 C 143.355469 77.300781 142.859375 78.800781 142.402344 80.3125 C 141.945312 81.824219 141.523438 83.347656 141.140625 84.882812 C 140.757812 86.414062 140.414062 87.957031 140.105469 89.507812 C 139.800781 91.058594 139.53125 92.613281 139.300781 94.175781 C 139.070312 95.742188 138.875 97.308594 138.722656 98.882812 C 138.570312 100.453125 138.453125 102.03125 138.378906 103.609375 C 138.300781 105.1875 138.261719 106.765625 138.265625 108.347656 C 138.265625 109.929688 138.304688 111.507812 138.382812 113.085938 C 138.460938 114.664062 138.578125 116.238281 138.734375 117.8125 C 138.890625 119.386719 139.085938 120.953125 139.320312 122.515625 C 139.550781 124.078125 139.824219 125.636719 140.132812 127.1875 C 140.441406 128.734375 140.789062 130.277344 141.171875 131.808594 C 141.558594 133.34375 141.980469 134.863281 142.441406 136.378906 C 142.898438 137.890625 143.394531 139.390625 143.929688 140.875 C 144.460938 142.363281 145.03125 143.839844 145.636719 145.296875 C 146.242188 146.757812 146.882812 148.203125 147.558594 149.628906 C 148.238281 151.058594 148.949219 152.46875 149.695312 153.863281 C 150.4375 155.253906 151.21875 156.628906 152.03125 157.984375 C 152.84375 159.339844 153.691406 160.671875 154.570312 161.988281 C 155.449219 163.300781 156.359375 164.59375 157.300781 165.859375 C 158.242188 167.128906 159.214844 168.375 160.21875 169.59375 C 161.222656 170.816406 162.253906 172.011719 163.316406 173.183594 C 164.375 174.351562 165.464844 175.496094 166.585938 176.613281 L 374.449219 384.550781 L 166.585938 592.488281 C 165.464844 593.605469 164.375 594.75 163.308594 595.921875 C 162.246094 597.09375 161.210938 598.289062 160.207031 599.511719 C 159.203125 600.730469 158.230469 601.976562 157.285156 603.246094 C 156.34375 604.515625 155.429688 605.808594 154.550781 607.125 C 153.671875 608.4375 152.824219 609.773438 152.007812 611.128906 C 151.195312 612.488281 150.414062 613.863281 149.667969 615.257812 C 148.921875 616.652344 148.210938 618.0625 147.53125 619.492188 C 146.855469 620.921875 146.214844 622.367188 145.605469 623.828125 C 145 625.289062 144.429688 626.765625 143.898438 628.253906 C 143.363281 629.746094 142.867188 631.246094 142.40625 632.757812 C 141.949219 634.273438 141.523438 635.796875 141.140625 637.332031 C 140.753906 638.867188 140.410156 640.410156 140.097656 641.960938 C 139.789062 643.511719 139.519531 645.070312 139.289062 646.636719 C 139.054688 648.199219 138.859375 649.769531 138.707031 651.34375 C 138.550781 652.917969 138.433594 654.496094 138.355469 656.074219 C 138.277344 657.65625 138.238281 659.238281 138.238281 660.820312 C 138.238281 662.402344 138.277344 663.980469 138.355469 665.5625 C 138.433594 667.144531 138.550781 668.71875 138.707031 670.292969 C 138.859375 671.867188 139.054688 673.4375 139.289062 675.003906 C 139.519531 676.566406 139.789062 678.125 140.097656 679.675781 C 140.410156 681.230469 140.753906 682.773438 141.140625 684.308594 C 141.523438 685.839844 141.949219 687.367188 142.40625 688.878906 C 142.867188 690.394531 143.363281 691.894531 143.898438 693.382812 C 144.429688 694.871094 145 696.347656 145.605469 697.808594 C 146.214844 699.269531 146.855469 700.714844 147.53125 702.144531 C 148.210938 703.574219 148.921875 704.988281 149.667969 706.382812 C 150.414062 707.777344 151.195312 709.152344 152.007812 710.507812 C 152.824219 711.863281 153.671875 713.199219 154.550781 714.515625 C 155.429688 715.828125 156.34375 717.121094 157.285156 718.390625 C 158.230469 719.660156 159.203125 720.90625 160.207031 722.128906 C 161.210938 723.351562 162.246094 724.546875 163.308594 725.71875 C 164.375 726.886719 165.464844 728.03125 166.585938 729.148438 Z M 166.585938 729.148438 " fill-opacity="1" fill-rule="nonzero"/></g></svg>