<svg 
v-else-if="icon == 'test'"
xmlns="http://www.w3.org/2000/svg" xmlns:xlink="http://www.w3.org/1999/xlink" width="1024" zoomAndPan="magnify" viewBox="0 0 768 767.999994" height="1024" preserveAspectRatio="xMidYMid meet" version="1.0"><defs><clipPath id="93b10f8444"><path d="M 392 450 L 575 450 L 575 686.851562 L 392 686.851562 Z M 392 450 " clip-rule="nonzero"/></clipPath><clipPath id="4079b8b493"><path :class="{ white: color == 'white', accent: color == 'accent' }" d="M 192 450 L 375 450 L 375 686.851562 L 192 686.851562 Z M 192 450 " clip-rule="nonzero"/></clipPath><clipPath id="a86ddba95b"><path d="M 706 472 L 760.417969 472 L 760.417969 606 L 706 606 Z M 706 472 " clip-rule="nonzero"/></clipPath><clipPath id="e11e4cac19"><path d="M 7.417969 472 L 62 472 L 62 606 L 7.417969 606 Z M 7.417969 472 " clip-rule="nonzero"/></clipPath><clipPath id="c72da526ef"><path :class="{ white: color == 'white', accent: color == 'accent' }" d="M 92 80.851562 L 676 80.851562 L 676 262 L 92 262 Z M 92 80.851562 " clip-rule="nonzero"/></clipPath></defs><path fill="#ffffff" d="M 19.308594 452.066406 C 21.375 382.453125 42.816406 316.21875 81.824219 258.8125 C 87.984375 267.371094 96.570312 273.796875 106.199219 277.507812 C 71.28125 329.492188 52.023438 389.234375 50 452.042969 Z M 717.863281 452.066406 C 715.839844 389.390625 696.667969 329.738281 661.90625 277.867188 C 667.132812 275.820312 672.117188 272.886719 676.609375 269.0625 C 677.1875 268.59375 677.742188 268.105469 678.296875 267.59375 C 678.386719 267.527344 678.1875 267.703125 678.320312 267.570312 C 681.257812 264.882812 683.835938 261.945312 686.039062 258.8125 C 725.070312 316.195312 746.441406 382.453125 748.554688 452.089844 L 733.71875 452.089844 L 732.050781 452.042969 L 731.71875 452.089844 Z M 717.863281 452.066406 " fill-opacity="1" fill-rule="evenodd"/><path :class="{ white: color == 'white', accent: color == 'accent' }" fill="#ffffff" d="M 647.074219 452.710938 L 647.074219 624.933594 C 647.074219 636.359375 656.371094 645.652344 667.800781 645.652344 C 679.230469 645.652344 688.527344 636.359375 688.527344 624.933594 L 688.527344 452.710938 C 688.527344 441.261719 679.210938 431.988281 667.800781 431.988281 C 656.371094 431.964844 647.074219 441.28125 647.074219 452.710938 Z M 647.074219 452.710938 " fill-opacity="1" fill-rule="evenodd"/><g clip-path="url(#93b10f8444)"><path 
:class="{ white: color == 'white', accent: color == 'accent' }" fill="#ffffff" d="M 554.710938 450.421875 L 554.710938 637.761719 C 554.710938 643.742188 548.972656 648.078125 543.214844 646.453125 C 495.664062 633.003906 446.425781 636.40625 392.9375 656.90625 L 392.9375 686.609375 C 460.835938 661.0625 515.191406 656.414062 574.949219 671.089844 L 574.949219 450.398438 L 554.710938 450.398438 Z M 554.710938 450.421875 " fill-opacity="1" fill-rule="evenodd"/></g><path :class="{ white: color == 'white', accent: color == 'accent' }" fill="#ffffff" d="M 392.960938 405.488281 L 392.960938 637.648438 C 443.511719 619.394531 490.769531 615.617188 536.652344 626.132812 L 536.652344 405.242188 C 490.550781 377.226562 443.46875 377.316406 392.960938 405.488281 Z M 392.960938 405.488281 " fill-opacity="1" fill-rule="evenodd"/><path :class="{ white: color == 'white', accent: color == 'accent' }" fill="#ffffff" d="M 231.210938 405.242188 L 231.210938 625.886719 C 246.976562 622.019531 263.144531 620.0625 279.9375 620.0625 C 309.226562 620.0625 340.453125 625.976562 374.902344 637.871094 L 374.902344 405.464844 C 324.4375 377.316406 277.3125 377.25 231.210938 405.242188 Z M 231.210938 405.242188 " fill-opacity="1" fill-rule="evenodd"/><g clip-path="url(#4079b8b493)"><path :class="{ white: color == 'white', accent: color == 'accent' }" fill="#ffffff" d="M 374.902344 657.039062 C 316.921875 636.003906 269.085938 632.648438 224.847656 646.386719 C 219.042969 648.1875 213.152344 643.832031 213.152344 637.761719 L 213.152344 450.421875 L 192.890625 450.421875 L 192.890625 670.84375 C 256.898438 654.035156 312.941406 664.597656 374.921875 686.851562 Z M 374.902344 657.039062 " fill-opacity="1" fill-rule="evenodd"/></g><path :class="{ white: color == 'white', accent: color == 'accent' }" fill="#ffffff" d="M 79.332031 538.800781 L 79.332031 624.886719 C 79.332031 636.316406 88.628906 645.609375 100.039062 645.609375 C 111.492188 645.609375 120.789062 636.316406 120.789062 624.886719 L 120.789062 452.667969 C 120.789062 441.214844 111.492188 431.945312 100.039062 431.945312 C 88.609375 431.945312 79.3125 441.238281 79.3125 452.667969 Z M 79.332031 538.800781 " fill-opacity="1" fill-rule="evenodd"/><g clip-path="url(#a86ddba95b)"><path :class="{ white: color == 'white', accent: color == 'accent' }" fill="#ffffff" d="M 733.386719 472.253906 Z M 706.609375 477.902344 L 706.609375 599.675781 C 706.609375 602.765625 709.210938 605.390625 712.304688 605.390625 L 754.46875 605.390625 C 757.5625 605.390625 760.164062 602.789062 760.164062 599.695312 L 760.164062 477.96875 C 760.164062 474.878906 757.5625 472.277344 754.46875 472.277344 L 733.476562 472.277344 C 733.429688 472.277344 733.429688 472.277344 733.386719 472.277344 L 712.304688 472.277344 C 709.234375 472.253906 706.632812 474.832031 706.609375 477.902344 Z M 706.609375 477.902344 " fill-opacity="1" fill-rule="evenodd"/></g><g clip-path="url(#e11e4cac19)"><path
:class="{ white: color == 'white', accent: color == 'accent' }" fill="#ffffff" d="M 7.675781 477.945312 L 7.675781 599.675781 C 7.675781 602.765625 10.277344 605.390625 13.371094 605.390625 L 55.558594 605.390625 C 58.652344 605.390625 61.253906 602.789062 61.253906 599.695312 L 61.253906 477.902344 C 61.207031 474.832031 58.605469 472.253906 55.535156 472.253906 L 13.390625 472.253906 C 10.324219 472.253906 7.675781 474.855469 7.675781 477.945312 Z M 7.675781 477.945312 " fill-opacity="1" fill-rule="evenodd"/></g><g clip-path="url(#c72da526ef)"><path :class="{ white: color == 'white', accent: color == 'accent' }" fill="#ffffff" d="M 101.304688 205.652344 C 176.097656 128.476562 275.601562 80.851562 383.910156 80.851562 C 491.972656 80.851562 594.277344 126.097656 666.933594 206.074219 C 679.164062 219.523438 678.164062 240.425781 664.730469 252.675781 C 664.21875 253.121094 664.488281 252.941406 663.773438 253.496094 C 663.707031 253.542969 663.664062 253.585938 663.640625 253.609375 C 663.621094 253.628906 663.597656 253.652344 663.507812 253.71875 C 650.074219 265.125 629.882812 263.4375 618.09375 250.496094 C 558.003906 184.550781 474.378906 147.308594 385.152344 146.953125 L 383.863281 146.953125 C 339.5625 146.953125 296.4375 155.914062 255.917969 173.835938 C 215.308594 191.800781 179.546875 217.65625 149.679688 250.496094 C 130.019531 272.105469 93.722656 259.011719 92.320312 229.863281 C 91.964844 221.347656 95.191406 211.699219 101.304688 205.652344 Z M 101.304688 205.652344 " fill-opacity="1" fill-rule="evenodd"/></g></svg>