<svg xmlns="http://www.w3.org/2000/svg" xmlns:xlink="http://www.w3.org/1999/xlink" width="1024" zoomAndPan="magnify" viewBox="0 0 768 767.999994" height="1024" preserveAspectRatio="xMidYMid meet" version="1.0"><defs><clipPath id="fdb007870b"><path d="M 44 163.425781 L 722 163.425781 L 722 394 L 44 394 Z M 44 163.425781 " clip-rule="nonzero"/></clipPath><clipPath id="430dd374d4"><path d="M 14 438 L 753 438 L 753 604.425781 L 14 604.425781 Z M 14 438 " clip-rule="nonzero"/></clipPath></defs><g clip-path="url(#fdb007870b)"><path fill="#faf6f0" d="M 222.089844 323.558594 C 222.089844 332.636719 223.070312 339.996094 224.792969 345.390625 C 226.753906 350.789062 229.207031 356.675781 232.644531 363.050781 C 233.871094 365.015625 234.363281 366.976562 234.363281 368.695312 C 234.363281 371.144531 232.890625 373.601562 229.699219 376.054688 L 214.234375 386.355469 C 212.027344 387.828125 209.820312 388.5625 207.851562 388.5625 C 205.398438 388.5625 202.945312 387.335938 200.488281 385.128906 C 197.054688 381.449219 194.109375 377.523438 191.65625 373.601562 C 189.199219 369.429688 186.742188 364.769531 184.046875 359.128906 C 164.898438 381.695312 140.847656 392.980469 111.882812 392.980469 C 91.265625 392.980469 74.820312 387.089844 62.789062 375.320312 C 50.765625 363.542969 44.628906 347.84375 44.628906 328.222656 C 44.628906 307.371094 51.992188 290.445312 66.964844 277.691406 C 81.9375 264.9375 101.820312 258.558594 127.101562 258.558594 C 135.445312 258.558594 144.039062 259.292969 153.117188 260.519531 C 162.203125 261.746094 171.527344 263.707031 181.347656 265.917969 L 181.347656 248.011719 C 181.347656 229.367188 177.417969 216.367188 169.808594 208.761719 C 161.957031 201.160156 148.699219 197.480469 129.800781 197.480469 C 121.207031 197.480469 112.375 198.460938 103.289062 200.667969 C 94.210938 202.875 85.375 205.574219 76.78125 209.007812 C 72.855469 210.726562 69.910156 211.707031 68.191406 212.199219 C 66.472656 212.6875 65.246094 212.933594 64.265625 212.933594 C 60.828125 212.933594 59.109375 210.480469 59.109375 205.328125 L 59.109375 193.308594 C 59.109375 189.382812 59.601562 186.441406 60.828125 184.722656 C 62.054688 183.007812 64.265625 181.289062 67.703125 179.574219 C 76.292969 175.15625 86.601562 171.476562 98.628906 168.535156 C 110.65625 165.347656 123.417969 163.875 136.917969 163.875 C 166.128906 163.875 187.484375 170.496094 201.226562 183.742188 C 214.726562 196.988281 221.601562 217.101562 221.601562 244.089844 L 221.601562 323.558594 Z M 122.4375 360.84375 C 130.539062 360.84375 138.882812 359.375 147.71875 356.429688 C 156.554688 353.484375 164.410156 348.089844 171.035156 340.730469 C 174.964844 336.070312 177.910156 330.917969 179.378906 325.03125 C 180.855469 319.144531 181.835938 312.03125 181.835938 303.691406 L 181.835938 293.390625 C 174.71875 291.671875 167.109375 290.199219 159.253906 289.21875 C 151.402344 288.238281 143.792969 287.746094 136.183594 287.746094 C 119.738281 287.746094 107.710938 290.933594 99.609375 297.558594 C 91.507812 304.183594 87.582031 313.503906 87.582031 325.765625 C 87.582031 337.296875 90.527344 345.882812 96.664062 351.769531 C 102.554688 357.902344 111.148438 360.84375 122.4375 360.84375 Z M 319.550781 387.335938 C 315.121094 387.335938 312.164062 386.601562 310.195312 384.882812 C 308.257812 383.414062 306.519531 379.976562 305.042969 375.320312 L 247.371094 185.707031 C 245.902344 180.800781 245.164062 177.609375 245.164062 175.894531 C 245.164062 171.96875 247.125 169.761719 251.054688 169.761719 L 275.109375 169.761719 C 279.773438 169.761719 282.964844 170.496094 284.679688 172.214844 C 286.644531 173.6875 288.117188 177.121094 289.589844 181.78125 L 330.8125 344.167969 L 369.121094 181.78125 C 370.335938 176.875 371.8125 173.6875 373.785156 172.214844 C 375.753906 170.742188 379.167969 169.761719 383.597656 169.761719 L 403.230469 169.761719 C 407.894531 169.761719 411.078125 170.496094 413.046875 172.214844 C 415.015625 173.6875 416.726562 177.121094 417.710938 181.78125 L 456.511719 346.128906 L 498.957031 181.78125 C 500.4375 176.875 502.144531 173.6875 503.882812 172.214844 C 505.820312 170.746094 509.035156 169.761719 513.4375 169.761719 L 536.28125 169.761719 C 540.191406 169.761719 542.390625 171.726562 542.390625 175.894531 C 542.390625 177.121094 542.160156 178.347656 541.929688 179.820312 C 541.667969 181.292969 541.175781 183.253906 540.191406 185.953125 L 481.035156 375.566406 C 479.558594 380.472656 477.851562 383.660156 475.882812 385.132812 C 473.914062 386.605469 470.726562 387.585938 466.558594 387.585938 L 445.449219 387.585938 C 440.785156 387.585938 437.601562 386.851562 435.632812 385.132812 C 433.664062 383.414062 431.957031 380.226562 430.972656 375.320312 L 392.921875 217.105469 L 355.136719 375.078125 C 353.890625 379.980469 352.414062 383.167969 350.472656 384.886719 C 348.503906 386.605469 345.058594 387.339844 340.65625 387.339844 L 319.550781 387.339844 Z M 634.933594 393.960938 C 622.164062 393.960938 609.425781 392.488281 597.148438 389.542969 C 584.871094 386.601562 575.285156 383.414062 568.914062 379.730469 C 564.976562 377.523438 562.285156 375.074219 561.300781 372.863281 C 560.316406 370.65625 559.824219 368.203125 559.824219 365.996094 L 559.824219 353.484375 C 559.824219 348.335938 561.792969 345.882812 565.46875 345.882812 C 566.945312 345.882812 568.421875 346.128906 569.898438 346.617188 C 571.378906 347.109375 573.578125 348.089844 576.039062 349.070312 C 584.378906 352.75 593.46875 355.695312 603.027344 357.65625 C 612.839844 359.617188 622.425781 360.597656 632.242188 360.597656 C 647.703125 360.597656 659.722656 357.902344 668.089844 352.503906 C 676.429688 347.109375 680.828125 339.261719 680.828125 329.203125 C 680.828125 322.335938 678.628906 316.691406 674.226562 312.03125 C 669.796875 307.371094 661.457031 303.203125 649.414062 299.273438 L 613.824219 288.238281 C 595.902344 282.597656 582.667969 274.257812 574.5625 263.214844 C 566.453125 252.425781 562.285156 240.40625 562.285156 227.648438 C 562.285156 217.347656 564.484375 208.269531 568.914062 200.421875 C 573.347656 192.574219 579.222656 185.707031 586.578125 180.308594 C 593.960938 174.667969 602.300781 170.496094 612.117188 167.554688 C 621.933594 164.609375 632.242188 163.382812 643.042969 163.382812 C 648.429688 163.382812 654.074219 163.628906 659.488281 164.363281 C 665.136719 165.101562 670.289062 166.082031 675.445312 167.0625 C 680.335938 168.289062 685 169.515625 689.429688 170.988281 C 693.859375 172.460938 697.277344 173.929688 699.738281 175.402344 C 703.183594 177.367188 705.644531 179.328125 707.09375 181.535156 C 708.570312 183.496094 709.320312 186.195312 709.320312 189.628906 L 709.320312 201.160156 C 709.320312 206.308594 707.351562 209.007812 703.675781 209.007812 C 701.707031 209.007812 698.519531 208.027344 694.351562 206.0625 C 680.335938 199.683594 664.644531 196.496094 647.210938 196.496094 C 633.226562 196.496094 622.164062 198.703125 614.578125 203.367188 C 606.964844 208.027344 603.027344 215.140625 603.027344 225.195312 C 603.027344 232.066406 605.488281 237.953125 610.410156 242.613281 C 615.300781 247.273438 624.394531 251.933594 637.394531 256.105469 L 672.257812 267.144531 C 689.921875 272.785156 702.691406 280.632812 710.304688 290.691406 C 717.894531 300.75 721.597656 312.277344 721.597656 325.03125 C 721.597656 335.578125 719.371094 345.144531 715.199219 353.484375 C 710.796875 361.824219 704.890625 369.183594 697.277344 375.074219 C 689.691406 381.203125 680.597656 385.621094 670.027344 388.808594 C 658.996094 392.242188 647.472656 393.960938 634.933594 393.960938 Z M 634.933594 393.960938 " fill-opacity="1" fill-rule="nonzero"/></g><g clip-path="url(#430dd374d4)"><path fill="#faf6f0" d="M 681.320312 513.160156 C 600.5625 572.769531 483.265625 604.425781 382.382812 604.425781 C 240.988281 604.425781 113.601562 552.167969 17.398438 465.328125 C 9.773438 458.46875 16.648438 449.152344 25.730469 454.535156 C 129.800781 514.894531 258.171875 551.445312 390.945312 551.445312 C 480.535156 551.445312 578.984375 532.808594 669.53125 494.523438 C 683.050781 488.390625 694.578125 503.351562 681.316406 513.160156 Z M 714.96875 474.90625 C 704.660156 461.652344 646.71875 468.539062 620.457031 471.722656 C 612.609375 472.707031 611.363281 465.820312 618.488281 460.667969 C 664.644531 428.300781 740.476562 437.621094 749.308594 448.414062 C 758.171875 459.453125 746.878906 535.238281 703.675781 571.554688 C 697.042969 577.199219 690.644531 574.246094 693.597656 566.894531 C 703.414062 542.617188 725.277344 487.898438 714.96875 474.90625 Z M 714.96875 474.90625 " fill-opacity="1" fill-rule="nonzero"/></g></svg>