<svg xmlns="http://www.w3.org/2000/svg" xmlns:xlink="http://www.w3.org/1999/xlink" width="1024" zoomAndPan="magnify" viewBox="0 0 768 767.999994" height="1024" preserveAspectRatio="xMidYMid meet" version="1.0"><defs><g/></defs><g fill="#ffffff" fill-opacity="1"><g transform="translate(22.650897, 443.309871)"><g><path d="M 3.902344 0 L 43.398438 0 L 50.226562 -18.773438 L 108.007812 -18.773438 L 115.078125 0 L 154.332031 0 L 80.945312 -180.664062 L 77.289062 -180.664062 Z M 62.902344 -51.445312 L 79.238281 -96.792969 L 95.085938 -51.445312 Z M 62.902344 -51.445312 "/></g></g></g><g fill="#ffffff" fill-opacity="1"><g transform="translate(181.854218, 443.309871)"><g><path d="M 1.460938 0 L 43.886719 0 L 77.53125 -59.734375 L 110.933594 0 L 152.140625 0 L 97.28125 -92.890625 L 144.824219 -174.570312 L 103.621094 -174.570312 L 77.53125 -126.050781 L 51.199219 -174.570312 L 9.019531 -174.570312 L 56.320312 -92.890625 Z M 1.460938 0 "/></g></g></g><g fill="#ffffff" fill-opacity="1"><g transform="translate(335.693864, 443.309871)"><g><path d="M 54.371094 0 L 54.371094 -174.324219 L 19.503906 -174.324219 L 19.503906 0 Z M 54.371094 0 "/></g></g></g><g fill="#ffffff" fill-opacity="1"><g transform="translate(409.809977, 443.309871)"><g><path d="M 103.375 2.4375 C 223.332031 2.4375 223.332031 -177.25 103.375 -177.25 C -16.578125 -177.25 -16.578125 2.4375 103.375 2.4375 Z M 103.375 -33.644531 C 33.644531 -33.644531 33.644531 -141.410156 103.375 -141.410156 C 173.105469 -141.410156 173.105469 -33.644531 103.375 -33.644531 Z M 103.375 -33.644531 "/></g></g></g><g fill="#ffffff" fill-opacity="1"><g transform="translate(616.311066, 443.309871)"><g><path d="M 11.460938 -11.214844 C 35.109375 0.976562 56.808594 2.195312 66.5625 1.460938 C 99.230469 -0.242188 119.222656 -22.429688 119.222656 -51.445312 C 119.222656 -79.238281 95.816406 -94.84375 68.753906 -104.839844 C 58.757812 -108.253906 50.226562 -112.640625 49.25 -122.394531 C 48.519531 -132.144531 54.125 -141.167969 66.5625 -141.898438 C 71.925781 -142.144531 82.894531 -142.386719 102.15625 -134.585938 L 106.546875 -168.230469 C 84.117188 -176.03125 72.167969 -176.03125 63.148438 -175.546875 C 34.132812 -174.082031 13.898438 -151.652344 13.898438 -122.394531 C 13.898438 -93.136719 38.277344 -79.238281 65.585938 -69.242188 C 75.339844 -65.828125 82.894531 -61.441406 83.628906 -51.445312 C 84.601562 -41.9375 75.824219 -34.621094 65.585938 -33.890625 C 57.539062 -33.160156 35.839844 -33.644531 15.847656 -47.789062 Z M 11.460938 -11.214844 "/></g></g></g></svg>