<svg xmlns="http://www.w3.org/2000/svg" xmlns:xlink="http://www.w3.org/1999/xlink" width="1024" zoomAndPan="magnify" viewBox="0 0 768 767.999994" height="1024" preserveAspectRatio="xMidYMid meet" version="1.0"><defs><clipPath id="fb8095d7e4"><path d="M 21.699219 119 L 649 119 L 649 746.117188 L 21.699219 746.117188 Z M 21.699219 119 " clip-rule="nonzero"/></clipPath></defs><path fill="#f5f5f5" d="M 588.667969 25.539062 C 602.257812 11.949219 624.289062 11.949219 637.878906 25.539062 L 742.277344 129.933594 C 755.863281 143.523438 755.863281 165.558594 742.277344 179.148438 L 429.089844 492.335938 C 423.765625 497.660156 416.855469 501.113281 409.402344 502.175781 L 287.609375 519.574219 C 276.765625 521.128906 265.828125 517.480469 258.082031 509.734375 C 250.335938 501.988281 246.691406 491.050781 248.238281 480.207031 L 265.636719 358.414062 C 266.703125 350.957031 270.15625 344.050781 275.480469 338.726562 Z M 332.894531 379.738281 L 323.699219 444.117188 L 388.078125 434.921875 L 668.457031 154.542969 L 613.273438 99.359375 Z M 332.894531 379.738281 " fill-opacity="1" fill-rule="evenodd"/><g clip-path="url(#fb8095d7e4)"><path fill="#f5f5f5" d="M 143.492188 189.339844 C 114.664062 189.339844 91.296875 212.710938 91.296875 241.539062 L 91.296875 624.324219 C 91.296875 653.148438 114.664062 676.519531 143.492188 676.519531 L 526.277344 676.519531 C 555.105469 676.519531 578.476562 653.148438 578.476562 624.324219 L 578.476562 363.332031 L 648.070312 363.332031 L 648.070312 624.324219 C 648.070312 691.589844 593.542969 746.117188 526.277344 746.117188 L 143.492188 746.117188 C 76.226562 746.117188 21.699219 691.589844 21.699219 624.324219 L 21.699219 241.539062 C 21.699219 174.273438 76.226562 119.742188 143.492188 119.742188 L 404.480469 119.742188 L 404.480469 189.339844 Z M 143.492188 189.339844 " fill-opacity="1" fill-rule="evenodd"/></g></svg>