<svg xmlns="http://www.w3.org/2000/svg" xmlns:xlink="http://www.w3.org/1999/xlink" width="1024" zoomAndPan="magnify" viewBox="0 0 768 767.999994" height="1024" preserveAspectRatio="xMidYMid meet" version="1.0"><defs><clipPath id="8728f8a8a6"><path d="M 27.070312 27.070312 L 741 27.070312 L 741 741 L 27.070312 741 Z M 27.070312 27.070312 " clip-rule="nonzero"/></clipPath></defs><g clip-path="url(#8728f8a8a6)"><path fill="#f5f5f5" d="M 76.171875 27.183594 L 692.074219 27.183594 C 693.671875 27.191406 695.269531 27.273438 696.863281 27.4375 C 698.457031 27.601562 700.039062 27.84375 701.605469 28.160156 C 703.175781 28.476562 704.726562 28.871094 706.257812 29.339844 C 707.789062 29.8125 709.292969 30.355469 710.769531 30.972656 C 712.246094 31.585938 713.691406 32.273438 715.101562 33.035156 C 716.511719 33.792969 717.882812 34.617188 719.210938 35.507812 C 720.542969 36.402344 721.824219 37.355469 723.0625 38.375 C 724.296875 39.390625 725.480469 40.464844 726.613281 41.601562 C 727.742188 42.734375 728.816406 43.917969 729.832031 45.15625 C 730.847656 46.394531 731.800781 47.679688 732.6875 49.011719 C 733.578125 50.34375 734.398438 51.714844 735.15625 53.128906 C 735.910156 54.539062 736.59375 55.984375 737.207031 57.464844 C 737.824219 58.945312 738.363281 60.449219 738.828125 61.980469 C 739.296875 63.511719 739.6875 65.0625 740 66.632812 C 740.316406 68.203125 740.550781 69.785156 740.710938 71.378906 C 740.871094 72.972656 740.953125 74.570312 740.957031 76.171875 L 740.957031 162.527344 L 27.183594 162.527344 L 27.183594 76.171875 C 27.1875 74.566406 27.269531 72.96875 27.429688 71.371094 C 27.589844 69.777344 27.828125 68.195312 28.144531 66.621094 C 28.457031 65.050781 28.851562 63.496094 29.316406 61.960938 C 29.785156 60.429688 30.328125 58.921875 30.941406 57.441406 C 31.558594 55.960938 32.242188 54.511719 33 53.101562 C 33.757812 51.6875 34.582031 50.3125 35.472656 48.980469 C 36.363281 47.648438 37.320312 46.363281 38.335938 45.125 C 39.355469 43.882812 40.429688 42.699219 41.5625 41.5625 C 42.699219 40.429688 43.882812 39.355469 45.125 38.335938 C 46.363281 37.320312 47.648438 36.363281 48.980469 35.472656 C 50.3125 34.582031 51.6875 33.757812 53.101562 33 C 54.511719 32.242188 55.960938 31.558594 57.441406 30.941406 C 58.921875 30.328125 60.429688 29.785156 61.960938 29.316406 C 63.496094 28.851562 65.050781 28.457031 66.621094 28.144531 C 68.195312 27.828125 69.777344 27.589844 71.371094 27.429688 C 72.96875 27.269531 74.566406 27.1875 76.171875 27.183594 Z M 740.957031 184.078125 L 740.957031 692.019531 C 740.953125 693.621094 740.867188 695.21875 740.707031 696.8125 C 740.546875 698.40625 740.308594 699.988281 739.992188 701.558594 C 739.675781 703.125 739.28125 704.675781 738.8125 706.207031 C 738.347656 707.738281 737.804688 709.246094 737.1875 710.722656 C 736.574219 712.203125 735.886719 713.644531 735.132812 715.058594 C 734.375 716.46875 733.550781 717.839844 732.660156 719.171875 C 731.769531 720.5 730.816406 721.785156 729.800781 723.023438 C 728.785156 724.261719 727.710938 725.445312 726.578125 726.578125 C 725.445312 727.710938 724.261719 728.785156 723.023438 729.800781 C 721.785156 730.816406 720.5 731.769531 719.171875 732.660156 C 717.839844 733.550781 716.46875 734.375 715.058594 735.132812 C 713.644531 735.886719 712.203125 736.574219 710.722656 737.1875 C 709.246094 737.804688 707.738281 738.347656 706.207031 738.8125 C 704.675781 739.28125 703.125 739.675781 701.558594 739.992188 C 699.988281 740.308594 698.40625 740.546875 696.8125 740.707031 C 695.21875 740.871094 693.621094 740.953125 692.019531 740.957031 L 76.171875 740.957031 C 74.570312 740.953125 72.972656 740.871094 71.378906 740.707031 C 69.785156 740.546875 68.203125 740.308594 66.636719 739.992188 C 65.066406 739.675781 63.515625 739.28125 61.984375 738.8125 C 60.453125 738.347656 58.945312 737.804688 57.46875 737.1875 C 55.992188 736.574219 54.546875 735.886719 53.132812 735.132812 C 51.722656 734.375 50.351562 733.550781 49.019531 732.660156 C 47.691406 731.769531 46.40625 730.816406 45.167969 729.800781 C 43.933594 728.785156 42.746094 727.710938 41.613281 726.578125 C 40.484375 725.445312 39.410156 724.261719 38.390625 723.023438 C 37.375 721.785156 36.421875 720.5 35.53125 719.171875 C 34.640625 717.839844 33.816406 716.46875 33.058594 715.058594 C 32.304688 713.644531 31.617188 712.203125 31.003906 710.722656 C 30.386719 709.246094 29.847656 707.738281 29.378906 706.207031 C 28.910156 704.675781 28.519531 703.125 28.203125 701.558594 C 27.886719 699.988281 27.644531 698.40625 27.484375 696.8125 C 27.324219 695.21875 27.238281 693.621094 27.234375 692.019531 L 27.234375 184.078125 Z M 121.914062 684.339844 L 640.292969 684.339844 C 640.984375 684.316406 641.671875 684.230469 642.347656 684.074219 C 643.027344 683.921875 643.683594 683.703125 644.320312 683.425781 C 644.953125 683.144531 645.554688 682.804688 646.125 682.40625 C 646.695312 682.011719 647.222656 681.5625 647.707031 681.066406 C 648.191406 680.566406 648.621094 680.027344 649 679.445312 C 649.378906 678.863281 649.699219 678.25 649.960938 677.605469 C 650.222656 676.960938 650.417969 676.296875 650.550781 675.617188 C 650.683594 674.933594 650.75 674.246094 650.75 673.550781 C 650.75 672.859375 650.683594 672.167969 650.550781 671.488281 C 650.417969 670.804688 650.222656 670.144531 649.960938 669.5 C 649.699219 668.855469 649.378906 668.242188 649 667.660156 C 648.621094 667.078125 648.191406 666.539062 647.707031 666.039062 C 647.222656 665.542969 646.695312 665.09375 646.125 664.695312 C 645.554688 664.300781 644.953125 663.960938 644.320312 663.679688 C 643.683594 663.398438 643.027344 663.183594 642.347656 663.027344 C 641.671875 662.875 640.984375 662.785156 640.292969 662.765625 L 121.914062 662.765625 C 121.195312 662.742188 120.476562 662.792969 119.765625 662.914062 C 119.050781 663.035156 118.359375 663.226562 117.683594 663.488281 C 117.011719 663.75 116.371094 664.074219 115.761719 664.464844 C 115.152344 664.855469 114.589844 665.300781 114.070312 665.804688 C 113.550781 666.308594 113.089844 666.855469 112.679688 667.453125 C 112.269531 668.050781 111.925781 668.679688 111.644531 669.34375 C 111.363281 670.011719 111.148438 670.699219 111.007812 671.40625 C 110.863281 672.113281 110.789062 672.828125 110.789062 673.550781 C 110.789062 674.273438 110.863281 674.992188 111.007812 675.699219 C 111.148438 676.40625 111.363281 677.09375 111.644531 677.757812 C 111.925781 678.425781 112.269531 679.054688 112.679688 679.652344 C 113.089844 680.246094 113.550781 680.796875 114.070312 681.300781 C 114.589844 681.804688 115.152344 682.25 115.761719 682.640625 C 116.371094 683.03125 117.011719 683.355469 117.683594 683.617188 C 118.359375 683.875 119.050781 684.066406 119.765625 684.191406 C 120.476562 684.3125 121.195312 684.363281 121.914062 684.339844 Z M 121.914062 615.484375 L 640.292969 615.484375 C 640.988281 615.464844 641.671875 615.378906 642.351562 615.222656 C 643.03125 615.070312 643.6875 614.851562 644.324219 614.570312 C 644.957031 614.289062 645.5625 613.949219 646.132812 613.554688 C 646.703125 613.15625 647.230469 612.707031 647.714844 612.207031 C 648.199219 611.710938 648.628906 611.167969 649.011719 610.585938 C 649.390625 610.003906 649.710938 609.390625 649.972656 608.746094 C 650.230469 608.101562 650.429688 607.4375 650.5625 606.753906 C 650.695312 606.074219 650.761719 605.382812 650.761719 604.6875 C 650.761719 603.992188 650.695312 603.304688 650.5625 602.621094 C 650.429688 601.941406 650.230469 601.277344 649.972656 600.632812 C 649.710938 599.988281 649.390625 599.375 649.011719 598.792969 C 648.628906 598.210938 648.199219 597.667969 647.714844 597.167969 C 647.230469 596.671875 646.703125 596.222656 646.132812 595.824219 C 645.5625 595.425781 644.957031 595.089844 644.324219 594.808594 C 643.6875 594.527344 643.03125 594.308594 642.351562 594.15625 C 641.671875 594 640.988281 593.914062 640.292969 593.890625 L 121.914062 593.890625 C 121.222656 593.914062 120.535156 594 119.855469 594.15625 C 119.179688 594.308594 118.519531 594.527344 117.886719 594.808594 C 117.25 595.089844 116.644531 595.425781 116.074219 595.824219 C 115.503906 596.222656 114.976562 596.671875 114.492188 597.167969 C 114.007812 597.667969 113.578125 598.210938 113.199219 598.792969 C 112.816406 599.375 112.496094 599.988281 112.238281 600.632812 C 111.976562 601.277344 111.777344 601.941406 111.644531 602.621094 C 111.511719 603.304688 111.445312 603.992188 111.445312 604.6875 C 111.445312 605.382812 111.511719 606.074219 111.644531 606.753906 C 111.777344 607.4375 111.976562 608.101562 112.238281 608.746094 C 112.496094 609.390625 112.816406 610.003906 113.199219 610.585938 C 113.578125 611.167969 114.007812 611.710938 114.492188 612.207031 C 114.976562 612.707031 115.503906 613.15625 116.074219 613.554688 C 116.644531 613.949219 117.25 614.289062 117.886719 614.570312 C 118.519531 614.851562 119.179688 615.070312 119.855469 615.222656 C 120.535156 615.378906 121.222656 615.464844 121.914062 615.484375 Z M 121.914062 546.613281 L 640.292969 546.613281 C 641 546.613281 641.703125 546.542969 642.398438 546.40625 C 643.09375 546.265625 643.765625 546.0625 644.421875 545.792969 C 645.078125 545.519531 645.699219 545.1875 646.289062 544.792969 C 646.875 544.398438 647.421875 543.953125 647.921875 543.453125 C 648.425781 542.949219 648.871094 542.40625 649.265625 541.816406 C 649.660156 541.226562 649.992188 540.605469 650.261719 539.949219 C 650.535156 539.296875 650.738281 538.621094 650.875 537.925781 C 651.015625 537.230469 651.082031 536.53125 651.082031 535.820312 C 651.082031 535.113281 651.015625 534.410156 650.875 533.714844 C 650.738281 533.019531 650.535156 532.34375 650.261719 531.691406 C 649.992188 531.035156 649.660156 530.414062 649.265625 529.824219 C 648.871094 529.234375 648.425781 528.691406 647.921875 528.191406 C 647.421875 527.6875 646.875 527.242188 646.289062 526.847656 C 645.699219 526.453125 645.078125 526.121094 644.421875 525.851562 C 643.765625 525.578125 643.09375 525.375 642.398438 525.234375 C 641.703125 525.097656 641 525.027344 640.292969 525.027344 L 121.914062 525.027344 C 121.207031 525.027344 120.503906 525.097656 119.808594 525.234375 C 119.117188 525.375 118.441406 525.578125 117.785156 525.851562 C 117.132812 526.121094 116.507812 526.453125 115.921875 526.847656 C 115.332031 527.242188 114.785156 527.6875 114.285156 528.191406 C 113.785156 528.691406 113.335938 529.234375 112.941406 529.824219 C 112.550781 530.414062 112.214844 531.035156 111.945312 531.691406 C 111.675781 532.34375 111.46875 533.019531 111.332031 533.714844 C 111.191406 534.410156 111.125 535.113281 111.125 535.820312 C 111.125 536.53125 111.191406 537.230469 111.332031 537.925781 C 111.46875 538.621094 111.675781 539.296875 111.945312 539.949219 C 112.214844 540.605469 112.550781 541.226562 112.941406 541.816406 C 113.335938 542.40625 113.785156 542.949219 114.285156 543.453125 C 114.785156 543.953125 115.332031 544.398438 115.921875 544.792969 C 116.507812 545.1875 117.132812 545.519531 117.785156 545.792969 C 118.441406 546.0625 119.117188 546.265625 119.808594 546.40625 C 120.503906 546.542969 121.207031 546.613281 121.914062 546.613281 Z M 408.335938 456.667969 L 635.871094 456.667969 C 636.582031 456.667969 637.285156 456.597656 637.976562 456.460938 C 638.671875 456.320312 639.347656 456.117188 640.003906 455.84375 C 640.65625 455.574219 641.277344 455.242188 641.867188 454.847656 C 642.457031 454.453125 643.003906 454.007812 643.503906 453.507812 C 644.003906 453.003906 644.453125 452.460938 644.847656 451.871094 C 645.238281 451.28125 645.570312 450.660156 645.84375 450.003906 C 646.113281 449.351562 646.320312 448.675781 646.457031 447.980469 C 646.59375 447.285156 646.664062 446.582031 646.664062 445.875 C 646.664062 445.167969 646.59375 444.464844 646.457031 443.769531 C 646.320312 443.074219 646.113281 442.398438 645.84375 441.746094 C 645.570312 441.089844 645.238281 440.46875 644.847656 439.878906 C 644.453125 439.289062 644.003906 438.746094 643.503906 438.246094 C 643.003906 437.742188 642.457031 437.296875 641.867188 436.902344 C 641.277344 436.507812 640.65625 436.175781 640.003906 435.90625 C 639.347656 435.632812 638.671875 435.429688 637.976562 435.289062 C 637.285156 435.152344 636.582031 435.082031 635.871094 435.082031 L 408.363281 435.082031 C 407.65625 435.082031 406.953125 435.152344 406.257812 435.289062 C 405.5625 435.429688 404.890625 435.632812 404.234375 435.90625 C 403.582031 436.175781 402.957031 436.507812 402.367188 436.902344 C 401.78125 437.296875 401.234375 437.742188 400.734375 438.246094 C 400.234375 438.746094 399.785156 439.289062 399.390625 439.878906 C 398.996094 440.46875 398.664062 441.089844 398.394531 441.746094 C 398.125 442.398438 397.917969 443.074219 397.78125 443.769531 C 397.640625 444.464844 397.574219 445.167969 397.574219 445.875 C 397.574219 446.582031 397.640625 447.285156 397.78125 447.980469 C 397.917969 448.675781 398.125 449.351562 398.394531 450.003906 C 398.664062 450.660156 398.996094 451.28125 399.390625 451.871094 C 399.785156 452.460938 400.234375 453.003906 400.734375 453.507812 C 401.234375 454.007812 401.78125 454.453125 402.367188 454.847656 C 402.957031 455.242188 403.582031 455.574219 404.234375 455.84375 C 404.890625 456.117188 405.5625 456.320312 406.257812 456.460938 C 406.953125 456.597656 407.65625 456.667969 408.363281 456.667969 Z M 408.335938 383.867188 L 635.871094 383.867188 C 636.597656 383.886719 637.3125 383.839844 638.027344 383.714844 C 638.738281 383.59375 639.433594 383.402344 640.109375 383.140625 C 640.78125 382.878906 641.421875 382.554688 642.03125 382.164062 C 642.640625 381.773438 643.207031 381.328125 643.726562 380.824219 C 644.246094 380.320312 644.707031 379.769531 645.117188 379.171875 C 645.527344 378.578125 645.871094 377.945312 646.152344 377.277344 C 646.433594 376.613281 646.648438 375.925781 646.792969 375.21875 C 646.933594 374.507812 647.007812 373.792969 647.007812 373.070312 C 647.007812 372.34375 646.933594 371.628906 646.792969 370.921875 C 646.648438 370.210938 646.433594 369.523438 646.152344 368.859375 C 645.871094 368.191406 645.527344 367.5625 645.117188 366.964844 C 644.707031 366.367188 644.246094 365.816406 643.726562 365.3125 C 643.207031 364.808594 642.640625 364.363281 642.03125 363.972656 C 641.421875 363.582031 640.78125 363.257812 640.109375 362.996094 C 639.433594 362.734375 638.738281 362.542969 638.027344 362.421875 C 637.3125 362.300781 636.597656 362.25 635.871094 362.273438 L 408.363281 362.273438 C 407.667969 362.292969 406.984375 362.378906 406.304688 362.535156 C 405.628906 362.6875 404.96875 362.90625 404.335938 363.1875 C 403.699219 363.46875 403.09375 363.808594 402.523438 364.203125 C 401.953125 364.601562 401.425781 365.050781 400.941406 365.550781 C 400.457031 366.046875 400.027344 366.589844 399.648438 367.171875 C 399.265625 367.753906 398.945312 368.367188 398.6875 369.011719 C 398.425781 369.65625 398.226562 370.320312 398.09375 371.003906 C 397.960938 371.683594 397.894531 372.375 397.894531 373.070312 C 397.894531 373.765625 397.960938 374.453125 398.09375 375.136719 C 398.226562 375.816406 398.425781 376.480469 398.6875 377.125 C 398.945312 377.769531 399.265625 378.382812 399.648438 378.964844 C 400.027344 379.546875 400.457031 380.089844 400.941406 380.589844 C 401.425781 381.085938 401.953125 381.535156 402.523438 381.933594 C 403.09375 382.332031 403.699219 382.667969 404.335938 382.949219 C 404.96875 383.230469 405.628906 383.449219 406.304688 383.601562 C 406.984375 383.757812 407.667969 383.84375 408.363281 383.867188 Z M 408.335938 311.0625 L 635.871094 311.0625 C 636.597656 311.085938 637.3125 311.035156 638.027344 310.914062 C 638.738281 310.792969 639.433594 310.601562 640.109375 310.339844 C 640.78125 310.078125 641.421875 309.753906 642.03125 309.363281 C 642.640625 308.972656 643.207031 308.527344 643.726562 308.023438 C 644.246094 307.519531 644.707031 306.96875 645.117188 306.371094 C 645.527344 305.773438 645.871094 305.144531 646.152344 304.476562 C 646.433594 303.8125 646.648438 303.125 646.792969 302.414062 C 646.933594 301.707031 647.007812 300.992188 647.007812 300.265625 C 647.007812 299.542969 646.933594 298.828125 646.792969 298.121094 C 646.648438 297.410156 646.433594 296.722656 646.152344 296.058594 C 645.871094 295.390625 645.527344 294.757812 645.117188 294.164062 C 644.707031 293.566406 644.246094 293.015625 643.726562 292.511719 C 643.207031 292.007812 642.640625 291.5625 642.03125 291.171875 C 641.421875 290.78125 640.78125 290.457031 640.109375 290.195312 C 639.433594 289.933594 638.738281 289.742188 638.027344 289.621094 C 637.3125 289.496094 636.597656 289.449219 635.871094 289.46875 L 408.363281 289.46875 C 407.667969 289.492188 406.984375 289.578125 406.304688 289.734375 C 405.628906 289.886719 404.96875 290.105469 404.335938 290.386719 C 403.699219 290.667969 403.09375 291.003906 402.523438 291.402344 C 401.953125 291.800781 401.425781 292.25 400.941406 292.746094 C 400.457031 293.246094 400.027344 293.789062 399.648438 294.371094 C 399.265625 294.953125 398.945312 295.566406 398.6875 296.210938 C 398.425781 296.855469 398.226562 297.519531 398.09375 298.199219 C 397.960938 298.882812 397.894531 299.570312 397.894531 300.265625 C 397.894531 300.960938 397.960938 301.652344 398.09375 302.332031 C 398.226562 303.015625 398.425781 303.679688 398.6875 304.324219 C 398.945312 304.96875 399.265625 305.582031 399.648438 306.164062 C 400.027344 306.746094 400.457031 307.289062 400.941406 307.789062 C 401.425781 308.285156 401.953125 308.734375 402.523438 309.132812 C 403.09375 309.527344 403.699219 309.867188 404.335938 310.148438 C 404.96875 310.429688 405.628906 310.648438 406.304688 310.800781 C 406.984375 310.957031 407.667969 311.042969 408.363281 311.0625 Z M 126.3125 275.261719 C 125.605469 275.261719 124.902344 275.332031 124.207031 275.46875 C 123.511719 275.609375 122.835938 275.8125 122.183594 276.085938 C 121.527344 276.355469 120.90625 276.6875 120.316406 277.082031 C 119.726562 277.476562 119.179688 277.925781 118.679688 278.425781 C 118.179688 278.929688 117.730469 279.472656 117.335938 280.0625 C 116.945312 280.652344 116.613281 281.277344 116.339844 281.929688 C 116.070312 282.585938 115.867188 283.261719 115.726562 283.957031 C 115.589844 284.652344 115.523438 285.355469 115.523438 286.0625 L 115.523438 460.09375 C 115.523438 460.800781 115.589844 461.503906 115.730469 462.199219 C 115.867188 462.894531 116.074219 463.570312 116.34375 464.222656 C 116.613281 464.878906 116.949219 465.5 117.339844 466.089844 C 117.734375 466.679688 118.183594 467.222656 118.683594 467.726562 C 119.183594 468.226562 119.730469 468.671875 120.320312 469.066406 C 120.90625 469.460938 121.53125 469.792969 122.183594 470.0625 C 122.839844 470.335938 123.515625 470.539062 124.207031 470.679688 C 124.902344 470.816406 125.605469 470.886719 126.3125 470.886719 L 300.386719 470.886719 C 301.09375 470.886719 301.796875 470.816406 302.492188 470.679688 C 303.183594 470.539062 303.859375 470.335938 304.515625 470.0625 C 305.167969 469.792969 305.792969 469.460938 306.378906 469.066406 C 306.96875 468.671875 307.515625 468.226562 308.015625 467.726562 C 308.515625 467.222656 308.964844 466.679688 309.359375 466.089844 C 309.75 465.5 310.085938 464.878906 310.355469 464.222656 C 310.625 463.570312 310.832031 462.894531 310.96875 462.199219 C 311.109375 461.503906 311.175781 460.800781 311.175781 460.09375 L 311.175781 286.054688 C 311.175781 285.34375 311.109375 284.644531 310.972656 283.945312 C 310.832031 283.25 310.628906 282.574219 310.359375 281.921875 C 310.085938 281.265625 309.753906 280.644531 309.363281 280.054688 C 308.96875 279.464844 308.519531 278.917969 308.019531 278.417969 C 307.519531 277.914062 306.972656 277.46875 306.382812 277.074219 C 305.792969 276.679688 305.171875 276.347656 304.515625 276.074219 C 303.863281 275.804688 303.1875 275.597656 302.492188 275.460938 C 301.796875 275.320312 301.09375 275.25 300.386719 275.25 Z M 289.5625 296.855469 L 137.148438 296.855469 L 137.148438 449.269531 L 289.5625 449.269531 Z M 417.109375 74.882812 C 416.171875 74.882812 415.238281 74.925781 414.304688 75.019531 C 413.371094 75.113281 412.441406 75.25 411.523438 75.433594 C 410.601562 75.613281 409.695312 75.84375 408.796875 76.113281 C 407.898438 76.386719 407.015625 76.703125 406.148438 77.0625 C 405.285156 77.421875 404.4375 77.820312 403.609375 78.265625 C 402.78125 78.707031 401.976562 79.1875 401.199219 79.707031 C 400.417969 80.230469 399.664062 80.789062 398.941406 81.382812 C 398.214844 81.976562 397.519531 82.605469 396.859375 83.269531 C 396.195312 83.933594 395.566406 84.628906 394.96875 85.351562 C 394.375 86.078125 393.816406 86.832031 393.296875 87.609375 C 392.773438 88.390625 392.292969 89.195312 391.851562 90.023438 C 391.410156 90.847656 391.007812 91.695312 390.648438 92.5625 C 390.289062 93.429688 389.972656 94.3125 389.703125 95.210938 C 389.429688 96.105469 389.203125 97.015625 389.019531 97.9375 C 388.835938 98.855469 388.699219 99.78125 388.605469 100.714844 C 388.515625 101.648438 388.46875 102.585938 388.46875 103.523438 C 388.46875 104.460938 388.515625 105.398438 388.605469 106.332031 C 388.699219 107.265625 388.835938 108.191406 389.019531 109.109375 C 389.203125 110.03125 389.429688 110.941406 389.703125 111.835938 C 389.972656 112.734375 390.289062 113.617188 390.648438 114.484375 C 391.007812 115.351562 391.410156 116.199219 391.851562 117.023438 C 392.292969 117.851562 392.773438 118.65625 393.296875 119.4375 C 393.816406 120.214844 394.375 120.96875 394.96875 121.695312 C 395.566406 122.417969 396.195312 123.113281 396.859375 123.777344 C 397.519531 124.441406 398.214844 125.070312 398.941406 125.664062 C 399.664062 126.257812 400.417969 126.816406 401.199219 127.339844 C 401.976562 127.859375 402.78125 128.339844 403.609375 128.785156 C 404.4375 129.226562 405.285156 129.625 406.148438 129.984375 C 407.015625 130.34375 407.898438 130.660156 408.796875 130.933594 C 409.695312 131.203125 410.601562 131.433594 411.523438 131.613281 C 412.441406 131.796875 413.371094 131.933594 414.304688 132.027344 C 415.238281 132.121094 416.171875 132.164062 417.109375 132.164062 C 418.050781 132.164062 418.984375 132.121094 419.917969 132.027344 C 420.851562 131.933594 421.777344 131.796875 422.699219 131.613281 C 423.617188 131.433594 424.527344 131.203125 425.425781 130.933594 C 426.324219 130.660156 427.203125 130.34375 428.070312 129.984375 C 428.9375 129.625 429.785156 129.226562 430.613281 128.785156 C 431.441406 128.339844 432.242188 127.859375 433.023438 127.339844 C 433.804688 126.816406 434.554688 126.257812 435.28125 125.664062 C 436.007812 125.070312 436.699219 124.441406 437.363281 123.777344 C 438.027344 123.113281 438.65625 122.417969 439.25 121.695312 C 439.847656 120.96875 440.40625 120.214844 440.925781 119.4375 C 441.445312 118.65625 441.929688 117.851562 442.371094 117.023438 C 442.8125 116.199219 443.214844 115.351562 443.574219 114.484375 C 443.929688 113.617188 444.246094 112.734375 444.519531 111.835938 C 444.792969 110.941406 445.019531 110.03125 445.203125 109.109375 C 445.386719 108.191406 445.523438 107.265625 445.613281 106.332031 C 445.707031 105.398438 445.753906 104.460938 445.753906 103.523438 C 445.753906 102.585938 445.707031 101.648438 445.613281 100.714844 C 445.523438 99.78125 445.386719 98.855469 445.203125 97.9375 C 445.019531 97.015625 444.792969 96.105469 444.519531 95.210938 C 444.246094 94.3125 443.929688 93.429688 443.574219 92.5625 C 443.214844 91.695312 442.8125 90.847656 442.371094 90.023438 C 441.929688 89.195312 441.445312 88.390625 440.925781 87.609375 C 440.40625 86.832031 439.847656 86.078125 439.25 85.351562 C 438.65625 84.628906 438.027344 83.933594 437.363281 83.269531 C 436.699219 82.605469 436.007812 81.976562 435.28125 81.382812 C 434.554688 80.789062 433.804688 80.230469 433.023438 79.707031 C 432.242188 79.1875 431.441406 78.707031 430.613281 78.265625 C 429.785156 77.820312 428.9375 77.421875 428.070312 77.0625 C 427.203125 76.703125 426.324219 76.386719 425.425781 76.113281 C 424.527344 75.84375 423.617188 75.613281 422.699219 75.433594 C 421.777344 75.25 420.851562 75.113281 419.917969 75.019531 C 418.984375 74.925781 418.050781 74.882812 417.109375 74.882812 Z M 272.664062 74.882812 C 271.726562 74.882812 270.789062 74.925781 269.855469 75.019531 C 268.921875 75.113281 267.996094 75.25 267.074219 75.433594 C 266.15625 75.613281 265.246094 75.84375 264.347656 76.113281 C 263.453125 76.386719 262.570312 76.703125 261.703125 77.0625 C 260.835938 77.421875 259.988281 77.820312 259.164062 78.265625 C 258.335938 78.707031 257.53125 79.1875 256.75 79.707031 C 255.972656 80.230469 255.21875 80.789062 254.492188 81.382812 C 253.769531 81.976562 253.074219 82.605469 252.410156 83.269531 C 251.746094 83.933594 251.117188 84.628906 250.523438 85.351562 C 249.929688 86.078125 249.371094 86.832031 248.847656 87.609375 C 248.328125 88.390625 247.847656 89.195312 247.402344 90.023438 C 246.960938 90.847656 246.5625 91.695312 246.203125 92.5625 C 245.84375 93.429688 245.527344 94.3125 245.253906 95.210938 C 244.984375 96.105469 244.753906 97.015625 244.574219 97.9375 C 244.390625 98.855469 244.25 99.78125 244.160156 100.714844 C 244.066406 101.648438 244.023438 102.585938 244.023438 103.523438 C 244.023438 104.460938 244.066406 105.398438 244.160156 106.332031 C 244.25 107.265625 244.390625 108.191406 244.574219 109.109375 C 244.753906 110.03125 244.984375 110.941406 245.253906 111.835938 C 245.527344 112.734375 245.84375 113.617188 246.203125 114.484375 C 246.5625 115.351562 246.960938 116.199219 247.402344 117.023438 C 247.847656 117.851562 248.328125 118.65625 248.847656 119.4375 C 249.371094 120.214844 249.929688 120.96875 250.523438 121.695312 C 251.117188 122.417969 251.746094 123.113281 252.410156 123.777344 C 253.074219 124.441406 253.769531 125.070312 254.492188 125.664062 C 255.21875 126.257812 255.972656 126.816406 256.75 127.339844 C 257.53125 127.859375 258.335938 128.339844 259.164062 128.785156 C 259.988281 129.226562 260.835938 129.625 261.703125 129.984375 C 262.570312 130.34375 263.453125 130.660156 264.347656 130.933594 C 265.246094 131.203125 266.15625 131.433594 267.074219 131.613281 C 267.996094 131.796875 268.921875 131.933594 269.855469 132.027344 C 270.789062 132.121094 271.726562 132.164062 272.664062 132.164062 C 273.601562 132.164062 274.539062 132.121094 275.472656 132.027344 C 276.40625 131.933594 277.332031 131.796875 278.25 131.613281 C 279.171875 131.433594 280.082031 131.203125 280.976562 130.933594 C 281.875 130.660156 282.757812 130.34375 283.625 129.984375 C 284.492188 129.625 285.339844 129.226562 286.164062 128.785156 C 286.992188 128.339844 287.796875 127.859375 288.578125 127.339844 C 289.355469 126.816406 290.109375 126.257812 290.835938 125.664062 C 291.558594 125.070312 292.253906 124.441406 292.917969 123.777344 C 293.578125 123.113281 294.210938 122.417969 294.804688 121.695312 C 295.398438 120.96875 295.957031 120.214844 296.480469 119.4375 C 297 118.65625 297.480469 117.851562 297.921875 117.023438 C 298.367188 116.199219 298.765625 115.351562 299.125 114.484375 C 299.484375 113.617188 299.800781 112.734375 300.074219 111.835938 C 300.34375 110.941406 300.574219 110.03125 300.753906 109.109375 C 300.9375 108.191406 301.074219 107.265625 301.167969 106.332031 C 301.257812 105.398438 301.304688 104.460938 301.304688 103.523438 C 301.304688 102.585938 301.257812 101.648438 301.167969 100.714844 C 301.074219 99.78125 300.9375 98.855469 300.753906 97.9375 C 300.574219 97.015625 300.34375 96.105469 300.074219 95.210938 C 299.800781 94.3125 299.484375 93.429688 299.125 92.5625 C 298.765625 91.695312 298.367188 90.847656 297.921875 90.023438 C 297.480469 89.195312 297 88.390625 296.480469 87.609375 C 295.957031 86.832031 295.398438 86.078125 294.804688 85.351562 C 294.210938 84.628906 293.578125 83.933594 292.917969 83.269531 C 292.253906 82.605469 291.558594 81.976562 290.835938 81.382812 C 290.109375 80.789062 289.355469 80.230469 288.578125 79.707031 C 287.796875 79.1875 286.992188 78.707031 286.164062 78.265625 C 285.339844 77.820312 284.492188 77.421875 283.625 77.0625 C 282.757812 76.703125 281.875 76.386719 280.976562 76.113281 C 280.082031 75.84375 279.171875 75.613281 278.25 75.433594 C 277.332031 75.25 276.40625 75.113281 275.472656 75.019531 C 274.539062 74.925781 273.601562 74.882812 272.664062 74.882812 Z M 128.21875 74.882812 C 127.277344 74.882812 126.34375 74.925781 125.410156 75.019531 C 124.476562 75.113281 123.550781 75.25 122.628906 75.433594 C 121.710938 75.613281 120.800781 75.84375 119.902344 76.113281 C 119.003906 76.386719 118.121094 76.703125 117.257812 77.0625 C 116.390625 77.421875 115.542969 77.820312 114.714844 78.265625 C 113.886719 78.707031 113.085938 79.1875 112.304688 79.707031 C 111.523438 80.230469 110.773438 80.789062 110.046875 81.382812 C 109.320312 81.976562 108.628906 82.605469 107.964844 83.269531 C 107.300781 83.933594 106.671875 84.628906 106.078125 85.351562 C 105.480469 86.078125 104.921875 86.832031 104.402344 87.609375 C 103.882812 88.390625 103.398438 89.195312 102.957031 90.023438 C 102.515625 90.847656 102.113281 91.695312 101.753906 92.5625 C 101.394531 93.429688 101.082031 94.3125 100.808594 95.210938 C 100.535156 96.105469 100.308594 97.015625 100.125 97.9375 C 99.941406 98.855469 99.804688 99.78125 99.714844 100.714844 C 99.621094 101.648438 99.574219 102.585938 99.574219 103.523438 C 99.574219 104.460938 99.621094 105.398438 99.714844 106.332031 C 99.804688 107.265625 99.941406 108.191406 100.125 109.109375 C 100.308594 110.03125 100.535156 110.941406 100.808594 111.835938 C 101.082031 112.734375 101.394531 113.617188 101.753906 114.484375 C 102.113281 115.351562 102.515625 116.199219 102.957031 117.023438 C 103.398438 117.851562 103.882812 118.65625 104.402344 119.4375 C 104.921875 120.214844 105.480469 120.96875 106.078125 121.695312 C 106.671875 122.417969 107.300781 123.113281 107.964844 123.777344 C 108.628906 124.441406 109.320312 125.070312 110.046875 125.664062 C 110.773438 126.257812 111.523438 126.816406 112.304688 127.339844 C 113.085938 127.859375 113.886719 128.339844 114.714844 128.785156 C 115.542969 129.226562 116.390625 129.625 117.257812 129.984375 C 118.121094 130.34375 119.003906 130.660156 119.902344 130.933594 C 120.800781 131.203125 121.710938 131.433594 122.628906 131.613281 C 123.550781 131.796875 124.476562 131.933594 125.410156 132.027344 C 126.34375 132.121094 127.277344 132.164062 128.21875 132.164062 C 129.15625 132.164062 130.089844 132.121094 131.023438 132.027344 C 131.957031 131.933594 132.882812 131.796875 133.804688 131.613281 C 134.726562 131.433594 135.632812 131.203125 136.53125 130.933594 C 137.429688 130.660156 138.3125 130.34375 139.175781 129.984375 C 140.042969 129.625 140.890625 129.226562 141.71875 128.785156 C 142.546875 128.339844 143.347656 127.859375 144.128906 127.339844 C 144.910156 126.816406 145.660156 126.257812 146.386719 125.664062 C 147.113281 125.070312 147.804688 124.441406 148.46875 123.777344 C 149.132812 123.113281 149.761719 122.417969 150.355469 121.695312 C 150.953125 120.96875 151.511719 120.214844 152.03125 119.4375 C 152.554688 118.65625 153.035156 117.851562 153.476562 117.023438 C 153.917969 116.199219 154.320312 115.351562 154.679688 114.484375 C 155.039062 113.617188 155.351562 112.734375 155.625 111.835938 C 155.898438 110.941406 156.125 110.03125 156.308594 109.109375 C 156.492188 108.191406 156.628906 107.265625 156.722656 106.332031 C 156.8125 105.398438 156.859375 104.460938 156.859375 103.523438 C 156.859375 102.585938 156.816406 101.648438 156.726562 100.714844 C 156.632812 99.78125 156.496094 98.855469 156.316406 97.933594 C 156.132812 97.011719 155.90625 96.105469 155.636719 95.207031 C 155.367188 94.308594 155.050781 93.425781 154.691406 92.558594 C 154.335938 91.691406 153.9375 90.84375 153.496094 90.015625 C 153.054688 89.1875 152.574219 88.382812 152.050781 87.601562 C 151.53125 86.820312 150.976562 86.066406 150.378906 85.339844 C 149.785156 84.613281 149.15625 83.917969 148.496094 83.253906 C 147.832031 82.589844 147.140625 81.960938 146.414062 81.363281 C 145.691406 80.769531 144.9375 80.210938 144.160156 79.6875 C 143.378906 79.164062 142.574219 78.683594 141.75 78.238281 C 140.921875 77.796875 140.074219 77.394531 139.207031 77.035156 C 138.34375 76.671875 137.460938 76.355469 136.5625 76.082031 C 135.664062 75.808594 134.757812 75.582031 133.835938 75.398438 C 132.917969 75.214844 131.988281 75.074219 131.054688 74.980469 C 130.121094 74.890625 129.1875 74.84375 128.246094 74.839844 Z M 128.21875 74.882812 " fill-opacity="1" fill-rule="evenodd"/></g></svg>