<svg xmlns="http://www.w3.org/2000/svg" xmlns:xlink="http://www.w3.org/1999/xlink" width="1024" zoomAndPan="magnify" viewBox="0 0 768 767.999994" height="1024" preserveAspectRatio="xMidYMid meet" version="1.0"><defs><clipPath id="1dea18d085"><path d="M 22.65625 31.488281 L 745.652344 31.488281 L 745.652344 745.488281 L 22.65625 745.488281 Z M 22.65625 31.488281 " clip-rule="nonzero"/></clipPath><clipPath id="8b9d6f6822"><path d="M 58.667969 31.488281 L 709.632812 31.488281 C 729.523438 31.488281 745.644531 47.609375 745.644531 67.496094 L 745.644531 709.484375 C 745.644531 729.367188 729.523438 745.488281 709.632812 745.488281 L 58.667969 745.488281 C 38.78125 745.488281 22.65625 729.367188 22.65625 709.484375 L 22.65625 67.496094 C 22.65625 47.609375 38.78125 31.488281 58.667969 31.488281 " clip-rule="nonzero"/></clipPath><clipPath id="3f8c41bb8a"><path d="M 99.148438 223.035156 L 363.898438 223.035156 L 363.898438 565.785156 L 99.148438 565.785156 Z M 99.148438 223.035156 " clip-rule="nonzero"/></clipPath><clipPath id="e0f8d11184"><path d="M 364 223.035156 L 674.921875 223.035156 L 674.921875 565.785156 L 364 565.785156 Z M 364 223.035156 " clip-rule="nonzero"/></clipPath></defs><g clip-path="url(#1dea18d085)"><g clip-path="url(#8b9d6f6822)"><path stroke-linecap="butt" transform="matrix(0.750316, 0, 0, 0.75016, 22.655301, 31.489929)" fill="none" stroke-linejoin="miter" d="M 47.996658 -0.00219696 L 915.584051 -0.00219696 C 942.093709 -0.00219696 963.579443 21.48801 963.579443 47.997978 L 963.579443 903.799761 C 963.579443 930.304523 942.093709 951.794729 915.584051 951.794729 L 47.996658 951.794729 C 21.492205 951.794729 0.00126501 930.304523 0.00126501 903.799761 L 0.00126501 47.997978 C 0.00126501 21.48801 21.492205 -0.00219696 47.996658 -0.00219696 " stroke="#f5f5f5" stroke-width="50" stroke-opacity="1" stroke-miterlimit="4"/></g></g><g clip-path="url(#3f8c41bb8a)"><path fill="#f5f5f5" d="M 306.371094 383.351562 C 331.046875 369.925781 348.003906 342.320312 348.003906 312.472656 C 348.003906 257.335938 307.359375 223.089844 241.933594 223.089844 L 106.933594 223.089844 C 102.636719 223.089844 99.148438 226.578125 99.148438 230.875 L 99.148438 557.945312 C 99.148438 562.242188 102.636719 565.730469 106.933594 565.730469 L 245.0625 565.730469 C 318.359375 565.730469 363.898438 527.136719 363.898438 465.007812 C 363.898438 426.183594 341.457031 395.304688 306.371094 383.351562 Z M 169.230469 277.601562 L 223.707031 277.601562 C 258.144531 277.601562 278.242188 294.800781 278.242188 324.324219 C 278.242188 354.546875 256.820312 371.046875 216.417969 371.046875 L 169.230469 371.046875 Z M 228.632812 511.21875 L 169.230469 511.21875 L 169.230469 417.773438 L 226.398438 417.773438 C 270.519531 417.773438 293.816406 433.734375 293.816406 463.972656 C 293.816406 494.84375 271.195312 511.21875 228.632812 511.21875 Z M 228.632812 511.21875 " fill-opacity="1" fill-rule="nonzero"/></g><g clip-path="url(#e0f8d11184)"><path fill="#f5f5f5" d="M 673.488281 226.792969 C 672.035156 224.742188 669.675781 223.523438 667.160156 223.523438 L 609.597656 223.523438 C 606.300781 223.523438 603.367188 225.605469 602.273438 228.71875 L 519.808594 464.316406 L 519.5625 464.316406 L 437.097656 228.71875 C 436.003906 225.605469 433.070312 223.523438 429.773438 223.523438 L 372.210938 223.523438 C 369.695312 223.523438 367.335938 224.742188 365.882812 226.792969 C 364.425781 228.851562 364.054688 231.484375 364.882812 233.863281 L 479.066406 560.097656 C 480.164062 563.214844 483.097656 565.296875 486.394531 565.296875 L 552.976562 565.296875 C 556.273438 565.296875 559.207031 563.214844 560.304688 560.097656 L 674.488281 233.863281 C 675.316406 231.484375 674.945312 228.851562 673.488281 226.792969 Z M 673.488281 226.792969 " fill-opacity="1" fill-rule="nonzero"/></g></svg>