<svg 
v-else-if="icon == 'test'"

xmlns="http://www.w3.org/2000/svg" xmlns:xlink="http://www.w3.org/1999/xlink" width="1024" zoomAndPan="magnify" viewBox="0 0 768 767.999994" height="1024" preserveAspectRatio="xMidYMid meet" version="1.0"><defs><clipPath id="5907f61e7e"><path d="M 12.097656 79 L 756.097656 79 L 756.097656 691.117188 L 12.097656 691.117188 Z M 12.097656 79 " clip-rule="nonzero"/></clipPath></defs><g clip-path="url(#5907f61e7e)"><path :class="{ white: color == 'white', accent: color == 'accent' }" fill="#ffffff" d="M 72.097656 177.722656 L 86.5 177.722656 L 86.5 127.34375 C 86.5 122.0625 90.816406 117.746094 96.09375 117.746094 L 201.699219 117.746094 C 206.980469 117.746094 211.296875 122.0625 211.296875 127.34375 L 211.296875 177.722656 L 247.828125 177.722656 C 260.257812 137.9375 274.492188 95.582031 317.324219 79.433594 C 358.410156 79.433594 399.492188 79.433594 440.578125 79.433594 C 488.007812 76.867188 508.699219 141.421875 520.484375 177.722656 L 696.097656 177.722656 C 729.097656 177.722656 756.097656 204.710938 756.097656 237.699219 L 756.097656 631.140625 C 756.097656 664.128906 729.097656 691.117188 696.097656 691.117188 L 72.097656 691.117188 C 39.09375 691.117188 12.097656 664.128906 12.097656 631.140625 L 12.097656 237.699219 C 12.097656 204.710938 39.09375 177.722656 72.097656 177.722656 Z M 182.496094 134.539062 L 182.496094 177.722656 L 192.097656 177.722656 L 192.097656 134.539062 Z M 172.898438 177.722656 L 172.898438 134.539062 L 163.296875 134.539062 L 163.296875 177.722656 Z M 153.699219 177.722656 L 153.699219 134.539062 L 144.097656 134.539062 L 144.097656 177.722656 Z M 134.5 177.722656 L 134.5 134.539062 L 124.898438 134.539062 L 124.898438 177.722656 Z M 115.296875 177.722656 L 115.296875 134.539062 L 105.699219 134.539062 L 105.699219 177.722656 Z M 321.695312 103.425781 C 401.695312 103.425781 441.695312 103.425781 441.695312 103.425781 C 460.898438 103.425781 478.234375 125.296875 494.496094 175.398438 C 494.496094 175.398438 420.898438 175.398438 273.699219 175.398438 C 286.417969 134.683594 302.414062 110.691406 321.695312 103.425781 Z M 72.097656 201.714844 L 696.097656 201.714844 C 715.902344 201.714844 732.097656 217.90625 732.097656 237.699219 L 732.097656 631.140625 C 732.097656 650.933594 715.902344 667.128906 696.097656 667.128906 L 72.097656 667.128906 C 52.296875 667.128906 36.097656 650.933594 36.097656 631.140625 L 36.097656 237.699219 C 36.097656 217.90625 52.296875 201.714844 72.097656 201.714844 Z M 72.097656 201.714844 " fill-opacity="1" fill-rule="evenodd"/></g><path :class="{ white: color == 'white', accent: color == 'accent' }" fill="#ffffff" d="M 556.898438 228.105469 L 652.898438 228.105469 L 652.898438 276.082031 L 556.898438 276.082031 Z M 566.496094 237.699219 L 643.296875 237.699219 L 643.296875 266.488281 L 566.496094 266.488281 Z M 566.496094 237.699219 " fill-opacity="1" fill-rule="evenodd"/><path 
:class="{ white: color == 'white', accent: color == 'accent' }" fill="#ffffff" d="M 479.386719 304.871094 L 576.097656 304.871094 L 576.097656 314.46875 L 492.207031 314.46875 C 488.09375 311.074219 483.816406 307.871094 479.386719 304.871094 Z M 479.386719 304.871094 " fill-opacity="1" fill-rule="evenodd"/><path :class="{ white: color == 'white', accent: color == 'accent' }" fill="#ffffff" d="M 33.695312 304.871094 L 291.207031 304.871094 C 286.777344 307.871094 282.5 311.074219 278.386719 314.46875 L 33.695312 314.46875 Z M 33.695312 304.871094 " fill-opacity="1" fill-rule="evenodd"/><path :class="{ white: color == 'white', accent: color == 'accent' }" fill="#ffffff" d="M 624.097656 304.871094 L 700.894531 304.871094 L 700.894531 314.46875 L 624.097656 314.46875 Z M 624.097656 304.871094 " fill-opacity="1" fill-rule="evenodd"/><path :class="{ white: color == 'white', accent: color == 'accent' }" fill="#ffffff" d="M 482.246094 581.175781 L 698.496094 581.175781 L 698.496094 595.15625 L 458.601562 595.15625 C 466.886719 591.132812 474.789062 586.453125 482.246094 581.175781 Z M 482.246094 581.175781 " fill-opacity="1" fill-rule="evenodd"/><path :class="{ white: color == 'white', accent: color == 'accent' }" fill="#ffffff" d="M 36.097656 581.175781 L 288.347656 581.175781 C 295.804688 586.453125 303.707031 591.132812 311.992188 595.15625 L 36.097656 595.15625 Z M 36.097656 581.175781 " fill-opacity="1" fill-rule="evenodd"/><path :class="{ white: color == 'white', accent: color == 'accent' }" fill="#ffffff" d="M 385.296875 334.859375 C 445.609375 334.859375 494.496094 383.726562 494.496094 444.015625 C 494.496094 504.300781 445.609375 553.171875 385.296875 553.171875 C 324.984375 553.171875 276.097656 504.300781 276.097656 444.015625 C 276.097656 383.726562 324.984375 334.859375 385.296875 334.859375 Z M 385.296875 349.253906 C 437.65625 349.253906 480.097656 391.675781 480.097656 444.015625 C 480.097656 496.351562 437.65625 538.777344 385.296875 538.777344 C 332.9375 538.777344 290.496094 496.351562 290.496094 444.015625 C 290.496094 391.675781 332.9375 349.253906 385.296875 349.253906 Z M 385.296875 349.253906 " fill-opacity="1" fill-rule="evenodd"/><path :class="{ white: color == 'white', accent: color == 'accent' }" fill="#ffffff" d="M 385.296875 276.082031 C 478.085938 276.082031 553.296875 351.265625 553.296875 444.015625 C 553.296875 536.765625 478.085938 611.945312 385.296875 611.945312 C 292.511719 611.945312 217.296875 536.765625 217.296875 444.015625 C 217.296875 351.265625 292.511719 276.082031 385.296875 276.082031 Z M 385.296875 298.226562 C 465.847656 298.226562 531.144531 363.496094 531.144531 444.015625 C 531.144531 524.535156 465.847656 589.804688 385.296875 589.804688 C 304.746094 589.804688 239.449219 524.535156 239.449219 444.015625 C 239.449219 363.496094 304.746094 298.226562 385.296875 298.226562 Z M 385.296875 298.226562 " fill-opacity="1" fill-rule="evenodd"/><path :class="{ white: color == 'white', accent: color == 'accent' }" fill="#ffffff" d="M 424.898438 389.167969 C 439.957031 389.167969 452.164062 401.371094 452.164062 416.425781 C 452.164062 431.480469 439.957031 443.683594 424.898438 443.683594 C 409.839844 443.683594 397.628906 431.480469 397.628906 416.425781 C 397.628906 401.371094 409.839844 389.167969 424.898438 389.167969 Z M 424.898438 392.765625 C 437.972656 392.765625 448.570312 403.359375 448.570312 416.425781 C 448.570312 429.492188 437.972656 440.085938 424.898438 440.085938 C 411.824219 440.085938 401.226562 429.492188 401.226562 416.425781 C 401.226562 403.359375 411.824219 392.765625 424.898438 392.765625 Z M 424.898438 392.765625 " fill-opacity="1" fill-rule="evenodd"/></svg>