<svg v-else-if="icon == 'code'" xmlns="http://www.w3.org/2000/svg" xmlns:xlink="http://www.w3.org/1999/xlink" :width="size" zoomAndPan="magnify" viewBox="0 0 768 767.999994" :height="size" preserveAspectRatio="xMidYMid meet" version="1.0"><defs><clipPath id="93d69d7bb4"><path d="M 21.0625 47 L 747.0625 47 L 747.0625 722.058594 L 21.0625 722.058594 Z M 21.0625 47 " clip-rule="nonzero"/></clipPath></defs><g clip-path="url(#93d69d7bb4)"><path :class="{ white: color == 'white', accent: color == 'accent' }" fill="#f5f5f5" d="M 674.460938 47.453125 L 93.660156 47.453125 C 53.625 47.453125 21.0625 79.996094 21.0625 120.003906 L 21.0625 650.035156 C 21.0625 690.039062 53.625 722.582031 93.660156 722.582031 L 674.460938 722.582031 C 714.496094 722.582031 747.0625 690.039062 747.0625 650.035156 L 747.0625 120.003906 C 747.0625 79.996094 714.496094 47.453125 674.460938 47.453125 Z M 93.660156 95.820312 L 674.460938 95.820312 C 687.8125 95.820312 698.660156 106.671875 698.660156 120.003906 L 698.660156 179.949219 L 69.460938 179.949219 L 69.460938 120.003906 C 69.460938 106.671875 80.308594 95.820312 93.660156 95.820312 Z M 674.460938 674.214844 L 93.660156 674.214844 C 80.308594 674.214844 69.460938 663.363281 69.460938 650.035156 L 69.460938 228.316406 L 698.660156 228.316406 L 698.660156 650.035156 C 698.660156 663.363281 687.8125 674.214844 674.460938 674.214844 Z M 674.460938 674.214844 " fill-opacity="1" fill-rule="nonzero"/></g><path fill="#f5f5f5" d="M 493.824219 153.886719 C 502.6875 153.886719 509.867188 146.710938 509.867188 137.855469 C 509.867188 129.003906 502.6875 121.824219 493.824219 121.824219 C 484.964844 121.824219 477.78125 129.003906 477.78125 137.855469 C 477.78125 146.710938 484.964844 153.886719 493.824219 153.886719 Z M 493.824219 153.886719 " fill-opacity="1" fill-rule="nonzero"/><path fill="#f5f5f5" d="M 569.019531 153.886719 C 577.878906 153.886719 585.0625 146.710938 585.0625 137.855469 C 585.0625 129.003906 577.878906 121.824219 569.019531 121.824219 C 560.15625 121.824219 552.976562 129.003906 552.976562 137.855469 C 552.976562 146.710938 560.15625 153.886719 569.019531 153.886719 Z M 569.019531 153.886719 " fill-opacity="1" fill-rule="nonzero"/><path fill="#f5f5f5" d="M 644.210938 153.886719 C 653.070312 153.886719 660.253906 146.710938 660.253906 137.855469 C 660.253906 129.003906 653.070312 121.824219 644.210938 121.824219 C 635.351562 121.824219 628.167969 129.003906 628.167969 137.855469 C 628.167969 146.710938 635.351562 153.886719 644.210938 153.886719 Z M 644.210938 153.886719 " fill-opacity="1" fill-rule="nonzero"/><path fill="#f5f5f5" d="M 300.707031 352.308594 C 292.460938 341.824219 277.265625 340.054688 266.722656 348.296875 L 160.140625 432.285156 C 154.324219 436.867188 150.921875 443.867188 150.921875 451.273438 C 150.921875 458.675781 154.324219 465.675781 160.140625 470.257812 L 266.722656 554.25 C 271.167969 557.742188 276.4375 559.445312 281.683594 559.445312 C 288.84375 559.445312 295.933594 556.292969 300.707031 550.234375 C 308.980469 539.75 307.183594 524.539062 296.691406 516.273438 L 214.210938 451.273438 L 296.691406 386.269531 C 307.183594 378.003906 308.980469 362.796875 300.707031 352.308594 Z M 300.707031 352.308594 " fill-opacity="1" fill-rule="nonzero"/><path fill="#f5f5f5" d="M 501.398438 348.296875 C 490.929688 340.054688 475.683594 341.824219 467.414062 352.3125 C 459.140625 362.796875 460.9375 378.003906 471.429688 386.269531 L 553.910156 451.273438 L 471.429688 516.273438 C 460.9375 524.539062 459.140625 539.75 467.414062 550.234375 C 472.1875 556.292969 479.277344 559.445312 486.4375 559.445312 C 491.683594 559.445312 496.953125 557.746094 501.398438 554.25 L 607.980469 470.261719 C 613.796875 465.679688 617.199219 458.675781 617.199219 451.273438 C 617.199219 443.867188 613.796875 436.867188 607.980469 432.285156 Z M 501.398438 348.296875 " fill-opacity="1" fill-rule="nonzero"/><path fill="#f5f5f5" d="M 409.84375 335.792969 C 396.917969 332.957031 383.871094 341.09375 380.964844 354.128906 L 339.9375 537.871094 C 337.007812 550.90625 345.230469 563.835938 358.277344 566.742188 C 360.050781 567.132812 361.820312 567.320312 363.570312 567.320312 C 374.65625 567.320312 384.652344 559.667969 387.15625 548.402344 L 428.183594 364.660156 C 431.113281 351.625 422.890625 338.695312 409.84375 335.792969 Z M 409.84375 335.792969 " fill-opacity="1" fill-rule="nonzero"/></svg>