<svg v-else-if="icon == 'cooking'" xmlns="http://www.w3.org/2000/svg" xmlns:xlink="http://www.w3.org/1999/xlink" width="1024" zoomAndPan="magnify" viewBox="0 0 768 767.999994" height="1024" preserveAspectRatio="xMidYMid meet" version="1.0"><defs><clipPath id="022366a732"><path :class="{ white: color == 'white', accent: color == 'accent' }" d="M 505 7 L 751.371094 7 L 751.371094 255 L 505 255 Z M 505 7 " clip-rule="nonzero"/></clipPath><clipPath id="7d0dda5a96"><path d="M 381 284 L 751.371094 284 L 751.371094 760 L 381 760 Z M 381 284 " clip-rule="nonzero"/></clipPath><clipPath id="8380d1a51d"><path :class="{ white: color == 'white', accent: color == 'accent' }" d="M 16.371094 474 L 401 474 L 401 632 L 16.371094 632 Z M 16.371094 474 " clip-rule="nonzero"/></clipPath></defs><g clip-path="url(#022366a732)"><path :class="{ white: color == 'white', accent: color == 'accent' }" fill="#f5f5f5" d="M 628.375 7.519531 C 594.277344 7.519531 565.148438 19.292969 540.96875 43.480469 C 516.792969 67.667969 505.007812 96.8125 505.007812 130.925781 C 505.007812 132.773438 505.007812 134.644531 505.007812 136.511719 C 506.261719 168.128906 518.039062 194.792969 540.96875 217.734375 C 547.175781 223.941406 553.363281 229.515625 560.191406 233.859375 C 571.96875 241.914062 584.375 247.488281 597.378906 250.589844 C 607.300781 253.070312 617.835938 254.320312 628.375 254.320312 C 650.066406 254.320312 669.289062 249.351562 686.644531 240.042969 C 689.738281 238.1875 692.851562 235.707031 695.953125 233.851562 C 702.773438 229.5 708.960938 223.933594 715.15625 217.726562 C 738.09375 194.777344 750.503906 168.121094 751.734375 136.503906 C 751.734375 134.628906 751.734375 132.765625 751.734375 130.917969 C 751.734375 96.804688 739.335938 67.660156 715.15625 43.472656 C 690.980469 19.292969 662.46875 7.519531 628.375 7.519531 Z M 628.375 7.519531 " fill-opacity="1" fill-rule="nonzero"/></g><g clip-path="url(#7d0dda5a96)"><path :class="{ white: color == 'white', accent: color == 'accent' }" fill="#f5f5f5" d="M 522.375 417.421875 L 454.796875 350.441406 L 381.023438 419.894531 L 553.988281 591.050781 C 555.210938 588.585938 556.457031 586.082031 557.703125 583.613281 L 654.410156 369.054688 L 674.238281 374.621094 L 565.757812 615.230469 L 565.757812 759.105469 L 751.726562 759.105469 L 751.726562 284.726562 L 581.875 284.726562 Z M 522.375 417.421875 " fill-opacity="1" fill-rule="nonzero"/></g><path fill="#f5f5f5" d="M 421.945312 759.75 L 421.945312 687.191406 L 20.875 687.191406 L 20.875 759.75 Z M 421.945312 759.75 " fill-opacity="1" fill-rule="nonzero"/><path fill="#f5f5f5" d="M 317.1875 667.339844 L 317.1875 636.335938 L 125.011719 636.335938 L 125.011719 667.339844 Z M 317.1875 667.339844 " fill-opacity="1" fill-rule="nonzero"/><path :class="{ white: color == 'white', accent: color == 'accent' }" fill="#f5f5f5" d="M 454.796875 368.429688 L 454.796875 348.59375 L 93.398438 348.59375 C 92.785156 351.082031 92.167969 353.546875 92.167969 356.648438 C 92.167969 360.992188 92.785156 364.726562 94.03125 368.429688 C 97.125 377.734375 103.320312 385.804688 113.859375 392.609375 C 128.117188 402.542969 146.097656 407.503906 166.558594 407.503906 C 187.015625 407.503906 204.992188 402.542969 219.253906 392.609375 C 229.792969 385.804688 235.980469 377.734375 239.082031 368.429688 Z M 454.796875 368.429688 " fill-opacity="1" fill-rule="nonzero"/><g clip-path="url(#8380d1a51d)"><path  :class="{ white: color == 'white', accent: color == 'accent' }" fill="#f5f5f5" d="M 400.867188 480.679688 C 400.867188 478.816406 400.867188 476.335938 400.867188 474.472656 L 16.53125 474.472656 C 16.53125 476.335938 16.53125 478.816406 16.53125 480.679688 C 16.53125 522.238281 35.128906 558.191406 72.941406 587.355469 C 84.726562 596.65625 97.117188 604.101562 110.132812 610.910156 C 115.714844 613.375 121.910156 615.875 128.109375 618.347656 C 133.6875 620.210938 138.652344 622.082031 144.226562 623.921875 C 136.167969 612.140625 131.824219 599.128906 131.824219 584.851562 C 131.824219 562.535156 141.738281 543.316406 162.191406 527.175781 C 162.191406 527.175781 162.191406 527.175781 162.816406 526.574219 C 165.292969 524.710938 167.773438 522.847656 170.875 521.007812 C 169.011719 522.847656 167.773438 525.34375 167.148438 527.175781 C 161.578125 537.75 159.089844 548.898438 159.089844 561.304688 C 159.089844 581.15625 165.910156 597.886719 179.550781 612.148438 C 189.464844 622.699219 201.25 628.890625 214.265625 632 C 214.890625 632 216.128906 632 217.367188 632 C 211.789062 627.660156 207.445312 623.332031 204.351562 618.355469 C 196.285156 607.816406 192.566406 596.664062 192.566406 584.257812 C 192.566406 563.175781 203.105469 545.195312 224.796875 530.285156 C 226.667969 529.054688 227.898438 527.816406 229.769531 527.183594 C 242.785156 519.144531 257.664062 514.175781 273.773438 511.074219 C 268.816406 514.175781 264.484375 517.28125 260.136719 521.015625 C 258.289062 522.855469 256.425781 525.351562 254.570312 527.183594 C 242.785156 540.226562 237.203125 555.738281 237.203125 572.484375 C 237.203125 589.839844 243.402344 605.351562 255.179688 618.363281 C 257.03125 620.226562 258.28125 621.460938 260.136719 623.339844 C 261.390625 623.9375 262.621094 625.195312 263.238281 626.425781 C 267.585938 625.195312 272.542969 623.9375 277.507812 622.699219 C 279.363281 622.089844 280.609375 621.460938 282.464844 620.859375 C 286.183594 618.363281 289.902344 615.253906 293.003906 611.550781 C 295.488281 609.0625 297.960938 606.582031 299.824219 603.488281 C 307.257812 592.3125 310.976562 579.300781 310.976562 565.023438 C 310.976562 558.839844 310.359375 553.25 309.128906 547.667969 C 317.1875 558.207031 321.53125 569.980469 321.53125 584.257812 C 321.53125 591.699219 320.285156 598.503906 317.796875 605.34375 C 327.101562 599.738281 335.769531 594.167969 344.453125 587.355469 C 363.675781 572.476562 377.921875 556.328125 387.226562 538.980469 C 387.851562 537.757812 387.851562 536.492188 388.46875 535.894531 C 389.707031 532.789062 390.945312 530.285156 392.195312 527.183594 C 397.773438 512.921875 400.867188 497.414062 400.867188 480.679688 Z M 400.867188 480.679688 " fill-opacity="1" fill-rule="nonzero"/></g><path :class="{ white: color == 'white', accent: color == 'accent' }" fill="#f5f5f5" d="M 196.300781 469.523438 C 192.582031 470.128906 188.871094 471.363281 185.144531 471.996094 L 184.523438 472.625 C 183.90625 472.625 183.90625 472.625 183.285156 472.625 L 183.90625 472.625 C 210.5625 469.523438 233.496094 459.589844 253.339844 444.082031 C 278.746094 424.867188 291.773438 401.304688 291.773438 373.390625 C 291.773438 345.484375 278.753906 321.921875 253.339844 302.699219 C 227.914062 282.855469 197.546875 272.929688 161.59375 272.929688 C 126.261719 272.929688 95.261719 282.847656 69.222656 302.699219 C 68.605469 303.316406 68.605469 303.316406 67.984375 303.933594 C 89.675781 290.910156 117.570312 284.71875 151.671875 285.320312 C 185.761719 285.953125 214.273438 294.628906 237.21875 311.988281 C 260.144531 328.734375 271.9375 350.433594 271.320312 375.871094 C 270.6875 401.289062 260.152344 422.988281 238.460938 441.59375 C 221.726562 455.886719 208.085938 465.1875 196.300781 469.523438 Z M 196.300781 469.523438 " fill-opacity="1" fill-rule="nonzero"/><path :class="{ white: color == 'white', accent: color == 'accent' }" fill="#f5f5f5" d="M 75.425781 442.839844 C 92.160156 444.710938 100.21875 437.90625 100.21875 423.003906 C 99.605469 408.121094 92.167969 389.523438 76.671875 367.183594 C 77.914062 380.835938 74.195312 396.34375 64.886719 413.71875 C 55.582031 431.066406 59.308594 440.984375 75.425781 442.839844 Z M 75.425781 442.839844 " fill-opacity="1" fill-rule="nonzero"/></svg>