<svg v-else-if="icon == 'css3'" xmlns="http://www.w3.org/2000/svg" xmlns:xlink="http://www.w3.org/1999/xlink" :width="size" zoomAndPan="magnify" viewBox="0 0 768 767.999994" :height="size" preserveAspectRatio="xMidYMid meet" version="1.0"><defs><clipPath id="175d5297c3"><path :class="{ white: color == 'white', accent: color == 'accent' }"  d="M 23 12 L 746.070312 12 L 746.070312 756 L 23 756 Z M 23 12 " clip-rule="nonzero"/></clipPath></defs><g clip-path="url(#175d5297c3)"><path :class="{ white: color == 'white', accent: color == 'accent' }" fill="#ffffff" d="M 384.824219 755.785156 C 380.488281 755.804688 376.257812 755.136719 372.140625 753.773438 L 131.308594 673.421875 C 129.542969 672.835938 127.824219 672.125 126.15625 671.296875 C 124.488281 670.46875 122.882812 669.527344 121.347656 668.476562 C 119.808594 667.421875 118.351562 666.269531 116.972656 665.011719 C 115.597656 663.757812 114.3125 662.414062 113.121094 660.980469 C 111.929688 659.546875 110.847656 658.035156 109.867188 656.449219 C 108.886719 654.863281 108.019531 653.21875 107.269531 651.511719 C 106.515625 649.804688 105.886719 648.054688 105.378906 646.261719 C 104.871094 644.46875 104.492188 642.648438 104.234375 640.800781 L 23.957031 58.253906 C 23.761719 56.835938 23.640625 55.410156 23.59375 53.980469 C 23.550781 52.546875 23.582031 51.117188 23.6875 49.691406 C 23.796875 48.261719 23.980469 46.84375 24.238281 45.4375 C 24.496094 44.027344 24.832031 42.636719 25.238281 41.265625 C 25.644531 39.890625 26.125 38.542969 26.675781 37.222656 C 27.226562 35.902344 27.847656 34.613281 28.539062 33.359375 C 29.226562 32.105469 29.980469 30.890625 30.800781 29.714844 C 31.617188 28.539062 32.496094 27.414062 33.4375 26.332031 C 34.375 25.253906 35.371094 24.226562 36.417969 23.253906 C 37.46875 22.277344 38.566406 21.363281 39.714844 20.507812 C 40.859375 19.652344 42.050781 18.859375 43.28125 18.128906 C 44.511719 17.398438 45.777344 16.738281 47.082031 16.144531 C 48.382812 15.550781 49.710938 15.03125 51.070312 14.578125 C 52.429688 14.128906 53.808594 13.75 55.203125 13.445312 C 56.601562 13.144531 58.011719 12.914062 59.4375 12.761719 C 60.859375 12.609375 62.285156 12.535156 63.714844 12.535156 L 705.933594 12.535156 C 707.359375 12.535156 708.785156 12.609375 710.207031 12.761719 C 711.628906 12.914062 713.039062 13.144531 714.433594 13.445312 C 715.832031 13.75 717.207031 14.128906 718.5625 14.578125 C 719.921875 15.027344 721.25 15.550781 722.550781 16.140625 C 723.851562 16.734375 725.117188 17.394531 726.347656 18.121094 C 727.578125 18.851562 728.765625 19.640625 729.914062 20.496094 C 731.058594 21.351562 732.15625 22.265625 733.203125 23.238281 C 734.253906 24.210938 735.246094 25.234375 736.1875 26.3125 C 737.125 27.390625 738.003906 28.515625 738.824219 29.691406 C 739.640625 30.863281 740.394531 32.074219 741.085938 33.328125 C 741.773438 34.582031 742.394531 35.867188 742.949219 37.1875 C 743.5 38.507812 743.980469 39.851562 744.390625 41.222656 C 744.796875 42.59375 745.132812 43.980469 745.394531 45.390625 C 745.652344 46.796875 745.839844 48.210938 745.949219 49.636719 C 746.058594 51.066406 746.089844 52.492188 746.046875 53.921875 C 746.003906 55.351562 745.882812 56.777344 745.6875 58.195312 L 665.414062 640.742188 C 665.160156 642.589844 664.78125 644.414062 664.273438 646.210938 C 663.769531 648.007812 663.140625 649.761719 662.390625 651.46875 C 661.640625 653.179688 660.777344 654.828125 659.796875 656.414062 C 658.816406 658.003906 657.730469 659.515625 656.542969 660.953125 C 655.351562 662.390625 654.066406 663.738281 652.6875 664.996094 C 651.308594 666.253906 649.851562 667.410156 648.3125 668.464844 C 646.773438 669.519531 645.167969 670.460938 643.5 671.292969 C 641.828125 672.121094 640.109375 672.832031 638.339844 673.421875 L 397.507812 753.773438 C 393.390625 755.136719 389.160156 755.804688 384.824219 755.785156 Z M 180.359375 605.125 L 384.824219 673.261719 L 589.289062 604.964844 L 659.875 92.886719 L 109.875 92.886719 Z M 180.359375 605.125 " fill-opacity="1" fill-rule="nonzero"/></g><path :class="{ white: color == 'white', accent: color == 'accent' }" fill="#ffffff" d="M 384.824219 585.039062 C 380.894531 585.035156 377.046875 584.472656 373.285156 583.351562 L 272.9375 553.21875 C 271.203125 552.695312 269.511719 552.058594 267.863281 551.308594 C 266.210938 550.558594 264.621094 549.699219 263.089844 548.734375 C 261.554688 547.769531 260.09375 546.703125 258.707031 545.539062 C 257.316406 544.375 256.011719 543.121094 254.792969 541.78125 C 253.574219 540.4375 252.449219 539.019531 251.421875 537.527344 C 250.394531 536.035156 249.472656 534.480469 248.65625 532.859375 C 247.839844 531.242188 247.132812 529.574219 246.542969 527.863281 C 245.949219 526.148438 245.476562 524.402344 245.121094 522.625 L 241.109375 502.535156 C 240.859375 501.285156 240.667969 500.023438 240.539062 498.753906 C 240.410156 497.484375 240.339844 496.210938 240.332031 494.9375 C 240.324219 493.660156 240.378906 492.386719 240.492188 491.117188 C 240.601562 489.84375 240.777344 488.582031 241.007812 487.328125 C 241.242188 486.074219 241.535156 484.832031 241.886719 483.605469 C 242.238281 482.378906 242.648438 481.171875 243.113281 479.984375 C 243.578125 478.796875 244.101562 477.632812 244.675781 476.496094 C 245.253906 475.355469 245.882812 474.25 246.566406 473.171875 C 247.25 472.09375 247.980469 471.050781 248.761719 470.042969 C 249.546875 469.035156 250.371094 468.066406 251.246094 467.136719 C 252.121094 466.207031 253.035156 465.320312 253.996094 464.480469 C 254.953125 463.636719 255.949219 462.84375 256.984375 462.097656 C 258.015625 461.351562 259.085938 460.652344 260.183594 460.007812 C 261.285156 459.363281 262.414062 458.773438 263.570312 458.234375 C 264.726562 457.699219 265.90625 457.21875 267.109375 456.792969 C 268.308594 456.367188 269.53125 456 270.765625 455.691406 C 272.003906 455.382812 273.253906 455.132812 274.511719 454.945312 C 275.773438 454.753906 277.042969 454.625 278.316406 454.558594 C 279.585938 454.488281 280.859375 454.480469 282.136719 454.535156 C 283.410156 454.585938 284.675781 454.699219 285.941406 454.875 C 287.203125 455.046875 288.457031 455.28125 289.695312 455.574219 C 290.9375 455.867188 292.160156 456.222656 293.367188 456.628906 C 294.574219 457.039062 295.761719 457.507812 296.925781 458.03125 C 298.085938 458.554688 299.222656 459.132812 300.332031 459.761719 C 301.4375 460.394531 302.515625 461.078125 303.558594 461.808594 C 304.601562 462.542969 305.605469 463.328125 306.574219 464.15625 C 307.542969 464.984375 308.46875 465.859375 309.355469 466.777344 C 310.238281 467.695312 311.078125 468.65625 311.875 469.652344 C 312.667969 470.652344 313.414062 471.6875 314.109375 472.753906 C 314.804688 473.824219 315.449219 474.925781 316.039062 476.054688 C 316.628906 477.1875 317.164062 478.34375 317.644531 479.523438 C 318.125 480.707031 318.550781 481.910156 318.917969 483.132812 L 384.824219 502.917969 L 449.046875 483.632812 L 458.960938 414.289062 L 344.683594 414.289062 C 342.65625 414.296875 340.636719 414.148438 338.632812 413.851562 C 336.625 413.550781 334.652344 413.101562 332.714844 412.5 C 330.773438 411.902344 328.890625 411.160156 327.066406 410.273438 C 325.238281 409.386719 323.492188 408.371094 321.820312 407.21875 C 320.148438 406.066406 318.570312 404.796875 317.089844 403.40625 C 315.613281 402.015625 314.246094 400.523438 312.992188 398.925781 C 311.738281 397.328125 310.613281 395.644531 309.617188 393.878906 C 308.617188 392.109375 307.757812 390.277344 307.039062 388.375 C 306.316406 386.476562 305.746094 384.535156 305.320312 382.550781 C 304.890625 380.566406 304.617188 378.558594 304.496094 376.53125 C 304.375 374.503906 304.40625 372.476562 304.589844 370.457031 C 304.777344 368.433594 305.113281 366.4375 305.597656 364.464844 C 306.085938 362.492188 306.71875 360.570312 307.5 358.695312 C 308.277344 356.820312 309.191406 355.011719 310.246094 353.277344 C 311.296875 351.539062 312.476562 349.894531 313.777344 348.335938 C 315.078125 346.777344 316.492188 345.328125 318.011719 343.984375 L 419.746094 253.589844 L 244.339844 253.589844 C 243.023438 253.589844 241.714844 253.523438 240.40625 253.394531 C 239.097656 253.265625 237.796875 253.074219 236.507812 252.816406 C 235.21875 252.558594 233.945312 252.238281 232.6875 251.859375 C 231.429688 251.476562 230.195312 251.035156 228.980469 250.53125 C 227.765625 250.027344 226.578125 249.464844 225.417969 248.84375 C 224.257812 248.222656 223.132812 247.546875 222.039062 246.816406 C 220.945312 246.085938 219.890625 245.304688 218.875 244.46875 C 217.859375 243.632812 216.886719 242.75 215.957031 241.820312 C 215.027344 240.890625 214.144531 239.917969 213.3125 238.898438 C 212.476562 237.882812 211.695312 236.828125 210.964844 235.734375 C 210.234375 234.636719 209.558594 233.511719 208.941406 232.351562 C 208.320312 231.191406 207.757812 230.003906 207.257812 228.785156 C 206.753906 227.570312 206.3125 226.332031 205.929688 225.074219 C 205.546875 223.816406 205.226562 222.539062 204.972656 221.25 C 204.714844 219.960938 204.523438 218.660156 204.394531 217.351562 C 204.265625 216.039062 204.199219 214.726562 204.199219 213.414062 C 204.199219 212.097656 204.265625 210.785156 204.394531 209.472656 C 204.523438 208.164062 204.714844 206.863281 204.972656 205.574219 C 205.226562 204.285156 205.546875 203.007812 205.929688 201.75 C 206.3125 200.492188 206.753906 199.253906 207.257812 198.039062 C 207.757812 196.820312 208.320312 195.632812 208.941406 194.472656 C 209.558594 193.3125 210.234375 192.1875 210.964844 191.09375 C 211.695312 189.996094 212.476562 188.941406 213.3125 187.925781 C 214.144531 186.90625 215.027344 185.933594 215.957031 185.003906 C 216.886719 184.074219 217.859375 183.191406 218.875 182.355469 C 219.890625 181.519531 220.945312 180.738281 222.039062 180.007812 C 223.132812 179.277344 224.257812 178.601562 225.417969 177.980469 C 226.578125 177.359375 227.765625 176.796875 228.980469 176.292969 C 230.195312 175.792969 231.429688 175.347656 232.6875 174.964844 C 233.945312 174.585938 235.21875 174.265625 236.507812 174.007812 C 237.796875 173.75 239.097656 173.558594 240.40625 173.429688 C 241.714844 173.300781 243.023438 173.238281 244.339844 173.238281 L 525.308594 173.238281 C 527.339844 173.230469 529.355469 173.378906 531.363281 173.675781 C 533.371094 173.976562 535.34375 174.425781 537.28125 175.027344 C 539.21875 175.625 541.101562 176.367188 542.929688 177.253906 C 544.753906 178.140625 546.503906 179.15625 548.175781 180.308594 C 549.847656 181.460938 551.421875 182.730469 552.902344 184.121094 C 554.382812 185.511719 555.75 187.003906 557 188.601562 C 558.253906 190.199219 559.378906 191.882812 560.378906 193.648438 C 561.375 195.417969 562.234375 197.25 562.957031 199.152344 C 563.675781 201.050781 564.25 202.992188 564.675781 204.976562 C 565.101562 206.960938 565.375 208.96875 565.496094 210.996094 C 565.621094 213.023438 565.589844 215.050781 565.402344 217.070312 C 565.21875 219.09375 564.882812 221.089844 564.394531 223.0625 C 563.90625 225.035156 563.273438 226.957031 562.496094 228.832031 C 561.714844 230.707031 560.800781 232.515625 559.75 234.25 C 558.695312 235.988281 557.519531 237.632812 556.214844 239.191406 C 554.914062 240.75 553.503906 242.199219 551.980469 243.542969 L 450.25 333.9375 L 505.238281 333.9375 C 506.671875 333.9375 508.101562 334.015625 509.527344 334.167969 C 510.953125 334.324219 512.367188 334.550781 513.769531 334.855469 C 515.167969 335.160156 516.550781 335.539062 517.910156 335.992188 C 519.269531 336.445312 520.601562 336.96875 521.90625 337.566406 C 523.210938 338.160156 524.480469 338.824219 525.714844 339.558594 C 526.945312 340.289062 528.136719 341.085938 529.285156 341.945312 C 530.433594 342.804688 531.53125 343.722656 532.582031 344.699219 C 533.632812 345.675781 534.625 346.707031 535.566406 347.792969 C 536.503906 348.875 537.382812 350.007812 538.203125 351.1875 C 539.019531 352.363281 539.773438 353.582031 540.460938 354.84375 C 541.148438 356.101562 541.765625 357.394531 542.316406 358.71875 C 542.867188 360.042969 543.34375 361.394531 543.746094 362.773438 C 544.152344 364.148438 544.480469 365.542969 544.738281 366.953125 C 544.992188 368.367188 545.171875 369.789062 545.277344 371.21875 C 545.378906 372.652344 545.40625 374.082031 545.355469 375.519531 C 545.304688 376.953125 545.179688 378.378906 544.976562 379.800781 L 524.90625 520.414062 C 524.636719 522.304688 524.238281 524.164062 523.703125 525.992188 C 523.167969 527.824219 522.507812 529.609375 521.71875 531.34375 C 520.933594 533.082031 520.027344 534.753906 519 536.359375 C 517.976562 537.96875 516.839844 539.496094 515.597656 540.941406 C 514.355469 542.386719 513.015625 543.738281 511.582031 544.992188 C 510.148438 546.246094 508.628906 547.394531 507.03125 548.433594 C 505.433594 549.472656 503.769531 550.390625 502.042969 551.191406 C 500.3125 551.996094 498.535156 552.667969 496.710938 553.21875 L 396.363281 583.351562 C 392.597656 584.472656 388.753906 585.035156 384.824219 585.039062 Z M 384.824219 585.039062 " fill-opacity="1" fill-rule="nonzero"/></svg>