<svg xmlns="http://www.w3.org/2000/svg" xmlns:xlink="http://www.w3.org/1999/xlink" width="1024" zoomAndPan="magnify" viewBox="0 0 768 767.999994" height="1024" preserveAspectRatio="xMidYMid meet" version="1.0"><defs><clipPath id="75e79f8f93"><path d="M 260 376 L 598 376 L 598 751.246094 L 260 751.246094 Z M 260 376 " clip-rule="nonzero"/></clipPath><clipPath id="0dea124f89"><path d="M 356 167 L 614.496094 167 L 614.496094 347 L 356 347 Z M 356 167 " clip-rule="nonzero"/></clipPath></defs><path fill="#f5f5f5" d="M 433.546875 26.496094 L 351.339844 108.777344 L 324.394531 81.808594 C 307.558594 64.957031 280 64.957031 263.007812 81.808594 L 218 126.703125 C 201.007812 143.558594 201.007812 171.140625 218 188.148438 L 244.945312 215.113281 L 162.890625 297.394531 C 153.246094 307.046875 153.246094 322.675781 162.890625 332.175781 L 190.90625 360.21875 L 496.3125 54.535156 L 468.296875 26.496094 C 458.652344 16.996094 443.191406 16.996094 433.546875 26.496094 Z M 243.105469 151.832031 L 288.113281 106.9375 C 289.644531 105.40625 291.789062 104.640625 293.777344 104.640625 C 295.921875 104.640625 297.914062 105.40625 299.441406 106.9375 L 313.832031 121.339844 L 257.496094 177.726562 L 243.105469 163.324219 C 239.890625 160.105469 239.890625 155.050781 243.105469 151.832031 Z M 243.105469 151.832031 " fill-opacity="1" fill-rule="nonzero"/><g clip-path="url(#75e79f8f93)"><path fill="#f5f5f5" d="M 260.558594 708.648438 C 260.558594 732.089844 279.542969 751.242188 303.117188 751.242188 L 554.484375 751.242188 C 577.90625 751.242188 597.042969 732.242188 597.042969 708.648438 L 597.042969 376.457031 L 260.558594 376.457031 Z M 500.753906 457.972656 C 500.753906 448.167969 508.710938 440.351562 518.355469 440.351562 C 528.15625 440.351562 535.960938 448.320312 535.960938 457.972656 L 535.960938 649.960938 C 535.960938 659.769531 528 667.582031 518.355469 667.582031 C 508.558594 667.582031 500.753906 659.617188 500.753906 649.960938 Z M 411.042969 457.972656 C 411.042969 448.167969 419.003906 440.351562 428.648438 440.351562 C 438.445312 440.351562 446.253906 448.320312 446.253906 457.972656 L 446.253906 649.960938 C 446.253906 659.769531 438.292969 667.582031 428.648438 667.582031 C 418.851562 667.582031 411.042969 659.617188 411.042969 649.960938 Z M 321.335938 457.972656 C 321.335938 448.167969 329.296875 440.351562 338.941406 440.351562 C 348.585938 440.351562 356.542969 448.320312 356.542969 457.972656 L 356.542969 649.960938 C 356.542969 659.769531 348.585938 667.582031 338.941406 667.582031 C 329.296875 667.582031 321.335938 659.617188 321.335938 649.960938 Z M 321.335938 457.972656 " fill-opacity="1" fill-rule="nonzero"/></g><g clip-path="url(#0dea124f89)"><path fill="#f5f5f5" d="M 596.890625 167.003906 L 484.066406 167.003906 C 443.804688 167.003906 411.042969 199.792969 411.042969 240.089844 L 411.042969 285.902344 L 386.242188 261.082031 C 379.355469 254.1875 368.179688 254.1875 361.289062 261.082031 C 354.402344 267.976562 354.402344 279.160156 361.289062 286.058594 L 416.09375 340.910156 C 419.617188 344.433594 424.054688 346.121094 428.648438 346.121094 C 433.085938 346.121094 437.679688 344.433594 441.203125 340.910156 L 496.007812 286.058594 C 502.894531 279.160156 502.894531 267.976562 496.007812 261.082031 C 489.117188 254.1875 477.941406 254.1875 471.054688 261.082031 L 446.253906 285.902344 L 446.253906 240.089844 C 446.253906 219.25 463.09375 202.398438 483.914062 202.398438 L 596.738281 202.398438 C 606.535156 202.398438 614.34375 194.429688 614.34375 184.777344 C 614.496094 174.96875 606.535156 167.003906 596.890625 167.003906 Z M 596.890625 167.003906 " fill-opacity="1" fill-rule="nonzero"/></g></svg>