<svg xmlns="http://www.w3.org/2000/svg" xmlns:xlink="http://www.w3.org/1999/xlink" width="1024" zoomAndPan="magnify" viewBox="0 0 768 767.999994" height="1024" preserveAspectRatio="xMidYMid meet" version="1.0"><path fill="#f5f5f5" d="M 170.34375 446.839844 L 383.640625 233.628906 C 384.058594 233.210938 384.566406 233.003906 385.15625 233.011719 C 385.746094 233 386.242188 233.203125 386.652344 233.628906 L 599.027344 446.671875 C 600.859375 448.519531 602.78125 450.273438 604.789062 451.933594 C 606.796875 453.59375 608.882812 455.152344 611.046875 456.605469 C 613.207031 458.058594 615.4375 459.398438 617.734375 460.632812 C 620.027344 461.867188 622.378906 462.980469 624.785156 463.980469 C 627.191406 464.980469 629.640625 465.859375 632.132812 466.617188 C 634.625 467.375 637.152344 468.007812 639.707031 468.515625 C 642.261719 469.023438 644.835938 469.402344 647.429688 469.65625 C 650.023438 469.910156 652.621094 470.03125 655.226562 470.027344 L 655.304688 470.027344 C 657.253906 470.027344 659.203125 469.957031 661.148438 469.8125 C 663.09375 469.671875 665.03125 469.457031 666.957031 469.171875 C 668.886719 468.886719 670.804688 468.53125 672.707031 468.101562 C 674.609375 467.675781 676.492188 467.179688 678.359375 466.617188 C 680.226562 466.050781 682.070312 465.417969 683.890625 464.714844 C 685.707031 464.015625 687.5 463.25 689.261719 462.414062 C 691.027344 461.582031 692.757812 460.6875 694.453125 459.726562 C 696.152344 458.765625 697.8125 457.746094 699.433594 456.664062 C 701.054688 455.582031 702.632812 454.441406 704.171875 453.242188 C 705.710938 452.042969 707.203125 450.789062 708.648438 449.484375 C 710.09375 448.175781 711.488281 446.816406 712.835938 445.402344 C 714.179688 443.992188 715.472656 442.535156 716.710938 441.027344 C 717.949219 439.523438 719.128906 437.972656 720.253906 436.378906 C 721.378906 434.789062 722.441406 433.15625 723.445312 431.484375 C 724.449219 429.8125 725.390625 428.105469 726.269531 426.367188 C 727.148438 424.625 727.960938 422.855469 728.707031 421.054688 C 729.457031 419.253906 730.136719 417.429688 730.75 415.578125 C 731.363281 413.730469 731.90625 411.859375 732.382812 409.96875 C 732.859375 408.078125 733.265625 406.171875 733.601562 404.253906 C 733.933594 402.332031 734.199219 400.402344 734.394531 398.464844 C 734.585938 396.523438 734.707031 394.578125 734.757812 392.628906 C 734.808594 390.683594 734.785156 388.734375 734.691406 386.785156 C 734.597656 384.839844 734.433594 382.898438 734.199219 380.964844 C 733.960938 379.027344 733.65625 377.105469 733.277344 375.191406 C 732.898438 373.28125 732.449219 371.386719 731.933594 369.503906 C 731.414062 367.625 730.828125 365.769531 730.175781 363.933594 C 729.519531 362.097656 728.800781 360.285156 728.011719 358.503906 C 727.222656 356.71875 726.371094 354.96875 725.453125 353.246094 C 724.539062 351.527344 723.558594 349.84375 722.519531 348.195312 C 721.476562 346.546875 720.375 344.9375 719.21875 343.371094 C 718.058594 341.804688 716.84375 340.28125 715.570312 338.800781 C 714.300781 337.324219 712.976562 335.894531 711.597656 334.515625 L 486.316406 108.519531 L 395.332031 18.53125 C 394.597656 17.800781 393.796875 17.152344 392.933594 16.582031 C 392.074219 16.011719 391.164062 15.53125 390.203125 15.140625 C 389.246094 14.746094 388.261719 14.453125 387.246094 14.253906 C 386.230469 14.054688 385.203125 13.957031 384.171875 13.960938 C 383.136719 13.964844 382.109375 14.066406 381.097656 14.269531 C 380.082031 14.472656 379.097656 14.773438 378.140625 15.171875 C 377.1875 15.570312 376.277344 16.054688 375.417969 16.632812 C 374.558594 17.207031 373.761719 17.859375 373.03125 18.589844 L 57.785156 334.515625 C 56.867188 335.433594 55.972656 336.378906 55.097656 337.34375 C 54.226562 338.308594 53.378906 339.292969 52.554688 340.300781 C 51.730469 341.304688 50.933594 342.332031 50.160156 343.378906 C 49.386719 344.421875 48.640625 345.488281 47.917969 346.570312 C 47.199219 347.652344 46.503906 348.75 45.835938 349.867188 C 45.167969 350.984375 44.53125 352.117188 43.917969 353.261719 C 43.308594 354.410156 42.722656 355.574219 42.167969 356.75 C 41.613281 357.925781 41.089844 359.113281 40.59375 360.316406 C 40.097656 361.519531 39.632812 362.730469 39.195312 363.957031 C 38.757812 365.183594 38.351562 366.417969 37.976562 367.660156 C 37.601562 368.90625 37.253906 370.160156 36.941406 371.421875 C 36.625 372.683594 36.34375 373.953125 36.089844 375.226562 C 35.839844 376.503906 35.617188 377.785156 35.429688 379.070312 C 35.238281 380.359375 35.082031 381.648438 34.957031 382.941406 C 34.828125 384.238281 34.734375 385.53125 34.671875 386.832031 C 34.613281 388.128906 34.582031 389.429688 34.582031 390.730469 C 34.585938 392.03125 34.617188 393.332031 34.683594 394.628906 C 34.75 395.925781 34.84375 397.222656 34.976562 398.519531 C 35.105469 399.8125 35.265625 401.101562 35.457031 402.386719 C 35.648438 403.671875 35.871094 404.953125 36.128906 406.230469 C 36.382812 407.503906 36.667969 408.773438 36.988281 410.035156 C 37.304688 411.292969 37.652344 412.546875 38.03125 413.789062 C 38.410156 415.035156 38.820312 416.269531 39.257812 417.492188 C 39.699219 418.714844 40.167969 419.929688 40.667969 421.128906 C 41.164062 422.332031 41.695312 423.519531 42.25 424.691406 C 42.808594 425.867188 43.394531 427.027344 44.007812 428.175781 C 44.625 429.320312 45.265625 430.449219 45.933594 431.566406 C 46.605469 432.679688 47.300781 433.777344 48.027344 434.859375 C 48.75 435.9375 49.5 437 50.273438 438.046875 C 51.050781 439.089844 51.851562 440.113281 52.679688 441.117188 C 53.503906 442.121094 54.355469 443.105469 55.230469 444.066406 C 56.101562 445.03125 57 445.972656 57.921875 446.890625 C 58.839844 447.808594 59.785156 448.703125 60.75 449.578125 C 61.714844 450.449219 62.699219 451.296875 63.703125 452.121094 C 64.710938 452.945312 65.738281 453.746094 66.78125 454.519531 C 67.828125 455.292969 68.890625 456.039062 69.972656 456.761719 C 71.054688 457.484375 72.15625 458.179688 73.269531 458.847656 C 74.386719 459.511719 75.519531 460.152344 76.667969 460.765625 C 77.816406 461.378906 78.976562 461.960938 80.152344 462.515625 C 81.328125 463.070312 82.519531 463.597656 83.722656 464.09375 C 84.921875 464.589844 86.136719 465.058594 87.363281 465.496094 C 88.585938 465.933594 89.820312 466.339844 91.066406 466.71875 C 92.3125 467.09375 93.566406 467.441406 94.828125 467.753906 C 96.089844 468.070312 97.359375 468.355469 98.632812 468.605469 C 99.910156 468.859375 101.191406 469.082031 102.480469 469.273438 C 103.765625 469.460938 105.054688 469.621094 106.351562 469.746094 C 107.644531 469.875 108.941406 469.96875 110.242188 470.03125 C 111.539062 470.097656 112.839844 470.128906 114.140625 470.125 C 115.441406 470.125 116.742188 470.09375 118.042969 470.027344 C 119.339844 469.964844 120.636719 469.867188 121.933594 469.742188 C 123.226562 469.613281 124.519531 469.453125 125.804688 469.261719 C 127.089844 469.070312 128.371094 468.847656 129.648438 468.59375 C 130.925781 468.339844 132.191406 468.054688 133.453125 467.738281 C 134.714844 467.421875 135.96875 467.074219 137.214844 466.695312 C 138.457031 466.320312 139.695312 465.910156 140.917969 465.472656 C 142.144531 465.035156 143.355469 464.566406 144.558594 464.066406 C 145.757812 463.570312 146.949219 463.042969 148.125 462.488281 C 149.300781 461.929688 150.460938 461.347656 151.609375 460.734375 C 152.753906 460.121094 153.886719 459.480469 155.003906 458.808594 C 156.117188 458.140625 157.21875 457.445312 158.296875 456.722656 C 159.378906 456 160.441406 455.25 161.488281 454.476562 C 162.53125 453.703125 163.558594 452.902344 164.5625 452.078125 C 165.570312 451.253906 166.554688 450.402344 167.515625 449.53125 C 168.480469 448.65625 169.421875 447.761719 170.34375 446.839844 Z M 80.179688 356.835938 L 384.273438 52.0625 L 463.996094 130.917969 L 689.207031 356.835938 C 690.863281 358.503906 692.394531 360.28125 693.792969 362.167969 C 695.1875 364.058594 696.441406 366.042969 697.542969 368.117188 C 698.648438 370.191406 699.597656 372.335938 700.386719 374.546875 C 701.175781 376.761719 701.796875 379.023438 702.253906 381.328125 C 702.707031 383.632812 702.992188 385.960938 703.105469 388.308594 C 703.214844 390.65625 703.15625 392.996094 702.921875 395.335938 C 702.691406 397.675781 702.285156 399.984375 701.710938 402.261719 C 701.136719 404.542969 700.402344 406.765625 699.5 408.9375 C 698.597656 411.109375 697.539062 413.199219 696.328125 415.214844 C 695.121094 417.230469 693.769531 419.144531 692.273438 420.960938 C 690.78125 422.773438 689.164062 424.472656 687.421875 426.046875 C 685.675781 427.625 683.828125 429.066406 681.871094 430.371094 C 679.914062 431.675781 677.875 432.828125 675.75 433.832031 C 673.625 434.835938 671.433594 435.679688 669.183594 436.359375 C 666.933594 437.039062 664.648438 437.554688 662.320312 437.898438 C 659.996094 438.242188 657.65625 438.414062 655.304688 438.410156 L 655.257812 438.410156 C 652.113281 438.417969 649 438.113281 645.914062 437.5 C 642.828125 436.886719 639.832031 435.976562 636.929688 434.769531 C 634.023438 433.5625 631.269531 432.082031 628.65625 430.328125 C 626.046875 428.574219 623.636719 426.582031 621.421875 424.347656 L 409.0625 211.320312 C 407.5 209.742188 405.800781 208.332031 403.960938 207.09375 C 402.117188 205.855469 400.171875 204.808594 398.121094 203.957031 C 396.074219 203.105469 393.960938 202.464844 391.78125 202.03125 C 389.605469 201.601562 387.40625 201.386719 385.1875 201.394531 L 385.15625 201.394531 C 382.9375 201.386719 380.738281 201.597656 378.5625 202.027344 C 376.386719 202.457031 374.273438 203.09375 372.226562 203.941406 C 370.175781 204.789062 368.230469 205.832031 366.386719 207.066406 C 364.546875 208.296875 362.84375 209.703125 361.277344 211.273438 L 147.976562 424.488281 C 146.867188 425.589844 145.707031 426.640625 144.496094 427.632812 C 143.285156 428.621094 142.027344 429.550781 140.722656 430.417969 C 139.417969 431.289062 138.078125 432.089844 136.695312 432.824219 C 135.3125 433.5625 133.898438 434.226562 132.449219 434.824219 C 131.003906 435.421875 129.53125 435.949219 128.03125 436.402344 C 126.53125 436.855469 125.011719 437.234375 123.476562 437.539062 C 121.941406 437.84375 120.394531 438.070312 118.835938 438.222656 C 117.277344 438.375 115.714844 438.453125 114.148438 438.449219 C 112.582031 438.449219 111.019531 438.371094 109.460938 438.21875 C 107.902344 438.066406 106.355469 437.835938 104.820312 437.53125 C 103.285156 437.222656 101.765625 436.84375 100.269531 436.390625 C 98.769531 435.9375 97.296875 435.410156 95.847656 434.808594 C 94.402344 434.210938 92.988281 433.542969 91.605469 432.804688 C 90.226562 432.070312 88.882812 431.265625 87.582031 430.398438 C 86.277344 429.527344 85.019531 428.597656 83.808594 427.605469 C 82.597656 426.613281 81.4375 425.5625 80.332031 424.457031 C 79.222656 423.351562 78.171875 422.195312 77.175781 420.984375 C 76.179688 419.777344 75.246094 418.523438 74.375 417.222656 C 73.503906 415.921875 72.699219 414.582031 71.957031 413.203125 C 71.21875 411.820312 70.546875 410.410156 69.945312 408.964844 C 69.34375 407.519531 68.816406 406.046875 68.355469 404.550781 C 67.898438 403.054688 67.515625 401.535156 67.207031 400.003906 C 66.898438 398.46875 66.667969 396.921875 66.511719 395.363281 C 66.355469 393.804688 66.273438 392.246094 66.269531 390.679688 C 66.265625 389.113281 66.339844 387.550781 66.488281 385.992188 C 66.640625 384.4375 66.863281 382.886719 67.167969 381.351562 C 67.46875 379.816406 67.84375 378.296875 68.292969 376.800781 C 68.746094 375.300781 69.269531 373.828125 69.863281 372.378906 C 70.457031 370.929688 71.121094 369.515625 71.855469 368.132812 C 72.589844 366.75 73.390625 365.40625 74.257812 364.101562 C 75.121094 362.796875 76.050781 361.539062 77.039062 360.324219 C 78.027344 359.109375 79.074219 357.949219 80.179688 356.835938 Z M 80.179688 356.835938 " fill-opacity="1" fill-rule="nonzero"/><path fill="#f5f5f5" d="M 170.34375 724.539062 L 383.640625 511.324219 C 383.84375 511.125 384.074219 510.972656 384.335938 510.867188 C 384.597656 510.757812 384.867188 510.707031 385.152344 510.707031 C 385.433594 510.710938 385.707031 510.765625 385.964844 510.875 C 386.226562 510.984375 386.457031 511.140625 386.652344 511.339844 L 599.027344 724.367188 C 600.859375 726.21875 602.78125 727.972656 604.789062 729.632812 C 606.796875 731.292969 608.882812 732.851562 611.046875 734.304688 C 613.207031 735.757812 615.4375 737.101562 617.730469 738.335938 C 620.027344 739.570312 622.378906 740.6875 624.785156 741.6875 C 627.191406 742.6875 629.640625 743.566406 632.132812 744.324219 C 634.625 745.082031 637.148438 745.714844 639.707031 746.222656 C 642.261719 746.730469 644.835938 747.113281 647.429688 747.367188 C 650.023438 747.621094 652.621094 747.746094 655.226562 747.742188 L 655.304688 747.742188 C 657.253906 747.742188 659.203125 747.667969 661.148438 747.527344 C 663.089844 747.382812 665.027344 747.167969 666.957031 746.882812 C 668.886719 746.59375 670.800781 746.238281 672.703125 745.8125 C 674.605469 745.386719 676.492188 744.890625 678.355469 744.324219 C 680.222656 743.757812 682.066406 743.125 683.886719 742.421875 C 685.703125 741.722656 687.496094 740.957031 689.257812 740.121094 C 691.019531 739.289062 692.75 738.394531 694.449219 737.433594 C 696.144531 736.472656 697.804688 735.453125 699.425781 734.371094 C 701.046875 733.285156 702.625 732.148438 704.164062 730.949219 C 705.703125 729.75 707.195312 728.496094 708.640625 727.1875 C 710.085938 725.878906 711.480469 724.519531 712.824219 723.109375 C 714.171875 721.699219 715.460938 720.242188 716.699219 718.734375 C 717.9375 717.230469 719.117188 715.679688 720.242188 714.085938 C 721.367188 712.492188 722.429688 710.863281 723.433594 709.191406 C 724.4375 707.519531 725.378906 705.8125 726.257812 704.074219 C 727.136719 702.332031 727.949219 700.5625 728.695312 698.765625 C 729.445312 696.964844 730.125 695.136719 730.738281 693.289062 C 731.351562 691.4375 731.894531 689.566406 732.371094 687.679688 C 732.847656 685.789062 733.253906 683.882812 733.585938 681.960938 C 733.921875 680.042969 734.1875 678.113281 734.378906 676.171875 C 734.574219 674.234375 734.695312 672.289062 734.746094 670.339844 C 734.796875 668.394531 734.773438 666.445312 734.679688 664.5 C 734.589844 662.550781 734.421875 660.609375 734.1875 658.675781 C 733.949219 656.742188 733.644531 654.816406 733.265625 652.90625 C 732.886719 650.992188 732.441406 649.097656 731.921875 647.21875 C 731.40625 645.339844 730.820312 643.480469 730.167969 641.644531 C 729.511719 639.808594 728.792969 638 728.003906 636.21875 C 727.21875 634.433594 726.363281 632.683594 725.449219 630.960938 C 724.53125 629.242188 723.554688 627.558594 722.511719 625.910156 C 721.472656 624.261719 720.375 622.652344 719.214844 621.085938 C 718.054688 619.515625 716.839844 617.996094 715.570312 616.515625 C 714.300781 615.039062 712.976562 613.609375 711.597656 612.226562 L 486.316406 386.230469 L 395.332031 296.242188 C 394.597656 295.515625 393.796875 294.867188 392.933594 294.296875 C 392.074219 293.726562 391.164062 293.246094 390.203125 292.851562 C 389.246094 292.460938 388.261719 292.164062 387.246094 291.96875 C 386.230469 291.769531 385.203125 291.671875 384.167969 291.675781 C 383.136719 291.675781 382.109375 291.78125 381.097656 291.984375 C 380.082031 292.1875 379.097656 292.488281 378.140625 292.886719 C 377.1875 293.285156 376.277344 293.769531 375.417969 294.34375 C 374.558594 294.921875 373.761719 295.574219 373.03125 296.304688 L 57.785156 612.226562 C 56.867188 613.148438 55.972656 614.089844 55.101562 615.058594 C 54.230469 616.023438 53.382812 617.007812 52.5625 618.015625 C 51.738281 619.019531 50.941406 620.046875 50.167969 621.09375 C 49.394531 622.136719 48.648438 623.203125 47.929688 624.285156 C 47.210938 625.367188 46.515625 626.464844 45.847656 627.582031 C 45.183594 628.699219 44.542969 629.828125 43.933594 630.976562 C 43.324219 632.125 42.742188 633.285156 42.1875 634.460938 C 41.632812 635.636719 41.109375 636.828125 40.613281 638.027344 C 40.117188 639.230469 39.652344 640.445312 39.214844 641.667969 C 38.78125 642.894531 38.375 644.128906 38 645.371094 C 37.625 646.617188 37.28125 647.871094 36.964844 649.132812 C 36.652344 650.390625 36.371094 651.660156 36.117188 652.9375 C 35.867188 654.210938 35.648438 655.492188 35.457031 656.777344 C 35.269531 658.0625 35.113281 659.355469 34.988281 660.648438 C 34.863281 661.941406 34.769531 663.238281 34.707031 664.535156 C 34.644531 665.832031 34.613281 667.132812 34.617188 668.433594 C 34.621094 669.734375 34.652344 671.03125 34.71875 672.328125 C 34.785156 673.628906 34.882812 674.921875 35.011719 676.21875 C 35.140625 677.511719 35.300781 678.800781 35.496094 680.085938 C 35.6875 681.371094 35.910156 682.652344 36.167969 683.925781 C 36.421875 685.199219 36.707031 686.46875 37.027344 687.726562 C 37.34375 688.988281 37.691406 690.238281 38.070312 691.484375 C 38.449219 692.726562 38.859375 693.960938 39.300781 695.183594 C 39.738281 696.40625 40.207031 697.617188 40.707031 698.816406 C 41.207031 700.019531 41.734375 701.207031 42.292969 702.378906 C 42.847656 703.554688 43.433594 704.714844 44.050781 705.859375 C 44.664062 707.003906 45.304688 708.136719 45.976562 709.25 C 46.644531 710.363281 47.339844 711.460938 48.066406 712.539062 C 48.789062 713.621094 49.539062 714.683594 50.3125 715.726562 C 51.089844 716.769531 51.890625 717.792969 52.714844 718.796875 C 53.542969 719.800781 54.390625 720.785156 55.265625 721.746094 C 56.140625 722.707031 57.039062 723.648438 57.957031 724.566406 C 58.878906 725.484375 59.820312 726.378906 60.785156 727.25 C 61.75 728.125 62.734375 728.972656 63.738281 729.796875 C 64.746094 730.621094 65.769531 731.417969 66.816406 732.191406 C 67.859375 732.964844 68.925781 733.710938 70.007812 734.433594 C 71.085938 735.15625 72.1875 735.847656 73.300781 736.515625 C 74.417969 737.183594 75.550781 737.824219 76.695312 738.4375 C 77.84375 739.046875 79.003906 739.632812 80.179688 740.1875 C 81.355469 740.742188 82.546875 741.265625 83.746094 741.765625 C 84.949219 742.261719 86.164062 742.726562 87.386719 743.164062 C 88.609375 743.601562 89.847656 744.007812 91.089844 744.386719 C 92.335938 744.761719 93.585938 745.109375 94.847656 745.425781 C 96.109375 745.738281 97.378906 746.023438 98.65625 746.277344 C 99.929688 746.53125 101.210938 746.75 102.496094 746.941406 C 103.785156 747.132812 105.074219 747.289062 106.367188 747.417969 C 107.660156 747.542969 108.957031 747.640625 110.257812 747.703125 C 111.554688 747.765625 112.855469 747.796875 114.15625 747.796875 C 115.457031 747.796875 116.753906 747.765625 118.054688 747.699219 C 119.351562 747.636719 120.648438 747.542969 121.945312 747.414062 C 123.238281 747.285156 124.527344 747.125 125.8125 746.9375 C 127.101562 746.746094 128.382812 746.523438 129.65625 746.269531 C 130.933594 746.015625 132.199219 745.730469 133.460938 745.414062 C 134.722656 745.097656 135.976562 744.753906 137.21875 744.375 C 138.464844 743.996094 139.699219 743.589844 140.921875 743.152344 C 142.148438 742.714844 143.359375 742.246094 144.5625 741.75 C 145.761719 741.25 146.949219 740.726562 148.125 740.167969 C 149.300781 739.613281 150.464844 739.03125 151.609375 738.417969 C 152.757812 737.804688 153.886719 737.164062 155.003906 736.496094 C 156.121094 735.828125 157.21875 735.132812 158.300781 734.410156 C 159.378906 733.691406 160.445312 732.941406 161.488281 732.167969 C 162.53125 731.394531 163.558594 730.59375 164.5625 729.769531 C 165.570312 728.945312 166.554688 728.097656 167.515625 727.226562 C 168.480469 726.351562 169.421875 725.457031 170.34375 724.539062 Z M 80.179688 634.550781 L 384.273438 329.773438 L 463.996094 408.632812 L 689.207031 634.550781 C 690.863281 636.214844 692.390625 637.992188 693.789062 639.882812 C 695.183594 641.773438 696.433594 643.757812 697.539062 645.832031 C 698.644531 647.90625 699.589844 650.046875 700.378906 652.261719 C 701.167969 654.476562 701.789062 656.734375 702.242188 659.039062 C 702.699219 661.347656 702.980469 663.671875 703.09375 666.019531 C 703.203125 668.367188 703.144531 670.707031 702.910156 673.046875 C 702.675781 675.386719 702.273438 677.695312 701.699219 679.972656 C 701.125 682.25 700.386719 684.476562 699.488281 686.644531 C 698.585938 688.816406 697.527344 690.90625 696.320312 692.921875 C 695.109375 694.9375 693.757812 696.851562 692.265625 698.664062 C 690.773438 700.480469 689.152344 702.175781 687.410156 703.753906 C 685.667969 705.332031 683.820312 706.773438 681.863281 708.078125 C 679.910156 709.382812 677.871094 710.535156 675.742188 711.539062 C 673.617188 712.542969 671.429688 713.386719 669.179688 714.066406 C 666.933594 714.75 664.644531 715.261719 662.320312 715.605469 C 659.992188 715.953125 657.65625 716.125 655.304688 716.125 L 655.257812 716.125 C 652.113281 716.128906 648.996094 715.824219 645.914062 715.207031 C 642.828125 714.59375 639.832031 713.683594 636.929688 712.476562 C 634.023438 711.265625 631.265625 709.785156 628.65625 708.027344 C 626.046875 706.273438 623.632812 704.277344 621.421875 702.042969 L 409.0625 489.03125 C 407.472656 487.488281 405.75 486.105469 403.898438 484.886719 C 402.046875 483.667969 400.097656 482.632812 398.050781 481.78125 C 396.003906 480.929688 393.894531 480.277344 391.722656 479.824219 C 389.550781 479.375 387.355469 479.128906 385.140625 479.089844 C 382.921875 479.085938 380.726562 479.296875 378.550781 479.722656 C 376.378906 480.152344 374.265625 480.792969 372.21875 481.640625 C 370.171875 482.488281 368.226562 483.527344 366.382812 484.761719 C 364.542969 485.996094 362.839844 487.398438 361.277344 488.972656 L 147.980469 702.183594 C 146.871094 703.292969 145.710938 704.34375 144.5 705.335938 C 143.289062 706.332031 142.03125 707.261719 140.726562 708.132812 C 139.421875 709.003906 138.082031 709.808594 136.699219 710.546875 C 135.316406 711.285156 133.902344 711.953125 132.453125 712.554688 C 131.003906 713.152344 129.53125 713.679688 128.03125 714.136719 C 126.53125 714.589844 125.011719 714.972656 123.476562 715.277344 C 121.9375 715.585938 120.390625 715.8125 118.832031 715.96875 C 117.269531 716.121094 115.707031 716.199219 114.140625 716.199219 C 112.574219 716.203125 111.007812 716.125 109.449219 715.972656 C 107.890625 715.820312 106.339844 715.589844 104.804688 715.285156 C 103.265625 714.980469 101.746094 714.601562 100.246094 714.148438 C 98.746094 713.695312 97.273438 713.167969 95.824219 712.570312 C 94.375 711.972656 92.960938 711.304688 91.578125 710.566406 C 90.195312 709.828125 88.851562 709.023438 87.546875 708.15625 C 86.242188 707.285156 84.984375 706.355469 83.773438 705.363281 C 82.558594 704.371094 81.398438 703.320312 80.289062 702.214844 C 79.179688 701.105469 78.128906 699.949219 77.132812 698.738281 C 76.136719 697.527344 75.203125 696.273438 74.328125 694.972656 C 73.457031 693.667969 72.652344 692.328125 71.910156 690.949219 C 71.167969 689.566406 70.5 688.152344 69.898438 686.707031 C 69.296875 685.257812 68.765625 683.785156 68.308594 682.289062 C 67.851562 680.789062 67.46875 679.273438 67.160156 677.734375 C 66.851562 676.199219 66.621094 674.652344 66.464844 673.09375 C 66.308594 671.535156 66.230469 669.972656 66.226562 668.40625 C 66.222656 666.839844 66.296875 665.273438 66.449219 663.714844 C 66.601562 662.15625 66.828125 660.609375 67.128906 659.070312 C 67.433594 657.535156 67.8125 656.015625 68.261719 654.515625 C 68.714844 653.015625 69.242188 651.539062 69.835938 650.09375 C 70.433594 648.644531 71.101562 647.226562 71.835938 645.84375 C 72.574219 644.460938 73.375 643.117188 74.242188 641.8125 C 75.109375 640.507812 76.042969 639.25 77.03125 638.035156 C 78.023438 636.824219 79.074219 635.660156 80.179688 634.550781 Z M 80.179688 634.550781 " fill-opacity="1" fill-rule="nonzero"/></svg>