<svg xmlns="http://www.w3.org/2000/svg" xmlns:xlink="http://www.w3.org/1999/xlink" width="1024" zoomAndPan="magnify" viewBox="0 0 768 767.999994" height="1024" preserveAspectRatio="xMidYMid meet" version="1.0"><defs><clipPath id="1a6853ca59"><path d="M 77 478 L 691.050781 478 L 691.050781 733 L 77 733 Z M 77 478 " clip-rule="nonzero"/></clipPath></defs><path fill="#f5f5f5" d="M 385.050781 35.167969 C 366.417969 35.167969 351.300781 50.273438 351.300781 68.914062 L 351.300781 430.945312 L 272.21875 351.867188 C 240.429688 321.046875 193.601562 367.675781 224.496094 399.589844 C 224.496094 399.589844 361.1875 536.277344 361.1875 536.277344 C 373.949219 549.519531 396.136719 549.089844 408.914062 536.277344 C 408.914062 536.277344 545.605469 399.589844 545.605469 399.589844 C 576.398438 367.730469 529.820312 321.007812 497.878906 351.871094 C 497.878906 351.867188 418.800781 430.945312 418.800781 430.945312 L 418.800781 68.914062 C 418.800781 50.273438 403.683594 35.167969 385.050781 35.167969 Z M 385.050781 35.167969 " fill-opacity="1" fill-rule="nonzero"/><g clip-path="url(#1a6853ca59)"><path fill="#f5f5f5" d="M 111.667969 478.667969 C 93.035156 478.667969 77.917969 493.773438 77.917969 512.417969 L 77.917969 562.203125 C 77.917969 656.179688 154.382812 732.640625 248.359375 732.640625 L 521.742188 732.640625 C 615.71875 732.640625 692.183594 656.179688 692.183594 562.203125 L 692.183594 512.417969 C 692.183594 493.773438 677.066406 478.667969 658.433594 478.667969 C 639.800781 478.667969 624.683594 493.773438 624.683594 512.417969 L 624.683594 562.203125 C 624.683594 618.96875 578.496094 665.144531 521.742188 665.144531 L 248.359375 665.144531 C 191.601562 665.144531 145.414062 618.96875 145.414062 562.203125 L 145.414062 512.417969 C 145.417969 493.773438 130.300781 478.667969 111.667969 478.667969 Z M 111.667969 478.667969 " fill-opacity="1" fill-rule="nonzero"/></g></svg>