<svg xmlns="http://www.w3.org/2000/svg" xmlns:xlink="http://www.w3.org/1999/xlink" width="1024" zoomAndPan="magnify" viewBox="0 0 768 767.999994" height="1024" preserveAspectRatio="xMidYMid meet" version="1.0"><defs><clipPath id="a97319cf4b"><path d="M 18.230469 96.414062 L 749.480469 96.414062 L 749.480469 671.664062 L 18.230469 671.664062 Z M 18.230469 96.414062 " clip-rule="nonzero"/></clipPath></defs><g clip-path="url(#a97319cf4b)"><path fill="#f5f5f5" d="M 646.582031 148.871094 L 121.128906 148.871094 L 367.933594 338.820312 C 377.320312 346.042969 390.390625 346.042969 399.78125 338.820312 Z M 70.464844 175.808594 L 70.464844 619.207031 L 697.25 619.207031 L 697.25 175.808594 L 431.625 380.238281 C 403.460938 401.914062 364.25 401.914062 336.085938 380.238281 Z M 18.230469 148.871094 C 18.230469 120.007812 41.617188 96.609375 70.464844 96.609375 L 697.25 96.609375 C 726.097656 96.609375 749.480469 120.007812 749.480469 148.871094 L 749.480469 619.207031 C 749.480469 648.070312 726.097656 671.46875 697.25 671.46875 L 70.464844 671.46875 C 41.617188 671.46875 18.230469 648.070312 18.230469 619.207031 Z M 18.230469 148.871094 " fill-opacity="1" fill-rule="evenodd"/></g></svg>