<svg v-else-if="icon == 'ereading'" xmlns="http://www.w3.org/2000/svg" xmlns:xlink="http://www.w3.org/1999/xlink" :width="size" zoomAndPan="magnify" viewBox="0 0 768 767.999994" :height="size" preserveAspectRatio="xMidYMid meet" version="1.0"><defs><clipPath id="12b201697d"><path 	:class="{ white: color == 'white', accent: color == 'accent' }" d="M 88 14.84375 L 680 14.84375 L 680 752.84375 L 88 752.84375 Z M 88 14.84375 " clip-rule="nonzero"/></clipPath><clipPath id="e4f2df84e5"><path 	:class="{ white: color == 'white', accent: color == 'accent' }" d="M 14.84375 137 L 372 137 L 372 606 L 14.84375 606 Z M 14.84375 137 " clip-rule="nonzero"/></clipPath><clipPath id="e91808a140"><path d="M 396 137 L 752.84375 137 L 752.84375 606 L 396 606 Z M 396 137 " clip-rule="nonzero"/></clipPath></defs><g clip-path="url(#12b201697d)"><path 	:class="{ white: color == 'white', accent: color == 'accent' }" fill="#f5f5f5" d="M 617.546875 654.445312 L 150.144531 654.445312 L 150.144531 593.316406 C 127.144531 596.511719 106.480469 601.800781 88.644531 607.707031 L 88.644531 691.34375 C 88.644531 725.292969 116.199219 752.84375 150.144531 752.84375 L 617.546875 752.84375 C 651.492188 752.84375 679.046875 725.292969 679.046875 691.34375 L 679.046875 607.707031 C 661.210938 601.800781 640.546875 596.511719 617.546875 593.316406 Z M 408.445312 715.945312 L 359.246094 715.945312 C 352.480469 715.945312 346.945312 710.410156 346.945312 703.644531 C 346.945312 696.878906 352.480469 691.34375 359.246094 691.34375 L 408.445312 691.34375 C 415.210938 691.34375 420.746094 696.878906 420.746094 703.644531 C 420.746094 710.410156 415.210938 715.945312 408.445312 715.945312 Z M 617.546875 14.84375 L 150.144531 14.84375 C 116.199219 14.84375 88.644531 42.398438 88.644531 76.34375 L 88.644531 127.636719 C 108.816406 122.46875 129.359375 118.78125 150.144531 116.445312 L 150.144531 88.644531 L 617.546875 88.644531 L 617.546875 116.445312 C 638.332031 118.78125 658.875 122.46875 679.046875 127.636719 L 679.046875 76.34375 C 679.046875 42.398438 651.492188 14.84375 617.546875 14.84375 Z M 617.546875 14.84375 " fill-opacity="1" fill-rule="nonzero"/></g><g clip-path="url(#e4f2df84e5)"><path 	:class="{ white: color == 'white', accent: color == 'accent' }" fill="#f5f5f5" d="M 186.554688 138.214844 C 129.851562 140.550781 74.625 153.34375 22.226562 176.097656 C 17.796875 178.066406 14.84375 182.496094 14.84375 187.414062 L 14.84375 592.945312 C 14.84375 597.25 17.058594 601.1875 20.625 603.402344 C 24.195312 605.613281 28.746094 605.859375 32.558594 604.015625 C 65.398438 587.902344 119.027344 567.976562 187.539062 565.023438 C 270.5625 561.335938 336.246094 584.457031 371.546875 600.816406 L 371.546875 169.210938 C 312.628906 146.457031 249.039062 135.632812 186.554688 138.214844 Z M 333.539062 487.289062 C 331.449219 491.839844 327.019531 494.546875 322.34375 494.546875 C 320.625 494.546875 318.902344 494.175781 317.300781 493.4375 C 295.902344 483.722656 251.375 467.976562 193.933594 470.191406 C 149.652344 472.035156 114.96875 483.84375 93.8125 493.4375 C 87.660156 496.265625 80.28125 493.4375 77.574219 487.289062 C 74.746094 481.136719 77.453125 473.757812 83.726562 471.050781 C 117.058594 455.921875 154.820312 447.191406 193.074219 445.589844 C 252.359375 443.132812 298.976562 458.136719 327.511719 471.050781 C 333.660156 473.882812 336.367188 481.136719 333.539062 487.289062 Z M 333.539062 413.488281 C 331.449219 418.039062 327.019531 420.746094 322.34375 420.746094 C 320.625 420.746094 318.902344 420.375 317.300781 419.636719 C 295.902344 409.921875 251.375 394.054688 193.933594 396.390625 C 149.652344 398.238281 114.96875 410.042969 93.8125 419.636719 C 87.660156 422.46875 80.28125 419.761719 77.574219 413.488281 C 74.746094 407.339844 77.453125 399.957031 83.726562 397.253906 C 117.058594 382.125 154.820312 373.390625 193.074219 371.792969 C 252.359375 369.453125 298.976562 384.335938 327.511719 397.253906 C 333.660156 400.082031 336.367188 407.339844 333.539062 413.488281 Z M 333.539062 339.6875 C 331.449219 344.238281 327.019531 346.945312 322.34375 346.945312 C 320.625 346.945312 318.902344 346.578125 317.300781 345.839844 C 295.902344 336.121094 251.375 320.378906 193.933594 322.589844 C 149.652344 324.4375 114.96875 336.246094 93.8125 345.839844 C 87.660156 348.667969 80.28125 345.839844 77.574219 339.6875 C 74.746094 333.539062 77.453125 326.160156 83.726562 323.453125 C 117.058594 308.324219 154.820312 299.589844 193.074219 297.992188 C 252.359375 295.65625 298.976562 310.539062 327.511719 323.453125 C 333.660156 326.28125 336.367188 333.539062 333.539062 339.6875 Z M 327.386719 249.652344 C 333.539062 252.480469 336.367188 259.738281 333.539062 265.886719 C 331.449219 270.441406 327.019531 273.144531 322.34375 273.144531 C 320.625 273.144531 318.902344 272.777344 317.300781 272.039062 C 295.902344 262.320312 251.375 246.453125 193.933594 248.792969 C 149.652344 250.636719 114.96875 262.445312 93.8125 272.039062 C 87.660156 274.867188 80.28125 272.160156 77.574219 265.886719 C 74.746094 259.738281 77.453125 252.359375 83.726562 249.652344 C 117.058594 234.523438 154.820312 225.789062 193.074219 224.191406 C 252.234375 221.855469 298.730469 236.738281 327.386719 249.652344 Z M 327.386719 249.652344 " fill-opacity="1" fill-rule="nonzero"/></g><g clip-path="url(#e91808a140)"><path 	:class="{ white: color == 'white', accent: color == 'accent' }" fill="#f5f5f5" d="M 745.464844 176.097656 C 693.191406 153.34375 637.839844 140.550781 581.136719 138.214844 C 518.53125 135.632812 455.0625 146.457031 396.144531 169.210938 L 396.144531 600.695312 C 431.445312 584.457031 497.25 561.335938 580.152344 564.902344 C 648.789062 567.851562 702.292969 587.78125 735.132812 603.890625 C 738.945312 605.738281 743.496094 605.492188 747.066406 603.277344 C 750.632812 601.0625 752.84375 597.128906 752.84375 592.824219 L 752.84375 187.414062 C 752.84375 182.496094 749.894531 178.066406 745.464844 176.097656 Z M 690.238281 487.289062 C 687.410156 493.4375 680.152344 496.265625 674.003906 493.4375 C 652.722656 483.84375 618.160156 471.914062 573.878906 470.191406 C 516.441406 467.976562 471.914062 483.84375 450.511719 493.4375 C 448.914062 494.175781 447.191406 494.546875 445.46875 494.546875 C 440.792969 494.546875 436.242188 491.839844 434.277344 487.289062 C 431.445312 481.136719 434.277344 473.757812 440.425781 471.050781 C 469.085938 458.136719 515.703125 443.132812 574.863281 445.589844 C 613.117188 447.066406 650.878906 455.921875 684.210938 471.050781 C 690.363281 473.882812 693.066406 481.136719 690.238281 487.289062 Z M 690.238281 413.488281 C 687.410156 419.636719 680.152344 422.46875 674.003906 419.636719 C 652.722656 410.042969 618.160156 398.113281 573.878906 396.390625 C 516.441406 394.054688 471.914062 410.042969 450.511719 419.636719 C 448.914062 420.375 447.191406 420.746094 445.46875 420.746094 C 440.792969 420.746094 436.242188 418.039062 434.277344 413.488281 C 431.445312 407.339844 434.277344 399.957031 440.425781 397.253906 C 469.085938 384.335938 515.703125 369.453125 574.863281 371.792969 C 613.117188 373.265625 650.878906 382.125 684.210938 397.253906 C 690.363281 400.082031 693.066406 407.339844 690.238281 413.488281 Z M 690.238281 339.6875 C 687.410156 345.839844 680.152344 348.667969 674.003906 345.839844 C 652.722656 336.246094 618.160156 324.3125 573.878906 322.589844 C 516.441406 320.253906 471.914062 336.246094 450.511719 345.839844 C 448.914062 346.578125 447.191406 346.945312 445.46875 346.945312 C 440.792969 346.945312 436.242188 344.238281 434.277344 339.6875 C 431.445312 333.539062 434.277344 326.160156 440.425781 323.453125 C 469.085938 310.539062 515.703125 295.65625 574.863281 297.992188 C 613.117188 299.46875 650.878906 308.324219 684.210938 323.453125 C 690.363281 326.28125 693.066406 333.539062 690.238281 339.6875 Z M 690.238281 265.886719 C 687.410156 272.039062 680.152344 274.867188 674.003906 272.039062 C 652.722656 262.445312 618.160156 250.511719 573.878906 248.792969 C 516.441406 246.453125 471.914062 262.320312 450.511719 272.039062 C 448.914062 272.777344 447.191406 273.144531 445.46875 273.144531 C 440.792969 273.144531 436.242188 270.441406 434.277344 265.886719 C 431.445312 259.738281 434.277344 252.359375 440.425781 249.652344 C 469.085938 236.738281 515.703125 221.855469 574.863281 224.191406 C 613.117188 225.667969 650.878906 234.523438 684.210938 249.652344 C 690.363281 252.480469 693.066406 259.738281 690.238281 265.886719 Z M 690.238281 265.886719 " fill-opacity="1" fill-rule="nonzero"/></g></svg>