<svg xmlns="http://www.w3.org/2000/svg" xmlns:xlink="http://www.w3.org/1999/xlink" width="500" zoomAndPan="magnify" viewBox="0 0 375 374.999991" height="500" preserveAspectRatio="xMidYMid meet" version="1.0"><defs><g/></defs><g fill="#ffffff" fill-opacity="1"><g transform="translate(-6.783502, 280.485387)"><g><path d="M 196.40625 -100.421875 C 196.40625 -94.515625 196.066406 -88.269531 195.390625 -81.6875 L 46.296875 -81.6875 C 47.429688 -63.3125 53.726562 -48.957031 65.1875 -38.625 C 76.644531 -28.300781 90.539062 -23.140625 106.875 -23.140625 C 120.269531 -23.140625 131.445312 -26.257812 140.40625 -32.5 C 149.375 -38.75 155.671875 -47.09375 159.296875 -57.53125 L 192.65625 -57.53125 C 187.664062 -39.601562 177.679688 -25.019531 162.703125 -13.78125 C 147.722656 -2.550781 129.113281 3.0625 106.875 3.0625 C 89.175781 3.0625 73.347656 -0.90625 59.390625 -8.84375 C 45.441406 -16.789062 34.492188 -28.082031 26.546875 -42.71875 C 18.609375 -57.351562 14.640625 -74.316406 14.640625 -93.609375 C 14.640625 -112.898438 18.492188 -129.804688 26.203125 -144.328125 C 33.921875 -158.847656 44.757812 -170.019531 58.71875 -177.84375 C 72.675781 -185.675781 88.726562 -189.59375 106.875 -189.59375 C 124.582031 -189.59375 140.242188 -185.734375 153.859375 -178.015625 C 167.472656 -170.304688 177.96875 -159.695312 185.34375 -146.1875 C 192.71875 -132.6875 196.40625 -117.429688 196.40625 -100.421875 Z M 164.40625 -106.875 C 164.40625 -118.675781 161.796875 -128.832031 156.578125 -137.34375 C 151.359375 -145.851562 144.265625 -152.320312 135.296875 -156.75 C 126.335938 -161.175781 116.410156 -163.390625 105.515625 -163.390625 C 89.859375 -163.390625 76.523438 -158.394531 65.515625 -148.40625 C 54.515625 -138.425781 48.222656 -124.582031 46.640625 -106.875 Z M 164.40625 -106.875 "/></g></g></g><g fill="#ffffff" fill-opacity="1"><g transform="translate(204.256141, 280.485387)"><g><path d="M 123.5625 0 L 79.3125 -69.4375 L 36.765625 0 L 4.421875 0 L 64.671875 -92.59375 L 4.421875 -186.53125 L 39.484375 -186.53125 L 83.734375 -117.4375 L 125.9375 -186.53125 L 158.28125 -186.53125 L 98.375 -94.28125 L 158.625 0 Z M 123.5625 0 "/></g></g></g></svg>