<svg xmlns="http://www.w3.org/2000/svg" xmlns:xlink="http://www.w3.org/1999/xlink" width="1024" zoomAndPan="magnify" viewBox="0 0 768 767.999994" height="1024" preserveAspectRatio="xMidYMid meet" version="1.0"><defs><g/><clipPath id="2a9f458bb4"><path d="M 192 136 L 544.886719 136 L 544.886719 523.488281 L 192 523.488281 Z M 192 136 " clip-rule="nonzero"/></clipPath></defs><path fill="#faf6f0" d="M 424.324219 211.144531 L 375.398438 256.679688 L 330 165.078125 L 353.492188 112.394531 C 359.601562 101.699219 369.132812 101.820312 375.089844 112.394531 Z M 424.324219 211.144531 " fill-opacity="1" fill-rule="nonzero"/><path fill="#f5f5f5" d="M 330 165.078125 L 375.398438 256.679688 L 192.554688 426.816406 Z M 330 165.078125 " fill-opacity="1" fill-rule="nonzero"/><g clip-path="url(#2a9f458bb4)"><path fill="#ffffff" d="M 477.832031 141.546875 C 486.570312 133.144531 495.613281 136.015625 497.917969 147.917969 L 545.515625 424.554688 L 387.753906 519.289062 C 382.253906 522.34375 367.589844 523.65625 367.589844 523.65625 C 367.589844 523.65625 354.242188 522.070312 349.152344 519.074219 L 192.554688 426.816406 Z M 477.832031 141.546875 " fill-opacity="1" fill-rule="nonzero"/></g><path fill="#faf6f0" d="M 330 165.078125 L 192.570312 426.816406 L 253.777344 44.292969 C 256.039062 32.375 262.820312 31.230469 268.867188 41.742188 Z M 330 165.078125 " fill-opacity="1" fill-rule="nonzero"/><g fill="#f5f5f5" fill-opacity="1"><g transform="translate(22.676957, 710.836536)"><g><path d="M 88.359375 -135.75 L 88.359375 -108.59375 L 40.8125 -108.59375 L 40.8125 -81.609375 L 84.734375 -81.609375 L 84.734375 -54.46875 L 40.8125 -54.46875 L 40.8125 0 L 9.875 0 L 9.875 -135.75 Z M 88.359375 -135.75 "/></g></g></g><g fill="#f5f5f5" fill-opacity="1"><g transform="translate(115.972174, 710.836536)"><g><path d="M 12.65625 -131.46875 C 16.0625 -134.875 20.125 -136.578125 24.84375 -136.578125 C 29.5625 -136.578125 33.617188 -134.875 37.015625 -131.46875 C 40.421875 -128.070312 42.125 -124.015625 42.125 -119.296875 C 42.125 -114.578125 40.421875 -110.515625 37.015625 -107.109375 C 33.617188 -103.710938 29.5625 -102.015625 24.84375 -102.015625 C 20.125 -102.015625 16.0625 -103.710938 12.65625 -107.109375 C 9.257812 -110.515625 7.5625 -114.578125 7.5625 -119.296875 C 7.5625 -124.015625 9.257812 -128.070312 12.65625 -131.46875 Z M 9.875 -84.40625 L 9.875 0 L 39 0 L 39 -84.40625 Z M 9.875 -84.40625 "/></g></g></g><g fill="#f5f5f5" fill-opacity="1"><g transform="translate(165.663798, 710.836536)"><g><path d="M 9.875 0 L 9.875 -84.40625 L 39 -84.40625 L 39 -72.234375 L 39.328125 -72.234375 C 39.546875 -72.671875 39.898438 -73.21875 40.390625 -73.875 C 40.890625 -74.539062 41.960938 -75.695312 43.609375 -77.34375 C 45.253906 -78.988281 47.007812 -80.46875 48.875 -81.78125 C 50.738281 -83.09375 53.148438 -84.269531 56.109375 -85.3125 C 59.066406 -86.351562 62.082031 -86.875 65.15625 -86.875 C 68.34375 -86.875 71.46875 -86.4375 74.53125 -85.5625 C 77.601562 -84.6875 79.851562 -83.8125 81.28125 -82.9375 L 83.59375 -81.609375 L 71.40625 -56.9375 C 67.789062 -60.007812 62.75 -61.546875 56.28125 -61.546875 C 52.769531 -61.546875 49.75 -60.773438 47.21875 -59.234375 C 44.695312 -57.703125 42.914062 -55.835938 41.875 -53.640625 C 40.832031 -51.441406 40.09375 -49.578125 39.65625 -48.046875 C 39.21875 -46.515625 39 -45.304688 39 -44.421875 L 39 0 Z M 9.875 0 "/></g></g></g><g fill="#f5f5f5" fill-opacity="1"><g transform="translate(247.605645, 710.836536)"><g><path d="M 95.265625 -38.171875 L 34.0625 -38.171875 C 34.0625 -32.253906 35.976562 -27.867188 39.8125 -25.015625 C 43.65625 -22.160156 47.828125 -20.734375 52.328125 -20.734375 C 57.046875 -20.734375 60.773438 -21.363281 63.515625 -22.625 C 66.253906 -23.882812 69.378906 -26.378906 72.890625 -30.109375 L 93.953125 -19.578125 C 85.179688 -4.878906 70.59375 2.46875 50.1875 2.46875 C 37.457031 2.46875 26.539062 -1.890625 17.4375 -10.609375 C 8.332031 -19.328125 3.78125 -29.828125 3.78125 -42.109375 C 3.78125 -54.398438 8.332031 -64.929688 17.4375 -73.703125 C 26.539062 -82.484375 37.457031 -86.875 50.1875 -86.875 C 63.570312 -86.875 74.457031 -83.003906 82.84375 -75.265625 C 91.238281 -67.535156 95.4375 -56.488281 95.4375 -42.125 C 95.4375 -40.144531 95.378906 -38.828125 95.265625 -38.171875 Z M 34.890625 -54.296875 L 66.96875 -54.296875 C 66.3125 -58.679688 64.582031 -62.050781 61.78125 -64.40625 C 58.988281 -66.769531 55.398438 -67.953125 51.015625 -67.953125 C 46.179688 -67.953125 42.335938 -66.691406 39.484375 -64.171875 C 36.640625 -61.648438 35.109375 -58.359375 34.890625 -54.296875 Z M 34.890625 -54.296875 "/></g></g></g><g fill="#f5f5f5" fill-opacity="1"><g transform="translate(346.824365, 710.836536)"><g><path d="M 96.75 -73.875 C 104.644531 -65.207031 108.59375 -54.617188 108.59375 -42.109375 C 108.59375 -29.609375 104.644531 -19.050781 96.75 -10.4375 C 88.851562 -1.832031 78.816406 2.46875 66.640625 2.46875 C 55.453125 2.46875 46.238281 -1.535156 39 -9.546875 L 38.671875 -9.546875 L 38.671875 0 L 9.875 0 L 9.875 -141.515625 L 39 -141.515625 L 39 -76.34375 C 46.238281 -83.363281 55.453125 -86.875 66.640625 -86.875 C 78.816406 -86.875 88.851562 -82.539062 96.75 -73.875 Z M 72.234375 -27.890625 C 75.859375 -31.566406 77.671875 -36.3125 77.671875 -42.125 C 77.671875 -47.9375 75.773438 -52.707031 71.984375 -56.4375 C 68.203125 -60.164062 63.515625 -62.03125 57.921875 -62.03125 C 52.429688 -62.03125 47.796875 -60.164062 44.015625 -56.4375 C 40.234375 -52.707031 38.34375 -47.9375 38.34375 -42.125 C 38.34375 -36.414062 40.175781 -31.695312 43.84375 -27.96875 C 47.519531 -24.238281 52.210938 -22.375 57.921875 -22.375 C 63.847656 -22.375 68.617188 -24.210938 72.234375 -27.890625 Z M 72.234375 -27.890625 "/></g></g></g><g fill="#f5f5f5" fill-opacity="1"><g transform="translate(459.206446, 710.836536)"><g><path d="M 15.625 -10.4375 C 7.726562 -19.050781 3.78125 -29.609375 3.78125 -42.109375 C 3.78125 -54.617188 7.726562 -65.207031 15.625 -73.875 C 23.53125 -82.539062 33.570312 -86.875 45.75 -86.875 C 56.9375 -86.875 66.148438 -83.363281 73.390625 -76.34375 L 73.390625 -84.40625 L 102.515625 -84.40625 L 102.515625 0 L 73.71875 0 L 73.71875 -9.546875 L 73.390625 -9.546875 C 66.148438 -1.535156 56.9375 2.46875 45.75 2.46875 C 33.570312 2.46875 23.53125 -1.832031 15.625 -10.4375 Z M 40.390625 -56.4375 C 36.609375 -52.707031 34.71875 -47.9375 34.71875 -42.125 C 34.71875 -36.3125 36.523438 -31.566406 40.140625 -27.890625 C 43.765625 -24.210938 48.539062 -22.375 54.46875 -22.375 C 60.164062 -22.375 64.851562 -24.238281 68.53125 -27.96875 C 72.207031 -31.695312 74.046875 -36.414062 74.046875 -42.125 C 74.046875 -47.9375 72.148438 -52.707031 68.359375 -56.4375 C 64.578125 -60.164062 59.945312 -62.03125 54.46875 -62.03125 C 48.875 -62.03125 44.179688 -60.164062 40.390625 -56.4375 Z M 40.390625 -56.4375 "/></g></g></g><g fill="#f5f5f5" fill-opacity="1"><g transform="translate(571.588526, 710.836536)"><g><path d="M 46.5625 -86.875 C 51.394531 -86.875 56.164062 -86.328125 60.875 -85.234375 C 65.59375 -84.140625 69.101562 -83.039062 71.40625 -81.9375 L 74.875 -80.296875 L 65.328125 -61.21875 C 58.742188 -64.726562 52.488281 -66.484375 46.5625 -66.484375 C 43.269531 -66.484375 40.9375 -66.125 39.5625 -65.40625 C 38.195312 -64.695312 37.515625 -63.351562 37.515625 -61.375 C 37.515625 -60.9375 37.566406 -60.5 37.671875 -60.0625 C 37.785156 -59.625 38.003906 -59.210938 38.328125 -58.828125 C 38.660156 -58.441406 38.960938 -58.109375 39.234375 -57.828125 C 39.515625 -57.554688 39.984375 -57.253906 40.640625 -56.921875 C 41.296875 -56.597656 41.816406 -56.351562 42.203125 -56.1875 C 42.585938 -56.03125 43.21875 -55.785156 44.09375 -55.453125 C 44.976562 -55.117188 45.640625 -54.867188 46.078125 -54.703125 C 46.515625 -54.546875 47.253906 -54.300781 48.296875 -53.96875 C 49.335938 -53.644531 50.132812 -53.425781 50.6875 -53.3125 C 54.082031 -52.320312 57.039062 -51.222656 59.5625 -50.015625 C 62.082031 -48.816406 64.742188 -47.171875 67.546875 -45.078125 C 70.347656 -42.992188 72.515625 -40.363281 74.046875 -37.1875 C 75.578125 -34.007812 76.34375 -30.390625 76.34375 -26.328125 C 76.34375 -7.128906 63.015625 2.46875 36.359375 2.46875 C 30.328125 2.46875 24.597656 1.535156 19.171875 -0.328125 C 13.742188 -2.191406 9.820312 -4.054688 7.40625 -5.921875 L 3.78125 -8.890625 L 15.625 -28.796875 C 16.507812 -28.023438 17.660156 -27.117188 19.078125 -26.078125 C 20.503906 -25.035156 23.082031 -23.609375 26.8125 -21.796875 C 30.550781 -19.992188 33.789062 -19.09375 36.53125 -19.09375 C 42.5625 -19.09375 45.578125 -21.117188 45.578125 -25.171875 C 45.578125 -27.035156 44.804688 -28.488281 43.265625 -29.53125 C 41.734375 -30.570312 39.128906 -31.75 35.453125 -33.0625 C 31.785156 -34.382812 28.910156 -35.59375 26.828125 -36.6875 C 21.554688 -39.4375 17.382812 -42.535156 14.3125 -45.984375 C 11.238281 -49.441406 9.703125 -54.023438 9.703125 -59.734375 C 9.703125 -68.285156 13.019531 -74.945312 19.65625 -79.71875 C 26.300781 -84.488281 35.269531 -86.875 46.5625 -86.875 Z M 46.5625 -86.875 "/></g></g></g><g fill="#f5f5f5" fill-opacity="1"><g transform="translate(652.543075, 710.836536)"><g><path d="M 95.265625 -38.171875 L 34.0625 -38.171875 C 34.0625 -32.253906 35.976562 -27.867188 39.8125 -25.015625 C 43.65625 -22.160156 47.828125 -20.734375 52.328125 -20.734375 C 57.046875 -20.734375 60.773438 -21.363281 63.515625 -22.625 C 66.253906 -23.882812 69.378906 -26.378906 72.890625 -30.109375 L 93.953125 -19.578125 C 85.179688 -4.878906 70.59375 2.46875 50.1875 2.46875 C 37.457031 2.46875 26.539062 -1.890625 17.4375 -10.609375 C 8.332031 -19.328125 3.78125 -29.828125 3.78125 -42.109375 C 3.78125 -54.398438 8.332031 -64.929688 17.4375 -73.703125 C 26.539062 -82.484375 37.457031 -86.875 50.1875 -86.875 C 63.570312 -86.875 74.457031 -83.003906 82.84375 -75.265625 C 91.238281 -67.535156 95.4375 -56.488281 95.4375 -42.125 C 95.4375 -40.144531 95.378906 -38.828125 95.265625 -38.171875 Z M 34.890625 -54.296875 L 66.96875 -54.296875 C 66.3125 -58.679688 64.582031 -62.050781 61.78125 -64.40625 C 58.988281 -66.769531 55.398438 -67.953125 51.015625 -67.953125 C 46.179688 -67.953125 42.335938 -66.691406 39.484375 -64.171875 C 36.640625 -61.648438 35.109375 -58.359375 34.890625 -54.296875 Z M 34.890625 -54.296875 "/></g></g></g></svg>