<svg xmlns="http://www.w3.org/2000/svg" xmlns:xlink="http://www.w3.org/1999/xlink" width="500" zoomAndPan="magnify" viewBox="0 0 375 374.999991" height="500" preserveAspectRatio="xMidYMid meet" version="1.0"><defs><clipPath id="a39a0f0142"><path d="M 60 87 L 315.933594 87 L 315.933594 368.496094 L 60 368.496094 Z M 60 87 " clip-rule="nonzero"/></clipPath></defs><path fill="#ffffff" d="M 228.144531 141.722656 L 192.667969 174.730469 L 159.753906 108.332031 L 176.785156 70.140625 C 181.214844 62.390625 188.128906 62.476562 192.449219 70.140625 Z M 228.144531 141.722656 " fill-opacity="1" fill-rule="nonzero"/><path fill="#feffff" d="M 159.753906 108.332031 L 192.667969 174.730469 L 60.09375 298.058594 Z M 159.753906 108.332031 " fill-opacity="1" fill-rule="nonzero"/><g clip-path="url(#a39a0f0142)"><path fill="#ffffff" d="M 266.941406 91.273438 C 273.277344 85.183594 279.835938 87.265625 281.507812 95.894531 L 316.019531 296.417969 L 201.628906 365.085938 C 197.640625 367.300781 187.007812 368.253906 187.007812 368.253906 C 187.007812 368.253906 177.328125 367.101562 173.640625 364.933594 L 60.09375 298.058594 Z M 266.941406 91.273438 " fill-opacity="1" fill-rule="nonzero"/></g><path fill="#ffffff" d="M 159.753906 108.332031 L 60.105469 298.058594 L 104.484375 20.777344 C 106.125 12.140625 111.042969 11.308594 115.425781 18.929688 Z M 159.753906 108.332031 " fill-opacity="1" fill-rule="nonzero"/></svg>