<svg xmlns="http://www.w3.org/2000/svg" xmlns:xlink="http://www.w3.org/1999/xlink" width="1024" zoomAndPan="magnify" viewBox="0 0 768 767.999994" height="1024" preserveAspectRatio="xMidYMid meet" version="1.0"><defs><clipPath id="5196c32a64"><path d="M 79 34 L 688 34 L 688 745.488281 L 79 745.488281 Z M 79 34 " clip-rule="nonzero"/></clipPath></defs><path fill="#ffffff" d="M 118.886719 604.828125 C 118.125 604.824219 117.367188 604.800781 116.605469 604.753906 C 115.84375 604.703125 115.085938 604.628906 114.332031 604.53125 C 113.578125 604.433594 112.824219 604.3125 112.078125 604.164062 C 111.332031 604.019531 110.589844 603.851562 109.851562 603.65625 C 109.113281 603.460938 108.386719 603.246094 107.664062 603.003906 C 106.941406 602.765625 106.226562 602.5 105.519531 602.214844 C 104.8125 601.925781 104.117188 601.617188 103.433594 601.285156 C 102.746094 600.957031 102.070312 600.601562 101.40625 600.226562 C 100.746094 599.851562 100.09375 599.457031 99.457031 599.039062 C 98.816406 598.625 98.195312 598.1875 97.582031 597.730469 C 96.972656 597.273438 96.378906 596.800781 95.800781 596.304688 C 95.21875 595.808594 94.65625 595.296875 94.109375 594.765625 C 93.5625 594.234375 93.035156 593.6875 92.523438 593.121094 C 92.011719 592.558594 91.519531 591.976562 91.046875 591.378906 C 90.570312 590.78125 90.117188 590.171875 89.683594 589.546875 C 89.246094 588.921875 88.832031 588.28125 88.4375 587.628906 C 88.046875 586.976562 87.671875 586.3125 87.320312 585.636719 C 86.96875 584.960938 86.640625 584.273438 86.335938 583.574219 C 86.027344 582.878906 85.742188 582.171875 85.480469 581.453125 C 85.21875 580.738281 84.980469 580.015625 84.765625 579.285156 C 84.550781 578.554688 84.359375 577.816406 84.191406 577.074219 C 84.023438 576.328125 83.878906 575.582031 83.757812 574.828125 C 83.636719 574.074219 83.542969 573.320312 83.46875 572.5625 C 83.398438 571.800781 83.351562 571.042969 83.328125 570.28125 C 83.304688 569.519531 83.308594 568.757812 83.332031 567.996094 C 83.359375 567.234375 83.410156 566.472656 83.484375 565.714844 C 83.558594 564.957031 83.660156 564.199219 83.78125 563.449219 C 83.90625 562.695312 84.054688 561.949219 84.222656 561.207031 C 84.394531 560.460938 84.589844 559.726562 84.808594 558.996094 C 85.027344 558.265625 85.269531 557.542969 85.535156 556.828125 C 85.800781 556.113281 86.085938 555.410156 86.398438 554.710938 C 86.707031 554.015625 87.039062 553.332031 87.394531 552.65625 L 303.066406 141.347656 C 303.664062 139.339844 304.441406 137.40625 305.398438 135.542969 C 306.0625 134.246094 306.753906 132.960938 307.480469 131.695312 C 308.207031 130.429688 308.964844 129.183594 309.753906 127.953125 C 310.542969 126.726562 311.363281 125.519531 312.210938 124.332031 C 313.058594 123.144531 313.9375 121.976562 314.84375 120.835938 C 315.75 119.691406 316.683594 118.570312 317.648438 117.472656 C 318.609375 116.375 319.597656 115.304688 320.613281 114.253906 C 321.628906 113.207031 322.671875 112.1875 323.738281 111.191406 C 324.804688 110.195312 325.894531 109.226562 327.007812 108.28125 C 328.125 107.339844 329.261719 106.425781 330.421875 105.542969 C 331.582031 104.65625 332.761719 103.800781 333.964844 102.976562 C 335.167969 102.148438 336.390625 101.351562 337.632812 100.585938 C 338.875 99.824219 340.136719 99.089844 341.414062 98.386719 C 342.695312 97.683594 343.988281 97.011719 345.300781 96.375 C 346.613281 95.734375 347.941406 95.132812 349.28125 94.558594 C 350.625 93.988281 351.980469 93.449219 353.347656 92.945312 C 354.71875 92.441406 356.097656 91.96875 357.492188 91.535156 C 358.882812 91.097656 360.285156 90.695312 361.699219 90.332031 C 363.109375 89.964844 364.53125 89.632812 365.957031 89.339844 C 367.386719 89.042969 368.824219 88.785156 370.265625 88.558594 C 371.707031 88.335938 373.152344 88.148438 374.601562 87.996094 C 376.054688 87.84375 377.507812 87.730469 378.964844 87.648438 C 380.421875 87.570312 381.878906 87.527344 383.335938 87.519531 C 384.796875 87.515625 386.253906 87.542969 387.710938 87.609375 C 389.167969 87.675781 390.625 87.777344 392.078125 87.914062 C 393.527344 88.054688 394.976562 88.226562 396.421875 88.4375 C 397.863281 88.648438 399.300781 88.894531 400.734375 89.175781 C 402.164062 89.457031 403.585938 89.777344 405.003906 90.128906 C 406.417969 90.480469 407.824219 90.867188 409.222656 91.292969 C 410.617188 91.714844 412.003906 92.171875 413.375 92.664062 C 414.75 93.15625 416.109375 93.679688 417.457031 94.242188 C 418.804688 94.800781 420.136719 95.390625 421.457031 96.019531 C 422.773438 96.644531 424.074219 97.300781 425.359375 97.992188 C 429.210938 100.078125 432.894531 102.433594 436.402344 105.050781 C 439.914062 107.671875 443.21875 110.53125 446.320312 113.625 C 449.417969 116.722656 452.277344 120.027344 454.898438 123.539062 C 457.519531 127.050781 459.871094 130.730469 461.960938 134.582031 L 499.84375 206.480469 C 500.410156 207.515625 500.921875 208.574219 501.382812 209.660156 C 501.847656 210.742188 502.253906 211.847656 502.605469 212.972656 C 502.957031 214.097656 503.25 215.238281 503.488281 216.390625 C 503.726562 217.546875 503.910156 218.707031 504.03125 219.878906 C 504.15625 221.050781 504.21875 222.226562 504.226562 223.40625 C 504.234375 224.585938 504.179688 225.761719 504.070312 226.933594 C 503.960938 228.105469 503.792969 229.273438 503.566406 230.429688 C 503.339844 231.585938 503.058594 232.726562 502.71875 233.855469 C 502.382812 234.984375 501.988281 236.09375 501.539062 237.183594 C 501.089844 238.273438 500.585938 239.339844 500.03125 240.378906 C 499.476562 241.417969 498.871094 242.425781 498.21875 243.40625 C 497.5625 244.386719 496.859375 245.332031 496.113281 246.242188 C 495.363281 247.148438 494.570312 248.019531 493.738281 248.851562 C 492.902344 249.683594 492.027344 250.472656 491.113281 251.214844 C 490.199219 251.960938 489.253906 252.65625 488.269531 253.304688 C 487.289062 253.957031 486.277344 254.554688 485.234375 255.105469 C 484.191406 255.65625 483.125 256.152344 482.035156 256.597656 C 480.945312 257.039062 479.832031 257.429688 478.703125 257.761719 C 477.574219 258.09375 476.429688 258.371094 475.273438 258.589844 C 474.117188 258.808594 472.953125 258.972656 471.777344 259.078125 C 470.605469 259.179688 469.429688 259.226562 468.253906 259.210938 C 467.074219 259.199219 465.902344 259.128906 464.730469 259 C 463.558594 258.871094 462.398438 258.683594 461.246094 258.4375 C 460.09375 258.191406 458.957031 257.890625 457.835938 257.535156 C 456.710938 257.175781 455.609375 256.761719 454.53125 256.296875 C 453.449219 255.828125 452.394531 255.308594 451.363281 254.738281 C 450.332031 254.164062 449.335938 253.542969 448.367188 252.871094 C 447.398438 252.199219 446.46875 251.480469 445.570312 250.71875 C 444.671875 249.953125 443.816406 249.148438 443 248.296875 C 442.183594 247.449219 441.410156 246.5625 440.683594 245.636719 C 439.953125 244.710938 439.273438 243.75 438.640625 242.757812 C 438.003906 241.761719 437.421875 240.742188 436.890625 239.6875 L 399.167969 168.09375 C 397.382812 164.960938 394.910156 162.527344 391.75 160.792969 C 390.90625 160.335938 390.027344 159.957031 389.117188 159.652344 C 388.207031 159.347656 387.28125 159.121094 386.332031 158.976562 C 385.382812 158.828125 384.429688 158.765625 383.46875 158.785156 C 382.511719 158.800781 381.558594 158.902344 380.617188 159.082031 C 379.675781 159.261719 378.757812 159.523438 377.859375 159.863281 C 376.960938 160.203125 376.097656 160.613281 375.273438 161.101562 C 374.445312 161.589844 373.664062 162.144531 372.933594 162.761719 C 372.203125 163.382812 371.527344 164.0625 370.914062 164.800781 C 370.429688 166.015625 369.886719 167.203125 369.277344 168.359375 L 150.417969 585.703125 C 149.667969 587.136719 148.828125 588.515625 147.890625 589.835938 C 146.953125 591.152344 145.933594 592.402344 144.824219 593.585938 C 143.71875 594.765625 142.535156 595.863281 141.28125 596.882812 C 140.023438 597.902344 138.703125 598.832031 137.320312 599.667969 C 135.9375 600.507812 134.503906 601.25 133.019531 601.894531 C 131.535156 602.535156 130.015625 603.074219 128.457031 603.511719 C 126.898438 603.945312 125.320312 604.273438 123.71875 604.496094 C 122.117188 604.714844 120.503906 604.824219 118.886719 604.828125 Z M 118.886719 604.828125 " fill-opacity="1" fill-rule="nonzero"/><g clip-path="url(#5196c32a64)"><path fill="#ffffff" d="M 381.855469 745.222656 C 374.480469 745.234375 367.226562 744.316406 360.085938 742.460938 C 352.949219 740.609375 346.160156 737.886719 339.722656 734.289062 L 126.503906 630.824219 L 124.5625 629.753906 C 122.601562 628.644531 120.683594 627.464844 118.808594 626.210938 C 116.933594 624.957031 115.109375 623.636719 113.335938 622.242188 C 111.5625 620.851562 109.84375 619.394531 108.179688 617.871094 C 106.515625 616.351562 104.910156 614.765625 103.367188 613.121094 C 101.824219 611.480469 100.34375 609.777344 98.925781 608.023438 C 97.511719 606.265625 96.164062 604.460938 94.886719 602.601562 C 93.609375 600.742188 92.402344 598.839844 91.269531 596.890625 C 90.132812 594.941406 89.074219 592.949219 88.089844 590.921875 C 87.109375 588.890625 86.203125 586.828125 85.375 584.730469 C 84.546875 582.628906 83.800781 580.503906 83.132812 578.347656 C 82.46875 576.191406 81.882812 574.015625 81.382812 571.816406 C 80.878906 569.617188 80.464844 567.402344 80.128906 565.171875 C 79.796875 562.941406 79.546875 560.699219 79.382812 558.449219 C 79.21875 556.199219 79.140625 553.945312 79.144531 551.691406 C 79.152344 549.433594 79.242188 547.183594 79.421875 544.933594 C 79.597656 542.683594 79.859375 540.445312 80.207031 538.214844 L 149.972656 109.441406 C 150.191406 108.003906 150.449219 106.574219 150.738281 105.152344 C 151.027344 103.726562 151.355469 102.308594 151.714844 100.902344 C 152.074219 99.496094 152.46875 98.097656 152.898438 96.707031 C 153.328125 95.320312 153.789062 93.941406 154.285156 92.574219 C 154.78125 91.210938 155.3125 89.855469 155.875 88.515625 C 156.441406 87.175781 157.035156 85.851562 157.664062 84.542969 C 158.292969 83.230469 158.953125 81.9375 159.648438 80.660156 C 160.339844 79.382812 161.0625 78.121094 161.816406 76.882812 C 162.574219 75.640625 163.355469 74.417969 164.171875 73.214844 C 164.988281 72.011719 165.832031 70.828125 166.703125 69.667969 C 167.578125 68.503906 168.476562 67.363281 169.40625 66.246094 C 170.335938 65.128906 171.292969 64.039062 172.277344 62.96875 C 173.257812 61.898438 174.269531 60.851562 175.300781 59.832031 C 176.335938 58.8125 177.394531 57.816406 178.480469 56.851562 C 179.5625 55.882812 180.667969 54.941406 181.800781 54.027344 C 182.929688 53.113281 184.082031 52.230469 185.253906 51.375 C 186.429688 50.515625 187.621094 49.691406 188.835938 48.890625 C 190.050781 48.09375 191.285156 47.328125 192.535156 46.589844 C 193.789062 45.855469 195.058594 45.148438 196.34375 44.472656 C 197.632812 43.800781 198.933594 43.15625 200.253906 42.546875 C 201.570312 41.9375 202.902344 41.359375 204.25 40.816406 C 205.597656 40.273438 206.957031 39.761719 208.328125 39.285156 C 209.699219 38.808594 211.082031 38.367188 212.476562 37.957031 C 213.871094 37.546875 215.273438 37.171875 216.6875 36.835938 C 218.097656 36.496094 219.519531 36.191406 220.945312 35.921875 C 222.375 35.652344 223.804688 35.417969 225.246094 35.21875 C 226.683594 35.019531 228.128906 34.855469 229.574219 34.726562 C 231.019531 34.601562 232.46875 34.507812 233.921875 34.453125 C 235.371094 34.398438 236.824219 34.375 238.277344 34.390625 C 239.730469 34.40625 241.179688 34.457031 242.628906 34.546875 C 244.082031 34.632812 245.527344 34.753906 246.972656 34.914062 C 248.414062 35.074219 249.855469 35.265625 251.289062 35.496094 C 254.5625 36.015625 257.796875 36.710938 260.996094 37.59375 C 264.191406 38.472656 267.328125 39.527344 270.40625 40.757812 C 273.484375 41.984375 276.488281 43.382812 279.410156 44.949219 C 282.332031 46.511719 285.160156 48.234375 287.890625 50.117188 C 290.621094 51.996094 293.238281 54.023438 295.746094 56.195312 C 298.25 58.367188 300.625 60.675781 302.875 63.113281 C 305.121094 65.550781 307.226562 68.105469 309.191406 70.777344 C 311.152344 73.453125 312.960938 76.226562 314.613281 79.101562 L 357.65625 140.261719 C 358.28125 141.21875 358.859375 142.203125 359.390625 143.210938 C 359.921875 144.222656 360.40625 145.257812 360.835938 146.3125 C 361.269531 147.371094 361.648438 148.445312 361.976562 149.539062 C 362.304688 150.632812 362.582031 151.742188 362.804688 152.859375 C 363.023438 153.980469 363.191406 155.109375 363.304688 156.246094 C 363.417969 157.382812 363.476562 158.519531 363.480469 159.664062 C 363.484375 160.804688 363.433594 161.945312 363.328125 163.082031 C 363.222656 164.21875 363.0625 165.347656 362.851562 166.46875 C 362.636719 167.589844 362.367188 168.699219 362.046875 169.796875 C 361.726562 170.890625 361.355469 171.96875 360.929688 173.03125 C 360.507812 174.089844 360.03125 175.128906 359.507812 176.140625 C 358.984375 177.15625 358.410156 178.144531 357.792969 179.101562 C 357.175781 180.0625 356.511719 180.988281 355.800781 181.886719 C 355.09375 182.78125 354.34375 183.640625 353.554688 184.464844 C 352.761719 185.289062 351.933594 186.070312 351.070312 186.8125 C 350.203125 187.558594 349.300781 188.257812 348.367188 188.914062 C 347.4375 189.570312 346.472656 190.183594 345.480469 190.746094 C 344.488281 191.3125 343.472656 191.828125 342.429688 192.292969 C 341.386719 192.757812 340.328125 193.175781 339.246094 193.539062 C 338.164062 193.902344 337.066406 194.214844 335.957031 194.472656 C 334.84375 194.730469 333.722656 194.9375 332.589844 195.085938 C 331.460938 195.238281 330.324219 195.332031 329.183594 195.375 C 328.042969 195.417969 326.902344 195.402344 325.765625 195.335938 C 324.625 195.265625 323.492188 195.144531 322.363281 194.964844 C 321.238281 194.789062 320.121094 194.558594 319.015625 194.273438 C 317.910156 193.988281 316.820312 193.648438 315.75 193.261719 C 314.675781 192.871094 313.625 192.429688 312.59375 191.9375 C 311.5625 191.449219 310.558594 190.910156 309.582031 190.320312 C 308.601562 189.734375 307.65625 189.097656 306.738281 188.421875 C 305.820312 187.742188 304.9375 187.019531 304.089844 186.257812 C 303.238281 185.492188 302.429688 184.6875 301.660156 183.847656 C 300.886719 183.003906 300.160156 182.128906 299.472656 181.214844 L 255.34375 118.523438 C 254.511719 117.355469 253.757812 116.140625 253.085938 114.871094 C 252.425781 113.683594 251.640625 112.585938 250.734375 111.574219 C 249.828125 110.5625 248.820312 109.660156 247.710938 108.875 C 246.601562 108.089844 245.421875 107.4375 244.164062 106.917969 C 242.910156 106.394531 241.613281 106.019531 240.273438 105.792969 C 237.976562 105.414062 235.695312 105.496094 233.429688 106.035156 C 231.167969 106.578125 229.09375 107.535156 227.214844 108.90625 C 225.355469 110.269531 223.832031 111.933594 222.644531 113.90625 C 221.457031 115.878906 220.695312 118.007812 220.363281 120.285156 L 150.472656 549.628906 C 150.339844 550.484375 150.273438 551.347656 150.269531 552.210938 C 150.265625 553.078125 150.328125 553.9375 150.453125 554.792969 C 150.574219 555.652344 150.761719 556.496094 151.011719 557.324219 C 151.261719 558.152344 151.570312 558.957031 151.9375 559.742188 C 152.308594 560.523438 152.730469 561.277344 153.210938 561.996094 C 153.691406 562.714844 154.222656 563.398438 154.804688 564.039062 C 155.386719 564.679688 156.011719 565.273438 156.679688 565.820312 C 157.351562 566.371094 158.054688 566.867188 158.796875 567.308594 L 371.804688 670.707031 C 372.566406 671.082031 373.332031 671.488281 374.082031 671.917969 C 375.410156 672.621094 376.804688 673.144531 378.265625 673.488281 C 379.730469 673.832031 381.210938 673.984375 382.714844 673.945312 C 384.21875 673.90625 385.691406 673.679688 387.132812 673.257812 C 388.578125 672.839844 389.945312 672.246094 391.234375 671.472656 C 391.785156 671.167969 392.320312 670.882812 392.886719 670.617188 L 608.898438 567.347656 C 609.582031 566.894531 610.226562 566.394531 610.835938 565.847656 C 611.445312 565.300781 612.011719 564.714844 612.53125 564.082031 C 613.054688 563.453125 613.53125 562.789062 613.957031 562.089844 C 614.382812 561.394531 614.757812 560.667969 615.078125 559.914062 C 615.394531 559.160156 615.660156 558.386719 615.867188 557.597656 C 616.074219 556.804688 616.222656 556 616.3125 555.1875 C 616.402344 554.375 616.433594 553.558594 616.40625 552.742188 C 616.375 551.921875 616.289062 551.109375 616.140625 550.304688 L 562.761719 226.015625 C 562.515625 224.226562 562 222.523438 561.203125 220.902344 C 560.410156 219.28125 559.378906 217.828125 558.117188 216.542969 C 556.496094 214.933594 554.628906 213.699219 552.519531 212.835938 C 550.40625 211.972656 548.210938 211.546875 545.929688 211.554688 C 543.621094 211.554688 541.40625 212 539.28125 212.894531 C 537.15625 213.785156 535.285156 215.054688 533.667969 216.703125 C 532.84375 217.496094 531.984375 218.246094 531.085938 218.953125 C 530.1875 219.660156 529.261719 220.324219 528.300781 220.945312 C 527.335938 221.566406 526.347656 222.136719 525.332031 222.660156 C 524.316406 223.183594 523.277344 223.65625 522.21875 224.082031 C 521.15625 224.503906 520.074219 224.878906 518.976562 225.195312 C 517.878906 225.515625 516.769531 225.78125 515.648438 225.996094 C 514.523438 226.207031 513.394531 226.367188 512.253906 226.46875 C 511.117188 226.574219 509.976562 226.621094 508.832031 226.613281 C 507.691406 226.609375 506.550781 226.546875 505.414062 226.429688 C 504.277344 226.316406 503.148438 226.144531 502.027344 225.917969 C 500.90625 225.695312 499.800781 225.414062 498.707031 225.082031 C 497.613281 224.75 496.535156 224.367188 495.480469 223.933594 C 494.421875 223.496094 493.390625 223.011719 492.378906 222.476562 C 491.367188 221.941406 490.386719 221.359375 489.433594 220.726562 C 488.480469 220.097656 487.558594 219.421875 486.667969 218.703125 C 485.777344 217.984375 484.925781 217.226562 484.109375 216.425781 C 483.292969 215.625 482.519531 214.785156 481.785156 213.910156 C 481.046875 213.035156 480.355469 212.125 479.710938 211.183594 C 479.0625 210.238281 478.460938 209.269531 477.90625 208.269531 C 477.351562 207.265625 476.847656 206.242188 476.394531 205.195312 C 475.9375 204.144531 475.535156 203.074219 475.179688 201.988281 C 474.828125 200.898438 474.527344 199.796875 474.28125 198.679688 C 474.035156 197.5625 473.84375 196.4375 473.707031 195.300781 C 473.566406 194.167969 473.484375 193.027344 473.457031 191.882812 C 473.429688 190.742188 473.457031 189.597656 473.535156 188.457031 C 473.617188 187.316406 473.753906 186.183594 473.945312 185.054688 C 474.136719 183.925781 474.382812 182.8125 474.679688 181.707031 C 474.980469 180.601562 475.328125 179.515625 475.734375 178.445312 C 476.136719 177.375 476.589844 176.328125 477.09375 175.300781 C 477.597656 174.273438 478.148438 173.273438 478.75 172.300781 C 479.351562 171.328125 479.996094 170.386719 480.6875 169.472656 C 481.378906 168.5625 482.109375 167.6875 482.886719 166.847656 C 484.921875 164.761719 487.058594 162.78125 489.292969 160.90625 C 491.527344 159.035156 493.851562 157.277344 496.257812 155.636719 C 498.667969 153.992188 501.152344 152.476562 503.710938 151.082031 C 506.273438 149.6875 508.894531 148.421875 511.582031 147.289062 C 514.265625 146.15625 517.003906 145.160156 519.789062 144.300781 C 522.574219 143.4375 525.394531 142.71875 528.25 142.140625 C 531.105469 141.558594 533.984375 141.125 536.886719 140.832031 C 539.785156 140.539062 542.691406 140.390625 545.609375 140.386719 L 546.015625 140.386719 C 548.613281 140.382812 551.207031 140.488281 553.792969 140.710938 C 556.378906 140.933594 558.949219 141.273438 561.507812 141.722656 C 564.066406 142.175781 566.597656 142.738281 569.105469 143.414062 C 571.609375 144.089844 574.082031 144.875 576.519531 145.769531 C 578.957031 146.664062 581.351562 147.664062 583.703125 148.769531 C 586.050781 149.875 588.347656 151.085938 590.589844 152.394531 C 592.832031 153.703125 595.011719 155.113281 597.128906 156.613281 C 599.246094 158.117188 601.292969 159.710938 603.269531 161.398438 C 605.246094 163.082031 607.144531 164.851562 608.964844 166.703125 C 610.78125 168.558594 612.515625 170.488281 614.167969 172.492188 C 615.816406 174.5 617.371094 176.578125 618.839844 178.722656 C 620.304688 180.867188 621.671875 183.070312 622.941406 185.339844 C 624.210938 187.605469 625.378906 189.921875 626.445312 192.292969 C 627.507812 194.660156 628.464844 197.074219 629.316406 199.527344 C 630.167969 201.980469 630.910156 204.46875 631.542969 206.988281 C 632.171875 209.507812 632.691406 212.054688 633.097656 214.617188 L 686.476562 538.910156 C 686.84375 541.164062 687.121094 543.425781 687.3125 545.699219 C 687.503906 547.972656 687.605469 550.253906 687.621094 552.535156 C 687.636719 554.816406 687.5625 557.09375 687.398438 559.371094 C 687.238281 561.648438 686.988281 563.914062 686.648438 566.171875 C 686.3125 568.429688 685.886719 570.667969 685.378906 572.890625 C 684.867188 575.117188 684.269531 577.316406 683.589844 579.496094 C 682.90625 581.671875 682.140625 583.820312 681.292969 585.9375 C 680.445312 588.058594 679.519531 590.140625 678.507812 592.1875 C 677.5 594.234375 676.414062 596.238281 675.25 598.199219 C 674.085938 600.160156 672.847656 602.074219 671.535156 603.941406 C 670.222656 605.808594 668.839844 607.621094 667.386719 609.378906 C 665.933594 611.140625 664.414062 612.839844 662.828125 614.480469 C 661.246094 616.121094 659.597656 617.699219 657.894531 619.210938 C 656.1875 620.726562 654.421875 622.171875 652.605469 623.546875 C 650.785156 624.925781 648.917969 626.230469 646.996094 627.460938 C 645.078125 628.695312 643.113281 629.847656 641.105469 630.929688 L 424.382812 734.59375 C 417.832031 738.074219 410.960938 740.710938 403.769531 742.511719 C 396.574219 744.308594 389.269531 745.210938 381.855469 745.222656 Z M 381.855469 745.222656 " fill-opacity="1" fill-rule="nonzero"/></g><path fill="#ffffff" d="M 120.328125 609.457031 C 118.570312 609.457031 116.820312 609.328125 115.082031 609.070312 C 113.339844 608.8125 111.628906 608.429688 109.945312 607.914062 C 108.261719 607.402344 106.628906 606.769531 105.039062 606.015625 C 103.449219 605.261719 101.925781 604.394531 100.464844 603.410156 C 99.003906 602.429688 97.625 601.347656 96.324219 600.160156 C 95.023438 598.976562 93.816406 597.699219 92.707031 596.335938 C 91.597656 594.96875 90.59375 593.53125 89.695312 592.015625 C 88.796875 590.503906 88.015625 588.933594 87.351562 587.300781 C 86.6875 585.671875 86.144531 584.003906 85.726562 582.292969 C 85.308594 580.582031 85.019531 578.851562 84.859375 577.097656 C 84.699219 575.34375 84.667969 573.589844 84.769531 571.832031 C 84.867188 570.074219 85.097656 568.335938 85.453125 566.609375 C 85.8125 564.886719 86.292969 563.199219 86.902344 561.546875 C 87.507812 559.894531 88.234375 558.296875 89.078125 556.753906 C 89.921875 555.210938 90.875 553.734375 91.9375 552.332031 C 93 550.929688 94.160156 549.613281 95.417969 548.382812 L 484.382812 168.039062 C 485.214844 167.222656 486.085938 166.453125 486.996094 165.722656 C 487.90625 164.992188 488.851562 164.308594 489.828125 163.671875 C 490.804688 163.035156 491.8125 162.445312 492.84375 161.90625 C 493.878906 161.371094 494.9375 160.882812 496.019531 160.449219 C 497.101562 160.015625 498.203125 159.632812 499.324219 159.308594 C 500.445312 158.984375 501.578125 158.710938 502.722656 158.496094 C 503.871094 158.28125 505.023438 158.125 506.183594 158.023438 C 507.347656 157.921875 508.511719 157.878906 509.675781 157.890625 C 510.84375 157.90625 512.007812 157.976562 513.164062 158.101562 C 514.324219 158.230469 515.476562 158.414062 516.617188 158.652344 C 517.757812 158.894531 518.882812 159.191406 519.996094 159.542969 C 521.109375 159.890625 522.199219 160.296875 523.273438 160.753906 C 524.34375 161.214844 525.390625 161.722656 526.414062 162.285156 C 527.4375 162.847656 528.429688 163.457031 529.390625 164.117188 C 530.355469 164.777344 531.28125 165.480469 532.175781 166.230469 C 533.070312 166.980469 533.921875 167.773438 534.738281 168.605469 C 535.554688 169.441406 536.328125 170.3125 537.058594 171.222656 C 537.789062 172.132812 538.472656 173.078125 539.109375 174.054688 C 539.746094 175.03125 540.332031 176.039062 540.871094 177.074219 C 541.410156 178.109375 541.898438 179.167969 542.332031 180.25 C 542.765625 181.332031 543.148438 182.433594 543.472656 183.554688 C 543.800781 184.675781 544.070312 185.808594 544.285156 186.957031 C 544.5 188.101562 544.660156 189.257812 544.761719 190.421875 C 544.863281 191.582031 544.910156 192.746094 544.894531 193.914062 C 544.882812 195.082031 544.8125 196.246094 544.6875 197.40625 C 544.5625 198.566406 544.378906 199.714844 544.136719 200.859375 C 543.898438 202 543.601562 203.128906 543.253906 204.242188 C 542.902344 205.355469 542.5 206.445312 542.042969 207.519531 C 541.582031 208.59375 541.074219 209.640625 540.515625 210.664062 C 539.953125 211.6875 539.34375 212.683594 538.6875 213.644531 C 538.027344 214.609375 537.324219 215.539062 536.574219 216.433594 C 535.828125 217.328125 535.035156 218.183594 534.203125 219 L 145.242188 599.324219 C 143.59375 600.9375 141.804688 602.378906 139.878906 603.644531 C 137.949219 604.910156 135.917969 605.976562 133.78125 606.84375 C 131.644531 607.714844 129.445312 608.367188 127.183594 608.804688 C 124.917969 609.246094 122.636719 609.460938 120.328125 609.457031 Z M 120.328125 609.457031 " fill-opacity="1" fill-rule="nonzero"/></svg>