<svg xmlns="http://www.w3.org/2000/svg" xmlns:xlink="http://www.w3.org/1999/xlink" width="1024" zoomAndPan="magnify" viewBox="0 0 768 767.999994" height="1024" preserveAspectRatio="xMidYMid meet" version="1.0"><defs><clipPath id="2fa1bdaa84"><path d="M 22.652344 31.488281 L 736.652344 31.488281 L 736.652344 745.488281 L 22.652344 745.488281 Z M 22.652344 31.488281 " clip-rule="nonzero"/></clipPath></defs><g clip-path="url(#2fa1bdaa84)"><path fill="#f5f5f5" d="M 681.191406 314.019531 L 665.914062 314.019531 C 657.445312 314.019531 649.972656 308.539062 647.316406 300.566406 C 642.835938 287.117188 637.519531 274 631.046875 261.546875 C 627.226562 253.910156 628.554688 244.777344 634.699219 238.632812 L 645.65625 227.675781 C 667.242188 206.085938 667.242188 170.71875 645.65625 149.132812 L 618.757812 122.566406 C 597.171875 100.980469 561.96875 100.980469 540.21875 122.566406 L 529.257812 133.527344 C 523.28125 139.503906 513.984375 140.996094 506.511719 137.179688 C 494.058594 130.867188 480.9375 125.390625 467.488281 120.90625 C 459.351562 118.25 454.039062 110.777344 454.039062 102.308594 L 454.039062 87.03125 C 454.039062 56.480469 429.132812 31.574219 398.582031 31.574219 L 360.886719 31.574219 C 330.335938 31.574219 305.429688 56.480469 305.429688 87.03125 L 305.429688 102.308594 C 305.429688 110.777344 299.949219 118.25 291.976562 120.90625 C 278.527344 125.390625 265.410156 130.703125 252.957031 137.179688 C 245.320312 140.996094 236.1875 139.667969 230.042969 133.527344 L 219.082031 122.566406 C 197.496094 100.980469 162.128906 100.980469 140.542969 122.566406 L 113.808594 149.300781 C 92.222656 170.886719 92.222656 206.253906 113.808594 227.839844 L 124.769531 238.800781 C 130.746094 244.777344 132.242188 253.910156 128.421875 261.546875 C 122.113281 274 116.632812 287.117188 112.148438 300.566406 C 109.492188 308.703125 102.019531 314.019531 93.554688 314.019531 L 78.277344 314.019531 C 47.558594 314.019531 22.652344 338.925781 22.652344 369.644531 L 22.652344 407.335938 C 22.652344 437.890625 47.558594 462.796875 78.109375 462.796875 L 93.386719 462.796875 C 101.855469 462.796875 109.328125 468.273438 111.984375 476.246094 C 116.46875 489.695312 121.78125 502.8125 128.257812 515.265625 C 132.074219 522.90625 130.746094 532.039062 124.601562 538.179688 L 113.644531 549.140625 C 92.058594 570.726562 92.058594 606.09375 113.644531 627.679688 L 140.542969 654.246094 C 162.128906 675.832031 197.332031 675.832031 219.082031 654.246094 L 230.042969 643.289062 C 236.019531 637.3125 245.320312 635.816406 252.792969 639.636719 C 265.246094 645.945312 278.363281 651.425781 291.8125 655.90625 C 299.949219 658.566406 305.261719 666.035156 305.261719 674.503906 L 305.261719 689.949219 C 305.261719 720.5 330.167969 745.40625 360.722656 745.40625 L 398.414062 745.40625 C 428.964844 745.40625 453.875 720.5 453.875 689.949219 L 453.875 674.503906 C 453.875 666.035156 459.351562 658.566406 467.324219 655.90625 C 480.773438 651.425781 493.890625 646.109375 506.34375 639.636719 C 513.984375 635.816406 523.113281 637.144531 529.257812 643.289062 L 540.21875 654.246094 C 561.804688 675.832031 597.171875 675.832031 618.757812 654.246094 L 645.492188 627.515625 C 667.078125 605.929688 667.078125 570.558594 645.492188 548.972656 L 634.53125 538.015625 C 628.554688 532.039062 627.058594 522.90625 630.878906 515.265625 C 637.1875 502.8125 642.667969 489.695312 647.152344 476.246094 C 649.808594 468.109375 657.28125 462.796875 665.75 462.796875 L 681.023438 462.796875 C 711.578125 462.796875 736.484375 437.890625 736.484375 407.335938 L 736.484375 369.644531 C 736.652344 338.925781 711.742188 314.019531 681.191406 314.019531 Z M 700.949219 407.171875 C 700.949219 418.128906 691.984375 426.929688 681.191406 426.929688 L 665.914062 426.929688 C 642.003906 426.929688 620.917969 442.207031 613.445312 464.953125 C 609.625 476.578125 604.808594 488.035156 599.332031 498.992188 C 588.539062 520.414062 592.523438 546.152344 609.460938 563.253906 L 620.417969 574.214844 C 628.222656 582.015625 628.222656 594.46875 620.417969 602.273438 L 593.683594 629.007812 C 585.878906 636.8125 573.261719 636.648438 565.621094 629.007812 L 554.664062 618.050781 C 537.726562 601.113281 511.988281 596.960938 490.402344 607.921875 C 479.445312 613.398438 468.152344 618.214844 456.363281 622.035156 C 433.617188 629.507812 418.339844 650.59375 418.339844 674.503906 L 418.339844 689.949219 C 418.339844 700.90625 409.375 709.707031 398.582031 709.707031 L 360.886719 709.707031 C 349.929688 709.707031 341.128906 700.742188 341.128906 689.949219 L 341.128906 674.503906 C 341.128906 650.59375 325.851562 629.507812 303.101562 622.035156 C 291.480469 618.214844 280.023438 613.398438 269.0625 607.921875 C 261.09375 603.933594 252.460938 601.941406 243.992188 601.941406 C 229.710938 601.941406 215.597656 607.589844 204.96875 618.214844 L 194.011719 629.175781 C 186.207031 636.8125 173.753906 636.980469 165.949219 629.175781 L 139.214844 602.441406 C 131.410156 594.636719 131.410156 582.183594 139.214844 574.378906 L 150.175781 563.417969 C 167.113281 546.484375 171.261719 520.746094 160.304688 499.160156 C 154.824219 488.199219 150.007812 476.910156 146.191406 465.121094 C 138.71875 442.371094 117.628906 427.097656 93.71875 427.097656 L 78.441406 427.097656 C 67.484375 427.097656 58.683594 418.128906 58.683594 407.335938 L 58.683594 369.644531 C 58.683594 358.683594 67.648438 349.882812 78.441406 349.882812 L 93.71875 349.882812 C 117.628906 349.882812 138.71875 334.609375 146.191406 311.859375 C 150.007812 300.234375 154.824219 288.777344 160.304688 277.820312 C 171.097656 256.398438 167.113281 230.664062 150.175781 213.558594 L 139.214844 202.601562 C 131.410156 194.796875 131.410156 182.34375 139.214844 174.539062 L 165.949219 147.804688 C 173.753906 140 186.207031 140 194.011719 147.804688 L 204.96875 158.765625 C 221.90625 175.703125 247.808594 179.851562 269.230469 168.894531 C 280.1875 163.414062 291.480469 158.597656 303.269531 154.78125 C 326.019531 147.308594 341.292969 126.21875 341.292969 102.308594 L 341.292969 87.03125 C 341.292969 76.074219 350.261719 67.273438 361.054688 67.273438 L 398.746094 67.273438 C 409.707031 67.273438 418.503906 76.238281 418.503906 87.03125 L 418.503906 102.308594 C 418.503906 126.21875 433.78125 147.308594 456.53125 154.78125 C 468.152344 158.597656 479.609375 163.414062 490.570312 168.894531 C 511.988281 179.6875 537.726562 175.703125 554.828125 158.765625 L 565.789062 147.804688 C 573.425781 140 586.046875 140 593.851562 147.804688 L 620.585938 174.539062 C 628.386719 182.34375 628.386719 194.796875 620.585938 202.601562 L 609.625 213.558594 C 592.6875 230.496094 588.539062 256.234375 599.496094 277.820312 C 604.976562 288.777344 609.792969 300.070312 613.609375 311.859375 C 621.082031 334.609375 642.171875 349.882812 666.082031 349.882812 L 681.355469 349.882812 C 692.316406 349.882812 701.117188 358.851562 701.117188 369.644531 L 701.117188 407.171875 Z M 700.949219 407.171875 " fill-opacity="1" fill-rule="nonzero"/></g><path fill="#f5f5f5" d="M 379.652344 200.941406 C 276.371094 200.941406 192.183594 284.960938 192.183594 388.40625 C 192.183594 491.855469 276.371094 575.875 379.652344 575.875 C 482.933594 575.875 567.117188 491.6875 567.117188 388.40625 C 567.117188 285.125 482.933594 200.941406 379.652344 200.941406 Z M 379.652344 540.171875 C 295.964844 540.171875 227.882812 472.09375 227.882812 388.40625 C 227.882812 304.71875 295.964844 236.640625 379.652344 236.640625 C 463.339844 236.640625 531.417969 304.71875 531.417969 388.40625 C 531.417969 472.09375 463.339844 540.171875 379.652344 540.171875 Z M 379.652344 540.171875 " fill-opacity="1" fill-rule="nonzero"/></svg>