<svg xmlns="http://www.w3.org/2000/svg" xmlns:xlink="http://www.w3.org/1999/xlink" width="1024" zoomAndPan="magnify" viewBox="0 0 768 767.999994" height="1024" preserveAspectRatio="xMidYMid meet" version="1.0"><path fill="#ffffff" d="M 595.003906 390.082031 C 595.003906 391.238281 594.976562 392.394531 594.921875 393.550781 C 594.863281 394.707031 594.777344 395.859375 594.664062 397.007812 C 594.550781 398.160156 594.410156 399.308594 594.242188 400.449219 C 594.070312 401.59375 593.875 402.734375 593.648438 403.867188 C 593.421875 405.003906 593.167969 406.128906 592.886719 407.25 C 592.605469 408.375 592.296875 409.488281 591.960938 410.59375 C 591.628906 411.699219 591.265625 412.796875 590.875 413.886719 C 590.484375 414.976562 590.070312 416.054688 589.625 417.121094 C 589.183594 418.191406 588.714844 419.246094 588.222656 420.292969 C 587.726562 421.339844 587.207031 422.371094 586.664062 423.390625 C 586.117188 424.410156 585.546875 425.417969 584.953125 426.410156 C 584.359375 427.398438 583.738281 428.375 583.097656 429.339844 C 582.453125 430.300781 581.789062 431.246094 581.101562 432.171875 C 580.410156 433.101562 579.699219 434.015625 578.96875 434.90625 C 578.234375 435.800781 577.476562 436.675781 576.703125 437.535156 C 575.925781 438.390625 575.128906 439.226562 574.308594 440.046875 C 573.492188 440.863281 572.65625 441.660156 571.796875 442.4375 C 570.941406 443.214844 570.066406 443.96875 569.171875 444.703125 C 568.277344 445.4375 567.367188 446.148438 566.4375 446.835938 C 565.507812 447.523438 564.566406 448.191406 563.601562 448.832031 C 562.640625 449.476562 561.664062 450.09375 560.671875 450.6875 C 559.679688 451.28125 558.675781 451.851562 557.65625 452.398438 C 556.636719 452.941406 555.601562 453.460938 554.558594 453.957031 C 553.511719 454.449219 552.457031 454.917969 551.386719 455.363281 C 550.320312 455.804688 549.242188 456.21875 548.152344 456.609375 C 547.0625 457 545.964844 457.363281 544.859375 457.699219 C 543.753906 458.035156 542.636719 458.34375 541.515625 458.621094 C 540.394531 458.902344 539.265625 459.15625 538.132812 459.382812 C 537 459.609375 535.859375 459.804688 534.714844 459.976562 C 533.570312 460.144531 532.425781 460.285156 531.273438 460.398438 C 530.125 460.511719 528.96875 460.597656 527.816406 460.65625 C 526.660156 460.710938 525.503906 460.742188 524.347656 460.742188 C 523.191406 460.742188 522.035156 460.710938 520.882812 460.65625 C 519.726562 460.597656 518.574219 460.511719 517.421875 460.398438 C 516.273438 460.285156 515.125 460.144531 513.980469 459.976562 C 512.835938 459.804688 511.699219 459.609375 510.5625 459.382812 C 509.429688 459.15625 508.300781 458.902344 507.179688 458.621094 C 506.058594 458.34375 504.945312 458.035156 503.835938 457.699219 C 502.730469 457.363281 501.632812 457 500.542969 456.609375 C 499.457031 456.21875 498.378906 455.804688 497.308594 455.363281 C 496.242188 454.917969 495.183594 454.449219 494.136719 453.957031 C 493.09375 453.460938 492.0625 452.941406 491.039062 452.398438 C 490.019531 451.851562 489.015625 451.28125 488.023438 450.6875 C 487.03125 450.09375 486.054688 449.476562 485.09375 448.832031 C 484.132812 448.191406 483.1875 447.523438 482.257812 446.835938 C 481.328125 446.148438 480.417969 445.4375 479.523438 444.703125 C 478.628906 443.96875 477.753906 443.214844 476.898438 442.4375 C 476.042969 441.660156 475.203125 440.863281 474.386719 440.046875 C 473.570312 439.226562 472.769531 438.390625 471.996094 437.535156 C 471.21875 436.675781 470.464844 435.800781 469.730469 434.90625 C 468.996094 434.015625 468.285156 433.101562 467.597656 432.171875 C 466.90625 431.246094 466.242188 430.300781 465.597656 429.339844 C 464.957031 428.375 464.339844 427.398438 463.742188 426.410156 C 463.148438 425.417969 462.578125 424.410156 462.035156 423.390625 C 461.488281 422.371094 460.96875 421.339844 460.476562 420.292969 C 459.980469 419.246094 459.511719 418.191406 459.070312 417.121094 C 458.628906 416.054688 458.210938 414.976562 457.820312 413.886719 C 457.433594 412.796875 457.070312 411.699219 456.734375 410.59375 C 456.398438 409.488281 456.089844 408.375 455.808594 407.25 C 455.527344 406.128906 455.273438 405.003906 455.050781 403.867188 C 454.824219 402.734375 454.625 401.59375 454.457031 400.449219 C 454.285156 399.308594 454.144531 398.160156 454.03125 397.007812 C 453.917969 395.859375 453.832031 394.707031 453.777344 393.550781 C 453.71875 392.394531 453.691406 391.238281 453.691406 390.082031 C 453.691406 388.925781 453.71875 387.773438 453.777344 386.617188 C 453.832031 385.460938 453.917969 384.308594 454.03125 383.15625 C 454.144531 382.007812 454.285156 380.859375 454.457031 379.714844 C 454.625 378.570312 454.824219 377.433594 455.050781 376.300781 C 455.273438 375.164062 455.527344 374.035156 455.808594 372.914062 C 456.089844 371.792969 456.398438 370.679688 456.734375 369.574219 C 457.070312 368.464844 457.433594 367.367188 457.820312 366.28125 C 458.210938 365.191406 458.628906 364.113281 459.070312 363.042969 C 459.511719 361.976562 459.980469 360.917969 460.476562 359.875 C 460.96875 358.828125 461.488281 357.796875 462.035156 356.777344 C 462.578125 355.757812 463.148438 354.75 463.742188 353.757812 C 464.339844 352.765625 464.957031 351.789062 465.597656 350.828125 C 466.242188 349.867188 466.90625 348.921875 467.597656 347.992188 C 468.285156 347.0625 468.996094 346.152344 469.730469 345.257812 C 470.464844 344.367188 471.21875 343.488281 471.996094 342.632812 C 472.769531 341.777344 473.570312 340.9375 474.386719 340.121094 C 475.203125 339.304688 476.042969 338.507812 476.898438 337.730469 C 477.753906 336.953125 478.628906 336.199219 479.523438 335.464844 C 480.417969 334.730469 481.328125 334.019531 482.257812 333.332031 C 483.1875 332.640625 484.132812 331.976562 485.09375 331.335938 C 486.054688 330.691406 487.03125 330.074219 488.023438 329.480469 C 489.015625 328.882812 490.019531 328.316406 491.039062 327.769531 C 492.0625 327.222656 493.09375 326.703125 494.136719 326.210938 C 495.183594 325.714844 496.242188 325.246094 497.308594 324.804688 C 498.378906 324.363281 499.457031 323.945312 500.542969 323.558594 C 501.632812 323.167969 502.730469 322.804688 503.835938 322.46875 C 504.945312 322.132812 506.058594 321.824219 507.179688 321.542969 C 508.300781 321.261719 509.429688 321.011719 510.5625 320.785156 C 511.699219 320.558594 512.835938 320.359375 513.980469 320.191406 C 515.125 320.023438 516.273438 319.878906 517.421875 319.765625 C 518.574219 319.652344 519.726562 319.570312 520.882812 319.511719 C 522.035156 319.453125 523.191406 319.425781 524.347656 319.425781 C 525.503906 319.425781 526.660156 319.453125 527.816406 319.511719 C 528.96875 319.570312 530.125 319.652344 531.273438 319.765625 C 532.425781 319.878906 533.570312 320.023438 534.714844 320.191406 C 535.859375 320.359375 537 320.558594 538.132812 320.785156 C 539.265625 321.011719 540.394531 321.261719 541.515625 321.542969 C 542.636719 321.824219 543.753906 322.132812 544.859375 322.46875 C 545.964844 322.804688 547.0625 323.167969 548.152344 323.558594 C 549.242188 323.945312 550.320312 324.363281 551.386719 324.804688 C 552.457031 325.246094 553.511719 325.714844 554.558594 326.210938 C 555.601562 326.703125 556.636719 327.222656 557.65625 327.769531 C 558.675781 328.316406 559.679688 328.882812 560.671875 329.480469 C 561.664062 330.074219 562.640625 330.691406 563.601562 331.335938 C 564.566406 331.976562 565.507812 332.640625 566.4375 333.332031 C 567.367188 334.019531 568.277344 334.730469 569.171875 335.464844 C 570.066406 336.199219 570.941406 336.953125 571.796875 337.730469 C 572.65625 338.507812 573.492188 339.304688 574.308594 340.121094 C 575.128906 340.9375 575.925781 341.777344 576.703125 342.632812 C 577.476562 343.488281 578.234375 344.367188 578.96875 345.257812 C 579.699219 346.152344 580.410156 347.0625 581.101562 347.992188 C 581.789062 348.921875 582.453125 349.867188 583.097656 350.828125 C 583.738281 351.789062 584.359375 352.765625 584.953125 353.757812 C 585.546875 354.75 586.117188 355.757812 586.664062 356.777344 C 587.207031 357.796875 587.726562 358.828125 588.222656 359.875 C 588.714844 360.917969 589.183594 361.976562 589.625 363.042969 C 590.070312 364.113281 590.484375 365.191406 590.875 366.28125 C 591.265625 367.367188 591.628906 368.464844 591.960938 369.574219 C 592.296875 370.679688 592.605469 371.792969 592.886719 372.914062 C 593.167969 374.035156 593.421875 375.164062 593.648438 376.300781 C 593.875 377.433594 594.070312 378.570312 594.242188 379.714844 C 594.410156 380.859375 594.550781 382.007812 594.664062 383.15625 C 594.777344 384.308594 594.863281 385.460938 594.921875 386.617188 C 594.976562 387.773438 595.003906 388.925781 595.003906 390.082031 Z M 595.003906 390.082031 " fill-opacity="1" fill-rule="nonzero"/><path fill="#ffffff" d="M 453.691406 248.769531 C 453.691406 249.925781 453.664062 251.082031 453.605469 252.238281 C 453.550781 253.390625 453.464844 254.542969 453.351562 255.695312 C 453.238281 256.847656 453.097656 257.992188 452.925781 259.136719 C 452.757812 260.28125 452.558594 261.421875 452.332031 262.554688 C 452.109375 263.6875 451.855469 264.816406 451.574219 265.9375 C 451.292969 267.058594 450.984375 268.171875 450.648438 269.28125 C 450.3125 270.386719 449.949219 271.484375 449.5625 272.574219 C 449.171875 273.660156 448.753906 274.742188 448.3125 275.808594 C 447.871094 276.878906 447.402344 277.933594 446.90625 278.980469 C 446.414062 280.023438 445.894531 281.058594 445.347656 282.078125 C 444.804688 283.097656 444.234375 284.101562 443.640625 285.09375 C 443.042969 286.085938 442.425781 287.0625 441.785156 288.023438 C 441.140625 288.984375 440.476562 289.929688 439.785156 290.859375 C 439.097656 291.789062 438.386719 292.699219 437.652344 293.59375 C 436.917969 294.488281 436.164062 295.363281 435.386719 296.21875 C 434.609375 297.078125 433.8125 297.914062 432.996094 298.730469 C 432.179688 299.550781 431.339844 300.347656 430.484375 301.121094 C 429.628906 301.898438 428.753906 302.65625 427.859375 303.386719 C 426.964844 304.121094 426.054688 304.832031 425.125 305.523438 C 424.195312 306.210938 423.25 306.875 422.289062 307.519531 C 421.328125 308.160156 420.351562 308.78125 419.359375 309.375 C 418.367188 309.96875 417.363281 310.539062 416.34375 311.082031 C 415.320312 311.628906 414.289062 312.148438 413.242188 312.644531 C 412.199219 313.136719 411.140625 313.605469 410.074219 314.046875 C 409.003906 314.492188 407.925781 314.90625 406.839844 315.296875 C 405.75 315.6875 404.652344 316.046875 403.546875 316.382812 C 402.4375 316.71875 401.324219 317.027344 400.203125 317.308594 C 399.082031 317.589844 397.953125 317.84375 396.820312 318.070312 C 395.683594 318.292969 394.546875 318.492188 393.402344 318.660156 C 392.257812 318.832031 391.109375 318.972656 389.960938 319.085938 C 388.808594 319.199219 387.65625 319.285156 386.5 319.339844 C 385.347656 319.398438 384.191406 319.425781 383.035156 319.425781 C 381.878906 319.425781 380.722656 319.398438 379.566406 319.339844 C 378.414062 319.285156 377.257812 319.199219 376.109375 319.085938 C 374.957031 318.972656 373.8125 318.832031 372.667969 318.660156 C 371.523438 318.492188 370.382812 318.292969 369.25 318.070312 C 368.117188 317.84375 366.988281 317.589844 365.867188 317.308594 C 364.746094 317.027344 363.628906 316.71875 362.523438 316.382812 C 361.417969 316.046875 360.320312 315.6875 359.230469 315.296875 C 358.140625 314.90625 357.0625 314.492188 355.996094 314.046875 C 354.925781 313.605469 353.871094 313.136719 352.824219 312.644531 C 351.777344 312.148438 350.746094 311.628906 349.726562 311.082031 C 348.707031 310.539062 347.703125 309.96875 346.710938 309.375 C 345.71875 308.78125 344.742188 308.160156 343.78125 307.519531 C 342.816406 306.875 341.871094 306.210938 340.945312 305.523438 C 340.015625 304.832031 339.105469 304.121094 338.210938 303.386719 C 337.316406 302.65625 336.441406 301.898438 335.585938 301.121094 C 334.726562 300.347656 333.890625 299.550781 333.074219 298.730469 C 332.253906 297.914062 331.457031 297.078125 330.679688 296.21875 C 329.90625 295.363281 329.148438 294.488281 328.414062 293.59375 C 327.683594 292.699219 326.972656 291.789062 326.28125 290.859375 C 325.59375 289.929688 324.925781 288.984375 324.285156 288.023438 C 323.644531 287.0625 323.023438 286.085938 322.429688 285.09375 C 321.835938 284.101562 321.265625 283.097656 320.71875 282.078125 C 320.175781 281.058594 319.65625 280.023438 319.160156 278.980469 C 318.667969 277.933594 318.199219 276.878906 317.753906 275.808594 C 317.3125 274.742188 316.898438 273.660156 316.507812 272.574219 C 316.117188 271.484375 315.753906 270.386719 315.417969 269.28125 C 315.085938 268.171875 314.777344 267.058594 314.496094 265.9375 C 314.214844 264.816406 313.960938 263.6875 313.734375 262.554688 C 313.507812 261.421875 313.3125 260.28125 313.140625 259.136719 C 312.972656 257.992188 312.832031 256.847656 312.71875 255.695312 C 312.605469 254.542969 312.519531 253.390625 312.460938 252.238281 C 312.40625 251.082031 312.378906 249.925781 312.378906 248.769531 C 312.378906 247.613281 312.40625 246.457031 312.460938 245.300781 C 312.519531 244.148438 312.605469 242.996094 312.71875 241.84375 C 312.832031 240.691406 312.972656 239.546875 313.140625 238.402344 C 313.3125 237.257812 313.507812 236.121094 313.734375 234.984375 C 313.960938 233.851562 314.214844 232.722656 314.496094 231.601562 C 314.777344 230.480469 315.085938 229.367188 315.417969 228.257812 C 315.753906 227.152344 316.117188 226.054688 316.507812 224.964844 C 316.898438 223.878906 317.3125 222.796875 317.753906 221.730469 C 318.199219 220.660156 318.667969 219.605469 319.160156 218.558594 C 319.65625 217.515625 320.175781 216.480469 320.71875 215.460938 C 321.265625 214.441406 321.835938 213.4375 322.429688 212.445312 C 323.023438 211.453125 323.644531 210.476562 324.285156 209.515625 C 324.925781 208.554688 325.59375 207.609375 326.28125 206.679688 C 326.972656 205.75 327.683594 204.839844 328.414062 203.945312 C 329.148438 203.050781 329.90625 202.175781 330.679688 201.320312 C 331.457031 200.460938 332.253906 199.625 333.074219 198.808594 C 333.890625 197.988281 334.726562 197.191406 335.585938 196.417969 C 336.441406 195.640625 337.316406 194.882812 338.210938 194.152344 C 339.105469 193.417969 340.015625 192.707031 340.945312 192.015625 C 341.871094 191.328125 342.816406 190.664062 343.78125 190.019531 C 344.742188 189.378906 345.71875 188.757812 346.710938 188.164062 C 347.703125 187.570312 348.707031 187 349.726562 186.457031 C 350.746094 185.910156 351.78125 185.390625 352.824219 184.898438 C 353.871094 184.402344 354.925781 183.933594 355.996094 183.492188 C 357.0625 183.046875 358.140625 182.632812 359.230469 182.242188 C 360.320312 181.851562 361.417969 181.492188 362.523438 181.15625 C 363.628906 180.820312 364.746094 180.511719 365.867188 180.230469 C 366.988281 179.949219 368.117188 179.695312 369.25 179.46875 C 370.382812 179.246094 371.523438 179.046875 372.667969 178.878906 C 373.8125 178.707031 374.957031 178.566406 376.109375 178.453125 C 377.257812 178.339844 378.414062 178.253906 379.566406 178.199219 C 380.722656 178.140625 381.878906 178.113281 383.035156 178.113281 C 384.191406 178.113281 385.347656 178.140625 386.5 178.199219 C 387.65625 178.253906 388.808594 178.339844 389.960938 178.453125 C 391.109375 178.566406 392.257812 178.707031 393.402344 178.878906 C 394.546875 179.046875 395.683594 179.246094 396.820312 179.46875 C 397.953125 179.695312 399.082031 179.949219 400.203125 180.230469 C 401.324219 180.511719 402.4375 180.820312 403.546875 181.15625 C 404.652344 181.492188 405.75 181.851562 406.839844 182.242188 C 407.925781 182.632812 409.003906 183.046875 410.074219 183.492188 C 411.140625 183.933594 412.199219 184.402344 413.242188 184.898438 C 414.289062 185.390625 415.320312 185.910156 416.34375 186.457031 C 417.363281 187 418.367188 187.570312 419.359375 188.164062 C 420.351562 188.757812 421.328125 189.378906 422.289062 190.019531 C 423.25 190.664062 424.195312 191.328125 425.125 192.015625 C 426.054688 192.707031 426.964844 193.417969 427.859375 194.152344 C 428.753906 194.882812 429.628906 195.640625 430.484375 196.417969 C 431.339844 197.191406 432.179688 197.988281 432.996094 198.808594 C 433.8125 199.625 434.609375 200.460938 435.386719 201.320312 C 436.164062 202.175781 436.917969 203.050781 437.652344 203.945312 C 438.386719 204.839844 439.097656 205.75 439.785156 206.679688 C 440.476562 207.609375 441.140625 208.554688 441.785156 209.515625 C 442.425781 210.476562 443.042969 211.453125 443.640625 212.445312 C 444.234375 213.4375 444.804688 214.441406 445.347656 215.460938 C 445.894531 216.480469 446.414062 217.515625 446.90625 218.558594 C 447.402344 219.605469 447.871094 220.660156 448.3125 221.730469 C 448.753906 222.796875 449.171875 223.878906 449.5625 224.964844 C 449.949219 226.054688 450.3125 227.152344 450.648438 228.257812 C 450.984375 229.367188 451.292969 230.480469 451.574219 231.601562 C 451.855469 232.722656 452.109375 233.851562 452.332031 234.984375 C 452.558594 236.121094 452.757812 237.257812 452.925781 238.402344 C 453.097656 239.546875 453.238281 240.691406 453.351562 241.84375 C 453.464844 242.996094 453.550781 244.148438 453.605469 245.300781 C 453.664062 246.457031 453.691406 247.613281 453.691406 248.769531 Z M 453.691406 248.769531 " fill-opacity="1" fill-rule="nonzero"/><path fill="#ffffff" d="M 453.691406 531.398438 C 453.691406 532.554688 453.664062 533.710938 453.605469 534.863281 C 453.550781 536.019531 453.464844 537.171875 453.351562 538.324219 C 453.238281 539.472656 453.097656 540.621094 452.925781 541.765625 C 452.757812 542.910156 452.558594 544.046875 452.332031 545.183594 C 452.109375 546.316406 451.855469 547.445312 451.574219 548.566406 C 451.292969 549.6875 450.984375 550.800781 450.648438 551.90625 C 450.3125 553.015625 449.949219 554.113281 449.5625 555.199219 C 449.171875 556.289062 448.753906 557.367188 448.3125 558.4375 C 447.871094 559.503906 447.402344 560.5625 446.90625 561.605469 C 446.414062 562.652344 445.894531 563.683594 445.347656 564.703125 C 444.804688 565.722656 444.234375 566.730469 443.640625 567.722656 C 443.042969 568.714844 442.425781 569.691406 441.785156 570.652344 C 441.140625 571.613281 440.476562 572.558594 439.785156 573.488281 C 439.097656 574.417969 438.386719 575.328125 437.652344 576.222656 C 436.917969 577.117188 436.164062 577.992188 435.386719 578.847656 C 434.609375 579.703125 433.8125 580.542969 432.996094 581.359375 C 432.179688 582.175781 431.339844 582.972656 430.484375 583.75 C 429.628906 584.527344 428.753906 585.28125 427.859375 586.015625 C 426.964844 586.75 426.054688 587.460938 425.125 588.148438 C 424.195312 588.839844 423.25 589.503906 422.289062 590.144531 C 421.328125 590.789062 420.351562 591.40625 419.359375 592 C 418.367188 592.597656 417.363281 593.167969 416.34375 593.710938 C 415.320312 594.257812 414.289062 594.777344 413.242188 595.269531 C 412.199219 595.765625 411.140625 596.234375 410.074219 596.675781 C 409.003906 597.117188 407.925781 597.535156 406.839844 597.925781 C 405.75 598.3125 404.652344 598.675781 403.546875 599.011719 C 402.4375 599.347656 401.324219 599.65625 400.203125 599.9375 C 399.082031 600.21875 397.953125 600.472656 396.820312 600.695312 C 395.683594 600.921875 394.546875 601.121094 393.402344 601.289062 C 392.257812 601.460938 391.109375 601.601562 389.960938 601.714844 C 388.808594 601.828125 387.65625 601.914062 386.5 601.96875 C 385.347656 602.027344 384.191406 602.054688 383.035156 602.054688 C 381.878906 602.054688 380.722656 602.027344 379.566406 601.96875 C 378.414062 601.914062 377.257812 601.828125 376.109375 601.714844 C 374.957031 601.601562 373.8125 601.460938 372.667969 601.289062 C 371.523438 601.121094 370.382812 600.921875 369.25 600.695312 C 368.117188 600.472656 366.988281 600.21875 365.867188 599.9375 C 364.746094 599.65625 363.628906 599.347656 362.523438 599.011719 C 361.417969 598.675781 360.320312 598.3125 359.230469 597.925781 C 358.140625 597.535156 357.0625 597.117188 355.996094 596.675781 C 354.925781 596.234375 353.871094 595.765625 352.824219 595.269531 C 351.777344 594.777344 350.746094 594.257812 349.726562 593.710938 C 348.707031 593.167969 347.703125 592.597656 346.710938 592 C 345.71875 591.40625 344.742188 590.789062 343.78125 590.144531 C 342.816406 589.503906 341.871094 588.839844 340.945312 588.148438 C 340.015625 587.460938 339.105469 586.75 338.210938 586.015625 C 337.316406 585.28125 336.441406 584.527344 335.585938 583.75 C 334.726562 582.972656 333.890625 582.175781 333.074219 581.359375 C 332.253906 580.542969 331.457031 579.703125 330.679688 578.847656 C 329.90625 577.992188 329.148438 577.117188 328.414062 576.222656 C 327.683594 575.328125 326.972656 574.417969 326.28125 573.488281 C 325.59375 572.558594 324.925781 571.613281 324.285156 570.652344 C 323.644531 569.691406 323.023438 568.714844 322.429688 567.722656 C 321.835938 566.730469 321.265625 565.722656 320.71875 564.703125 C 320.175781 563.683594 319.65625 562.652344 319.160156 561.605469 C 318.667969 560.5625 318.199219 559.503906 317.753906 558.4375 C 317.3125 557.367188 316.898438 556.289062 316.507812 555.199219 C 316.117188 554.113281 315.753906 553.015625 315.417969 551.90625 C 315.085938 550.800781 314.777344 549.6875 314.496094 548.566406 C 314.214844 547.445312 313.960938 546.316406 313.734375 545.183594 C 313.507812 544.046875 313.3125 542.910156 313.140625 541.765625 C 312.972656 540.621094 312.832031 539.472656 312.71875 538.324219 C 312.605469 537.171875 312.519531 536.019531 312.460938 534.863281 C 312.40625 533.710938 312.378906 532.554688 312.378906 531.398438 C 312.378906 530.242188 312.40625 529.085938 312.460938 527.929688 C 312.519531 526.777344 312.605469 525.621094 312.71875 524.472656 C 312.832031 523.320312 312.972656 522.171875 313.140625 521.03125 C 313.3125 519.886719 313.507812 518.746094 313.734375 517.613281 C 313.960938 516.480469 314.214844 515.351562 314.496094 514.230469 C 314.777344 513.105469 315.085938 511.992188 315.417969 510.886719 C 315.753906 509.78125 316.117188 508.683594 316.507812 507.59375 C 316.898438 506.503906 317.3125 505.425781 317.753906 504.359375 C 318.199219 503.289062 318.667969 502.234375 319.160156 501.1875 C 319.65625 500.140625 320.175781 499.109375 320.71875 498.089844 C 321.265625 497.070312 321.835938 496.0625 322.429688 495.074219 C 323.023438 494.082031 323.644531 493.105469 324.285156 492.140625 C 324.925781 491.179688 325.59375 490.234375 326.28125 489.308594 C 326.972656 488.378906 327.683594 487.46875 328.414062 486.574219 C 329.148438 485.679688 329.90625 484.804688 330.679688 483.945312 C 331.457031 483.089844 332.253906 482.253906 333.074219 481.433594 C 333.890625 480.617188 334.726562 479.820312 335.585938 479.042969 C 336.441406 478.265625 337.316406 477.511719 338.210938 476.777344 C 339.105469 476.046875 340.015625 475.332031 340.945312 474.644531 C 341.871094 473.957031 342.816406 473.289062 343.78125 472.648438 C 344.742188 472.003906 345.71875 471.386719 346.710938 470.792969 C 347.703125 470.199219 348.707031 469.628906 349.726562 469.082031 C 350.746094 468.539062 351.78125 468.019531 352.824219 467.523438 C 353.871094 467.03125 354.925781 466.5625 355.996094 466.117188 C 357.0625 465.675781 358.140625 465.261719 359.230469 464.871094 C 360.320312 464.480469 361.417969 464.117188 362.523438 463.78125 C 363.628906 463.445312 364.746094 463.140625 365.867188 462.859375 C 366.988281 462.578125 368.117188 462.324219 369.25 462.097656 C 370.382812 461.871094 371.523438 461.675781 372.667969 461.503906 C 373.8125 461.335938 374.957031 461.195312 376.109375 461.082031 C 377.257812 460.96875 378.414062 460.882812 379.566406 460.824219 C 380.722656 460.769531 381.878906 460.742188 383.035156 460.742188 C 384.191406 460.742188 385.347656 460.769531 386.5 460.824219 C 387.65625 460.882812 388.808594 460.96875 389.960938 461.082031 C 391.109375 461.195312 392.257812 461.335938 393.402344 461.503906 C 394.546875 461.675781 395.683594 461.871094 396.820312 462.097656 C 397.953125 462.324219 399.082031 462.578125 400.203125 462.859375 C 401.324219 463.140625 402.4375 463.445312 403.546875 463.78125 C 404.652344 464.117188 405.75 464.480469 406.839844 464.871094 C 407.925781 465.261719 409.003906 465.675781 410.074219 466.117188 C 411.140625 466.5625 412.199219 467.03125 413.242188 467.523438 C 414.289062 468.019531 415.320312 468.539062 416.34375 469.082031 C 417.363281 469.628906 418.367188 470.199219 419.359375 470.792969 C 420.351562 471.386719 421.328125 472.003906 422.289062 472.648438 C 423.25 473.289062 424.195312 473.957031 425.125 474.644531 C 426.054688 475.332031 426.964844 476.046875 427.859375 476.777344 C 428.753906 477.511719 429.628906 478.265625 430.484375 479.042969 C 431.339844 479.820312 432.179688 480.617188 432.996094 481.433594 C 433.8125 482.253906 434.609375 483.089844 435.386719 483.945312 C 436.164062 484.804688 436.917969 485.679688 437.652344 486.574219 C 438.386719 487.46875 439.097656 488.378906 439.785156 489.308594 C 440.476562 490.234375 441.140625 491.179688 441.785156 492.140625 C 442.425781 493.105469 443.042969 494.082031 443.640625 495.074219 C 444.234375 496.0625 444.804688 497.070312 445.347656 498.089844 C 445.894531 499.109375 446.414062 500.140625 446.90625 501.1875 C 447.402344 502.234375 447.871094 503.289062 448.3125 504.359375 C 448.753906 505.425781 449.171875 506.503906 449.5625 507.59375 C 449.949219 508.683594 450.3125 509.78125 450.648438 510.886719 C 450.984375 511.992188 451.292969 513.105469 451.574219 514.230469 C 451.855469 515.351562 452.109375 516.480469 452.332031 517.613281 C 452.558594 518.746094 452.757812 519.886719 452.925781 521.03125 C 453.097656 522.171875 453.238281 523.320312 453.351562 524.472656 C 453.464844 525.621094 453.550781 526.777344 453.605469 527.929688 C 453.664062 529.085938 453.691406 530.242188 453.691406 531.398438 Z M 453.691406 531.398438 " fill-opacity="1" fill-rule="nonzero"/><path fill="#ffffff" d="M 383.035156 531.398438 C 381.878906 531.398438 380.722656 531.339844 379.570312 531.226562 C 378.421875 531.113281 377.277344 530.945312 376.140625 530.71875 C 375.007812 530.492188 373.886719 530.210938 372.777344 529.875 C 371.671875 529.539062 370.582031 529.152344 369.515625 528.707031 C 368.445312 528.265625 367.402344 527.769531 366.378906 527.226562 C 365.359375 526.679688 364.367188 526.085938 363.40625 525.445312 C 362.445312 524.800781 361.515625 524.113281 360.621094 523.378906 C 359.726562 522.644531 358.871094 521.867188 358.054688 521.050781 C 357.234375 520.230469 356.460938 519.375 355.726562 518.480469 C 354.992188 517.585938 354.300781 516.660156 353.660156 515.695312 C 353.015625 514.734375 352.421875 513.742188 351.878906 512.722656 C 351.332031 511.703125 350.839844 510.65625 350.394531 509.589844 C 349.953125 508.519531 349.5625 507.429688 349.226562 506.324219 C 348.890625 505.21875 348.609375 504.097656 348.382812 502.960938 C 348.160156 501.828125 347.988281 500.683594 347.875 499.53125 C 347.761719 498.378906 347.707031 497.226562 347.707031 496.070312 L 347.707031 284.097656 C 347.707031 282.941406 347.761719 281.785156 347.875 280.636719 C 347.988281 279.484375 348.160156 278.339844 348.382812 277.207031 C 348.609375 276.070312 348.890625 274.949219 349.226562 273.84375 C 349.5625 272.734375 349.953125 271.648438 350.394531 270.578125 C 350.839844 269.507812 351.332031 268.464844 351.878906 267.445312 C 352.421875 266.425781 353.015625 265.433594 353.660156 264.46875 C 354.300781 263.507812 354.992188 262.582031 355.726562 261.6875 C 356.460938 260.792969 357.234375 259.933594 358.054688 259.117188 C 358.871094 258.300781 359.726562 257.523438 360.621094 256.789062 C 361.515625 256.054688 362.445312 255.367188 363.40625 254.722656 C 364.367188 254.082031 365.359375 253.488281 366.378906 252.941406 C 367.402344 252.394531 368.445312 251.902344 369.515625 251.457031 C 370.582031 251.015625 371.671875 250.625 372.777344 250.289062 C 373.886719 249.953125 375.007812 249.675781 376.140625 249.449219 C 377.277344 249.222656 378.421875 249.054688 379.570312 248.941406 C 380.722656 248.828125 381.878906 248.769531 383.035156 248.769531 C 384.191406 248.769531 385.347656 248.828125 386.496094 248.941406 C 387.648438 249.054688 388.792969 249.222656 389.925781 249.449219 C 391.0625 249.675781 392.183594 249.953125 393.289062 250.289062 C 394.398438 250.625 395.484375 251.015625 396.554688 251.457031 C 397.621094 251.902344 398.667969 252.394531 399.6875 252.941406 C 400.707031 253.488281 401.699219 254.082031 402.660156 254.722656 C 403.625 255.367188 404.550781 256.054688 405.445312 256.789062 C 406.339844 257.523438 407.195312 258.300781 408.015625 259.117188 C 408.832031 259.933594 409.609375 260.792969 410.34375 261.6875 C 411.078125 262.582031 411.765625 263.507812 412.410156 264.46875 C 413.050781 265.433594 413.644531 266.425781 414.191406 267.445312 C 414.738281 268.464844 415.230469 269.507812 415.671875 270.578125 C 416.117188 271.648438 416.503906 272.734375 416.839844 273.84375 C 417.175781 274.949219 417.457031 276.070312 417.683594 277.207031 C 417.910156 278.339844 418.078125 279.484375 418.191406 280.636719 C 418.304688 281.785156 418.363281 282.941406 418.363281 284.097656 L 418.363281 496.070312 C 418.363281 497.226562 418.304688 498.378906 418.191406 499.53125 C 418.078125 500.683594 417.910156 501.828125 417.683594 502.960938 C 417.457031 504.097656 417.175781 505.21875 416.839844 506.324219 C 416.503906 507.429688 416.117188 508.519531 415.671875 509.589844 C 415.230469 510.65625 414.738281 511.703125 414.191406 512.722656 C 413.644531 513.742188 413.050781 514.734375 412.410156 515.695312 C 411.765625 516.660156 411.078125 517.585938 410.34375 518.480469 C 409.609375 519.375 408.832031 520.230469 408.015625 521.050781 C 407.195312 521.867188 406.339844 522.644531 405.445312 523.378906 C 404.550781 524.113281 403.625 524.800781 402.660156 525.445312 C 401.699219 526.085938 400.707031 526.679688 399.6875 527.226562 C 398.667969 527.769531 397.621094 528.265625 396.554688 528.707031 C 395.484375 529.152344 394.398438 529.539062 393.289062 529.875 C 392.183594 530.210938 391.0625 530.492188 389.925781 530.71875 C 388.792969 530.945312 387.648438 531.113281 386.496094 531.226562 C 385.347656 531.339844 384.191406 531.398438 383.035156 531.398438 Z M 383.035156 531.398438 " fill-opacity="1" fill-rule="nonzero"/><path fill="#ffffff" d="M 489.019531 390.082031 C 486.699219 390.085938 484.402344 389.863281 482.125 389.414062 C 479.847656 388.964844 477.640625 388.292969 475.496094 387.40625 C 473.351562 386.515625 471.316406 385.425781 469.390625 384.136719 C 467.460938 382.84375 465.679688 381.375 464.042969 379.730469 L 393.386719 309.074219 C 392.589844 308.253906 391.835938 307.394531 391.125 306.496094 C 390.414062 305.601562 389.75 304.671875 389.128906 303.710938 C 388.507812 302.75 387.933594 301.761719 387.40625 300.746094 C 386.882812 299.726562 386.40625 298.6875 385.984375 297.625 C 385.558594 296.5625 385.1875 295.480469 384.871094 294.382812 C 384.550781 293.285156 384.285156 292.171875 384.074219 291.046875 C 383.863281 289.921875 383.707031 288.789062 383.605469 287.652344 C 383.503906 286.511719 383.460938 285.371094 383.46875 284.226562 C 383.480469 283.082031 383.542969 281.941406 383.664062 280.800781 C 383.785156 279.664062 383.960938 278.535156 384.191406 277.414062 C 384.421875 276.292969 384.707031 275.1875 385.046875 274.09375 C 385.382812 273 385.773438 271.925781 386.214844 270.871094 C 386.660156 269.816406 387.152344 268.785156 387.695312 267.777344 C 388.238281 266.769531 388.828125 265.789062 389.464844 264.839844 C 390.101562 263.890625 390.785156 262.972656 391.511719 262.089844 C 392.238281 261.207031 393.007812 260.359375 393.816406 259.550781 C 394.625 258.742188 395.472656 257.972656 396.355469 257.246094 C 397.238281 256.519531 398.15625 255.835938 399.105469 255.199219 C 400.054688 254.5625 401.035156 253.972656 402.042969 253.429688 C 403.046875 252.886719 404.082031 252.394531 405.136719 251.953125 C 406.191406 251.507812 407.265625 251.117188 408.359375 250.78125 C 409.449219 250.441406 410.558594 250.160156 411.679688 249.925781 C 412.800781 249.695312 413.929688 249.523438 415.066406 249.402344 C 416.203125 249.28125 417.34375 249.214844 418.488281 249.203125 C 419.632812 249.195312 420.777344 249.242188 421.914062 249.339844 C 423.054688 249.441406 424.1875 249.597656 425.3125 249.808594 C 426.4375 250.019531 427.546875 250.285156 428.648438 250.605469 C 429.746094 250.921875 430.828125 251.296875 431.890625 251.71875 C 432.953125 252.144531 433.992188 252.617188 435.007812 253.144531 C 436.027344 253.667969 437.015625 254.242188 437.976562 254.863281 C 438.9375 255.484375 439.863281 256.148438 440.761719 256.863281 C 441.65625 257.574219 442.515625 258.324219 443.339844 259.121094 L 513.996094 329.777344 C 515.226562 331.007812 516.355469 332.316406 517.390625 333.714844 C 518.425781 335.109375 519.351562 336.574219 520.171875 338.105469 C 520.988281 339.636719 521.691406 341.21875 522.277344 342.855469 C 522.863281 344.492188 523.324219 346.160156 523.664062 347.863281 C 524 349.570312 524.214844 351.289062 524.296875 353.023438 C 524.382812 354.757812 524.339844 356.488281 524.171875 358.21875 C 524 359.945312 523.703125 361.652344 523.28125 363.339844 C 522.859375 365.023438 522.316406 366.667969 521.652344 368.273438 C 520.988281 369.878906 520.207031 371.425781 519.316406 372.914062 C 518.421875 374.40625 517.425781 375.824219 516.324219 377.164062 C 515.222656 378.507812 514.027344 379.761719 512.738281 380.929688 C 511.453125 382.097656 510.085938 383.160156 508.644531 384.128906 C 507.199219 385.09375 505.691406 385.945312 504.121094 386.691406 C 502.550781 387.433594 500.933594 388.054688 499.273438 388.5625 C 497.609375 389.066406 495.921875 389.445312 494.203125 389.699219 C 492.484375 389.957031 490.757812 390.082031 489.019531 390.082031 Z M 489.019531 390.082031 " fill-opacity="1" fill-rule="nonzero"/><path fill="#ffffff" d="M 347.707031 248.769531 C 345.386719 248.773438 343.085938 248.550781 340.8125 248.101562 C 338.535156 247.648438 336.324219 246.980469 334.183594 246.089844 C 332.039062 245.203125 330.003906 244.113281 328.074219 242.820312 C 326.148438 241.53125 324.367188 240.0625 322.730469 238.417969 L 255.605469 171.292969 C 254.808594 170.472656 254.054688 169.613281 253.34375 168.714844 C 252.632812 167.820312 251.96875 166.890625 251.347656 165.929688 C 250.726562 164.96875 250.152344 163.980469 249.625 162.964844 C 249.101562 161.945312 248.628906 160.90625 248.203125 159.84375 C 247.777344 158.78125 247.40625 157.699219 247.089844 156.601562 C 246.769531 155.503906 246.503906 154.390625 246.292969 153.265625 C 246.082031 152.140625 245.925781 151.011719 245.824219 149.871094 C 245.722656 148.730469 245.679688 147.589844 245.6875 146.445312 C 245.699219 145.300781 245.765625 144.160156 245.882812 143.019531 C 246.003906 141.882812 246.179688 140.753906 246.410156 139.632812 C 246.640625 138.511719 246.925781 137.40625 247.265625 136.3125 C 247.601562 135.21875 247.992188 134.144531 248.433594 133.089844 C 248.878906 132.035156 249.371094 131.003906 249.914062 129.996094 C 250.457031 128.988281 251.046875 128.011719 251.683594 127.058594 C 252.320312 126.109375 253.003906 125.191406 253.730469 124.308594 C 254.457031 123.425781 255.226562 122.578125 256.035156 121.769531 C 256.84375 120.960938 257.691406 120.191406 258.574219 119.464844 C 259.457031 118.738281 260.375 118.058594 261.324219 117.417969 C 262.273438 116.78125 263.253906 116.191406 264.261719 115.648438 C 265.269531 115.105469 266.300781 114.613281 267.355469 114.171875 C 268.410156 113.726562 269.484375 113.339844 270.578125 113 C 271.671875 112.660156 272.777344 112.378906 273.898438 112.148438 C 275.019531 111.917969 276.148438 111.742188 277.285156 111.621094 C 278.421875 111.5 279.566406 111.433594 280.707031 111.421875 C 281.851562 111.414062 282.996094 111.460938 284.136719 111.558594 C 285.273438 111.660156 286.40625 111.816406 287.53125 112.027344 C 288.65625 112.238281 289.769531 112.503906 290.867188 112.824219 C 291.964844 113.144531 293.046875 113.515625 294.109375 113.9375 C 295.171875 114.363281 296.210938 114.835938 297.226562 115.363281 C 298.246094 115.886719 299.234375 116.460938 300.195312 117.082031 C 301.15625 117.703125 302.085938 118.367188 302.980469 119.082031 C 303.875 119.792969 304.734375 120.546875 305.558594 121.339844 L 372.683594 188.464844 C 373.910156 189.691406 375.042969 191.003906 376.078125 192.398438 C 377.113281 193.796875 378.039062 195.257812 378.855469 196.789062 C 379.675781 198.324219 380.378906 199.90625 380.960938 201.542969 C 381.546875 203.175781 382.007812 204.847656 382.347656 206.550781 C 382.6875 208.253906 382.898438 209.972656 382.984375 211.710938 C 383.070312 213.445312 383.027344 215.175781 382.855469 216.90625 C 382.6875 218.632812 382.390625 220.339844 381.96875 222.023438 C 381.546875 223.710938 381.003906 225.355469 380.339844 226.960938 C 379.671875 228.566406 378.894531 230.113281 378 231.601562 C 377.109375 233.09375 376.109375 234.507812 375.007812 235.851562 C 373.90625 237.195312 372.714844 238.449219 371.425781 239.617188 C 370.140625 240.78125 368.773438 241.847656 367.328125 242.8125 C 365.886719 243.777344 364.378906 244.632812 362.808594 245.375 C 361.238281 246.117188 359.621094 246.742188 357.960938 247.246094 C 356.296875 247.75 354.605469 248.132812 352.890625 248.386719 C 351.171875 248.640625 349.441406 248.769531 347.707031 248.769531 Z M 347.707031 248.769531 " fill-opacity="1" fill-rule="nonzero"/><path fill="#ffffff" d="M 383.035156 742.875 C 379.445312 742.910156 375.863281 742.773438 372.285156 742.460938 C 368.710938 742.152344 365.15625 741.664062 361.628906 741.007812 C 358.097656 740.351562 354.609375 739.523438 351.164062 738.523438 C 347.714844 737.527344 344.320312 736.363281 340.988281 735.035156 C 337.652344 733.707031 334.390625 732.21875 331.199219 730.574219 C 328.007812 728.925781 324.90625 727.128906 321.890625 725.183594 C 318.878906 723.234375 315.964844 721.144531 313.152344 718.910156 C 310.339844 716.679688 307.644531 714.316406 305.066406 711.820312 L 61.296875 468.054688 C 60.066406 466.753906 58.867188 465.421875 57.699219 464.066406 C 56.53125 462.707031 55.398438 461.320312 54.292969 459.910156 C 53.191406 458.5 52.125 457.0625 51.089844 455.597656 C 50.054688 454.136719 49.054688 452.648438 48.09375 451.140625 C 47.128906 449.628906 46.199219 448.097656 45.308594 446.546875 C 44.417969 444.992188 43.5625 443.417969 42.746094 441.824219 C 41.929688 440.230469 41.152344 438.617188 40.410156 436.984375 C 39.671875 435.355469 38.96875 433.707031 38.304688 432.042969 C 37.644531 430.378906 37.019531 428.699219 36.4375 427.007812 C 35.855469 425.3125 35.3125 423.605469 34.8125 421.886719 C 34.308594 420.167969 33.847656 418.4375 33.425781 416.695312 C 33.007812 414.953125 32.628906 413.203125 32.292969 411.445312 C 31.953125 409.6875 31.660156 407.921875 31.40625 406.148438 C 31.152344 404.375 30.941406 402.597656 30.769531 400.8125 C 30.601562 399.03125 30.472656 397.242188 30.390625 395.453125 C 30.304688 393.664062 30.261719 391.875 30.261719 390.082031 C 30.261719 388.292969 30.304688 386.503906 30.390625 384.714844 C 30.472656 382.921875 30.601562 381.136719 30.769531 379.355469 C 30.941406 377.570312 31.152344 375.792969 31.40625 374.019531 C 31.660156 372.246094 31.953125 370.480469 32.292969 368.722656 C 32.628906 366.960938 33.007812 365.210938 33.425781 363.472656 C 33.847656 361.730469 34.308594 360 34.8125 358.28125 C 35.3125 356.5625 35.855469 354.855469 36.4375 353.160156 C 37.019531 351.46875 37.644531 349.789062 38.304688 348.125 C 38.96875 346.460938 39.671875 344.8125 40.410156 343.179688 C 41.152344 341.550781 41.929688 339.9375 42.746094 338.34375 C 43.5625 336.75 44.417969 335.175781 45.308594 333.621094 C 46.199219 332.066406 47.128906 330.535156 48.09375 329.027344 C 49.054688 327.515625 50.054688 326.03125 51.089844 324.570312 C 52.125 323.105469 53.191406 321.667969 54.292969 320.257812 C 55.398438 318.84375 56.53125 317.460938 57.699219 316.101562 C 58.867188 314.746094 60.066406 313.414062 61.296875 312.113281 L 305.066406 68.347656 C 306.367188 67.117188 307.695312 65.914062 309.054688 64.746094 C 310.410156 63.578125 311.796875 62.441406 313.207031 61.339844 C 314.621094 60.238281 316.058594 59.167969 317.519531 58.132812 C 318.980469 57.097656 320.46875 56.097656 321.976562 55.136719 C 323.488281 54.171875 325.019531 53.242188 326.574219 52.351562 C 328.125 51.457031 329.699219 50.605469 331.292969 49.785156 C 332.890625 48.96875 334.5 48.191406 336.132812 47.449219 C 337.765625 46.707031 339.410156 46.007812 341.078125 45.34375 C 342.742188 44.679688 344.421875 44.058594 346.113281 43.476562 C 347.808594 42.890625 349.515625 42.347656 351.234375 41.847656 C 352.953125 41.34375 354.683594 40.882812 356.425781 40.464844 C 358.167969 40.042969 359.917969 39.664062 361.675781 39.328125 C 363.4375 38.988281 365.203125 38.691406 366.976562 38.441406 C 368.75 38.1875 370.527344 37.972656 372.3125 37.804688 C 374.097656 37.636719 375.882812 37.507812 377.671875 37.421875 C 379.460938 37.339844 381.25 37.296875 383.042969 37.296875 C 384.835938 37.296875 386.625 37.339844 388.414062 37.421875 C 390.203125 37.507812 391.992188 37.636719 393.773438 37.804688 C 395.558594 37.972656 397.335938 38.1875 399.109375 38.441406 C 400.882812 38.691406 402.648438 38.988281 404.410156 39.328125 C 406.167969 39.664062 407.917969 40.042969 409.660156 40.464844 C 411.402344 40.882812 413.132812 41.34375 414.851562 41.847656 C 416.570312 42.347656 418.277344 42.890625 419.972656 43.476562 C 421.667969 44.058594 423.34375 44.679688 425.011719 45.34375 C 426.675781 46.007812 428.320312 46.707031 429.953125 47.449219 C 431.585938 48.191406 433.199219 48.96875 434.792969 49.785156 C 436.386719 50.605469 437.960938 51.457031 439.511719 52.351562 C 441.066406 53.242188 442.597656 54.171875 444.109375 55.136719 C 445.617188 56.097656 447.105469 57.097656 448.566406 58.132812 C 450.03125 59.167969 451.46875 60.238281 452.878906 61.339844 C 454.289062 62.441406 455.675781 63.578125 457.035156 64.746094 C 458.390625 65.914062 459.722656 67.117188 461.023438 68.347656 L 704.789062 312.113281 C 706.019531 313.414062 707.21875 314.746094 708.386719 316.101562 C 709.554688 317.460938 710.691406 318.84375 711.792969 320.257812 C 712.894531 321.667969 713.964844 323.105469 714.996094 324.570312 C 716.03125 326.03125 717.03125 327.515625 717.996094 329.027344 C 718.957031 330.535156 719.886719 332.066406 720.777344 333.621094 C 721.667969 335.175781 722.523438 336.75 723.339844 338.34375 C 724.15625 339.9375 724.933594 341.550781 725.675781 343.179688 C 726.417969 344.8125 727.117188 346.460938 727.78125 348.125 C 728.441406 349.789062 729.066406 351.46875 729.648438 353.160156 C 730.230469 354.855469 730.773438 356.5625 731.277344 358.28125 C 731.777344 360 732.238281 361.730469 732.660156 363.472656 C 733.078125 365.210938 733.457031 366.960938 733.796875 368.722656 C 734.132812 370.480469 734.429688 372.246094 734.683594 374.019531 C 734.933594 375.792969 735.148438 377.570312 735.316406 379.355469 C 735.484375 381.136719 735.613281 382.921875 735.699219 384.714844 C 735.78125 386.503906 735.824219 388.292969 735.824219 390.082031 C 735.824219 391.875 735.78125 393.664062 735.699219 395.453125 C 735.613281 397.242188 735.484375 399.03125 735.316406 400.8125 C 735.148438 402.597656 734.933594 404.375 734.683594 406.148438 C 734.429688 407.921875 734.132812 409.6875 733.796875 411.445312 C 733.457031 413.203125 733.078125 414.953125 732.660156 416.695312 C 732.238281 418.4375 731.777344 420.167969 731.277344 421.886719 C 730.773438 423.605469 730.230469 425.3125 729.648438 427.007812 C 729.066406 428.699219 728.441406 430.378906 727.78125 432.042969 C 727.117188 433.707031 726.417969 435.355469 725.675781 436.984375 C 724.933594 438.617188 724.15625 440.230469 723.339844 441.824219 C 722.523438 443.417969 721.667969 444.992188 720.777344 446.546875 C 719.886719 448.097656 718.957031 449.628906 717.996094 451.140625 C 717.03125 452.648438 716.03125 454.136719 714.996094 455.597656 C 713.964844 457.0625 712.894531 458.5 711.792969 459.910156 C 710.691406 461.320312 709.554688 462.707031 708.386719 464.066406 C 707.21875 465.421875 706.019531 466.753906 704.789062 468.054688 L 461.023438 711.820312 C 458.441406 714.316406 455.746094 716.679688 452.933594 718.914062 C 450.121094 721.144531 447.207031 723.238281 444.191406 725.1875 C 441.175781 727.136719 438.074219 728.933594 434.882812 730.578125 C 431.691406 732.226562 428.429688 733.714844 425.09375 735.042969 C 421.757812 736.371094 418.363281 737.53125 414.914062 738.53125 C 411.464844 739.527344 407.976562 740.355469 404.445312 741.011719 C 400.917969 741.667969 397.363281 742.152344 393.785156 742.464844 C 390.207031 742.777344 386.625 742.910156 383.035156 742.875 Z M 383.035156 107.949219 C 380.476562 107.867188 377.9375 108.03125 375.410156 108.4375 C 372.882812 108.847656 370.421875 109.496094 368.023438 110.382812 C 365.621094 111.273438 363.328125 112.382812 361.144531 113.714844 C 358.960938 115.046875 356.925781 116.574219 355.035156 118.300781 L 111.269531 362.066406 C 110.445312 363.035156 109.664062 364.035156 108.925781 365.070312 C 108.1875 366.109375 107.5 367.175781 106.855469 368.269531 C 106.214844 369.367188 105.621094 370.492188 105.074219 371.640625 C 104.53125 372.789062 104.039062 373.960938 103.601562 375.152344 C 103.160156 376.34375 102.773438 377.554688 102.441406 378.78125 C 102.109375 380.007812 101.828125 381.25 101.605469 382.5 C 101.382812 383.75 101.214844 385.011719 101.101562 386.277344 C 100.992188 387.542969 100.933594 388.8125 100.933594 390.082031 C 100.933594 391.355469 100.992188 392.625 101.101562 393.890625 C 101.214844 395.15625 101.382812 396.414062 101.605469 397.667969 C 101.828125 398.917969 102.109375 400.15625 102.441406 401.382812 C 102.773438 402.613281 103.160156 403.820312 103.601562 405.015625 C 104.039062 406.207031 104.53125 407.378906 105.074219 408.527344 C 105.621094 409.675781 106.214844 410.800781 106.855469 411.894531 C 107.5 412.992188 108.1875 414.058594 108.925781 415.09375 C 109.664062 416.132812 110.445312 417.132812 111.269531 418.097656 L 355.035156 661.867188 C 356.019531 662.65625 357.035156 663.402344 358.082031 664.105469 C 359.128906 664.8125 360.203125 665.46875 361.304688 666.082031 C 362.40625 666.695312 363.53125 667.261719 364.683594 667.78125 C 365.832031 668.300781 367.003906 668.765625 368.191406 669.1875 C 369.382812 669.605469 370.589844 669.972656 371.808594 670.289062 C 373.03125 670.605469 374.261719 670.871094 375.507812 671.082031 C 376.75 671.296875 378 671.457031 379.257812 671.5625 C 380.515625 671.667969 381.773438 671.722656 383.035156 671.722656 C 384.296875 671.722656 385.554688 671.667969 386.8125 671.5625 C 388.070312 671.457031 389.320312 671.296875 390.5625 671.082031 C 391.804688 670.871094 393.039062 670.605469 394.257812 670.289062 C 395.480469 669.972656 396.6875 669.605469 397.875 669.1875 C 399.066406 668.765625 400.234375 668.300781 401.386719 667.78125 C 402.535156 667.261719 403.664062 666.695312 404.765625 666.082031 C 405.867188 665.46875 406.941406 664.8125 407.988281 664.105469 C 409.035156 663.402344 410.050781 662.65625 411.03125 661.867188 L 654.796875 418.097656 C 655.625 417.132812 656.40625 416.132812 657.144531 415.09375 C 657.878906 414.058594 658.570312 412.992188 659.214844 411.894531 C 659.855469 410.800781 660.449219 409.675781 660.992188 408.527344 C 661.535156 407.378906 662.027344 406.207031 662.46875 405.015625 C 662.90625 403.820312 663.292969 402.613281 663.628906 401.382812 C 663.960938 400.15625 664.238281 398.917969 664.460938 397.667969 C 664.6875 396.414062 664.855469 395.15625 664.964844 393.890625 C 665.078125 392.625 665.132812 391.355469 665.132812 390.082031 C 665.132812 388.8125 665.078125 387.542969 664.964844 386.277344 C 664.855469 385.011719 664.6875 383.75 664.460938 382.5 C 664.238281 381.25 663.960938 380.007812 663.628906 378.78125 C 663.292969 377.554688 662.90625 376.34375 662.46875 375.152344 C 662.027344 373.960938 661.535156 372.789062 660.992188 371.640625 C 660.449219 370.492188 659.855469 369.367188 659.214844 368.269531 C 658.570312 367.175781 657.878906 366.109375 657.144531 365.070312 C 656.40625 364.035156 655.625 363.035156 654.796875 362.066406 L 411.03125 118.300781 C 409.144531 116.578125 407.105469 115.046875 404.921875 113.71875 C 402.738281 112.386719 400.445312 111.277344 398.046875 110.390625 C 395.644531 109.503906 393.183594 108.855469 390.65625 108.445312 C 388.132812 108.03125 385.589844 107.867188 383.035156 107.949219 Z M 383.035156 107.949219 " fill-opacity="1" fill-rule="nonzero"/></svg>