<svg xmlns="http://www.w3.org/2000/svg" xmlns:xlink="http://www.w3.org/1999/xlink" width="1024" zoomAndPan="magnify" viewBox="0 0 768 767.999994" height="1024" preserveAspectRatio="xMidYMid meet" version="1.0"><defs><clipPath id="45ec32ec9f"><path d="M 107 31.488281 L 690 31.488281 L 690 745.488281 L 107 745.488281 Z M 107 31.488281 " clip-rule="nonzero"/></clipPath><clipPath id="660796dd88"><path d="M 41.589844 495 L 325 495 L 325 632 L 41.589844 632 Z M 41.589844 495 " clip-rule="nonzero"/></clipPath></defs><g clip-path="url(#45ec32ec9f)"><path fill="#f5f5f5" d="M 497.570312 745.3125 C 496.730469 745.3125 495.894531 745.269531 495.058594 745.1875 C 494.226562 745.105469 493.398438 744.984375 492.578125 744.820312 C 491.753906 744.65625 490.941406 744.453125 490.140625 744.210938 C 489.339844 743.964844 488.550781 743.683594 487.777344 743.363281 C 487 743.042969 486.246094 742.683594 485.503906 742.289062 C 484.765625 741.894531 484.046875 741.460938 483.351562 740.996094 C 482.65625 740.53125 481.980469 740.03125 481.335938 739.5 C 480.6875 738.96875 480.066406 738.40625 479.472656 737.8125 C 478.878906 737.21875 478.316406 736.601562 477.785156 735.953125 C 477.253906 735.304688 476.757812 734.632812 476.289062 733.933594 C 475.824219 733.238281 475.394531 732.519531 475 731.777344 C 474.605469 731.039062 474.246094 730.28125 473.925781 729.507812 C 473.605469 728.734375 473.324219 727.945312 473.078125 727.140625 C 472.835938 726.339844 472.632812 725.527344 472.46875 724.707031 C 472.304688 723.882812 472.183594 723.054688 472.101562 722.21875 C 472.019531 721.386719 471.976562 720.550781 471.976562 719.710938 L 471.976562 587.277344 C 471.976562 586.328125 472.027344 585.382812 472.132812 584.4375 C 472.621094 580.136719 472.898438 575.820312 472.964844 571.492188 C 473.03125 567.164062 472.886719 562.84375 472.527344 558.527344 C 472.171875 554.214844 471.605469 549.929688 470.828125 545.667969 C 470.050781 541.410156 469.070312 537.199219 467.878906 533.039062 C 466.691406 528.875 465.300781 524.78125 463.710938 520.757812 C 462.121094 516.730469 460.339844 512.792969 458.363281 508.941406 C 456.386719 505.089844 454.226562 501.34375 451.882812 497.703125 C 449.542969 494.0625 447.027344 490.546875 444.339844 487.15625 C 443.597656 486.214844 442.929688 485.230469 442.328125 484.195312 C 441.726562 483.160156 441.199219 482.089844 440.746094 480.984375 C 440.292969 479.878906 439.921875 478.742188 439.628906 477.585938 C 439.335938 476.425781 439.125 475.25 438.996094 474.0625 C 438.867188 472.871094 438.824219 471.679688 438.859375 470.484375 C 438.898438 469.289062 439.019531 468.101562 439.226562 466.921875 C 439.429688 465.746094 439.714844 464.585938 440.082031 463.449219 C 440.449219 462.308594 440.894531 461.203125 441.417969 460.128906 C 441.9375 459.050781 442.535156 458.015625 443.199219 457.023438 C 443.867188 456.03125 444.601562 455.089844 445.398438 454.199219 C 446.199219 453.3125 447.054688 452.480469 447.972656 451.710938 C 448.886719 450.941406 449.851562 450.238281 450.863281 449.605469 C 451.878906 448.972656 452.929688 448.410156 454.023438 447.921875 C 455.113281 447.4375 456.234375 447.027344 457.382812 446.699219 C 458.535156 446.371094 459.699219 446.121094 460.882812 445.957031 C 462.070312 445.789062 463.257812 445.707031 464.453125 445.707031 C 548.339844 445.707031 637.5 390.84375 637.5 289.160156 C 637.5 288.597656 637.5 288.058594 637.5 287.519531 C 637.78125 283.136719 637.871094 278.75 637.777344 274.359375 C 637.679688 269.96875 637.398438 265.585938 636.929688 261.21875 C 636.460938 256.851562 635.804688 252.515625 634.964844 248.203125 C 634.125 243.890625 633.101562 239.625 631.898438 235.398438 C 630.695312 231.175781 629.3125 227.011719 627.753906 222.90625 C 626.191406 218.800781 624.460938 214.765625 622.554688 210.808594 C 620.652344 206.851562 618.582031 202.980469 616.347656 199.199219 C 614.113281 195.421875 611.71875 191.742188 609.171875 188.164062 C 608.101562 186.667969 607.199219 185.070312 606.472656 183.378906 C 605.746094 181.683594 605.207031 179.933594 604.859375 178.125 C 604.511719 176.3125 604.359375 174.488281 604.40625 172.644531 C 604.449219 170.804688 604.691406 168.988281 605.128906 167.199219 C 608.199219 154.453125 610.121094 141.539062 610.890625 128.449219 C 611.660156 115.363281 611.265625 102.3125 609.707031 89.296875 C 595.53125 95.132812 574.238281 106.269531 545.9375 127.515625 C 544.511719 128.582031 542.996094 129.492188 541.382812 130.238281 C 539.773438 130.988281 538.101562 131.566406 536.371094 131.964844 C 534.636719 132.367188 532.882812 132.585938 531.105469 132.621094 C 529.328125 132.65625 527.566406 132.507812 525.820312 132.175781 C 504.78125 128.171875 483.597656 125.167969 462.273438 123.15625 C 440.949219 121.144531 419.578125 120.140625 398.160156 120.140625 C 376.742188 120.140625 355.371094 121.144531 334.046875 123.15625 C 312.722656 125.167969 291.539062 128.171875 270.5 132.175781 C 268.753906 132.507812 266.992188 132.65625 265.214844 132.621094 C 263.4375 132.585938 261.683594 132.367188 259.953125 131.964844 C 258.21875 131.566406 256.546875 130.988281 254.9375 130.238281 C 253.324219 129.492188 251.808594 128.582031 250.386719 127.515625 C 221.929688 105.988281 200.535156 94.925781 186.355469 89.140625 C 184.675781 102.121094 184.246094 115.140625 185.074219 128.203125 C 185.898438 141.261719 187.964844 154.125 191.269531 166.789062 C 191.742188 168.605469 192.015625 170.453125 192.082031 172.332031 C 192.148438 174.210938 192.011719 176.070312 191.667969 177.917969 C 191.324219 179.765625 190.785156 181.554688 190.050781 183.28125 C 189.3125 185.011719 188.398438 186.636719 187.304688 188.164062 C 184.75 191.738281 182.351562 195.414062 180.113281 199.191406 C 177.875 202.96875 175.800781 206.835938 173.890625 210.792969 C 171.984375 214.75 170.246094 218.777344 168.683594 222.882812 C 167.121094 226.988281 165.734375 231.152344 164.527344 235.375 C 163.320312 239.597656 162.296875 243.867188 161.457031 248.175781 C 160.617188 252.488281 159.960938 256.828125 159.492188 261.195312 C 159.019531 265.5625 158.738281 269.941406 158.644531 274.332031 C 158.550781 278.722656 158.640625 283.113281 158.921875 287.496094 C 158.921875 288.058594 158.921875 288.621094 158.921875 289.183594 C 158.921875 390.871094 248.082031 445.734375 331.96875 445.734375 C 333.167969 445.730469 334.359375 445.816406 335.546875 445.980469 C 336.734375 446.148438 337.902344 446.398438 339.054688 446.726562 C 340.207031 447.058594 341.328125 447.46875 342.425781 447.957031 C 343.519531 448.445312 344.574219 449.011719 345.589844 449.648438 C 346.605469 450.285156 347.570312 450.988281 348.484375 451.761719 C 349.402344 452.535156 350.257812 453.367188 351.058594 454.261719 C 351.859375 455.15625 352.589844 456.097656 353.257812 457.09375 C 353.925781 458.09375 354.515625 459.128906 355.039062 460.210938 C 355.558594 461.289062 356 462.402344 356.367188 463.542969 C 356.730469 464.683594 357.015625 465.847656 357.214844 467.027344 C 357.417969 468.210938 357.535156 469.398438 357.570312 470.597656 C 357.605469 471.796875 357.554688 472.992188 357.421875 474.183594 C 357.289062 475.375 357.070312 476.550781 356.773438 477.710938 C 356.476562 478.871094 356.097656 480.007812 355.636719 481.117188 C 355.179688 482.222656 354.648438 483.292969 354.039062 484.328125 C 353.429688 485.359375 352.753906 486.34375 352.007812 487.28125 C 346.597656 494.03125 341.910156 501.25 337.949219 508.9375 C 333.984375 516.625 330.824219 524.632812 328.464844 532.953125 C 326.09375 541.308594 324.558594 549.8125 323.859375 558.464844 C 323.15625 567.121094 323.300781 575.761719 324.292969 584.386719 C 324.417969 585.335938 324.476562 586.292969 324.472656 587.253906 L 324.472656 719.710938 C 324.472656 720.550781 324.429688 721.386719 324.347656 722.21875 C 324.265625 723.054688 324.144531 723.882812 323.980469 724.707031 C 323.816406 725.527344 323.613281 726.339844 323.371094 727.140625 C 323.125 727.945312 322.84375 728.734375 322.523438 729.507812 C 322.203125 730.28125 321.84375 731.039062 321.449219 731.777344 C 321.054688 732.519531 320.625 733.238281 320.160156 733.933594 C 319.691406 734.632812 319.195312 735.304688 318.664062 735.953125 C 318.128906 736.601562 317.570312 737.21875 316.976562 737.8125 C 316.382812 738.40625 315.761719 738.96875 315.113281 739.5 C 314.46875 740.03125 313.792969 740.53125 313.097656 740.996094 C 312.402344 741.460938 311.683594 741.894531 310.945312 742.289062 C 310.203125 742.683594 309.449219 743.042969 308.671875 743.363281 C 307.898438 743.683594 307.109375 743.964844 306.308594 744.210938 C 305.507812 744.453125 304.695312 744.65625 303.871094 744.820312 C 303.050781 744.984375 302.222656 745.105469 301.386719 745.1875 C 300.554688 745.269531 299.71875 745.3125 298.878906 745.3125 C 298.042969 745.3125 297.207031 745.269531 296.371094 745.1875 C 295.539062 745.105469 294.710938 744.984375 293.886719 744.820312 C 293.066406 744.65625 292.253906 744.453125 291.453125 744.210938 C 290.648438 743.964844 289.859375 743.683594 289.085938 743.363281 C 288.3125 743.042969 287.554688 742.683594 286.816406 742.289062 C 286.078125 741.894531 285.359375 741.460938 284.664062 740.996094 C 283.964844 740.53125 283.292969 740.03125 282.644531 739.5 C 281.996094 738.96875 281.378906 738.40625 280.785156 737.8125 C 280.191406 737.21875 279.628906 736.601562 279.097656 735.953125 C 278.566406 735.304688 278.066406 734.632812 277.601562 733.933594 C 277.136719 733.238281 276.707031 732.519531 276.3125 731.777344 C 275.914062 731.039062 275.558594 730.28125 275.238281 729.507812 C 274.917969 728.734375 274.632812 727.945312 274.390625 727.140625 C 274.148438 726.339844 273.945312 725.527344 273.78125 724.707031 C 273.617188 723.882812 273.496094 723.054688 273.414062 722.21875 C 273.332031 721.386719 273.289062 720.550781 273.289062 719.710938 L 273.289062 588.636719 C 272.039062 576.945312 271.914062 565.246094 272.910156 553.535156 C 273.910156 541.820312 276.015625 530.308594 279.226562 519 C 281.722656 510.128906 284.886719 501.503906 288.71875 493.121094 C 278.703125 491.421875 268.832031 489.089844 259.113281 486.117188 C 249.398438 483.144531 239.910156 479.558594 230.65625 475.363281 C 221.398438 471.164062 212.453125 466.390625 203.8125 461.039062 C 195.175781 455.683594 186.917969 449.796875 179.039062 443.378906 C 133.332031 405.234375 108.125 350.804688 107.792969 290.003906 C 107.472656 284.6875 107.359375 279.367188 107.457031 274.042969 C 107.550781 268.71875 107.851562 263.402344 108.359375 258.101562 C 108.867188 252.800781 109.582031 247.527344 110.5 242.28125 C 111.421875 237.035156 112.542969 231.832031 113.867188 226.671875 C 115.1875 221.515625 116.710938 216.414062 118.433594 211.375 C 120.152344 206.335938 122.066406 201.371094 124.175781 196.480469 C 126.28125 191.585938 128.578125 186.785156 131.058594 182.074219 C 133.539062 177.363281 136.199219 172.753906 139.039062 168.246094 C 136.992188 158.582031 135.511719 148.828125 134.59375 138.988281 C 133.679688 129.152344 133.332031 119.292969 133.558594 109.414062 C 133.785156 99.535156 134.582031 89.703125 135.945312 79.917969 C 137.3125 70.132812 139.238281 60.457031 141.726562 50.894531 C 142.082031 49.53125 142.542969 48.207031 143.117188 46.921875 C 143.6875 45.636719 144.363281 44.410156 145.140625 43.234375 C 145.914062 42.058594 146.78125 40.957031 147.738281 39.925781 C 148.695312 38.894531 149.730469 37.949219 150.84375 37.089844 C 151.957031 36.226562 153.132812 35.464844 154.371094 34.796875 C 155.609375 34.132812 156.894531 33.570312 158.226562 33.117188 C 159.558594 32.664062 160.917969 32.320312 162.304688 32.089844 C 163.695312 31.859375 165.089844 31.746094 166.496094 31.746094 C 173.152344 31.746094 208.3125 34.152344 272.0625 79.875 C 292.894531 76.234375 313.84375 73.5 334.914062 71.671875 C 355.980469 69.84375 377.089844 68.929688 398.238281 68.929688 C 419.386719 68.929688 440.492188 69.84375 461.5625 71.671875 C 482.632812 73.5 503.582031 76.234375 524.414062 79.875 C 588.160156 34.152344 623.347656 31.746094 629.976562 31.746094 C 631.398438 31.746094 632.8125 31.863281 634.21875 32.097656 C 635.621094 32.332031 636.996094 32.683594 638.34375 33.148438 C 639.6875 33.613281 640.984375 34.183594 642.234375 34.867188 C 643.484375 35.546875 644.671875 36.328125 645.789062 37.207031 C 646.910156 38.085938 647.949219 39.054688 648.910156 40.105469 C 649.867188 41.160156 650.730469 42.285156 651.503906 43.480469 C 652.273438 44.679688 652.941406 45.933594 653.503906 47.242188 C 654.0625 48.546875 654.515625 49.894531 654.851562 51.277344 C 657.167969 60.820312 658.964844 70.460938 660.238281 80.199219 C 661.515625 89.9375 662.257812 99.714844 662.472656 109.535156 C 662.6875 119.351562 662.375 129.152344 661.527344 138.9375 C 660.679688 148.722656 659.308594 158.433594 657.410156 168.070312 C 660.253906 172.582031 662.917969 177.195312 665.40625 181.914062 C 667.890625 186.632812 670.1875 191.441406 672.300781 196.339844 C 674.410156 201.238281 676.328125 206.210938 678.054688 211.257812 C 679.78125 216.304688 681.308594 221.414062 682.636719 226.578125 C 683.964844 231.746094 685.089844 236.957031 686.011719 242.207031 C 686.933594 247.460938 687.652344 252.742188 688.164062 258.054688 C 688.679688 263.363281 688.984375 268.683594 689.082031 274.015625 C 689.183594 279.351562 689.074219 284.679688 688.757812 290.003906 C 688.527344 350.78125 663.167969 405.207031 617.488281 443.378906 C 609.597656 449.804688 601.324219 455.695312 592.675781 461.050781 C 584.023438 466.40625 575.0625 471.183594 565.796875 475.382812 C 556.527344 479.582031 547.027344 483.171875 537.296875 486.140625 C 527.566406 489.113281 517.683594 491.449219 507.652344 493.144531 C 511.042969 500.574219 513.929688 508.199219 516.304688 516.015625 C 518.679688 523.832031 520.523438 531.769531 521.839844 539.832031 C 523.15625 547.894531 523.933594 556.007812 524.167969 564.175781 C 524.398438 572.339844 524.089844 580.484375 523.238281 588.609375 L 523.238281 719.710938 C 523.238281 720.550781 523.195312 721.390625 523.113281 722.226562 C 523.03125 723.0625 522.90625 723.890625 522.742188 724.714844 C 522.578125 725.539062 522.375 726.351562 522.128906 727.15625 C 521.886719 727.960938 521.601562 728.75 521.28125 729.527344 C 520.960938 730.300781 520.601562 731.058594 520.203125 731.800781 C 519.808594 732.539062 519.375 733.261719 518.90625 733.957031 C 518.441406 734.65625 517.941406 735.328125 517.40625 735.976562 C 516.871094 736.625 516.308594 737.246094 515.714844 737.839844 C 515.121094 738.433594 514.496094 738.996094 513.847656 739.527344 C 513.195312 740.058594 512.523438 740.558594 511.824219 741.023438 C 511.125 741.488281 510.402344 741.917969 509.664062 742.3125 C 508.921875 742.707031 508.164062 743.066406 507.386719 743.386719 C 506.609375 743.703125 505.820312 743.984375 505.015625 744.226562 C 504.210938 744.46875 503.394531 744.671875 502.570312 744.832031 C 501.75 744.996094 500.917969 745.117188 500.082031 745.195312 C 499.246094 745.273438 498.410156 745.3125 497.570312 745.3125 Z M 497.570312 745.3125 " fill-opacity="1" fill-rule="nonzero"/></g><g clip-path="url(#660796dd88)"><path fill="#f5f5f5" d="M 223.949219 631.261719 C 167.34375 631.261719 133.871094 598.695312 109.25 574.734375 C 91.335938 557.300781 79.691406 546.574219 67.179688 546.574219 C 66.339844 546.574219 65.503906 546.53125 64.671875 546.449219 C 63.835938 546.367188 63.007812 546.246094 62.1875 546.082031 C 61.363281 545.917969 60.550781 545.714844 59.75 545.472656 C 58.949219 545.226562 58.160156 544.945312 57.386719 544.625 C 56.613281 544.304688 55.855469 543.945312 55.117188 543.550781 C 54.375 543.15625 53.660156 542.726562 52.960938 542.257812 C 52.265625 541.792969 51.59375 541.292969 50.945312 540.761719 C 50.296875 540.230469 49.675781 539.667969 49.082031 539.074219 C 48.492188 538.484375 47.929688 537.863281 47.398438 537.214844 C 46.867188 536.566406 46.367188 535.894531 45.902344 535.195312 C 45.433594 534.5 45.003906 533.78125 44.609375 533.042969 C 44.214844 532.300781 43.855469 531.542969 43.535156 530.769531 C 43.214844 529.996094 42.933594 529.207031 42.691406 528.40625 C 42.445312 527.601562 42.242188 526.789062 42.078125 525.96875 C 41.917969 525.144531 41.792969 524.316406 41.710938 523.484375 C 41.628906 522.648438 41.589844 521.8125 41.589844 520.972656 C 41.589844 520.132812 41.628906 519.296875 41.710938 518.464844 C 41.792969 517.628906 41.917969 516.800781 42.078125 515.980469 C 42.242188 515.15625 42.445312 514.34375 42.691406 513.542969 C 42.933594 512.738281 43.214844 511.949219 43.535156 511.175781 C 43.855469 510.402344 44.214844 509.644531 44.609375 508.90625 C 45.003906 508.164062 45.433594 507.449219 45.902344 506.75 C 46.367188 506.054688 46.867188 505.378906 47.398438 504.730469 C 47.929688 504.085938 48.492188 503.464844 49.082031 502.871094 C 49.675781 502.277344 50.296875 501.714844 50.945312 501.183594 C 51.59375 500.652344 52.265625 500.152344 52.960938 499.6875 C 53.660156 499.222656 54.375 498.789062 55.117188 498.394531 C 55.855469 498 56.613281 497.640625 57.386719 497.320312 C 58.160156 497 58.949219 496.71875 59.75 496.476562 C 60.550781 496.230469 61.363281 496.027344 62.1875 495.863281 C 63.007812 495.699219 63.835938 495.578125 64.671875 495.496094 C 65.503906 495.414062 66.339844 495.371094 67.179688 495.371094 C 101.113281 495.371094 124.402344 518.027344 144.925781 537.996094 C 178.859375 570.996094 208.160156 599.4375 288.542969 563.828125 C 289.308594 563.476562 290.09375 563.160156 290.890625 562.886719 C 291.691406 562.609375 292.5 562.375 293.324219 562.179688 C 294.148438 561.984375 294.976562 561.832031 295.8125 561.71875 C 296.652344 561.605469 297.492188 561.535156 298.339844 561.503906 C 299.183594 561.476562 300.027344 561.488281 300.871094 561.542969 C 301.714844 561.597656 302.550781 561.691406 303.386719 561.832031 C 304.21875 561.96875 305.046875 562.144531 305.863281 562.363281 C 306.679688 562.585938 307.480469 562.84375 308.273438 563.140625 C 309.0625 563.441406 309.835938 563.777344 310.59375 564.152344 C 311.351562 564.527344 312.089844 564.941406 312.804688 565.390625 C 313.519531 565.839844 314.214844 566.320312 314.882812 566.839844 C 315.550781 567.355469 316.191406 567.90625 316.804688 568.484375 C 317.421875 569.066406 318.003906 569.675781 318.558594 570.316406 C 319.113281 570.953125 319.632812 571.617188 320.121094 572.308594 C 320.609375 573 321.0625 573.710938 321.480469 574.445312 C 321.898438 575.179688 322.277344 575.9375 322.621094 576.707031 C 322.960938 577.480469 323.265625 578.269531 323.53125 579.070312 C 323.796875 579.875 324.019531 580.6875 324.203125 581.515625 C 324.386719 582.339844 324.53125 583.171875 324.632812 584.011719 C 324.734375 584.851562 324.792969 585.691406 324.8125 586.539062 C 324.832031 587.382812 324.808594 588.226562 324.742188 589.070312 C 324.675781 589.914062 324.570312 590.75 324.421875 591.585938 C 324.273438 592.417969 324.082031 593.238281 323.855469 594.054688 C 323.625 594.867188 323.355469 595.667969 323.046875 596.453125 C 322.738281 597.242188 322.390625 598.011719 322.003906 598.761719 C 321.617188 599.515625 321.195312 600.246094 320.738281 600.957031 C 320.28125 601.667969 319.789062 602.355469 319.261719 603.015625 C 318.738281 603.679688 318.179688 604.3125 317.59375 604.921875 C 317.003906 605.527344 316.386719 606.101562 315.742188 606.648438 C 315.09375 607.195312 314.421875 607.707031 313.726562 608.183594 C 313.03125 608.664062 312.3125 609.109375 311.570312 609.515625 C 310.832031 609.921875 310.074219 610.292969 309.296875 610.625 C 276 625.421875 247.902344 631.261719 223.949219 631.261719 Z M 223.949219 631.261719 " fill-opacity="1" fill-rule="nonzero"/></g></svg>