<svg v-else-if="icon == 'globe'" xmlns="http://www.w3.org/2000/svg" xmlns:xlink="http://www.w3.org/1999/xlink" :width="size" zoomAndPan="magnify" viewBox="0 0 768 767.999994" :height="size" preserveAspectRatio="xMidYMid meet" version="1.0"><defs><clipPath id="2ef9c4e249"><path :class="{ white: color == 'white', accent: color == 'accent' }"  d="M 36.441406 30.332031 L 731.691406 30.332031 L 731.691406 737.582031 L 36.441406 737.582031 Z M 36.441406 30.332031 " clip-rule="nonzero"/></clipPath></defs><g clip-path="url(#2ef9c4e249)"><path fill="#f5f5f5" d="M 558.589844 549.394531 C 564.5 526.4375 569 502.898438 571.96875 478.789062 C 572.351562 475.660156 572.710938 472.519531 573.042969 469.375 L 612.585938 469.375 C 626.617188 469.375 638.097656 457.695312 638.097656 443.421875 L 638.097656 404.261719 L 688.4375 404.425781 C 685.019531 457.460938 668.460938 506.902344 642.039062 549.394531 Z M 513.871094 664.753906 C 526.214844 641.574219 536.75 617.511719 545.46875 592.652344 L 609.648438 592.652344 C 582.824219 622.636719 550.308594 647.253906 513.871094 664.753906 Z M 454.769531 685.867188 C 438.398438 689.839844 421.523438 692.453125 404.257812 693.605469 L 404.257812 592.652344 L 500.269531 592.652344 C 487.792969 624.664062 471.898438 655.257812 452.554688 684.34375 Z M 530.53125 469.375 C 527.359375 496.875 522.105469 523.558594 514.777344 549.394531 L 404.257812 549.394531 L 404.257812 469.375 Z M 381.941406 372.3125 L 360.65625 441.425781 L 347.382812 441.425781 L 347.015625 442.609375 L 346.726562 441.425781 L 334.664062 441.425781 L 311.742188 358.609375 L 288.816406 441.425781 L 276.753906 441.425781 L 276.464844 442.609375 L 276.097656 441.425781 L 262.824219 441.425781 L 241.542969 372.3125 L 220.257812 441.425781 L 206.984375 441.425781 L 206.617188 442.609375 L 206.328125 441.425781 L 194.265625 441.425781 L 159.195312 314.726562 L 192.902344 314.726562 L 208.558594 378.820312 L 228.425781 314.726562 L 241.453125 314.726562 L 241.542969 314.4375 L 241.632812 314.726562 L 254.65625 314.726562 L 274.523438 378.820312 L 290.179688 314.726562 L 333.300781 314.726562 L 348.957031 378.820312 L 368.824219 314.726562 L 381.851562 314.726562 L 381.941406 314.4375 L 382.03125 314.726562 L 395.054688 314.726562 L 414.921875 378.820312 L 430.578125 314.726562 L 473.699219 314.726562 L 489.355469 378.820312 L 509.222656 314.726562 L 522.246094 314.726562 L 522.339844 314.4375 L 522.429688 314.726562 L 535.453125 314.726562 L 555.320312 378.820312 L 570.980469 314.726562 L 604.683594 314.726562 L 569.613281 441.425781 L 557.550781 441.425781 L 557.261719 442.609375 L 556.894531 441.425781 L 543.621094 441.425781 L 522.339844 372.3125 L 501.054688 441.425781 L 487.78125 441.425781 L 487.414062 442.609375 L 487.125 441.425781 L 475.066406 441.425781 L 452.140625 358.609375 L 429.214844 441.425781 L 417.152344 441.425781 L 416.863281 442.609375 L 416.496094 441.425781 L 403.222656 441.425781 Z M 361.742188 549.394531 L 245.386719 549.394531 C 238.171875 523.550781 233.101562 496.863281 230.167969 469.375 L 361.742188 469.375 Z M 361.742188 693.464844 C 343.1875 692.097656 325.082031 689.035156 307.578125 684.417969 C 288.113281 655.28125 272.164062 624.675781 259.757812 592.652344 L 361.742188 592.652344 Z M 158.484375 592.652344 L 213 592.652344 C 220.839844 615.117188 230.246094 636.925781 241.136719 658.054688 C 209.996094 641.179688 182.042969 618.988281 158.484375 592.652344 Z M 126.09375 549.394531 C 99.332031 506.363281 82.691406 456.210938 79.570312 402.414062 L 123.660156 402.5625 L 123.660156 443.421875 C 123.660156 457.695312 135.136719 469.375 149.167969 469.375 L 186.054688 469.375 C 186.578125 474.699219 187.15625 480.003906 187.832031 485.273438 C 190.621094 507.117188 194.703125 528.5 200.011719 549.394531 Z M 139.226562 199.03125 L 216.460938 199.03125 C 209.453125 221.984375 202.855469 247.132812 197.398438 274.027344 C 196.765625 277.148438 196.164062 280.265625 195.574219 283.378906 L 149.167969 283.378906 C 135.136719 283.378906 123.660156 295.054688 123.660156 309.328125 L 123.660156 359.304688 L 79.988281 359.160156 C 84.648438 299.46875 105.972656 244.484375 139.226562 199.03125 Z M 251.789062 104.308594 C 245.414062 118.609375 238.238281 135.914062 230.96875 155.773438 L 177.519531 155.773438 C 199.539062 135.121094 224.539062 117.710938 251.789062 104.308594 Z M 361.742188 199.03125 L 361.742188 283.378906 L 240.539062 283.378906 C 246.714844 252.730469 254.535156 224.320312 262.742188 199.03125 Z M 311.382812 82.511719 C 327.703125 78.4375 344.523438 75.695312 361.742188 74.425781 L 361.742188 155.773438 L 278.152344 155.773438 C 293.261719 116.929688 306.984375 90.632812 311.382812 82.511719 Z M 404.257812 199.03125 L 501.855469 199.03125 C 509.050781 222.757812 515.851562 249.058594 521.304688 277.246094 C 521.699219 279.296875 522.066406 281.335938 522.441406 283.378906 L 404.257812 283.378906 Z M 404.257812 74.285156 C 422.054688 75.472656 439.4375 78.222656 456.277344 82.394531 C 462.628906 95.15625 474.683594 120.855469 487.417969 155.773438 L 404.257812 155.773438 Z M 590.613281 155.773438 L 532.703125 155.773438 C 525.679688 135.316406 518.664062 117.371094 512.355469 102.40625 C 541.152344 116.046875 567.523438 134.121094 590.613281 155.773438 Z M 628.90625 199.03125 C 662.527344 244.992188 683.957031 300.703125 688.292969 361.171875 L 638.097656 361.003906 L 638.097656 309.328125 C 638.097656 295.054688 626.617188 283.378906 612.585938 283.378906 L 565.660156 283.378906 C 564.742188 278.109375 563.789062 272.832031 562.757812 267.539062 C 557.992188 243.148438 552.324219 220.214844 546.277344 199.03125 Z M 384.066406 30.332031 C 192.414062 30.332031 36.5 188.960938 36.5 383.945312 C 36.5 578.925781 192.414062 737.558594 384.066406 737.558594 C 575.714844 737.558594 731.632812 578.925781 731.632812 383.945312 C 731.632812 188.960938 575.714844 30.332031 384.066406 30.332031 " fill-opacity="1" fill-rule="nonzero"/></g></svg>