<svg xmlns="http://www.w3.org/2000/svg" xmlns:xlink="http://www.w3.org/1999/xlink" width="1024" zoomAndPan="magnify" viewBox="0 0 768 767.999994" height="1024" preserveAspectRatio="xMidYMid meet" version="1.0"><defs><clipPath id="e8cfeccb98"><path d="M 25.0625 56.816406 L 743.359375 56.816406 L 743.359375 153 L 25.0625 153 Z M 25.0625 56.816406 " clip-rule="nonzero"/></clipPath><clipPath id="ef591e097b"><path d="M 25.0625 335 L 743.359375 335 L 743.359375 432 L 25.0625 432 Z M 25.0625 335 " clip-rule="nonzero"/></clipPath><clipPath id="ee253d8156"><path d="M 25.0625 614 L 743.359375 614 L 743.359375 710.652344 L 25.0625 710.652344 Z M 25.0625 614 " clip-rule="nonzero"/></clipPath></defs><g clip-path="url(#e8cfeccb98)"><path fill="#ffffff" d="M 743.359375 152.515625 L 25.0625 152.515625 L 25.0625 56.835938 L 743.359375 56.835938 L 743.359375 152.515625 " fill-opacity="1" fill-rule="nonzero"/></g><g clip-path="url(#ef591e097b)"><path fill="#ffffff" d="M 743.359375 431.582031 L 25.0625 431.582031 L 25.0625 335.90625 L 743.359375 335.90625 L 743.359375 431.582031 " fill-opacity="1" fill-rule="nonzero"/></g><g clip-path="url(#ee253d8156)"><path fill="#ffffff" d="M 743.359375 710.652344 L 25.0625 710.652344 L 25.0625 614.972656 L 743.359375 614.972656 L 743.359375 710.652344 " fill-opacity="1" fill-rule="nonzero"/></g></svg>