<svg v-else-if="icon == 'handshake'" xmlns="http://www.w3.org/2000/svg" xmlns:xlink="http://www.w3.org/1999/xlink" :width="size" zoomAndPan="magnify" viewBox="0 0 768 767.999994" :height="size" preserveAspectRatio="xMidYMid meet" version="1.0"><defs><clipPath id="181c04d59e"><path :class="{ white: color == 'white', accent: color == 'accent' }" d="M 0 103.800781 L 768 103.800781 L 768 665 L 0 665 Z M 0 103.800781 " clip-rule="nonzero"/></clipPath></defs><g clip-path="url(#181c04d59e)"><path :class="{ white: color == 'white', accent: color == 'accent' }" fill="#f5f5f5" d="M -52.3125 -162.242188 L 87.726562 -162.242188 C 97.78125 -162.242188 106.003906 -154.015625 106.003906 -143.960938 L 106.003906 -88.554688 L 217.570312 -88.554688 L 217.570312 -96.246094 L 244.878906 -106.757812 C 248.34375 -121.308594 254.113281 -135.207031 261.957031 -147.945312 L 250.070312 -174.707031 L 281.613281 -206.25 L 308.375 -194.363281 C 321.113281 -202.207031 335.007812 -207.972656 349.5625 -211.4375 L 360.074219 -238.75 L 404.679688 -238.75 L 415.191406 -211.4375 C 429.746094 -207.972656 443.640625 -202.203125 456.378906 -194.363281 L 483.140625 -206.25 L 514.683594 -174.707031 L 502.800781 -147.953125 C 510.644531 -135.214844 516.414062 -121.3125 519.878906 -106.753906 L 547.183594 -96.246094 L 547.183594 -88.554688 L 658.75 -88.554688 L 658.75 -143.960938 C 658.75 -154.015625 666.976562 -162.242188 677.027344 -162.242188 L 817.066406 -162.242188 C 827.121094 -162.242188 835.34375 -154.015625 835.34375 -143.960938 L 835.34375 -3.921875 C 835.34375 6.132812 827.117188 14.359375 817.066406 14.359375 L 677.027344 14.359375 C 666.972656 14.359375 658.75 6.132812 658.75 -3.921875 L 658.75 -59.328125 L 547.183594 -59.328125 L 547.183594 -51.636719 L 519.871094 -41.125 C 516.410156 -26.574219 510.640625 -12.675781 502.796875 0.0625 L 514.683594 26.824219 L 483.144531 58.371094 L 456.390625 46.484375 C 443.652344 54.332031 429.746094 60.101562 415.191406 63.5625 L 404.683594 90.867188 L 360.078125 90.867188 L 349.5625 63.558594 C 335.011719 60.09375 321.117188 54.324219 308.378906 46.484375 L 281.617188 58.371094 L 250.074219 26.828125 L 261.957031 0.0742188 C 254.113281 -12.664062 248.34375 -26.570312 244.878906 -41.125 L 217.574219 -51.632812 L 217.574219 -59.324219 L 106.007812 -59.324219 L 106.007812 -3.917969 C 106.007812 6.136719 97.78125 14.363281 87.730469 14.363281 L -52.308594 14.363281 C -62.367188 14.359375 -70.589844 6.132812 -70.589844 -3.921875 L -70.589844 -143.960938 C -70.589844 -154.015625 -62.367188 -162.242188 -52.3125 -162.242188 Z M 288.136719 629.777344 C 280.914062 631.964844 273.300781 631.230469 266.71875 627.707031 C 253.027344 620.394531 247.84375 603.304688 255.179688 589.617188 L 285.246094 533.390625 C 286.945312 528.265625 295.597656 522.253906 300.347656 520.351562 C 307.722656 517.386719 316.394531 518.144531 323.351562 521.855469 C 329.898438 525.339844 334.71875 531.246094 336.90625 538.46875 C 339.113281 545.730469 338.394531 553.34375 334.871094 559.925781 L 304.796875 616.167969 C 301.273438 622.742188 295.351562 627.589844 288.136719 629.777344 Z M 204.78125 602.3125 C 212.003906 600.121094 217.921875 595.277344 221.441406 588.691406 L 258.640625 519.160156 C 262.171875 512.5625 262.882812 504.945312 260.675781 497.6875 C 258.5 490.480469 253.667969 484.585938 247.121094 481.097656 C 233.429688 473.777344 216.40625 478.910156 209.058594 492.519531 L 171.816406 562.152344 C 164.503906 575.839844 169.671875 592.917969 183.363281 600.238281 C 189.945312 603.757812 197.5625 604.496094 204.78125 602.3125 Z M 122.460938 530.8125 C 109.023438 523.609375 103.746094 506.171875 110.925781 492.730469 C 110.925781 492.730469 138.355469 441.425781 138.375 441.40625 C 145.5625 427.9375 163.039062 422.683594 176.480469 429.886719 C 189.929688 437.066406 195.1875 454.507812 188 467.949219 C 188 467.949219 160.515625 519.328125 160.496094 519.371094 C 153.328125 532.777344 135.828125 537.953125 122.460938 530.8125 Z M 677.972656 395.046875 C 673.472656 389.476562 667.886719 384.636719 661.3125 380.882812 L 511.816406 295.679688 C 498.730469 288.214844 485.257812 285.269531 471.566406 285.269531 C 445.070312 285.269531 417.789062 296.320312 391.113281 307.109375 C 340.429688 327.640625 296.125 345.570312 254.726562 300.359375 C 294.886719 275.992188 329.175781 249.550781 356.832031 221.59375 C 369.015625 209.28125 381.40625 198.75 393.621094 190.296875 C 452.03125 149.921875 492.414062 166.433594 531.480469 182.398438 C 559.972656 194.042969 589.421875 206.089844 620.261719 190.03125 L 663.195312 167.046875 C 667.972656 164.488281 673.078125 164.136719 678.160156 166.019531 C 683.242188 167.90625 686.886719 171.492188 688.84375 176.546875 L 753.605469 343.613281 C 757.164062 352.796875 752.796875 363.15625 743.734375 367.019531 Z M 657.675781 445.417969 C 665.039062 432.03125 659.96875 414.835938 646.378906 407.089844 L 496.882812 321.882812 C 471.183594 307.234375 439.324219 320.132812 402.445312 335.082031 C 347.039062 357.5 278.085938 385.429688 219.789062 305.105469 C 217.28125 301.636719 216.355469 297.261719 217.246094 293.082031 C 218.152344 288.890625 220.785156 285.289062 224.503906 283.164062 C 268.90625 257.722656 306.210938 229.871094 335.402344 200.367188 C 342.980469 192.710938 350.660156 185.671875 358.363281 179.277344 C 325.21875 164.21875 297.148438 170.84375 267.695312 177.808594 C 239.222656 184.535156 209.769531 191.492188 179.726562 174.867188 L 111.027344 143.171875 C 101.929688 138.976562 91.105469 142.925781 86.84375 151.988281 L 11.671875 311.96875 C 7.304688 321.261719 11.339844 332.175781 20.703125 336.390625 C 46.828125 348.152344 82.710938 364.257812 90.164062 367.15625 C 112.375 375.769531 117.710938 397.320312 120.941406 414.496094 C 127.796875 407.277344 136.453125 401.902344 146.296875 398.921875 C 161.226562 394.402344 176.984375 395.949219 190.675781 403.261719 C 204.328125 410.539062 214.363281 422.777344 218.898438 437.703125 C 220.027344 441.4375 220.808594 445.210938 221.183594 449 C 234.324219 446.074219 248.535156 447.621094 261.328125 454.472656 C 274.972656 461.746094 285.007812 473.988281 289.550781 488.914062 C 289.851562 489.875 290.109375 490.851562 290.359375 491.839844 C 291.285156 491.503906 292.199219 491.199219 293.171875 490.914062 C 308.097656 486.386719 323.855469 487.917969 337.546875 495.257812 C 351.199219 502.515625 361.234375 514.746094 365.769531 529.679688 C 366.074219 530.65625 366.339844 531.636719 366.585938 532.597656 C 367.503906 532.277344 368.445312 531.964844 369.390625 531.671875 C 384.324219 527.152344 400.085938 528.699219 413.773438 536.011719 C 420.464844 539.578125 426.273438 544.328125 431.003906 550.003906 L 496.59375 586.277344 C 510.195312 593.75 527.34375 588.785156 534.816406 575.191406 C 542.226562 561.707031 537.191406 544.53125 523.601562 536.898438 L 431.324219 484.949219 C 424.066406 480.859375 421.488281 471.664062 425.578125 464.402344 C 429.667969 457.144531 438.867188 454.574219 446.125 458.667969 L 562.851562 523.902344 C 576.445312 531.375 593.605469 526.394531 601.066406 512.800781 C 608.472656 499.335938 603.441406 482.15625 589.847656 474.507812 C 589.476562 474.292969 497.601562 422.339844 497.601562 422.339844 C 490.339844 418.230469 487.78125 409.023438 491.886719 401.789062 C 495.972656 394.53125 505.179688 391.960938 512.4375 396.054688 L 619.601562 456.59375 C 632.894531 464.105469 650.375 458.6875 657.675781 445.417969 Z M 480.785156 644.125 C 473.320312 657.71875 456.164062 662.699219 442.570312 655.238281 L 422.148438 643.996094 L 437.707031 614.945312 C 441.550781 607.71875 443.789062 599.9375 444.394531 591.992188 L 469.453125 605.78125 L 469.65625 605.886719 C 483.253906 613.410156 488.246094 630.570312 480.785156 644.125 Z M 368.109375 663.527344 C 375.332031 661.335938 381.25 656.5 384.78125 649.917969 L 411.097656 600.710938 C 418.285156 587.277344 413.003906 569.828125 399.578125 562.640625 C 386.34375 555.546875 368.359375 560.523438 361.472656 574.160156 L 335.152344 623.367188 C 327.84375 637.054688 333.007812 654.144531 346.691406 661.453125 C 353.292969 664.976562 360.890625 665.714844 368.109375 663.527344 Z M 699.46875 -67.234375 L 730.164062 -36.535156 C 735.871094 -30.828125 745.121094 -30.828125 750.828125 -36.535156 C 751.222656 -36.925781 751.585938 -37.335938 751.925781 -37.757812 L 795.660156 -91.828125 C 800.734375 -98.101562 799.761719 -107.300781 793.492188 -112.378906 C 787.21875 -117.453125 778.019531 -116.480469 772.941406 -110.210938 L 739.347656 -68.675781 L 720.128906 -87.894531 C 714.425781 -93.601562 705.171875 -93.601562 699.46875 -87.894531 C 693.761719 -82.1875 693.761719 -72.9375 699.46875 -67.234375 Z M 382.378906 -158.539062 C 335.652344 -158.539062 297.785156 -120.664062 297.785156 -73.941406 C 297.785156 -27.214844 335.65625 10.65625 382.378906 10.65625 C 429.101562 10.65625 466.972656 -27.214844 466.972656 -73.941406 C 466.972656 -120.667969 429.101562 -158.539062 382.378906 -158.539062 Z M -29.875 -67.234375 L 0.824219 -36.535156 C 6.527344 -30.828125 15.78125 -30.828125 21.484375 -36.535156 C 21.878906 -36.925781 22.242188 -37.335938 22.582031 -37.757812 L 66.316406 -91.828125 C 71.390625 -98.101562 70.421875 -107.300781 64.148438 -112.378906 C 57.875 -117.453125 48.675781 -116.480469 43.601562 -110.210938 L 10.007812 -68.675781 L -9.210938 -87.894531 C -14.917969 -93.601562 -24.167969 -93.601562 -29.875 -87.894531 C -35.582031 -82.1875 -35.582031 -72.9375 -29.875 -67.234375 Z M -29.875 -67.234375 " fill-opacity="1" fill-rule="evenodd"/></g></svg>