<svg v-else-if="icon == 'home'" xmlns="http://www.w3.org/2000/svg" xmlns:xlink="http://www.w3.org/1999/xlink" :width="size" zoomAndPan="magnify" viewBox="0 0 768 767.999994" :height="size" preserveAspectRatio="xMidYMid meet" version="1.0"><defs><clipPath id="c4f2b3619d"><path d="M 113 152 L 650 152 L 650 744.960938 L 113 744.960938 Z M 113 152 " clip-rule="nonzero"/></clipPath><clipPath id="cc7a08f143"><path d="M 0 22.710938 L 763.5 22.710938 L 763.5 405 L 0 405 Z M 0 22.710938 " clip-rule="nonzero"/></clipPath></defs><g clip-path="url(#c4f2b3619d)"><path class="accent" fill="#f5f5f5" d="M 649.792969 389.839844 Z M 649.792969 389.839844 L 381.832031 152.601562 L 113.710938 389.941406 L 113.710938 729.078125 C 113.710938 737.835938 120.792969 744.859375 129.554688 744.859375 L 297.113281 744.859375 L 297.113281 596.164062 C 297.113281 587.40625 304.144531 580.328125 312.90625 580.328125 L 450.589844 580.328125 C 459.347656 580.328125 466.378906 587.40625 466.378906 596.164062 L 466.378906 744.859375 L 633.988281 744.859375 C 642.75 744.859375 649.777344 737.835938 649.777344 729.078125 L 649.777344 389.824219 Z M 113.710938 389.945312 Z M 113.710938 389.945312 " fill-opacity="1" fill-rule="nonzero"/></g><g clip-path="url(#cc7a08f143)"><path fill="#f5f5f5" d="M 380.269531 22.765625 L 0 359.371094 L 40.058594 404.546875 L 381.832031 102 L 723.519531 404.546875 L 763.5 359.371094 L 383.3125 22.765625 L 381.835938 24.476562 L 380.28125 22.765625 Z M 380.269531 22.765625 " fill-opacity="1" fill-rule="nonzero"/></g><path fill="#f5f5f5" d="M 113.710938 71.222656 L 210.109375 71.222656 L 209.269531 128.300781 L 113.710938 214.601562 Z M 113.710938 71.222656 " fill-opacity="1" fill-rule="nonzero"/></svg>