<svg v-else-if="icon == 'homeArrow'" xmlns="http://www.w3.org/2000/svg" xmlns:xlink="http://www.w3.org/1999/xlink" :width="size" zoomAndPan="magnify" viewBox="0 0 768 767.999994" :height="size" preserveAspectRatio="xMidYMid meet" version="1.0"><defs><clipPath id="c28285e583"><path :class="{ white: color == 'white', accent: color == 'accent' }" d="M 28 29 L 740 29 L 740 709.710938 L 28 709.710938 Z M 28 29 " clip-rule="nonzero"/></clipPath></defs><g clip-path="url(#c28285e583)"><path :class="{ white: color == 'white', accent: color == 'accent' }" fill="#f5f5f5" d="M 637.390625 709.785156 L 478.117188 709.785156 C 471.96875 709.785156 466.988281 704.804688 466.988281 698.664062 L 466.988281 472.835938 L 304.984375 472.835938 L 304.984375 698.664062 C 304.984375 704.804688 300 709.785156 293.855469 709.785156 L 130.601562 709.785156 C 124.457031 709.785156 119.476562 704.804688 119.476562 698.664062 L 119.476562 367.046875 L 39.910156 367.046875 C 35.320312 367.046875 31.203125 364.230469 29.539062 359.957031 C 27.878906 355.679688 29.011719 350.824219 32.394531 347.726562 L 376.480469 32.667969 C 380.734375 28.773438 387.261719 28.773438 391.515625 32.667969 L 735.601562 347.726562 C 738.984375 350.824219 740.117188 355.679688 738.453125 359.957031 C 736.789062 364.230469 732.671875 367.046875 728.082031 367.046875 L 648.519531 367.046875 L 648.519531 698.664062 C 648.519531 704.804688 643.539062 709.785156 637.390625 709.785156 Z M 489.242188 687.542969 L 626.265625 687.542969 L 626.265625 355.925781 C 626.265625 349.785156 631.246094 344.804688 637.390625 344.804688 L 699.46875 344.804688 L 383.996094 55.949219 L 68.527344 344.804688 L 130.601562 344.804688 C 136.746094 344.804688 141.730469 349.785156 141.730469 355.925781 L 141.730469 687.542969 L 282.730469 687.542969 L 282.730469 461.714844 C 282.730469 455.574219 287.710938 450.597656 293.855469 450.597656 L 478.117188 450.597656 C 484.261719 450.597656 489.242188 455.574219 489.242188 461.714844 Z M 489.242188 687.542969 " fill-opacity="1" fill-rule="nonzero"/></g></svg>