<svg xmlns="http://www.w3.org/2000/svg" xmlns:xlink="http://www.w3.org/1999/xlink" width="1024" zoomAndPan="magnify" viewBox="0 0 768 767.999994" height="1024" preserveAspectRatio="xMidYMid meet" version="1.0"><defs><clipPath id="a3488f2669"><path d="M 22 10 L 748.265625 10 L 748.265625 758 L 22 758 Z M 22 10 " clip-rule="nonzero"/></clipPath></defs><g clip-path="url(#a3488f2669)"><path fill="#ffffff" d="M 385.148438 757.179688 C 380.789062 757.199219 376.539062 756.527344 372.398438 755.160156 L 130.324219 674.488281 C 128.546875 673.894531 126.820312 673.183594 125.140625 672.351562 C 123.464844 671.519531 121.851562 670.574219 120.308594 669.519531 C 118.761719 668.460938 117.296875 667.304688 115.914062 666.042969 C 114.527344 664.78125 113.238281 663.433594 112.042969 661.992188 C 110.84375 660.550781 109.753906 659.035156 108.769531 657.445312 C 107.78125 655.851562 106.914062 654.199219 106.15625 652.488281 C 105.402344 650.773438 104.769531 649.019531 104.257812 647.214844 C 103.75 645.414062 103.363281 643.585938 103.109375 641.734375 L 22.417969 56.847656 C 22.21875 55.421875 22.097656 53.992188 22.050781 52.554688 C 22.003906 51.117188 22.035156 49.683594 22.144531 48.25 C 22.253906 46.816406 22.4375 45.390625 22.699219 43.976562 C 22.957031 42.5625 23.292969 41.167969 23.703125 39.789062 C 24.113281 38.410156 24.59375 37.058594 25.148438 35.730469 C 25.703125 34.40625 26.328125 33.113281 27.019531 31.851562 C 27.710938 30.59375 28.46875 29.371094 29.292969 28.195312 C 30.117188 27.015625 31 25.882812 31.945312 24.796875 C 32.886719 23.714844 33.886719 22.683594 34.941406 21.703125 C 35.996094 20.726562 37.101562 19.808594 38.253906 18.949219 C 39.40625 18.089844 40.601562 17.292969 41.839844 16.5625 C 43.074219 15.828125 44.347656 15.164062 45.660156 14.570312 C 46.96875 13.972656 48.304688 13.449219 49.667969 12.996094 C 51.035156 12.542969 52.417969 12.164062 53.824219 11.859375 C 55.230469 11.554688 56.648438 11.328125 58.078125 11.171875 C 59.507812 11.019531 60.941406 10.945312 62.378906 10.945312 L 707.917969 10.945312 C 709.355469 10.945312 710.789062 11.019531 712.21875 11.175781 C 713.644531 11.328125 715.0625 11.554688 716.464844 11.859375 C 717.871094 12.164062 719.253906 12.542969 720.617188 12.996094 C 721.980469 13.449219 723.316406 13.972656 724.625 14.566406 C 725.933594 15.160156 727.203125 15.824219 728.441406 16.554688 C 729.679688 17.285156 730.871094 18.082031 732.023438 18.9375 C 733.175781 19.796875 734.28125 20.714844 735.332031 21.691406 C 736.386719 22.667969 737.386719 23.695312 738.328125 24.777344 C 739.273438 25.859375 740.15625 26.992188 740.980469 28.167969 C 741.804688 29.34375 742.5625 30.5625 743.253906 31.820312 C 743.949219 33.078125 744.570312 34.371094 745.128906 35.695312 C 745.683594 37.019531 746.164062 38.371094 746.578125 39.746094 C 746.988281 41.125 747.324219 42.519531 747.585938 43.929688 C 747.847656 45.34375 748.03125 46.765625 748.140625 48.199219 C 748.253906 49.628906 748.285156 51.0625 748.242188 52.5 C 748.199219 53.933594 748.078125 55.363281 747.882812 56.785156 L 667.191406 641.671875 C 666.9375 643.53125 666.554688 645.359375 666.046875 647.164062 C 665.539062 648.96875 664.90625 650.730469 664.152344 652.445312 C 663.398438 654.160156 662.53125 655.816406 661.546875 657.410156 C 660.558594 659.003906 659.46875 660.523438 658.273438 661.96875 C 657.078125 663.410156 655.785156 664.761719 654.402344 666.027344 C 653.015625 667.289062 651.550781 668.449219 650.003906 669.507812 C 648.453125 670.566406 646.84375 671.511719 645.164062 672.347656 C 643.484375 673.179688 641.753906 673.894531 639.976562 674.488281 L 397.898438 755.160156 C 393.757812 756.527344 389.507812 757.199219 385.148438 757.179688 Z M 179.625 605.914062 L 385.148438 674.324219 L 590.671875 605.753906 L 661.621094 91.617188 L 108.777344 91.617188 Z M 179.625 605.914062 " fill-opacity="1" fill-rule="nonzero"/></g><path fill="#ffffff" d="M 385.148438 585.746094 C 381.199219 585.746094 377.335938 585.179688 373.550781 584.050781 L 272.683594 553.800781 C 270.941406 553.273438 269.238281 552.636719 267.582031 551.882812 C 265.925781 551.128906 264.324219 550.265625 262.785156 549.296875 C 261.242188 548.328125 259.773438 547.257812 258.378906 546.089844 C 256.984375 544.917969 255.671875 543.660156 254.445312 542.316406 C 253.222656 540.96875 252.089844 539.546875 251.058594 538.046875 C 250.027344 536.546875 249.097656 534.984375 248.277344 533.359375 C 247.457031 531.734375 246.746094 530.0625 246.152344 528.339844 C 245.558594 526.621094 245.082031 524.867188 244.722656 523.082031 L 240.691406 502.914062 C 240.4375 501.65625 240.25 500.390625 240.117188 499.117188 C 239.988281 497.84375 239.917969 496.566406 239.910156 495.285156 C 239.902344 494.003906 239.957031 492.722656 240.070312 491.445312 C 240.183594 490.171875 240.355469 488.902344 240.589844 487.644531 C 240.824219 486.382812 241.117188 485.136719 241.472656 483.90625 C 241.824219 482.675781 242.238281 481.460938 242.703125 480.269531 C 243.171875 479.078125 243.699219 477.910156 244.277344 476.765625 C 244.859375 475.625 245.492188 474.511719 246.175781 473.429688 C 246.863281 472.347656 247.597656 471.300781 248.382812 470.289062 C 249.171875 469.277344 250.003906 468.304688 250.882812 467.371094 C 251.757812 466.4375 252.679688 465.550781 253.644531 464.703125 C 254.605469 463.859375 255.609375 463.0625 256.648438 462.3125 C 257.6875 461.5625 258.757812 460.863281 259.863281 460.214844 C 260.972656 459.566406 262.105469 458.972656 263.269531 458.433594 C 264.429688 457.894531 265.617188 457.414062 266.824219 456.984375 C 268.03125 456.558594 269.257812 456.191406 270.5 455.882812 C 271.746094 455.570312 273 455.320312 274.269531 455.132812 C 275.535156 454.941406 276.808594 454.8125 278.089844 454.742188 C 279.367188 454.675781 280.648438 454.667969 281.929688 454.71875 C 283.210938 454.773438 284.484375 454.886719 285.753906 455.0625 C 287.023438 455.234375 288.28125 455.46875 289.53125 455.765625 C 290.777344 456.058594 292.007812 456.414062 293.222656 456.824219 C 294.433594 457.234375 295.625 457.703125 296.792969 458.230469 C 297.964844 458.753906 299.105469 459.335938 300.21875 459.96875 C 301.332031 460.601562 302.414062 461.289062 303.460938 462.023438 C 304.511719 462.761719 305.519531 463.546875 306.496094 464.378906 C 307.46875 465.214844 308.398438 466.089844 309.289062 467.011719 C 310.179688 467.933594 311.023438 468.898438 311.820312 469.898438 C 312.621094 470.902344 313.367188 471.941406 314.066406 473.011719 C 314.765625 474.085938 315.414062 475.191406 316.007812 476.328125 C 316.601562 477.460938 317.140625 478.625 317.625 479.808594 C 318.105469 480.996094 318.53125 482.203125 318.902344 483.429688 L 385.148438 503.296875 L 449.703125 483.933594 L 459.667969 414.3125 L 264.109375 414.3125 C 262.894531 414.3125 261.679688 414.257812 260.46875 414.148438 C 259.257812 414.039062 258.054688 413.875 256.855469 413.652344 C 255.660156 413.433594 254.476562 413.164062 253.304688 412.835938 C 252.132812 412.511719 250.976562 412.132812 249.839844 411.703125 C 248.703125 411.269531 247.585938 410.789062 246.492188 410.257812 C 245.398438 409.726562 244.332031 409.148438 243.289062 408.519531 C 242.246094 407.890625 241.234375 407.21875 240.253906 406.5 C 239.273438 405.78125 238.328125 405.015625 237.417969 404.210938 C 236.503906 403.40625 235.632812 402.5625 234.796875 401.679688 C 233.960938 400.792969 233.167969 399.875 232.414062 398.917969 C 231.660156 397.964844 230.953125 396.976562 230.292969 395.957031 C 229.628906 394.9375 229.011719 393.886719 228.445312 392.8125 C 227.878906 391.738281 227.359375 390.640625 226.890625 389.515625 C 226.421875 388.394531 226.003906 387.253906 225.640625 386.09375 C 225.273438 384.933594 224.960938 383.757812 224.703125 382.570312 C 224.441406 381.382812 224.238281 380.183594 224.085938 378.976562 L 203.914062 217.628906 C 203.738281 216.214844 203.636719 214.796875 203.609375 213.371094 C 203.582031 211.945312 203.632812 210.523438 203.757812 209.101562 C 203.882812 207.683594 204.082031 206.273438 204.355469 204.875 C 204.628906 203.476562 204.976562 202.09375 205.398438 200.730469 C 205.816406 199.371094 206.308594 198.035156 206.871094 196.722656 C 207.433594 195.414062 208.0625 194.136719 208.761719 192.894531 C 209.460938 191.648438 210.222656 190.445312 211.046875 189.285156 C 211.871094 188.121094 212.753906 187.007812 213.699219 185.9375 C 214.644531 184.867188 215.640625 183.851562 216.691406 182.890625 C 217.742188 181.925781 218.84375 181.019531 219.988281 180.175781 C 221.136719 179.328125 222.324219 178.542969 223.554688 177.824219 C 224.785156 177.101562 226.050781 176.449219 227.351562 175.863281 C 228.648438 175.277344 229.976562 174.761719 231.332031 174.316406 C 232.6875 173.871094 234.058594 173.496094 235.453125 173.195312 C 236.847656 172.894531 238.253906 172.671875 239.671875 172.519531 C 241.089844 172.367188 242.511719 172.292969 243.9375 172.292969 L 526.363281 172.292969 C 527.683594 172.292969 529 172.355469 530.316406 172.484375 C 531.632812 172.617188 532.9375 172.808594 534.234375 173.066406 C 535.527344 173.324219 536.808594 173.644531 538.074219 174.027344 C 539.339844 174.414062 540.582031 174.855469 541.800781 175.363281 C 543.023438 175.867188 544.214844 176.433594 545.378906 177.054688 C 546.546875 177.675781 547.679688 178.355469 548.777344 179.089844 C 549.875 179.824219 550.9375 180.609375 551.957031 181.449219 C 552.980469 182.285156 553.957031 183.171875 554.890625 184.105469 C 555.824219 185.039062 556.710938 186.019531 557.550781 187.039062 C 558.386719 188.058594 559.175781 189.121094 559.910156 190.21875 C 560.640625 191.316406 561.320312 192.449219 561.945312 193.613281 C 562.566406 194.777344 563.132812 195.972656 563.636719 197.191406 C 564.140625 198.414062 564.585938 199.65625 564.96875 200.917969 C 565.355469 202.183594 565.675781 203.464844 565.933594 204.757812 C 566.191406 206.054688 566.382812 207.359375 566.515625 208.675781 C 566.644531 209.988281 566.707031 211.308594 566.707031 212.628906 C 566.707031 213.949219 566.644531 215.269531 566.515625 216.582031 C 566.382812 217.898438 566.191406 219.203125 565.933594 220.5 C 565.675781 221.792969 565.355469 223.074219 564.96875 224.339844 C 564.585938 225.601562 564.140625 226.84375 563.636719 228.066406 C 563.132812 229.285156 562.566406 230.476562 561.945312 231.644531 C 561.320312 232.808594 560.640625 233.941406 559.910156 235.039062 C 559.175781 236.136719 558.386719 237.195312 557.550781 238.21875 C 556.710938 239.238281 555.824219 240.21875 554.890625 241.152344 C 553.957031 242.085938 552.980469 242.972656 551.957031 243.808594 C 550.9375 244.648438 549.875 245.433594 548.777344 246.167969 C 547.679688 246.902344 546.546875 247.578125 545.378906 248.203125 C 544.214844 248.824219 543.023438 249.390625 541.800781 249.894531 C 540.582031 250.402344 539.339844 250.84375 538.074219 251.230469 C 536.808594 251.613281 535.527344 251.933594 534.234375 252.191406 C 532.9375 252.449219 531.632812 252.640625 530.316406 252.773438 C 529 252.902344 527.683594 252.964844 526.363281 252.964844 L 289.648438 252.964844 L 299.738281 333.640625 L 506.1875 333.640625 C 507.628906 333.640625 509.066406 333.714844 510.5 333.871094 C 511.933594 334.023438 513.351562 334.253906 514.761719 334.558594 C 516.167969 334.867188 517.558594 335.246094 518.925781 335.703125 C 520.292969 336.15625 521.632812 336.683594 522.941406 337.28125 C 524.253906 337.878906 525.527344 338.546875 526.769531 339.28125 C 528.007812 340.015625 529.203125 340.8125 530.359375 341.675781 C 531.511719 342.539062 532.617188 343.460938 533.671875 344.441406 C 534.726562 345.425781 535.726562 346.460938 536.671875 347.546875 C 537.613281 348.636719 538.5 349.773438 539.320312 350.957031 C 540.144531 352.136719 540.898438 353.363281 541.589844 354.625 C 542.28125 355.890625 542.90625 357.1875 543.457031 358.519531 C 544.007812 359.847656 544.488281 361.207031 544.894531 362.589844 C 545.300781 363.96875 545.632812 365.371094 545.890625 366.789062 C 546.148438 368.207031 546.328125 369.632812 546.433594 371.070312 C 546.535156 372.507812 546.5625 373.945312 546.511719 375.386719 C 546.460938 376.824219 546.335938 378.257812 546.132812 379.683594 L 525.957031 520.863281 C 525.6875 522.757812 525.285156 524.625 524.746094 526.464844 C 524.210938 528.304688 523.546875 530.09375 522.753906 531.835938 C 521.964844 533.582031 521.050781 535.261719 520.019531 536.875 C 518.988281 538.488281 517.851562 540.019531 516.601562 541.472656 C 515.351562 542.925781 514.007812 544.28125 512.5625 545.539062 C 511.121094 546.800781 509.597656 547.953125 507.992188 548.996094 C 506.382812 550.039062 504.710938 550.960938 502.972656 551.765625 C 501.234375 552.570312 499.449219 553.25 497.613281 553.800781 L 396.75 584.050781 C 392.964844 585.179688 389.097656 585.746094 385.148438 585.746094 Z M 385.148438 585.746094 " fill-opacity="1" fill-rule="nonzero"/></svg>