<svg xmlns="http://www.w3.org/2000/svg" xmlns:xlink="http://www.w3.org/1999/xlink" width="1024" zoomAndPan="magnify" viewBox="0 0 768 767.999994" height="1024" preserveAspectRatio="xMidYMid meet" version="1.0"><defs><clipPath id="032efd1d9f"><path d="M 27.070312 31.488281 L 741.070312 31.488281 L 741.070312 745.488281 L 27.070312 745.488281 Z M 27.070312 31.488281 " clip-rule="nonzero"/></clipPath></defs><g clip-path="url(#032efd1d9f)"><path fill="#f5f5f5" d="M 676.886719 557.390625 C 676.886719 625.726562 621.300781 681.308594 552.96875 681.308594 L 215.171875 681.308594 C 146.839844 681.308594 91.253906 625.726562 91.253906 557.390625 L 91.253906 219.589844 C 91.253906 151.253906 146.839844 95.671875 215.171875 95.671875 L 552.976562 95.671875 C 621.300781 95.671875 676.894531 151.253906 676.894531 219.589844 L 676.894531 557.390625 Z M 552.96875 31.488281 L 215.171875 31.488281 C 111.449219 31.488281 27.070312 115.871094 27.070312 219.589844 L 27.070312 557.394531 C 27.070312 661.109375 111.449219 745.488281 215.171875 745.488281 L 552.976562 745.488281 C 656.691406 745.488281 741.070312 661.109375 741.070312 557.390625 L 741.070312 219.589844 C 741.070312 115.871094 656.691406 31.488281 552.96875 31.488281 " fill-opacity="1" fill-rule="nonzero"/></g><path fill="#f5f5f5" d="M 384.070312 504.335938 C 320.191406 504.335938 268.222656 452.371094 268.222656 388.488281 C 268.222656 324.609375 320.191406 272.644531 384.070312 272.644531 C 447.949219 272.644531 499.917969 324.609375 499.917969 388.488281 C 499.917969 452.371094 447.949219 504.335938 384.070312 504.335938 Z M 384.070312 208.460938 C 284.800781 208.460938 204.042969 289.222656 204.042969 388.488281 C 204.042969 487.757812 284.800781 568.519531 384.070312 568.519531 C 483.339844 568.519531 564.097656 487.757812 564.097656 388.488281 C 564.097656 289.222656 483.339844 208.460938 384.070312 208.460938 " fill-opacity="1" fill-rule="nonzero"/><path fill="#f5f5f5" d="M 572.023438 164.433594 C 591.960938 164.433594 608.125 180.597656 608.125 200.535156 C 608.125 220.472656 591.960938 236.636719 572.023438 236.636719 C 552.089844 236.636719 535.921875 220.472656 535.921875 200.535156 C 535.921875 180.597656 552.089844 164.433594 572.023438 164.433594 " fill-opacity="1" fill-rule="nonzero"/></svg>