<svg v-else-if="icon == 'test'"
			:class="{ sm: size == 'sm', md: size == 'md' }" xmlns="http://www.w3.org/2000/svg" xmlns:xlink="http://www.w3.org/1999/xlink" width="1024" zoomAndPan="magnify" viewBox="0 0 768 767.999994" height="1024" preserveAspectRatio="xMidYMid meet" version="1.0"><defs><clipPath id="86230ab8f2"><path d="M 24 13 L 746.027344 13 L 746.027344 756 L 24 756 Z M 24 13 " clip-rule="nonzero"/></clipPath></defs><g clip-path="url(#86230ab8f2)"><path fill="#ffffff" d="M 385.15625 755.011719 C 380.824219 755.035156 376.601562 754.367188 372.484375 753.007812 L 131.902344 672.820312 C 130.140625 672.230469 128.421875 671.523438 126.753906 670.695312 C 125.089844 669.867188 123.488281 668.929688 121.949219 667.878906 C 120.414062 666.828125 118.957031 665.679688 117.582031 664.425781 C 116.207031 663.171875 114.925781 661.832031 113.734375 660.398438 C 112.546875 658.96875 111.460938 657.460938 110.484375 655.878906 C 109.503906 654.296875 108.640625 652.652344 107.886719 650.953125 C 107.136719 649.25 106.507812 647.503906 106 645.710938 C 105.496094 643.921875 105.113281 642.105469 104.859375 640.261719 L 24.664062 58.890625 C 24.46875 57.476562 24.347656 56.054688 24.300781 54.625 C 24.257812 53.195312 24.289062 51.769531 24.394531 50.34375 C 24.503906 48.917969 24.683594 47.503906 24.945312 46.097656 C 25.203125 44.691406 25.535156 43.304688 25.941406 41.933594 C 26.351562 40.566406 26.828125 39.222656 27.378906 37.902344 C 27.929688 36.582031 28.550781 35.296875 29.238281 34.046875 C 29.925781 32.792969 30.679688 31.582031 31.5 30.410156 C 32.316406 29.238281 33.195312 28.113281 34.132812 27.035156 C 35.070312 25.957031 36.066406 24.929688 37.113281 23.960938 C 38.160156 22.988281 39.257812 22.074219 40.402344 21.21875 C 41.546875 20.363281 42.738281 19.574219 43.964844 18.847656 C 45.195312 18.117188 46.460938 17.460938 47.761719 16.867188 C 49.0625 16.273438 50.390625 15.753906 51.75 15.304688 C 53.105469 14.851562 54.480469 14.476562 55.878906 14.175781 C 57.277344 13.871094 58.683594 13.644531 60.105469 13.492188 C 61.527344 13.339844 62.953125 13.261719 64.382812 13.261719 L 705.933594 13.261719 C 707.359375 13.261719 708.785156 13.339844 710.203125 13.492188 C 711.621094 13.644531 713.03125 13.871094 714.425781 14.171875 C 715.820312 14.476562 717.195312 14.851562 718.550781 15.300781 C 719.90625 15.75 721.234375 16.273438 722.535156 16.863281 C 723.832031 17.453125 725.097656 18.113281 726.328125 18.839844 C 727.554688 19.566406 728.742188 20.355469 729.886719 21.210938 C 731.03125 22.0625 732.128906 22.972656 733.175781 23.945312 C 734.222656 24.914062 735.214844 25.9375 736.15625 27.015625 C 737.09375 28.089844 737.972656 29.214844 738.789062 30.382812 C 739.605469 31.554688 740.359375 32.765625 741.050781 34.015625 C 741.738281 35.265625 742.359375 36.550781 742.910156 37.867188 C 743.460938 39.183594 743.941406 40.523438 744.351562 41.894531 C 744.757812 43.261719 745.09375 44.648438 745.351562 46.050781 C 745.613281 47.453125 745.796875 48.867188 745.90625 50.292969 C 746.015625 51.714844 746.046875 53.140625 746.003906 54.566406 C 745.960938 55.996094 745.84375 57.414062 745.648438 58.832031 L 665.453125 640.203125 C 665.203125 642.046875 664.824219 643.867188 664.320312 645.660156 C 663.8125 647.453125 663.1875 649.203125 662.4375 650.910156 C 661.6875 652.613281 660.824219 654.261719 659.84375 655.84375 C 658.867188 657.429688 657.78125 658.941406 656.59375 660.375 C 655.402344 661.808594 654.121094 663.152344 652.742188 664.410156 C 651.367188 665.664062 649.910156 666.816406 648.371094 667.871094 C 646.835938 668.921875 645.230469 669.863281 643.5625 670.691406 C 641.894531 671.519531 640.175781 672.230469 638.410156 672.820312 L 397.828125 753.007812 C 393.714844 754.367188 389.488281 755.035156 385.15625 755.011719 Z M 180.902344 604.65625 L 385.15625 672.65625 L 589.410156 604.496094 L 659.921875 93.453125 L 110.492188 93.453125 Z M 180.902344 604.65625 " fill-opacity="1" fill-rule="nonzero"/></g><path fill="#ffffff" d="M 325.011719 574.585938 C 318.695312 574.589844 312.714844 573.179688 307.066406 570.355469 L 226.875 530.261719 C 225.699219 529.675781 224.554688 529.03125 223.441406 528.332031 C 222.328125 527.632812 221.253906 526.878906 220.214844 526.074219 C 219.175781 525.269531 218.179688 524.417969 217.226562 523.511719 C 216.269531 522.609375 215.363281 521.660156 214.5 520.667969 C 213.640625 519.675781 212.828125 518.644531 212.070312 517.574219 C 211.308594 516.5 210.605469 515.394531 209.953125 514.253906 C 209.300781 513.109375 208.707031 511.941406 208.171875 510.742188 C 207.636719 509.542969 207.160156 508.316406 206.746094 507.070312 C 206.328125 505.824219 205.976562 504.5625 205.683594 503.28125 C 205.390625 502 205.164062 500.707031 205 499.402344 C 204.835938 498.097656 204.734375 496.789062 204.699219 495.476562 C 204.664062 494.164062 204.691406 492.851562 204.785156 491.539062 C 204.878906 490.230469 205.035156 488.925781 205.257812 487.628906 C 205.480469 486.335938 205.761719 485.054688 206.109375 483.785156 C 206.457031 482.519531 206.867188 481.273438 207.335938 480.046875 C 207.804688 478.816406 208.335938 477.617188 208.921875 476.441406 C 209.511719 475.265625 210.15625 474.121094 210.855469 473.011719 C 211.554688 471.898438 212.308594 470.824219 213.113281 469.785156 C 213.921875 468.75 214.777344 467.753906 215.679688 466.800781 C 216.582031 465.84375 217.53125 464.9375 218.527344 464.078125 C 219.519531 463.21875 220.550781 462.40625 221.625 461.648438 C 222.695312 460.890625 223.804688 460.183594 224.945312 459.535156 C 226.089844 458.882812 227.257812 458.292969 228.460938 457.757812 C 229.660156 457.222656 230.882812 456.746094 232.128906 456.332031 C 233.378906 455.917969 234.640625 455.5625 235.921875 455.273438 C 237.203125 454.984375 238.496094 454.757812 239.800781 454.59375 C 241.105469 454.429688 242.414062 454.332031 243.726562 454.296875 C 245.042969 454.261719 246.355469 454.289062 247.664062 454.382812 C 248.976562 454.480469 250.277344 454.636719 251.574219 454.859375 C 252.867188 455.082031 254.148438 455.367188 255.417969 455.714844 C 256.683594 456.0625 257.929688 456.472656 259.15625 456.945312 C 260.386719 457.414062 261.585938 457.945312 262.761719 458.53125 L 284.914062 469.621094 L 284.914062 253.832031 L 204.71875 253.832031 C 203.40625 253.832031 202.097656 253.765625 200.789062 253.636719 C 199.484375 253.507812 198.1875 253.316406 196.898438 253.058594 C 195.609375 252.804688 194.335938 252.484375 193.082031 252.105469 C 191.824219 251.722656 190.589844 251.28125 189.375 250.777344 C 188.164062 250.277344 186.976562 249.714844 185.820312 249.097656 C 184.660156 248.476562 183.535156 247.800781 182.445312 247.074219 C 181.351562 246.34375 180.296875 245.5625 179.28125 244.730469 C 178.269531 243.894531 177.296875 243.015625 176.367188 242.085938 C 175.4375 241.160156 174.558594 240.1875 173.726562 239.171875 C 172.890625 238.15625 172.109375 237.101562 171.382812 236.011719 C 170.652344 234.917969 169.976562 233.792969 169.359375 232.636719 C 168.738281 231.476562 168.179688 230.292969 167.675781 229.078125 C 167.171875 227.867188 166.730469 226.632812 166.351562 225.375 C 165.96875 224.117188 165.648438 222.84375 165.394531 221.558594 C 165.136719 220.269531 164.945312 218.972656 164.816406 217.664062 C 164.6875 216.359375 164.625 215.046875 164.625 213.734375 C 164.625 212.421875 164.6875 211.113281 164.816406 209.804688 C 164.945312 208.5 165.136719 207.203125 165.394531 205.914062 C 165.648438 204.625 165.96875 203.351562 166.351562 202.097656 C 166.730469 200.839844 167.171875 199.605469 167.675781 198.390625 C 168.179688 197.179688 168.738281 195.992188 169.359375 194.835938 C 169.976562 193.675781 170.652344 192.550781 171.382812 191.460938 C 172.109375 190.367188 172.890625 189.316406 173.726562 188.300781 C 174.558594 187.285156 175.4375 186.3125 176.367188 185.382812 C 177.296875 184.457031 178.269531 183.574219 179.28125 182.742188 C 180.296875 181.910156 181.351562 181.128906 182.445312 180.398438 C 183.535156 179.667969 184.660156 178.996094 185.820312 178.375 C 186.976562 177.757812 188.164062 177.195312 189.375 176.691406 C 190.589844 176.191406 191.824219 175.75 193.082031 175.367188 C 194.335938 174.988281 195.609375 174.667969 196.898438 174.410156 C 198.1875 174.15625 199.484375 173.960938 200.789062 173.835938 C 202.097656 173.707031 203.40625 173.640625 204.71875 173.640625 L 325.011719 173.640625 C 326.324219 173.640625 327.632812 173.707031 328.941406 173.835938 C 330.25 173.960938 331.546875 174.15625 332.832031 174.410156 C 334.121094 174.667969 335.394531 174.988281 336.652344 175.367188 C 337.90625 175.75 339.140625 176.191406 340.355469 176.691406 C 341.570312 177.195312 342.753906 177.757812 343.914062 178.375 C 345.070312 178.996094 346.195312 179.667969 347.289062 180.398438 C 348.378906 181.128906 349.433594 181.910156 350.449219 182.742188 C 351.464844 183.574219 352.433594 184.457031 353.363281 185.382812 C 354.292969 186.3125 355.171875 187.285156 356.007812 188.300781 C 356.839844 189.316406 357.621094 190.367188 358.351562 191.460938 C 359.082031 192.550781 359.753906 193.675781 360.375 194.835938 C 360.992188 195.992188 361.554688 197.179688 362.054688 198.390625 C 362.558594 199.605469 363 200.839844 363.382812 202.097656 C 363.761719 203.351562 364.082031 204.625 364.335938 205.914062 C 364.59375 207.203125 364.785156 208.5 364.914062 209.804688 C 365.042969 211.113281 365.109375 212.421875 365.109375 213.734375 L 365.109375 534.492188 C 365.109375 535.804688 365.042969 537.117188 364.914062 538.421875 C 364.785156 539.730469 364.59375 541.027344 364.335938 542.3125 C 364.082031 543.601562 363.761719 544.875 363.382812 546.132812 C 363 547.386719 362.558594 548.621094 362.054688 549.835938 C 361.554688 551.050781 360.992188 552.234375 360.375 553.394531 C 359.753906 554.550781 359.082031 555.675781 358.351562 556.765625 C 357.621094 557.859375 356.839844 558.914062 356.007812 559.929688 C 355.171875 560.941406 354.292969 561.914062 353.363281 562.84375 C 352.433594 563.773438 351.464844 564.652344 350.449219 565.484375 C 349.433594 566.320312 348.378906 567.101562 347.289062 567.828125 C 346.195312 568.558594 345.070312 569.234375 343.914062 569.851562 C 342.753906 570.472656 341.570312 571.03125 340.355469 571.535156 C 339.140625 572.039062 337.90625 572.480469 336.652344 572.859375 C 335.394531 573.242188 334.121094 573.558594 332.832031 573.816406 C 331.546875 574.074219 330.25 574.265625 328.941406 574.394531 C 327.632812 574.523438 326.324219 574.585938 325.011719 574.585938 Z M 325.011719 574.585938 " fill-opacity="1" fill-rule="nonzero"/><path 
      :class="{ white: color == 'white', accent: color == 'accent' }"
      fill="#ffffff" d="M 445.300781 574.585938 C 444.09375 574.585938 442.882812 574.53125 441.679688 574.417969 C 440.476562 574.308594 439.277344 574.144531 438.085938 573.925781 C 436.898438 573.707031 435.71875 573.433594 434.554688 573.105469 C 433.390625 572.78125 432.242188 572.402344 431.109375 571.976562 C 429.980469 571.546875 428.871094 571.066406 427.78125 570.535156 C 426.695312 570.003906 425.632812 569.425781 424.597656 568.800781 C 423.5625 568.175781 422.558594 567.503906 421.582031 566.785156 C 420.609375 566.070312 419.667969 565.308594 418.761719 564.507812 C 417.855469 563.707031 416.988281 562.863281 416.160156 561.984375 C 415.328125 561.101562 414.539062 560.1875 413.792969 559.234375 C 413.046875 558.28125 412.34375 557.296875 411.6875 556.28125 C 411.03125 555.265625 410.417969 554.222656 409.855469 553.152344 C 409.292969 552.082031 408.78125 550.988281 408.316406 549.871094 C 407.851562 548.753906 407.4375 547.617188 407.078125 546.460938 C 406.714844 545.308594 406.410156 544.140625 406.152344 542.957031 C 405.898438 541.773438 405.695312 540.582031 405.546875 539.378906 C 405.402344 538.179688 405.308594 536.976562 405.269531 535.765625 C 405.230469 534.554688 405.246094 533.347656 405.316406 532.140625 C 405.390625 530.933594 405.515625 529.730469 405.695312 528.535156 C 405.875 527.335938 406.109375 526.152344 406.394531 524.976562 C 406.683594 523.800781 407.023438 522.640625 407.414062 521.496094 C 407.804688 520.351562 408.25 519.226562 408.742188 518.121094 C 409.238281 517.019531 409.78125 515.9375 410.371094 514.882812 C 410.964844 513.828125 411.601562 512.800781 412.285156 511.804688 C 412.972656 510.804688 413.699219 509.839844 414.472656 508.910156 C 415.242188 507.976562 416.054688 507.082031 416.910156 506.226562 C 417.761719 505.367188 418.652344 504.550781 419.578125 503.773438 C 420.507812 502.996094 421.46875 502.261719 422.460938 501.570312 C 423.453125 500.878906 424.476562 500.234375 425.527344 499.636719 C 426.582031 499.039062 427.65625 498.488281 428.757812 497.988281 C 429.859375 497.488281 430.980469 497.039062 432.125 496.640625 C 433.265625 496.242188 434.425781 495.894531 435.597656 495.601562 L 489.730469 482.089844 L 499.292969 414.207031 L 465.351562 414.207031 C 463.378906 414.207031 461.414062 414.113281 459.457031 413.917969 C 457.496094 413.726562 455.546875 413.4375 453.617188 413.054688 C 451.683594 412.667969 449.777344 412.191406 447.890625 411.617188 C 446.007812 411.046875 444.152344 410.382812 442.332031 409.628906 C 440.515625 408.875 438.734375 408.035156 437 407.105469 C 435.261719 406.179688 433.574219 405.167969 431.933594 404.074219 C 430.296875 402.976562 428.71875 401.804688 427.195312 400.558594 C 425.671875 399.308594 424.214844 397.984375 422.820312 396.59375 C 421.429688 395.199219 420.105469 393.742188 418.855469 392.21875 C 417.609375 390.699219 416.4375 389.117188 415.339844 387.480469 C 414.246094 385.84375 413.234375 384.15625 412.308594 382.417969 C 411.378906 380.679688 410.539062 378.902344 409.785156 377.082031 C 409.03125 375.261719 408.367188 373.410156 407.792969 371.523438 C 407.222656 369.640625 406.746094 367.730469 406.359375 365.800781 C 405.976562 363.867188 405.6875 361.921875 405.496094 359.960938 C 405.300781 358 405.207031 356.035156 405.207031 354.066406 L 405.207031 233.78125 C 405.207031 231.8125 405.300781 229.847656 405.496094 227.886719 C 405.6875 225.929688 405.976562 223.980469 406.359375 222.050781 C 406.746094 220.117188 407.222656 218.210938 407.796875 216.324219 C 408.367188 214.441406 409.03125 212.585938 409.785156 210.769531 C 410.539062 208.949219 411.378906 207.167969 412.308594 205.433594 C 413.234375 203.695312 414.246094 202.007812 415.339844 200.371094 C 416.4375 198.730469 417.609375 197.152344 418.859375 195.628906 C 420.105469 194.105469 421.429688 192.648438 422.820312 191.257812 C 424.214844 189.863281 425.671875 188.542969 427.195312 187.292969 C 428.71875 186.042969 430.296875 184.871094 431.933594 183.777344 C 433.574219 182.683594 435.261719 181.671875 437 180.742188 C 438.734375 179.8125 440.515625 178.972656 442.332031 178.21875 C 444.152344 177.464844 446.007812 176.800781 447.890625 176.230469 C 449.777344 175.660156 451.683594 175.179688 453.617188 174.796875 C 455.546875 174.414062 457.496094 174.125 459.457031 173.929688 C 461.414062 173.738281 463.378906 173.640625 465.351562 173.640625 L 565.59375 173.640625 C 566.90625 173.640625 568.214844 173.707031 569.523438 173.835938 C 570.828125 173.960938 572.128906 174.15625 573.414062 174.410156 C 574.703125 174.667969 575.976562 174.988281 577.230469 175.367188 C 578.488281 175.75 579.722656 176.191406 580.9375 176.691406 C 582.152344 177.195312 583.335938 177.757812 584.496094 178.375 C 585.652344 178.996094 586.777344 179.667969 587.871094 180.398438 C 588.960938 181.128906 590.015625 181.910156 591.03125 182.742188 C 592.046875 183.574219 593.015625 184.457031 593.945312 185.382812 C 594.875 186.3125 595.753906 187.285156 596.589844 188.300781 C 597.421875 189.316406 598.203125 190.367188 598.933594 191.460938 C 599.660156 192.550781 600.335938 193.675781 600.957031 194.835938 C 601.574219 195.992188 602.136719 197.179688 602.636719 198.390625 C 603.140625 199.605469 603.582031 200.839844 603.964844 202.097656 C 604.34375 203.351562 604.664062 204.625 604.917969 205.914062 C 605.175781 207.203125 605.367188 208.5 605.496094 209.804688 C 605.625 211.113281 605.691406 212.421875 605.691406 213.734375 C 605.691406 215.046875 605.625 216.359375 605.496094 217.664062 C 605.367188 218.972656 605.175781 220.269531 604.917969 221.558594 C 604.664062 222.84375 604.34375 224.117188 603.964844 225.375 C 603.582031 226.632812 603.140625 227.867188 602.636719 229.078125 C 602.136719 230.292969 601.574219 231.476562 600.957031 232.636719 C 600.335938 233.792969 599.660156 234.917969 598.933594 236.011719 C 598.203125 237.101562 597.421875 238.15625 596.589844 239.171875 C 595.753906 240.1875 594.875 241.160156 593.945312 242.085938 C 593.015625 243.015625 592.046875 243.894531 591.03125 244.730469 C 590.015625 245.5625 588.960938 246.34375 587.871094 247.074219 C 586.777344 247.800781 585.652344 248.476562 584.496094 249.097656 C 583.335938 249.714844 582.152344 250.277344 580.9375 250.777344 C 579.722656 251.28125 578.488281 251.722656 577.234375 252.105469 C 575.976562 252.484375 574.703125 252.804688 573.414062 253.058594 C 572.128906 253.316406 570.828125 253.507812 569.523438 253.636719 C 568.214844 253.765625 566.90625 253.832031 565.59375 253.832031 L 485.398438 253.832031 L 485.398438 334.019531 L 522.410156 334.019531 C 524.378906 334.019531 526.34375 334.117188 528.304688 334.308594 C 530.265625 334.503906 532.210938 334.789062 534.140625 335.175781 C 536.074219 335.558594 537.984375 336.039062 539.867188 336.609375 C 541.753906 337.179688 543.605469 337.84375 545.425781 338.597656 C 547.246094 339.351562 549.023438 340.191406 550.761719 341.121094 C 552.5 342.050781 554.1875 343.0625 555.824219 344.15625 C 557.460938 345.25 559.042969 346.421875 560.5625 347.671875 C 562.085938 348.921875 563.542969 350.242188 564.9375 351.632812 C 566.332031 353.027344 567.652344 354.484375 568.902344 356.007812 C 570.152344 357.53125 571.324219 359.109375 572.417969 360.75 C 573.511719 362.386719 574.523438 364.074219 575.453125 365.8125 C 576.378906 367.546875 577.222656 369.324219 577.976562 371.144531 C 578.730469 372.964844 579.390625 374.816406 579.964844 376.703125 C 580.535156 378.585938 581.015625 380.496094 581.398438 382.429688 C 581.78125 384.359375 582.070312 386.304688 582.265625 388.265625 C 582.457031 390.226562 582.554688 392.191406 582.554688 394.160156 C 582.550781 397.0625 582.335938 399.949219 581.914062 402.820312 L 565.191406 520.097656 C 564.914062 522.058594 564.488281 523.992188 563.921875 525.890625 C 563.355469 527.789062 562.652344 529.636719 561.8125 531.433594 C 560.972656 533.226562 560.003906 534.953125 558.910156 536.601562 C 557.8125 538.253906 556.601562 539.816406 555.273438 541.289062 C 553.949219 542.761719 552.519531 544.125 550.988281 545.386719 C 549.460938 546.648438 547.84375 547.789062 546.144531 548.808594 C 544.445312 549.828125 542.679688 550.71875 540.851562 551.476562 C 539.019531 552.234375 537.140625 552.855469 535.21875 553.335938 L 455.027344 573.382812 C 451.835938 574.1875 448.59375 574.585938 445.300781 574.585938 Z M 502.582031 391.316406 Z M 502.582031 391.316406 " fill-opacity="1" fill-rule="nonzero"/></svg>