<svg xmlns="http://www.w3.org/2000/svg" xmlns:xlink="http://www.w3.org/1999/xlink" width="1024" zoomAndPan="magnify" viewBox="0 0 768 767.999994" height="1024" preserveAspectRatio="xMidYMid meet" version="1.0"><defs><clipPath id="b556d8807a"><path d="M 22.652344 31.488281 L 741.152344 31.488281 L 741.152344 749.988281 L 22.652344 749.988281 Z M 22.652344 31.488281 " clip-rule="nonzero"/></clipPath></defs><g clip-path="url(#b556d8807a)"><path fill="#f5f5f5" d="M 621.402344 749.988281 L 142.402344 749.988281 C 140.441406 749.988281 138.484375 749.9375 136.527344 749.839844 C 134.570312 749.742188 132.617188 749.597656 130.667969 749.402344 C 128.71875 749.207031 126.773438 748.96875 124.835938 748.679688 C 122.898438 748.390625 120.96875 748.054688 119.046875 747.667969 C 117.125 747.285156 115.214844 746.855469 113.316406 746.378906 C 111.414062 745.898438 109.527344 745.375 107.652344 744.808594 C 105.777344 744.238281 103.917969 743.621094 102.074219 742.960938 C 100.230469 742.300781 98.402344 741.59375 96.59375 740.84375 C 94.785156 740.09375 92.992188 739.296875 91.222656 738.457031 C 89.453125 737.621094 87.703125 736.738281 85.976562 735.816406 C 84.246094 734.890625 82.542969 733.925781 80.863281 732.917969 C 79.183594 731.910156 77.527344 730.859375 75.898438 729.773438 C 74.269531 728.683594 72.667969 727.554688 71.097656 726.386719 C 69.523438 725.21875 67.980469 724.015625 66.464844 722.769531 C 64.949219 721.527344 63.46875 720.25 62.015625 718.933594 C 60.5625 717.617188 59.144531 716.265625 57.761719 714.882812 C 56.375 713.496094 55.023438 712.078125 53.707031 710.625 C 52.390625 709.171875 51.113281 707.691406 49.871094 706.175781 C 48.625 704.660156 47.421875 703.117188 46.253906 701.542969 C 45.085938 699.972656 43.957031 698.371094 42.867188 696.742188 C 41.78125 695.113281 40.730469 693.457031 39.722656 691.777344 C 38.714844 690.097656 37.75 688.394531 36.824219 686.667969 C 35.902344 684.9375 35.019531 683.1875 34.183594 681.417969 C 33.34375 679.648438 32.550781 677.859375 31.796875 676.046875 C 31.046875 674.238281 30.339844 672.410156 29.679688 670.566406 C 29.019531 668.722656 28.402344 666.863281 27.835938 664.988281 C 27.265625 663.113281 26.742188 661.226562 26.261719 659.324219 C 25.785156 657.425781 25.355469 655.515625 24.972656 653.59375 C 24.589844 651.671875 24.25 649.742188 23.960938 647.804688 C 23.671875 645.867188 23.433594 643.921875 23.238281 641.972656 C 23.042969 640.023438 22.898438 638.070312 22.800781 636.113281 C 22.703125 634.15625 22.652344 632.199219 22.652344 630.238281 L 22.652344 151.238281 C 22.652344 149.28125 22.703125 147.324219 22.800781 145.367188 C 22.898438 143.410156 23.042969 141.457031 23.238281 139.507812 C 23.433594 137.554688 23.671875 135.613281 23.960938 133.675781 C 24.25 131.738281 24.589844 129.808594 24.972656 127.886719 C 25.355469 125.964844 25.785156 124.054688 26.261719 122.152344 C 26.742188 120.253906 27.265625 118.367188 27.835938 116.492188 C 28.402344 114.617188 29.019531 112.757812 29.679688 110.914062 C 30.339844 109.070312 31.046875 107.242188 31.796875 105.433594 C 32.550781 103.621094 33.34375 101.832031 34.183594 100.0625 C 35.019531 98.289062 35.902344 96.542969 36.824219 94.8125 C 37.75 93.085938 38.714844 91.382812 39.722656 89.703125 C 40.730469 88.023438 41.78125 86.367188 42.867188 84.738281 C 43.957031 83.109375 45.085938 81.507812 46.253906 79.933594 C 47.421875 78.363281 48.625 76.816406 49.871094 75.304688 C 51.113281 73.789062 52.390625 72.304688 53.707031 70.855469 C 55.023438 69.402344 56.375 67.984375 57.761719 66.597656 C 59.144531 65.214844 60.5625 63.863281 62.015625 62.546875 C 63.46875 61.230469 64.949219 59.953125 66.464844 58.707031 C 67.980469 57.464844 69.523438 56.261719 71.097656 55.09375 C 72.667969 53.925781 74.269531 52.796875 75.898438 51.707031 C 77.527344 50.621094 79.183594 49.570312 80.863281 48.5625 C 82.542969 47.554688 84.246094 46.589844 85.976562 45.664062 C 87.703125 44.742188 89.453125 43.859375 91.222656 43.019531 C 92.992188 42.183594 94.785156 41.386719 96.59375 40.636719 C 98.402344 39.886719 100.230469 39.179688 102.074219 38.519531 C 103.917969 37.859375 105.777344 37.242188 107.652344 36.671875 C 109.527344 36.101562 111.414062 35.578125 113.316406 35.101562 C 115.214844 34.625 117.125 34.195312 119.046875 33.8125 C 120.96875 33.425781 122.898438 33.089844 124.835938 32.800781 C 126.773438 32.511719 128.71875 32.269531 130.667969 32.078125 C 132.617188 31.882812 134.570312 31.738281 136.527344 31.640625 C 138.484375 31.542969 140.441406 31.492188 142.402344 31.488281 L 621.402344 31.488281 C 623.359375 31.492188 625.316406 31.542969 627.273438 31.640625 C 629.230469 31.738281 631.183594 31.882812 633.132812 32.078125 C 635.085938 32.269531 637.027344 32.511719 638.964844 32.800781 C 640.902344 33.089844 642.832031 33.425781 644.753906 33.8125 C 646.675781 34.195312 648.585938 34.625 650.488281 35.101562 C 652.386719 35.578125 654.273438 36.101562 656.148438 36.671875 C 658.023438 37.242188 659.882812 37.859375 661.726562 38.519531 C 663.570312 39.179688 665.398438 39.886719 667.207031 40.636719 C 669.019531 41.386719 670.808594 42.183594 672.578125 43.019531 C 674.351562 43.859375 676.097656 44.742188 677.828125 45.664062 C 679.554688 46.589844 681.257812 47.554688 682.9375 48.5625 C 684.617188 49.570312 686.273438 50.621094 687.902344 51.707031 C 689.53125 52.796875 691.132812 53.925781 692.707031 55.09375 C 694.277344 56.261719 695.824219 57.464844 697.335938 58.707031 C 698.851562 59.953125 700.335938 61.230469 701.785156 62.546875 C 703.238281 63.863281 704.65625 65.214844 706.042969 66.597656 C 707.425781 67.984375 708.777344 69.402344 710.09375 70.855469 C 711.410156 72.304688 712.6875 73.789062 713.933594 75.304688 C 715.175781 76.816406 716.378906 78.363281 717.546875 79.933594 C 718.714844 81.507812 719.84375 83.109375 720.933594 84.738281 C 722.023438 86.367188 723.070312 88.023438 724.078125 89.703125 C 725.085938 91.382812 726.050781 93.085938 726.976562 94.8125 C 727.898438 96.542969 728.78125 98.289062 729.621094 100.0625 C 730.457031 101.832031 731.253906 103.621094 732.003906 105.433594 C 732.753906 107.242188 733.460938 109.070312 734.121094 110.914062 C 734.78125 112.757812 735.398438 114.617188 735.96875 116.492188 C 736.539062 118.367188 737.0625 120.253906 737.539062 122.152344 C 738.015625 124.054688 738.445312 125.964844 738.832031 127.886719 C 739.214844 129.808594 739.550781 131.738281 739.839844 133.675781 C 740.128906 135.613281 740.371094 137.554688 740.5625 139.507812 C 740.757812 141.457031 740.902344 143.410156 741 145.367188 C 741.097656 147.324219 741.148438 149.28125 741.152344 151.238281 L 741.152344 630.238281 C 741.148438 632.199219 741.097656 634.15625 741 636.113281 C 740.902344 638.070312 740.757812 640.023438 740.5625 641.972656 C 740.371094 643.921875 740.128906 645.867188 739.839844 647.804688 C 739.550781 649.742188 739.214844 651.671875 738.832031 653.59375 C 738.445312 655.515625 738.015625 657.425781 737.539062 659.324219 C 737.0625 661.226562 736.539062 663.113281 735.96875 664.988281 C 735.398438 666.863281 734.78125 668.722656 734.121094 670.566406 C 733.460938 672.410156 732.753906 674.238281 732.003906 676.046875 C 731.253906 677.859375 730.457031 679.648438 729.621094 681.417969 C 728.78125 683.1875 727.898438 684.9375 726.976562 686.667969 C 726.050781 688.394531 725.085938 690.097656 724.078125 691.777344 C 723.070312 693.457031 722.023438 695.113281 720.933594 696.742188 C 719.84375 698.371094 718.714844 699.972656 717.546875 701.542969 C 716.378906 703.117188 715.175781 704.660156 713.933594 706.175781 C 712.6875 707.691406 711.410156 709.171875 710.09375 710.625 C 708.777344 712.078125 707.425781 713.496094 706.042969 714.882812 C 704.65625 716.265625 703.238281 717.617188 701.785156 718.933594 C 700.335938 720.25 698.851562 721.527344 697.335938 722.769531 C 695.824219 724.015625 694.277344 725.21875 692.707031 726.386719 C 691.132812 727.554688 689.53125 728.683594 687.902344 729.773438 C 686.273438 730.859375 684.617188 731.910156 682.9375 732.917969 C 681.257812 733.925781 679.554688 734.890625 677.828125 735.816406 C 676.097656 736.738281 674.351562 737.621094 672.578125 738.457031 C 670.808594 739.296875 669.019531 740.09375 667.207031 740.84375 C 665.398438 741.59375 663.570312 742.300781 661.726562 742.960938 C 659.882812 743.621094 658.023438 744.238281 656.148438 744.808594 C 654.273438 745.375 652.386719 745.898438 650.488281 746.378906 C 648.585938 746.855469 646.675781 747.285156 644.753906 747.667969 C 642.832031 748.054688 640.902344 748.390625 638.964844 748.679688 C 637.027344 748.96875 635.085938 749.207031 633.132812 749.402344 C 631.183594 749.597656 629.230469 749.742188 627.273438 749.839844 C 625.316406 749.9375 623.359375 749.988281 621.402344 749.988281 Z M 142.402344 111.324219 C 141.09375 111.324219 139.789062 111.386719 138.488281 111.515625 C 137.1875 111.644531 135.894531 111.835938 134.613281 112.089844 C 133.332031 112.34375 132.066406 112.664062 130.8125 113.042969 C 129.5625 113.421875 128.332031 113.863281 127.125 114.363281 C 125.917969 114.863281 124.738281 115.421875 123.585938 116.035156 C 122.429688 116.652344 121.3125 117.324219 120.222656 118.050781 C 119.136719 118.777344 118.089844 119.554688 117.078125 120.382812 C 116.066406 121.214844 115.101562 122.089844 114.175781 123.015625 C 113.25 123.9375 112.375 124.90625 111.542969 125.917969 C 110.714844 126.925781 109.9375 127.976562 109.210938 129.0625 C 108.484375 130.152344 107.8125 131.269531 107.199219 132.421875 C 106.582031 133.578125 106.023438 134.757812 105.523438 135.964844 C 105.023438 137.171875 104.582031 138.402344 104.203125 139.652344 C 103.824219 140.902344 103.507812 142.171875 103.25 143.453125 C 102.996094 144.734375 102.804688 146.027344 102.675781 147.328125 C 102.546875 148.628906 102.484375 149.933594 102.484375 151.238281 L 102.484375 630.238281 C 102.484375 631.546875 102.546875 632.851562 102.675781 634.152344 C 102.804688 635.453125 102.996094 636.746094 103.25 638.027344 C 103.507812 639.308594 103.824219 640.574219 104.203125 641.828125 C 104.582031 643.078125 105.023438 644.308594 105.523438 645.515625 C 106.023438 646.722656 106.582031 647.902344 107.199219 649.054688 C 107.8125 650.210938 108.484375 651.328125 109.210938 652.417969 C 109.9375 653.503906 110.714844 654.550781 111.542969 655.5625 C 112.375 656.574219 113.25 657.539062 114.175781 658.464844 C 115.101562 659.390625 116.066406 660.265625 117.078125 661.097656 C 118.089844 661.925781 119.136719 662.703125 120.222656 663.429688 C 121.3125 664.15625 122.429688 664.828125 123.585938 665.441406 C 124.738281 666.058594 125.917969 666.617188 127.125 667.117188 C 128.332031 667.617188 129.5625 668.058594 130.8125 668.4375 C 132.066406 668.816406 133.332031 669.132812 134.613281 669.390625 C 135.894531 669.644531 137.1875 669.835938 138.488281 669.964844 C 139.789062 670.09375 141.09375 670.15625 142.402344 670.15625 L 621.402344 670.15625 C 622.707031 670.15625 624.011719 670.09375 625.3125 669.964844 C 626.613281 669.835938 627.90625 669.644531 629.1875 669.390625 C 630.46875 669.132812 631.738281 668.816406 632.988281 668.4375 C 634.238281 668.058594 635.46875 667.617188 636.675781 667.117188 C 637.882812 666.617188 639.0625 666.058594 640.21875 665.441406 C 641.371094 664.828125 642.492188 664.15625 643.578125 663.429688 C 644.664062 662.703125 645.714844 661.925781 646.722656 661.097656 C 647.734375 660.265625 648.703125 659.390625 649.625 658.464844 C 650.550781 657.539062 651.425781 656.574219 652.257812 655.5625 C 653.085938 654.550781 653.863281 653.503906 654.589844 652.417969 C 655.316406 651.328125 655.988281 650.210938 656.605469 649.054688 C 657.21875 647.902344 657.777344 646.722656 658.277344 645.515625 C 658.777344 644.308594 659.21875 643.078125 659.597656 641.828125 C 659.976562 640.574219 660.296875 639.308594 660.550781 638.027344 C 660.804688 636.746094 660.996094 635.453125 661.125 634.152344 C 661.253906 632.851562 661.316406 631.546875 661.316406 630.238281 L 661.316406 151.238281 C 661.316406 149.933594 661.253906 148.628906 661.125 147.328125 C 660.996094 146.027344 660.804688 144.734375 660.550781 143.453125 C 660.296875 142.171875 659.976562 140.902344 659.597656 139.652344 C 659.21875 138.402344 658.777344 137.171875 658.277344 135.964844 C 657.777344 134.757812 657.21875 133.578125 656.605469 132.421875 C 655.988281 131.269531 655.316406 130.152344 654.589844 129.0625 C 653.863281 127.976562 653.085938 126.925781 652.257812 125.917969 C 651.425781 124.90625 650.550781 123.9375 649.625 123.015625 C 648.703125 122.089844 647.734375 121.214844 646.722656 120.382812 C 645.714844 119.554688 644.664062 118.777344 643.578125 118.050781 C 642.492188 117.324219 641.371094 116.652344 640.21875 116.035156 C 639.0625 115.421875 637.882812 114.863281 636.675781 114.363281 C 635.46875 113.863281 634.238281 113.421875 632.988281 113.042969 C 631.738281 112.664062 630.46875 112.34375 629.1875 112.089844 C 627.90625 111.835938 626.613281 111.644531 625.3125 111.515625 C 624.011719 111.386719 622.707031 111.324219 621.402344 111.324219 Z M 142.402344 111.324219 " fill-opacity="1" fill-rule="nonzero"/></g><path fill="#f5f5f5" d="M 222.234375 590.324219 C 220.925781 590.324219 219.621094 590.257812 218.320312 590.132812 C 217.019531 590.003906 215.730469 589.8125 214.445312 589.554688 C 213.164062 589.300781 211.898438 588.984375 210.648438 588.605469 C 209.394531 588.226562 208.167969 587.785156 206.957031 587.285156 C 205.75 586.785156 204.570312 586.226562 203.417969 585.609375 C 202.265625 584.992188 201.144531 584.320312 200.058594 583.597656 C 198.96875 582.871094 197.921875 582.09375 196.910156 581.261719 C 195.902344 580.433594 194.933594 579.554688 194.007812 578.632812 C 193.085938 577.707031 192.207031 576.738281 191.378906 575.730469 C 190.546875 574.71875 189.769531 573.671875 189.042969 572.582031 C 188.320312 571.496094 187.648438 570.375 187.03125 569.222656 C 186.414062 568.070312 185.855469 566.890625 185.355469 565.683594 C 184.855469 564.472656 184.414062 563.246094 184.035156 561.992188 C 183.65625 560.742188 183.339844 559.476562 183.085938 558.195312 C 182.828125 556.910156 182.636719 555.621094 182.507812 554.320312 C 182.382812 553.019531 182.316406 551.714844 182.316406 550.40625 L 182.316406 350.824219 C 182.316406 349.515625 182.382812 348.210938 182.507812 346.910156 C 182.636719 345.609375 182.828125 344.316406 183.085938 343.035156 C 183.339844 341.753906 183.65625 340.488281 184.035156 339.234375 C 184.414062 337.984375 184.855469 336.753906 185.355469 335.546875 C 185.855469 334.339844 186.414062 333.160156 187.03125 332.007812 C 187.648438 330.855469 188.320312 329.734375 189.042969 328.648438 C 189.769531 327.558594 190.546875 326.511719 191.378906 325.5 C 192.207031 324.488281 193.085938 323.523438 194.007812 322.597656 C 194.933594 321.671875 195.902344 320.796875 196.910156 319.96875 C 197.921875 319.136719 198.96875 318.359375 200.058594 317.632812 C 201.144531 316.90625 202.265625 316.234375 203.417969 315.621094 C 204.570312 315.003906 205.75 314.445312 206.957031 313.945312 C 208.167969 313.445312 209.394531 313.003906 210.648438 312.625 C 211.898438 312.246094 213.164062 311.929688 214.445312 311.671875 C 215.730469 311.417969 217.019531 311.226562 218.320312 311.097656 C 219.621094 310.972656 220.925781 310.90625 222.234375 310.90625 C 223.542969 310.90625 224.847656 310.972656 226.148438 311.097656 C 227.449219 311.226562 228.738281 311.417969 230.023438 311.671875 C 231.304688 311.929688 232.570312 312.246094 233.820312 312.625 C 235.074219 313.003906 236.300781 313.445312 237.507812 313.945312 C 238.71875 314.445312 239.898438 315.003906 241.050781 315.621094 C 242.203125 316.234375 243.324219 316.90625 244.410156 317.632812 C 245.496094 318.359375 246.546875 319.136719 247.558594 319.96875 C 248.566406 320.796875 249.535156 321.671875 250.460938 322.597656 C 251.382812 323.523438 252.261719 324.488281 253.089844 325.5 C 253.917969 326.511719 254.699219 327.558594 255.421875 328.648438 C 256.148438 329.734375 256.820312 330.855469 257.4375 332.007812 C 258.054688 333.160156 258.613281 334.339844 259.113281 335.546875 C 259.613281 336.753906 260.050781 337.984375 260.433594 339.234375 C 260.8125 340.488281 261.128906 341.753906 261.382812 343.035156 C 261.640625 344.316406 261.832031 345.609375 261.957031 346.910156 C 262.085938 348.210938 262.152344 349.515625 262.152344 350.824219 L 262.152344 550.40625 C 262.152344 551.714844 262.085938 553.019531 261.957031 554.320312 C 261.832031 555.621094 261.640625 556.910156 261.382812 558.195312 C 261.128906 559.476562 260.8125 560.742188 260.433594 561.992188 C 260.050781 563.246094 259.613281 564.472656 259.113281 565.683594 C 258.613281 566.890625 258.054688 568.070312 257.4375 569.222656 C 256.820312 570.375 256.148438 571.496094 255.421875 572.582031 C 254.699219 573.671875 253.917969 574.71875 253.089844 575.730469 C 252.261719 576.738281 251.382812 577.707031 250.460938 578.632812 C 249.535156 579.554688 248.566406 580.433594 247.558594 581.261719 C 246.546875 582.09375 245.496094 582.871094 244.410156 583.597656 C 243.324219 584.320312 242.203125 584.992188 241.050781 585.609375 C 239.898438 586.226562 238.71875 586.785156 237.507812 587.285156 C 236.300781 587.785156 235.074219 588.226562 233.820312 588.605469 C 232.570312 588.984375 231.304688 589.300781 230.023438 589.554688 C 228.738281 589.8125 227.449219 590.003906 226.148438 590.132812 C 224.847656 590.257812 223.542969 590.324219 222.234375 590.324219 Z M 222.234375 590.324219 " fill-opacity="1" fill-rule="nonzero"/><path fill="#f5f5f5" d="M 222.234375 271.390625 C 220.925781 271.390625 219.617188 271.332031 218.316406 271.207031 C 217.011719 271.082031 215.71875 270.894531 214.433594 270.640625 C 213.148438 270.390625 211.878906 270.074219 210.625 269.699219 C 209.371094 269.320312 208.140625 268.882812 206.929688 268.386719 C 205.71875 267.890625 204.535156 267.335938 203.378906 266.71875 C 202.222656 266.105469 201.097656 265.4375 200.007812 264.714844 C 198.914062 263.988281 197.863281 263.214844 196.847656 262.386719 C 195.832031 261.558594 194.863281 260.683594 193.933594 259.761719 C 193.003906 258.839844 192.125 257.875 191.289062 256.863281 C 190.453125 255.855469 189.671875 254.808594 188.941406 253.722656 C 188.210938 252.636719 187.535156 251.515625 186.914062 250.363281 C 186.292969 249.210938 185.726562 248.03125 185.222656 246.824219 C 184.71875 245.617188 184.273438 244.386719 183.886719 243.136719 C 183.503906 241.882812 183.179688 240.617188 182.917969 239.332031 C 182.660156 238.050781 182.460938 236.757812 182.328125 235.457031 C 182.195312 234.152344 182.125 232.847656 182.121094 231.539062 C 182.113281 230.230469 182.171875 228.921875 182.296875 227.621094 C 182.417969 226.316406 182.605469 225.023438 182.855469 223.738281 C 183.105469 222.453125 183.417969 221.183594 183.789062 219.925781 C 184.164062 218.671875 184.601562 217.441406 185.097656 216.226562 C 185.589844 215.015625 186.144531 213.832031 186.757812 212.675781 C 187.367188 211.515625 188.035156 210.390625 188.757812 209.300781 C 189.480469 208.207031 190.253906 207.152344 191.078125 206.136719 C 191.90625 205.121094 192.777344 204.148438 193.699219 203.21875 C 194.621094 202.289062 195.585938 201.40625 196.59375 200.570312 C 197.601562 199.734375 198.648438 198.949219 199.730469 198.214844 C 200.816406 197.484375 201.933594 196.804688 203.085938 196.183594 C 204.238281 195.558594 205.414062 194.992188 206.621094 194.484375 C 207.828125 193.976562 209.058594 193.53125 210.308594 193.144531 C 211.558594 192.757812 212.828125 192.433594 214.109375 192.167969 C 215.390625 191.90625 216.683594 191.707031 217.984375 191.570312 C 219.289062 191.4375 220.59375 191.363281 221.902344 191.355469 C 223.210938 191.347656 224.519531 191.40625 225.820312 191.527344 C 227.125 191.648438 228.421875 191.832031 229.707031 192.078125 C 230.992188 192.328125 232.261719 192.636719 233.515625 193.007812 C 234.773438 193.382812 236.007812 193.8125 237.21875 194.308594 C 238.429688 194.800781 239.617188 195.351562 240.773438 195.960938 C 241.933594 196.574219 243.058594 197.238281 244.152344 197.957031 C 245.246094 198.679688 246.300781 199.449219 247.320312 200.273438 C 248.335938 201.097656 249.3125 201.96875 250.242188 202.890625 C 251.175781 203.808594 252.058594 204.773438 252.898438 205.777344 C 253.734375 206.785156 254.519531 207.828125 255.253906 208.914062 C 255.988281 209.996094 256.667969 211.113281 257.292969 212.265625 C 257.917969 213.414062 258.488281 214.59375 258.996094 215.796875 C 259.507812 217.003906 259.957031 218.230469 260.34375 219.480469 C 260.734375 220.730469 261.058594 222 261.324219 223.28125 C 261.589844 224.5625 261.792969 225.855469 261.929688 227.15625 C 262.066406 228.457031 262.140625 229.765625 262.152344 231.074219 L 262.152344 231.472656 C 262.152344 232.78125 262.085938 234.085938 261.957031 235.386719 C 261.832031 236.6875 261.640625 237.976562 261.382812 239.261719 C 261.128906 240.542969 260.8125 241.808594 260.433594 243.058594 C 260.050781 244.3125 259.613281 245.539062 259.113281 246.746094 C 258.613281 247.957031 258.054688 249.136719 257.4375 250.289062 C 256.820312 251.441406 256.148438 252.5625 255.421875 253.648438 C 254.699219 254.734375 253.917969 255.785156 253.089844 256.796875 C 252.261719 257.804688 251.382812 258.773438 250.460938 259.699219 C 249.535156 260.621094 248.566406 261.5 247.558594 262.328125 C 246.546875 263.15625 245.496094 263.9375 244.410156 264.660156 C 243.324219 265.386719 242.203125 266.058594 241.050781 266.675781 C 239.898438 267.292969 238.71875 267.851562 237.507812 268.351562 C 236.300781 268.851562 235.074219 269.289062 233.820312 269.671875 C 232.570312 270.050781 231.304688 270.367188 230.023438 270.621094 C 228.738281 270.878906 227.449219 271.070312 226.148438 271.195312 C 224.847656 271.324219 223.542969 271.390625 222.234375 271.390625 Z M 222.234375 271.390625 " fill-opacity="1" fill-rule="nonzero"/><path fill="#f5f5f5" d="M 381.902344 590.324219 C 380.59375 590.324219 379.289062 590.257812 377.988281 590.132812 C 376.6875 590.003906 375.394531 589.8125 374.113281 589.554688 C 372.832031 589.300781 371.566406 588.984375 370.3125 588.605469 C 369.0625 588.226562 367.832031 587.785156 366.625 587.285156 C 365.417969 586.785156 364.238281 586.226562 363.085938 585.609375 C 361.929688 584.992188 360.8125 584.320312 359.722656 583.597656 C 358.636719 582.871094 357.589844 582.09375 356.578125 581.261719 C 355.566406 580.433594 354.601562 579.554688 353.675781 578.632812 C 352.75 577.707031 351.875 576.738281 351.042969 575.730469 C 350.214844 574.71875 349.4375 573.671875 348.710938 572.582031 C 347.984375 571.496094 347.3125 570.375 346.699219 569.222656 C 346.082031 568.070312 345.523438 566.890625 345.023438 565.683594 C 344.523438 564.472656 344.082031 563.246094 343.703125 561.992188 C 343.324219 560.742188 343.007812 559.476562 342.75 558.195312 C 342.496094 556.910156 342.304688 555.621094 342.175781 554.320312 C 342.046875 553.019531 341.984375 551.714844 341.984375 550.40625 L 341.984375 350.824219 C 341.984375 349.515625 342.046875 348.210938 342.175781 346.910156 C 342.304688 345.609375 342.496094 344.316406 342.75 343.035156 C 343.007812 341.753906 343.324219 340.488281 343.703125 339.234375 C 344.082031 337.984375 344.523438 336.753906 345.023438 335.546875 C 345.523438 334.339844 346.082031 333.160156 346.699219 332.007812 C 347.3125 330.855469 347.984375 329.734375 348.710938 328.648438 C 349.4375 327.558594 350.214844 326.511719 351.042969 325.5 C 351.875 324.488281 352.75 323.523438 353.675781 322.597656 C 354.601562 321.671875 355.566406 320.796875 356.578125 319.96875 C 357.589844 319.136719 358.636719 318.359375 359.722656 317.632812 C 360.8125 316.90625 361.929688 316.234375 363.085938 315.621094 C 364.238281 315.003906 365.417969 314.445312 366.625 313.945312 C 367.832031 313.445312 369.0625 313.003906 370.3125 312.625 C 371.566406 312.246094 372.832031 311.929688 374.113281 311.671875 C 375.394531 311.417969 376.6875 311.226562 377.988281 311.097656 C 379.289062 310.972656 380.59375 310.90625 381.902344 310.90625 C 383.207031 310.90625 384.511719 310.972656 385.8125 311.097656 C 387.113281 311.226562 388.40625 311.417969 389.6875 311.671875 C 390.96875 311.929688 392.238281 312.246094 393.488281 312.625 C 394.738281 313.003906 395.96875 313.445312 397.175781 313.945312 C 398.382812 314.445312 399.5625 315.003906 400.71875 315.621094 C 401.871094 316.234375 402.992188 316.90625 404.078125 317.632812 C 405.164062 318.359375 406.214844 319.136719 407.222656 319.96875 C 408.234375 320.796875 409.203125 321.671875 410.125 322.597656 C 411.050781 323.523438 411.925781 324.488281 412.757812 325.5 C 413.585938 326.511719 414.363281 327.558594 415.089844 328.648438 C 415.816406 329.734375 416.488281 330.855469 417.105469 332.007812 C 417.71875 333.160156 418.277344 334.339844 418.777344 335.546875 C 419.28125 336.753906 419.71875 337.984375 420.097656 339.234375 C 420.476562 340.488281 420.796875 341.753906 421.050781 343.035156 C 421.304688 344.316406 421.496094 345.609375 421.625 346.910156 C 421.753906 348.210938 421.816406 349.515625 421.816406 350.824219 L 421.816406 550.40625 C 421.816406 551.714844 421.753906 553.019531 421.625 554.320312 C 421.496094 555.621094 421.304688 556.910156 421.050781 558.195312 C 420.796875 559.476562 420.476562 560.742188 420.097656 561.992188 C 419.71875 563.246094 419.28125 564.472656 418.777344 565.683594 C 418.277344 566.890625 417.71875 568.070312 417.105469 569.222656 C 416.488281 570.375 415.816406 571.496094 415.089844 572.582031 C 414.363281 573.671875 413.585938 574.71875 412.757812 575.730469 C 411.925781 576.738281 411.050781 577.707031 410.125 578.632812 C 409.203125 579.554688 408.234375 580.433594 407.222656 581.261719 C 406.214844 582.09375 405.164062 582.871094 404.078125 583.597656 C 402.992188 584.320312 401.871094 584.992188 400.71875 585.609375 C 399.5625 586.226562 398.382812 586.785156 397.175781 587.285156 C 395.96875 587.785156 394.738281 588.226562 393.488281 588.605469 C 392.238281 588.984375 390.96875 589.300781 389.6875 589.554688 C 388.40625 589.8125 387.113281 590.003906 385.8125 590.132812 C 384.511719 590.257812 383.207031 590.324219 381.902344 590.324219 Z M 381.902344 590.324219 " fill-opacity="1" fill-rule="nonzero"/><path fill="#f5f5f5" d="M 541.566406 590.324219 C 540.261719 590.324219 538.957031 590.257812 537.65625 590.132812 C 536.355469 590.003906 535.0625 589.8125 533.78125 589.554688 C 532.496094 589.300781 531.230469 588.984375 529.980469 588.605469 C 528.730469 588.226562 527.5 587.785156 526.292969 587.285156 C 525.085938 586.785156 523.902344 586.226562 522.75 585.609375 C 521.597656 584.992188 520.476562 584.320312 519.390625 583.597656 C 518.304688 582.871094 517.253906 582.09375 516.246094 581.261719 C 515.234375 580.433594 514.265625 579.554688 513.34375 578.632812 C 512.417969 577.707031 511.539062 576.738281 510.710938 575.730469 C 509.882812 574.71875 509.105469 573.671875 508.378906 572.582031 C 507.652344 571.496094 506.980469 570.375 506.363281 569.222656 C 505.746094 568.070312 505.191406 566.890625 504.6875 565.683594 C 504.1875 564.472656 503.75 563.246094 503.371094 561.992188 C 502.988281 560.742188 502.671875 559.476562 502.417969 558.195312 C 502.164062 556.910156 501.972656 555.621094 501.84375 554.320312 C 501.714844 553.019531 501.652344 551.714844 501.652344 550.40625 L 501.652344 430.65625 C 501.652344 429.347656 501.585938 428.046875 501.457031 426.746094 C 501.332031 425.441406 501.140625 424.152344 500.882812 422.871094 C 500.628906 421.585938 500.3125 420.320312 499.933594 419.070312 C 499.550781 417.820312 499.113281 416.589844 498.613281 415.382812 C 498.113281 414.171875 497.554688 412.992188 496.9375 411.839844 C 496.320312 410.6875 495.648438 409.566406 494.921875 408.480469 C 494.199219 407.394531 493.417969 406.34375 492.589844 405.332031 C 491.761719 404.324219 490.882812 403.355469 489.960938 402.429688 C 489.035156 401.507812 488.066406 400.628906 487.058594 399.800781 C 486.046875 398.972656 484.996094 398.195312 483.910156 397.46875 C 482.824219 396.742188 481.703125 396.070312 480.550781 395.453125 C 479.398438 394.835938 478.21875 394.277344 477.007812 393.777344 C 475.800781 393.277344 474.574219 392.839844 473.320312 392.457031 C 472.070312 392.078125 470.804688 391.761719 469.523438 391.507812 C 468.238281 391.25 466.949219 391.058594 465.648438 390.933594 C 464.347656 390.804688 463.042969 390.738281 461.734375 390.738281 C 460.425781 390.738281 459.121094 390.804688 457.820312 390.933594 C 456.519531 391.058594 455.230469 391.25 453.945312 391.507812 C 452.664062 391.761719 451.398438 392.078125 450.148438 392.457031 C 448.894531 392.839844 447.667969 393.277344 446.457031 393.777344 C 445.25 394.277344 444.070312 394.835938 442.917969 395.453125 C 441.765625 396.070312 440.644531 396.742188 439.558594 397.46875 C 438.46875 398.195312 437.421875 398.972656 436.410156 399.800781 C 435.402344 400.628906 434.433594 401.507812 433.507812 402.429688 C 432.585938 403.355469 431.707031 404.324219 430.878906 405.332031 C 430.046875 406.34375 429.269531 407.394531 428.542969 408.480469 C 427.816406 409.566406 427.148438 410.6875 426.53125 411.839844 C 425.914062 412.992188 425.355469 414.171875 424.855469 415.382812 C 424.355469 416.589844 423.914062 417.820312 423.535156 419.070312 C 423.15625 420.320312 422.839844 421.585938 422.585938 422.871094 C 422.328125 424.152344 422.136719 425.441406 422.007812 426.746094 C 421.882812 428.046875 421.816406 429.347656 421.816406 430.65625 C 421.816406 431.964844 421.753906 433.269531 421.625 434.570312 C 421.496094 435.871094 421.304688 437.160156 421.050781 438.445312 C 420.796875 439.726562 420.476562 440.992188 420.097656 442.242188 C 419.71875 443.496094 419.28125 444.722656 418.777344 445.933594 C 418.277344 447.140625 417.71875 448.320312 417.105469 449.472656 C 416.488281 450.625 415.816406 451.746094 415.089844 452.832031 C 414.363281 453.921875 413.585938 454.96875 412.757812 455.980469 C 411.925781 456.988281 411.050781 457.957031 410.125 458.882812 C 409.203125 459.804688 408.234375 460.683594 407.222656 461.511719 C 406.214844 462.34375 405.164062 463.121094 404.078125 463.847656 C 402.992188 464.574219 401.871094 465.242188 400.71875 465.859375 C 399.5625 466.476562 398.382812 467.035156 397.175781 467.535156 C 395.96875 468.035156 394.738281 468.476562 393.488281 468.855469 C 392.238281 469.234375 390.96875 469.550781 389.6875 469.804688 C 388.40625 470.0625 387.113281 470.253906 385.8125 470.382812 C 384.511719 470.507812 383.207031 470.574219 381.902344 470.574219 C 380.59375 470.574219 379.289062 470.507812 377.988281 470.382812 C 376.6875 470.253906 375.394531 470.0625 374.113281 469.804688 C 372.832031 469.550781 371.566406 469.234375 370.3125 468.855469 C 369.0625 468.476562 367.832031 468.035156 366.625 467.535156 C 365.417969 467.035156 364.238281 466.476562 363.085938 465.859375 C 361.929688 465.242188 360.8125 464.574219 359.722656 463.847656 C 358.636719 463.121094 357.589844 462.34375 356.578125 461.511719 C 355.566406 460.683594 354.601562 459.804688 353.675781 458.882812 C 352.75 457.957031 351.875 456.988281 351.042969 455.980469 C 350.214844 454.96875 349.4375 453.921875 348.710938 452.832031 C 347.984375 451.746094 347.3125 450.625 346.699219 449.472656 C 346.082031 448.320312 345.523438 447.140625 345.023438 445.933594 C 344.523438 444.722656 344.082031 443.496094 343.703125 442.242188 C 343.324219 440.992188 343.007812 439.726562 342.75 438.445312 C 342.496094 437.160156 342.304688 435.871094 342.175781 434.570312 C 342.046875 433.269531 341.984375 431.964844 341.984375 430.65625 C 341.984375 428.695312 342.03125 426.738281 342.128906 424.78125 C 342.222656 422.824219 342.367188 420.871094 342.5625 418.917969 C 342.753906 416.96875 342.992188 415.023438 343.28125 413.085938 C 343.566406 411.148438 343.902344 409.214844 344.285156 407.292969 C 344.667969 405.371094 345.097656 403.460938 345.574219 401.558594 C 346.050781 399.660156 346.570312 397.769531 347.140625 395.894531 C 347.710938 394.019531 348.324219 392.160156 348.984375 390.3125 C 349.644531 388.46875 350.351562 386.640625 351.097656 384.832031 C 351.847656 383.019531 352.644531 381.226562 353.480469 379.457031 C 354.320312 377.683594 355.199219 375.933594 356.125 374.207031 C 357.046875 372.476562 358.011719 370.773438 359.019531 369.09375 C 360.027344 367.410156 361.078125 365.757812 362.164062 364.128906 C 363.253906 362.496094 364.382812 360.894531 365.550781 359.320312 C 366.71875 357.746094 367.921875 356.203125 369.167969 354.6875 C 370.410156 353.171875 371.6875 351.691406 373.003906 350.238281 C 374.320312 348.785156 375.671875 347.367188 377.058594 345.980469 C 378.445312 344.59375 379.863281 343.242188 381.316406 341.929688 C 382.765625 340.613281 384.25 339.332031 385.765625 338.089844 C 387.28125 336.84375 388.824219 335.640625 390.398438 334.472656 C 391.972656 333.304688 393.574219 332.175781 395.203125 331.089844 C 396.835938 330 398.488281 328.949219 400.171875 327.945312 C 401.851562 326.9375 403.554688 325.96875 405.285156 325.046875 C 407.011719 324.121094 408.761719 323.242188 410.535156 322.402344 C 412.304688 321.566406 414.097656 320.773438 415.90625 320.023438 C 417.71875 319.273438 419.546875 318.566406 421.390625 317.90625 C 423.238281 317.246094 425.097656 316.632812 426.972656 316.0625 C 428.847656 315.492188 430.734375 314.972656 432.636719 314.496094 C 434.539062 314.019531 436.449219 313.589844 438.371094 313.207031 C 440.292969 312.824219 442.222656 312.492188 444.164062 312.203125 C 446.101562 311.914062 448.046875 311.675781 449.996094 311.484375 C 451.945312 311.292969 453.902344 311.148438 455.859375 311.050781 C 457.816406 310.953125 459.773438 310.90625 461.734375 310.90625 C 463.695312 310.90625 465.652344 310.953125 467.609375 311.050781 C 469.566406 311.148438 471.519531 311.292969 473.472656 311.484375 C 475.421875 311.675781 477.367188 311.914062 479.304688 312.203125 C 481.242188 312.492188 483.175781 312.824219 485.097656 313.207031 C 487.019531 313.589844 488.929688 314.019531 490.832031 314.496094 C 492.730469 314.972656 494.621094 315.492188 496.496094 316.0625 C 498.371094 316.632812 500.230469 317.246094 502.078125 317.90625 C 503.921875 318.566406 505.75 319.273438 507.558594 320.023438 C 509.371094 320.773438 511.164062 321.566406 512.933594 322.402344 C 514.707031 323.242188 516.457031 324.121094 518.183594 325.046875 C 519.914062 325.96875 521.617188 326.9375 523.296875 327.945312 C 524.980469 328.949219 526.632812 330 528.261719 331.089844 C 529.894531 332.175781 531.496094 333.304688 533.070312 334.472656 C 534.644531 335.640625 536.1875 336.84375 537.703125 338.089844 C 539.21875 339.332031 540.703125 340.613281 542.152344 341.925781 C 543.605469 343.242188 545.023438 344.59375 546.410156 345.980469 C 547.796875 347.367188 549.148438 348.785156 550.464844 350.238281 C 551.777344 351.691406 553.058594 353.171875 554.300781 354.6875 C 555.546875 356.203125 556.75 357.746094 557.917969 359.320312 C 559.085938 360.894531 560.214844 362.496094 561.300781 364.128906 C 562.390625 365.757812 563.441406 367.410156 564.445312 369.09375 C 565.453125 370.773438 566.421875 372.476562 567.34375 374.207031 C 568.269531 375.933594 569.148438 377.683594 569.988281 379.457031 C 570.824219 381.226562 571.617188 383.019531 572.367188 384.832031 C 573.117188 386.640625 573.824219 388.46875 574.484375 390.3125 C 575.144531 392.160156 575.757812 394.019531 576.328125 395.894531 C 576.898438 397.769531 577.417969 399.660156 577.894531 401.558594 C 578.371094 403.460938 578.800781 405.371094 579.183594 407.292969 C 579.566406 409.214844 579.902344 411.148438 580.1875 413.085938 C 580.476562 415.023438 580.714844 416.96875 580.90625 418.917969 C 581.101562 420.871094 581.242188 422.824219 581.339844 424.78125 C 581.4375 426.738281 581.484375 428.695312 581.484375 430.65625 L 581.484375 550.40625 C 581.484375 551.714844 581.421875 553.019531 581.292969 554.320312 C 581.164062 555.621094 580.972656 556.910156 580.71875 558.195312 C 580.460938 559.476562 580.144531 560.742188 579.765625 561.992188 C 579.386719 563.246094 578.945312 564.472656 578.445312 565.683594 C 577.945312 566.890625 577.386719 568.070312 576.769531 569.222656 C 576.15625 570.375 575.484375 571.496094 574.757812 572.582031 C 574.03125 573.671875 573.253906 574.71875 572.421875 575.730469 C 571.59375 576.738281 570.71875 577.707031 569.792969 578.632812 C 568.867188 579.554688 567.902344 580.433594 566.890625 581.261719 C 565.878906 582.09375 564.832031 582.871094 563.742188 583.597656 C 562.65625 584.320312 561.535156 584.992188 560.382812 585.609375 C 559.230469 586.226562 558.050781 586.785156 556.84375 587.285156 C 555.636719 587.785156 554.40625 588.226562 553.15625 588.605469 C 551.902344 588.984375 550.636719 589.300781 549.355469 589.554688 C 548.074219 589.8125 546.78125 590.003906 545.480469 590.132812 C 544.179688 590.257812 542.875 590.324219 541.566406 590.324219 Z M 541.566406 590.324219 " fill-opacity="1" fill-rule="nonzero"/></svg>