<svg xmlns="http://www.w3.org/2000/svg" xmlns:xlink="http://www.w3.org/1999/xlink" width="1024" zoomAndPan="magnify" viewBox="0 0 768 767.999994" height="1024" preserveAspectRatio="xMidYMid meet" version="1.0"><defs><clipPath id="cd981bcf5c"><path d="M 181 31.488281 L 578 31.488281 L 578 452 L 181 452 Z M 181 31.488281 " clip-rule="nonzero"/></clipPath><clipPath id="527968b126"><path d="M 22.652344 483 L 736.652344 483 L 736.652344 745.488281 L 22.652344 745.488281 Z M 22.652344 483 " clip-rule="nonzero"/></clipPath></defs><g clip-path="url(#cd981bcf5c)"><path fill="#f5f5f5" d="M 181.316406 424.191406 L 181.316406 451.957031 L 577.984375 451.957031 L 577.984375 424.191406 C 577.980469 421.636719 577.929688 419.082031 577.828125 416.53125 C 577.722656 413.980469 577.574219 411.433594 577.375 408.886719 C 577.171875 406.339844 576.925781 403.800781 576.625 401.261719 C 576.328125 398.726562 575.980469 396.199219 575.585938 393.675781 C 575.1875 391.152344 574.746094 388.636719 574.253906 386.132812 C 573.757812 383.625 573.21875 381.132812 572.628906 378.644531 C 572.042969 376.160156 571.40625 373.6875 570.71875 371.230469 C 570.035156 368.769531 569.304688 366.320312 568.527344 363.890625 C 567.746094 361.457031 566.921875 359.042969 566.050781 356.640625 C 565.179688 354.242188 564.261719 351.859375 563.296875 349.492188 C 562.332031 347.128906 561.324219 344.785156 560.269531 342.457031 C 559.21875 340.132812 558.117188 337.828125 556.976562 335.542969 C 555.832031 333.261719 554.644531 331 553.414062 328.761719 C 552.183594 326.523438 550.914062 324.308594 549.597656 322.121094 C 548.28125 319.933594 546.925781 317.769531 545.527344 315.632812 C 544.125 313.496094 542.6875 311.390625 541.207031 309.308594 C 539.726562 307.226562 538.207031 305.175781 536.648438 303.152344 C 535.089844 301.132812 533.492188 299.140625 531.855469 297.179688 C 530.21875 295.21875 528.542969 293.289062 526.835938 291.394531 C 525.125 289.496094 523.378906 287.636719 521.59375 285.808594 C 519.8125 283.976562 517.996094 282.183594 516.144531 280.425781 C 514.292969 278.667969 512.40625 276.945312 510.488281 275.257812 C 508.570312 273.574219 506.621094 271.925781 504.640625 270.3125 C 502.660156 268.703125 500.648438 267.128906 498.605469 265.597656 C 496.5625 264.0625 494.492188 262.570312 492.394531 261.117188 C 490.292969 259.664062 488.164062 258.25 486.011719 256.878906 C 483.859375 255.507812 481.679688 254.179688 479.472656 252.890625 C 477.265625 251.605469 475.039062 250.359375 472.785156 249.160156 C 470.53125 247.957031 468.253906 246.800781 465.957031 245.6875 C 463.660156 244.574219 461.339844 243.503906 459 242.480469 C 456.660156 241.457031 454.304688 240.476562 451.925781 239.546875 C 449.550781 238.613281 447.15625 237.726562 444.742188 236.882812 C 446.367188 235.742188 447.957031 234.554688 449.519531 233.328125 C 451.078125 232.101562 452.605469 230.835938 454.101562 229.527344 C 455.59375 228.21875 457.054688 226.875 458.476562 225.492188 C 459.898438 224.105469 461.285156 222.6875 462.632812 221.230469 C 463.980469 219.769531 465.289062 218.28125 466.558594 216.753906 C 467.828125 215.226562 469.058594 213.667969 470.246094 212.078125 C 471.433594 210.488281 472.578125 208.867188 473.679688 207.214844 C 474.78125 205.5625 475.839844 203.886719 476.851562 202.179688 C 477.867188 200.472656 478.835938 198.738281 479.757812 196.980469 C 480.679688 195.222656 481.554688 193.441406 482.382812 191.640625 C 483.210938 189.835938 483.992188 188.011719 484.726562 186.164062 C 485.457031 184.320312 486.140625 182.457031 486.773438 180.574219 C 487.410156 178.695312 487.992188 176.796875 488.527344 174.886719 C 489.0625 172.976562 489.546875 171.050781 489.980469 169.113281 C 490.410156 167.175781 490.792969 165.226562 491.125 163.269531 C 491.453125 161.3125 491.734375 159.347656 491.960938 157.375 C 492.1875 155.402344 492.363281 153.425781 492.484375 151.445312 C 492.605469 149.464844 492.679688 147.480469 492.695312 145.496094 C 492.714844 143.511719 492.679688 141.527344 492.59375 139.542969 C 492.507812 137.5625 492.371094 135.582031 492.179688 133.605469 C 491.988281 131.628906 491.746094 129.660156 491.453125 127.695312 C 491.15625 125.734375 490.8125 123.777344 490.414062 121.835938 C 490.015625 119.890625 489.570312 117.957031 489.070312 116.035156 C 488.570312 114.113281 488.023438 112.207031 487.421875 110.3125 C 486.824219 108.421875 486.175781 106.546875 485.476562 104.6875 C 484.777344 102.828125 484.03125 100.992188 483.234375 99.171875 C 482.441406 97.351562 481.597656 95.554688 480.707031 93.78125 C 479.820312 92.007812 478.882812 90.257812 477.902344 88.53125 C 476.917969 86.808594 475.890625 85.109375 474.820312 83.4375 C 473.75 81.765625 472.632812 80.125 471.476562 78.511719 C 470.320312 76.898438 469.117188 75.320312 467.878906 73.769531 C 466.636719 72.21875 465.355469 70.703125 464.035156 69.222656 C 462.714844 67.742188 461.355469 66.296875 459.957031 64.886719 C 458.558594 63.476562 457.125 62.101562 455.65625 60.769531 C 454.1875 59.433594 452.683594 58.136719 451.144531 56.882812 C 449.609375 55.628906 448.039062 54.414062 446.4375 53.242188 C 444.835938 52.066406 443.203125 50.9375 441.542969 49.851562 C 439.882812 48.765625 438.191406 47.722656 436.476562 46.722656 C 434.761719 45.726562 433.019531 44.773438 431.253906 43.867188 C 429.488281 42.960938 427.699219 42.101562 425.886719 41.292969 C 424.074219 40.480469 422.242188 39.714844 420.390625 39 C 418.539062 38.285156 416.671875 37.617188 414.785156 37.003906 C 412.898438 36.386719 410.996094 35.820312 409.078125 35.300781 C 407.160156 34.785156 405.234375 34.320312 403.292969 33.902344 C 401.351562 33.488281 399.398438 33.125 397.4375 32.8125 C 395.476562 32.5 393.511719 32.238281 391.535156 32.03125 C 389.5625 31.824219 387.585938 31.664062 385.601562 31.5625 C 383.621094 31.457031 381.636719 31.40625 379.652344 31.40625 C 377.664062 31.40625 375.683594 31.457031 373.699219 31.5625 C 371.71875 31.664062 369.738281 31.824219 367.765625 32.03125 C 365.789062 32.238281 363.824219 32.5 361.863281 32.8125 C 359.902344 33.125 357.953125 33.488281 356.011719 33.902344 C 354.070312 34.320312 352.140625 34.785156 350.222656 35.300781 C 348.308594 35.820312 346.40625 36.386719 344.519531 37.003906 C 342.632812 37.617188 340.761719 38.285156 338.910156 39 C 337.058594 39.714844 335.226562 40.480469 333.414062 41.292969 C 331.605469 42.101562 329.816406 42.960938 328.050781 43.867188 C 326.28125 44.773438 324.542969 45.726562 322.824219 46.722656 C 321.109375 47.722656 319.421875 48.765625 317.757812 49.851562 C 316.097656 50.9375 314.464844 52.066406 312.863281 53.242188 C 311.261719 54.414062 309.695312 55.628906 308.15625 56.882812 C 306.617188 58.136719 305.113281 59.433594 303.644531 60.769531 C 302.175781 62.101562 300.742188 63.476562 299.34375 64.886719 C 297.949219 66.296875 296.589844 67.742188 295.265625 69.222656 C 293.945312 70.703125 292.664062 72.21875 291.425781 73.769531 C 290.183594 75.320312 288.984375 76.898438 287.824219 78.511719 C 286.667969 80.125 285.554688 81.765625 284.480469 83.4375 C 283.410156 85.109375 282.382812 86.808594 281.402344 88.53125 C 280.417969 90.257812 279.484375 92.007812 278.59375 93.78125 C 277.703125 95.554688 276.859375 97.351562 276.066406 99.171875 C 275.269531 100.992188 274.523438 102.828125 273.824219 104.6875 C 273.128906 106.546875 272.480469 108.421875 271.878906 110.3125 C 271.28125 112.207031 270.730469 114.113281 270.230469 116.035156 C 269.734375 117.957031 269.285156 119.890625 268.886719 121.835938 C 268.488281 123.777344 268.144531 125.734375 267.851562 127.695312 C 267.554688 129.660156 267.3125 131.628906 267.121094 133.605469 C 266.933594 135.582031 266.792969 137.5625 266.707031 139.542969 C 266.621094 141.527344 266.585938 143.511719 266.605469 145.496094 C 266.625 147.480469 266.695312 149.464844 266.816406 151.445312 C 266.941406 153.425781 267.113281 155.402344 267.34375 157.375 C 267.570312 159.347656 267.847656 161.3125 268.179688 163.269531 C 268.507812 165.226562 268.890625 167.175781 269.324219 169.113281 C 269.757812 171.050781 270.238281 172.976562 270.773438 174.886719 C 271.308594 176.796875 271.894531 178.695312 272.527344 180.574219 C 273.160156 182.457031 273.84375 184.320312 274.578125 186.164062 C 275.308594 188.011719 276.089844 189.835938 276.917969 191.640625 C 277.746094 193.441406 278.621094 195.222656 279.542969 196.980469 C 280.46875 198.738281 281.433594 200.472656 282.449219 202.179688 C 283.460938 203.886719 284.519531 205.5625 285.621094 207.214844 C 286.722656 208.867188 287.871094 210.488281 289.058594 212.078125 C 290.246094 213.667969 291.472656 215.226562 292.742188 216.753906 C 294.011719 218.28125 295.320312 219.769531 296.667969 221.230469 C 298.015625 222.6875 299.402344 224.105469 300.824219 225.492188 C 302.25 226.875 303.707031 228.21875 305.199219 229.527344 C 306.695312 230.835938 308.222656 232.101562 309.78125 233.328125 C 311.34375 234.554688 312.933594 235.742188 314.558594 236.882812 C 312.148438 237.726562 309.753906 238.613281 307.375 239.546875 C 305 240.476562 302.640625 241.457031 300.300781 242.480469 C 297.960938 243.503906 295.644531 244.574219 293.34375 245.6875 C 291.046875 246.800781 288.769531 247.957031 286.519531 249.160156 C 284.265625 250.359375 282.035156 251.605469 279.828125 252.890625 C 277.625 254.179688 275.445312 255.507812 273.289062 256.878906 C 271.136719 258.25 269.007812 259.664062 266.910156 261.117188 C 264.808594 262.570312 262.738281 264.0625 260.695312 265.597656 C 258.652344 267.128906 256.640625 268.703125 254.660156 270.3125 C 252.679688 271.925781 250.730469 273.574219 248.8125 275.257812 C 246.894531 276.945312 245.007812 278.667969 243.15625 280.425781 C 241.304688 282.183594 239.488281 283.976562 237.707031 285.808594 C 235.925781 287.636719 234.179688 289.496094 232.46875 291.394531 C 230.757812 293.289062 229.082031 295.21875 227.449219 297.179688 C 225.8125 299.140625 224.214844 301.132812 222.65625 303.152344 C 221.09375 305.175781 219.574219 307.226562 218.09375 309.308594 C 216.613281 311.390625 215.175781 313.496094 213.777344 315.632812 C 212.378906 317.769531 211.019531 319.933594 209.703125 322.121094 C 208.390625 324.308594 207.117188 326.523438 205.886719 328.761719 C 204.65625 331 203.46875 333.261719 202.328125 335.542969 C 201.183594 337.828125 200.085938 340.132812 199.03125 342.457031 C 197.976562 344.785156 196.96875 347.128906 196.003906 349.492188 C 195.039062 351.859375 194.121094 354.242188 193.25 356.640625 C 192.378906 359.042969 191.554688 361.457031 190.777344 363.890625 C 189.996094 366.320312 189.265625 368.769531 188.582031 371.230469 C 187.898438 373.6875 187.261719 376.160156 186.671875 378.644531 C 186.082031 381.132812 185.542969 383.625 185.050781 386.132812 C 184.558594 388.636719 184.113281 391.152344 183.71875 393.675781 C 183.320312 396.199219 182.972656 398.726562 182.675781 401.261719 C 182.378906 403.800781 182.128906 406.339844 181.929688 408.886719 C 181.726562 411.433594 181.578125 413.980469 181.476562 416.53125 C 181.375 419.082031 181.320312 421.636719 181.316406 424.191406 Z M 298.335938 144.539062 C 298.335938 143.210938 298.367188 141.878906 298.433594 140.550781 C 298.496094 139.21875 298.59375 137.894531 298.726562 136.570312 C 298.855469 135.246094 299.019531 133.925781 299.214844 132.609375 C 299.410156 131.292969 299.636719 129.980469 299.898438 128.675781 C 300.15625 127.371094 300.449219 126.074219 300.769531 124.78125 C 301.09375 123.492188 301.449219 122.207031 301.835938 120.933594 C 302.222656 119.660156 302.640625 118.398438 303.085938 117.144531 C 303.535156 115.890625 304.015625 114.652344 304.523438 113.421875 C 305.035156 112.191406 305.574219 110.976562 306.140625 109.773438 C 306.710938 108.570312 307.308594 107.382812 307.9375 106.207031 C 308.5625 105.035156 309.21875 103.875 309.902344 102.734375 C 310.585938 101.59375 311.300781 100.46875 312.039062 99.363281 C 312.777344 98.257812 313.542969 97.167969 314.335938 96.101562 C 315.128906 95.03125 315.949219 93.980469 316.792969 92.953125 C 317.636719 91.925781 318.503906 90.917969 319.398438 89.929688 C 320.292969 88.945312 321.210938 87.980469 322.152344 87.039062 C 323.09375 86.097656 324.054688 85.183594 325.042969 84.289062 C 326.027344 83.394531 327.035156 82.527344 328.0625 81.679688 C 329.09375 80.835938 330.140625 80.019531 331.210938 79.226562 C 332.28125 78.433594 333.367188 77.667969 334.472656 76.925781 C 335.582031 76.1875 336.703125 75.476562 337.847656 74.792969 C 338.988281 74.109375 340.144531 73.453125 341.320312 72.824219 C 342.492188 72.199219 343.679688 71.597656 344.882812 71.03125 C 346.085938 70.460938 347.304688 69.921875 348.53125 69.414062 C 349.761719 68.902344 351.003906 68.425781 352.257812 67.976562 C 353.507812 67.527344 354.773438 67.109375 356.046875 66.726562 C 357.320312 66.339844 358.601562 65.984375 359.890625 65.660156 C 361.183594 65.335938 362.480469 65.046875 363.785156 64.785156 C 365.09375 64.527344 366.402344 64.296875 367.71875 64.101562 C 369.035156 63.90625 370.355469 63.746094 371.679688 63.613281 C 373.003906 63.484375 374.332031 63.386719 375.660156 63.320312 C 376.988281 63.257812 378.320312 63.222656 379.652344 63.222656 C 380.980469 63.222656 382.3125 63.257812 383.640625 63.320312 C 384.96875 63.386719 386.296875 63.484375 387.621094 63.613281 C 388.945312 63.746094 390.265625 63.90625 391.582031 64.101562 C 392.898438 64.296875 394.210938 64.527344 395.515625 64.785156 C 396.820312 65.046875 398.117188 65.335938 399.410156 65.660156 C 400.699219 65.984375 401.980469 66.339844 403.253906 66.726562 C 404.53125 67.109375 405.792969 67.527344 407.046875 67.976562 C 408.296875 68.425781 409.539062 68.902344 410.769531 69.414062 C 412 69.921875 413.214844 70.460938 414.417969 71.03125 C 415.621094 71.597656 416.808594 72.199219 417.984375 72.824219 C 419.15625 73.453125 420.316406 74.109375 421.457031 74.792969 C 422.597656 75.476562 423.722656 76.1875 424.828125 76.925781 C 425.933594 77.667969 427.023438 78.433594 428.089844 79.226562 C 429.160156 80.019531 430.207031 80.835938 431.238281 81.679688 C 432.265625 82.527344 433.273438 83.394531 434.261719 84.289062 C 435.246094 85.183594 436.210938 86.097656 437.152344 87.039062 C 438.089844 87.980469 439.007812 88.945312 439.902344 89.929688 C 440.796875 90.917969 441.664062 91.925781 442.507812 92.953125 C 443.355469 93.980469 444.171875 95.03125 444.964844 96.101562 C 445.757812 97.167969 446.523438 98.257812 447.261719 99.363281 C 448.003906 100.46875 448.714844 101.59375 449.398438 102.734375 C 450.082031 103.875 450.738281 105.035156 451.367188 106.207031 C 451.992188 107.382812 452.589844 108.570312 453.160156 109.773438 C 453.730469 110.976562 454.269531 112.191406 454.777344 113.421875 C 455.285156 114.652344 455.765625 115.890625 456.214844 117.144531 C 456.664062 118.398438 457.078125 119.660156 457.464844 120.933594 C 457.851562 122.207031 458.207031 123.492188 458.53125 124.78125 C 458.855469 126.074219 459.144531 127.371094 459.40625 128.675781 C 459.664062 129.980469 459.890625 131.292969 460.085938 132.609375 C 460.28125 133.925781 460.445312 135.246094 460.574219 136.570312 C 460.707031 137.894531 460.804688 139.21875 460.871094 140.550781 C 460.933594 141.878906 460.96875 143.210938 460.96875 144.539062 C 460.96875 145.871094 460.933594 147.199219 460.871094 148.53125 C 460.804688 149.859375 460.707031 151.1875 460.574219 152.511719 C 460.445312 153.835938 460.28125 155.15625 460.085938 156.472656 C 459.890625 157.789062 459.664062 159.097656 459.40625 160.402344 C 459.144531 161.710938 458.855469 163.007812 458.53125 164.296875 C 458.207031 165.589844 457.851562 166.871094 457.464844 168.144531 C 457.078125 169.417969 456.664062 170.683594 456.214844 171.933594 C 455.765625 173.1875 455.285156 174.429688 454.777344 175.660156 C 454.269531 176.886719 453.730469 178.105469 453.160156 179.308594 C 452.589844 180.511719 451.992188 181.699219 451.367188 182.871094 C 450.738281 184.046875 450.082031 185.203125 449.398438 186.34375 C 448.714844 187.488281 448.003906 188.609375 447.261719 189.71875 C 446.523438 190.824219 445.757812 191.910156 444.964844 192.980469 C 444.171875 194.050781 443.355469 195.097656 442.507812 196.125 C 441.664062 197.15625 440.796875 198.164062 439.902344 199.148438 C 439.007812 200.136719 438.089844 201.097656 437.152344 202.039062 C 436.210938 202.980469 435.246094 203.898438 434.261719 204.792969 C 433.273438 205.683594 432.265625 206.554688 431.238281 207.398438 C 430.207031 208.242188 429.160156 209.0625 428.089844 209.855469 C 427.023438 210.648438 425.933594 211.414062 424.828125 212.152344 C 423.722656 212.890625 422.597656 213.601562 421.457031 214.289062 C 420.316406 214.972656 419.15625 215.628906 417.984375 216.253906 C 416.808594 216.882812 415.621094 217.480469 414.417969 218.050781 C 413.214844 218.617188 412 219.15625 410.769531 219.667969 C 409.539062 220.175781 408.296875 220.65625 407.046875 221.101562 C 405.792969 221.550781 404.53125 221.96875 403.257812 222.355469 C 401.980469 222.742188 400.699219 223.097656 399.410156 223.417969 C 398.117188 223.742188 396.820312 224.035156 395.515625 224.292969 C 394.210938 224.554688 392.898438 224.78125 391.582031 224.976562 C 390.265625 225.171875 388.945312 225.335938 387.621094 225.464844 C 386.296875 225.59375 384.96875 225.691406 383.640625 225.757812 C 382.3125 225.824219 380.980469 225.855469 379.652344 225.855469 C 378.320312 225.855469 376.992188 225.820312 375.664062 225.753906 C 374.335938 225.6875 373.007812 225.585938 371.683594 225.453125 C 370.359375 225.320312 369.039062 225.15625 367.726562 224.960938 C 366.410156 224.765625 365.097656 224.535156 363.796875 224.273438 C 362.492188 224.011719 361.195312 223.722656 359.902344 223.394531 C 358.613281 223.070312 357.332031 222.714844 356.058594 222.328125 C 354.785156 221.941406 353.523438 221.523438 352.273438 221.074219 C 351.019531 220.625 349.78125 220.144531 348.550781 219.636719 C 347.320312 219.125 346.105469 218.585938 344.90625 218.015625 C 343.703125 217.445312 342.515625 216.847656 341.34375 216.21875 C 340.167969 215.59375 339.011719 214.9375 337.871094 214.25 C 336.730469 213.566406 335.609375 212.855469 334.5 212.117188 C 333.394531 211.375 332.308594 210.609375 331.242188 209.816406 C 330.171875 209.023438 329.125 208.207031 328.097656 207.363281 C 327.066406 206.519531 326.0625 205.648438 325.074219 204.757812 C 324.089844 203.863281 323.125 202.945312 322.1875 202.003906 C 321.246094 201.0625 320.328125 200.101562 319.433594 199.117188 C 318.542969 198.128906 317.671875 197.121094 316.828125 196.09375 C 315.984375 195.066406 315.167969 194.019531 314.375 192.949219 C 313.582031 191.882812 312.816406 190.792969 312.074219 189.6875 C 311.335938 188.582031 310.625 187.460938 309.9375 186.320312 C 309.253906 185.179688 308.597656 184.023438 307.972656 182.847656 C 307.34375 181.675781 306.746094 180.488281 306.175781 179.285156 C 305.605469 178.085938 305.066406 176.867188 304.554688 175.640625 C 304.046875 174.410156 303.566406 173.171875 303.117188 171.917969 C 302.667969 170.667969 302.25 169.402344 301.863281 168.132812 C 301.476562 166.859375 301.117188 165.578125 300.792969 164.289062 C 300.46875 162.996094 300.175781 161.699219 299.917969 160.394531 C 299.65625 159.089844 299.425781 157.78125 299.230469 156.464844 C 299.03125 155.148438 298.867188 153.832031 298.738281 152.507812 C 298.605469 151.183594 298.503906 149.855469 298.4375 148.527344 C 298.371094 147.199219 298.335938 145.871094 298.335938 144.539062 Z M 379.652344 257.589844 C 382.335938 257.589844 385.019531 257.652344 387.703125 257.78125 C 390.386719 257.910156 393.0625 258.105469 395.738281 258.363281 C 398.410156 258.621094 401.074219 258.945312 403.734375 259.332031 C 406.390625 259.71875 409.039062 260.171875 411.671875 260.6875 C 414.308594 261.203125 416.929688 261.78125 419.539062 262.421875 C 422.144531 263.066406 424.738281 263.769531 427.308594 264.539062 C 429.882812 265.304688 432.4375 266.136719 434.972656 267.027344 C 437.503906 267.917969 440.015625 268.867188 442.503906 269.882812 C 444.992188 270.894531 447.453125 271.964844 449.886719 273.097656 C 452.324219 274.230469 454.730469 275.417969 457.109375 276.667969 C 459.488281 277.914062 461.832031 279.21875 464.148438 280.582031 C 466.464844 281.941406 468.746094 283.359375 470.992188 284.828125 C 473.238281 286.300781 475.445312 287.828125 477.621094 289.40625 C 479.792969 290.984375 481.925781 292.613281 484.019531 294.296875 C 486.113281 295.976562 488.167969 297.707031 490.175781 299.488281 C 492.1875 301.269531 494.152344 303.097656 496.074219 304.976562 C 497.996094 306.851562 499.871094 308.773438 501.699219 310.738281 C 503.527344 312.707031 505.308594 314.714844 507.042969 316.769531 C 508.773438 318.820312 510.453125 320.914062 512.085938 323.050781 C 513.714844 325.183594 515.292969 327.355469 516.816406 329.566406 C 518.34375 331.777344 519.816406 334.023438 521.230469 336.304688 C 522.648438 338.585938 524.007812 340.898438 525.3125 343.246094 C 526.617188 345.59375 527.867188 347.972656 529.054688 350.378906 C 530.246094 352.789062 531.375 355.222656 532.449219 357.683594 C 533.519531 360.148438 534.53125 362.636719 535.484375 365.144531 C 536.4375 367.65625 537.328125 370.191406 538.15625 372.746094 C 538.984375 375.300781 539.753906 377.871094 540.457031 380.464844 C 541.164062 383.054688 541.804688 385.664062 542.382812 388.285156 C 542.960938 390.90625 543.476562 393.542969 543.929688 396.191406 C 544.378906 398.835938 544.765625 401.496094 545.089844 404.160156 C 545.414062 406.828125 545.671875 409.5 545.863281 412.179688 C 546.058594 414.855469 546.1875 417.539062 546.25 420.222656 L 213.050781 420.222656 C 213.113281 417.539062 213.242188 414.855469 213.4375 412.179688 C 213.632812 409.5 213.890625 406.828125 214.210938 404.160156 C 214.535156 401.496094 214.921875 398.835938 215.375 396.191406 C 215.824219 393.542969 216.339844 390.90625 216.917969 388.285156 C 217.496094 385.664062 218.140625 383.054688 218.84375 380.464844 C 219.550781 377.871094 220.316406 375.300781 221.144531 372.746094 C 221.976562 370.191406 222.867188 367.65625 223.816406 365.144531 C 224.769531 362.636719 225.78125 360.148438 226.851562 357.6875 C 227.925781 355.222656 229.054688 352.789062 230.246094 350.378906 C 231.4375 347.972656 232.683594 345.59375 233.988281 343.246094 C 235.292969 340.898438 236.652344 338.585938 238.070312 336.304688 C 239.488281 334.023438 240.957031 331.777344 242.484375 329.566406 C 244.007812 327.355469 245.585938 325.183594 247.21875 323.050781 C 248.847656 320.914062 250.527344 318.820312 252.261719 316.769531 C 253.992188 314.714844 255.773438 312.707031 257.601562 310.738281 C 259.429688 308.773438 261.304688 306.851562 263.226562 304.976562 C 265.148438 303.097656 267.117188 301.269531 269.125 299.488281 C 271.136719 297.707031 273.1875 295.976562 275.28125 294.296875 C 277.375 292.613281 279.507812 290.984375 281.683594 289.40625 C 283.855469 287.828125 286.0625 286.300781 288.3125 284.828125 C 290.558594 283.359375 292.839844 281.941406 295.152344 280.582031 C 297.46875 279.21875 299.816406 277.914062 302.191406 276.667969 C 304.570312 275.417969 306.976562 274.230469 309.414062 273.097656 C 311.851562 271.964844 314.3125 270.894531 316.796875 269.882812 C 319.285156 268.867188 321.796875 267.917969 324.332031 267.027344 C 326.863281 266.136719 329.417969 265.304688 331.992188 264.539062 C 334.566406 263.769531 337.15625 263.066406 339.761719 262.421875 C 342.371094 261.78125 344.992188 261.203125 347.628906 260.6875 C 350.265625 260.171875 352.910156 259.71875 355.570312 259.332031 C 358.226562 258.945312 360.890625 258.621094 363.566406 258.363281 C 366.238281 258.105469 368.914062 257.910156 371.597656 257.78125 C 374.28125 257.652344 376.964844 257.589844 379.652344 257.589844 Z M 379.652344 257.589844 " fill-opacity="1" fill-rule="nonzero"/></g><g clip-path="url(#527968b126)"><path fill="#f5f5f5" d="M 22.652344 745.488281 L 736.652344 745.488281 L 736.652344 483.691406 L 22.652344 483.691406 Z M 54.382812 515.421875 L 704.917969 515.421875 L 704.917969 713.757812 L 54.382812 713.757812 Z M 54.382812 515.421875 " fill-opacity="1" fill-rule="nonzero"/></g><path fill="#f5f5f5" d="M 300.316406 598.722656 L 332.050781 598.722656 L 332.050781 630.457031 L 300.316406 630.457031 Z M 300.316406 598.722656 " fill-opacity="1" fill-rule="nonzero"/><path fill="#f5f5f5" d="M 236.851562 598.722656 L 268.585938 598.722656 L 268.585938 630.457031 L 236.851562 630.457031 Z M 236.851562 598.722656 " fill-opacity="1" fill-rule="nonzero"/><path fill="#f5f5f5" d="M 363.785156 598.722656 L 395.515625 598.722656 L 395.515625 630.457031 L 363.785156 630.457031 Z M 363.785156 598.722656 " fill-opacity="1" fill-rule="nonzero"/><path fill="#f5f5f5" d="M 427.25 598.722656 L 458.984375 598.722656 L 458.984375 630.457031 L 427.25 630.457031 Z M 427.25 598.722656 " fill-opacity="1" fill-rule="nonzero"/><path fill="#f5f5f5" d="M 490.71875 598.722656 L 522.449219 598.722656 L 522.449219 630.457031 L 490.71875 630.457031 Z M 490.71875 598.722656 " fill-opacity="1" fill-rule="nonzero"/></svg>