<svg xmlns="http://www.w3.org/2000/svg" xmlns:xlink="http://www.w3.org/1999/xlink" width="500" zoomAndPan="magnify" viewBox="0 0 375 374.999991" height="500" preserveAspectRatio="xMidYMid meet" version="1.0"><defs><g/><clipPath id="0b1ed75ff1"><path d="M 87 51.085938 L 288 51.085938 L 288 252.835938 L 87 252.835938 Z M 87 51.085938 " clip-rule="nonzero"/></clipPath></defs><g clip-path="url(#0b1ed75ff1)"><path fill="#ffffff" d="M 284.050781 186.003906 C 281.941406 186.003906 280.226562 184.285156 280.226562 182.167969 L 280.226562 64.5625 L 215.308594 129.640625 C 213.8125 131.136719 211.394531 131.136719 209.898438 129.640625 C 208.40625 128.140625 208.40625 125.714844 209.898438 124.21875 L 281.347656 52.59375 C 282.441406 51.496094 284.085938 51.167969 285.515625 51.761719 C 286.941406 52.355469 287.875 53.753906 287.875 55.304688 L 287.875 182.167969 C 287.875 184.285156 286.164062 186.003906 284.050781 186.003906 Z M 90.835938 252.835938 C 88.722656 252.835938 87.011719 251.121094 87.011719 249.003906 L 87.011719 115.335938 C 87.011719 113.785156 87.941406 112.386719 89.371094 111.792969 C 90.800781 111.199219 92.445312 111.527344 93.539062 112.621094 L 160.207031 179.457031 C 161.699219 180.953125 161.699219 183.382812 160.207031 184.878906 C 158.714844 186.378906 156.292969 186.378906 154.796875 184.878906 L 94.660156 124.589844 L 94.660156 249.003906 C 94.660156 251.121094 92.945312 252.835938 90.835938 252.835938 Z M 284.050781 252.835938 C 283.074219 252.835938 282.09375 252.460938 281.347656 251.714844 L 88.132812 58.015625 C 86.636719 56.519531 86.636719 54.089844 88.132812 52.59375 C 89.625 51.09375 92.046875 51.09375 93.539062 52.59375 L 286.753906 246.292969 C 288.25 247.789062 288.25 250.214844 286.753906 251.714844 C 286.007812 252.460938 285.027344 252.835938 284.050781 252.835938 " fill-opacity="1" fill-rule="nonzero"/></g><g fill="#fffbfa" fill-opacity="1"><g transform="translate(20.842319, 311.927707)"><g><path d="M 12.179688 0 C 12.820312 0 13.152344 -0.332031 13.152344 -0.976562 L 13.152344 -14.082031 L 21.382812 -4.472656 C 21.835938 -3.949219 22.3125 -3.949219 22.738281 -4.472656 L 31.089844 -14.175781 L 31.089844 -0.976562 C 31.089844 -0.332031 31.421875 0 32.0625 0 L 39.601562 0 C 40.246094 0 40.578125 -0.332031 40.578125 -0.976562 L 40.578125 -35.703125 C 40.578125 -37.511719 39.316406 -37.9375 38.199219 -36.535156 L 22.074219 -16.363281 L 6.042969 -36.535156 C 4.875 -38.007812 3.664062 -37.511719 3.664062 -35.703125 L 3.664062 -0.976562 C 3.664062 -0.332031 3.996094 0 4.636719 0 Z M 12.179688 0 "/></g></g></g><g fill="#fffbfa" fill-opacity="1"><g transform="translate(104.055049, 311.927707)"><g><path d="M 20.121094 -36.535156 C 19.386719 -38.035156 18.21875 -38.035156 17.484375 -36.535156 L 0.738281 -1.164062 C 0.429688 -0.476562 0.738281 0 1.449219 0 L 10.039062 0 C 10.5625 0 10.964844 -0.285156 11.15625 -0.785156 L 12.34375 -3.851562 L 25.261719 -3.851562 L 26.449219 -0.785156 C 26.640625 -0.285156 27.042969 0 27.566406 0 L 36.152344 0 C 36.867188 0 37.175781 -0.476562 36.867188 -1.164062 Z M 18.816406 -20.335938 L 22.40625 -11.15625 L 15.199219 -11.15625 Z M 18.816406 -20.335938 "/></g></g></g><g fill="#fffbfa" fill-opacity="1"><g transform="translate(180.67938, 311.927707)"><g><path d="M 27.234375 -13.722656 C 30.828125 -15.601562 32.871094 -19.503906 32.871094 -24.785156 C 32.871094 -31.039062 30.066406 -36.535156 19.765625 -36.535156 L 4.589844 -36.535156 C 3.949219 -36.535156 3.617188 -36.203125 3.617188 -35.558594 L 3.617188 -0.976562 C 3.617188 -0.332031 3.949219 0 4.589844 0 L 12.417969 0 C 13.058594 0 13.390625 -0.332031 13.390625 -0.976562 L 13.390625 -12.464844 L 17.507812 -12.464844 L 23.382812 -0.738281 C 23.621094 -0.238281 23.976562 0 24.5 0 L 33.371094 0 C 34.109375 0 34.394531 -0.476562 34.0625 -1.164062 Z M 18.078125 -28.257812 C 20.027344 -28.257812 23.144531 -28.257812 23.144531 -24.691406 C 23.144531 -20.742188 19.433594 -20.742188 18.078125 -20.742188 L 13.390625 -20.742188 L 13.390625 -28.257812 Z M 18.078125 -28.257812 "/></g></g></g><g fill="#fffbfa" fill-opacity="1"><g transform="translate(255.805271, 311.927707)"><g><path d="M 18.125 0 C 18.742188 0 19.101562 -0.332031 19.101562 -0.976562 L 19.101562 -28.257812 L 26.449219 -28.257812 C 27.09375 -28.257812 27.425781 -28.589844 27.425781 -29.234375 L 27.425781 -35.558594 C 27.425781 -36.203125 27.09375 -36.535156 26.449219 -36.535156 L 1.949219 -36.535156 C 1.308594 -36.535156 0.976562 -36.203125 0.976562 -35.558594 L 0.976562 -29.234375 C 0.976562 -28.589844 1.308594 -28.257812 1.949219 -28.257812 L 9.300781 -28.257812 L 9.300781 -0.976562 C 9.300781 -0.332031 9.65625 0 10.277344 0 Z M 18.125 0 "/></g></g></g><g fill="#fffbfa" fill-opacity="1"><g transform="translate(323.224869, 311.927707)"><g><path d="M 16.984375 -8.277344 L 32.917969 -35.371094 C 33.324219 -35.988281 33.039062 -36.535156 32.253906 -36.535156 L 4.519531 -36.535156 C 3.902344 -36.535156 3.566406 -36.203125 3.566406 -35.558594 L 3.566406 -29.234375 C 3.566406 -28.589844 3.902344 -28.257812 4.519531 -28.257812 L 17.292969 -28.257812 L 1.402344 -1.164062 C 1.023438 -0.546875 1.308594 0 2.09375 0 L 32.777344 0 C 33.417969 0 33.75 -0.332031 33.75 -0.976562 L 33.75 -7.300781 C 33.75 -7.945312 33.417969 -8.277344 32.777344 -8.277344 Z M 16.984375 -8.277344 "/></g></g></g></svg>