<svg xmlns="http://www.w3.org/2000/svg" xmlns:xlink="http://www.w3.org/1999/xlink" width="500" zoomAndPan="magnify" viewBox="0 0 375 374.999991" height="500" preserveAspectRatio="xMidYMid meet" version="1.0"><defs><g/><clipPath id="17253b8e1f"><path d="M 48.234375 8.167969 L 326 8.167969 L 326 285.667969 L 48.234375 285.667969 Z M 48.234375 8.167969 " clip-rule="nonzero"/></clipPath></defs><g clip-path="url(#17253b8e1f)"><path fill="#ffffff" d="M 320.617188 193.742188 C 317.703125 193.742188 315.339844 191.378906 315.339844 188.46875 L 315.339844 26.703125 L 225.808594 116.21875 C 223.746094 118.273438 220.40625 118.273438 218.347656 116.21875 C 216.289062 114.15625 216.289062 110.820312 218.347656 108.757812 L 316.886719 10.242188 C 318.394531 8.730469 320.664062 8.28125 322.636719 9.097656 C 324.605469 9.914062 325.890625 11.835938 325.890625 13.96875 L 325.890625 188.46875 C 325.890625 191.378906 323.53125 193.742188 320.617188 193.742188 Z M 54.132812 285.667969 C 51.21875 285.667969 48.859375 283.308594 48.859375 280.398438 L 48.859375 96.542969 C 48.859375 94.410156 50.144531 92.484375 52.113281 91.667969 C 54.085938 90.851562 56.355469 91.304688 57.863281 92.8125 L 149.808594 184.742188 C 151.871094 186.800781 151.871094 190.140625 149.808594 192.195312 C 147.75 194.257812 144.410156 194.257812 142.347656 192.195312 L 59.40625 109.269531 L 59.40625 280.398438 C 59.40625 283.308594 57.046875 285.667969 54.132812 285.667969 Z M 320.617188 285.667969 C 319.265625 285.667969 317.917969 285.15625 316.886719 284.125 L 50.402344 17.699219 C 48.34375 15.640625 48.34375 12.300781 50.402344 10.242188 C 52.464844 8.179688 55.800781 8.179688 57.863281 10.242188 L 324.34375 276.667969 C 326.40625 278.726562 326.40625 282.066406 324.34375 284.125 C 323.3125 285.15625 321.964844 285.667969 320.617188 285.667969 " fill-opacity="1" fill-rule="nonzero"/></g><g fill="#fffbfa" fill-opacity="1"><g transform="translate(14.797793, 340.692836)"><g><path d="M 12.453125 0 C 13.109375 0 13.449219 -0.339844 13.449219 -0.996094 L 13.449219 -14.398438 L 21.867188 -4.574219 C 22.328125 -4.039062 22.816406 -4.039062 23.253906 -4.574219 L 31.789062 -14.496094 L 31.789062 -0.996094 C 31.789062 -0.339844 32.128906 0 32.785156 0 L 40.496094 0 C 41.152344 0 41.496094 -0.339844 41.496094 -0.996094 L 41.496094 -36.507812 C 41.496094 -38.355469 40.207031 -38.792969 39.0625 -37.359375 L 22.570312 -16.734375 L 6.179688 -37.359375 C 4.984375 -38.867188 3.746094 -38.355469 3.746094 -36.507812 L 3.746094 -0.996094 C 3.746094 -0.339844 4.085938 0 4.742188 0 Z M 12.453125 0 "/></g></g></g><g fill="#fffbfa" fill-opacity="1"><g transform="translate(99.894242, 340.692836)"><g><path d="M 20.578125 -37.359375 C 19.824219 -38.890625 18.632812 -38.890625 17.878906 -37.359375 L 0.753906 -1.191406 C 0.4375 -0.488281 0.753906 0 1.484375 0 L 10.265625 0 C 10.800781 0 11.210938 -0.292969 11.40625 -0.800781 L 12.625 -3.941406 L 25.832031 -3.941406 L 27.046875 -0.800781 C 27.242188 -0.292969 27.65625 0 28.191406 0 L 36.96875 0 C 37.699219 0 38.015625 -0.488281 37.699219 -1.191406 Z M 19.238281 -20.796875 L 22.910156 -11.40625 L 15.542969 -11.40625 Z M 19.238281 -20.796875 "/></g></g></g><g fill="#fffbfa" fill-opacity="1"><g transform="translate(178.25467, 340.692836)"><g><path d="M 27.847656 -14.035156 C 31.523438 -15.957031 33.613281 -19.945312 33.613281 -25.34375 C 33.613281 -31.742188 30.742188 -37.359375 20.210938 -37.359375 L 4.695312 -37.359375 C 4.039062 -37.359375 3.695312 -37.019531 3.695312 -36.363281 L 3.695312 -0.996094 C 3.695312 -0.339844 4.039062 0 4.695312 0 L 12.695312 0 C 13.351562 0 13.695312 -0.339844 13.695312 -0.996094 L 13.695312 -12.746094 L 17.902344 -12.746094 L 23.910156 -0.753906 C 24.152344 -0.242188 24.515625 0 25.050781 0 L 34.125 0 C 34.878906 0 35.171875 -0.488281 34.828125 -1.191406 Z M 18.484375 -28.894531 C 20.480469 -28.894531 23.664062 -28.894531 23.664062 -25.246094 C 23.664062 -21.210938 19.871094 -21.210938 18.484375 -21.210938 L 13.695312 -21.210938 L 13.695312 -28.894531 Z M 18.484375 -28.894531 "/></g></g></g><g fill="#fffbfa" fill-opacity="1"><g transform="translate(255.083068, 340.692836)"><g><path d="M 18.535156 0 C 19.167969 0 19.53125 -0.339844 19.53125 -0.996094 L 19.53125 -28.894531 L 27.046875 -28.894531 C 27.703125 -28.894531 28.042969 -29.234375 28.042969 -29.890625 L 28.042969 -36.363281 C 28.042969 -37.019531 27.703125 -37.359375 27.046875 -37.359375 L 1.996094 -37.359375 C 1.335938 -37.359375 0.996094 -37.019531 0.996094 -36.363281 L 0.996094 -29.890625 C 0.996094 -29.234375 1.335938 -28.894531 1.996094 -28.894531 L 9.511719 -28.894531 L 9.511719 -0.996094 C 9.511719 -0.339844 9.875 0 10.507812 0 Z M 18.535156 0 "/></g></g></g><g fill="#fffbfa" fill-opacity="1"><g transform="translate(324.032532, 340.692836)"><g><path d="M 17.367188 -8.464844 L 33.664062 -36.167969 C 34.074219 -36.800781 33.785156 -37.359375 32.980469 -37.359375 L 4.621094 -37.359375 C 3.988281 -37.359375 3.648438 -37.019531 3.648438 -36.363281 L 3.648438 -29.890625 C 3.648438 -29.234375 3.988281 -28.894531 4.621094 -28.894531 L 17.683594 -28.894531 L 1.433594 -1.191406 C 1.046875 -0.558594 1.335938 0 2.140625 0 L 33.515625 0 C 34.171875 0 34.515625 -0.339844 34.515625 -0.996094 L 34.515625 -7.46875 C 34.515625 -8.125 34.171875 -8.464844 33.515625 -8.464844 Z M 17.367188 -8.464844 "/></g></g></g></svg>