<svg xmlns="http://www.w3.org/2000/svg" xmlns:xlink="http://www.w3.org/1999/xlink" width="1024" zoomAndPan="magnify" viewBox="0 0 768 767.999994" height="1024" preserveAspectRatio="xMidYMid meet" version="1.0"><defs><clipPath id="a31875ea41"><path d="M 44.265625 31.488281 L 691 31.488281 L 691 745.488281 L 44.265625 745.488281 Z M 44.265625 31.488281 " clip-rule="nonzero"/></clipPath></defs><g clip-path="url(#a31875ea41)"><path fill="#f5f5f5" d="M 294.121094 705.824219 C 294.121094 727.730469 311.882812 745.488281 333.796875 745.488281 L 587.734375 745.488281 C 644.617188 745.488281 690.898438 699.222656 690.898438 642.355469 L 690.898438 134.621094 C 690.898438 77.753906 644.617188 31.488281 587.734375 31.488281 L 333.796875 31.488281 C 311.882812 31.488281 294.121094 49.25 294.121094 71.15625 C 294.121094 93.0625 311.882812 110.824219 333.796875 110.824219 L 587.734375 110.824219 C 600.863281 110.824219 611.542969 121.5 611.542969 134.625 L 611.542969 642.355469 C 611.542969 655.480469 600.863281 666.15625 587.734375 666.15625 L 333.796875 666.15625 C 311.882812 666.15625 294.121094 683.917969 294.121094 705.824219 Z M 44.285156 386.527344 C 44.300781 386.21875 44.328125 385.917969 44.351562 385.613281 C 44.375 385.273438 44.398438 384.933594 44.429688 384.59375 C 44.464844 384.207031 44.519531 383.820312 44.566406 383.4375 C 44.597656 383.1875 44.628906 382.9375 44.664062 382.6875 C 44.726562 382.265625 44.800781 381.847656 44.875 381.429688 C 44.914062 381.214844 44.945312 381 44.988281 380.789062 C 45.070312 380.363281 45.167969 379.945312 45.265625 379.523438 C 45.3125 379.316406 45.359375 379.105469 45.410156 378.898438 C 45.511719 378.492188 45.625 378.089844 45.738281 377.6875 C 45.800781 377.464844 45.859375 377.238281 45.925781 377.015625 C 46.039062 376.640625 46.164062 376.273438 46.285156 375.902344 C 46.371094 375.652344 46.453125 375.398438 46.539062 375.152344 C 46.660156 374.816406 46.789062 374.492188 46.914062 374.164062 C 47.023438 373.875 47.132812 373.59375 47.25 373.308594 C 47.371094 373.023438 47.496094 372.742188 47.621094 372.460938 C 47.761719 372.140625 47.902344 371.824219 48.050781 371.507812 C 48.167969 371.265625 48.289062 371.023438 48.40625 370.785156 C 48.582031 370.4375 48.753906 370.09375 48.9375 369.753906 C 49.046875 369.546875 49.167969 369.339844 49.28125 369.132812 C 49.480469 368.773438 49.6875 368.414062 49.902344 368.058594 C 50.011719 367.867188 50.132812 367.683594 50.25 367.496094 C 50.476562 367.136719 50.703125 366.777344 50.9375 366.425781 C 51.066406 366.234375 51.199219 366.050781 51.328125 365.867188 C 51.5625 365.527344 51.800781 365.1875 52.050781 364.851562 C 52.207031 364.640625 52.371094 364.4375 52.535156 364.226562 C 52.765625 363.925781 52.996094 363.625 53.234375 363.332031 C 53.460938 363.058594 53.699219 362.792969 53.929688 362.527344 C 54.121094 362.308594 54.304688 362.082031 54.5 361.867188 C 54.945312 361.378906 55.398438 360.898438 55.867188 360.429688 L 215.765625 200.578125 C 231.257812 185.085938 256.378906 185.085938 271.875 200.578125 C 287.371094 216.070312 287.371094 241.1875 271.875 256.675781 L 179.703125 348.824219 L 492.507812 348.824219 C 514.421875 348.824219 532.1875 366.582031 532.1875 388.488281 C 532.1875 410.398438 514.421875 428.15625 492.507812 428.15625 L 179.703125 428.15625 L 271.875 520.304688 C 287.371094 535.792969 287.371094 560.910156 271.875 576.402344 C 264.128906 584.148438 253.976562 588.019531 243.820312 588.019531 C 233.664062 588.019531 223.511719 584.148438 215.765625 576.402344 L 55.859375 416.539062 C 55.839844 416.523438 55.824219 416.503906 55.808594 416.484375 C 55.363281 416.042969 54.929688 415.585938 54.507812 415.121094 C 54.289062 414.878906 54.085938 414.632812 53.875 414.390625 C 53.664062 414.144531 53.449219 413.902344 53.242188 413.652344 C 52.992188 413.347656 52.75 413.03125 52.507812 412.71875 C 52.359375 412.523438 52.203125 412.332031 52.054688 412.132812 C 51.800781 411.789062 51.558594 411.441406 51.3125 411.089844 C 51.191406 410.914062 51.066406 410.738281 50.945312 410.558594 C 50.699219 410.199219 50.472656 409.832031 50.242188 409.464844 C 50.128906 409.285156 50.015625 409.109375 49.90625 408.925781 C 49.6875 408.566406 49.480469 408.199219 49.277344 407.832031 C 49.164062 407.632812 49.050781 407.433594 48.9375 407.230469 C 48.753906 406.886719 48.578125 406.535156 48.402344 406.183594 C 48.285156 405.949219 48.164062 405.714844 48.050781 405.476562 C 47.902344 405.15625 47.757812 404.835938 47.617188 404.511719 C 47.492188 404.230469 47.367188 403.953125 47.253906 403.671875 C 47.132812 403.386719 47.023438 403.097656 46.910156 402.808594 C 46.785156 402.484375 46.660156 402.15625 46.539062 401.828125 C 46.453125 401.578125 46.371094 401.324219 46.285156 401.070312 C 46.160156 400.703125 46.039062 400.335938 45.925781 399.964844 C 45.859375 399.738281 45.796875 399.511719 45.734375 399.285156 C 45.621094 398.886719 45.507812 398.488281 45.40625 398.082031 C 45.355469 397.875 45.308594 397.660156 45.261719 397.449219 C 45.164062 397.03125 45.070312 396.617188 44.984375 396.195312 C 44.945312 395.976562 44.910156 395.761719 44.871094 395.546875 C 44.796875 395.128906 44.71875 394.714844 44.660156 394.292969 C 44.621094 394.042969 44.59375 393.792969 44.5625 393.539062 C 44.515625 393.15625 44.460938 392.773438 44.425781 392.382812 C 44.390625 392.042969 44.371094 391.703125 44.347656 391.363281 C 44.324219 391.058594 44.296875 390.757812 44.28125 390.453125 C 44.25 389.800781 44.234375 389.144531 44.234375 388.488281 C 44.234375 387.835938 44.253906 387.179688 44.285156 386.527344 Z M 44.285156 386.527344 " fill-opacity="1" fill-rule="nonzero"/></g></svg>