<svg
v-else-if="icon == 'test'"
 xmlns="http://www.w3.org/2000/svg" xmlns:xlink="http://www.w3.org/1999/xlink" :width="size" zoomAndPan="magnify" viewBox="0 0 768 767.999994" :height="size" preserveAspectRatio="xMidYMid meet" version="1.0"><defs><clipPath id="a6cc87e6b1"><path d="M 11.761719 42.003906 L 756.511719 42.003906 L 756.511719 721 L 11.761719 721 Z M 11.761719 42.003906 " clip-rule="nonzero"/></clipPath></defs><g clip-path="url(#a6cc87e6b1)"><path 
 :class="{ white: color == 'white', accent: color == 'accent' }" fill="#ffffff" d="M 382.375 42.300781 C 334.863281 42.300781 296.316406 80.835938 296.316406 128.332031 C 296.316406 175.824219 334.863281 214.292969 382.375 214.292969 C 429.886719 214.292969 468.371094 175.824219 468.371094 128.332031 C 468.371094 80.835938 429.886719 42.300781 382.375 42.300781 Z M 217.832031 260.324219 L 113.339844 441.292969 L 49.664062 441.828125 C 28.613281 442.019531 11.804688 459.179688 11.996094 480.222656 C 12.1875 501.265625 29.285156 518 50.335938 517.808594 L 126.34375 517.140625 C 143.757812 516.28125 159.261719 510.144531 169.640625 495.699219 L 256.304688 345.6875 L 269.171875 549.105469 L 81.839844 522.171875 C 57.988281 518.492188 35.789062 534.710938 32.105469 558.550781 L 29.425781 575.773438 C 25.746094 599.613281 42.039062 621.808594 65.886719 625.488281 L 344.441406 668.5 L 351.277344 690.410156 C 358.824219 713.324219 383.316406 725.695312 406.238281 718.152344 L 695.925781 622.875 C 718.847656 615.332031 731.222656 590.78125 723.675781 567.867188 L 718.179688 551.316406 C 710.632812 528.402344 686.140625 516.035156 663.21875 523.578125 L 494.3125 574.96875 L 508.457031 339.519531 L 598.671875 495.695312 C 607.855469 510.574219 625.289062 516.371094 642.039062 517.136719 L 717.980469 517.808594 C 739.03125 518 756.195312 501.261719 756.386719 480.21875 C 756.578125 459.175781 739.765625 442.019531 718.71875 441.828125 L 654.976562 441.289062 L 550.484375 260.320312 C 531.980469 228.28125 239.722656 222.417969 217.828125 260.320312 Z M 217.832031 260.324219 " fill-opacity="1" fill-rule="nonzero"/></g></svg>