<svg xmlns="http://www.w3.org/2000/svg" xmlns:xlink="http://www.w3.org/1999/xlink" width="1024" zoomAndPan="magnify" viewBox="0 0 768 767.999994" height="1024" preserveAspectRatio="xMidYMid meet" version="1.0"><defs><clipPath id="691b1af280"><path d="M 14.292969 299 L 759.792969 299 L 759.792969 475 L 14.292969 475 Z M 14.292969 299 " clip-rule="nonzero"/></clipPath><clipPath id="b459583eb1"><path d="M 14.292969 23 L 759.792969 23 L 759.792969 199 L 14.292969 199 Z M 14.292969 23 " clip-rule="nonzero"/></clipPath><clipPath id="774869ba25"><path d="M 14.292969 575 L 759.792969 575 L 759.792969 751 L 14.292969 751 Z M 14.292969 575 " clip-rule="nonzero"/></clipPath></defs><g clip-path="url(#691b1af280)"><path fill="#f5f5f5" d="M 81.535156 299.660156 L 693.328125 299.660156 C 694.421875 299.660156 695.515625 299.6875 696.605469 299.742188 C 697.699219 299.796875 698.789062 299.875 699.878906 299.984375 C 700.96875 300.089844 702.054688 300.222656 703.136719 300.382812 C 704.21875 300.542969 705.296875 300.730469 706.367188 300.945312 C 707.441406 301.15625 708.507812 301.398438 709.570312 301.664062 C 710.632812 301.929688 711.6875 302.21875 712.734375 302.539062 C 713.78125 302.855469 714.820312 303.199219 715.847656 303.566406 C 716.878906 303.933594 717.898438 304.328125 718.910156 304.746094 C 719.921875 305.164062 720.921875 305.605469 721.910156 306.074219 C 722.898438 306.542969 723.875 307.03125 724.839844 307.546875 C 725.804688 308.0625 726.757812 308.601562 727.695312 309.164062 C 728.632812 309.726562 729.558594 310.3125 730.46875 310.917969 C 731.378906 311.523438 732.273438 312.15625 733.152344 312.804688 C 734.03125 313.457031 734.890625 314.128906 735.738281 314.824219 C 736.582031 315.515625 737.410156 316.230469 738.222656 316.964844 C 739.035156 317.699219 739.824219 318.453125 740.597656 319.222656 C 741.371094 319.996094 742.128906 320.789062 742.863281 321.597656 C 743.597656 322.410156 744.3125 323.234375 745.003906 324.082031 C 745.699219 324.925781 746.371094 325.789062 747.023438 326.664062 C 747.675781 327.542969 748.304688 328.4375 748.914062 329.347656 C 749.519531 330.253906 750.105469 331.179688 750.667969 332.117188 C 751.230469 333.054688 751.769531 334.003906 752.285156 334.96875 C 752.800781 335.933594 753.292969 336.910156 753.761719 337.898438 C 754.230469 338.886719 754.671875 339.882812 755.089844 340.894531 C 755.511719 341.902344 755.902344 342.921875 756.273438 343.953125 C 756.640625 344.980469 756.984375 346.019531 757.300781 347.066406 C 757.621094 348.113281 757.910156 349.164062 758.175781 350.226562 C 758.441406 351.285156 758.683594 352.351562 758.894531 353.425781 C 759.109375 354.496094 759.296875 355.574219 759.457031 356.652344 C 759.617188 357.734375 759.75 358.820312 759.859375 359.90625 C 759.964844 360.996094 760.046875 362.085938 760.101562 363.175781 C 760.152344 364.269531 760.179688 365.363281 760.179688 366.453125 L 760.179688 407.617188 C 760.179688 408.710938 760.152344 409.804688 760.101562 410.894531 C 760.046875 411.988281 759.964844 413.078125 759.859375 414.164062 C 759.75 415.253906 759.617188 416.335938 759.457031 417.417969 C 759.296875 418.5 759.109375 419.578125 758.894531 420.648438 C 758.683594 421.722656 758.441406 422.785156 758.175781 423.847656 C 757.910156 424.90625 757.621094 425.960938 757.300781 427.007812 C 756.984375 428.054688 756.640625 429.089844 756.273438 430.121094 C 755.902344 431.148438 755.511719 432.167969 755.089844 433.179688 C 754.671875 434.1875 754.230469 435.1875 753.761719 436.175781 C 753.292969 437.164062 752.800781 438.140625 752.285156 439.105469 C 751.769531 440.066406 751.230469 441.019531 750.667969 441.957031 C 750.105469 442.894531 749.519531 443.816406 748.914062 444.726562 C 748.304688 445.636719 747.675781 446.527344 747.023438 447.40625 C 746.371094 448.285156 745.699219 449.144531 745.003906 449.992188 C 744.3125 450.835938 743.597656 451.664062 742.863281 452.472656 C 742.128906 453.285156 741.371094 454.074219 740.597656 454.847656 C 739.824219 455.621094 739.035156 456.375 738.222656 457.109375 C 737.410156 457.84375 736.582031 458.554688 735.738281 459.25 C 734.890625 459.941406 734.03125 460.617188 733.152344 461.265625 C 732.273438 461.917969 731.378906 462.546875 730.46875 463.15625 C 729.558594 463.761719 728.632812 464.347656 727.695312 464.910156 C 726.757812 465.46875 725.804688 466.007812 724.839844 466.523438 C 723.875 467.039062 722.898438 467.53125 721.910156 468 C 720.921875 468.464844 719.921875 468.910156 718.910156 469.328125 C 717.898438 469.746094 716.878906 470.136719 715.847656 470.507812 C 714.820312 470.875 713.78125 471.21875 712.734375 471.535156 C 711.6875 471.851562 710.632812 472.144531 709.570312 472.410156 C 708.507812 472.675781 707.441406 472.914062 706.367188 473.128906 C 705.296875 473.339844 704.21875 473.527344 703.136719 473.6875 C 702.054688 473.847656 700.96875 473.984375 699.878906 474.089844 C 698.789062 474.195312 697.699219 474.277344 696.605469 474.332031 C 695.515625 474.382812 694.421875 474.410156 693.328125 474.410156 L 81.535156 474.410156 C 80.441406 474.410156 79.347656 474.382812 78.253906 474.332031 C 77.160156 474.277344 76.070312 474.195312 74.980469 474.089844 C 73.894531 473.984375 72.808594 473.847656 71.726562 473.6875 C 70.644531 473.527344 69.566406 473.339844 68.492188 473.128906 C 67.417969 472.914062 66.351562 472.675781 65.289062 472.410156 C 64.230469 472.144531 63.175781 471.851562 62.128906 471.535156 C 61.082031 471.21875 60.042969 470.875 59.011719 470.507812 C 57.980469 470.136719 56.960938 469.746094 55.949219 469.328125 C 54.941406 468.910156 53.941406 468.464844 52.949219 468 C 51.960938 467.53125 50.984375 467.039062 50.019531 466.523438 C 49.054688 466.007812 48.101562 465.46875 47.164062 464.910156 C 46.226562 464.347656 45.300781 463.761719 44.390625 463.15625 C 43.484375 462.546875 42.589844 461.917969 41.710938 461.265625 C 40.832031 460.617188 39.96875 459.941406 39.121094 459.25 C 38.277344 458.554688 37.449219 457.84375 36.636719 457.109375 C 35.828125 456.375 35.035156 455.621094 34.261719 454.847656 C 33.488281 454.074219 32.734375 453.285156 32 452.472656 C 31.265625 451.664062 30.550781 450.835938 29.855469 449.992188 C 29.160156 449.144531 28.488281 448.285156 27.835938 447.40625 C 27.183594 446.527344 26.554688 445.636719 25.949219 444.726562 C 25.339844 443.816406 24.753906 442.894531 24.191406 441.957031 C 23.628906 441.019531 23.089844 440.066406 22.574219 439.105469 C 22.058594 438.140625 21.566406 437.164062 21.097656 436.175781 C 20.632812 435.1875 20.1875 434.1875 19.769531 433.179688 C 19.351562 432.167969 18.957031 431.148438 18.589844 430.121094 C 18.21875 429.089844 17.875 428.054688 17.558594 427.007812 C 17.242188 425.960938 16.949219 424.90625 16.683594 423.847656 C 16.417969 422.785156 16.179688 421.722656 15.964844 420.648438 C 15.75 419.578125 15.566406 418.5 15.402344 417.417969 C 15.242188 416.335938 15.109375 415.253906 15.003906 414.164062 C 14.894531 413.078125 14.816406 411.988281 14.761719 410.894531 C 14.707031 409.804688 14.679688 408.710938 14.679688 407.617188 L 14.679688 366.453125 C 14.679688 365.363281 14.707031 364.269531 14.761719 363.175781 C 14.816406 362.085938 14.894531 360.996094 15.003906 359.90625 C 15.109375 358.820312 15.242188 357.734375 15.402344 356.652344 C 15.566406 355.574219 15.75 354.496094 15.964844 353.425781 C 16.179688 352.351562 16.417969 351.285156 16.683594 350.226562 C 16.949219 349.164062 17.242188 348.113281 17.558594 347.066406 C 17.875 346.019531 18.21875 344.980469 18.589844 343.953125 C 18.957031 342.921875 19.351562 341.902344 19.769531 340.894531 C 20.1875 339.882812 20.632812 338.886719 21.097656 337.898438 C 21.566406 336.910156 22.058594 335.933594 22.574219 334.96875 C 23.089844 334.003906 23.628906 333.054688 24.191406 332.117188 C 24.753906 331.179688 25.339844 330.253906 25.949219 329.347656 C 26.554688 328.4375 27.183594 327.542969 27.835938 326.664062 C 28.488281 325.789062 29.160156 324.925781 29.855469 324.082031 C 30.550781 323.234375 31.265625 322.410156 32 321.597656 C 32.734375 320.789062 33.488281 319.996094 34.261719 319.222656 C 35.035156 318.453125 35.828125 317.699219 36.636719 316.964844 C 37.449219 316.230469 38.277344 315.515625 39.121094 314.824219 C 39.96875 314.128906 40.832031 313.457031 41.710938 312.804688 C 42.589844 312.15625 43.484375 311.523438 44.390625 310.917969 C 45.300781 310.3125 46.226562 309.726562 47.164062 309.164062 C 48.101562 308.601562 49.054688 308.0625 50.019531 307.546875 C 50.984375 307.03125 51.960938 306.542969 52.949219 306.074219 C 53.941406 305.605469 54.941406 305.164062 55.949219 304.746094 C 56.960938 304.328125 57.980469 303.933594 59.011719 303.566406 C 60.042969 303.199219 61.082031 302.855469 62.128906 302.539062 C 63.175781 302.21875 64.230469 301.929688 65.289062 301.664062 C 66.351562 301.398438 67.417969 301.15625 68.492188 300.945312 C 69.566406 300.730469 70.644531 300.542969 71.726562 300.382812 C 72.808594 300.222656 73.894531 300.089844 74.980469 299.984375 C 76.070312 299.875 77.160156 299.796875 78.253906 299.742188 C 79.347656 299.6875 80.441406 299.660156 81.535156 299.660156 Z M 81.535156 299.660156 " fill-opacity="1" fill-rule="nonzero"/></g><g clip-path="url(#b459583eb1)"><path fill="#f5f5f5" d="M 81.535156 23.789062 L 693.328125 23.789062 C 694.421875 23.789062 695.515625 23.816406 696.605469 23.871094 C 697.699219 23.921875 698.789062 24.003906 699.878906 24.109375 C 700.96875 24.21875 702.054688 24.351562 703.136719 24.511719 C 704.21875 24.671875 705.296875 24.859375 706.367188 25.074219 C 707.441406 25.285156 708.507812 25.523438 709.570312 25.789062 C 710.632812 26.054688 711.6875 26.347656 712.734375 26.664062 C 713.78125 26.980469 714.820312 27.324219 715.847656 27.695312 C 716.878906 28.0625 717.898438 28.453125 718.910156 28.875 C 719.921875 29.292969 720.921875 29.734375 721.910156 30.203125 C 722.898438 30.667969 723.875 31.160156 724.839844 31.675781 C 725.804688 32.191406 726.757812 32.730469 727.695312 33.292969 C 728.632812 33.855469 729.558594 34.4375 730.46875 35.046875 C 731.378906 35.652344 732.273438 36.28125 733.152344 36.933594 C 734.03125 37.585938 734.890625 38.257812 735.738281 38.949219 C 736.582031 39.644531 737.410156 40.359375 738.222656 41.089844 C 739.035156 41.824219 739.824219 42.578125 740.597656 43.351562 C 741.371094 44.125 742.128906 44.917969 742.863281 45.726562 C 743.597656 46.535156 744.3125 47.363281 745.003906 48.210938 C 745.699219 49.054688 746.371094 49.914062 747.023438 50.792969 C 747.675781 51.671875 748.304688 52.566406 748.914062 53.472656 C 749.519531 54.382812 750.105469 55.304688 750.667969 56.242188 C 751.230469 57.179688 751.769531 58.132812 752.285156 59.097656 C 752.800781 60.058594 753.292969 61.035156 753.761719 62.023438 C 754.230469 63.011719 754.671875 64.011719 755.089844 65.023438 C 755.511719 66.03125 755.902344 67.050781 756.273438 68.082031 C 756.640625 69.109375 756.984375 70.148438 757.300781 71.191406 C 757.621094 72.238281 757.910156 73.292969 758.175781 74.351562 C 758.441406 75.414062 758.683594 76.480469 758.894531 77.550781 C 759.109375 78.625 759.296875 79.699219 759.457031 80.78125 C 759.617188 81.863281 759.75 82.949219 759.859375 84.035156 C 759.964844 85.125 760.046875 86.214844 760.101562 87.304688 C 760.152344 88.398438 760.179688 89.488281 760.179688 90.582031 L 760.179688 131.746094 C 760.179688 132.839844 760.152344 133.929688 760.101562 135.023438 C 760.046875 136.113281 759.964844 137.203125 759.859375 138.292969 C 759.75 139.378906 759.617188 140.464844 759.457031 141.546875 C 759.296875 142.628906 759.109375 143.703125 758.894531 144.777344 C 758.683594 145.847656 758.441406 146.914062 758.175781 147.976562 C 757.910156 149.035156 757.621094 150.089844 757.300781 151.136719 C 756.984375 152.179688 756.640625 153.21875 756.273438 154.246094 C 755.902344 155.277344 755.511719 156.296875 755.089844 157.304688 C 754.671875 158.316406 754.230469 159.316406 753.761719 160.304688 C 753.292969 161.292969 752.800781 162.269531 752.285156 163.230469 C 751.769531 164.195312 751.230469 165.148438 750.667969 166.085938 C 750.105469 167.023438 749.519531 167.945312 748.914062 168.855469 C 748.304688 169.761719 747.675781 170.65625 747.023438 171.535156 C 746.371094 172.414062 745.699219 173.273438 745.003906 174.117188 C 744.3125 174.964844 743.597656 175.792969 742.863281 176.601562 C 742.128906 177.410156 741.371094 178.203125 740.597656 178.976562 C 739.824219 179.75 739.035156 180.503906 738.222656 181.234375 C 737.410156 181.96875 736.582031 182.683594 735.738281 183.378906 C 734.890625 184.070312 734.03125 184.742188 733.152344 185.394531 C 732.273438 186.046875 731.378906 186.675781 730.46875 187.28125 C 729.558594 187.890625 728.632812 188.472656 727.695312 189.035156 C 726.757812 189.597656 725.804688 190.136719 724.839844 190.652344 C 723.875 191.167969 722.898438 191.660156 721.910156 192.125 C 720.921875 192.59375 719.921875 193.035156 718.910156 193.453125 C 717.898438 193.875 716.878906 194.265625 715.847656 194.632812 C 714.820312 195.003906 713.78125 195.34375 712.734375 195.664062 C 711.6875 195.980469 710.632812 196.273438 709.570312 196.539062 C 708.507812 196.804688 707.441406 197.042969 706.367188 197.253906 C 705.296875 197.46875 704.21875 197.65625 703.136719 197.816406 C 702.054688 197.976562 700.96875 198.109375 699.878906 198.21875 C 698.789062 198.324219 697.699219 198.40625 696.605469 198.457031 C 695.515625 198.511719 694.421875 198.539062 693.328125 198.539062 L 81.535156 198.539062 C 80.441406 198.539062 79.347656 198.511719 78.253906 198.457031 C 77.160156 198.40625 76.070312 198.324219 74.980469 198.21875 C 73.894531 198.109375 72.808594 197.976562 71.726562 197.816406 C 70.644531 197.65625 69.566406 197.46875 68.492188 197.253906 C 67.417969 197.042969 66.351562 196.804688 65.289062 196.539062 C 64.230469 196.273438 63.175781 195.980469 62.128906 195.664062 C 61.082031 195.34375 60.042969 195.003906 59.011719 194.632812 C 57.980469 194.265625 56.960938 193.875 55.949219 193.453125 C 54.941406 193.035156 53.941406 192.59375 52.949219 192.125 C 51.960938 191.660156 50.984375 191.167969 50.019531 190.652344 C 49.054688 190.136719 48.101562 189.597656 47.164062 189.035156 C 46.226562 188.472656 45.300781 187.890625 44.390625 187.28125 C 43.484375 186.675781 42.589844 186.046875 41.710938 185.394531 C 40.832031 184.742188 39.96875 184.070312 39.121094 183.378906 C 38.277344 182.683594 37.449219 181.96875 36.636719 181.238281 C 35.828125 180.503906 35.035156 179.75 34.261719 178.976562 C 33.488281 178.203125 32.734375 177.410156 32 176.601562 C 31.265625 175.792969 30.550781 174.964844 29.855469 174.117188 C 29.160156 173.273438 28.488281 172.414062 27.835938 171.535156 C 27.183594 170.65625 26.554688 169.761719 25.949219 168.855469 C 25.339844 167.945312 24.753906 167.023438 24.191406 166.085938 C 23.628906 165.148438 23.089844 164.195312 22.574219 163.230469 C 22.058594 162.269531 21.566406 161.292969 21.097656 160.304688 C 20.632812 159.316406 20.1875 158.316406 19.769531 157.304688 C 19.351562 156.296875 18.957031 155.277344 18.589844 154.246094 C 18.21875 153.21875 17.875 152.179688 17.558594 151.136719 C 17.242188 150.089844 16.949219 149.035156 16.683594 147.976562 C 16.417969 146.914062 16.179688 145.847656 15.964844 144.777344 C 15.75 143.703125 15.566406 142.628906 15.402344 141.546875 C 15.242188 140.464844 15.109375 139.378906 15.003906 138.292969 C 14.894531 137.203125 14.816406 136.113281 14.761719 135.023438 C 14.707031 133.929688 14.679688 132.839844 14.679688 131.746094 L 14.679688 90.582031 C 14.679688 89.488281 14.707031 88.398438 14.761719 87.304688 C 14.816406 86.214844 14.894531 85.125 15.003906 84.035156 C 15.109375 82.949219 15.242188 81.863281 15.402344 80.78125 C 15.566406 79.699219 15.75 78.625 15.964844 77.550781 C 16.179688 76.480469 16.417969 75.414062 16.683594 74.351562 C 16.949219 73.292969 17.242188 72.238281 17.558594 71.191406 C 17.875 70.148438 18.21875 69.109375 18.589844 68.082031 C 18.957031 67.050781 19.351562 66.03125 19.769531 65.023438 C 20.1875 64.011719 20.632812 63.011719 21.097656 62.023438 C 21.566406 61.035156 22.058594 60.058594 22.574219 59.097656 C 23.089844 58.132812 23.628906 57.179688 24.191406 56.242188 C 24.753906 55.304688 25.339844 54.382812 25.949219 53.472656 C 26.554688 52.566406 27.183594 51.671875 27.835938 50.792969 C 28.488281 49.914062 29.160156 49.054688 29.855469 48.210938 C 30.550781 47.363281 31.265625 46.535156 32 45.726562 C 32.734375 44.917969 33.488281 44.125 34.261719 43.351562 C 35.035156 42.578125 35.828125 41.824219 36.636719 41.089844 C 37.449219 40.359375 38.277344 39.644531 39.121094 38.949219 C 39.96875 38.257812 40.832031 37.585938 41.710938 36.933594 C 42.589844 36.28125 43.484375 35.652344 44.390625 35.046875 C 45.300781 34.4375 46.226562 33.855469 47.164062 33.292969 C 48.101562 32.730469 49.054688 32.191406 50.019531 31.675781 C 50.984375 31.160156 51.960938 30.667969 52.949219 30.203125 C 53.941406 29.734375 54.941406 29.292969 55.949219 28.875 C 56.960938 28.453125 57.980469 28.0625 59.011719 27.695312 C 60.042969 27.324219 61.082031 26.980469 62.128906 26.664062 C 63.175781 26.347656 64.230469 26.054688 65.289062 25.789062 C 66.351562 25.523438 67.417969 25.285156 68.492188 25.074219 C 69.566406 24.859375 70.644531 24.671875 71.726562 24.511719 C 72.808594 24.351562 73.894531 24.21875 74.980469 24.109375 C 76.070312 24.003906 77.160156 23.921875 78.253906 23.871094 C 79.347656 23.816406 80.441406 23.789062 81.535156 23.789062 Z M 81.535156 23.789062 " fill-opacity="1" fill-rule="nonzero"/></g><g clip-path="url(#774869ba25)"><path fill="#f5f5f5" d="M 81.535156 575.535156 L 693.328125 575.535156 C 694.421875 575.535156 695.515625 575.558594 696.605469 575.613281 C 697.699219 575.667969 698.789062 575.746094 699.878906 575.855469 C 700.96875 575.960938 702.054688 576.097656 703.136719 576.257812 C 704.21875 576.417969 705.296875 576.605469 706.367188 576.816406 C 707.441406 577.03125 708.507812 577.269531 709.570312 577.535156 C 710.632812 577.800781 711.6875 578.09375 712.734375 578.410156 C 713.78125 578.726562 714.820312 579.070312 715.847656 579.4375 C 716.878906 579.804688 717.898438 580.199219 718.910156 580.617188 C 719.921875 581.035156 720.921875 581.480469 721.910156 581.945312 C 722.898438 582.414062 723.875 582.90625 724.839844 583.421875 C 725.804688 583.9375 726.757812 584.472656 727.695312 585.035156 C 728.632812 585.597656 729.558594 586.183594 730.46875 586.789062 C 731.378906 587.398438 732.273438 588.027344 733.152344 588.679688 C 734.03125 589.328125 734.890625 590 735.738281 590.695312 C 736.582031 591.386719 737.410156 592.101562 738.222656 592.835938 C 739.035156 593.570312 739.824219 594.324219 740.597656 595.097656 C 741.371094 595.871094 742.128906 596.660156 742.863281 597.472656 C 743.597656 598.28125 744.3125 599.109375 745.003906 599.953125 C 745.699219 600.796875 746.371094 601.660156 747.023438 602.539062 C 747.675781 603.414062 748.304688 604.308594 748.914062 605.21875 C 749.519531 606.128906 750.105469 607.050781 750.667969 607.988281 C 751.230469 608.925781 751.769531 609.875 752.285156 610.839844 C 752.800781 611.804688 753.292969 612.78125 753.761719 613.769531 C 754.230469 614.757812 754.671875 615.757812 755.089844 616.765625 C 755.511719 617.777344 755.902344 618.796875 756.273438 619.824219 C 756.640625 620.855469 756.984375 621.890625 757.300781 622.9375 C 757.621094 623.984375 757.910156 625.035156 758.175781 626.097656 C 758.441406 627.15625 758.683594 628.222656 758.894531 629.296875 C 759.109375 630.367188 759.296875 631.445312 759.457031 632.527344 C 759.617188 633.609375 759.75 634.691406 759.859375 635.78125 C 759.964844 636.867188 760.046875 637.957031 760.101562 639.050781 C 760.152344 640.140625 760.179688 641.234375 760.179688 642.328125 L 760.179688 683.492188 C 760.179688 684.582031 760.152344 685.675781 760.101562 686.769531 C 760.046875 687.859375 759.964844 688.949219 759.859375 690.035156 C 759.75 691.125 759.617188 692.210938 759.457031 693.289062 C 759.296875 694.371094 759.109375 695.449219 758.894531 696.519531 C 758.683594 697.59375 758.441406 698.660156 758.175781 699.71875 C 757.910156 700.78125 757.621094 701.832031 757.300781 702.878906 C 756.984375 703.925781 756.640625 704.964844 756.273438 705.992188 C 755.902344 707.019531 755.511719 708.039062 755.089844 709.050781 C 754.671875 710.0625 754.230469 711.058594 753.761719 712.046875 C 753.292969 713.035156 752.800781 714.011719 752.285156 714.976562 C 751.769531 715.941406 751.230469 716.890625 750.667969 717.828125 C 750.105469 718.765625 749.519531 719.691406 748.914062 720.597656 C 748.304688 721.507812 747.675781 722.402344 747.023438 723.277344 C 746.371094 724.15625 745.699219 725.019531 745.003906 725.863281 C 744.3125 726.707031 743.597656 727.535156 742.863281 728.347656 C 742.128906 729.15625 741.371094 729.949219 740.597656 730.71875 C 739.824219 731.492188 739.035156 732.246094 738.222656 732.980469 C 737.410156 733.714844 736.582031 734.429688 735.738281 735.121094 C 734.890625 735.816406 734.03125 736.488281 733.152344 737.140625 C 732.273438 737.789062 731.378906 738.417969 730.46875 739.027344 C 729.558594 739.632812 728.632812 740.21875 727.695312 740.78125 C 726.757812 741.34375 725.804688 741.882812 724.839844 742.398438 C 723.875 742.910156 722.898438 743.402344 721.910156 743.871094 C 720.921875 744.339844 719.921875 744.78125 718.910156 745.199219 C 717.898438 745.617188 716.878906 746.011719 715.847656 746.378906 C 714.820312 746.746094 713.78125 747.089844 712.734375 747.40625 C 711.6875 747.726562 710.632812 748.015625 709.570312 748.28125 C 708.507812 748.546875 707.441406 748.785156 706.367188 749 C 705.296875 749.214844 704.21875 749.398438 703.136719 749.5625 C 702.054688 749.722656 700.96875 749.855469 699.878906 749.960938 C 698.789062 750.070312 697.699219 750.148438 696.605469 750.203125 C 695.515625 750.257812 694.421875 750.285156 693.328125 750.285156 L 81.535156 750.285156 C 80.441406 750.285156 79.347656 750.257812 78.253906 750.203125 C 77.160156 750.148438 76.070312 750.070312 74.980469 749.960938 C 73.894531 749.855469 72.808594 749.722656 71.726562 749.5625 C 70.644531 749.398438 69.566406 749.214844 68.492188 749 C 67.417969 748.785156 66.351562 748.546875 65.289062 748.28125 C 64.230469 748.015625 63.175781 747.726562 62.128906 747.40625 C 61.082031 747.089844 60.042969 746.746094 59.011719 746.378906 C 57.980469 746.011719 56.960938 745.617188 55.949219 745.199219 C 54.941406 744.78125 53.941406 744.339844 52.949219 743.871094 C 51.960938 743.402344 50.984375 742.910156 50.019531 742.398438 C 49.054688 741.882812 48.101562 741.34375 47.164062 740.78125 C 46.226562 740.21875 45.300781 739.632812 44.390625 739.027344 C 43.484375 738.417969 42.589844 737.789062 41.710938 737.140625 C 40.832031 736.488281 39.96875 735.816406 39.121094 735.121094 C 38.277344 734.429688 37.449219 733.714844 36.636719 732.980469 C 35.828125 732.246094 35.035156 731.492188 34.261719 730.71875 C 33.488281 729.945312 32.734375 729.15625 32 728.347656 C 31.265625 727.535156 30.550781 726.707031 29.855469 725.863281 C 29.160156 725.019531 28.488281 724.15625 27.835938 723.277344 C 27.183594 722.402344 26.554688 721.507812 25.949219 720.597656 C 25.339844 719.691406 24.753906 718.765625 24.191406 717.828125 C 23.628906 716.890625 23.089844 715.941406 22.574219 714.976562 C 22.058594 714.011719 21.566406 713.035156 21.097656 712.046875 C 20.632812 711.058594 20.1875 710.0625 19.769531 709.050781 C 19.351562 708.039062 18.957031 707.019531 18.589844 705.992188 C 18.21875 704.964844 17.875 703.925781 17.558594 702.878906 C 17.242188 701.832031 16.949219 700.78125 16.683594 699.71875 C 16.417969 698.660156 16.179688 697.59375 15.964844 696.519531 C 15.75 695.449219 15.566406 694.371094 15.402344 693.289062 C 15.242188 692.210938 15.109375 691.125 15.003906 690.035156 C 14.894531 688.949219 14.816406 687.859375 14.761719 686.769531 C 14.707031 685.675781 14.679688 684.582031 14.679688 683.492188 L 14.679688 642.328125 C 14.679688 641.234375 14.707031 640.140625 14.761719 639.050781 C 14.816406 637.957031 14.894531 636.867188 15.003906 635.78125 C 15.109375 634.691406 15.242188 633.609375 15.402344 632.527344 C 15.566406 631.445312 15.75 630.367188 15.964844 629.296875 C 16.179688 628.222656 16.417969 627.15625 16.683594 626.097656 C 16.949219 625.035156 17.242188 623.984375 17.558594 622.9375 C 17.875 621.890625 18.21875 620.855469 18.589844 619.824219 C 18.957031 618.796875 19.351562 617.777344 19.769531 616.765625 C 20.1875 615.757812 20.632812 614.757812 21.097656 613.769531 C 21.566406 612.78125 22.058594 611.804688 22.574219 610.839844 C 23.089844 609.875 23.628906 608.925781 24.191406 607.988281 C 24.753906 607.050781 25.339844 606.128906 25.949219 605.21875 C 26.554688 604.308594 27.183594 603.414062 27.835938 602.539062 C 28.488281 601.660156 29.160156 600.796875 29.855469 599.953125 C 30.550781 599.109375 31.265625 598.28125 32 597.472656 C 32.734375 596.660156 33.488281 595.871094 34.261719 595.097656 C 35.035156 594.324219 35.828125 593.570312 36.636719 592.835938 C 37.449219 592.101562 38.277344 591.386719 39.121094 590.695312 C 39.96875 590 40.832031 589.328125 41.710938 588.679688 C 42.589844 588.027344 43.484375 587.398438 44.390625 586.789062 C 45.300781 586.183594 46.226562 585.597656 47.164062 585.035156 C 48.101562 584.472656 49.054688 583.933594 50.019531 583.421875 C 50.984375 582.90625 51.960938 582.414062 52.949219 581.945312 C 53.941406 581.480469 54.941406 581.035156 55.949219 580.617188 C 56.960938 580.199219 57.980469 579.804688 59.011719 579.4375 C 60.042969 579.070312 61.082031 578.726562 62.128906 578.410156 C 63.175781 578.09375 64.230469 577.800781 65.289062 577.535156 C 66.351562 577.269531 67.417969 577.03125 68.492188 576.816406 C 69.566406 576.605469 70.644531 576.417969 71.726562 576.257812 C 72.808594 576.097656 73.894531 575.960938 74.980469 575.855469 C 76.070312 575.746094 77.160156 575.667969 78.253906 575.613281 C 79.347656 575.558594 80.441406 575.535156 81.535156 575.535156 Z M 81.535156 575.535156 " fill-opacity="1" fill-rule="nonzero"/></g></svg>