<svg xmlns="http://www.w3.org/2000/svg" xmlns:xlink="http://www.w3.org/1999/xlink" width="1024" zoomAndPan="magnify" viewBox="0 0 768 767.999994" height="1024" preserveAspectRatio="xMidYMid meet" version="1.0"><defs><clipPath id="4f56e05755"><path d="M 32 11.152344 L 736 11.152344 L 736 756.652344 L 32 756.652344 Z M 32 11.152344 " clip-rule="nonzero"/></clipPath></defs><g clip-path="url(#4f56e05755)"><path fill="#f5f5f5" d="M 297.828125 708.964844 L 115.046875 710.566406 C 113.140625 710.847656 111.636719 712.578125 111.65625 714.511719 L 111.996094 750.082031 C 112.277344 751.984375 114.007812 753.488281 115.941406 753.472656 C 176.613281 752.921875 237.476562 752.429688 298.214844 751.90625 C 300.335938 751.886719 302.128906 750.039062 302.113281 747.921875 L 301.769531 712.351562 C 301.492188 710.449219 299.757812 708.949219 297.828125 708.964844 Z M 606.222656 328.488281 C 614.199219 328.222656 620.640625 321.625 620.640625 313.59375 L 620.640625 302.632812 L 511.042969 302.632812 L 511.042969 313.59375 C 511.042969 321.792969 517.753906 328.496094 525.957031 328.496094 L 526.453125 328.496094 L 526.453125 338.003906 L 497.609375 338.003906 C 490.910156 338.003906 485.480469 343.429688 485.480469 350.125 L 485.480469 424.96875 C 476.476562 429.433594 470.289062 438.714844 470.289062 449.4375 C 470.289062 464.515625 482.519531 476.738281 497.609375 476.738281 C 512.699219 476.738281 524.929688 464.515625 524.929688 449.4375 C 524.929688 438.714844 518.742188 429.433594 509.738281 424.96875 L 509.738281 362.242188 L 541.75 362.242188 L 541.75 365.027344 C 541.75 373.222656 548.460938 379.929688 556.660156 379.929688 L 576.015625 379.929688 C 584.21875 379.929688 590.929688 373.222656 590.929688 365.027344 L 590.929688 355.132812 L 591.3125 355.132812 C 599.511719 355.132812 606.222656 348.425781 606.222656 340.230469 Z M 436.242188 527.039062 C 421.15625 527.039062 408.921875 514.8125 408.921875 499.734375 C 408.921875 489.007812 415.113281 479.730469 424.117188 475.265625 L 424.117188 266.273438 C 424.117188 259.578125 429.546875 254.152344 436.242188 254.152344 L 505.589844 254.152344 C 495.023438 214.546875 474.066406 208.410156 474.066406 167.542969 C 474.066406 116.890625 515.152344 75.832031 565.839844 75.832031 C 616.527344 75.832031 657.617188 116.890625 657.617188 167.542969 C 657.617188 215.566406 628.675781 215.617188 621.664062 278.390625 L 593.816406 278.390625 L 593.816406 201.648438 L 603.015625 201.648438 C 621.441406 201.648438 636.46875 186.628906 636.46875 168.21875 C 636.46875 149.804688 621.441406 134.785156 603.015625 134.785156 C 584.589844 134.785156 569.558594 149.804688 569.558594 168.21875 L 569.558594 177.410156 L 562.121094 177.410156 L 562.121094 168.21875 C 562.121094 149.804688 547.089844 134.785156 528.664062 134.785156 C 510.242188 134.785156 495.210938 149.804688 495.210938 168.21875 C 495.210938 186.628906 510.238281 201.648438 528.664062 201.648438 L 537.863281 201.648438 L 537.863281 278.390625 L 448.371094 278.390625 L 448.371094 475.265625 C 457.375 479.730469 463.566406 489.007812 463.566406 499.734375 C 463.566406 514.8125 451.332031 527.039062 436.242188 527.039062 Z M 569.5625 278.390625 L 569.5625 201.648438 L 562.121094 201.648438 L 562.121094 278.390625 Z M 537.863281 177.410156 L 537.863281 168.21875 C 537.863281 163.1875 533.699219 159.023438 528.667969 159.023438 C 523.632812 159.023438 519.46875 163.1875 519.46875 168.21875 C 519.46875 173.25 523.632812 177.410156 528.667969 177.410156 Z M 593.816406 177.410156 L 603.015625 177.410156 C 608.050781 177.410156 612.214844 173.25 612.214844 168.21875 C 612.214844 163.1875 608.050781 159.023438 603.015625 159.023438 C 597.984375 159.023438 593.816406 163.1875 593.816406 168.21875 Z M 259.703125 71.066406 C 270.925781 73.734375 281.648438 78.183594 291.472656 84.226562 L 312.117188 75.066406 L 336.449219 99.378906 L 327.28125 120.003906 C 333.335938 129.824219 337.785156 140.539062 340.457031 151.757812 L 361.519531 159.859375 L 361.519531 194.246094 L 340.449219 202.351562 C 337.777344 213.566406 333.328125 224.28125 327.28125 234.097656 L 333.097656 247.1875 L 340.253906 247.1875 C 346.949219 247.1875 352.382812 252.613281 352.382812 259.308594 L 352.382812 483.902344 C 361.386719 488.367188 367.574219 497.648438 367.574219 508.371094 C 367.574219 523.449219 355.34375 535.675781 340.253906 535.675781 C 325.164062 535.675781 312.933594 523.449219 312.933594 508.371094 C 312.933594 497.644531 319.121094 488.367188 328.125 483.902344 L 328.125 271.425781 L 319.738281 271.425781 L 312.117188 279.039062 L 294.960938 271.425781 L 288.886719 271.425781 C 283.050781 274.800781 276.914062 277.621094 270.566406 279.855469 L 272.007812 279.855469 C 278.707031 279.855469 284.136719 285.28125 284.136719 291.972656 L 284.136719 378.9375 C 293.140625 383.402344 299.332031 392.683594 299.332031 403.40625 C 299.332031 418.484375 287.097656 430.710938 272.007812 430.710938 C 256.921875 430.710938 244.6875 418.484375 244.6875 403.40625 C 244.6875 392.683594 250.878906 383.402344 259.882812 378.9375 L 259.882812 304.09375 C 245.648438 304.09375 231.417969 304.09375 217.1875 304.09375 L 209.078125 283.042969 C 197.851562 280.371094 187.132812 275.925781 177.308594 269.878906 L 156.664062 279.042969 L 132.332031 254.730469 L 141.496094 234.105469 C 135.445312 224.285156 130.996094 213.570312 128.324219 202.351562 L 107.261719 194.246094 L 107.261719 159.859375 L 128.324219 151.757812 C 130.996094 140.539062 135.445312 129.828125 141.496094 120.007812 L 132.328125 99.382812 L 156.660156 75.066406 L 177.304688 84.230469 C 187.128906 78.183594 197.851562 73.738281 209.074219 71.066406 L 217.183594 50.015625 L 251.59375 50.015625 Z M 234.390625 111.84375 C 198.347656 111.84375 169.136719 141.035156 169.136719 177.054688 C 169.136719 213.070312 198.347656 242.261719 234.390625 242.261719 C 270.433594 242.261719 299.644531 213.070312 299.644531 177.054688 C 299.644531 141.035156 270.433594 111.84375 234.390625 111.84375 Z M 577.96875 44.832031 C 577.96875 51.523438 572.539062 56.949219 565.839844 56.949219 C 559.144531 56.949219 553.714844 51.523438 553.714844 44.832031 L 553.714844 23.226562 C 553.714844 16.535156 559.144531 11.109375 565.839844 11.109375 C 572.539062 11.109375 577.96875 16.535156 577.96875 23.226562 Z M 645.53125 69.375 L 656.339844 50.667969 C 659.660156 44.890625 657.667969 37.515625 651.886719 34.195312 C 646.101562 30.871094 638.722656 32.867188 635.398438 38.644531 L 624.589844 57.351562 C 621.265625 63.128906 623.261719 70.507812 629.042969 73.828125 C 634.824219 77.148438 642.207031 75.15625 645.53125 69.375 Z M 691.796875 124.464844 C 686.011719 127.8125 678.609375 125.839844 675.261719 120.0625 C 671.914062 114.285156 673.886719 106.886719 679.667969 103.539062 L 698.386719 92.738281 C 704.171875 89.390625 711.574219 91.363281 714.921875 97.140625 C 718.269531 102.917969 716.296875 110.316406 710.515625 113.664062 Z M 452.015625 103.539062 L 433.292969 92.738281 C 427.511719 89.390625 420.109375 91.363281 416.757812 97.140625 C 413.410156 102.917969 415.382812 110.316406 421.164062 113.660156 L 439.886719 124.460938 C 445.667969 127.808594 453.070312 125.839844 456.417969 120.058594 C 459.769531 114.28125 457.796875 106.886719 452.015625 103.539062 Z M 507.09375 57.304688 L 496.28125 38.597656 C 492.933594 32.820312 485.53125 30.847656 479.75 34.195312 C 473.96875 37.542969 471.996094 44.9375 475.34375 50.71875 L 486.152344 69.425781 C 489.5 75.203125 496.90625 77.175781 502.6875 73.828125 C 508.46875 70.480469 510.441406 63.082031 507.09375 57.304688 Z M 470.640625 712.035156 L 653.421875 713.636719 C 655.328125 713.917969 656.828125 715.648438 656.8125 717.582031 C 656.707031 729.324219 656.585938 741.332031 656.472656 753.152344 C 656.191406 755.054688 654.460938 756.558594 652.527344 756.542969 L 470.257812 754.976562 C 468.136719 754.960938 466.339844 753.109375 466.355469 750.992188 L 466.699219 715.421875 C 466.976562 713.519531 468.707031 712.019531 470.640625 712.035156 Z M 504.4375 688.179688 L 504.300781 596.898438 C 504.238281 556.660156 511.410156 550.246094 540.222656 525.976562 C 560.617188 508.804688 586.539062 486.96875 608.011719 461.769531 C 615.621094 455.304688 626.953125 454.421875 634.324219 461.789062 C 642.578125 470.039062 640.707031 479.074219 634.203125 487.777344 C 618.050781 506.066406 600.050781 522.378906 582.824219 539.589844 C 578.089844 544.324219 578.089844 551.996094 582.824219 556.726562 C 587.5625 561.460938 595.238281 561.460938 599.972656 556.726562 C 621.09375 535.621094 643.054688 515.664062 661.960938 492.40625 C 674.75 476.671875 681.675781 458.949219 681.601562 438.574219 L 681.121094 312.707031 C 681.0625 296.980469 683.476562 257.519531 706.394531 256.792969 C 716.289062 256.476562 729.089844 264.953125 729.382812 275.320312 L 735.953125 507.023438 C 736.476562 525.523438 730.039062 539.855469 717.320312 553.035156 L 612.417969 657.816406 C 609.785156 660.449219 608.617188 663.992188 608.914062 667.433594 L 608.914062 689.074219 Z M 497.65625 737.679688 C 499.878906 732.085938 497.148438 725.75 491.554688 723.527344 C 485.957031 721.304688 479.617188 724.035156 477.394531 729.628906 C 475.167969 735.21875 477.902344 741.554688 483.496094 743.777344 C 489.09375 746 495.433594 743.269531 497.65625 737.679688 Z M 264.027344 685.109375 L 264.167969 593.832031 C 264.226562 554.808594 257.519531 547.566406 228.242188 522.910156 C 207.851562 505.734375 181.929688 483.902344 160.457031 458.703125 C 152.847656 452.234375 141.515625 451.355469 134.144531 458.71875 C 125.886719 466.96875 127.28125 476.382812 134.265625 484.707031 C 149.949219 503.398438 168.417969 519.308594 185.644531 536.519531 C 190.378906 541.253906 190.378906 548.925781 185.644531 553.65625 C 180.90625 558.390625 173.226562 558.390625 168.492188 553.65625 C 147.371094 532.554688 125.414062 512.59375 106.503906 489.339844 C 93.71875 473.605469 86.789062 455.882812 86.863281 435.507812 L 87.34375 309.640625 C 87.402344 293.914062 84.988281 254.453125 62.070312 253.726562 C 52.175781 253.410156 39.371094 261.886719 39.078125 272.253906 L 32.507812 503.957031 C 31.988281 522.453125 38.425781 536.789062 51.144531 549.96875 L 156.042969 654.75 C 158.679688 657.382812 159.847656 660.925781 159.550781 664.367188 L 159.550781 686.007812 Z M 270.808594 734.609375 C 268.585938 729.015625 271.316406 722.679688 276.914062 720.457031 C 282.507812 718.234375 288.847656 720.964844 291.074219 726.558594 C 293.296875 732.148438 290.566406 738.484375 284.96875 740.707031 C 279.375 742.929688 273.035156 740.199219 270.808594 734.609375 Z M 270.808594 734.609375 " fill-opacity="1" fill-rule="evenodd"/></g></svg>