<svg xmlns="http://www.w3.org/2000/svg" xmlns:xlink="http://www.w3.org/1999/xlink" width="500" zoomAndPan="magnify" viewBox="0 0 375 374.999991" height="500" preserveAspectRatio="xMidYMid meet" version="1.0"><path fill="#ffffff" d="M 173.960938 16.21875 C 182.804688 11.207031 194.082031 11.1875 202.707031 16.21875 L 334.769531 90.664062 C 343.03125 95.308594 348.558594 104.519531 348.480469 114.039062 L 348.480469 263.304688 C 348.539062 273.222656 342.46875 282.632812 333.753906 287.1875 L 202.398438 361.292969 C 201.28125 361.910156 200.125 362.449219 198.9375 362.914062 C 197.746094 363.378906 196.53125 363.761719 195.289062 364.0625 C 194.046875 364.367188 192.789062 364.582031 191.519531 364.71875 C 190.25 364.851562 188.976562 364.902344 187.699219 364.867188 C 186.421875 364.832031 185.152344 364.710938 183.890625 364.507812 C 182.628906 364.304688 181.386719 364.015625 180.164062 363.644531 C 178.941406 363.273438 177.75 362.824219 176.585938 362.296875 C 175.425781 361.765625 174.300781 361.164062 173.21875 360.484375 L 133.800781 337.707031 C 131.113281 336.105469 128.097656 334.832031 126.195312 332.234375 C 127.875 329.980469 130.859375 329.691406 133.292969 328.695312 C 138.777344 326.949219 143.796875 324.273438 148.839844 321.441406 C 150.109375 320.558594 151.667969 320.890625 152.886719 321.6875 L 186.5 341.125 C 188.898438 342.507812 191.332031 340.679688 193.386719 339.519531 L 322.367188 266.734375 C 323.957031 265.960938 324.84375 264.277344 324.710938 262.53125 L 324.710938 114.703125 C 324.886719 112.710938 323.746094 110.898438 321.945312 110.089844 L 190.921875 36.308594 C 190.542969 36.046875 190.136719 35.847656 189.699219 35.710938 C 189.261719 35.574219 188.8125 35.503906 188.351562 35.503906 C 187.894531 35.503906 187.445312 35.570312 187.007812 35.703125 C 186.566406 35.839844 186.160156 36.039062 185.78125 36.296875 L 54.945312 110.234375 C 53.175781 111.042969 51.957031 112.832031 52.179688 114.824219 L 52.179688 262.652344 C 52.023438 264.398438 52.953125 266.046875 54.558594 266.800781 L 89.519531 286.535156 C 96.085938 290.074219 104.148438 292.066406 111.378906 289.464844 C 112.164062 289.167969 112.925781 288.816406 113.65625 288.402344 C 114.390625 287.992188 115.085938 287.527344 115.75 287.007812 C 116.410156 286.492188 117.03125 285.925781 117.605469 285.3125 C 118.183594 284.703125 118.707031 284.050781 119.1875 283.359375 C 119.664062 282.664062 120.085938 281.941406 120.453125 281.183594 C 120.816406 280.429688 121.125 279.648438 121.375 278.847656 C 121.621094 278.042969 121.808594 277.226562 121.933594 276.394531 C 122.058594 275.5625 122.117188 274.726562 122.113281 273.886719 L 122.148438 126.941406 C 121.992188 124.761719 124.050781 122.960938 126.160156 123.183594 L 142.96875 123.183594 C 145.179688 123.125 146.914062 125.46875 146.617188 127.660156 L 146.582031 275.535156 C 146.59375 288.671875 141.199219 302.957031 129.046875 309.402344 C 114.074219 317.140625 95.566406 315.515625 80.773438 308.074219 L 43.179688 287.289062 C 34.332031 282.863281 28.394531 273.3125 28.453125 263.40625 L 28.453125 114.136719 C 28.460938 112.929688 28.550781 111.726562 28.71875 110.53125 C 28.886719 109.335938 29.136719 108.15625 29.460938 106.996094 C 29.789062 105.832031 30.191406 104.695312 30.667969 103.585938 C 31.144531 102.480469 31.695312 101.40625 32.316406 100.371094 C 32.933594 99.335938 33.621094 98.34375 34.375 97.398438 C 35.125 96.453125 35.9375 95.5625 36.808594 94.726562 C 37.679688 93.890625 38.601562 93.117188 39.574219 92.402344 C 40.550781 91.6875 41.566406 91.042969 42.625 90.464844 Z M 212.039062 119.6875 C 231.136719 118.582031 251.578125 118.957031 268.761719 128.367188 C 282.0625 135.578125 289.4375 150.703125 289.679688 165.496094 C 289.304688 167.488281 287.226562 168.59375 285.324219 168.449219 C 279.796875 168.4375 274.246094 168.527344 268.695312 168.414062 C 266.339844 168.503906 264.980469 166.335938 264.683594 164.257812 C 263.089844 157.183594 259.230469 150.183594 252.574219 146.765625 C 242.359375 141.648438 230.503906 141.902344 219.359375 142.011719 C 211.222656 142.453125 202.476562 143.152344 195.585938 147.925781 C 190.28125 151.554688 188.6875 158.984375 190.578125 164.753906 C 192.347656 168.992188 197.246094 170.351562 201.238281 171.609375 C 224.257812 177.625 248.636719 177.140625 271.226562 184.957031 C 280.570312 188.183594 289.714844 194.464844 292.921875 204.25 C 297.101562 217.363281 295.277344 233.042969 285.957031 243.570312 C 278.390625 252.238281 267.378906 256.835938 256.378906 259.511719 C 241.75 262.773438 226.578125 262.851562 211.730469 261.394531 C 197.765625 259.800781 183.238281 256.128906 172.457031 246.621094 C 163.234375 238.617188 158.746094 226.144531 159.1875 214.113281 C 159.296875 212.078125 161.320312 210.664062 163.277344 210.828125 L 179.863281 210.828125 C 182.097656 210.675781 183.734375 212.597656 183.84375 214.699219 C 184.875 221.332031 187.40625 228.519531 193.289062 232.390625 C 204.632812 239.710938 218.863281 239.203125 231.84375 239.410156 C 242.601562 238.9375 254.675781 238.792969 263.464844 231.671875 C 268.109375 227.613281 269.46875 220.835938 268.21875 215 C 266.859375 210.066406 261.585938 207.777344 257.164062 206.152344 C 234.441406 198.964844 209.785156 201.574219 187.285156 193.4375 C 178.152344 190.207031 169.316406 184.105469 165.8125 174.71875 C 160.914062 161.449219 163.15625 145.007812 173.472656 134.835938 C 183.425781 124.71875 198.019531 120.816406 211.839844 119.421875 Z M 212.039062 119.6875 " fill-opacity="1" fill-rule="nonzero"/></svg>