<svg xmlns="http://www.w3.org/2000/svg" xmlns:xlink="http://www.w3.org/1999/xlink" width="1024" zoomAndPan="magnify" viewBox="0 0 768 767.999994" height="1024" preserveAspectRatio="xMidYMid meet" version="1.0"><path fill="#ffffff" d="M 544.167969 638.035156 L 77.980469 638.035156 C 58.921875 638.035156 41.921875 628.324219 32.511719 612.042969 C 23.308594 596.148438 23.277344 577.179688 32.449219 561.253906 L 265.574219 156.269531 C 274.953125 139.925781 291.984375 130.15625 311.074219 130.15625 C 330.164062 130.15625 347.195312 139.898438 356.605469 156.269531 L 589.699219 561.253906 C 598.871094 577.148438 598.839844 596.148438 589.667969 612.011719 C 580.226562 628.324219 563.226562 638.035156 544.167969 638.035156 Z M 311.074219 174.96875 C 309.371094 174.96875 306.203125 175.449219 304.410156 178.613281 L 71.289062 583.601562 C 70.152344 585.574219 70.152344 587.605469 71.289062 589.578125 C 71.945312 590.683594 73.859375 593.222656 77.980469 593.222656 L 544.167969 593.222656 C 548.289062 593.222656 550.230469 590.683594 550.859375 589.578125 C 551.996094 587.605469 551.996094 585.574219 550.859375 583.601562 L 317.765625 178.613281 C 315.945312 175.449219 312.777344 174.96875 311.074219 174.96875 Z M 311.074219 174.96875 " fill-opacity="1" fill-rule="nonzero"/><path fill="#ffffff" d="M 693.636719 638.035156 L 279.257812 638.035156 C 261.539062 638.035156 245.167969 628.683594 236.503906 613.597656 C 228.019531 598.835938 228.109375 581.242188 236.683594 566.542969 L 443.902344 212.132812 C 452.714844 197.046875 468.609375 188.027344 486.417969 188.027344 C 504.222656 188.027344 520.117188 197.046875 528.960938 212.132812 L 736.148438 566.511719 C 744.753906 581.210938 744.84375 598.777344 736.359375 613.535156 C 727.726562 628.683594 711.351562 638.035156 693.636719 638.035156 Z M 486.445312 232.867188 C 485.429688 232.867188 483.578125 233.105469 482.59375 234.75 L 275.371094 589.15625 C 275.789062 591.996094 276.835938 593.222656 279.257812 593.222656 L 693.636719 593.222656 C 696.058594 593.222656 697.101562 591.996094 697.519531 591.277344 L 490.300781 234.78125 C 489.34375 233.078125 487.460938 232.867188 486.445312 232.867188 Z M 486.445312 232.867188 " fill-opacity="1" fill-rule="nonzero"/></svg>