<svg xmlns="http://www.w3.org/2000/svg" xmlns:xlink="http://www.w3.org/1999/xlink" width="1024" zoomAndPan="magnify" viewBox="0 0 768 767.999994" height="1024" preserveAspectRatio="xMidYMid meet" version="1.0"><defs><clipPath id="e6c6fc5240"><path d="M 11.484375 399 L 756.234375 399 L 756.234375 713.425781 L 11.484375 713.425781 Z M 11.484375 399 " clip-rule="nonzero"/></clipPath><clipPath id="dc5ff1dd82"><path d="M 11.484375 54 L 756.234375 54 L 756.234375 389 L 11.484375 389 Z M 11.484375 54 " clip-rule="nonzero"/></clipPath></defs><g clip-path="url(#e6c6fc5240)"><path fill="#f5f5f5" d="M 660.761719 436.539062 L 460.226562 436.539062 L 460.226562 532.007812 L 307.492188 532.007812 L 307.492188 436.539062 L 106.957031 436.539062 C 70.261719 436.539062 36.875 422.523438 11.484375 399.777344 L 11.484375 617.957031 C 11.484375 670.453125 54.460938 713.425781 106.957031 713.425781 L 660.761719 713.425781 C 713.257812 713.425781 756.234375 670.453125 756.234375 617.957031 L 756.234375 399.777344 C 730.84375 422.523438 697.457031 436.539062 660.761719 436.539062 " fill-opacity="1" fill-rule="nonzero"/></g><g clip-path="url(#dc5ff1dd82)"><path fill="#f5f5f5" d="M 317.015625 150.128906 C 317.015625 134.59375 330.171875 121.4375 345.644531 121.4375 L 422.074219 121.4375 C 437.546875 121.4375 450.703125 134.59375 450.703125 150.128906 L 450.703125 178.757812 L 317.015625 178.757812 Z M 106.957031 388.804688 L 660.761719 388.804688 C 713.257812 388.804688 756.234375 345.828125 756.234375 293.332031 L 756.234375 178.757812 L 517.550781 178.757812 L 517.550781 150.128906 C 517.550781 97.570312 474.574219 54.59375 422.074219 54.59375 L 345.644531 54.59375 C 293.144531 54.59375 250.167969 97.570312 250.167969 150.128906 L 250.167969 178.757812 L 11.484375 178.757812 L 11.484375 293.332031 C 11.484375 345.828125 54.460938 388.804688 106.957031 388.804688 " fill-opacity="1" fill-rule="nonzero"/></g></svg>