<svg xmlns="http://www.w3.org/2000/svg" xmlns:xlink="http://www.w3.org/1999/xlink" width="500" zoomAndPan="magnify" viewBox="0 0 375 374.999991" height="500" preserveAspectRatio="xMidYMid meet" version="1.0"><defs><clipPath id="1986e2e8eb"><path d="M 19 11.496094 L 357 11.496094 L 357 364 L 19 364 Z M 19 11.496094 " clip-rule="nonzero"/></clipPath></defs><path fill="#ffffff" d="M 334.238281 230.273438 C 334.238281 230.292969 334.226562 230.304688 334.207031 230.304688 C 334.1875 230.304688 334.179688 230.292969 334.179688 230.273438 C 334.179688 230.253906 334.1875 230.246094 334.207031 230.246094 C 334.226562 230.246094 334.238281 230.253906 334.238281 230.273438 Z M 334.238281 230.273438 " fill-opacity="1" fill-rule="nonzero"/><path fill="#ffffff" d="M 290.765625 227.488281 L 290.796875 227.515625 L 290.796875 227.53125 L 290.75 227.546875 C 288.625 228.324219 286.863281 228.644531 285.382812 229.304688 C 283.871094 229.90625 282.65625 231.007812 281.9375 232.414062 L 281.921875 232.445312 C 281.011719 234.132812 280.21875 237.125 280.457031 242.210938 C 281.054688 242.652344 281.789062 242.988281 282.539062 243.226562 L 282.597656 243.238281 C 285.074219 244.003906 289.226562 244.5 293.859375 244.425781 C 303.101562 244.324219 314.480469 242.140625 320.523438 239.292969 C 325.730469 236.816406 330.1875 233.824219 334.164062 230.273438 C 313.984375 234.5 302.585938 233.367188 295.589844 230.449219 C 293.773438 229.660156 292.171875 228.675781 290.765625 227.488281 Z M 290.765625 227.488281 " fill-opacity="1" fill-rule="nonzero"/><path fill="#ffffff" d="M 270.070312 72.375 L 270.160156 72.507812 L 270.261719 72.625 Z M 270.070312 72.375 " fill-opacity="1" fill-rule="nonzero"/><path fill="#ffffff" d="M 192.882812 294.542969 C 192.867188 294.175781 192.882812 293.792969 192.867188 293.425781 C 192.867188 293.28125 192.851562 293.179688 192.851562 293.03125 Z M 192.882812 294.542969 " fill-opacity="1" fill-rule="nonzero"/><path fill="#ffffff" d="M 177.410156 229.820312 C 176.558594 229.394531 175.5625 229.085938 174.492188 228.941406 L 174.445312 228.941406 L 174.445312 228.910156 L 174.140625 228.910156 C 173.375 228.984375 172.261719 229.246094 170.089844 231.667969 C 165.046875 237.386719 163.285156 240.980469 159.121094 244.339844 C 154.957031 247.683594 149.558594 249.472656 138.761719 251.714844 C 135.347656 252.421875 133.382812 253.199219 132.089844 253.828125 C 132.515625 254.179688 132.472656 254.269531 133.101562 254.605469 C 134.6875 255.484375 136.710938 256.261719 138.351562 256.6875 C 142.988281 257.863281 150.613281 259.226562 158.5625 257.863281 C 166.511719 256.484375 174.785156 252.625 181.839844 242.609375 C 183.054688 240.878906 183.1875 238.324219 182.191406 235.582031 C 181.195312 232.839844 178.964844 230.480469 177.410156 229.820312 Z M 177.410156 229.820312 " fill-opacity="1" fill-rule="nonzero"/><path fill="#ffffff" d="M 236.632812 33.523438 L 235.796875 33.6875 C 236.074219 33.628906 236.382812 33.597656 236.660156 33.539062 C 236.648438 33.539062 236.648438 33.523438 236.632812 33.523438 Z M 236.632812 33.523438 " fill-opacity="1" fill-rule="nonzero"/><path fill="#ffffff" d="M 277.433594 112.695312 C 267.59375 112.824219 262.078125 115.394531 259.175781 118.75 C 255.066406 123.519531 254.6875 131.878906 257.238281 142.171875 C 259.777344 152.484375 265.011719 164.011719 269.941406 173.589844 C 272.402344 178.382812 274.792969 182.695312 276.714844 186.203125 C 278.652344 189.722656 280.074219 192.214844 280.9375 194.339844 C 281.730469 196.308594 282.625 198.039062 283.519531 199.652344 C 287.332031 191.511719 288.007812 183.519531 287.628906 175.1875 C 287.128906 164.878906 284.753906 154.332031 285.105469 143.65625 C 285.5 131.171875 287.933594 123.046875 288.140625 113.398438 C 284.929688 112.957031 281.203125 112.695312 277.433594 112.695312 Z M 279.253906 120.117188 L 279.238281 120.234375 C 279.238281 120.277344 279.238281 120.320312 279.238281 120.378906 C 279.238281 121.054688 279.046875 121.699219 278.710938 122.226562 L 278.726562 122.210938 C 278.269531 123.046875 277.742188 123.78125 277.125 124.414062 C 275.6875 126.011719 273.765625 127.125 271.597656 127.507812 L 271.539062 127.523438 C 271.230469 127.566406 270.878906 127.582031 270.511719 127.582031 C 268.664062 127.582031 266.960938 126.992188 265.570312 125.996094 L 265.597656 126.011719 C 264.878906 125.511719 264.25 124.941406 263.734375 124.296875 L 263.722656 124.28125 C 263.265625 123.78125 262.945312 123.136719 262.8125 122.449219 L 262.8125 122.417969 C 262.8125 122.34375 262.796875 122.269531 262.796875 122.199219 C 262.796875 121.566406 263.03125 120.980469 263.425781 120.539062 C 263.898438 119.996094 264.453125 119.558594 265.097656 119.234375 L 265.128906 119.21875 C 266.523438 118.429688 268.398438 117.84375 270.527344 117.519531 C 271.316406 117.402344 272.109375 117.34375 272.84375 117.328125 L 272.84375 117.371094 L 273.5625 117.371094 C 274.515625 117.402344 275.394531 117.503906 276.171875 117.695312 C 276.949219 117.871094 277.625 118.136719 278.167969 118.503906 C 278.710938 118.867188 279.121094 119.425781 279.253906 120.117188 Z M 279.253906 120.117188 " fill-opacity="1" fill-rule="nonzero"/><path fill="#ffffff" d="M 116.03125 177.328125 C 116.03125 174.6875 116.234375 172.109375 116.617188 169.570312 L 116.589844 169.847656 C 118.085938 159.011719 118.289062 148.875 118.113281 140.867188 C 117.9375 133.066406 117.378906 127.875 117.378906 124.632812 C 117.378906 124.589844 117.378906 124.542969 117.378906 124.5 C 117.378906 124.457031 117.378906 124.398438 117.378906 124.355469 L 117.378906 124.28125 L 117.367188 124.191406 L 117.367188 124.179688 C 117.367188 124.148438 117.367188 124.132812 117.367188 124.105469 C 117.367188 106.738281 120.414062 90.09375 125.945312 74.648438 C 130.007812 63.738281 136.050781 52.664062 145.097656 43.6875 C 136.195312 40.726562 120.414062 36.210938 103.316406 35.359375 C 101.671875 35.269531 99.75 35.210938 97.828125 35.210938 L 97.816406 35.210938 L 97.816406 35.226562 C 95.980469 35.226562 94.132812 35.285156 92.316406 35.386719 C 77.679688 36.238281 63.832031 40.535156 53.949219 51.152344 C 44.035156 61.773438 37.507812 79.179688 38.929688 108 C 39.207031 113.457031 41.554688 128.738281 45.574219 146.894531 C 49.605469 165.054688 55.28125 186.421875 62.117188 205.296875 C 68.964844 224.171875 77.269531 240.597656 85.15625 248.371094 C 89.132812 252.257812 92.578125 253.828125 95.703125 253.695312 C 98.839844 253.550781 102.625 251.714844 107.246094 246.097656 C 116.324219 235.039062 124.902344 225.257812 133.761719 215.753906 L 133.46875 216.0625 C 122.761719 206.601562 116.03125 192.773438 116.03125 177.328125 Z M 116.03125 177.328125 " fill-opacity="1" fill-rule="nonzero"/><path fill="#ffffff" d="M 194.042969 34.492188 L 194.042969 34.464844 C 176.910156 34.507812 164.636719 39.742188 155.308594 47.589844 C 145.699219 55.699219 139.261719 66.804688 135.023438 78.167969 C 129.992188 91.664062 128.277344 104.714844 127.585938 113.574219 L 127.777344 113.457031 C 132.957031 110.523438 139.746094 107.589844 147.019531 105.890625 C 154.296875 104.1875 162.128906 103.675781 169.226562 106.460938 C 176.324219 109.246094 182.191406 115.804688 184.316406 125.746094 C 194.511719 173.515625 181.148438 191.277344 176.222656 204.679688 C 174.652344 208.539062 173.023438 213.496094 171.660156 218.554688 L 171.425781 219.539062 C 172.042969 219.390625 172.671875 219.214844 173.289062 219.15625 C 176.765625 218.863281 179.492188 220.039062 181.105469 220.742188 C 186.0625 222.824219 189.464844 227.195312 191.296875 232.179688 C 191.78125 233.484375 192.121094 234.894531 192.324219 236.347656 C 192.515625 236.84375 192.617188 237.429688 192.617188 238.03125 C 192.617188 238.089844 192.617188 238.148438 192.617188 238.207031 C 192.382812 245.542969 192.238281 254.152344 192.238281 262.804688 C 192.238281 273.054688 192.441406 283.265625 192.824219 293.425781 C 193.160156 301.140625 193.644531 307.976562 194.246094 313.359375 C 194.878906 318.84375 195.757812 322.996094 196.3125 324.402344 C 198.164062 329.097656 200.875 335.242188 205.773438 339.421875 C 210.671875 343.585938 217.699219 346.375 230.53125 343.585938 C 241.664062 341.167969 248.527344 337.808594 253.117188 332.984375 C 257.707031 328.15625 260.4375 321.441406 262.179688 311.160156 C 264.804688 295.757812 270.070312 251.101562 270.71875 242.695312 C 270.421875 236.359375 271.347656 231.492188 273.355469 227.78125 C 275.410156 223.96875 278.605469 221.636719 281.351562 220.375 C 282.730469 219.742188 284.019531 219.320312 285.074219 219.011719 C 283.785156 217.148438 282.625 215.59375 281.421875 214.082031 L 281.554688 214.242188 C 277.757812 209.609375 274.515625 204.285156 272.066406 198.550781 L 271.90625 198.125 C 270.421875 195.058594 269.175781 192.742188 267.871094 190.46875 L 268.179688 191.042969 C 266.257812 187.523438 263.824219 183.121094 261.273438 178.179688 C 256.167969 168.28125 250.625 156.28125 247.734375 144.59375 C 244.859375 132.917969 244.449219 120.832031 251.8125 112.3125 C 258.324219 104.746094 269.777344 101.605469 286.953125 103.367188 C 286.453125 101.828125 286.144531 100.550781 285.28125 98.496094 C 281.101562 88.671875 276.070312 80.195312 270.101562 72.507812 C 255.539062 53.707031 231.996094 35.09375 195.65625 34.492188 Z M 194.042969 34.492188 " fill-opacity="1" fill-rule="nonzero"/><path fill="#ffffff" d="M 127.382812 125.453125 L 127.410156 125.4375 L 127.457031 125.394531 Z M 127.382812 125.453125 " fill-opacity="1" fill-rule="nonzero"/><path fill="#ffffff" d="M 148.941406 115.523438 L 149.089844 115.511719 L 149.207031 115.464844 Z M 148.941406 115.523438 " fill-opacity="1" fill-rule="nonzero"/><path fill="#ffffff" d="M 167.113281 201.234375 C 172.996094 185.191406 184.566406 173.484375 174.828125 127.816406 C 173.230469 120.335938 170.078125 117.3125 165.734375 115.613281 C 163.625 114.835938 161.171875 114.378906 158.605469 114.378906 C 158.445312 114.378906 158.269531 114.378906 158.109375 114.378906 L 158.136719 114.378906 C 155.015625 114.410156 151.992188 114.804688 149.089844 115.511719 C 142.929688 117.066406 137.503906 119.265625 132.457031 122.082031 C 130.566406 123.121094 128.9375 124.207031 127.410156 125.425781 L 127.132812 125.6875 C 127.222656 127.828125 127.632812 133.023438 127.808594 140.664062 C 127.984375 149.023438 127.777344 159.683594 126.179688 171.226562 C 122.71875 196.308594 140.699219 217.074219 161.820312 217.105469 C 163.066406 211.957031 165.089844 206.734375 167.113281 201.234375 Z M 154.632812 128.359375 C 153.941406 127.652344 153.386719 126.863281 152.929688 125.996094 L 152.902344 125.9375 C 152.519531 125.320312 152.300781 124.574219 152.300781 123.765625 C 152.300781 123.621094 152.316406 123.472656 152.328125 123.328125 L 152.328125 123.34375 C 152.550781 121.757812 153.839844 120.9375 155.085938 120.480469 C 156.246094 120.101562 157.535156 119.878906 158.914062 119.878906 C 159.121094 119.878906 159.324219 119.878906 159.558594 119.894531 L 159.546875 119.835938 C 160.308594 119.835938 161.128906 119.910156 161.949219 120.027344 C 164.164062 120.335938 166.144531 120.9375 167.640625 121.816406 C 168.390625 122.226562 169.035156 122.742188 169.546875 123.355469 L 169.5625 123.371094 C 170.0625 123.941406 170.355469 124.691406 170.355469 125.527344 C 170.355469 125.644531 170.355469 125.761719 170.339844 125.878906 L 170.339844 125.863281 C 170.195312 126.746094 169.796875 127.507812 169.253906 128.125 C 168.652344 128.855469 167.980469 129.488281 167.214844 130.015625 L 167.1875 130.03125 C 165.707031 131.113281 163.84375 131.761719 161.832031 131.761719 C 161.4375 131.761719 161.042969 131.730469 160.660156 131.6875 L 160.703125 131.6875 C 158.269531 131.277344 156.1875 130.074219 154.632812 128.359375 Z M 154.632812 128.359375 " fill-opacity="1" fill-rule="nonzero"/><path fill="#ffffff" d="M 132.164062 122.226562 C 132.265625 122.167969 132.367188 122.140625 132.457031 122.082031 C 132.472656 122.082031 132.488281 122.066406 132.5 122.050781 Z M 132.164062 122.226562 " fill-opacity="1" fill-rule="nonzero"/><path fill="#ffffff" d="M 277.917969 66.523438 C 284.269531 74.664062 289.769531 83.933594 294.007812 93.878906 L 294.316406 94.683594 C 295.914062 98.554688 296.984375 101.828125 297.585938 104.363281 C 297.894531 105.640625 298.097656 106.710938 298.171875 107.824219 C 298.203125 108.382812 298.230469 108.953125 297.996094 109.9375 C 297.996094 109.980469 297.921875 110.082031 297.910156 110.128906 C 298.347656 122.976562 295.195312 131.6875 294.828125 143.949219 C 294.535156 152.835938 296.777344 163.277344 297.335938 174.675781 C 297.863281 185.378906 296.589844 197.144531 289.710938 208.683594 C 290.296875 209.390625 290.808594 210.09375 291.367188 210.796875 C 309.539062 181.832031 322.636719 149.785156 329.617188 122.460938 C 333.355469 107.75 335.335938 94.417969 335.511719 83.859375 C 335.660156 73.300781 333.707031 65.644531 331.246094 62.445312 C 311.796875 37.28125 285.5 30.871094 263.441406 30.695312 L 263.441406 30.710938 L 261.332031 30.710938 C 252.824219 30.839844 244.609375 31.824219 236.675781 33.539062 C 254.6875 41.636719 268.328125 54.101562 277.917969 66.523438 Z M 277.917969 66.523438 " fill-opacity="1" fill-rule="nonzero"/><g clip-path="url(#1986e2e8eb)"><path fill="#ffffff" d="M 196.460938 15.28125 L 196.3125 15.28125 C 179.242188 14.988281 164.589844 19.179688 152.753906 26.164062 C 141.109375 22.070312 116.953125 15.015625 91.480469 16.425781 C 73.746094 17.40625 54.386719 22.863281 40.042969 38.1875 C 25.746094 53.515625 18.191406 77.230469 19.777344 109.496094 C 20.214844 118.398438 22.722656 132.917969 26.875 151.722656 C 31.039062 170.523438 36.875 192.539062 44.164062 212.617188 C 51.453125 232.707031 59.433594 250.75 71.914062 263.007812 C 78.148438 269.15625 86.726562 274.316406 96.832031 273.890625 C 103.929688 273.597656 110.339844 270.445312 115.882812 265.796875 C 118.582031 269.390625 121.457031 270.957031 124.082031 272.410156 C 127.382812 274.242188 130.59375 275.492188 133.921875 276.3125 C 139.90625 277.824219 150.144531 279.847656 162.140625 277.777344 C 166.234375 277.089844 170.53125 275.738281 174.8125 273.820312 C 174.976562 278.660156 175.164062 283.394531 175.339844 288.191406 C 175.941406 303.386719 176.308594 317.421875 180.8125 329.726562 C 181.53125 331.734375 183.523438 342.089844 191.34375 351.226562 C 199.160156 360.378906 214.5 366.085938 231.953125 362.300781 C 244.273438 359.632812 259.921875 354.820312 270.335938 339.832031 C 280.617188 325.019531 285.25 303.765625 286.175781 269.300781 C 286.410156 267.4375 286.6875 265.855469 286.96875 264.375 L 289.417969 264.59375 L 289.710938 264.59375 C 302.851562 265.195312 317.105469 263.304688 329.015625 257.699219 C 339.5625 252.757812 347.539062 247.757812 353.363281 238.882812 C 354.8125 236.683594 356.398438 234.027344 356.835938 229.453125 C 357.277344 224.878906 354.683594 217.71875 350.371094 214.421875 C 341.746094 207.789062 336.335938 210.3125 330.527344 211.53125 C 325.347656 212.746094 319.363281 213.511719 313.234375 213.671875 L 313.117188 213.671875 C 329.867188 185.117188 341.878906 154.785156 348.726562 127.945312 C 352.789062 112.109375 355.0625 97.5 355.238281 84.726562 C 355.429688 71.949219 354.402344 60.644531 346.835938 50.859375 C 323.207031 20.296875 289.988281 11.847656 264.277344 11.554688 C 263.484375 11.539062 262.679688 11.527344 261.886719 11.539062 L 261.886719 11.496094 C 247.894531 11.613281 234.433594 13.726562 221.6875 17.496094 L 221.085938 17.699219 C 213.722656 16.320312 205.171875 15.441406 196.460938 15.28125 Z M 231.207031 24.621094 C 240.179688 22.40625 250.507812 21.074219 261.125 20.941406 L 261.214844 20.941406 L 261.226562 20.882812 C 285.542969 20.648438 316.59375 27.554688 338.902344 56.40625 C 343.917969 62.886719 345.414062 72.363281 345.238281 84.035156 C 345.046875 95.695312 342.917969 109.660156 339.019531 124.957031 C 331.449219 154.582031 317.164062 189.121094 297.042969 220.109375 C 297.703125 220.59375 298.464844 221.019531 299.257812 221.34375 L 299.332031 221.371094 C 303.527344 223.132812 313.101562 224.640625 332.210938 220.667969 C 337.023438 219.640625 340.542969 218.953125 344.195312 221.769531 C 345.835938 223.175781 346.863281 225.257812 346.863281 227.589844 C 346.863281 227.738281 346.863281 227.882812 346.851562 228.03125 L 346.851562 228.015625 C 346.628906 229.878906 345.96875 231.550781 344.957031 232.945312 C 341.261719 238.5625 333.972656 243.882812 324.644531 248.269531 C 316.375 252.171875 304.507812 254.210938 293.992188 254.328125 C 288.710938 254.386719 283.859375 253.976562 279.722656 252.667969 L 279.457031 252.566406 C 277.859375 268.113281 274.191406 298.808594 271.800781 312.816406 C 269.894531 324.109375 266.550781 333.085938 260.15625 339.800781 C 253.777344 346.519531 244.757812 350.566406 232.613281 353.207031 C 217.582031 356.476562 206.609375 352.957031 199.539062 346.929688 C 192.488281 340.917969 189.261719 332.9375 187.308594 328.054688 C 185.972656 324.679688 185.285156 320.3125 184.609375 314.472656 C 183.9375 308.636719 183.453125 301.492188 183.113281 293.441406 C 182.792969 285.257812 182.617188 275.636719 182.617188 265.972656 C 182.617188 262.789062 182.644531 259.621094 182.675781 256.4375 C 176.617188 262.070312 168.960938 266.03125 160.457031 267.542969 L 160.191406 267.585938 C 150.203125 269.300781 141.300781 267.613281 135.976562 266.265625 C 133.144531 265.546875 130.683594 264.535156 128.363281 263.273438 C 125.929688 261.953125 123.613281 260.441406 122.058594 257.496094 C 121.441406 256.367188 121.074219 255 121.074219 253.566406 C 121.074219 252.992188 121.132812 252.421875 121.253906 251.890625 C 121.78125 249.925781 122.878906 248.253906 124.390625 247.082031 L 124.40625 247.066406 C 127.28125 244.707031 131.0625 243.386719 136.796875 242.183594 C 147.210938 240.011719 150.847656 238.53125 153.0625 236.757812 C 154.941406 235.230469 157.082031 232.152344 160.835938 227.632812 C 160.820312 227.503906 160.808594 227.28125 160.792969 227.078125 L 160.792969 227.03125 C 153.695312 226.828125 147.078125 224.90625 141.300781 221.664062 L 141.519531 221.78125 C 139.351562 224.101562 128.246094 235.980469 114.726562 252.464844 C 109.035156 259.359375 102.742188 263.316406 96.113281 263.597656 C 89.484375 263.875 83.484375 260.5 78.382812 255.5 C 68.1875 245.484375 60.0625 228.25 52.980469 208.773438 C 45.910156 189.296875 40.160156 167.605469 36.070312 149.125 C 31.964844 130.644531 29.558594 115.746094 29.207031 108.558594 C 27.679688 78.023438 34.734375 57.445312 46.835938 44.464844 C 58.949219 31.488281 75.550781 26.574219 91.730469 25.632812 C 120.78125 23.949219 148.355469 34.199219 153.941406 36.398438 C 164.707031 29.007812 178.566406 24.402344 195.859375 24.695312 C 204.570312 24.828125 212.945312 25.988281 220.953125 28.054688 L 220.21875 27.894531 L 220.515625 27.761719 C 223.316406 26.707031 226.894531 25.632812 230.558594 24.753906 Z M 231.207031 24.621094 " fill-opacity="1" fill-rule="nonzero"/></g></svg>