<svg xmlns="http://www.w3.org/2000/svg" xmlns:xlink="http://www.w3.org/1999/xlink" width="500" zoomAndPan="magnify" viewBox="0 0 375 374.999991" height="500" preserveAspectRatio="xMidYMid meet" version="1.0"><path fill="#ffffff" d="M 262.519531 25.433594 C 256.519531 25.230469 250.242188 26.277344 243.945312 28.316406 C 231.355469 32.398438 218.160156 40.355469 204.621094 51.367188 C 199.316406 55.683594 193.960938 60.617188 188.589844 65.851562 C 183.335938 60.75 178.089844 55.933594 172.902344 51.714844 C 159.375 40.710938 146.214844 32.765625 133.652344 28.695312 C 121.09375 24.621094 108.59375 24.496094 98.328125 30.421875 C 88.0625 36.347656 81.921875 47.226562 79.167969 60.144531 C 76.414062 73.058594 76.703125 88.4375 79.46875 105.65625 C 80.429688 111.636719 81.816406 117.914062 83.375 124.304688 C 77.511719 126.082031 71.816406 127.953125 66.53125 130.015625 C 50.589844 136.242188 37.398438 143.691406 27.796875 152.554688 C 18.191406 161.417969 11.988281 172.175781 11.988281 183.988281 C 11.988281 195.800781 18.191406 206.542969 27.796875 215.410156 C 37.398438 224.273438 50.589844 231.734375 66.53125 237.960938 C 72.179688 240.167969 78.296875 242.15625 84.609375 244.03125 C 82.339844 252.519531 80.5 260.75 79.246094 268.554688 C 76.476562 285.789062 76.183594 301.171875 78.945312 314.113281 C 81.703125 327.058594 87.847656 338 98.164062 343.957031 C 108.480469 349.914062 121.035156 349.765625 133.625 345.683594 C 146.214844 341.601562 159.394531 333.664062 172.933594 322.648438 C 178.191406 318.375 183.507812 313.496094 188.828125 308.316406 C 194.175781 313.523438 199.523438 318.429688 204.800781 322.726562 C 218.332031 333.730469 231.503906 341.671875 244.066406 345.746094 C 256.628906 349.816406 269.113281 349.945312 279.378906 344.015625 C 289.644531 338.089844 295.78125 327.210938 298.535156 314.296875 C 301.289062 301.378906 300.984375 286 298.21875 268.78125 C 296.960938 260.957031 295.121094 252.710938 292.839844 244.199219 C 299.363281 242.273438 305.671875 240.234375 311.488281 237.960938 C 327.429688 231.734375 340.621094 224.273438 350.226562 215.410156 C 359.832031 206.542969 366.03125 195.800781 366.03125 183.988281 C 366.03125 172.175781 359.832031 161.417969 350.226562 152.554688 C 340.621094 143.691406 327.429688 136.242188 311.488281 130.015625 C 306.128906 127.921875 300.347656 126.027344 294.386719 124.230469 C 295.960938 117.796875 297.359375 111.480469 298.324219 105.460938 C 301.09375 88.230469 301.386719 72.832031 298.625 59.886719 C 295.867188 46.945312 289.707031 36.015625 279.390625 30.0625 C 274.234375 27.082031 268.515625 25.636719 262.519531 25.433594 Z M 261.8125 41.089844 C 265.574219 41.191406 268.785156 42.089844 271.535156 43.675781 C 277.027344 46.847656 281.085938 53.019531 283.253906 63.179688 C 285.421875 73.339844 285.34375 87.0625 282.789062 102.984375 C 281.914062 108.433594 280.640625 114.210938 279.195312 120.128906 C 263.464844 116.339844 246.226562 113.53125 227.851562 111.878906 C 218.621094 99.089844 209.136719 87.457031 199.574219 77.121094 C 204.628906 72.1875 209.652344 67.574219 214.554688 63.585938 C 227.0625 53.410156 238.902344 46.488281 248.785156 43.285156 C 253.726562 41.683594 258.046875 40.988281 261.8125 41.089844 Z M 115.816406 41.136719 C 119.605469 41.03125 123.9375 41.722656 128.890625 43.328125 C 138.800781 46.542969 150.664062 53.460938 163.179688 63.644531 C 167.984375 67.550781 172.894531 72.066406 177.847656 76.882812 C 168.214844 87.296875 158.660156 99.054688 149.371094 111.953125 C 131.0625 113.636719 113.886719 116.472656 98.222656 120.277344 C 96.789062 114.386719 95.53125 108.636719 94.660156 103.207031 C 92.101562 87.277344 92.039062 73.53125 94.210938 63.34375 C 96.382812 53.15625 100.476562 46.949219 106.019531 43.75 C 108.792969 42.148438 112.03125 41.242188 115.816406 41.136719 Z M 188.828125 88.199219 C 195.097656 95.015625 201.367188 102.480469 207.582031 110.511719 C 201.472656 110.257812 195.289062 110.105469 189.011719 110.105469 C 182.605469 110.105469 176.304688 110.261719 170.078125 110.527344 C 176.296875 102.488281 182.5625 95.023438 188.828125 88.199219 Z M 189.011719 125.640625 C 199.472656 125.640625 209.667969 126.074219 219.589844 126.800781 C 226.414062 136.601562 233.082031 147 239.4375 158.007812 C 245.023438 167.679688 250.074219 177.335938 254.675781 186.875 C 250.027344 196.535156 244.886719 206.324219 239.226562 216.128906 C 234.246094 224.761719 229.039062 232.957031 223.75 240.863281 C 212.546875 241.800781 200.9375 242.320312 189.011719 242.320312 C 176.796875 242.320312 164.925781 241.769531 153.472656 240.789062 C 148.273438 232.996094 143.15625 224.910156 138.253906 216.414062 C 132.605469 206.632812 127.492188 196.878906 122.851562 187.234375 C 127.511719 177.535156 132.644531 167.714844 138.328125 157.875 C 144.648438 146.925781 151.300781 136.585938 158.085938 126.828125 C 168.113281 126.085938 178.425781 125.640625 189.011719 125.640625 Z M 239.40625 128.722656 C 252.085938 130.304688 263.988281 132.503906 275.066406 135.140625 C 271.777344 145.917969 267.726562 157.179688 262.820312 168.796875 C 259.632812 162.65625 256.332031 156.492188 252.765625 150.316406 C 248.445312 142.835938 243.957031 135.691406 239.40625 128.722656 Z M 137.800781 128.84375 C 133.347656 135.683594 128.960938 142.683594 124.726562 150.015625 C 121.117188 156.269531 117.75 162.515625 114.527344 168.738281 C 109.660156 157.1875 105.632812 145.992188 102.371094 135.273438 C 113.367188 132.632812 125.207031 130.445312 137.800781 128.84375 Z M 290.285156 139.226562 C 295.738281 140.875 301.007812 142.597656 305.839844 144.484375 C 320.535156 150.226562 332.15625 157.023438 339.691406 163.972656 C 347.226562 170.925781 350.496094 177.558594 350.496094 183.988281 C 350.496094 190.421875 347.226562 197.050781 339.691406 204.003906 C 332.15625 210.957031 320.535156 217.753906 305.839844 223.492188 C 300.46875 225.589844 294.570312 227.492188 288.4375 229.292969 C 284.0625 215.761719 278.480469 201.644531 271.835938 187.234375 C 279.476562 170.691406 285.648438 154.558594 290.285156 139.226562 Z M 87.480469 139.300781 C 92.0625 154.480469 98.15625 170.453125 105.691406 186.828125 C 99 201.324219 93.390625 215.519531 88.996094 229.128906 C 83.078125 227.371094 77.382812 225.523438 72.183594 223.492188 C 57.488281 217.753906 45.863281 210.957031 38.328125 204.003906 C 30.792969 197.050781 27.523438 190.421875 27.523438 183.988281 C 27.523438 177.558594 30.792969 170.925781 38.328125 163.972656 C 45.863281 157.023438 57.488281 150.226562 72.183594 144.484375 C 76.9375 142.628906 82.117188 140.929688 87.480469 139.300781 Z M 189.011719 148.648438 C 167.855469 148.648438 150.542969 165.960938 150.542969 187.113281 C 150.542969 208.269531 167.855469 225.582031 189.011719 225.582031 C 210.164062 225.582031 227.476562 208.269531 227.476562 187.113281 C 227.476562 165.960938 210.164062 148.648438 189.011719 148.648438 Z M 189.011719 164.035156 C 201.847656 164.035156 212.089844 174.277344 212.089844 187.113281 C 212.089844 199.953125 201.847656 210.195312 189.011719 210.195312 C 176.171875 210.195312 165.929688 199.953125 165.929688 187.113281 C 165.929688 174.277344 176.171875 164.035156 189.011719 164.035156 Z M 263.015625 205.296875 C 267.046875 214.84375 270.554688 224.1875 273.503906 233.199219 C 264.25 235.34375 254.398438 237.152344 244.035156 238.578125 C 247.019531 233.820312 249.964844 228.96875 252.839844 223.988281 C 256.445312 217.742188 259.796875 211.507812 263.015625 205.296875 Z M 114.707031 205.3125 C 117.941406 211.558594 121.3125 217.824219 124.9375 224.109375 C 127.777344 229.027344 130.679688 233.832031 133.625 238.535156 C 123.292969 237.101562 113.472656 235.285156 104.246094 233.140625 C 107.179688 224.15625 110.691406 214.832031 114.707031 205.3125 Z M 99.816406 248.074219 C 113.738281 251.375 128.832031 253.90625 144.832031 255.558594 C 155.519531 271.011719 166.644531 284.890625 177.847656 297.03125 C 172.835938 301.914062 167.875 306.496094 163.015625 310.449219 C 150.507812 320.621094 138.652344 327.53125 128.769531 330.734375 C 118.890625 333.9375 111.515625 333.515625 106.019531 330.34375 C 100.527344 327.171875 96.480469 321 94.316406 310.839844 C 92.148438 300.679688 92.210938 286.96875 94.765625 271.050781 C 95.925781 263.828125 97.660156 256.097656 99.816406 248.074219 Z M 277.949219 248.136719 C 280.121094 256.199219 281.863281 263.96875 283.027344 271.230469 C 285.589844 287.164062 285.652344 300.890625 283.480469 311.078125 C 281.308594 321.269531 277.226562 327.488281 271.683594 330.6875 C 266.140625 333.890625 258.710938 334.324219 248.800781 331.109375 C 238.890625 327.898438 227.027344 320.960938 214.507812 310.777344 C 209.617188 306.800781 204.617188 302.195312 199.574219 297.269531 C 210.847656 285.085938 222.058594 271.132812 232.8125 255.589844 C 248.855469 253.949219 263.988281 251.429688 277.949219 248.136719 Z M 164.910156 257.136719 C 172.808594 257.566406 180.8125 257.855469 189.011719 257.855469 C 196.9375 257.855469 204.683594 257.582031 212.332031 257.179688 C 204.511719 267.730469 196.542969 277.320312 188.605469 285.957031 C 180.671875 277.300781 172.714844 267.695312 164.910156 257.136719 Z M 164.910156 257.136719 " fill-opacity="1" fill-rule="nonzero"/></svg>