<svg xmlns="http://www.w3.org/2000/svg" xmlns:xlink="http://www.w3.org/1999/xlink" width="1024" zoomAndPan="magnify" viewBox="0 0 768 767.999994" height="1024" preserveAspectRatio="xMidYMid meet" version="1.0"><defs><g/></defs><path fill="#ffffff" d="M 629.847656 563.476562 L 617.230469 563.476562 C 616.816406 563.476562 616.40625 563.433594 616 563.355469 C 615.59375 563.273438 615.199219 563.152344 614.816406 562.996094 C 614.433594 562.835938 614.070312 562.640625 613.726562 562.414062 C 613.382812 562.183594 613.0625 561.921875 612.769531 561.628906 C 612.476562 561.335938 612.214844 561.015625 611.988281 560.671875 C 611.757812 560.328125 611.5625 559.964844 611.402344 559.582031 C 611.246094 559.199219 611.125 558.804688 611.042969 558.398438 C 610.964844 557.992188 610.921875 557.582031 610.921875 557.167969 C 610.921875 556.753906 610.964844 556.34375 611.042969 555.9375 C 611.125 555.53125 611.246094 555.136719 611.402344 554.757812 C 611.5625 554.375 611.757812 554.011719 611.988281 553.664062 C 612.214844 553.320312 612.476562 553.003906 612.769531 552.710938 C 613.0625 552.417969 613.382812 552.15625 613.726562 551.925781 C 614.070312 551.695312 614.433594 551.5 614.816406 551.34375 C 615.199219 551.183594 615.59375 551.066406 616 550.984375 C 616.40625 550.902344 616.816406 550.863281 617.230469 550.863281 C 622.78125 550.863281 638.425781 550.863281 642.460938 550.863281 C 644.074219 550.671875 645.679688 550.441406 647.277344 550.175781 C 648.878906 549.910156 650.472656 549.609375 652.058594 549.273438 C 653.644531 548.933594 655.222656 548.5625 656.792969 548.152344 C 658.363281 547.746094 659.921875 547.300781 661.472656 546.820312 C 663.019531 546.339844 664.558594 545.824219 666.085938 545.277344 C 667.609375 544.726562 669.125 544.140625 670.625 543.523438 C 672.125 542.90625 673.609375 542.253906 675.078125 541.570312 C 676.546875 540.882812 678 540.164062 679.4375 539.414062 C 680.875 538.660156 682.296875 537.878906 683.699219 537.0625 C 685.097656 536.246094 686.480469 535.398438 687.84375 534.519531 C 689.207031 533.640625 690.550781 532.734375 691.875 531.792969 C 693.195312 530.851562 694.496094 529.882812 695.773438 528.886719 C 697.050781 527.886719 698.304688 526.859375 699.539062 525.804688 C 700.769531 524.75 701.976562 523.667969 703.160156 522.554688 C 704.339844 521.445312 705.496094 520.308594 706.628906 519.148438 C 707.757812 517.984375 708.863281 516.796875 709.941406 515.585938 C 711.015625 514.371094 712.066406 513.132812 713.085938 511.875 C 714.105469 510.613281 715.097656 509.332031 716.058594 508.027344 C 717.023438 506.71875 717.957031 505.394531 718.855469 504.046875 C 719.757812 502.699219 720.628906 501.332031 721.472656 499.945312 C 722.3125 498.558594 723.121094 497.152344 723.894531 495.726562 C 724.671875 494.304688 725.414062 492.863281 726.125 491.40625 C 726.835938 489.949219 727.515625 488.476562 728.160156 486.988281 C 728.804688 485.5 729.414062 483.996094 729.988281 482.480469 C 730.566406 480.964844 731.105469 479.4375 731.613281 477.898438 C 732.121094 476.355469 732.589844 474.804688 733.027344 473.242188 C 733.464844 471.679688 733.863281 470.109375 734.230469 468.53125 C 734.59375 466.949219 734.921875 465.363281 735.214844 463.769531 C 735.507812 462.171875 735.765625 460.570312 735.984375 458.964844 C 736.203125 457.359375 736.386719 455.746094 736.535156 454.132812 C 736.683594 452.519531 736.792969 450.902344 736.867188 449.28125 C 736.941406 447.660156 736.976562 446.039062 736.976562 444.417969 C 736.976562 442.796875 736.941406 441.175781 736.867188 439.554688 C 736.792969 437.9375 736.683594 436.320312 736.535156 434.703125 C 736.386719 433.089844 736.203125 431.476562 735.984375 429.871094 C 735.765625 428.265625 735.507812 426.664062 735.214844 425.070312 C 734.921875 423.472656 734.59375 421.886719 734.230469 420.308594 C 733.863281 418.726562 733.464844 417.15625 733.027344 415.59375 C 732.589844 414.03125 732.121094 412.480469 731.613281 410.941406 C 731.105469 409.398438 730.566406 407.871094 729.988281 406.355469 C 729.414062 404.839844 728.804688 403.335938 728.160156 401.847656 C 727.515625 400.359375 726.835938 398.886719 726.125 397.429688 C 725.414062 395.972656 724.671875 394.53125 723.894531 393.109375 C 723.121094 391.683594 722.3125 390.277344 721.472656 388.890625 C 720.628906 387.503906 719.757812 386.136719 718.855469 384.789062 C 717.957031 383.441406 717.023438 382.117188 716.058594 380.8125 C 715.097656 379.503906 714.105469 378.222656 713.085938 376.960938 C 712.066406 375.703125 711.015625 374.464844 709.941406 373.253906 C 708.863281 372.039062 707.757812 370.851562 706.628906 369.691406 C 705.496094 368.527344 704.339844 367.390625 703.160156 366.28125 C 701.976562 365.171875 700.769531 364.085938 699.539062 363.03125 C 698.304688 361.976562 697.050781 360.949219 695.773438 359.949219 C 694.496094 358.953125 693.195312 357.984375 691.875 357.042969 C 690.550781 356.105469 689.207031 355.195312 687.84375 354.316406 C 686.480469 353.4375 685.097656 352.589844 683.699219 351.773438 C 682.296875 350.957031 680.875 350.175781 679.4375 349.421875 C 678 348.671875 676.546875 347.953125 675.078125 347.269531 C 673.609375 346.582031 672.125 345.929688 670.625 345.3125 C 669.125 344.695312 667.609375 344.109375 666.085938 343.5625 C 664.558594 343.011719 663.019531 342.496094 661.472656 342.015625 C 659.921875 341.535156 658.363281 341.09375 656.792969 340.683594 C 655.222656 340.273438 653.644531 339.902344 652.058594 339.5625 C 650.472656 339.226562 648.878906 338.925781 647.277344 338.660156 C 645.679688 338.394531 644.074219 338.164062 642.460938 337.972656 C 634.050781 336.660156 625.640625 336.660156 617.230469 337.972656 C 616.320312 338.121094 615.421875 338.058594 614.535156 337.792969 C 613.648438 337.527344 612.867188 337.085938 612.183594 336.460938 C 611.472656 335.867188 610.917969 335.152344 610.519531 334.3125 C 610.125 333.476562 609.921875 332.59375 609.914062 331.667969 C 609.617188 329.136719 609.273438 326.609375 608.878906 324.089844 C 608.484375 321.574219 608.042969 319.0625 607.546875 316.5625 C 607.054688 314.058594 606.515625 311.570312 605.925781 309.089844 C 605.332031 306.609375 604.695312 304.140625 604.007812 301.6875 C 603.320312 299.230469 602.585938 296.789062 601.804688 294.363281 C 601.019531 291.9375 600.191406 289.527344 599.3125 287.132812 C 598.4375 284.742188 597.511719 282.363281 596.542969 280.007812 C 595.570312 277.648438 594.554688 275.3125 593.496094 272.992188 C 592.433594 270.675781 591.324219 268.378906 590.175781 266.105469 C 589.023438 263.832031 587.824219 261.578125 586.585938 259.351562 C 585.347656 257.125 584.0625 254.921875 582.738281 252.746094 C 581.410156 250.566406 580.042969 248.417969 578.632812 246.292969 C 577.21875 244.167969 575.769531 242.074219 574.277344 240.007812 C 572.785156 237.941406 571.25 235.902344 569.679688 233.894531 C 568.105469 231.886719 566.496094 229.914062 564.84375 227.96875 C 563.195312 226.027344 561.507812 224.113281 559.78125 222.238281 C 558.058594 220.359375 556.296875 218.515625 554.5 216.707031 C 552.703125 214.898438 550.871094 213.125 549.003906 211.386719 C 547.136719 209.652344 545.238281 207.953125 543.304688 206.289062 C 541.371094 204.625 539.40625 203.003906 537.410156 201.417969 C 535.414062 199.832031 533.386719 198.285156 531.328125 196.777344 C 529.269531 195.273438 527.183594 193.804688 525.070312 192.382812 C 522.957031 190.957031 520.8125 189.574219 518.644531 188.234375 C 516.476562 186.894531 514.28125 185.59375 512.0625 184.339844 C 509.84375 183.085938 507.597656 181.875 505.332031 180.707031 C 503.0625 179.542969 500.773438 178.417969 498.464844 177.339844 C 496.152344 176.265625 493.820312 175.234375 491.46875 174.246094 C 489.117188 173.261719 486.746094 172.320312 484.359375 171.429688 C 481.96875 170.535156 479.566406 169.6875 477.144531 168.890625 C 474.722656 168.089844 472.285156 167.339844 469.835938 166.636719 C 467.382812 165.933594 464.917969 165.277344 462.441406 164.671875 C 459.964844 164.0625 457.476562 163.503906 454.980469 162.996094 C 452.480469 162.484375 449.972656 162.023438 447.457031 161.613281 C 444.941406 161.203125 442.417969 160.839844 439.886719 160.527344 C 437.355469 160.214844 434.820312 159.953125 432.277344 159.738281 C 429.738281 159.527344 427.191406 159.363281 424.644531 159.25 C 422.097656 159.132812 419.546875 159.070312 417 159.058594 C 414.449219 159.042969 411.898438 159.078125 409.351562 159.164062 C 406.800781 159.25 404.253906 159.386719 401.710938 159.574219 C 399.167969 159.757812 396.628906 159.996094 394.097656 160.28125 C 391.5625 160.566406 389.035156 160.898438 386.511719 161.285156 C 383.992188 161.667969 381.480469 162.101562 378.976562 162.582031 C 376.472656 163.066406 373.976562 163.597656 371.496094 164.175781 C 369.011719 164.757812 366.542969 165.386719 364.082031 166.0625 C 361.625 166.742188 359.179688 167.464844 356.75 168.238281 C 354.320312 169.011719 351.90625 169.832031 349.507812 170.699219 C 347.109375 171.566406 344.730469 172.480469 342.367188 173.4375 C 340.003906 174.398438 337.664062 175.40625 335.339844 176.457031 C 333.015625 177.511719 330.714844 178.609375 328.4375 179.75 C 326.15625 180.890625 323.898438 182.078125 321.667969 183.308594 C 319.433594 184.539062 317.222656 185.8125 315.042969 187.132812 C 312.859375 188.449219 310.699219 189.808594 308.570312 191.210938 C 306.441406 192.609375 304.339844 194.054688 302.265625 195.539062 C 300.191406 197.023438 298.148438 198.546875 296.132812 200.109375 C 294.121094 201.671875 292.136719 203.277344 290.1875 204.917969 C 288.234375 206.558594 286.316406 208.238281 284.433594 209.957031 C 282.546875 211.671875 280.695312 213.425781 278.878906 215.214844 C 277.0625 217.003906 275.28125 218.828125 273.539062 220.6875 C 271.792969 222.546875 270.085938 224.4375 268.414062 226.363281 C 266.742188 228.289062 265.109375 230.246094 263.515625 232.238281 C 261.921875 234.226562 260.367188 236.246094 258.851562 238.296875 C 257.335938 240.347656 255.863281 242.429688 254.429688 244.535156 C 252.996094 246.644531 251.605469 248.78125 250.253906 250.945312 C 248.90625 253.105469 247.597656 255.296875 246.332031 257.507812 C 246.050781 258 245.710938 258.445312 245.3125 258.84375 C 244.917969 259.246094 244.476562 259.589844 243.988281 259.878906 C 243.503906 260.164062 242.988281 260.386719 242.445312 260.539062 C 241.902344 260.695312 241.347656 260.777344 240.78125 260.789062 L 188.300781 260.789062 C 185.925781 260.789062 183.554688 260.847656 181.183594 260.964844 C 178.8125 261.078125 176.445312 261.253906 174.082031 261.488281 C 171.71875 261.71875 169.363281 262.011719 167.015625 262.359375 C 164.664062 262.707031 162.328125 263.113281 160 263.574219 C 157.667969 264.039062 155.351562 264.558594 153.050781 265.136719 C 150.746094 265.710938 148.460938 266.34375 146.1875 267.035156 C 143.914062 267.722656 141.660156 268.46875 139.425781 269.265625 C 137.191406 270.066406 134.976562 270.921875 132.78125 271.828125 C 130.589844 272.738281 128.417969 273.699219 126.273438 274.714844 C 124.125 275.730469 122.003906 276.796875 119.910156 277.914062 C 117.816406 279.035156 115.753906 280.203125 113.714844 281.421875 C 111.679688 282.644531 109.675781 283.914062 107.699219 285.230469 C 105.726562 286.550781 103.785156 287.917969 101.878906 289.332031 C 99.972656 290.746094 98.101562 292.203125 96.265625 293.710938 C 94.429688 295.214844 92.632812 296.765625 90.871094 298.359375 C 89.113281 299.953125 87.394531 301.589844 85.714844 303.269531 C 84.035156 304.949219 82.398438 306.664062 80.804688 308.425781 C 79.210938 310.183594 77.660156 311.980469 76.152344 313.816406 C 74.648438 315.648438 73.1875 317.519531 71.773438 319.425781 C 70.359375 321.332031 68.992188 323.273438 67.671875 325.246094 C 66.355469 327.222656 65.082031 329.226562 63.863281 331.261719 C 62.640625 333.296875 61.472656 335.363281 60.351562 337.457031 C 59.234375 339.550781 58.167969 341.667969 57.152344 343.8125 C 56.136719 345.960938 55.175781 348.128906 54.265625 350.324219 C 53.355469 352.515625 52.503906 354.730469 51.703125 356.964844 C 50.902344 359.199219 50.160156 361.453125 49.46875 363.722656 C 48.78125 365.996094 48.148438 368.28125 47.570312 370.585938 C 46.992188 372.886719 46.472656 375.203125 46.011719 377.53125 C 45.546875 379.859375 45.140625 382.195312 44.792969 384.542969 C 44.445312 386.890625 44.152344 389.246094 43.921875 391.609375 C 43.6875 393.972656 43.515625 396.339844 43.398438 398.710938 C 43.28125 401.078125 43.222656 403.453125 43.222656 405.824219 C 43.222656 408.199219 43.28125 410.570312 43.398438 412.941406 C 43.515625 415.3125 43.6875 417.679688 43.921875 420.042969 C 44.152344 422.402344 44.445312 424.757812 44.792969 427.105469 C 45.140625 429.457031 45.546875 431.792969 46.011719 434.121094 C 46.472656 436.449219 46.992188 438.765625 47.570312 441.066406 C 48.148438 443.371094 48.78125 445.65625 49.46875 447.929688 C 50.160156 450.199219 50.902344 452.453125 51.703125 454.6875 C 52.503906 456.921875 53.355469 459.136719 54.265625 461.328125 C 55.175781 463.523438 56.136719 465.691406 57.152344 467.835938 C 58.167969 469.984375 59.234375 472.101562 60.351562 474.195312 C 61.472656 476.289062 62.640625 478.355469 63.863281 480.390625 C 65.082031 482.425781 66.355469 484.429688 67.671875 486.402344 C 68.992188 488.378906 70.359375 490.316406 71.773438 492.222656 C 73.1875 494.132812 74.648438 496 76.152344 497.835938 C 77.660156 499.671875 79.210938 501.46875 80.804688 503.226562 C 82.398438 504.984375 84.035156 506.703125 85.714844 508.382812 C 87.394531 510.0625 89.113281 511.699219 90.871094 513.292969 C 92.632812 514.886719 94.429688 516.433594 96.265625 517.941406 C 98.101562 519.445312 99.972656 520.90625 101.878906 522.320312 C 103.785156 523.734375 105.726562 525.101562 107.699219 526.417969 C 109.675781 527.738281 111.679688 529.007812 113.714844 530.226562 C 115.753906 531.449219 117.816406 532.617188 119.910156 533.738281 C 122.003906 534.855469 124.125 535.921875 126.273438 536.9375 C 128.417969 537.953125 130.589844 538.914062 132.78125 539.824219 C 134.976562 540.730469 137.191406 541.585938 139.425781 542.386719 C 141.660156 543.183594 143.914062 543.929688 146.1875 544.617188 C 148.460938 545.308594 150.746094 545.941406 153.050781 546.515625 C 155.351562 547.09375 157.667969 547.613281 160 548.078125 C 162.328125 548.539062 164.664062 548.945312 167.015625 549.292969 C 169.363281 549.640625 171.71875 549.933594 174.082031 550.164062 C 176.445312 550.398438 178.8125 550.570312 181.183594 550.6875 C 183.554688 550.804688 185.925781 550.863281 188.300781 550.863281 C 188.714844 550.863281 189.125 550.902344 189.53125 550.984375 C 189.9375 551.066406 190.332031 551.183594 190.714844 551.34375 C 191.097656 551.5 191.460938 551.695312 191.804688 551.925781 C 192.148438 552.15625 192.46875 552.417969 192.761719 552.710938 C 193.054688 553.003906 193.316406 553.320312 193.546875 553.664062 C 193.777344 554.011719 193.972656 554.375 194.128906 554.757812 C 194.289062 555.136719 194.40625 555.53125 194.488281 555.9375 C 194.570312 556.34375 194.609375 556.753906 194.609375 557.167969 C 194.609375 557.582031 194.570312 557.992188 194.488281 558.398438 C 194.40625 558.804688 194.289062 559.199219 194.128906 559.582031 C 193.972656 559.964844 193.777344 560.328125 193.546875 560.671875 C 193.316406 561.015625 193.054688 561.335938 192.761719 561.628906 C 192.46875 561.921875 192.148438 562.183594 191.804688 562.414062 C 191.460938 562.640625 191.097656 562.835938 190.714844 562.996094 C 190.332031 563.152344 189.9375 563.273438 189.53125 563.355469 C 189.125 563.433594 188.714844 563.476562 188.300781 563.476562 C 185.722656 563.472656 183.144531 563.410156 180.566406 563.28125 C 177.988281 563.15625 175.417969 562.964844 172.847656 562.710938 C 170.28125 562.457031 167.722656 562.140625 165.167969 561.761719 C 162.617188 561.382812 160.074219 560.941406 157.542969 560.4375 C 155.015625 559.933594 152.496094 559.367188 149.996094 558.738281 C 147.492188 558.113281 145.007812 557.421875 142.539062 556.675781 C 140.070312 555.925781 137.621094 555.113281 135.191406 554.246094 C 132.761719 553.375 130.355469 552.445312 127.972656 551.460938 C 125.585938 550.472656 123.230469 549.425781 120.898438 548.324219 C 118.566406 547.21875 116.261719 546.058594 113.984375 544.84375 C 111.710938 543.625 109.46875 542.355469 107.253906 541.027344 C 105.042969 539.699219 102.863281 538.320312 100.71875 536.886719 C 98.570312 535.453125 96.464844 533.96875 94.390625 532.433594 C 92.320312 530.894531 90.285156 529.308594 88.292969 527.671875 C 86.296875 526.035156 84.34375 524.347656 82.433594 522.617188 C 80.523438 520.882812 78.652344 519.105469 76.828125 517.28125 C 75.003906 515.457031 73.226562 513.589844 71.496094 511.675781 C 69.761719 509.765625 68.078125 507.8125 66.441406 505.820312 C 64.804688 503.824219 63.21875 501.792969 61.679688 499.71875 C 60.144531 497.648438 58.660156 495.539062 57.226562 493.394531 C 55.792969 491.25 54.414062 489.070312 53.085938 486.859375 C 51.761719 484.644531 50.488281 482.402344 49.273438 480.125 C 48.058594 477.851562 46.898438 475.546875 45.796875 473.214844 C 44.691406 470.882812 43.648438 468.527344 42.660156 466.144531 C 41.671875 463.761719 40.746094 461.355469 39.875 458.925781 C 39.007812 456.496094 38.199219 454.046875 37.449219 451.578125 C 36.699219 449.109375 36.011719 446.625 35.386719 444.125 C 34.757812 441.621094 34.191406 439.105469 33.691406 436.574219 C 33.1875 434.046875 32.746094 431.503906 32.367188 428.953125 C 31.988281 426.402344 31.671875 423.84375 31.421875 421.273438 C 31.167969 418.707031 30.976562 416.136719 30.851562 413.558594 C 30.722656 410.984375 30.660156 408.40625 30.660156 405.824219 C 30.660156 403.246094 30.722656 400.667969 30.851562 398.09375 C 30.976562 395.515625 31.167969 392.945312 31.421875 390.375 C 31.671875 387.808594 31.988281 385.25 32.367188 382.699219 C 32.746094 380.148438 33.1875 377.605469 33.691406 375.078125 C 34.191406 372.546875 34.757812 370.03125 35.386719 367.527344 C 36.011719 365.027344 36.699219 362.539062 37.449219 360.074219 C 38.199219 357.605469 39.007812 355.15625 39.875 352.726562 C 40.746094 350.296875 41.671875 347.890625 42.660156 345.507812 C 43.648438 343.125 44.691406 340.769531 45.796875 338.4375 C 46.898438 336.105469 48.058594 333.800781 49.273438 331.527344 C 50.488281 329.25 51.761719 327.007812 53.085938 324.792969 C 54.414062 322.582031 55.792969 320.402344 57.226562 318.257812 C 58.660156 316.113281 60.144531 314.003906 61.679688 311.933594 C 63.21875 309.859375 64.804688 307.828125 66.441406 305.832031 C 68.078125 303.839844 69.761719 301.886719 71.496094 299.972656 C 73.226562 298.0625 75.003906 296.195312 76.828125 294.371094 C 78.652344 292.546875 80.523438 290.765625 82.433594 289.035156 C 84.34375 287.300781 86.296875 285.617188 88.292969 283.980469 C 90.285156 282.34375 92.320312 280.757812 94.390625 279.21875 C 96.464844 277.683594 98.570312 276.199219 100.71875 274.765625 C 102.863281 273.332031 105.042969 271.949219 107.253906 270.625 C 109.46875 269.296875 111.710938 268.027344 113.984375 266.808594 C 116.261719 265.59375 118.566406 264.433594 120.898438 263.328125 C 123.230469 262.226562 125.585938 261.179688 127.972656 260.191406 C 130.355469 259.203125 132.761719 258.277344 135.191406 257.40625 C 137.621094 256.535156 140.070312 255.726562 142.539062 254.976562 C 145.007812 254.226562 147.492188 253.539062 149.996094 252.914062 C 152.496094 252.285156 155.015625 251.71875 157.542969 251.214844 C 160.074219 250.710938 162.617188 250.269531 165.167969 249.890625 C 167.722656 249.511719 170.28125 249.195312 172.847656 248.941406 C 175.417969 248.6875 177.988281 248.496094 180.566406 248.367188 C 183.144531 248.242188 185.722656 248.175781 188.300781 248.175781 L 237.25 248.175781 C 238.613281 245.898438 240.019531 243.644531 241.46875 241.417969 C 242.917969 239.195312 244.410156 236.996094 245.945312 234.828125 C 247.480469 232.660156 249.054688 230.523438 250.667969 228.414062 C 252.285156 226.304688 253.941406 224.230469 255.636719 222.1875 C 257.332031 220.140625 259.066406 218.128906 260.839844 216.152344 C 262.613281 214.175781 264.421875 212.230469 266.269531 210.320312 C 268.117188 208.414062 270 206.539062 271.917969 204.703125 C 273.835938 202.867188 275.789062 201.070312 277.777344 199.308594 C 279.765625 197.546875 281.789062 195.824219 283.839844 194.136719 C 285.894531 192.453125 287.980469 190.808594 290.097656 189.207031 C 292.214844 187.601562 294.363281 186.039062 296.539062 184.515625 C 298.714844 182.992188 300.921875 181.515625 303.15625 180.078125 C 305.390625 178.640625 307.648438 177.246094 309.9375 175.894531 C 312.222656 174.542969 314.535156 173.238281 316.875 171.972656 C 319.210938 170.710938 321.570312 169.496094 323.957031 168.324219 C 326.339844 167.152344 328.746094 166.027344 331.171875 164.945312 C 333.597656 163.867188 336.046875 162.835938 338.511719 161.847656 C 340.980469 160.863281 343.464844 159.925781 345.964844 159.035156 C 348.46875 158.144531 350.988281 157.300781 353.523438 156.507812 C 356.058594 155.710938 358.609375 154.96875 361.171875 154.269531 C 363.734375 153.574219 366.3125 152.925781 368.898438 152.328125 C 371.488281 151.730469 374.085938 151.183594 376.695312 150.6875 C 379.304688 150.1875 381.921875 149.738281 384.550781 149.34375 C 387.175781 148.945312 389.808594 148.597656 392.449219 148.300781 C 395.089844 148.003906 397.734375 147.757812 400.382812 147.5625 C 403.03125 147.367188 405.683594 147.222656 408.339844 147.128906 C 410.996094 147.035156 413.648438 146.992188 416.304688 147 C 418.964844 147.007812 421.617188 147.066406 424.273438 147.175781 C 426.925781 147.285156 429.578125 147.445312 432.226562 147.65625 C 434.875 147.867188 437.515625 148.128906 440.15625 148.441406 C 442.792969 148.753906 445.425781 149.117188 448.046875 149.53125 C 450.671875 149.945312 453.289062 150.40625 455.894531 150.921875 C 458.5 151.433594 461.097656 152 463.679688 152.613281 C 466.265625 153.222656 468.839844 153.886719 471.398438 154.597656 C 473.957031 155.308594 476.5 156.070312 479.03125 156.878906 C 481.5625 157.6875 484.074219 158.546875 486.574219 159.453125 C 489.070312 160.355469 491.550781 161.308594 494.011719 162.308594 C 496.472656 163.3125 498.914062 164.359375 501.332031 165.453125 C 503.753906 166.546875 506.152344 167.6875 508.527344 168.871094 C 510.90625 170.058594 513.257812 171.289062 515.589844 172.566406 C 517.917969 173.839844 520.222656 175.160156 522.503906 176.527344 C 524.78125 177.890625 527.035156 179.296875 529.257812 180.75 C 531.484375 182.199219 533.679688 183.691406 535.847656 185.226562 C 538.015625 186.761719 540.152344 188.339844 542.261719 189.953125 C 544.367188 191.570312 546.445312 193.226562 548.488281 194.925781 C 550.53125 196.621094 552.542969 198.355469 554.519531 200.128906 C 556.5 201.902344 558.441406 203.714844 560.347656 205.5625 C 562.257812 207.410156 564.128906 209.292969 565.964844 211.210938 C 567.800781 213.132812 569.597656 215.085938 571.359375 217.074219 C 573.121094 219.0625 574.84375 221.085938 576.527344 223.140625 C 578.210938 225.195312 579.851562 227.28125 581.457031 229.398438 C 583.058594 231.515625 584.621094 233.664062 586.140625 235.839844 C 587.664062 238.015625 589.140625 240.222656 590.578125 242.457031 C 592.015625 244.691406 593.40625 246.953125 594.757812 249.238281 C 596.109375 251.527344 597.414062 253.839844 598.675781 256.175781 C 599.933594 258.515625 601.152344 260.875 602.320312 263.257812 C 603.492188 265.644531 604.617188 268.046875 605.695312 270.476562 C 606.773438 272.902344 607.804688 275.351562 608.789062 277.816406 C 609.773438 280.28125 610.710938 282.765625 611.601562 285.269531 C 612.488281 287.773438 613.328125 290.292969 614.121094 292.824219 C 614.914062 295.359375 615.660156 297.910156 616.355469 300.472656 C 617.046875 303.035156 617.695312 305.613281 618.289062 308.199219 C 618.886719 310.789062 619.433594 313.386719 619.929688 315.996094 C 620.425781 318.605469 620.871094 321.222656 621.269531 323.847656 C 628.585938 323.222656 635.902344 323.222656 643.21875 323.847656 C 645.027344 324.050781 646.832031 324.296875 648.632812 324.585938 C 650.429688 324.871094 652.21875 325.199219 654.003906 325.566406 C 655.785156 325.933594 657.5625 326.34375 659.324219 326.792969 C 661.089844 327.242188 662.84375 327.730469 664.585938 328.257812 C 666.328125 328.785156 668.058594 329.355469 669.773438 329.964844 C 671.492188 330.570312 673.191406 331.21875 674.878906 331.902344 C 676.566406 332.585938 678.238281 333.3125 679.890625 334.070312 C 681.546875 334.832031 683.179688 335.632812 684.800781 336.46875 C 686.417969 337.304688 688.015625 338.175781 689.59375 339.085938 C 691.171875 339.992188 692.726562 340.9375 694.261719 341.917969 C 695.796875 342.894531 697.308594 343.910156 698.796875 344.957031 C 700.285156 346.007812 701.75 347.089844 703.1875 348.203125 C 704.628906 349.320312 706.039062 350.464844 707.425781 351.644531 C 708.816406 352.824219 710.175781 354.035156 711.503906 355.277344 C 712.835938 356.519531 714.140625 357.789062 715.414062 359.089844 C 716.6875 360.390625 717.929688 361.722656 719.144531 363.078125 C 720.359375 364.4375 721.539062 365.820312 722.691406 367.230469 C 723.839844 368.644531 724.957031 370.082031 726.042969 371.542969 C 727.125 373.003906 728.175781 374.492188 729.195312 376 C 730.210938 377.511719 731.191406 379.042969 732.140625 380.597656 C 733.085938 382.152344 733.996094 383.730469 734.871094 385.324219 C 735.746094 386.921875 736.585938 388.539062 737.386719 390.171875 C 738.1875 391.808594 738.953125 393.460938 739.679688 395.128906 C 740.40625 396.796875 741.09375 398.484375 741.742188 400.183594 C 742.390625 401.882812 743 403.597656 743.570312 405.328125 C 744.144531 407.054688 744.675781 408.796875 745.167969 410.550781 C 745.65625 412.300781 746.109375 414.066406 746.519531 415.839844 C 746.933594 417.613281 747.304688 419.394531 747.632812 421.183594 C 747.964844 422.976562 748.253906 424.773438 748.5 426.574219 C 748.75 428.378906 748.957031 430.1875 749.121094 432 C 749.285156 433.8125 749.410156 435.628906 749.496094 437.445312 C 749.578125 439.265625 749.617188 441.085938 749.617188 442.90625 C 749.617188 444.726562 749.578125 446.542969 749.496094 448.363281 C 749.410156 450.183594 749.285156 451.996094 749.121094 453.808594 C 748.957031 455.625 748.75 457.429688 748.5 459.234375 C 748.253906 461.039062 747.964844 462.835938 747.632812 464.625 C 747.304688 466.414062 746.933594 468.199219 746.519531 469.972656 C 746.109375 471.742188 745.65625 473.507812 745.167969 475.261719 C 744.675781 477.011719 744.144531 478.753906 743.570312 480.480469 C 743 482.210938 742.390625 483.925781 741.742188 485.625 C 741.09375 487.328125 740.40625 489.011719 739.679688 490.679688 C 738.953125 492.351562 738.1875 494.003906 737.386719 495.636719 C 736.585938 497.273438 735.746094 498.886719 734.871094 500.484375 C 733.996094 502.082031 733.085938 503.65625 732.140625 505.210938 C 731.191406 506.765625 730.210938 508.296875 729.195312 509.808594 C 728.175781 511.320312 727.125 512.804688 726.042969 514.265625 C 724.957031 515.730469 723.839844 517.167969 722.691406 518.578125 C 721.539062 519.988281 720.359375 521.375 719.144531 522.730469 C 717.929688 524.089844 716.6875 525.417969 715.414062 526.71875 C 714.140625 528.019531 712.835938 529.289062 711.503906 530.53125 C 710.175781 531.773438 708.816406 532.984375 707.425781 534.164062 C 706.039062 535.34375 704.628906 536.492188 703.1875 537.605469 C 701.75 538.722656 700.285156 539.804688 698.796875 540.851562 C 697.308594 541.898438 695.796875 542.914062 694.261719 543.894531 C 692.726562 544.871094 691.171875 545.816406 689.59375 546.726562 C 688.015625 547.632812 686.417969 548.507812 684.800781 549.34375 C 683.179688 550.179688 681.546875 550.976562 679.890625 551.738281 C 678.238281 552.5 676.566406 553.222656 674.878906 553.90625 C 673.191406 554.59375 671.492188 555.238281 669.773438 555.847656 C 668.058594 556.453125 666.328125 557.023438 664.585938 557.550781 C 662.84375 558.082031 661.089844 558.570312 659.324219 559.019531 C 657.5625 559.46875 655.785156 559.875 654.003906 560.242188 C 652.21875 560.613281 650.429688 560.9375 648.632812 561.226562 C 646.832031 561.511719 645.027344 561.757812 643.21875 561.960938 L 631.613281 561.960938 Z M 629.847656 563.476562 " fill-opacity="1" fill-rule="nonzero"/><path fill="#ffffff" d="M 459.535156 449.96875 L 409.074219 449.96875 C 408.660156 449.96875 408.25 450.007812 407.84375 450.089844 C 407.4375 450.167969 407.042969 450.289062 406.660156 450.449219 C 406.277344 450.605469 405.914062 450.800781 405.570312 451.03125 C 405.226562 451.261719 404.90625 451.523438 404.613281 451.816406 C 404.320312 452.105469 404.058594 452.425781 403.828125 452.769531 C 403.597656 453.113281 403.40625 453.476562 403.246094 453.859375 C 403.089844 454.242188 402.96875 454.636719 402.886719 455.042969 C 402.808594 455.449219 402.765625 455.859375 402.765625 456.273438 L 402.765625 632.839844 C 402.765625 633.253906 402.808594 633.664062 402.886719 634.070312 C 402.96875 634.476562 403.089844 634.871094 403.246094 635.253906 C 403.40625 635.636719 403.597656 636 403.828125 636.34375 C 404.058594 636.6875 404.320312 637.007812 404.613281 637.300781 C 404.90625 637.59375 405.226562 637.855469 405.570312 638.082031 C 405.914062 638.3125 406.277344 638.507812 406.660156 638.667969 C 407.042969 638.824219 407.4375 638.945312 407.84375 639.027344 C 408.25 639.105469 408.660156 639.148438 409.074219 639.148438 C 409.488281 639.148438 409.898438 639.105469 410.304688 639.027344 C 410.710938 638.945312 411.105469 638.824219 411.488281 638.667969 C 411.871094 638.507812 412.234375 638.3125 412.578125 638.082031 C 412.921875 637.855469 413.242188 637.59375 413.535156 637.300781 C 413.828125 637.007812 414.089844 636.6875 414.320312 636.34375 C 414.550781 636 414.742188 635.636719 414.902344 635.253906 C 415.058594 634.871094 415.179688 634.476562 415.261719 634.070312 C 415.339844 633.664062 415.382812 633.253906 415.382812 632.839844 L 415.382812 563.476562 L 459.535156 563.476562 C 461.394531 563.476562 463.25 563.382812 465.101562 563.203125 C 466.953125 563.019531 468.789062 562.746094 470.613281 562.382812 C 472.433594 562.023438 474.238281 561.570312 476.015625 561.03125 C 477.796875 560.492188 479.542969 559.867188 481.261719 559.15625 C 482.980469 558.445312 484.65625 557.648438 486.296875 556.773438 C 487.9375 555.898438 489.53125 554.941406 491.078125 553.910156 C 492.621094 552.878906 494.113281 551.773438 495.550781 550.59375 C 496.988281 549.414062 498.363281 548.167969 499.679688 546.851562 C 500.992188 545.539062 502.242188 544.164062 503.421875 542.726562 C 504.601562 541.289062 505.707031 539.796875 506.738281 538.253906 C 507.773438 536.707031 508.726562 535.113281 509.601562 533.476562 C 510.480469 531.835938 511.273438 530.15625 511.984375 528.441406 C 512.695312 526.722656 513.324219 524.976562 513.863281 523.195312 C 514.402344 521.417969 514.851562 519.617188 515.214844 517.792969 C 515.578125 515.96875 515.851562 514.132812 516.035156 512.285156 C 516.214844 510.433594 516.308594 508.582031 516.308594 506.722656 C 516.308594 504.863281 516.214844 503.007812 516.035156 501.160156 C 515.851562 499.308594 515.578125 497.472656 515.214844 495.648438 C 514.851562 493.828125 514.402344 492.023438 513.863281 490.246094 C 513.324219 488.46875 512.695312 486.71875 511.984375 485.003906 C 511.273438 483.285156 510.480469 481.605469 509.601562 479.96875 C 508.726562 478.328125 507.773438 476.734375 506.738281 475.191406 C 505.707031 473.644531 504.601562 472.152344 503.421875 470.71875 C 502.242188 469.28125 500.992188 467.90625 499.679688 466.589844 C 498.363281 465.277344 496.988281 464.027344 495.550781 462.851562 C 494.113281 461.671875 492.621094 460.566406 491.078125 459.53125 C 489.53125 458.5 487.9375 457.546875 486.296875 456.667969 C 484.65625 455.792969 482.980469 455 481.261719 454.289062 C 479.542969 453.578125 477.796875 452.949219 476.015625 452.410156 C 474.238281 451.871094 472.433594 451.421875 470.613281 451.058594 C 468.789062 450.695312 466.953125 450.421875 465.101562 450.242188 C 463.25 450.058594 461.394531 449.96875 459.535156 449.96875 Z M 459.535156 550.863281 L 414.878906 550.863281 L 414.878906 462.578125 L 459.535156 462.578125 C 460.984375 462.578125 462.425781 462.652344 463.863281 462.792969 C 465.304688 462.933594 466.730469 463.144531 468.152344 463.425781 C 469.570312 463.710938 470.96875 464.0625 472.355469 464.480469 C 473.738281 464.898438 475.097656 465.386719 476.433594 465.941406 C 477.769531 466.492188 479.074219 467.109375 480.351562 467.792969 C 481.625 468.472656 482.863281 469.214844 484.066406 470.019531 C 485.269531 470.820312 486.429688 471.683594 487.546875 472.597656 C 488.664062 473.515625 489.734375 474.484375 490.757812 475.507812 C 491.78125 476.53125 492.75 477.601562 493.667969 478.71875 C 494.585938 479.835938 495.445312 480.996094 496.25 482.199219 C 497.054688 483.398438 497.796875 484.636719 498.476562 485.914062 C 499.160156 487.1875 499.777344 488.492188 500.328125 489.828125 C 500.882812 491.164062 501.371094 492.523438 501.789062 493.90625 C 502.210938 495.292969 502.5625 496.691406 502.84375 498.109375 C 503.125 499.527344 503.335938 500.957031 503.480469 502.394531 C 503.621094 503.832031 503.691406 505.277344 503.691406 506.722656 C 503.691406 508.167969 503.621094 509.609375 503.480469 511.046875 C 503.335938 512.488281 503.125 513.914062 502.84375 515.332031 C 502.5625 516.75 502.210938 518.152344 501.789062 519.535156 C 501.371094 520.917969 500.882812 522.277344 500.328125 523.613281 C 499.777344 524.949219 499.160156 526.253906 498.476562 527.53125 C 497.796875 528.804688 497.054688 530.042969 496.25 531.246094 C 495.445312 532.445312 494.585938 533.605469 493.667969 534.722656 C 492.75 535.84375 491.78125 536.910156 490.757812 537.933594 C 489.734375 538.957031 488.664062 539.925781 487.546875 540.84375 C 486.429688 541.761719 485.269531 542.621094 484.066406 543.425781 C 482.863281 544.226562 481.625 544.96875 480.351562 545.652344 C 479.074219 546.332031 477.769531 546.949219 476.433594 547.503906 C 475.097656 548.054688 473.738281 548.542969 472.355469 548.960938 C 470.96875 549.382812 469.570312 549.734375 468.152344 550.015625 C 466.730469 550.296875 465.304688 550.507812 463.863281 550.652344 C 462.425781 550.792969 460.984375 550.863281 459.535156 550.863281 Z M 459.535156 550.863281 " fill-opacity="1" fill-rule="nonzero"/><path fill="#ffffff" d="M 561.722656 449.96875 C 561.308594 449.96875 560.898438 450.007812 560.492188 450.089844 C 560.085938 450.167969 559.691406 450.289062 559.308594 450.449219 C 558.925781 450.605469 558.5625 450.800781 558.21875 451.03125 C 557.875 451.261719 557.554688 451.523438 557.261719 451.816406 C 556.96875 452.105469 556.707031 452.425781 556.476562 452.769531 C 556.246094 453.113281 556.054688 453.476562 555.894531 453.859375 C 555.738281 454.242188 555.617188 454.636719 555.535156 455.042969 C 555.457031 455.449219 555.414062 455.859375 555.414062 456.273438 L 555.414062 632.839844 C 555.414062 633.253906 555.457031 633.664062 555.535156 634.070312 C 555.617188 634.476562 555.738281 634.871094 555.894531 635.253906 C 556.054688 635.636719 556.246094 636 556.476562 636.34375 C 556.707031 636.6875 556.96875 637.007812 557.261719 637.300781 C 557.554688 637.59375 557.875 637.855469 558.21875 638.082031 C 558.5625 638.3125 558.925781 638.507812 559.308594 638.667969 C 559.691406 638.824219 560.085938 638.945312 560.492188 639.027344 C 560.898438 639.105469 561.308594 639.148438 561.722656 639.148438 C 562.136719 639.148438 562.546875 639.105469 562.953125 639.027344 C 563.359375 638.945312 563.753906 638.824219 564.136719 638.667969 C 564.519531 638.507812 564.882812 638.3125 565.226562 638.082031 C 565.570312 637.855469 565.890625 637.59375 566.183594 637.300781 C 566.476562 637.007812 566.738281 636.6875 566.96875 636.34375 C 567.199219 636 567.390625 635.636719 567.550781 635.253906 C 567.707031 634.871094 567.828125 634.476562 567.910156 634.070312 C 567.988281 633.664062 568.03125 633.253906 568.03125 632.839844 L 568.03125 456.273438 C 568.03125 455.859375 567.988281 455.449219 567.910156 455.042969 C 567.828125 454.636719 567.707031 454.242188 567.550781 453.859375 C 567.390625 453.476562 567.199219 453.113281 566.96875 452.769531 C 566.738281 452.425781 566.476562 452.105469 566.183594 451.816406 C 565.890625 451.523438 565.570312 451.261719 565.226562 451.03125 C 564.882812 450.800781 564.519531 450.605469 564.136719 450.449219 C 563.753906 450.289062 563.359375 450.167969 562.953125 450.089844 C 562.546875 450.007812 562.136719 449.96875 561.722656 449.96875 Z M 561.722656 449.96875 " fill-opacity="1" fill-rule="nonzero"/><path fill="#ffffff" d="M 288.46875 449.96875 L 276.609375 449.96875 C 275.949219 449.976562 275.300781 450.085938 274.671875 450.292969 C 274.042969 450.496094 273.457031 450.789062 272.917969 451.171875 C 272.378906 451.554688 271.90625 452.011719 271.503906 452.535156 C 271.101562 453.0625 270.785156 453.632812 270.554688 454.253906 L 207.476562 630.824219 C 207.34375 631.21875 207.253906 631.628906 207.199219 632.042969 C 207.148438 632.457031 207.136719 632.875 207.164062 633.292969 C 207.195312 633.710938 207.265625 634.121094 207.375 634.527344 C 207.488281 634.929688 207.636719 635.320312 207.824219 635.695312 C 208.011719 636.070312 208.234375 636.421875 208.488281 636.753906 C 208.746094 637.085938 209.035156 637.386719 209.351562 637.660156 C 209.667969 637.9375 210.007812 638.175781 210.371094 638.382812 C 210.734375 638.59375 211.117188 638.761719 211.515625 638.894531 C 211.910156 639.027344 212.320312 639.121094 212.734375 639.171875 C 213.148438 639.222656 213.566406 639.234375 213.984375 639.207031 C 214.402344 639.175781 214.816406 639.105469 215.21875 638.996094 C 215.621094 638.882812 216.011719 638.734375 216.386719 638.546875 C 216.761719 638.359375 217.117188 638.140625 217.445312 637.882812 C 217.777344 637.625 218.082031 637.339844 218.355469 637.023438 C 218.628906 636.707031 218.871094 636.363281 219.078125 636 C 219.285156 635.636719 219.457031 635.257812 219.589844 634.859375 L 235.988281 588.699219 L 329.089844 588.699219 L 345.742188 634.859375 C 345.914062 635.492188 346.183594 636.078125 346.554688 636.617188 C 346.921875 637.160156 347.371094 637.625 347.898438 638.015625 C 348.425781 638.402344 349 638.695312 349.625 638.890625 C 350.253906 639.082031 350.890625 639.167969 351.546875 639.148438 L 353.816406 639.148438 C 354.199219 638.992188 354.558594 638.804688 354.902344 638.582031 C 355.25 638.363281 355.570312 638.109375 355.867188 637.828125 C 356.164062 637.546875 356.433594 637.238281 356.671875 636.90625 C 356.914062 636.574219 357.121094 636.222656 357.292969 635.851562 C 357.46875 635.480469 357.605469 635.097656 357.707031 634.703125 C 357.808594 634.304688 357.875 633.902344 357.898438 633.492188 C 357.925781 633.085938 357.914062 632.675781 357.863281 632.269531 C 357.816406 631.863281 357.726562 631.464844 357.601562 631.074219 L 294.523438 454.507812 C 294.316406 453.863281 294.015625 453.265625 293.621094 452.714844 C 293.226562 452.160156 292.761719 451.683594 292.21875 451.277344 C 291.675781 450.871094 291.085938 450.554688 290.445312 450.332031 C 289.804688 450.109375 289.148438 449.988281 288.46875 449.96875 Z M 240.53125 576.085938 L 281.152344 462.578125 L 284.179688 462.578125 L 324.550781 576.085938 Z M 240.53125 576.085938 " fill-opacity="1" fill-rule="nonzero"/><g fill="#ffffff" fill-opacity="1"><g transform="translate(218.401262, 407.749901)"><g><path d="M 12.359375 0 L 12.359375 -95.09375 L 50.53125 -95.09375 C 60.375 -95.09375 67.800781 -92.828125 72.8125 -88.296875 C 77.820312 -83.765625 80.328125 -77.507812 80.328125 -69.53125 C 80.328125 -63.757812 78.863281 -59.03125 75.9375 -55.34375 C 73.007812 -51.664062 68.640625 -48.847656 62.828125 -46.890625 L 62.828125 -45.53125 C 65.816406 -44.226562 68.234375 -42.296875 70.078125 -39.734375 C 71.921875 -37.179688 73.664062 -33.390625 75.3125 -28.359375 L 84.8125 0 L 65.5 0 L 56.1875 -28.421875 C 55.238281 -31.285156 54.164062 -33.507812 52.96875 -35.09375 C 51.78125 -36.675781 50.265625 -37.820312 48.421875 -38.53125 C 46.578125 -39.25 44.179688 -39.609375 41.234375 -39.609375 L 31.15625 -39.609375 L 31.15625 0 Z M 48.265625 -54.5 C 57.367188 -54.5 61.921875 -58.75 61.921875 -67.25 C 61.921875 -75.875 57.367188 -80.1875 48.265625 -80.1875 L 31.15625 -80.1875 L 31.15625 -54.5 Z M 48.265625 -54.5 "/></g></g></g><g fill="#ffffff" fill-opacity="1"><g transform="translate(307.313624, 407.749901)"><g><path d="M 31.15625 -41.75 L 31.15625 -15.734375 L 76.546875 -15.734375 L 76.546875 0 L 12.359375 0 L 12.359375 -95.09375 L 75.515625 -95.09375 L 75.515625 -79.34375 L 31.15625 -79.34375 L 31.15625 -57.109375 L 69.921875 -57.109375 L 69.921875 -41.75 Z M 31.15625 -41.75 "/></g></g></g><g fill="#ffffff" fill-opacity="1"><g transform="translate(389.071369, 407.749901)"><g><path d="M 42.140625 1.359375 C 35.554688 1.359375 29.691406 0.546875 24.546875 -1.078125 C 19.410156 -2.703125 15.128906 -4.835938 11.703125 -7.484375 C 8.273438 -10.128906 5.65625 -13.03125 3.84375 -16.1875 L 14.171875 -28.8125 L 15.8125 -28.8125 C 18.664062 -24.5625 22.289062 -21.175781 26.6875 -18.65625 C 31.09375 -16.144531 36.242188 -14.890625 42.140625 -14.890625 C 47.171875 -14.890625 50.960938 -15.953125 53.515625 -18.078125 C 56.078125 -20.203125 57.359375 -23.128906 57.359375 -26.859375 C 57.359375 -29.117188 56.945312 -31.003906 56.125 -32.515625 C 55.300781 -34.035156 53.9375 -35.335938 52.03125 -36.421875 C 50.125 -37.503906 47.546875 -38.4375 44.296875 -39.21875 L 32.0625 -42.015625 C 23.519531 -43.960938 17.15625 -47.203125 12.96875 -51.734375 C 8.789062 -56.265625 6.703125 -62.148438 6.703125 -69.390625 C 6.703125 -74.773438 8.046875 -79.503906 10.734375 -83.578125 C 13.421875 -87.648438 17.332031 -90.8125 22.46875 -93.0625 C 27.601562 -95.320312 33.75 -96.453125 40.90625 -96.453125 C 48.238281 -96.453125 54.515625 -95.488281 59.734375 -93.5625 C 64.960938 -91.632812 69.375 -88.675781 72.96875 -84.6875 L 63.671875 -71.9375 L 62.046875 -71.9375 C 59.359375 -74.75 56.28125 -76.859375 52.8125 -78.265625 C 49.34375 -79.679688 45.375 -80.390625 40.90625 -80.390625 C 35.75 -80.390625 31.828125 -79.476562 29.140625 -77.65625 C 26.453125 -75.832031 25.109375 -73.316406 25.109375 -70.109375 C 25.109375 -67.117188 26.050781 -64.734375 27.9375 -62.953125 C 29.820312 -61.179688 33.082031 -59.796875 37.71875 -58.796875 L 50.21875 -56.1875 C 59.445312 -54.238281 66.140625 -50.929688 70.296875 -46.265625 C 74.460938 -41.609375 76.546875 -35.53125 76.546875 -28.03125 C 76.546875 -22.09375 75.265625 -16.921875 72.703125 -12.515625 C 70.148438 -8.117188 66.289062 -4.707031 61.125 -2.28125 C 55.96875 0.144531 49.640625 1.359375 42.140625 1.359375 Z M 42.140625 1.359375 "/></g></g></g><g fill="#ffffff" fill-opacity="1"><g transform="translate(470.764066, 407.749901)"><g><path d="M 76.234375 -95.09375 L 76.234375 -79.28125 L 48.78125 -79.28125 L 48.78125 0 L 30.046875 0 L 30.046875 -79.28125 L 2.609375 -79.28125 L 2.609375 -95.09375 Z M 76.234375 -95.09375 "/></g></g></g></svg>