<svg xmlns="http://www.w3.org/2000/svg" xmlns:xlink="http://www.w3.org/1999/xlink" width="1024" zoomAndPan="magnify" viewBox="0 0 768 767.999994" height="1024" preserveAspectRatio="xMidYMid meet" version="1.0"><defs><clipPath id="63a3080923"><path d="M 119.984375 31.488281 L 676.484375 31.488281 L 676.484375 745.488281 L 119.984375 745.488281 Z M 119.984375 31.488281 " clip-rule="nonzero"/></clipPath></defs><g clip-path="url(#63a3080923)"><path fill="#f5f5f5" d="M 675.90625 180.144531 C 675.90625 179.019531 675.34375 178.457031 674.78125 177.332031 C 674.78125 177.332031 674.78125 176.765625 674.21875 176.765625 C 673.65625 175.640625 673.09375 175.078125 672.53125 174.515625 L 624.703125 126.652344 C 594.320312 95.683594 563.375 65.277344 532.429688 34.867188 C 531.863281 34.304688 530.738281 33.742188 530.175781 33.179688 C 530.175781 33.179688 529.613281 33.179688 529.613281 32.617188 C 527.925781 32.054688 526.238281 31.488281 524.550781 31.488281 L 131.25 31.488281 C 125.058594 31.488281 119.996094 36.558594 119.996094 42.75 L 119.996094 734.226562 C 119.996094 740.421875 125.058594 745.488281 131.25 745.488281 L 665.214844 745.488281 C 671.40625 745.488281 676.46875 740.421875 676.46875 734.226562 L 676.46875 182.398438 C 675.90625 181.835938 675.90625 181.273438 675.90625 180.144531 Z M 637.644531 171.136719 L 536.367188 171.136719 L 536.367188 69.78125 C 560.5625 93.992188 584.753906 118.207031 608.949219 142.417969 Z M 142.503906 722.964844 L 142.503906 54.011719 L 514.421875 54.011719 L 514.421875 182.398438 C 514.421875 188.59375 519.488281 193.660156 525.675781 193.660156 L 653.964844 193.660156 L 653.964844 722.964844 Z M 197.082031 296.707031 L 354.625 296.707031 C 360.816406 296.707031 365.878906 291.636719 365.878906 285.445312 C 365.878906 235.890625 325.367188 195.347656 275.851562 195.347656 C 226.339844 195.347656 185.828125 235.890625 185.828125 285.445312 C 185.828125 291.636719 190.890625 296.707031 197.082031 296.707031 Z M 275.851562 217.875 C 309.050781 217.875 337.183594 242.085938 342.246094 274.183594 L 209.460938 274.183594 C 214.523438 242.085938 242.65625 217.875 275.851562 217.875 Z M 275.851562 193.097656 C 305.675781 193.097656 330.433594 168.882812 330.433594 138.476562 C 330.433594 108.070312 306.238281 84.421875 275.851562 84.421875 C 245.46875 84.421875 221.273438 108.632812 221.273438 139.039062 C 221.273438 169.449219 246.03125 193.097656 275.851562 193.097656 Z M 275.851562 106.945312 C 293.296875 106.945312 307.925781 121.019531 307.925781 139.039062 C 307.925781 157.058594 293.859375 171.136719 275.851562 171.136719 C 257.847656 171.136719 243.78125 157.058594 243.78125 139.039062 C 243.78125 121.019531 258.410156 106.945312 275.851562 106.945312 Z M 606.136719 377.226562 C 606.136719 383.421875 601.074219 388.488281 594.882812 388.488281 L 197.082031 388.488281 C 190.890625 388.488281 185.828125 383.421875 185.828125 377.226562 C 185.828125 371.035156 190.890625 365.964844 197.082031 365.964844 L 594.882812 365.964844 C 601.074219 365.964844 606.136719 371.035156 606.136719 377.226562 Z M 606.136719 463.945312 C 606.136719 470.136719 601.074219 475.207031 594.882812 475.207031 L 197.082031 475.207031 C 190.890625 475.207031 185.828125 470.136719 185.828125 463.945312 C 185.828125 457.75 190.890625 452.683594 197.082031 452.683594 L 594.882812 452.683594 C 601.074219 452.683594 606.136719 457.75 606.136719 463.945312 Z M 606.136719 551.222656 C 606.136719 557.417969 601.074219 562.484375 594.882812 562.484375 L 197.082031 562.484375 C 190.890625 562.484375 185.828125 557.417969 185.828125 551.222656 C 185.828125 545.03125 190.890625 539.960938 197.082031 539.960938 L 594.882812 539.960938 C 601.074219 539.960938 606.136719 545.03125 606.136719 551.222656 Z M 606.136719 637.9375 C 606.136719 644.132812 601.074219 649.203125 594.882812 649.203125 L 197.082031 649.203125 C 190.890625 649.203125 185.828125 644.132812 185.828125 637.9375 C 185.828125 631.746094 190.890625 626.675781 197.082031 626.675781 L 594.882812 626.675781 C 601.074219 626.675781 606.136719 631.746094 606.136719 637.9375 Z M 606.136719 637.9375 " fill-opacity="1" fill-rule="nonzero"/></g></svg>