<svg xmlns="http://www.w3.org/2000/svg" xmlns:xlink="http://www.w3.org/1999/xlink" width="1024" zoomAndPan="magnify" viewBox="0 0 768 767.999994" height="1024" preserveAspectRatio="xMidYMid meet" version="1.0"><defs><clipPath id="f5826d879e"><path d="M 42 13 L 727 13 L 727 756.550781 L 42 756.550781 Z M 42 13 " clip-rule="nonzero"/></clipPath></defs><g clip-path="url(#f5826d879e)"><path fill="#faf6f0" d="M 257.886719 680.667969 C 258.03125 684.207031 258.351562 687.292969 258.945312 689.328125 C 258.945312 689.328125 258.535156 685.835938 257.886719 680.667969 Z M 230.972656 666.386719 C 230.980469 667.347656 231.023438 668.226562 231.140625 668.9375 C 231.140625 668.9375 231.078125 667.988281 230.972656 666.386719 Z M 275.121094 698.441406 C 276.414062 701.71875 277.8125 704.78125 279.332031 707.488281 C 279.332031 707.488281 277.585938 703.894531 275.121094 698.441406 Z M 277.050781 662.925781 C 278.433594 672.367188 280.457031 681.304688 283.410156 687.84375 C 283.410156 687.84375 280.304688 676.1875 277.050781 662.925781 Z M 721.625 53.085938 C 722.167969 52.5 722.574219 51.957031 722.785156 51.5 C 724.792969 47.1875 727.660156 30.707031 726.269531 28.988281 C 724.878906 27.265625 721.230469 19.03125 719.96875 16.746094 C 718.714844 14.457031 712.511719 12 711.84375 14.835938 C 711.183594 17.671875 712.671875 23.203125 712.671875 23.203125 C 710.136719 20.417969 706.226562 20.097656 705.675781 19.96875 C 705.132812 19.84375 703.835938 20.933594 703.835938 20.933594 C 703.851562 21.265625 704.015625 21.757812 704.277344 22.355469 C 703.886719 22.128906 703.570312 22.066406 703.570312 22.066406 C 703.570312 22.066406 702.371094 23.777344 698.933594 27.363281 C 695.503906 30.945312 691.027344 37.269531 689.789062 42.5625 C 689.203125 45.074219 688.78125 48.59375 688.492188 51.613281 C 686.003906 51.519531 684.425781 51.773438 684.449219 52.691406 C 684.449219 52.691406 678.1875 61.058594 674.800781 64.304688 C 674.660156 64.441406 674.46875 64.585938 674.25 64.742188 C 674.195312 64.777344 674.144531 64.816406 674.082031 64.855469 C 673.855469 65.007812 673.601562 65.164062 673.3125 65.335938 C 673.304688 65.335938 673.300781 65.335938 673.296875 65.34375 C 672.996094 65.511719 672.65625 65.691406 672.296875 65.875 C 672.199219 65.921875 672.109375 65.96875 672.007812 66.015625 C 671.640625 66.199219 671.257812 66.386719 670.839844 66.578125 C 670.828125 66.578125 670.820312 66.585938 670.808594 66.589844 C 670.378906 66.785156 669.902344 66.992188 669.417969 67.203125 C 669.300781 67.253906 669.183594 67.304688 669.066406 67.355469 C 668.570312 67.566406 668.058594 67.777344 667.523438 67.992188 C 667.523438 67.992188 667.519531 67.992188 667.519531 68 C 666.964844 68.21875 666.378906 68.449219 665.785156 68.683594 C 665.667969 68.730469 665.554688 68.769531 665.4375 68.816406 C 664.835938 69.046875 664.222656 69.28125 663.589844 69.519531 C 654.242188 73.003906 641.445312 76.957031 633.863281 78.902344 C 621.761719 82.007812 584.214844 112.1875 572.90625 120.636719 C 561.597656 129.082031 501.605469 134.007812 501.605469 134.007812 C 497.832031 132.664062 494.136719 131.242188 490.761719 129.777344 C 489.285156 129.136719 487.878906 128.488281 486.554688 127.835938 C 486.472656 127.796875 486.394531 127.757812 486.3125 127.71875 C 485.761719 127.445312 485.230469 127.171875 484.707031 126.894531 C 484.59375 126.832031 484.476562 126.769531 484.363281 126.710938 C 483.824219 126.421875 483.300781 126.132812 482.796875 125.839844 C 482.753906 125.8125 482.707031 125.789062 482.664062 125.761719 C 482.121094 125.445312 481.601562 125.125 481.109375 124.800781 C 481.027344 124.75 480.945312 124.695312 480.859375 124.636719 C 480.480469 124.382812 480.117188 124.128906 479.769531 123.882812 C 479.636719 123.785156 479.515625 123.6875 479.394531 123.59375 C 479.097656 123.367188 478.820312 123.148438 478.550781 122.921875 C 478.445312 122.828125 478.332031 122.738281 478.226562 122.644531 C 477.882812 122.335938 477.558594 122.027344 477.277344 121.722656 C 468.347656 112.011719 468.347656 112.011719 468.347656 112.011719 C 468.347656 112.011719 464.621094 109.304688 463.496094 103.5625 L 463.503906 103.5625 C 463.417969 103.160156 463.351562 102.742188 463.300781 102.308594 C 463.21875 101.613281 463.074219 100.6875 462.894531 99.632812 C 463.859375 99.644531 464.464844 99.589844 464.464844 99.589844 C 460.972656 92.210938 466.996094 85.613281 466.636719 77.84375 C 466.28125 70.078125 472.742188 42.234375 467.304688 33.691406 C 461.871094 25.148438 430.160156 13.5625 423.558594 13.5625 C 416.960938 13.5625 403.03125 17.175781 386.789062 22.820312 C 364.375 30.605469 366.402344 49.347656 366.402344 55.558594 C 366.402344 59.554688 367.371094 61.445312 369.917969 60.445312 C 370.269531 60.304688 370.921875 59.953125 371.746094 59.46875 C 371.757812 59.535156 371.773438 59.601562 371.785156 59.671875 C 371.792969 59.707031 371.796875 59.734375 371.804688 59.765625 C 373.648438 68.863281 377.695312 82.011719 378.070312 83.652344 C 378.558594 85.796875 377.160156 104.15625 378.203125 107.8125 C 378.203125 107.8125 380.507812 108.933594 383.382812 108.074219 C 386.261719 107.207031 386.414062 109.371094 386.535156 109.886719 C 386.648438 110.40625 394.023438 124.921875 394.847656 129.445312 C 395.675781 133.976562 400.242188 131.011719 403.167969 130.339844 C 406.085938 129.660156 414.394531 124.964844 416.160156 126.710938 C 416.742188 127.285156 420.722656 130.972656 421.371094 131.816406 C 421.371094 131.816406 421.199219 132.320312 420.875 133.136719 C 419.386719 136.878906 414.511719 147.515625 406.230469 150.066406 C 398.714844 152.378906 391.417969 156.625 388.179688 158.644531 C 390.992188 156.878906 396.65625 153.484375 401.140625 151.914062 C 396 152.152344 389.675781 152.164062 387.457031 153.183594 C 384.121094 154.710938 373.140625 162.21875 369.246094 167.5 C 365.351562 172.785156 361.046875 175.5625 357.015625 178.617188 C 356.257812 179.191406 355.199219 179.78125 353.964844 180.382812 L 348.992188 182.558594 C 348.914062 182.585938 348.835938 182.621094 348.761719 182.652344 C 344.03125 184.605469 338.765625 186.710938 336.023438 189.046875 C 331.296875 193.078125 328.140625 192.597656 328.28125 189.121094 C 328.292969 188.835938 328.191406 188.125 328.113281 187.445312 C 328.160156 187.292969 328.195312 187.167969 328.1875 187.109375 C 328.1875 187.089844 328.183594 187.078125 328.179688 187.0625 C 328.167969 186.953125 328.15625 186.851562 328.144531 186.75 C 328.125 186.605469 328.109375 186.464844 328.097656 186.324219 C 328.078125 186.160156 328.050781 186 328.042969 185.835938 L 328.042969 185.804688 C 328 185.386719 327.976562 184.964844 327.957031 184.558594 C 327.964844 184.546875 327.972656 184.542969 327.976562 184.535156 C 327.933594 183.554688 327.921875 182.589844 327.96875 181.675781 C 328.257812 175.769531 328.800781 170.511719 328.199219 168.699219 C 327.601562 166.886719 328.199219 161.957031 330.15625 161.679688 C 332.117188 161.40625 339.546875 160.636719 343.421875 160.320312 C 347.300781 160 352.542969 157.132812 352.539062 155.203125 C 352.503906 142.550781 343.183594 132.042969 344.5 129.8125 C 345.808594 127.578125 347.617188 124.640625 347.085938 123.8125 C 346.546875 122.976562 346.074219 122.566406 340.675781 119.875 C 335.28125 117.179688 332.074219 111.914062 327.148438 104.714844 C 326.203125 103.339844 324.953125 101.945312 323.511719 100.59375 C 326.917969 97.101562 318.636719 89.324219 307.355469 89.664062 C 295.519531 90.027344 275.660156 95.769531 269.550781 103.65625 C 263.4375 111.542969 255.75 126.726562 266.777344 151.824219 C 266.777344 151.824219 251.902344 154 254.441406 170.75 C 256.980469 187.5 264.144531 193.433594 273.6875 196.355469 C 279.628906 198.167969 286.539062 192.210938 290.085938 185.46875 C 290.898438 187.175781 291.628906 188.878906 292.144531 190.507812 C 292.765625 192.484375 293.066406 194.355469 292.738281 195.996094 C 292.675781 196.324219 292.570312 196.636719 292.453125 196.941406 C 292.40625 197.074219 292.355469 197.195312 292.304688 197.324219 C 292.199219 197.574219 292.074219 197.804688 291.949219 198.046875 C 291.820312 198.285156 291.691406 198.53125 291.539062 198.753906 C 291.429688 198.917969 291.296875 199.066406 291.171875 199.21875 C 290.980469 199.457031 290.789062 199.691406 290.5625 199.898438 C 290.230469 200.199219 289.875 200.488281 289.460938 200.722656 C 288.792969 201.09375 288.011719 201.339844 287.167969 201.519531 C 287.160156 201.527344 287.15625 201.53125 287.152344 201.535156 C 282.003906 202.632812 273.734375 200.660156 264.4375 201.140625 C 253.59375 201.695312 238.582031 210.035156 223.292969 210.035156 C 208 210.035156 184.648438 208.367188 171.027344 207.535156 C 157.40625 206.699219 126.914062 205.246094 117.46875 202.761719 C 108.023438 200.285156 98.726562 203.472656 94.183594 206.355469 C 89.640625 209.238281 88.308594 209.851562 79.382812 209.25 C 70.460938 208.648438 60.597656 206.941406 54.667969 205.351562 C 48.734375 203.765625 45.480469 203.011719 45.625 204.351562 C 45.769531 205.691406 50.921875 209.59375 55.246094 210.71875 C 59.5625 211.839844 66.988281 213.507812 66.988281 213.507812 C 66.988281 213.507812 63.863281 216.347656 61.167969 218.894531 C 58.46875 221.433594 53.820312 224.390625 54.289062 227.105469 C 54.289062 227.105469 47.136719 230.949219 43.898438 235 C 40.660156 239.046875 46.132812 238.394531 48.589844 237.21875 C 51.050781 236.046875 54.941406 232.582031 57.523438 231.242188 C 60.109375 229.902344 61.695312 232.148438 61.695312 232.148438 C 61.695312 232.148438 61.324219 237.535156 62.132812 240.5 C 62.9375 243.460938 66.785156 247.328125 72.761719 248.636719 C 78.742188 249.953125 81.164062 250.089844 81.164062 250.089844 C 81.164062 250.089844 82.066406 247.054688 79.359375 245.832031 C 76.65625 244.613281 71.449219 241.546875 71.195312 240.28125 C 70.945312 239.019531 71.457031 234.964844 71.898438 232.972656 C 72.335938 230.976562 73.65625 229.328125 78.09375 228.683594 C 82.53125 228.039062 84.285156 229.847656 84.285156 229.847656 C 84.285156 229.847656 81.542969 242.445312 81.757812 245.023438 C 81.96875 247.597656 81.765625 248.789062 81.765625 248.789062 C 81.765625 248.789062 85.976562 250.546875 86.675781 247.566406 C 87.378906 244.585938 88.042969 238.023438 89.363281 236.371094 C 90.6875 234.71875 95.089844 232.660156 98.179688 230.558594 C 101.269531 228.457031 100.828125 227.722656 109.484375 224.992188 C 118.140625 222.25 128.953125 230.144531 137.386719 231.074219 C 145.820312 232.003906 180.0625 238.535156 192.296875 238.535156 C 204.527344 238.535156 220.234375 238.8125 233.300781 238.257812 C 246.367188 237.695312 259.15625 236.308594 268.191406 242.148438 C 277.179688 247.957031 288.777344 269.589844 294.007812 292.808594 C 294.03125 292.929688 294.066406 293.042969 294.089844 293.164062 C 294.203125 293.675781 294.308594 294.203125 294.410156 294.726562 C 299.046875 317.964844 293.9375 349.636719 287.050781 355.441406 C 284.863281 357.28125 279.523438 360.269531 273.199219 364.402344 C 256.925781 368.472656 237.738281 386.734375 237.480469 407.179688 C 237.109375 436.835938 225.773438 469.730469 224.289062 486.410156 C 222.972656 501.238281 213.339844 533.238281 213.339844 543.898438 C 212.355469 545.835938 211.347656 547.667969 210.320312 549.3125 C 201.050781 564.140625 185.839844 595.28125 184.179688 642.355469 C 182.683594 684.777344 180.125 693.183594 176.246094 698.5 C 175.820312 699.082031 175.378906 699.632812 174.921875 700.179688 C 174.085938 699.070312 162.40625 707.964844 160.742188 712.972656 C 159.324219 717.226562 162.527344 724.683594 165.054688 728.707031 C 166.882812 739.113281 165.851562 752.988281 166.167969 753.308594 C 166.558594 753.699219 168.804688 756.339844 168.804688 756.339844 L 174.363281 756.339844 C 174.363281 756.339844 173.808594 754.394531 174.363281 750.222656 C 174.886719 746.3125 176.609375 744.378906 176.824219 744.152344 C 176.6875 744.339844 176.503906 745.132812 181.3125 746.59375 C 186.875 748.277344 197.71875 749.355469 202.441406 746.59375 C 207.167969 743.832031 210.78125 737.4375 204.945312 731.042969 C 204.945312 731.042969 204.929688 731.027344 204.917969 731.015625 C 204.910156 731.007812 204.890625 730.988281 204.875 730.976562 C 204.859375 730.960938 204.835938 730.9375 204.8125 730.917969 C 204.785156 730.890625 204.75 730.855469 204.710938 730.816406 C 204.6875 730.792969 204.65625 730.761719 204.628906 730.734375 C 204.523438 730.632812 204.382812 730.488281 204.207031 730.308594 C 204.15625 730.261719 204.117188 730.222656 204.066406 730.171875 C 203.648438 729.746094 203.042969 729.121094 202.164062 728.214844 C 199.800781 725.757812 199.105469 716.027344 199.523438 710.882812 C 199.941406 705.742188 201.328125 682.25 203 674.324219 C 203.953125 669.800781 209.351562 654.382812 216.085938 637.847656 C 217.105469 635.351562 218.152344 632.828125 219.21875 630.3125 C 219.511719 634.265625 219.789062 637.625 220.023438 640.027344 C 221.171875 651.828125 223.4375 664.042969 224.394531 668.925781 C 221.453125 651.820312 228.917969 626.679688 228.917969 626.679688 C 228.917969 634.089844 230.460938 658.4375 230.972656 666.386719 C 230.941406 658.351562 234.476562 642.988281 234.476562 642.988281 C 234.476562 655.222656 240.039062 668.566406 240.039062 668.566406 C 237.8125 657.074219 243.746094 634.835938 243.746094 634.835938 C 243.746094 641.507812 245.972656 668.9375 245.972656 668.9375 C 248.195312 662.265625 247.820312 630.019531 250.789062 637.429688 C 250.980469 637.910156 251.179688 638.546875 251.390625 639.316406 C 253.503906 647.109375 256.363281 668.542969 257.886719 680.667969 C 257.402344 668.71875 258.945312 651.515625 258.945312 651.515625 C 259.71875 662.925781 269.378906 685.746094 275.121094 698.441406 C 265.980469 675.277344 262.277344 641.136719 262.277344 641.136719 C 264.230469 649.929688 274.546875 671.101562 281.359375 684.53125 C 273.714844 665.351562 270.757812 638.679688 269.945312 629.742188 C 270.839844 636.730469 274.007812 650.515625 277.050781 662.925781 C 273.574219 639.171875 274.140625 612.222656 274.140625 612.222656 C 274.878906 619.636719 279.699219 668.195312 279.699219 668.195312 C 280.644531 648.671875 277.683594 609.898438 276.769531 598.671875 C 278.183594 609.433594 284.890625 629.644531 284.890625 629.644531 C 280.8125 601.46875 276.507812 564.03125 276.507812 564.03125 C 279.988281 571.445312 284.890625 603.695312 284.890625 603.695312 C 284.890625 581.082031 274.882812 541.050781 276.734375 533.082031 C 278.585938 525.109375 284.148438 533.269531 284.148438 542.164062 C 284.148438 551.058594 290.820312 562.179688 293.042969 572.191406 C 294.488281 578.699219 302.523438 597.59375 307.960938 610.007812 C 301.691406 593.558594 297.296875 573.007812 294.972656 560.503906 C 298.335938 572.851562 305.316406 587.746094 309.667969 596.425781 C 300.375 573.882812 294.78125 525.480469 296.753906 536.972656 C 298.261719 545.773438 305.738281 567.878906 310.394531 581.1875 C 304.839844 561.757812 300.828125 531.410156 300.828125 531.410156 C 302.304688 539.632812 307.734375 556.722656 312.144531 569.9375 C 307.351562 551.253906 303.425781 526.59375 303.425781 526.59375 C 306.242188 543.765625 314.910156 567.664062 319.988281 580.785156 C 319.246094 582.746094 318.515625 584.652344 317.8125 586.507812 C 316.910156 583.933594 314.703125 577.59375 312.144531 569.9375 C 313.9375 576.90625 315.84375 583.035156 317.71875 586.75 C 315.773438 591.890625 313.988281 596.734375 312.402344 601.761719 C 311.738281 600.5 310.796875 598.679688 309.667969 596.425781 C 310.527344 598.511719 311.414062 600.398438 312.332031 601.972656 C 311.222656 605.507812 310.207031 609.148438 309.300781 613.058594 C 308.878906 612.09375 308.429688 611.082031 307.960938 610.007812 C 308.382812 611.113281 308.8125 612.203125 309.25 613.265625 C 308.65625 615.847656 308.113281 618.542969 307.613281 621.417969 C 303.730469 643.9375 295.96875 669.5625 290.535156 682.378906 C 289.066406 685.835938 287.683594 690.007812 286.386719 694.285156 C 285.308594 692.21875 283.511719 688.765625 281.359375 684.53125 C 282.832031 688.210938 284.46875 691.613281 286.304688 694.558594 C 282.832031 706.023438 279.96875 718.136719 277.722656 719.261719 C 274.617188 720.8125 266.460938 724.308594 259.859375 730.523438 C 253.261719 736.734375 259.859375 738.285156 259.859375 738.285156 C 279.273438 744.886719 301.402344 737.511719 306.449219 732.851562 C 311.496094 728.191406 318.097656 725.472656 321.203125 730.132812 C 324.308594 734.792969 332.851562 737.511719 332.851562 737.511719 C 332.851562 737.511719 334.261719 738.367188 334.40625 737.511719 C 334.972656 734.042969 341.003906 730.523438 345.664062 729.746094 C 350.320312 728.964844 353.039062 724.308594 353.039062 724.308594 C 351.484375 714.601562 356.535156 674.222656 366.628906 654.808594 C 372.074219 644.335938 378.535156 613.640625 383.695312 584.722656 C 383.394531 582.78125 383.15625 580.886719 383 579.074219 C 381.996094 567.488281 383.6875 558.78125 384.339844 556.183594 C 385.449219 551.730469 382.488281 548.769531 382.488281 548.769531 C 382.488281 548.769531 371.363281 537.644531 359.136719 528.75 C 354.304688 525.234375 347.894531 519.53125 340.9375 512.910156 C 336.683594 531.019531 331.363281 548.230469 327.027344 561.238281 C 324.621094 568.457031 322.339844 574.582031 320.214844 580.183594 C 313.460938 557.246094 306.929688 515.160156 307.871094 505.09375 C 308.296875 500.589844 308.550781 489.019531 308.703125 476.398438 C 309.320312 477.03125 309.929688 477.644531 310.585938 478.324219 C 319.949219 488.007812 331.367188 499.742188 341.691406 509.632812 C 349.15625 516.78125 356.054688 522.96875 361.183594 526.699219 C 373.414062 535.59375 384.535156 546.71875 384.535156 546.71875 C 384.535156 546.71875 387.5 549.683594 386.390625 554.132812 C 385.738281 556.734375 384.042969 565.4375 385.050781 577.023438 C 385.761719 585.242188 387.820312 594.894531 392.617188 604.902344 C 404.183594 629.011719 415.667969 658.667969 416.78125 661.261719 C 417.703125 663.40625 418.765625 666.609375 418.207031 671.933594 C 418.15625 672.414062 418.09375 672.910156 418.019531 673.414062 C 417.917969 674.097656 417.808594 674.789062 417.648438 675.539062 C 411.613281 680.726562 410.113281 687.949219 411.226562 695.179688 C 412.335938 702.40625 411.226562 712.972656 411.226562 712.972656 L 414.804688 716.414062 C 415.160156 717.046875 415.496094 717.476562 415.695312 717.273438 C 416.3125 716.660156 419.484375 711.441406 419.484375 711.441406 C 419.484375 711.441406 418.703125 704.585938 419.429688 700.25 C 420.644531 700.027344 421.957031 701.1875 423.261719 703.746094 C 423.792969 705.136719 424.613281 707.480469 425.667969 710.300781 C 426.019531 711.542969 426.363281 712.867188 426.695312 714.347656 C 427.546875 718.105469 428.332031 722.636719 429.015625 727.984375 C 431.796875 749.667969 457.929688 750.222656 457.929688 750.222656 C 462.007812 741.699219 458.867188 720.003906 458.855469 718.34375 C 458.839844 716.410156 458.457031 714.988281 458.457031 714.988281 C 458.457031 715.003906 458.453125 715.019531 458.453125 715.039062 C 458.449219 714.984375 458.4375 714.921875 458.433594 714.867188 L 458.433594 714.871094 C 458.21875 712.359375 457.738281 709.554688 456.816406 706.484375 C 454.238281 697.898438 453.847656 686.097656 450.886719 677.941406 C 447.917969 669.785156 435.636719 647.914062 433.996094 633.828125 C 432.351562 619.742188 426.046875 583.789062 427.53125 570.070312 C 429.015625 556.355469 432.273438 537.078125 427.308594 527.8125 C 424.722656 522.980469 413.886719 506.800781 402.441406 490.554688 C 391.933594 475.644531 380.90625 460.683594 375.269531 454.417969 C 367.371094 445.640625 357.421875 435.476562 350.699219 427.269531 C 349.660156 425.996094 348.714844 424.785156 347.851562 423.621094 C 347.867188 423.632812 347.878906 423.648438 347.890625 423.65625 C 347.371094 422.953125 346.847656 422.246094 346.398438 421.585938 C 346.398438 421.589844 346.398438 421.589844 346.402344 421.59375 C 345.941406 420.914062 345.53125 420.265625 345.152344 419.644531 C 345.007812 419.40625 344.867188 419.167969 344.742188 418.941406 C 344.628906 418.738281 344.515625 418.535156 344.414062 418.335938 C 344.164062 417.863281 343.9375 417.40625 343.761719 416.972656 C 342.097656 412.902344 345.609375 404.015625 349.964844 392.761719 L 349.960938 392.761719 C 353.691406 383.128906 358.015625 371.753906 360.238281 360.191406 L 360.238281 360.195312 C 360.242188 360.175781 360.246094 360.160156 360.246094 360.140625 C 360.355469 359.574219 360.449219 359.003906 360.550781 358.4375 C 360.792969 357.070312 361.015625 355.699219 361.183594 354.328125 C 362.292969 345.316406 364.195312 336.109375 366.402344 327.410156 C 370.824219 309.992188 376.503906 294.652344 379.714844 287.234375 C 379.941406 286.714844 380.15625 286.15625 380.367188 285.578125 C 380.40625 285.472656 380.445312 285.367188 380.480469 285.261719 C 380.683594 284.6875 380.878906 284.085938 381.066406 283.460938 C 381.097656 283.355469 381.125 283.25 381.15625 283.144531 C 381.539062 281.808594 381.875 280.371094 382.152344 278.847656 C 382.171875 278.753906 382.1875 278.664062 382.203125 278.570312 C 382.339844 277.800781 382.460938 277.003906 382.5625 276.191406 C 382.566406 276.144531 382.574219 276.09375 382.582031 276.039062 C 382.789062 274.34375 382.914062 272.574219 382.9375 270.765625 C 382.9375 270.726562 382.941406 270.695312 382.941406 270.664062 C 383.015625 263.917969 381.671875 256.578125 377.855469 250.132812 C 376.917969 248.554688 375.835938 247.027344 374.585938 245.570312 C 374.582031 245.566406 374.582031 245.566406 374.582031 245.5625 L 374.582031 245.566406 C 373.03125 243.773438 371.238281 242.089844 369.152344 240.566406 C 368.058594 239.769531 366.890625 239.007812 365.632812 238.304688 C 344.503906 226.441406 346.730469 216.429688 357.109375 210.871094 C 362.660156 207.898438 367.53125 204.835938 372.003906 201.007812 C 370.289062 211.070312 369.128906 223.101562 369.140625 237.316406 C 372.390625 240.277344 376.035156 243.648438 376.632812 244.335938 C 376.632812 244.339844 376.632812 244.339844 376.636719 244.34375 C 382.988281 251.707031 385.078125 261.039062 384.988281 269.429688 C 384.988281 269.464844 384.984375 269.5 384.984375 269.535156 C 384.964844 271.347656 384.835938 273.109375 384.632812 274.8125 C 384.625 274.859375 384.617188 274.910156 384.613281 274.964844 C 384.511719 275.777344 384.390625 276.566406 384.253906 277.34375 C 384.238281 277.433594 384.222656 277.527344 384.203125 277.613281 C 383.925781 279.140625 383.589844 280.582031 383.203125 281.917969 C 383.175781 282.023438 383.144531 282.128906 383.117188 282.226562 C 382.929688 282.851562 382.734375 283.453125 382.53125 284.03125 C 382.496094 284.136719 382.457031 284.242188 382.417969 284.347656 C 382.207031 284.925781 381.992188 285.488281 381.765625 286.003906 C 378.714844 293.042969 373.445312 307.226562 369.136719 323.550781 C 372.027344 319.175781 374.527344 314.238281 375.792969 308.476562 C 379.289062 292.558594 385.265625 291.007812 385.265625 291.007812 C 385.265625 291.007812 386.816406 299.972656 387.980469 302.300781 C 388.679688 303.695312 389.105469 306.207031 389.339844 308.011719 L 387.980469 317.40625 C 387.980469 317.40625 372.453125 346.527344 365.078125 359.339844 C 360.160156 367.878906 354.5625 395.371094 351.253906 422.535156 C 351.476562 422.8125 351.695312 423.089844 351.929688 423.375 C 358.648438 431.582031 368.601562 441.746094 376.5 450.523438 C 382.132812 456.785156 393.140625 471.722656 403.644531 486.621094 C 411.777344 460.125 421.761719 431.007812 424.089844 426.121094 C 427.972656 417.96875 433.40625 421.851562 433.40625 421.851562 C 443.5 427.675781 468.347656 485.136719 476.113281 503 C 483.878906 520.859375 500.183594 556.96875 515.328125 578.320312 C 530.472656 599.671875 549.878906 666.84375 559.972656 683.542969 C 569.15625 698.730469 566.460938 712.6875 565.898438 715.089844 C 566.292969 715.195312 566.757812 715.324219 567.351562 715.492188 C 573.175781 717.15625 580.9375 715.492188 580.9375 715.492188 L 586.378906 724.308594 C 603.847656 726.25 615.105469 715.765625 615.105469 715.765625 C 615.105469 715.765625 614.328125 712.273438 623.648438 730.132812 C 632.96875 747.992188 665.484375 746.941406 665.96875 745.273438 C 671.402344 726.640625 641.894531 704.507812 635.683594 692.46875 C 629.46875 680.433594 621.707031 673.445312 617.4375 659.855469 C 613.164062 646.265625 605.011719 625.691406 598.800781 609.769531 C 592.589844 593.851562 575.503906 555.800781 564.632812 542.601562 C 553.761719 529.402344 545.21875 514.644531 545.21875 507.65625 C 545.21875 500.667969 536.683594 467.664062 527.75 446.699219 C 518.820312 425.734375 505.617188 379.917969 505.617188 379.917969 C 510.203125 363.351562 502.304688 332.378906 498.195312 327.984375 C 498.195312 327.984375 498.195312 327.984375 498.199219 327.988281 L 497.464844 317.40625 C 497.464844 317.40625 506.398438 308.867188 503.683594 293.722656 C 500.964844 278.582031 503.292969 270.425781 509.117188 258.003906 C 512.347656 251.105469 515.578125 241.585938 517.8125 234.472656 C 518.722656 230.269531 519.527344 226.105469 520.253906 222.011719 C 523.882812 219.683594 527.515625 216.808594 530.164062 215.195312 C 535.136719 212.160156 541.835938 204.800781 545.578125 199.609375 C 549.324219 194.410156 560.5625 187.195312 568.132812 183.941406 C 575.699219 180.6875 592.988281 166.6875 595.867188 159.476562 C 598.742188 152.261719 617.484375 143.015625 631.03125 136.300781 C 644.578125 129.582031 654.589844 118.113281 665.757812 110.023438 C 676.921875 101.941406 680.875 90.976562 686.355469 91.914062 C 690.917969 92.6875 693.082031 92.199219 695.789062 87.335938 C 695.835938 87.257812 695.882812 87.167969 695.925781 87.085938 C 696.128906 86.710938 696.335938 86.3125 696.546875 85.890625 C 696.609375 85.769531 696.667969 85.644531 696.734375 85.519531 C 696.988281 84.988281 697.25 84.433594 697.523438 83.824219 C 701.195312 75.675781 705.160156 70.984375 711.433594 68.886719 C 716.433594 67.214844 721.628906 58.1875 723.527344 54.597656 C 723.527344 54.597656 724.15625 53.289062 721.625 53.085938 Z M 455.242188 98.203125 C 455.242188 98.207031 455.242188 98.207031 455.242188 98.207031 Z M 711.273438 40.226562 C 708.347656 43.324219 701.632812 44.34375 701.632812 44.34375 C 701.632812 44.34375 702.957031 34.882812 705.175781 28.824219 C 705.691406 27.40625 705.875 26.292969 705.855469 25.40625 C 708.714844 30.511719 713.371094 38.003906 711.273438 40.226562 Z M 224.394531 668.925781 C 224.667969 670.332031 224.839844 671.164062 224.839844 671.164062 C 224.667969 670.4375 224.523438 669.6875 224.394531 668.925781 Z M 310.394531 581.1875 C 311.589844 585.378906 312.855469 589.070312 314.171875 591.832031 C 314.171875 591.832031 312.597656 587.492188 310.394531 581.1875 " fill-opacity="1" fill-rule="nonzero"/></g></svg>