<svg xmlns="http://www.w3.org/2000/svg" xmlns:xlink="http://www.w3.org/1999/xlink" width="1024" zoomAndPan="magnify" viewBox="0 0 768 767.999994" height="1024" preserveAspectRatio="xMidYMid meet" version="1.0"><path fill="#ffffff" d="M 653.640625 430.214844 C 627.570312 430.351562 604.980469 436.617188 586.042969 445.945312 C 579.121094 432.125 572.109375 419.964844 570.929688 410.917969 C 569.554688 400.367188 567.960938 394.070312 569.617188 381.488281 C 571.273438 368.910156 578.554688 351.105469 578.433594 349.777344 C 578.328125 348.449219 576.808594 342.046875 561.765625 341.925781 C 546.726562 341.820312 533.863281 344.820312 532.339844 348.792969 C 530.820312 352.761719 527.921875 361.699219 526.132812 371.027344 C 523.492188 384.667969 496.109375 433.320312 480.546875 458.765625 C 475.457031 448.828125 471.128906 440.082031 470.234375 433.15625 C 468.863281 422.605469 467.265625 416.308594 468.921875 403.726562 C 470.578125 391.144531 477.859375 373.339844 477.742188 372.011719 C 477.636719 370.683594 476.113281 364.28125 461.074219 364.164062 C 446.03125 364.058594 433.167969 367.058594 431.648438 371.027344 C 430.125 374.996094 428.515625 384.28125 425.441406 393.265625 C 422.351562 402.25 385.941406 483.390625 376.40625 504.417969 C 371.542969 515.132812 367.320312 523.742188 364.335938 529.625 C 364.320312 529.609375 364.320312 529.59375 364.320312 529.59375 C 364.320312 529.59375 364.140625 529.980469 363.8125 530.652344 C 361.261719 535.652344 359.738281 538.429688 359.738281 538.429688 C 359.738281 538.429688 359.753906 538.472656 359.785156 538.535156 C 357.753906 542.203125 355.589844 545.621094 354.515625 545.621094 C 353.769531 545.621094 352.261719 535.832031 354.84375 522.414062 C 360.261719 494.269531 373.273438 450.363281 373.152344 448.855469 C 373.09375 448.078125 375.570312 440.4375 364.648438 436.425781 C 354.039062 432.542969 350.25 439.019531 349.277344 439.035156 C 348.339844 439.050781 347.636719 441.320312 347.636719 441.320312 C 347.636719 441.320312 359.46875 391.953125 325.074219 391.953125 C 303.585938 391.953125 273.804688 415.472656 259.121094 436.78125 C 249.867188 441.828125 230.050781 452.648438 209.027344 464.199219 C 200.953125 468.628906 192.71875 473.167969 184.898438 477.480469 C 184.359375 476.898438 183.839844 476.300781 183.285156 475.71875 C 141.59375 431.230469 64.539062 399.769531 67.804688 339.972656 C 69 318.226562 76.550781 260.980469 215.890625 191.539062 C 330.027344 134.648438 421.410156 150.304688 437.199219 185.003906 C 459.761719 234.5625 388.359375 326.6875 269.832031 339.972656 C 224.664062 345.03125 200.894531 327.523438 194.96875 321.003906 C 188.75 314.136719 187.824219 313.824219 185.496094 315.125 C 181.707031 317.226562 184.109375 323.285156 185.496094 326.898438 C 189.03125 336.105469 203.550781 352.449219 228.320312 360.566406 C 250.105469 367.714844 303.125 371.640625 367.257812 346.835938 C 439.078125 319.046875 495.15625 241.757812 478.695312 177.152344 C 461.9375 111.441406 353.007812 89.847656 249.914062 126.472656 C 188.554688 148.273438 122.136719 182.496094 74.371094 227.164062 C 17.578125 280.292969 8.535156 326.523438 12.265625 345.835938 C 25.53125 414.488281 120.121094 459.183594 158.007812 492.3125 C 156.144531 493.34375 154.382812 494.3125 152.785156 495.195312 C 133.789062 504.597656 61.6875 542.339844 43.648438 582.214844 C 23.191406 627.449219 46.902344 659.910156 62.613281 664.28125 C 111.257812 677.816406 161.1875 653.460938 188.015625 613.4375 C 214.847656 573.425781 211.5625 521.328125 199.253906 497.539062 C 199.105469 497.238281 198.925781 496.957031 198.777344 496.65625 C 203.683594 493.746094 208.683594 490.808594 213.636719 487.898438 C 223.308594 482.226562 232.796875 476.929688 241.035156 472.4375 C 236.421875 485.0625 233.050781 500.195312 231.289062 522.058594 C 229.230469 547.742188 239.75 580.933594 253.523438 593.992188 C 259.582031 599.734375 266.878906 599.871094 271.503906 599.871094 C 287.53125 599.871094 294.84375 586.542969 302.886719 570.769531 C 312.765625 551.429688 321.523438 528.921875 321.523438 528.921875 C 321.523438 528.921875 310.527344 589.738281 340.488281 589.738281 C 351.398438 589.738281 362.378906 575.574219 367.273438 568.367188 C 367.289062 568.441406 367.289062 568.484375 367.289062 568.484375 C 367.289062 568.484375 367.574219 568.023438 368.125 567.066406 C 369.257812 565.335938 369.902344 564.234375 369.902344 564.234375 C 369.902344 564.234375 369.929688 564.113281 369.960938 563.917969 C 374.347656 556.308594 384.078125 538.9375 398.667969 510.28125 C 417.515625 473.273438 435.601562 426.917969 435.601562 426.917969 C 435.601562 426.917969 437.289062 438.261719 442.792969 456.988281 C 446.03125 468.019531 452.925781 480.210938 458.359375 491.898438 C 453.984375 497.96875 451.300781 501.449219 451.300781 501.449219 C 451.300781 501.449219 451.328125 501.507812 451.375 501.625 C 447.882812 506.269531 443.957031 511.269531 439.855469 516.164062 C 424.976562 533.890625 407.25 554.128906 404.878906 559.980469 C 402.085938 566.859375 402.742188 571.933594 408.144531 575.992188 C 412.085938 578.960938 419.113281 579.425781 426.453125 578.933594 C 439.824219 578.035156 449.242188 574.707031 453.882812 572.695312 C 461.117188 570.140625 469.550781 566.113281 477.457031 560.292969 C 492.050781 549.5625 500.855469 534.207031 500.019531 513.863281 C 499.558594 502.65625 495.976562 491.554688 491.453125 481.0625 C 492.78125 479.152344 494.109375 477.242188 495.4375 475.285156 C 518.449219 441.632812 536.292969 404.667969 536.292969 404.667969 C 536.292969 404.667969 537.980469 416.007812 543.488281 434.738281 C 546.277344 444.230469 551.785156 454.570312 556.722656 464.71875 C 535.085938 482.300781 521.671875 502.730469 517 516.132812 C 508.390625 540.921875 515.136719 552.160156 527.789062 554.710938 C 533.519531 555.875 541.621094 553.25 547.710938 550.667969 C 555.289062 548.160156 564.394531 543.964844 572.898438 537.710938 C 587.492188 526.980469 601.535156 511.953125 600.683594 491.613281 C 600.292969 482.359375 597.789062 473.167969 594.386719 464.332031 C 612.726562 456.691406 636.480469 452.4375 666.726562 455.976562 C 731.621094 463.554688 744.351562 504.074219 741.917969 521.027344 C 739.488281 537.996094 725.878906 547.308594 721.328125 550.128906 C 716.773438 552.949219 715.386719 553.921875 715.777344 556.007812 C 716.328125 559.054688 718.429688 558.933594 722.3125 558.277344 C 727.652344 557.382812 756.378906 544.488281 757.617188 513.179688 C 759.167969 473.511719 721.089844 429.859375 653.640625 430.214844 Z M 153.488281 598.855469 C 132 622.300781 101.960938 631.164062 89.085938 623.703125 C 75.175781 615.644531 80.683594 581.113281 107.066406 556.234375 C 123.136719 541.070312 143.894531 527.101562 157.664062 518.492188 C 160.800781 516.609375 165.394531 513.835938 170.992188 510.476562 C 171.917969 509.953125 172.4375 509.65625 172.4375 509.65625 L 172.421875 509.625 C 173.5 508.984375 174.617188 508.3125 175.75 507.625 C 185.347656 543.054688 176.050781 574.246094 153.488281 598.855469 Z M 310.0625 492.390625 C 302.574219 510.640625 286.90625 557.335938 277.371094 554.832031 C 269.175781 552.679688 264.195312 517.175781 275.726562 482.253906 C 281.53125 464.675781 293.933594 443.664062 301.230469 435.5 C 312.957031 422.382812 325.878906 418.082031 329.015625 423.410156 C 333.027344 430.1875 314.765625 480.941406 310.0625 492.390625 Z M 439.4375 554.128906 C 436.257812 555.785156 433.347656 556.832031 432.003906 556.023438 C 431.003906 555.425781 433.320312 553.25 433.320312 553.25 C 433.320312 553.25 449.492188 535.832031 455.878906 527.90625 C 459.582031 523.296875 463.894531 517.820312 468.5625 511.699219 C 468.609375 512.3125 468.625 512.925781 468.625 513.519531 C 468.5625 534.382812 448.417969 548.457031 439.4375 554.128906 Z M 539.101562 531.398438 C 536.726562 529.714844 537.128906 524.265625 544.90625 507.3125 C 547.964844 500.65625 554.933594 489.433594 567.0625 478.71875 C 568.464844 483.121094 569.332031 487.34375 569.300781 491.285156 C 569.136719 517.535156 550.410156 527.339844 539.101562 531.398438 Z M 539.101562 531.398438 " fill-opacity="1" fill-rule="nonzero"/></svg>