<svg  v-else-if="icon == 'see'" xmlns="http://www.w3.org/2000/svg" xmlns:xlink="http://www.w3.org/1999/xlink" width="1024" zoomAndPan="magnify" viewBox="0 0 768 767.999994" height="1024" preserveAspectRatio="xMidYMid meet" version="1.0"><defs><clipPath id="2cb5ede298"><path d="M 11 130 L 751.261719 130 L 751.261719 575 L 11 575 Z M 11 130 " clip-rule="nonzero"/></clipPath></defs><g clip-path="url(#2cb5ede298)"><path :class="{ white: color == 'white', accent: color == 'accent' }" fill="#f5f5f5" d="M 381.246094 130.453125 C 299.964844 130.453125 224.65625 163.632812 163.703125 204.035156 C 74.429688 263.214844 16.484375 337.242188 16.484375 337.242188 C 9.480469 346.171875 9.480469 358.75 16.484375 367.679688 C 16.484375 367.679688 74.429688 441.707031 163.703125 500.886719 C 224.65625 541.292969 299.964844 574.46875 381.246094 574.46875 C 462.527344 574.46875 537.835938 541.292969 598.792969 500.886719 C 688.066406 441.707031 746.007812 367.679688 746.007812 367.679688 C 753.015625 358.75 753.015625 346.171875 746.007812 337.242188 C 746.007812 337.242188 688.066406 263.214844 598.792969 204.035156 C 537.835938 163.632812 462.527344 130.453125 381.246094 130.453125 Z M 381.246094 179.789062 C 452.460938 179.789062 518.128906 209.761719 571.507812 245.132812 C 629.847656 283.8125 673.707031 329.296875 694.257812 352.460938 C 673.707031 375.625 629.847656 421.109375 571.507812 459.789062 C 518.128906 495.164062 452.460938 525.132812 381.246094 525.132812 C 310.03125 525.132812 244.367188 495.164062 190.984375 459.789062 C 132.644531 421.109375 88.785156 375.625 68.238281 352.460938 C 88.785156 329.296875 132.644531 283.8125 190.984375 245.132812 C 244.367188 209.761719 310.03125 179.789062 381.246094 179.789062 Z M 381.246094 204.457031 C 299.570312 204.457031 233.238281 270.789062 233.238281 352.460938 C 233.238281 434.136719 299.570312 500.464844 381.246094 500.464844 C 462.921875 500.464844 529.253906 434.136719 529.253906 352.460938 C 529.253906 270.789062 462.921875 204.457031 381.246094 204.457031 Z M 381.246094 253.792969 C 435.714844 253.792969 479.917969 297.996094 479.917969 352.460938 C 479.917969 406.925781 435.714844 451.132812 381.246094 451.132812 C 326.78125 451.132812 282.574219 406.925781 282.574219 352.460938 C 282.574219 297.996094 326.78125 253.792969 381.246094 253.792969 Z M 381.246094 327.792969 C 394.863281 327.792969 405.914062 338.84375 405.914062 352.460938 C 405.914062 366.078125 416.964844 377.128906 430.582031 377.128906 C 444.199219 377.128906 455.25 366.078125 455.25 352.460938 C 455.25 311.613281 422.097656 278.457031 381.246094 278.457031 C 367.628906 278.457031 356.578125 289.511719 356.578125 303.125 C 356.578125 316.742188 367.628906 327.792969 381.246094 327.792969 Z M 381.246094 327.792969 " fill-opacity="1" fill-rule="evenodd"/></g></svg>