<svg xmlns="http://www.w3.org/2000/svg" xmlns:xlink="http://www.w3.org/1999/xlink" width="1024" zoomAndPan="magnify" viewBox="0 0 768 767.999994" height="1024" preserveAspectRatio="xMidYMid meet" version="1.0"><defs><clipPath id="16ec6ae5fd"><path d="M 21.023438 39 L 747.023438 39 L 747.023438 577 L 21.023438 577 Z M 21.023438 39 " clip-rule="nonzero"/></clipPath></defs><g clip-path="url(#16ec6ae5fd)"><path fill="#f5f5f5" d="M 20.996094 39.28125 L 20.996094 493.582031 L 85.21875 468.625 L 85.21875 136.617188 L 384 347.339844 L 682.828125 136.617188 L 682.828125 512.609375 L 561.308594 512.609375 L 540.945312 576.839844 L 747.050781 576.839844 L 747.050781 39.28125 Z M 384 268.78125 L 149.6875 103.511719 L 618.3125 103.511719 Z M 384 268.78125 " fill-opacity="1" fill-rule="nonzero"/></g><path fill="#f5f5f5" d="M 571.414062 322.109375 L 29.574219 532.632812 L 187.710938 623.445312 L 200.503906 742.914062 C 200.554688 743.160156 200.652344 743.359375 200.652344 743.605469 C 200.753906 744.050781 200.800781 744.496094 200.949219 744.890625 C 201.046875 745.238281 201.148438 745.535156 201.296875 745.832031 C 201.445312 746.226562 201.59375 746.621094 201.789062 747.015625 C 201.988281 747.3125 202.136719 747.558594 202.332031 747.855469 C 202.53125 748.203125 202.777344 748.546875 203.074219 748.894531 C 203.269531 749.140625 203.519531 749.4375 203.816406 749.683594 C 203.964844 749.832031 204.113281 750.03125 204.257812 750.179688 C 204.40625 750.324219 204.554688 750.425781 204.753906 750.523438 L 205.050781 750.820312 C 205.246094 750.96875 205.394531 751.066406 205.59375 751.167969 C 205.839844 751.3125 206.039062 751.460938 206.285156 751.609375 C 206.632812 751.757812 206.976562 751.90625 207.324219 752.105469 C 207.570312 752.203125 207.816406 752.300781 208.0625 752.402344 C 208.410156 752.5 208.804688 752.597656 209.199219 752.699219 C 209.445312 752.746094 209.644531 752.847656 209.890625 752.847656 C 210.484375 752.996094 211.125 753.042969 211.71875 753.042969 C 211.769531 753.042969 211.769531 753.042969 211.769531 753.042969 C 212.507812 753.042969 213.25 752.945312 213.992188 752.796875 L 214.089844 752.796875 L 349.15625 725.96875 C 349.351562 725.917969 349.550781 725.820312 349.746094 725.769531 L 361.605469 723.300781 L 438.964844 767.71875 L 578.230469 328.53125 C 579.515625 324.378906 575.464844 320.574219 571.414062 322.109375 Z M 455.320312 454.816406 L 277.71875 650.867188 C 276.980469 651.363281 276.285156 651.953125 275.644531 652.648438 L 220.265625 715.097656 L 210.535156 623.988281 L 453.09375 452.296875 C 454.726562 451.113281 456.652344 453.335938 455.320312 454.816406 Z M 455.320312 454.816406 " fill-opacity="1" fill-rule="nonzero"/></svg>