<svg xmlns="http://www.w3.org/2000/svg" xmlns:xlink="http://www.w3.org/1999/xlink" width="1024" zoomAndPan="magnify" viewBox="0 0 768 767.999994" height="1024" preserveAspectRatio="xMidYMid meet" version="1.0"><defs><clipPath id="95cea9f1eb"><path d="M 41.625 12 L 694 12 L 694 760 L 41.625 760 Z M 41.625 12 " clip-rule="nonzero"/></clipPath></defs><g clip-path="url(#95cea9f1eb)"><path fill="#f5f5f5" d="M 596.253906 668.34375 L 596.253906 522.003906 C 603.695312 514.992188 611.136719 507.542969 617.703125 499.65625 C 671.105469 437.441406 700.875 357.699219 691.679688 274.453125 C 687.304688 233.265625 673.734375 193.394531 652.722656 157.46875 C 631.710938 121.980469 603.257812 90.871094 569.113281 66.335938 C 459.238281 -11.65625 306.460938 -4.207031 204.027344 82.109375 C 159.816406 119.351562 126.546875 169.734375 110.351562 227.132812 C 110.351562 228.007812 109.914062 228.449219 109.914062 228.886719 C 106.410156 241.59375 103.785156 254.296875 102.035156 267.441406 C 100.28125 280.585938 99.40625 294.167969 99.40625 307.3125 C 99.40625 320.894531 100.28125 334.476562 102.035156 347.621094 C 103.785156 359.453125 105.972656 371.28125 109.039062 383.113281 L 44.6875 483.007812 C 42.5 486.074219 41.625 489.582031 41.625 493.085938 C 41.625 501.847656 48.191406 509.296875 55.195312 513.679688 C 61.324219 517.621094 69.203125 520.25 76.207031 520.25 L 109.914062 520.25 L 109.914062 596.488281 C 109.914062 640.742188 146.246094 677.105469 190.457031 677.105469 L 262.25 677.105469 L 262.25 727.054688 C 262.25 745.019531 277.132812 759.914062 295.082031 759.914062 L 539.78125 759.914062 C 570.863281 759.914062 596.253906 734.503906 596.253906 703.394531 Z M 537.15625 442.261719 C 501.261719 478.1875 451.355469 500.535156 396.636719 500.535156 C 341.480469 500.535156 291.578125 478.1875 255.683594 442.261719 C 219.789062 405.894531 197.460938 356.386719 197.460938 301.179688 C 197.460938 246.410156 219.789062 196.464844 255.683594 160.535156 C 291.578125 124.167969 341.480469 101.824219 396.636719 101.824219 C 451.355469 101.824219 501.261719 124.167969 537.15625 160.535156 C 573.050781 196.464844 595.375 246.410156 595.375 301.179688 C 595.375 356.386719 573.050781 405.894531 537.15625 442.261719 Z M 537.15625 442.261719 " fill-opacity="1" fill-rule="evenodd"/></g><path fill="#f5f5f5" d="M 467.554688 387.933594 C 484.1875 392.75 508.265625 399.761719 519.207031 382.234375 C 521.835938 378.730469 524.898438 372.597656 527.085938 368.652344 C 539.34375 350.691406 518.769531 330.972656 506.953125 319.582031 L 505.636719 318.265625 C 506.511719 312.570312 506.953125 306.875 506.953125 301.179688 C 506.953125 295.484375 506.511719 289.789062 505.636719 284.089844 L 506.953125 282.777344 C 519.644531 270.507812 538.03125 252.984375 527.527344 234.582031 L 520.082031 221.4375 C 510.453125 202.597656 484.1875 209.605469 468.429688 214.425781 C 467.554688 214.425781 466.242188 214.863281 465.804688 215.304688 C 457.046875 207.855469 446.980469 202.160156 436.472656 198.214844 L 436.035156 196.023438 C 431.660156 178.9375 425.53125 154.402344 404.082031 154.402344 L 388.757812 154.402344 C 367.308594 154.402344 361.179688 178.9375 357.242188 196.023438 L 356.367188 198.214844 C 345.859375 202.160156 336.230469 207.855469 327.472656 215.304688 L 325.285156 214.425781 C 308.652344 209.605469 283.699219 202.597656 273.195312 221 C 270.566406 225.378906 267.941406 230.199219 265.3125 234.582031 C 254.808594 252.984375 273.195312 270.507812 285.886719 282.777344 L 287.203125 284.089844 C 285.449219 295.484375 285.449219 306.875 287.203125 318.265625 L 285.886719 319.582031 C 273.195312 331.410156 255.246094 348.9375 264.875 367.339844 C 267.066406 371.71875 270.566406 376.976562 273.195312 381.359375 C 283.699219 399.761719 308.652344 392.75 325.285156 387.933594 L 327.472656 387.492188 C 336.230469 394.503906 345.859375 400.199219 356.367188 404.144531 L 357.242188 406.332031 C 361.179688 423.421875 367.308594 448.394531 388.757812 448.394531 L 404.082031 448.394531 C 425.53125 448.394531 431.660156 423.421875 436.035156 406.332031 L 436.472656 404.144531 C 446.980469 400.199219 457.046875 394.503906 465.804688 387.492188 Z M 469.304688 301.179688 C 469.304688 321.332031 461.425781 339.734375 448.292969 352.878906 C 434.722656 366.023438 416.773438 374.347656 396.636719 374.347656 C 376.503906 374.347656 358.117188 366.023438 344.984375 352.878906 C 331.414062 339.734375 323.535156 321.332031 323.535156 301.179688 C 323.535156 281.023438 331.414062 262.621094 344.984375 249.476562 C 358.117188 236.335938 376.503906 228.007812 396.636719 228.007812 C 416.773438 228.007812 434.722656 236.335938 448.292969 249.476562 C 461.425781 262.621094 469.304688 281.023438 469.304688 301.179688 Z M 469.304688 301.179688 " fill-opacity="1" fill-rule="evenodd"/></svg>