<svg xmlns="http://www.w3.org/2000/svg" xmlns:xlink="http://www.w3.org/1999/xlink" width="500" zoomAndPan="magnify" viewBox="0 0 375 374.999991" height="500" preserveAspectRatio="xMidYMid meet" version="1.0"><defs><clipPath id="4d44da850a"><path d="M 11.496094 11.496094 L 366.996094 11.496094 L 366.996094 366.996094 L 11.496094 366.996094 Z M 11.496094 11.496094 " clip-rule="nonzero"/></clipPath></defs><g clip-path="url(#4d44da850a)"><path stroke-linecap="butt" transform="matrix(1.388672, 0, 0, 1.388672, 11.496354, 11.496386)" fill="none" stroke-linejoin="miter" d="M 241.999829 127.999798 C 241.999829 129.864777 241.954822 131.729756 241.861995 133.594735 C 241.771981 135.456901 241.634147 137.316255 241.451306 139.172795 C 241.268465 141.029335 241.040617 142.883062 240.764949 144.728351 C 240.492093 146.573639 240.174231 148.410489 239.808549 150.2389 C 239.44568 152.070123 239.037804 153.890095 238.58492 155.698816 C 238.129224 157.510349 237.634147 159.307817 237.091249 161.091221 C 236.548352 162.877438 235.96326 164.64959 235.335975 166.404864 C 234.708689 168.162952 234.036397 169.901348 233.32191 171.62568 C 232.607423 173.350012 231.853556 175.054654 231.054681 176.742418 C 230.255806 178.427369 229.41755 180.092629 228.539913 181.738199 C 227.659462 183.383768 226.739631 185.006835 225.780419 186.607397 C 224.821206 188.20796 223.825426 189.783206 222.787451 191.335949 C 221.752289 192.885879 220.677746 194.410492 219.566635 195.909789 C 218.455524 197.409086 217.307844 198.87744 216.123597 200.320478 C 214.939349 201.763516 213.721346 203.175612 212.469588 204.556766 C 211.215017 205.940732 209.929503 207.290943 208.610235 208.610212 C 207.290966 209.92948 205.940755 211.214994 204.556789 212.469565 C 203.175635 213.721323 201.763539 214.939326 200.320501 216.123574 C 198.877463 217.307821 197.409109 218.455501 195.909812 219.566612 C 194.410515 220.677723 192.885902 221.752266 191.335972 222.787428 C 189.783229 223.825403 188.207983 224.821183 186.60742 225.780396 C 185.006858 226.739608 183.383791 227.659439 181.738222 228.53989 C 180.092652 229.417527 178.427392 230.255783 176.742441 231.054658 C 175.054677 231.853533 173.350035 232.6074 171.625703 233.321887 C 169.901371 234.036374 168.162975 234.708666 166.404887 235.335952 C 164.649613 235.963237 162.877461 236.548329 161.091244 237.091226 C 159.30784 237.634124 157.510372 238.129201 155.698839 238.584897 C 153.890118 239.037781 152.070146 239.445657 150.238923 239.808526 C 148.410512 240.174208 146.573662 240.49207 144.728374 240.764926 C 142.883085 241.040594 141.029358 241.268442 139.172818 241.451283 C 137.316278 241.634124 135.456925 241.771958 133.594758 241.861972 C 131.729779 241.954799 129.8648 241.999806 127.999821 241.999806 C 126.134842 241.999806 124.269863 241.954799 122.404884 241.861972 C 120.542718 241.771958 118.683365 241.634124 116.826825 241.451283 C 114.970285 241.268442 113.11937 241.040594 111.274082 240.764926 C 109.42598 240.49207 107.589131 240.174208 105.76072 239.808526 C 103.929496 239.445657 102.109524 239.037781 100.300804 238.584897 C 98.489271 238.129201 96.691802 237.634124 94.908399 237.091226 C 93.122182 236.548329 91.35003 235.963237 89.594755 235.335952 C 87.836668 234.708666 86.098271 234.036374 84.373939 233.321887 C 82.649607 232.6074 80.944966 231.853533 79.260015 231.054658 C 77.572251 230.255783 75.906991 229.417527 74.261421 228.53989 C 72.615851 227.659439 70.992785 226.739608 69.392222 225.780396 C 67.79166 224.821183 66.216413 223.825403 64.663671 222.787428 C 63.113741 221.752266 61.589128 220.677723 60.089831 219.566612 C 58.590534 218.455501 57.122179 217.307821 55.679141 216.123574 C 54.236103 214.939326 52.824008 213.721323 51.442854 212.469565 C 50.058888 211.214994 48.708677 209.92948 47.389408 208.610212 C 46.070139 207.290943 44.784626 205.940732 43.532868 204.556766 C 42.278297 203.175612 41.060294 201.763516 39.876046 200.320478 C 38.694611 198.87744 37.546932 197.409086 36.433008 195.909789 C 35.321897 194.410492 34.250167 192.885879 33.212192 191.335949 C 32.17703 189.783206 31.178436 188.20796 30.219224 186.607397 C 29.260012 185.006835 28.34018 183.383768 27.45973 181.738199 C 26.582093 180.092629 25.743837 178.427369 24.944962 176.742418 C 24.1489 175.054654 23.392219 173.350012 22.677733 171.62568 C 21.963246 169.901348 21.293766 168.162952 20.663668 166.404864 C 20.036382 164.64959 19.451291 162.877438 18.908393 161.091221 C 18.368309 159.307817 17.870419 157.510349 17.417535 155.698816 C 16.961839 153.890095 16.553963 152.070123 16.191094 150.2389 C 15.825411 148.410489 15.507549 146.573639 15.234694 144.728351 C 14.959026 142.883062 14.731178 141.029335 14.548337 139.172795 C 14.365496 137.316255 14.227662 135.456901 14.137648 133.594735 C 14.044821 131.729756 13.999814 129.864777 13.999814 127.999798 C 13.999814 126.134819 14.044821 124.26984 14.137648 122.407674 C 14.227662 120.542695 14.365496 118.683342 14.548337 116.826802 C 14.731178 114.970262 14.959026 113.119347 15.234694 111.274059 C 15.507549 109.425957 15.825411 107.589108 16.191094 105.760697 C 16.553963 103.929473 16.961839 102.109501 17.417535 100.300781 C 17.870419 98.489248 18.368309 96.691779 18.908393 94.908376 C 19.451291 93.122159 20.036382 91.350007 20.663668 89.594732 C 21.293766 87.836645 21.963246 86.098248 22.677733 84.373916 C 23.392219 82.649584 24.1489 80.944943 24.944962 79.259992 C 25.743837 77.572228 26.582093 75.906968 27.45973 74.261398 C 28.34018 72.615828 29.260012 70.992762 30.219224 69.392199 C 31.178436 67.791637 32.17703 66.21639 33.212192 64.663648 C 34.250167 63.113718 35.321897 61.589105 36.433008 60.089808 C 37.546932 58.590511 38.694611 57.122156 39.876046 55.679118 C 41.060294 54.23608 42.278297 52.823984 43.532868 51.442831 C 44.784626 50.058865 46.070139 48.708654 47.389408 47.389385 C 48.708677 46.070116 50.058888 44.784603 51.442854 43.532845 C 52.824008 42.278274 54.236103 41.060271 55.679141 39.876023 C 57.122179 38.694588 58.590534 37.546909 60.089831 36.432985 C 61.589128 35.321874 63.113741 34.250144 64.663671 33.212169 C 66.216413 32.177007 67.79166 31.178413 69.392222 30.219201 C 70.992785 29.259989 72.615851 28.340157 74.261421 27.459707 C 75.906991 26.58207 77.572251 25.743814 79.260015 24.944939 C 80.944966 24.148877 82.649607 23.392196 84.373939 22.67771 C 86.098271 21.963223 87.836668 21.293743 89.594755 20.663645 C 91.35003 20.036359 93.122182 19.451268 94.908399 18.90837 C 96.691802 18.368286 98.489271 17.870396 100.300804 17.417512 C 102.109524 16.961816 103.929496 16.55394 105.76072 16.191071 C 107.589131 15.825388 109.42598 15.507526 111.274082 15.234671 C 113.11937 14.959003 114.970285 14.731155 116.826825 14.548314 C 118.683365 14.365473 120.542718 14.227639 122.404884 14.137625 C 124.269863 14.044798 126.134842 13.999791 127.999821 13.999791 C 129.8648 13.999791 131.729779 14.044798 133.594758 14.137625 C 135.456925 14.227639 137.316278 14.365473 139.172818 14.548314 C 141.029358 14.731155 142.883085 14.959003 144.728374 15.234671 C 146.573662 15.507526 148.410512 15.825388 150.238923 16.191071 C 152.070146 16.55394 153.890118 16.961816 155.698839 17.417512 C 157.510372 17.870396 159.30784 18.368286 161.091244 18.90837 C 162.877461 19.451268 164.649613 20.036359 166.404887 20.663645 C 168.162975 21.293743 169.901371 21.963223 171.625703 22.67771 C 173.350035 23.392196 175.054677 24.148877 176.742441 24.944939 C 178.427392 25.743814 180.092652 26.58207 181.738222 27.459707 C 183.383791 28.340157 185.006858 29.259989 186.60742 30.219201 C 188.207983 31.178413 189.783229 32.177007 191.335972 33.212169 C 192.885902 34.250144 194.410515 35.321874 195.909812 36.432985 C 197.409109 37.546909 198.877463 38.694588 200.320501 39.876023 C 201.763539 41.060271 203.175635 42.278274 204.556789 43.532845 C 205.940755 44.784603 207.290966 46.070116 208.610235 47.389385 C 209.929503 48.708654 211.215017 50.058865 212.469588 51.442831 C 213.721346 52.823984 214.939349 54.23608 216.123597 55.679118 C 217.307844 57.122156 218.455524 58.590511 219.566635 60.089808 C 220.677746 61.589105 221.752289 63.113718 222.787451 64.663648 C 223.825426 66.21639 224.821206 67.791637 225.780419 69.392199 C 226.739631 70.992762 227.659462 72.615828 228.539913 74.261398 C 229.41755 75.906968 230.255806 77.572228 231.054681 79.259992 C 231.853556 80.944943 232.607423 82.649584 233.32191 84.373916 C 234.036397 86.098248 234.708689 87.836645 235.335975 89.594732 C 235.96326 91.350007 236.548352 93.122159 237.091249 94.908376 C 237.634147 96.691779 238.129224 98.489248 238.58492 100.300781 C 239.037804 102.109501 239.44568 103.929473 239.808549 105.760697 C 240.174231 107.589108 240.492093 109.425957 240.764949 111.274059 C 241.040617 113.119347 241.268465 114.970262 241.451306 116.826802 C 241.634147 118.683342 241.771981 120.542695 241.861995 122.407674 C 241.954822 124.26984 241.999829 126.134819 241.999829 127.999798 Z M 241.999829 127.999798 " stroke="#ffffff" stroke-width="20" stroke-opacity="1" stroke-miterlimit="4"/></g><path fill="#ffffff" d="M 147.082031 180.484375 C 185.03125 149.480469 222.152344 117.402344 260.925781 87.308594 C 240.585938 118.558594 219.671875 149.398438 199.332031 180.648438 C 181.886719 180.730469 164.445312 180.730469 147.082031 180.484375 Z M 179.160156 197.761719 C 196.6875 197.761719 214.132812 197.761719 231.574219 198.011719 C 193.378906 228.847656 156.425781 261.171875 117.566406 291.183594 C 137.90625 259.933594 158.820312 229.015625 179.160156 197.761719 Z M 179.160156 197.761719 " fill-opacity="1" fill-rule="nonzero"/></svg>