<svg xmlns="http://www.w3.org/2000/svg" xmlns:xlink="http://www.w3.org/1999/xlink" width="500" zoomAndPan="magnify" viewBox="0 0 375 374.999991" height="500" preserveAspectRatio="xMidYMid meet" version="1.0"><defs><clipPath id="12e9bc856a"><path d="M 7.671875 80 L 365.421875 80 L 365.421875 295 L 7.671875 295 Z M 7.671875 80 " clip-rule="nonzero"/></clipPath></defs><g clip-path="url(#12e9bc856a)"><path fill="#ffffff" d="M 186.550781 80.113281 C 138.785156 80.113281 109.089844 103.902344 97.105469 151.667969 C 114.996094 127.875 135.925781 118.929688 159.71875 124.835938 C 173.3125 128.234375 183.152344 138.074219 193.882812 148.984375 C 211.414062 166.875 231.273438 187.445312 275.996094 187.445312 C 323.757812 187.445312 353.457031 163.652344 365.441406 115.890625 C 347.550781 139.683594 326.621094 148.625 302.828125 142.722656 C 289.234375 139.324219 279.574219 129.484375 268.660156 118.574219 C 251.128906 100.683594 231.273438 80.113281 186.550781 80.113281 Z M 97.105469 187.445312 C 49.339844 187.445312 19.644531 211.238281 7.660156 259.003906 C 25.546875 235.210938 46.480469 226.265625 70.269531 232.167969 C 83.867188 235.566406 93.527344 245.40625 104.441406 256.320312 C 121.972656 274.207031 141.828125 294.78125 186.550781 294.78125 C 234.3125 294.78125 264.011719 270.988281 275.996094 223.222656 C 258.105469 247.019531 237.175781 255.960938 213.382812 250.058594 C 199.789062 246.660156 190.128906 236.820312 179.214844 225.910156 C 161.683594 208.019531 141.828125 187.445312 97.105469 187.445312 Z M 97.105469 187.445312 " fill-opacity="1" fill-rule="nonzero"/></g></svg>