<svg v-else-if="icon == 'web'" xmlns="http://www.w3.org/2000/svg" xmlns:xlink="http://www.w3.org/1999/xlink" width="1024" zoomAndPan="magnify" viewBox="0 0 768 767.999994" height="1024" preserveAspectRatio="xMidYMid meet" version="1.0"><defs><clipPath id="1810b3f28e"><path d="M 5.1875 32.789062 L 762.6875 32.789062 L 762.6875 761.789062 L 5.1875 761.789062 Z M 5.1875 32.789062 " clip-rule="nonzero"/></clipPath></defs><g clip-path="url(#1810b3f28e)"><path 
:class="{ white: color == 'white', accent: color == 'accent' }"fill="#f5f5f5" d="M 33.410156 607.574219 L 33.410156 229.058594 L 692.402344 229.058594 C 700.113281 229.058594 706.425781 222.75 706.425781 215.039062 L 706.425781 102.882812 C 706.425781 64.332031 674.875 32.789062 636.320312 32.789062 L 75.472656 32.789062 C 36.914062 32.789062 5.367188 64.332031 5.367188 102.882812 L 5.367188 607.574219 C 5.367188 646.128906 36.914062 677.671875 75.472656 677.671875 L 271.769531 677.671875 L 271.769531 649.632812 L 75.472656 649.632812 C 52.339844 649.632812 33.410156 630.707031 33.410156 607.574219 Z M 33.410156 102.882812 C 33.410156 79.75 52.339844 60.824219 75.472656 60.824219 L 636.320312 60.824219 C 659.453125 60.824219 678.382812 79.75 678.382812 102.882812 L 678.382812 201.019531 L 33.410156 201.019531 Z M 103.515625 116.902344 L 201.664062 116.902344 L 201.664062 144.941406 L 103.515625 144.941406 Z M 229.707031 116.902344 L 327.855469 116.902344 L 327.855469 144.941406 L 229.707031 144.941406 Z M 538.171875 313.171875 C 414.785156 313.171875 313.832031 414.109375 313.832031 537.480469 C 313.832031 660.847656 414.785156 761.789062 538.171875 761.789062 C 661.554688 761.789062 762.507812 660.847656 762.507812 537.480469 C 762.507812 414.109375 661.554688 313.171875 538.171875 313.171875 Z M 721.144531 467.382812 L 632.113281 467.382812 C 625.101562 417.617188 611.78125 376.257812 592.851562 348.921875 C 651.742188 366.445312 699.414062 410.605469 721.144531 467.382812 Z M 734.464844 537.480469 C 734.464844 552.199219 733.0625 566.21875 729.558594 579.539062 L 634.917969 579.539062 C 635.617188 566.21875 636.320312 552.199219 636.320312 537.480469 C 636.320312 522.757812 635.617188 508.742188 634.917969 495.421875 L 729.558594 495.421875 C 733.0625 508.742188 734.464844 522.757812 734.464844 537.480469 Z M 538.171875 733.75 C 512.230469 733.75 484.1875 684.683594 472.972656 607.574219 L 603.367188 607.574219 C 592.152344 684.683594 564.109375 733.75 538.171875 733.75 Z M 469.46875 579.539062 C 468.066406 566.21875 468.066406 552.199219 468.066406 537.480469 C 468.066406 522.757812 468.765625 508.742188 469.46875 495.421875 L 606.171875 495.421875 C 607.574219 508.742188 607.574219 522.757812 607.574219 537.480469 C 607.574219 552.199219 606.875 566.21875 606.171875 579.539062 Z M 341.875 537.480469 C 341.875 522.757812 343.277344 508.742188 346.78125 495.421875 L 442.125 495.421875 C 441.425781 508.742188 440.722656 522.757812 440.722656 537.480469 C 440.722656 552.199219 441.425781 566.21875 442.125 579.539062 L 346.78125 579.539062 C 343.277344 566.21875 341.875 552.199219 341.875 537.480469 Z M 538.171875 341.210938 C 564.109375 341.210938 592.152344 390.277344 603.367188 467.382812 L 472.972656 467.382812 C 484.1875 390.277344 512.230469 341.210938 538.171875 341.210938 Z M 483.488281 348.921875 C 465.261719 376.257812 451.238281 417.617188 444.230469 467.382812 L 354.492188 467.382812 C 376.929688 410.605469 424.597656 366.445312 483.488281 348.921875 Z M 354.492188 607.574219 L 444.230469 607.574219 C 451.238281 657.34375 464.558594 698.699219 483.488281 726.039062 C 424.597656 708.515625 376.929688 664.355469 354.492188 607.574219 Z M 592.851562 726.039062 C 611.082031 698.699219 625.101562 657.34375 632.113281 607.574219 L 721.847656 607.574219 C 699.414062 664.355469 651.742188 708.515625 592.851562 726.039062 Z M 131.558594 285.132812 C 123.847656 285.132812 117.535156 291.441406 117.535156 299.152344 L 117.535156 411.308594 C 117.535156 419.015625 123.847656 425.324219 131.558594 425.324219 L 243.726562 425.324219 C 251.4375 425.324219 257.75 419.015625 257.75 411.308594 L 257.75 299.152344 C 257.75 291.441406 251.4375 285.132812 243.726562 285.132812 Z M 229.707031 397.289062 L 145.578125 397.289062 L 145.578125 313.171875 L 229.707031 313.171875 Z M 103.515625 481.402344 L 271.769531 481.402344 L 271.769531 509.441406 L 103.515625 509.441406 Z M 103.515625 565.519531 L 271.769531 565.519531 L 271.769531 593.558594 L 103.515625 593.558594 Z M 103.515625 565.519531 " fill-opacity="1" fill-rule="nonzero"/></g></svg>