<svg 
v-else-if="icon == 'test'"

xmlns="http://www.w3.org/2000/svg" xmlns:xlink="http://www.w3.org/1999/xlink" width="1024" zoomAndPan="magnify" viewBox="0 0 768 767.999994" height="1024" preserveAspectRatio="xMidYMid meet" version="1.0"><defs><clipPath id="d0edf8d914"><path :class="{ white: color == 'white', accent: color == 'accent' }"  d="M 83 11 L 685 11 L 685 757.203125 L 83 757.203125 Z M 83 11 " clip-rule="nonzero"/></clipPath></defs><g clip-path="url(#d0edf8d914)"><path :class="{ white: color == 'white', accent: color == 'accent' }" fill="#ffffff" d="M 683.472656 55.347656 C 682.695312 54.863281 681.71875 54.847656 680.8125 54.96875 C 674.234375 55.851562 669.796875 62.804688 663.253906 63.910156 C 663.597656 61.621094 664.523438 59.460938 665.445312 57.332031 C 671.222656 44.007812 677.214844 30.777344 683.414062 17.648438 C 684.347656 15.675781 685.0625 12.847656 683.207031 11.703125 C 682.085938 11.011719 680.554688 11.457031 679.597656 12.359375 C 678.636719 13.261719 678.113281 14.515625 677.570312 15.714844 C 674.078125 23.464844 669.027344 30.394531 664.011719 37.265625 C 660.878906 41.554688 657.722656 45.875 653.816406 49.472656 C 649.171875 53.761719 643.558594 56.941406 639.125 61.449219 C 636.324219 64.292969 634.050781 67.609375 631.375 70.570312 C 625.4375 77.148438 617.503906 81.898438 608.90625 84.023438 C 587.1875 89.398438 564.921875 93.476562 543.011719 97.992188 C 533.738281 99.902344 524.386719 101.835938 515.722656 105.660156 C 506.445312 109.757812 498.121094 116 491.589844 123.761719 C 482.03125 135.125 463.269531 132.332031 450.449219 139.816406 C 447.074219 141.785156 443.910156 144.183594 440.253906 145.554688 C 436.285156 147.050781 431.96875 147.25 427.765625 147.8125 C 412.359375 149.875 397.703125 157.160156 386.757812 168.195312 C 385.085938 159.835938 389.160156 151.378906 387.816406 142.957031 C 387.675781 142.070312 387.449219 141.160156 386.890625 140.460938 C 386.429688 139.886719 385.773438 139.488281 385.351562 138.890625 C 384.734375 138.015625 384.707031 136.875 384.683594 135.808594 C 384.445312 125.402344 382.375 115.042969 378.597656 105.347656 C 377.753906 103.1875 376.820312 101.046875 375.523438 99.128906 C 374.519531 97.640625 373.304688 96.304688 372.015625 95.050781 C 362.96875 86.273438 347.402344 81.78125 334.800781 81.65625 C 323.367188 81.546875 312.015625 87.101562 305.085938 96.199219 C 295.871094 108.292969 295 124.5625 294.21875 139.746094 C 294.164062 140.773438 294.109375 141.808594 293.820312 142.792969 C 293.472656 143.976562 292.800781 145.035156 292.320312 146.171875 C 290.746094 149.894531 291.300781 154.148438 292.191406 158.085938 C 293.382812 163.363281 295.136719 168.515625 297.402344 173.425781 C 297.867188 174.433594 298.421875 175.5 299.417969 175.984375 C 300.152344 176.339844 301.011719 176.320312 301.785156 176.574219 C 303.734375 177.214844 304.722656 179.441406 304.839844 181.488281 C 304.957031 183.535156 304.4375 185.574219 304.464844 187.625 C 304.519531 191.570312 306.558594 195.167969 308.238281 198.742188 C 309.914062 202.316406 311.285156 206.425781 309.96875 210.144531 C 308.527344 214.214844 304.148438 216.933594 303.4375 221.1875 C 300.296875 223.90625 296.472656 226.554688 293.328125 229.273438 C 291.316406 231.011719 289.300781 232.757812 287.472656 234.691406 C 285.765625 236.496094 284.226562 238.457031 282.695312 240.417969 L 268.976562 257.929688 C 264.890625 263.144531 259.300781 272.347656 256.566406 278.378906 C 256.53125 278.460938 256.492188 278.542969 256.457031 278.625 C 250.304688 292.207031 247.265625 306.96875 247.386719 321.878906 C 247.5 335.703125 246.558594 349.535156 244.570312 363.214844 C 243.207031 372.617188 244.390625 383.402344 239.371094 391.46875 C 237.5625 394.375 234.984375 396.703125 232.496094 399.054688 C 218.773438 412 206.757812 426.753906 196.859375 442.816406 C 188.460938 456.433594 174.929688 467.164062 167.703125 481.441406 C 165.722656 485.351562 164.003906 489.429688 161.414062 492.960938 C 159.832031 495.121094 157.933594 497.0625 156.640625 499.40625 C 154.96875 502.449219 154.425781 505.964844 153.816406 509.386719 C 152.316406 517.808594 150.25 526.125 147.632812 534.269531 C 143.066406 548.46875 136.84375 562.429688 134.90625 577.21875 C 134.308594 581.792969 134.058594 586.40625 133.808594 591.011719 C 132.21875 620.488281 130.625 649.964844 129.03125 679.445312 C 129.796875 680.0625 128.703125 681.214844 127.976562 681.875 C 127.25 682.53125 126.257812 682.816406 125.449219 683.363281 C 123.21875 684.871094 122.761719 687.964844 121.050781 690.039062 C 118.707031 692.886719 114.378906 693.414062 111.941406 696.183594 C 109.925781 698.476562 109.652344 701.753906 108.984375 704.734375 C 106.492188 715.875 97.730469 724.347656 89.484375 732.238281 C 87.117188 734.5 84.65625 736.949219 83.859375 740.128906 C 82.839844 744.203125 84.796875 748.394531 84.941406 752.59375 C 84.96875 753.308594 84.953125 754.078125 85.347656 754.679688 C 85.433594 754.8125 85.539062 754.929688 85.65625 755.035156 C 87.40625 756.628906 89.875 757.179688 92.238281 757.140625 L 124.371094 756.636719 C 127.117188 756.59375 129.914062 756.542969 132.507812 755.648438 C 136.742188 754.1875 139.929688 750.671875 143.914062 748.628906 C 148.714844 746.164062 154.328125 745.980469 159.515625 744.511719 C 164.707031 743.039062 170.0625 739.40625 170.519531 734.03125 C 170.8125 730.574219 169.007812 727.34375 167.542969 724.203125 C 163.570312 715.671875 161.828125 706.113281 162.53125 696.730469 C 162.648438 695.144531 162.816406 693.445312 162.039062 692.058594 C 161.457031 691.011719 160.414062 690.292969 159.742188 689.300781 C 158.617188 687.648438 158.667969 685.484375 158.855469 683.496094 C 161.113281 659.398438 176.8125 638.972656 185.710938 616.464844 C 194.195312 595.007812 191.894531 570.402344 196.25 547.742188 C 196.804688 544.851562 197.449219 541.9375 198.828125 539.335938 C 199 539.542969 198.917969 539.398438 198.835938 539.140625 C 198.75 538.886719 198.972656 538.644531 199.175781 538.46875 C 208.503906 530.351562 217.828125 522.230469 227.15625 514.109375 C 229.546875 512.03125 232.101562 509.867188 235.222656 509.308594 C 240.917969 508.289062 245.777344 512.773438 250.992188 515.519531 C 253.625 516.90625 256.191406 520.519531 256.726562 523.449219 C 260.292969 543.015625 263.152344 562.707031 265.296875 582.480469 C 265.613281 585.378906 265.914062 588.308594 265.597656 591.210938 C 264.796875 598.5625 260.105469 605.640625 261.824219 612.832031 C 249.664062 613.300781 237.6875 622.265625 234.613281 634.042969 C 233.550781 638.105469 233.398438 642.351562 233.546875 646.546875 C 233.667969 650.09375 234.011719 653.683594 235.28125 656.992188 C 236.363281 659.816406 238.085938 662.347656 239.878906 664.78125 C 244.492188 671.046875 249.691406 676.878906 255.390625 682.179688 C 252.480469 689.765625 251.320312 699.246094 253.917969 706.941406 C 255.648438 712.070312 258.386719 716.804688 261.765625 721.042969 C 264.765625 724.800781 269.292969 727.023438 274.101562 727.023438 L 301.460938 727.023438 C 306.03125 727.023438 310.410156 725.058594 313.355469 721.566406 C 315.523438 718.996094 317.429688 716.261719 318.894531 713.101562 C 323.699219 702.757812 322.359375 689.824219 315.535156 680.683594 C 321.738281 673.367188 328.472656 665.015625 332.1875 656.171875 C 335.902344 647.328125 336.820312 636.824219 332.402344 628.3125 C 330.398438 624.449219 327.421875 621.195312 324.480469 617.988281 C 324.207031 615.402344 323.417969 613.160156 323.144531 610.578125 C 322.847656 607.773438 322.542969 604.925781 321.457031 602.320312 C 318.984375 596.417969 313.011719 592.84375 307.339844 589.910156 C 304.015625 588.1875 300.382812 583.84375 299.0625 580.339844 C 298.226562 578.125 296.792969 575.839844 296.617188 573.660156 C 295.820312 563.695312 295.023438 553.726562 294.226562 543.761719 C 293.957031 540.429688 293.691406 537.085938 293.792969 533.738281 C 293.953125 528.457031 295.035156 523.253906 295.753906 518.015625 C 297.328125 506.5625 297.175781 494.871094 295.308594 483.460938 C 295.113281 482.273438 294.902344 481.042969 295.226562 479.886719 C 295.546875 478.742188 296.347656 477.808594 297.128906 476.917969 L 307.234375 465.328125 C 309.601562 462.617188 314.480469 460.414062 318.078125 460.375 C 333.070312 460.214844 348.488281 466.910156 362.710938 462.085938 C 366.230469 460.890625 369.585938 459 373.289062 458.664062 C 376.992188 458.328125 381.316406 460.246094 381.984375 463.90625 C 390.105469 468.5 395.734375 475.8125 401.546875 483.113281 C 406.296875 489.074219 411.042969 495.035156 415.789062 501 C 418.480469 504.378906 421.8125 508.074219 426.128906 507.980469 C 428.640625 507.925781 430.910156 506.550781 432.988281 505.140625 C 438.746094 501.238281 444.085938 496.710938 448.878906 491.671875 C 458.898438 497.363281 468.96875 502.660156 478.988281 508.351562 C 482.070312 510.101562 485.179688 511.878906 487.738281 514.328125 C 492.667969 519.058594 495.074219 525.921875 495.851562 532.714844 C 496.628906 539.503906 495.945312 546.367188 495.613281 553.191406 C 495.199219 561.585938 495.308594 570.007812 495.945312 578.390625 C 496.511719 585.835938 497.503906 593.3125 499.949219 600.371094 C 501.703125 605.421875 504.171875 610.183594 506.40625 615.039062 C 515.628906 635.117188 520.800781 657.046875 521.511719 679.132812 C 521.820312 688.761719 516.917969 698.011719 516.339844 707.628906 C 516.132812 711.0625 516.722656 714.535156 516.195312 717.933594 C 515.417969 722.921875 512.28125 727.449219 512.292969 732.5 C 512.296875 734.382812 512.851562 736.410156 514.355469 737.542969 C 515.3125 738.265625 516.527344 738.53125 517.695312 738.785156 C 523.324219 740.011719 529.28125 741.636719 533.074219 745.96875 C 534.105469 747.144531 534.945312 748.492188 536.09375 749.554688 C 538.75 752.011719 542.605469 752.5625 546.207031 752.894531 C 557.824219 753.964844 569.542969 753.929688 581.164062 752.84375 C 584.921875 752.492188 589.441406 751.425781 590.539062 747.8125 C 590.878906 746.707031 590.8125 745.523438 590.742188 744.375 C 590.273438 737.019531 589.3125 729.226562 584.675781 723.503906 C 581.453125 719.527344 576.769531 716.980469 573.34375 713.171875 C 569.035156 708.382812 567.046875 702 565.222656 695.820312 C 564.398438 693.039062 563.542969 690.171875 561.730469 687.902344 C 560.824219 686.765625 559.703125 685.8125 558.804688 684.671875 C 556.675781 681.980469 555.867188 678.371094 553.425781 676.085938 C 552.839844 674.410156 552.347656 672.996094 551.761719 671.320312 C 552.511719 665.109375 552.363281 658.503906 552.429688 652.246094 C 552.492188 646.171875 552.234375 640.101562 552.171875 634.027344 C 552.023438 620.390625 552.851562 606.765625 553.679688 593.152344 C 555.195312 568.109375 551.5 543.058594 543.152344 519.398438 C 539.542969 509.171875 537.359375 498.566406 537.546875 487.574219 C 537.621094 483.425781 536.988281 479.269531 535.285156 475.484375 C 527.214844 457.535156 511.351562 445.125 501.867188 427.894531 C 495.542969 416.402344 481.808594 410.484375 474.035156 399.917969 C 471.898438 397.011719 469.96875 393.949219 467.695312 391.144531 C 460.296875 382.019531 449.132812 375.359375 445.507812 364.183594 C 445 362.613281 444.648438 360.972656 443.859375 359.523438 C 441.195312 354.636719 434.757812 353.597656 429.21875 353.109375 C 428.949219 352.25 427.410156 352.3125 426.53125 352.125 C 425.355469 351.875 425.128906 350.3125 425.167969 349.113281 C 425.515625 338.203125 426.085938 327.300781 426.875 316.410156 C 427.523438 307.4375 428.324219 298.460938 428.371094 289.460938 C 428.417969 280.09375 427.644531 270.746094 426.878906 261.410156 C 425.152344 240.484375 433.253906 221.230469 435.105469 200.3125 C 437.800781 198.03125 441.460938 198.375 444.878906 197.480469 C 457.878906 194.074219 468.035156 184.273438 479.113281 176.664062 C 491.507812 168.15625 505.453125 162.21875 519.289062 156.339844 C 547.355469 144.410156 574.363281 129.585938 600.003906 113.078125 C 602.820312 111.261719 605.652344 109.472656 608.589844 107.863281 C 612.019531 105.988281 615.578125 104.371094 619.132812 102.75 C 625.285156 99.953125 631.433594 97.15625 637.582031 94.363281 C 640.980469 92.816406 644.359375 92.550781 647.929688 91.453125 C 657.921875 88.382812 663.304688 77.613281 671.976562 71.78125 C 674.648438 69.984375 677.632812 68.664062 680.183594 66.699219 C 682.734375 64.738281 684.898438 61.898438 684.949219 58.675781 C 684.957031 57.414062 684.554688 56.019531 683.472656 55.347656 Z M 294.832031 638.390625 C 295.246094 638.070312 295.566406 637.640625 295.996094 637.339844 C 297.152344 636.535156 298.765625 636.917969 300.003906 637.597656 C 301.242188 638.277344 302.367188 639.226562 303.742188 639.550781 C 305.859375 640.050781 308.089844 638.894531 309.480469 637.222656 C 310.875 635.550781 311.59375 633.4375 312.289062 631.375 C 314.652344 632.367188 316.394531 634.53125 317.320312 636.925781 C 318.246094 639.316406 318.441406 641.929688 318.394531 644.496094 C 318.351562 646.917969 318.09375 649.355469 317.316406 651.648438 C 316.039062 655.410156 313.441406 658.554688 310.894531 661.609375 C 309.449219 663.34375 308.003906 665.078125 306.558594 666.808594 C 300.957031 661.152344 292.730469 658.363281 284.792969 658.945312 C 276.851562 659.53125 269.289062 663.351562 263.722656 669.042969 C 260.167969 664.566406 256.613281 660.085938 253.058594 655.605469 C 251.542969 653.695312 250.007812 651.75 249.082031 649.492188 C 247.285156 645.117188 248.078125 639.878906 250.738281 635.96875 C 252.863281 632.847656 256.886719 629.539062 260.753906 628.945312 C 263.140625 628.578125 263.050781 629.597656 264.339844 631.519531 C 265.546875 633.324219 267.007812 634.960938 268.660156 636.367188 C 270.144531 637.632812 272.527344 638.660156 273.871094 637.242188 C 274.214844 636.878906 274.425781 636.394531 274.808594 636.070312 C 275.75 635.277344 277.179688 635.785156 278.261719 636.375 C 280.238281 637.457031 282.671875 638.71875 284.582031 637.523438 C 285.089844 637.207031 285.507812 636.730469 286.066406 636.515625 C 287.453125 635.980469 288.8125 637.207031 290.042969 638.03125 C 291.46875 638.984375 293.476562 639.429688 294.832031 638.390625 Z M 294.832031 638.390625 " fill-opacity="1" fill-rule="nonzero"/></g></svg>