<svg xmlns="http://www.w3.org/2000/svg" xmlns:xlink="http://www.w3.org/1999/xlink" width="1024" zoomAndPan="magnify" viewBox="0 0 768 767.999994" height="1024" preserveAspectRatio="xMidYMid meet" version="1.0"><defs><clipPath id="2ffe9a3c6c"><path d="M 40 61 L 730 61 L 730 750.757812 L 40 750.757812 Z M 40 61 " clip-rule="nonzero"/></clipPath></defs><path fill="#bc5f04" d="M 751.207031 60.023438 L 699.449219 25.824219 C 686.148438 17.027344 666.761719 22.902344 656.164062 38.941406 L 432.847656 376.796875 C 427.46875 384.9375 425.417969 394.128906 426.417969 402.363281 L 418.996094 455.996094 L 410.199219 519.707031 L 465.363281 486.628906 L 511.792969 458.785156 C 519.761719 456.480469 527.417969 450.988281 532.800781 442.839844 L 756.113281 104.980469 C 766.707031 88.945312 764.515625 68.8125 751.207031 60.023438 Z M 491.769531 381.957031 C 482.640625 395.773438 472.179688 404.933594 468.394531 402.425781 L 453.6875 392.714844 C 449.90625 390.207031 454.230469 376.996094 463.359375 363.175781 L 655.589844 72.335938 C 664.722656 58.519531 675.191406 49.359375 678.972656 51.859375 L 693.683594 61.585938 C 697.46875 64.085938 693.136719 77.300781 684.011719 91.113281 Z M 534.152344 409.96875 C 525.019531 423.78125 514.550781 432.945312 510.78125 430.4375 L 496.0625 420.714844 C 492.273438 418.21875 496.605469 404.996094 505.738281 391.183594 L 697.976562 100.339844 C 707.105469 86.53125 717.570312 77.367188 721.355469 79.867188 L 736.058594 89.59375 C 739.84375 92.085938 735.511719 105.308594 726.390625 119.117188 Z M 534.152344 409.96875 " fill-opacity="1" fill-rule="nonzero"/><g clip-path="url(#2ffe9a3c6c)"><path fill="#f5f5f5" d="M 668.703125 305.144531 L 668.703125 665.660156 C 668.703125 678.789062 658.070312 689.421875 644.941406 689.421875 L 125.46875 689.421875 C 112.351562 689.421875 101.707031 678.789062 101.707031 665.660156 L 101.707031 146.25 C 101.707031 133.136719 112.351562 122.492188 125.46875 122.492188 L 561.601562 122.492188 L 601.9375 61.464844 L 69.558594 61.464844 C 53.609375 61.464844 40.675781 74.398438 40.675781 90.34375 L 40.675781 721.574219 C 40.675781 737.527344 53.609375 750.453125 69.558594 750.453125 L 700.855469 750.453125 C 716.808594 750.453125 729.734375 737.527344 729.734375 721.574219 L 729.734375 212.816406 Z M 668.703125 305.144531 " fill-opacity="1" fill-rule="nonzero"/></g><path fill="#f5f5f5" d="M 502.214844 212.460938 C 502.214844 228.410156 489.289062 241.339844 473.332031 241.339844 L 169.847656 241.339844 C 153.902344 241.339844 140.96875 228.410156 140.96875 212.460938 L 140.96875 195.933594 C 140.96875 179.988281 153.902344 167.054688 169.847656 167.054688 L 473.332031 167.054688 C 489.289062 167.054688 502.214844 179.988281 502.214844 195.933594 Z M 502.214844 212.460938 " fill-opacity="1" fill-rule="nonzero"/><path fill="#f5f5f5" d="M 426.992188 328.175781 C 426.992188 344.125 416.753906 357.054688 404.121094 357.054688 L 163.835938 357.054688 C 151.203125 357.054688 140.96875 344.125 140.96875 328.175781 L 140.96875 311.648438 C 140.96875 295.699219 151.203125 282.769531 163.835938 282.769531 L 404.121094 282.769531 C 416.753906 282.769531 426.992188 295.699219 426.992188 311.648438 Z M 426.992188 328.175781 " fill-opacity="1" fill-rule="nonzero"/><path fill="#f5f5f5" d="M 385.207031 441.25 C 385.207031 457.203125 376.464844 470.128906 365.679688 470.128906 L 160.496094 470.128906 C 149.714844 470.128906 140.972656 457.203125 140.972656 441.25 L 140.972656 424.726562 C 140.972656 408.78125 149.71875 395.847656 160.496094 395.847656 L 365.675781 395.847656 C 376.460938 395.847656 385.199219 408.78125 385.199219 424.726562 L 385.199219 441.25 Z M 385.207031 441.25 " fill-opacity="1" fill-rule="nonzero"/><path fill="#f5f5f5" d="M 385.207031 556.953125 C 385.207031 572.90625 376.460938 585.832031 365.675781 585.832031 L 160.496094 585.832031 C 149.714844 585.832031 140.972656 572.90625 140.972656 556.953125 L 140.972656 540.429688 C 140.972656 524.484375 149.71875 511.550781 160.496094 511.550781 L 365.675781 511.550781 C 376.460938 511.550781 385.207031 524.484375 385.207031 540.429688 Z M 385.207031 556.953125 " fill-opacity="1" fill-rule="nonzero"/></svg>