<svg 
v-else-if="icon == 'test'"
:class="{ sm: size == 'sm', md: size == 'md' }"
xmlns="http://www.w3.org/2000/svg" xmlns:xlink="http://www.w3.org/1999/xlink" width="1024" zoomAndPan="magnify" viewBox="0 0 768 767.999994" height="1024" preserveAspectRatio="xMidYMid meet" version="1.0">
  <defs>
    <clipPath id="4e7d3b67e3">
      <path d="M 18 57.492188 L 768 57.492188 L 768 632 L 18 632 Z M 18 57.492188 " clip-rule="nonzero"/>
    </clipPath>
  </defs>
  <g clip-path="url(#4e7d3b67e3)">
     <path :class="{ white: color == 'white', accent: color == 'accent' }" fill="#f5f5f5" d="M 114.429688 108.089844 C 90.347656 108.089844 70.828125 127.617188 70.828125 151.707031 L 70.828125 535.550781 C 70.828125 559.640625 90.347656 579.167969 114.429688 579.167969 L 672.5 579.167969 C 696.578125 579.167969 716.097656 559.640625 716.097656 535.550781 L 716.097656 151.707031 C 716.097656 127.617188 696.578125 108.089844 672.5 108.089844 L 655.058594 108.089844 C 640.613281 108.089844 628.898438 96.375 628.898438 81.917969 C 628.898438 67.464844 640.613281 55.75 655.058594 55.75 L 672.5 55.75 C 725.472656 55.75 768.417969 98.710938 768.417969 151.707031 L 768.417969 535.550781 C 768.417969 588.550781 725.472656 631.511719 672.5 631.511719 L 114.429688 631.511719 C 61.453125 631.511719 18.511719 588.550781 18.511719 535.550781 L 18.511719 151.707031 C 18.511719 98.710938 61.453125 55.75 114.429688 55.75 L 515.542969 55.75 C 529.988281 55.75 541.699219 67.464844 541.699219 81.917969 C 541.699219 96.375 529.988281 108.089844 515.542969 108.089844 Z M 114.429688 108.089844 " fill-opacity="1" fill-rule="evenodd"/>
  </g>
  <path :class="{ white: color == 'white', accent: color == 'accent' }" fill="#f5f5f5" d="M 311.625 198.285156 C 320.277344 193.777344 330.714844 194.460938 338.707031 200.058594 L 513.101562 322.191406 C 520.097656 327.085938 524.261719 335.089844 524.261719 343.628906 C 524.261719 352.167969 520.097656 360.171875 513.101562 365.070312 L 338.707031 487.199219 C 330.714844 492.796875 320.277344 493.480469 311.625 488.972656 C 302.972656 484.46875 297.546875 475.519531 297.546875 465.761719 L 297.546875 221.5 C 297.546875 211.738281 302.972656 202.792969 311.625 198.285156 Z M 349.863281 271.765625 L 349.863281 415.496094 L 452.484375 343.628906 Z M 349.863281 271.765625 " fill-opacity="1" fill-rule="evenodd"/>
  
  <path :class="{ white: color == 'white', accent: color == 'accent' }" fill="#f5f5f5" d="M 158.027344 692.578125 C 158.027344 678.125 169.738281 666.40625 184.1875 666.40625 L 602.738281 666.40625 C 617.1875 666.40625 628.898438 678.125 628.898438 692.578125 C 628.898438 707.03125 617.1875 718.75 602.738281 718.75 L 184.1875 718.75 C 169.738281 718.75 158.027344 707.03125 158.027344 692.578125 Z M 158.027344 692.578125 " fill-opacity="1" fill-rule="evenodd"/>
  
  </svg>