<svg xmlns="http://www.w3.org/2000/svg" xmlns:xlink="http://www.w3.org/1999/xlink" width="1080" zoomAndPan="magnify" viewBox="0 0 810 809.999993" height="1080" preserveAspectRatio="xMidYMid meet" version="1.0"><defs><clipPath id="d75684a987"><path d="M 24 13.613281 L 800.71875 13.613281 L 800.71875 790.613281 L 24 790.613281 Z M 24 13.613281 " clip-rule="nonzero"/></clipPath></defs><rect x="-81" width="972" fill="#ffffff" y="-80.999999" height="971.999992" fill-opacity="1"/><rect x="-81" width="972" fill="#150026" y="-80.999999" height="971.999992" fill-opacity="1"/><path fill="#f5f5f5" d="M 462.078125 488.339844 C 441.882812 488.339844 425.460938 504.765625 425.460938 524.925781 L 425.460938 569.210938 C 425.460938 589.40625 441.882812 605.832031 462.078125 605.832031 C 482.265625 605.832031 498.667969 589.40625 498.667969 569.210938 L 498.667969 524.925781 C 498.667969 504.765625 482.265625 488.339844 462.078125 488.339844 " fill-opacity="1" fill-rule="nonzero"/><path fill="#f5f5f5" d="M 646.261719 258.664062 L 178.144531 258.664062 L 178.144531 383.128906 L 646.261719 383.128906 L 646.261719 258.664062 " fill-opacity="1" fill-rule="nonzero"/><path fill="#f5f5f5" d="M 605.726562 66.503906 L 149.527344 66.503906 C 109.496094 66.503906 76.925781 102.410156 76.925781 142.441406 L 605.726562 142.441406 L 605.726562 66.503906 " fill-opacity="1" fill-rule="nonzero"/><path fill="#f5f5f5" d="M 187.988281 508.234375 C 187.988281 497.277344 179.085938 488.339844 168.089844 488.339844 L 144.410156 488.339844 L 144.410156 528.089844 L 168.089844 528.089844 C 179.0625 528.089844 187.988281 519.183594 187.988281 508.234375 " fill-opacity="1" fill-rule="nonzero"/><path fill="#f5f5f5" d="M 106.460938 469.367188 C 106.460938 458.894531 114.957031 450.382812 125.4375 450.382812 L 168.089844 450.382812 C 199.980469 450.382812 225.941406 476.347656 225.941406 508.210938 C 225.941406 523.160156 220.230469 536.800781 210.882812 547.070312 C 220.230469 557.347656 225.941406 570.988281 225.941406 585.941406 C 225.941406 617.84375 200.003906 643.785156 168.089844 643.785156 L 125.4375 643.785156 C 114.957031 643.785156 106.460938 635.277344 106.460938 624.808594 Z M 140.1875 239.6875 C 140.1875 229.207031 148.691406 220.707031 159.167969 220.707031 L 665.238281 220.707031 C 675.714844 220.707031 684.214844 229.207031 684.214844 239.6875 L 684.214844 402.105469 C 684.214844 412.582031 675.714844 421.089844 665.238281 421.089844 L 159.167969 421.089844 C 148.691406 421.089844 140.1875 412.582031 140.1875 402.105469 Z M 704.539062 482.269531 C 718.886719 502.765625 687.917969 524.652344 673.410156 503.984375 C 666.554688 494.1875 655.375 488.339844 643.402344 488.339844 C 623.207031 488.339844 606.816406 504.765625 606.816406 524.925781 L 606.816406 569.210938 C 606.816406 589.40625 623.207031 605.832031 643.402344 605.832031 C 656.640625 605.832031 668.253906 598.746094 674.675781 588.1875 L 643.402344 588.1875 C 618.273438 588.1875 618.296875 550.234375 643.402344 550.234375 L 698.972656 550.234375 C 709.449219 550.234375 717.945312 558.738281 717.945312 569.210938 C 717.945312 610.332031 684.523438 643.785156 643.402344 643.785156 C 602.28125 643.785156 568.859375 610.332031 568.859375 569.210938 L 568.859375 524.925781 C 568.859375 483.84375 602.28125 450.382812 643.402344 450.382812 C 667.746094 450.382812 690.59375 462.304688 704.539062 482.269531 Z M 536.621094 569.210938 C 536.621094 610.332031 503.195312 643.785156 462.078125 643.785156 C 420.957031 643.785156 387.507812 610.332031 387.507812 569.210938 L 387.507812 524.925781 C 387.507812 483.84375 420.957031 450.382812 462.078125 450.382812 C 503.195312 450.382812 536.621094 483.84375 536.621094 524.925781 Z M 363.113281 643.785156 L 276.34375 643.785156 C 265.871094 643.785156 257.367188 635.277344 257.367188 624.808594 L 257.367188 469.367188 C 257.367188 458.894531 265.871094 450.382812 276.34375 450.382812 C 286.820312 450.382812 295.320312 458.894531 295.320312 469.367188 L 295.320312 605.832031 L 363.113281 605.832031 C 388.21875 605.832031 388.21875 643.785156 363.113281 643.785156 Z M 76.925781 665.113281 C 76.925781 705.140625 109.496094 737.710938 149.527344 737.710938 L 674.878906 737.710938 C 714.90625 737.710938 747.472656 705.140625 747.472656 665.113281 L 747.472656 180.394531 L 76.925781 180.394531 L 76.925781 665.113281 " fill-opacity="1" fill-rule="nonzero"/><g clip-path="url(#d75684a987)"><path fill="#f5f5f5" d="M 785.429688 665.113281 C 785.429688 726.074219 735.835938 775.667969 674.878906 775.667969 L 149.527344 775.667969 C 88.570312 775.667969 38.976562 726.074219 38.976562 665.113281 L 38.976562 139.105469 C 38.976562 78.144531 88.570312 28.550781 149.527344 28.550781 L 674.878906 28.550781 C 735.835938 28.550781 785.429688 78.144531 785.429688 139.105469 Z M 674.878906 13.613281 L 149.527344 13.613281 C 80.328125 13.613281 24.03125 69.910156 24.03125 139.105469 L 24.03125 665.101562 C 24.03125 734.316406 80.328125 790.613281 149.527344 790.613281 L 674.878906 790.613281 C 744.074219 790.613281 800.371094 734.316406 800.371094 665.101562 L 800.371094 139.105469 C 800.371094 69.910156 744.074219 13.613281 674.878906 13.613281 " fill-opacity="1" fill-rule="nonzero"/></g><path fill="#f5f5f5" d="M 674.851562 66.503906 L 643.683594 66.503906 L 643.683594 142.441406 L 747.472656 142.441406 C 747.472656 102.433594 714.90625 66.503906 674.851562 66.503906 " fill-opacity="1" fill-rule="nonzero"/><path fill="#f5f5f5" d="M 187.988281 585.941406 C 187.988281 574.984375 179.085938 566.046875 168.089844 566.046875 L 144.410156 566.046875 L 144.410156 605.832031 L 168.089844 605.832031 C 179.0625 605.832031 187.988281 596.921875 187.988281 585.941406 " fill-opacity="1" fill-rule="nonzero"/></svg>